<svg width="51" height="48" viewBox="0 0 51 48" fill="none" xmlns="http://www.w3.org/2000/svg">
<g clip-path="url(#clip0_82_741)">
<path d="M42.9064 40.9547C52.2288 31.5908 52.2288 16.4089 42.9064 7.04503C33.5839 -2.31888 18.4692 -2.31888 9.14669 7.04503C-0.175793 16.4089 -0.175793 31.5908 9.14669 40.9547C18.4692 50.3186 33.5839 50.3186 42.9064 40.9547Z" fill="#4C5FB0"/>
<path d="M42.3607 40.4067C51.3818 31.3455 51.3818 16.6544 42.3607 7.59317C33.3396 -1.46803 18.7135 -1.46803 9.69233 7.59317C0.671215 16.6544 0.671215 31.3455 9.69233 40.4067C18.7135 49.4679 33.3396 49.4679 42.3607 40.4067Z" fill="white"/>
<path d="M36.1049 22.4805C36.0419 22.501 35.9809 22.5272 35.9226 22.5587C35.9848 22.5362 36.0457 22.5101 36.1049 22.4805Z" fill="#4C5FB0"/>
<path d="M23.3433 46.4231L23.6456 46.4303C23.5433 46.4191 23.4411 46.4071 23.3394 46.3951L23.3433 46.4231Z" fill="#65ADC7"/>
<path d="M26.0265 46.5569C26.4743 46.5569 26.9185 46.5422 27.3597 46.516L23.6455 46.4302C24.4364 46.5145 25.2312 46.5567 26.0265 46.5569Z" fill="#4C5FB0"/>
<path d="M31.2429 28.3711C31.2429 28.3711 31.7964 26.6022 30.3876 26.5515C28.9787 26.5009 28.4252 26.4507 28.4252 26.4507C28.4252 26.4507 27.1672 25.0551 27.5195 24.2364C27.5195 24.2364 28.8274 24.5031 28.9796 23.9867C28.9796 23.9867 29.1805 23.2662 28.4261 23.2155L28.4761 22.8115C28.4761 22.8115 29.8518 21.548 29.2141 19.7284C28.5765 17.9089 26.423 18.212 26.423 18.212C26.423 18.212 25.6584 18.212 25.0544 19.4249C24.4504 20.6378 24.3495 21.4129 24.3495 21.4129C24.3495 21.4129 23.2929 21.2444 23.5947 22.8115L20.4248 24.2364C20.4248 24.2364 16.6686 24.476 16.2482 26.5515C16.2482 26.5515 15.8456 28.9778 20.2991 28.9778L22.4376 32.5573L22.488 40.3498L23.3398 46.3942C23.4416 46.4062 23.5438 46.4182 23.646 46.4293L27.3602 46.5151C28.1089 46.4711 28.855 46.3894 29.5956 46.2702L32.9717 30.4924L31.2429 28.3711Z" fill="#65ADC7"/>
<path d="M15.0907 19.6778C15.0907 19.6778 13.939 17.976 11.5177 18.6666C11.5177 18.6666 10.3607 18.7169 10.3102 20.1826C10.2598 21.6484 10.3102 23.1649 10.3102 23.1649L7.49119 33.1222L7.13721 36.0031C7.13721 36.0031 8.34473 35.1942 8.2434 36.8622L8.44473 37.9235L15.0629 43.5484L17.7071 37.4689C17.7071 37.4689 15.5938 29.6346 15.8452 28.1689C15.8452 28.1689 12.931 28.1182 13.3567 25.844C13.3567 25.844 15.0907 24.5804 14.9394 23.8729C14.9394 23.8729 15.6943 23.216 14.8894 22.7618C14.8894 22.7618 14.6377 22.2729 15.1407 21.8858C15.1407 21.8849 15.443 20.436 15.0907 19.6778Z" fill="#60605E"/>
<path d="M24.6513 43.9382L25.2548 43.9889C25.2548 43.9889 23.2924 40.1982 23.3428 38.328C23.3933 36.4578 23.0911 35.144 23.6968 34.4867C23.6968 34.4867 26.1119 40.3978 26.6654 44.5449V45.9111H27.9738L27.722 40.0969C27.722 40.0969 27.0176 35.144 24.8039 30.4938C24.8039 30.4938 22.7911 29.7862 22.7406 29.4831C22.7073 29.3135 22.7242 29.1378 22.7893 28.9778C22.7893 28.9778 25.7915 28.3711 26.0265 27.0067C26.0265 27.0067 25.5066 25.6418 24.953 25.2373C24.953 25.2373 25.8083 22.188 22.8897 21.4129C19.9712 20.6378 19.0154 22.2573 19.0154 22.2573C19.0154 22.2573 18.8141 23.1164 19.0154 24.4795C19.0154 24.4795 17.9588 25.6418 18.0592 27.1582C18.1597 28.6747 20.072 28.9778 20.072 28.9778C20.072 28.9778 20.3738 29.6498 19.3676 29.8698C18.3614 30.0898 18.1105 31.1511 18.1105 31.1511L17.1039 33.3244C17.1039 33.3244 16.1482 33.9813 16.8021 36.1547C16.8021 36.1547 17.1561 36.5591 16.2486 38.0249L15.8459 40.1476C15.8459 40.1476 14.438 41.9671 14.6375 43.1293L15.3552 43.8369L16.7008 43.0285L16.6632 44.5005C18.8206 45.4985 21.1229 46.1437 23.4831 46.4116L24.6513 46.3138V43.9382Z" fill="#B60062"/>
<path d="M19.8541 41.7649C21.6992 41.8658 21.5315 40.2982 21.5315 40.2982C20.6258 40.1973 20.8771 39.3885 20.8771 39.3885L19.7178 40.2982C17.1997 39.9427 14.6182 36.3053 14.6182 36.3053C14.6182 36.3053 14.9899 35.6485 15.3554 34.8387C15.7209 34.0289 14.6182 33.4742 14.6182 33.4742C14.6182 33.4742 13.3793 31.1996 12.8767 30.3911C12.374 29.5827 12.8767 28.6222 12.8767 28.6222L13.5289 26.9471C13.6174 28.156 13.3567 29.868 13.3567 29.868C13.3567 29.868 13.4806 29.1276 13.732 28.1165C13.8647 27.5778 13.8572 26.8111 13.8205 26.2111C13.8536 26.1311 13.9054 25.9991 13.9594 25.8356L14.3359 26.7556C14.3603 26.3111 14.2165 25.8427 14.0634 25.4796C14.2244 24.8462 14.3041 24.008 13.7824 23.5716C12.8767 22.8133 13.078 22.308 13.078 22.308C13.078 22.308 13.8828 20.7409 10.2598 20.9431C6.63683 21.1453 6.66338 24.632 6.66338 24.632C6.66338 24.632 5.73152 24.6822 5.42931 27.3107C5.12709 29.9391 5.47975 30.5453 5.47975 30.5453C5.32134 28.3756 5.99966 27.7653 5.99966 27.7653C5.66426 28.4729 5.99966 30.6462 5.99966 30.6462C5.36249 30.6462 5.17798 31.7071 5.17798 31.7071L7.14037 36.004L7.94524 35.0942C9.30408 35.1951 8.90143 38.4805 8.90143 38.4805L13.5974 42.7765C14.0783 43.0991 14.5724 43.4033 15.0797 43.6889L14.6182 39.8942C14.6182 39.8942 18.009 41.664 19.8541 41.7649Z" fill="#67A8D0"/>
<path d="M37.9337 33.9813C37.9337 33.9813 38.4647 39.5915 38.4253 42.6747L39.2921 42.0178L39.5793 32.6667L38.4289 27.5618C38.4289 27.5618 37.7864 27.1071 36.128 27.2062C36.128 27.2062 34.6182 25.9427 35.1718 24.6791C35.3964 24.4294 35.5223 24.1058 35.5258 23.7693C35.5258 23.7693 36.0262 24.0222 36.3797 23.0618C36.6205 22.4084 36.3244 22.4107 36.1107 22.4782C36.0515 22.5079 35.9907 22.534 35.9284 22.5564C35.9867 22.525 36.0477 22.4988 36.1107 22.4782C36.4067 22.3333 36.9297 21.9822 36.6328 21.4115C36.2302 20.6369 35.7271 20.6369 35.7271 20.6369C35.7271 20.6369 36.1466 19.272 34.3996 18.7667C32.6527 18.2613 31.7005 17.5031 31.7005 17.5031C31.7005 17.5031 31.2479 17.4022 30.9483 18.3622C30.6488 19.3222 30.6461 19.9293 30.6461 19.9293C30.6575 20.4458 30.5356 20.9565 30.2921 21.4115C30.2921 21.4115 29.9903 22.256 30.393 22.5067C30.393 22.5067 30.6948 22.9111 30.3426 23.164C30.3426 23.164 30.2421 23.9475 31.1979 23.9853C31.1979 23.9853 31.0974 24.8822 32.2045 25.3875C32.2045 25.3875 32.7076 27.3591 31.701 27.8138C30.6943 28.2684 30.2408 27.8235 30.1412 28.3191C30.1412 28.3191 28.1983 38.2747 26.4275 42.3702C26.4275 42.3702 26.0151 45.9587 27.3735 45.908C27.3735 45.908 27.8266 45.7058 27.3735 44.9982C26.9204 44.2907 27.6253 44.3413 27.6253 44.3413C27.6253 44.3413 27.828 45.4524 28.2549 44.9982C28.6819 44.544 28.2549 43.3809 28.2549 43.3809C28.2549 43.3809 28.9337 42.2698 28.9842 42.724C29.0346 43.1782 28.9842 45.9084 28.9842 45.9084C30.0165 45.9153 31.0482 45.8543 32.0727 45.7258C33.6401 45.2856 35.1548 44.6746 36.5899 43.9035C36.7416 43.688 36.8422 43.4405 36.8842 43.18C37.3315 40.2991 37.9337 33.9813 37.9337 33.9813Z" fill="#490A63"/>
<path d="M46.5119 33.2396C46.8323 31.4902 47.0832 30.0213 46.6889 28.5227C46.6889 28.5227 46.6889 27.8151 44.7266 27.512C44.7266 27.512 43.496 26.9053 44.0359 25.1871C44.0359 25.1871 45.1292 24.5298 45.0788 23.3676C45.0788 23.3676 45.6827 23.2156 45.5319 22.3565C45.5319 22.3565 45.0788 22.0533 44.9279 22.3062L45.1797 21.4129C45.1797 21.4129 45.3801 20.7342 45.2801 18.3636C45.2801 18.3636 44.777 17.3022 42.412 17.9089C42.412 17.9089 40.3991 18.4649 40.55 19.8293C40.7009 21.1938 40.7514 22.104 40.7514 22.104C40.7514 22.104 39.7478 21.952 40.0487 22.8116C40.3496 23.6711 40.904 23.3169 40.904 23.3169C40.904 23.3169 40.7027 23.9431 41.1558 24.2365C41.1558 24.2365 41.5584 26.1978 40.1996 26.6524C40.1996 26.6524 36.4762 25.9956 36.4762 28.7249C36.4762 31.4542 36.1222 33.0715 36.7275 33.3747C36.7275 33.3747 36.9793 37.1151 38.7908 37.2667C38.7908 37.2667 38.6399 41.3111 39.2938 42.0178C39.2938 42.0178 40.4496 41.1773 41.8186 40.0213C43.7836 38.0687 45.3745 35.7699 46.5119 33.2396Z" fill="#E8B000"/>
<path d="M26.0267 46.5569C13.6417 46.5569 3.56958 36.4378 3.56958 24C3.56958 11.5622 13.6417 1.44312 26.0267 1.44312C38.4116 1.44312 48.4837 11.5622 48.4837 24C48.4837 36.4378 38.4094 46.5569 26.0267 46.5569ZM4.2125 24C4.2125 36.1014 13.9789 45.9111 26.0267 45.9111C38.0745 45.9111 47.8408 36.1014 47.8408 24C47.8408 11.8987 38.0745 2.08889 26.0267 2.08889C13.9789 2.08889 4.2125 11.8987 4.2125 24Z" fill="#4C5FB0"/>
<path d="M30.6358 4.66669H21.4173C21.0027 4.66669 20.6052 4.83206 20.312 5.12644C20.0189 5.42081 19.8541 5.82009 19.854 6.23646V11.0898C19.854 11.296 19.8944 11.5001 19.973 11.6906C20.0516 11.8811 20.1667 12.0542 20.3119 12.1999C20.4571 12.3457 20.6294 12.4613 20.8191 12.5402C21.0087 12.6191 21.212 12.6596 21.4173 12.6596H21.9301C24.7513 14.2867 25.8925 17.1338 25.8925 17.1338C28.4084 13.1916 29.919 12.6596 29.919 12.6596H30.6372C30.8424 12.6596 31.0457 12.6191 31.2354 12.5402C31.425 12.4613 31.5974 12.3457 31.7425 12.1999C31.8877 12.0542 32.0029 11.8811 32.0814 11.6906C32.16 11.5001 32.2004 11.296 32.2004 11.0898V6.23646C32.2004 6.03018 32.1599 5.82594 32.0812 5.63539C32.0025 5.44485 31.8872 5.27174 31.7419 5.12597C31.5966 4.98019 31.4242 4.86459 31.2344 4.78579C31.0446 4.70698 30.8412 4.66651 30.6358 4.66669Z" fill="#65ADC7"/>
<path d="M15.2172 7.66534H9.79774C8.79039 7.66534 7.82429 8.06729 7.11199 8.78276C6.39968 9.49824 5.99951 10.4686 5.99951 11.4805V12.072C5.99951 13.0838 6.39968 14.0542 7.11199 14.7697C7.82429 15.4852 8.79039 15.8871 9.79774 15.8871H13.7822V17.9111L15.8539 15.8298C16.7381 15.6796 17.5408 15.2198 18.1198 14.532C18.6988 13.8442 19.0167 12.9727 19.0172 12.072V11.4805C19.0172 10.9793 18.9189 10.4831 18.7279 10.0201C18.5369 9.55708 18.257 9.13642 17.9041 8.78214C17.5512 8.42785 17.1323 8.14686 16.6713 7.95524C16.2102 7.76362 15.7161 7.66511 15.2172 7.66534Z" fill="#60605E"/>
<path d="M49.6477 11.248C49.6477 9.28533 47.1362 7.69244 44.0376 7.69244C40.9389 7.69244 38.427 9.28355 38.427 11.248C38.427 13.2124 40.9389 14.8 44.0398 14.8C44.4806 14.8002 44.9208 14.7671 45.3566 14.7009C45.3982 15.3373 45.273 16.2244 44.546 17.1324C44.546 17.1324 48.938 15.1689 49.5433 11.9387C49.6129 11.7151 49.6481 11.4822 49.6477 11.248Z" fill="#E8B000"/>
<path d="M36.5337 9.1142H32.259C31.4512 9.1142 30.6766 9.43649 30.1054 10.0102C29.5343 10.5839 29.2134 11.362 29.2134 12.1733V12.2551C29.2134 13.0664 29.5343 13.8445 30.1054 14.4182C30.6766 14.9919 31.4512 15.3142 32.259 15.3142H35.2182V17.1338L37.27 15.2204C37.9292 15.0559 38.5147 14.6746 38.9332 14.1372C39.3518 13.5999 39.5794 12.9374 39.5798 12.2551V12.1733C39.5798 11.7715 39.501 11.3737 39.3479 11.0025C39.1948 10.6314 38.9704 10.2941 38.6876 10.01C38.4047 9.72596 38.0689 9.50064 37.6994 9.34693C37.3298 9.19322 36.9337 9.11414 36.5337 9.1142Z" fill="#490A63"/>
<path d="M20.677 12.5178C18.3275 11.8511 15.993 12.8324 15.4629 14.7133C14.9328 16.5942 16.4076 18.66 18.7576 19.3284C19.1131 19.4286 19.4778 19.4923 19.8461 19.5186C20.7333 20.0404 21.5483 20.6773 22.2699 21.4129L22.5536 18.924C23.243 18.5071 23.7576 17.8955 23.9726 17.1329C24.5022 15.252 23.0275 13.1858 20.677 12.5178Z" fill="#B60062"/>
<path d="M6.66331 12.308C3.59163 12.308 1.10181 13.9698 1.10181 16.02C1.20269 20.0613 5.99959 21.8867 5.99959 21.8867C5.47526 21.0693 5.27349 20.2147 5.19826 19.5987C5.68164 19.6872 6.17197 19.7318 6.66331 19.732C9.73455 19.7333 12.2257 18.0698 12.2257 16.02C12.2257 13.9702 9.73455 12.308 6.66331 12.308Z" fill="#67A8D0"/>
</g>
<defs>
<clipPath id="clip0_82_741">
<rect width="50" height="48" fill="white" transform="translate(0.5)"/>
</clipPath>
</defs>
</svg>
