<svg xmlns="http://www.w3.org/2000/svg" viewBox="0 0 1080 1080"><defs><style>.cls-1,.cls-5,.cls-6,.cls-7{fill:none;}.cls-1,.cls-5,.cls-7{stroke:#2e3192;}.cls-1{stroke-miterlimit:10;stroke-width:18px;}.cls-2{fill:#2e3192;}.cls-3{fill:#fff;}.cls-4{fill:#65adc7;}.cls-5,.cls-6,.cls-7{stroke-linecap:round;stroke-linejoin:round;stroke-width:20px;}.cls-5{stroke-dasharray:42.18 42.18;}.cls-6{stroke:#b60062;}.cls-8{fill:#e8b000;}</style></defs><g id="Layer_2" data-name="Layer 2"><path class="cls-1" d="M189.34,926v-5a58.06,58.06,0,0,1-54.43-55.19H129a58.06,58.06,0,0,1-54.43,55.19v5A58.06,58.06,0,0,1,129,981.16h5.89A58.06,58.06,0,0,1,189.34,926Z"/><path class="cls-2" d="M270.3,823.93a12.91,12.91,0,1,1-12.91,12.91,12.92,12.92,0,0,1,12.91-12.91m0-20a32.91,32.91,0,1,0,32.91,32.91,32.91,32.91,0,0,0-32.91-32.91Z"/><path class="cls-1" d="M969.39,926.94v-4a46.08,46.08,0,0,1-43.19-43.8h-4.68A46.07,46.07,0,0,1,878.33,923v4a46.06,46.06,0,0,1,43.19,43.8h4.68A46.07,46.07,0,0,1,969.39,926.94Z"/><circle class="cls-3" cx="272.29" cy="542.15" r="80.42"/><path class="cls-4" d="M272.29,470.74a71.42,71.42,0,1,1-71.42,71.41,71.49,71.49,0,0,1,71.42-71.41m0-18a89.42,89.42,0,1,0,89.41,89.41,89.41,89.41,0,0,0-89.41-89.41Z"/><circle class="cls-3" cx="538.38" cy="310.53" r="80.42"/><path class="cls-4" d="M538.38,239.11A71.42,71.42,0,1,1,467,310.53a71.5,71.5,0,0,1,71.41-71.42m0-18a89.42,89.42,0,1,0,89.42,89.42,89.42,89.42,0,0,0-89.42-89.42Z"/><circle class="cls-3" cx="542.69" cy="769.47" r="80.42"/><path class="cls-4" d="M542.69,698.05a71.42,71.42,0,1,1-71.41,71.42,71.5,71.5,0,0,1,71.41-71.42m0-18a89.42,89.42,0,1,0,89.42,89.42,89.42,89.42,0,0,0-89.42-89.42Z"/><path class="cls-3" d="M807.71,623.65a80.42,80.42,0,1,1,80.42-80.42A80.51,80.51,0,0,1,807.71,623.65Z"/><path class="cls-4" d="M807.71,471.81a71.42,71.42,0,1,1-71.41,71.42,71.5,71.5,0,0,1,71.41-71.42m0-18a89.42,89.42,0,1,0,89.42,89.42,89.42,89.42,0,0,0-89.42-89.42Z"/><path class="cls-3" d="M543.77,623.65a80.42,80.42,0,1,1,80.42-80.42A80.52,80.52,0,0,1,543.77,623.65Z"/><path class="cls-4" d="M543.77,471.81a71.42,71.42,0,1,1-71.42,71.42,71.5,71.5,0,0,1,71.42-71.42m0-18a89.42,89.42,0,1,0,89.42,89.42,89.43,89.43,0,0,0-89.42-89.42Z"/><polyline class="cls-1" points="427.42 316.99 409.11 316.99 334.77 447.35"/><polyline class="cls-1" points="652.58 316.99 670.89 316.99 745.23 447.35"/><polyline class="cls-1" points="427.42 767.32 409.11 767.32 334.77 636.96"/><polyline class="cls-1" points="652.58 767.32 670.89 767.32 745.23 636.96"/></g><g id="Layer_3" data-name="Layer 3"><circle class="cls-5" cx="540" cy="540" r="456.52"/><line class="cls-6" x1="930.02" y1="148.89" x2="930.02" y2="207.94"/><line class="cls-6" x1="959.55" y1="178.41" x2="900.49" y2="178.41"/><line class="cls-6" x1="823.23" y1="792.97" x2="823.23" y2="843.65"/><line class="cls-6" x1="848.57" y1="818.31" x2="797.89" y2="818.31"/><line class="cls-7" x1="203.61" y1="64.72" x2="203.61" y2="150.02"/><line class="cls-7" x1="246.26" y1="107.37" x2="160.96" y2="107.37"/><path class="cls-8" d="M116,198.89a22.47,22.47,0,1,1-22.47,22.46A22.49,22.49,0,0,1,116,198.89m0-18a40.47,40.47,0,1,0,40.46,40.46A40.47,40.47,0,0,0,116,180.89Z"/></g></svg>