<svg xmlns="http://www.w3.org/2000/svg" viewBox="0 0 1080 1080"><defs><style>.cls-1,.cls-10,.cls-13,.cls-2,.cls-4,.cls-5,.cls-8,.cls-9{fill:none;}.cls-1,.cls-13{stroke:#65adc7;}.cls-1,.cls-10,.cls-2,.cls-4,.cls-6,.cls-8{stroke-miterlimit:10;}.cls-1,.cls-2{stroke-width:18px;}.cls-10,.cls-2,.cls-4,.cls-5,.cls-7{stroke:#2e3192;}.cls-3{fill:#2e3192;}.cls-4,.cls-5{stroke-width:20px;}.cls-13,.cls-5,.cls-7,.cls-9{stroke-linecap:round;stroke-linejoin:round;}.cls-5{stroke-dasharray:42.26;}.cls-11,.cls-6,.cls-7{fill:#fff;}.cls-6,.cls-8,.cls-9{stroke:#b60062;}.cls-10,.cls-6,.cls-7,.cls-8,.cls-9{stroke-width:21.65px;}.cls-12{fill:#65adc7;}.cls-13{stroke-width:17.73px;}</style></defs><g id="Layer_2" data-name="Layer 2"><path class="cls-1" d="M1004.3,207.79v-4.73a54.55,54.55,0,0,1-51.15-51.86h-5.54a54.55,54.55,0,0,1-51.14,51.86v4.73a54.56,54.56,0,0,1,51.14,51.87h5.54A54.56,54.56,0,0,1,1004.3,207.79Z"/><path class="cls-1" d="M177.25,875.33v-5a58.06,58.06,0,0,1-54.43-55.19h-5.89A58.06,58.06,0,0,1,62.5,870.3v5a58.06,58.06,0,0,1,54.43,55.19h5.89A58.06,58.06,0,0,1,177.25,875.33Z"/><path class="cls-2" d="M932,957.32v-5a58,58,0,0,1-54.42-55.19h-5.9a58.06,58.06,0,0,1-54.42,55.19v5a58.06,58.06,0,0,1,54.42,55.19h5.9A58,58,0,0,1,932,957.32Z"/><path class="cls-3" d="M849.92,75.68a10.21,10.21,0,1,1-10.2,10.21,10.22,10.22,0,0,1,10.2-10.21m0-20a30.21,30.21,0,1,0,30.21,30.21,30.21,30.21,0,0,0-30.21-30.21Z"/><circle class="cls-4" cx="83.34" cy="301.09" r="32.91"/><path class="cls-3" d="M259.58,932.28a12.91,12.91,0,1,1-12.91,12.91,12.92,12.92,0,0,1,12.91-12.91m0-20a32.91,32.91,0,1,0,32.91,32.91,32.9,32.9,0,0,0-32.91-32.91Z"/><path class="cls-3" d="M976.57,858.49a12.91,12.91,0,1,1-12.91,12.91,12.92,12.92,0,0,1,12.91-12.91m0-20a32.91,32.91,0,1,0,32.91,32.91,32.91,32.91,0,0,0-32.91-32.91Z"/><path class="cls-5" d="M99.43,524.34c0,146.91,70.66,277.31,179.85,359.08"/><path class="cls-5" d="M809.66,160.46A448.38,448.38,0,0,0,243.2,195.35"/><path class="cls-5" d="M798.4,896.09c119.25-80.56,197.65-217,197.65-371.75"/><rect class="cls-6" x="180.82" y="256.87" width="82.17" height="300.81" rx="21.83"/><path class="cls-7" d="M821.53,338.77V287.52a21.84,21.84,0,0,1,21.83-21.83h38.51a21.83,21.83,0,0,1,21.83,21.83V544.66a21.83,21.83,0,0,1-21.83,21.84H843.36a21.84,21.84,0,0,1-21.83-21.84v-61.3"/><line class="cls-8" x1="345.48" y1="287.65" x2="270.43" y2="287.65"/><path class="cls-9" d="M590.9,500.74l70.3,73.45a34.12,34.12,0,0,1-5.72,52h0a34.14,34.14,0,0,1-43.22-4.41L516,524.25l65,66a33.74,33.74,0,0,1-2.88,49.93h0a33.74,33.74,0,0,1-45.31-2.72l-94.68-97.07,73,73a31.9,31.9,0,0,1,0,45.12h0A31.92,31.92,0,0,1,468.7,661L295.52,524.25h-29.4"/><path class="cls-10" d="M821.53,287.52s-45.47,4.54-188-70.41c0,0-86.7-26.45-126.38,7.35s-129.32,97-129.32,97,3.77,49,70.58,43.61A57.8,57.8,0,0,0,477.74,354l60.48-44.2a5.68,5.68,0,0,1,7.61.83l213,240.88a19.75,19.75,0,0,0,20.48,5.83l42.18-12.69"/><path class="cls-8" d="M726.1,590.38s-25.45,33.75-64.9-16.19"/><path class="cls-11" d="M420.65,1038.26a45.84,45.84,0,0,1-45.79-45.79V644.38a45.84,45.84,0,0,1,45.79-45.8H576l133.7,134.35V992.47a45.84,45.84,0,0,1-45.8,45.79Z"/><path class="cls-12" d="M572.27,607.44,700.8,736.59V992.47a37,37,0,0,1-36.94,36.93H420.65a37,37,0,0,1-36.93-36.93V644.38a37,37,0,0,1,36.93-36.94H572.27m7.37-17.73h-159A54.67,54.67,0,0,0,366,644.38V992.47a54.67,54.67,0,0,0,54.66,54.66H663.86a54.67,54.67,0,0,0,54.67-54.66V729.28L579.64,589.71Z"/><path class="cls-12" d="M576.86,612.05l119,119.57H610.2a33.38,33.38,0,0,1-33.34-33.34V612.05m2.78-22.34H559.13V698.28a51.08,51.08,0,0,0,51.07,51.07H718.53V729.28L579.64,589.71Z"/><line class="cls-13" x1="467.18" y1="805.71" x2="617.53" y2="805.71"/><line class="cls-13" x1="467.18" y1="858.84" x2="617.53" y2="858.84"/><line class="cls-13" x1="467.18" y1="911.97" x2="617.53" y2="911.97"/></g></svg>