<svg width="113" height="116" viewBox="0 0 113 116" fill="none" xmlns="http://www.w3.org/2000/svg">
<g clip-path="url(#clip0_274_3540)">
<path d="M81.4209 9.62436L84.3099 9.92196V13.3148H79.1799V9.55577L81.4209 9.62436Z" fill="#FFA1FF"/>
<path d="M84.3101 8.6841V9.91986C84.3101 9.91986 82.4149 12.4874 80.2197 11.4553C78.0245 10.4232 78.7172 8.3158 78.7172 8.3158L84.3101 8.6841Z" fill="black"/>
<path d="M81.4784 10.7261C83.4312 10.7261 85.0143 8.94865 85.0143 6.75605C85.0143 4.56345 83.4312 2.786 81.4784 2.786C79.5255 2.786 77.9424 4.56345 77.9424 6.75605C77.9424 8.94865 79.5255 10.7261 81.4784 10.7261Z" fill="#FFA1FF"/>
<path d="M81.4785 2.78494C79.5833 2.78494 78.0372 4.45971 77.9468 6.56187C79.1992 6.65685 83.0225 6.91329 85.0134 6.65685C84.9666 4.51036 83.4024 2.78494 81.4785 2.78494Z" fill="black"/>
<path d="M79.261 7.37973L83.3045 8.52579C83.3045 8.52579 82.0095 9.5336 80.6698 9.00701C79.3302 8.48041 79.261 7.37973 79.261 7.37973Z" fill="white"/>
<path d="M92.8503 99.4972L96.7332 102.386C96.7332 102.386 102.373 94.3177 102.234 94.2713C102.094 94.2249 98.0729 91.3376 98.0729 91.3376L92.8503 99.4972Z" fill="white" stroke="black" stroke-miterlimit="10"/>
<path d="M81.2912 102.46L72.5347 102.34L73.1125 98.9323L81.8289 99.2946L81.2912 102.46Z" fill="white" stroke="black"/>
<path d="M72.7839 98.5242L82.2937 98.9189L81.6244 102.859L72.0709 102.727L72.7839 98.5242ZM72.6062 98.3057L71.8198 102.935L81.8042 103.073L82.549 98.7184L72.6115 98.3057H72.6062Z" fill="black"/>
<path d="M78.4338 37.6599L92.7949 37.9585L84.2323 99.2454L71.8308 99.146L78.4338 37.6599Z" fill="#F2F2F2" stroke="black" stroke-width="0.5"/>
<path d="M102.372 92.4382L95.1617 102.66L95.8544 104.952L95.2074 105.824L93.6581 106.386C92.6379 106.756 91.7801 107.468 91.2327 108.399C90.6852 109.329 90.4825 110.42 90.6595 111.483L90.8159 112.425L101.587 111.554L109.12 100.185L109.814 96.4716L102.372 92.4382Z" fill="#3ED77E"/>
<path d="M100.338 105.685L97.5186 104.998" stroke="black" stroke-linecap="round" stroke-linejoin="round"/>
<path d="M107.641 99.9562L101.927 108.926C101.602 109.436 101.171 109.872 100.663 110.203C100.155 110.535 99.5815 110.756 98.9807 110.85L91.0319 112.103C90.9135 112.121 90.8001 112.163 90.6983 112.226C90.5964 112.289 90.5083 112.371 90.4389 112.468C90.3695 112.565 90.3203 112.674 90.2943 112.79C90.2682 112.906 90.2657 113.026 90.2871 113.143L90.6063 114.937C90.6273 115.053 90.6712 115.164 90.7357 115.264C90.8001 115.363 90.8837 115.448 90.9816 115.515C91.0796 115.582 91.1899 115.629 91.3063 115.654C91.4227 115.678 91.5428 115.68 91.6597 115.658L100.202 114.068C101.033 113.913 101.823 113.593 102.525 113.126C103.227 112.659 103.826 112.056 104.285 111.352L112.828 98.2751C112.905 98.154 112.957 98.019 112.981 97.8778C113.005 97.7366 113.001 97.5921 112.969 97.4525C112.936 97.3129 112.877 97.181 112.793 97.0645C112.709 96.948 112.602 96.8491 112.48 96.7734L111.35 96.0769C111.223 95.9989 111.082 95.9472 110.935 95.9252C110.787 95.9032 110.637 95.9112 110.493 95.9489C110.349 95.9865 110.214 96.053 110.097 96.1441C109.98 96.2353 109.882 96.3492 109.811 96.479L105.466 94.0951L105.296 95.7836C105.21 96.634 105.388 97.4902 105.807 98.2375C106.225 98.9848 106.864 99.5874 107.637 99.9647L107.641 99.9562Z" fill="#020202"/>
<path d="M99.5989 107.611L95.2074 105.824L93.6581 106.386C92.6379 106.756 91.7801 107.468 91.2327 108.399C90.6852 109.329 90.4825 110.42 90.6595 111.483L90.8159 112.425L101.587 111.554" stroke="black" stroke-linecap="round" stroke-linejoin="round"/>
<path d="M83.7907 102.339L84.2525 107.886L81.3401 113.066L59.6625 112.425L59.5508 110.572C59.5055 109.815 59.7492 109.07 60.2334 108.484C60.7176 107.899 61.4066 107.515 62.1631 107.411L66.1736 106.857C67.3945 106.688 68.5335 106.151 69.4359 105.318C70.3382 104.486 70.9603 103.397 71.2174 102.202L83.7907 102.339Z" fill="#3ED77E"/>
<path d="M68.5371 105.961L71.1718 107.474" stroke="black" stroke-linecap="round" stroke-linejoin="round"/>
<path d="M58.6453 113.234V114.704C58.6453 115.049 58.7833 115.379 59.0289 115.623C59.2746 115.866 59.6078 116.003 59.9552 116.003H84.6229C84.7322 116.003 84.8404 115.982 84.9413 115.94C85.0423 115.899 85.134 115.838 85.2113 115.761C85.2886 115.685 85.3499 115.594 85.3917 115.494C85.4335 115.394 85.455 115.286 85.455 115.178V112.791C85.4547 112.572 85.3669 112.362 85.2109 112.208C85.0549 112.053 84.8434 111.967 84.6229 111.967L84.3452 106.832L82.8225 107.67C82.0097 108.118 81.3194 108.756 80.8115 109.529C80.3036 110.301 79.9935 111.185 79.9079 112.103L59.9669 111.931C59.7935 111.929 59.6216 111.962 59.461 112.027C59.3005 112.092 59.1545 112.187 59.0315 112.309C58.9086 112.43 58.8112 112.574 58.7449 112.733C58.6785 112.892 58.6447 113.062 58.6453 113.234Z" fill="black"/>
<path d="M81.3401 113.066L59.6625 112.425L59.5508 110.572C59.5055 109.815 59.7492 109.07 60.2334 108.484C60.7176 107.899 61.4066 107.515 62.1631 107.411L66.1737 106.857L69.7384 109.583" stroke="black" stroke-linecap="round" stroke-linejoin="round"/>
<path d="M86.5317 84.591L84.4493 99.4972L72.4602 90.9408L73.4902 81.3544L86.5317 84.591Z" fill="black"/>
<path d="M69.2647 38.0247L56.884 63.7551C55.7716 66.0653 55.5047 68.6874 56.1292 71.1715C56.7536 73.6556 58.2304 75.8466 60.3061 77.3685L92.4576 100.942L100.153 90.4205L71.6568 67.837L87.3617 37.6121L69.2647 38.0247Z" fill="#F2F2F2"/>
<path d="M69.2647 38.0247L56.884 63.7551C55.7716 66.0653 55.5047 68.6874 56.1292 71.1715C56.7536 73.6556 58.2304 75.8466 60.3061 77.3685L92.4576 100.942L100.153 90.4205L71.6568 67.837L78.2829 55.0847" stroke="black" stroke-linecap="round" stroke-linejoin="round"/>
<path d="M93.1506 37.1994L92.1525 44.3544L67.4272 41.4629L70.478 32.1794L93.1506 37.1994Z" fill="black"/>
<path d="M17.8906 104.486V4.39956C17.8906 3.98981 18.0548 3.59685 18.3469 3.30711C18.639 3.01737 19.0353 2.8546 19.4484 2.8546C19.8616 2.8546 20.2578 3.01737 20.55 3.30711C20.8421 3.59685 21.0063 3.98981 21.0063 4.39956V106.718L17.8906 104.486Z" fill="white"/>
<path d="M19.4484 2.96118C19.8331 2.96146 20.2019 3.11306 20.474 3.38272C20.7461 3.65238 20.8993 4.01807 20.8998 4.39956V106.511L17.997 104.432V4.39956C17.9976 4.01807 18.1507 3.65238 18.4228 3.38272C18.6949 3.11306 19.0637 2.96146 19.4484 2.96118ZM19.4484 2.75012C19.2299 2.74998 19.0135 2.79255 18.8116 2.87538C18.6097 2.95821 18.4262 3.07968 18.2717 3.23286C18.1171 3.38604 17.9945 3.56792 17.9109 3.7681C17.8272 3.96829 17.7842 4.18287 17.7842 4.39956V104.539L21.1127 106.923V4.39956C21.1127 4.18287 21.0696 3.96829 20.986 3.7681C20.9023 3.56792 20.7797 3.38604 20.6251 3.23286C20.4706 3.07968 20.2871 2.95821 20.0852 2.87538C19.8833 2.79255 19.6669 2.74998 19.4484 2.75012Z" fill="black"/>
<path d="M90.3082 15.6079C90.2918 14.6521 89.8974 13.7409 89.21 13.0707C88.5226 12.4005 87.5973 12.0249 86.6333 12.0249C85.6694 12.0249 84.744 12.4005 84.0567 13.0707C83.3693 13.7409 82.9749 14.6521 82.9585 15.6079H90.3082Z" fill="#8C77FF" stroke="black" stroke-linecap="round" stroke-linejoin="round"/>
<path d="M81.6903 0.10553C80.8003 0.105726 79.9333 0.385566 79.2137 0.904876C78.4941 1.42419 77.959 2.15626 77.685 2.99601C76.6944 2.73007 75.3696 2.53273 74.7769 3.16591C74.7769 3.16591 74.7545 4.12518 77.5573 5.07495C78.3389 5.33259 79.1352 5.54403 79.942 5.70814L85.2113 6.46479C85.4357 6.22348 85.602 5.93482 85.6976 5.62055C85.8264 5.23747 85.8987 4.27925 85.8987 4.27925C85.8985 3.30156 85.5523 2.35496 84.9205 1.60441C84.2887 0.853856 83.4114 0.346947 82.4415 0.172014C82.1936 0.127849 81.9422 0.1056 81.6903 0.10553Z" fill="#41DC82"/>
<path d="M81.0167 4.51458L77.6851 2.996" stroke="black" stroke-linecap="round" stroke-linejoin="round"/>
<path d="M82.4415 0.172014C82.1936 0.127849 81.9422 0.1056 81.6903 0.10553C80.8003 0.105726 79.9333 0.385566 79.2137 0.904876C78.4941 1.42419 77.959 2.15626 77.685 2.99601C76.6944 2.73007 75.3696 2.53273 74.7769 3.16591C74.7769 3.16591 74.7545 4.12518 77.5573 5.07495C78.3389 5.3326 79.1352 5.54403 79.942 5.70814L85.2114 6.46479" stroke="black" stroke-linecap="round" stroke-linejoin="round"/>
<path d="M57.5375 42.7324C56.6408 42.7307 55.7636 42.4737 55.0099 41.9919C54.2563 41.5101 53.658 40.8239 53.2861 40.0148C52.9143 39.2056 52.7845 38.3076 52.9123 37.4275C53.04 36.5473 53.4199 35.722 54.0068 35.0498L69.9682 16.8257C70.4259 16.3039 70.9908 15.885 71.6251 15.5973C72.2593 15.3095 72.9482 15.1595 73.6457 15.1573L96.3959 15.0993C97.3748 15.0967 98.3284 15.4068 99.1157 15.9836C99.6741 16.3904 100.14 16.9087 100.485 17.505C100.829 18.1014 101.043 18.7626 101.114 19.4461C101.185 20.1297 101.111 20.8203 100.897 21.4737C100.682 22.1271 100.332 22.7288 99.8691 23.2399L96.8812 26.5398C96.864 26.5591 96.8546 26.5838 96.8546 26.6095V38.565H74.7076C74.6794 38.565 74.6523 38.5761 74.6324 38.5959C74.6124 38.6157 74.6012 38.6425 74.6012 38.6705V42.7324H57.5375Z" fill="#8C77FF"/>
<path d="M96.3992 15.2038C97.3563 15.2019 98.2888 15.5049 99.0594 16.068C99.6058 16.4663 100.062 16.9736 100.399 17.5573C100.736 18.141 100.946 18.7881 101.015 19.4571C101.084 20.126 101.012 20.802 100.802 21.4415C100.592 22.081 100.25 22.6699 99.7968 23.1702L96.8088 26.4691C96.774 26.5077 96.7547 26.5577 96.7546 26.6095V38.4595H74.7077C74.6512 38.4595 74.5971 38.4817 74.5572 38.5213C74.5173 38.5609 74.4949 38.6146 74.4949 38.6705V42.6269H57.5375C56.6613 42.6252 55.8041 42.374 55.0676 41.9033C54.3312 41.4325 53.7465 40.762 53.383 39.9713C53.0196 39.1807 52.8927 38.3031 53.0174 37.4431C53.1422 36.583 53.5133 35.7765 54.0867 35.1194L70.048 16.8954C70.4954 16.3845 71.0478 15.9745 71.6681 15.693C72.2885 15.4114 72.9624 15.2647 73.6447 15.2628L96.3832 15.2048H96.3949L96.3992 15.2038ZM96.3949 14.9937H96.3821L73.6447 15.0518C72.932 15.0537 72.2279 15.2069 71.5798 15.5011C70.9318 15.7952 70.3547 16.2235 69.8874 16.7572L53.926 34.9812C51.236 38.0521 53.4355 42.8379 57.5375 42.8379H74.7077V38.6705H96.9642V26.6095L99.9522 23.3106C100.425 22.7883 100.782 22.1737 101.001 21.5062C101.22 20.8387 101.296 20.1332 101.223 19.4351C101.15 18.7369 100.931 18.0615 100.58 17.4524C100.228 16.8432 99.752 16.3138 99.1818 15.8981C98.3752 15.3101 97.4003 14.9928 96.3992 14.9927L96.3949 14.9937Z" fill="black"/>
<path d="M66.8728 33.2114L71.3101 21.0406" stroke="black" stroke-linecap="round" stroke-linejoin="round"/>
<path d="M83.629 13.568L77.1274 7.46733C77.023 7.36942 76.8998 7.29322 76.7652 7.24324C76.6306 7.19326 76.4873 7.1705 76.3437 7.1763C76.2002 7.1821 76.0592 7.21635 75.9291 7.27703C75.7991 7.3377 75.6826 7.42358 75.5866 7.52959C75.396 7.73938 75.297 8.01548 75.3111 8.29749C75.3253 8.5795 75.4515 8.84447 75.6621 9.03446L76.9029 10.1531L76.4017 10.6902C76.2449 10.859 76.161 11.082 76.168 11.3114C76.175 11.5408 76.2722 11.7584 76.4389 11.9175L75.9899 12.3893C75.7896 12.5996 75.6808 12.8797 75.6869 13.169C75.6931 13.4583 75.8138 13.7335 76.0229 13.9353C75.6783 14.397 75.5159 14.9676 75.566 15.5398C75.6162 16.112 75.8756 16.6463 76.2953 17.0421L78.5416 19.1611V21.5672H84.4888V14.941C84.489 14.7832 84.5229 14.6273 84.5881 14.4834C84.6534 14.3396 84.7487 14.211 84.8676 14.1062L86.1073 13.0182C86.4598 12.6559 86.9318 12.4312 87.4374 12.385C87.5601 12.3757 87.6786 12.337 87.783 12.2723C87.8873 12.2077 87.9743 12.1189 88.0365 12.0136C88.1641 11.7867 88.1865 11.4722 87.7704 11.1166C86.9394 10.4063 85.2975 11.048 85.2975 11.048C85.2975 11.048 84.0035 11.9186 83.1023 12.8357" fill="#FD9FFE"/>
<path d="M83.629 13.568L77.1274 7.46733C77.023 7.36942 76.8998 7.29322 76.7652 7.24324C76.6306 7.19326 76.4873 7.1705 76.3437 7.1763C76.2002 7.1821 76.0592 7.21635 75.9291 7.27703C75.7991 7.3377 75.6826 7.42358 75.5866 7.52959V7.52959C75.396 7.73938 75.297 8.01548 75.3111 8.29749C75.3253 8.5795 75.4515 8.84447 75.6621 9.03446L76.9029 10.1531L76.4017 10.6902C76.2449 10.859 76.161 11.082 76.168 11.3114C76.175 11.5408 76.2722 11.7584 76.4389 11.9175V11.9175L75.9899 12.3893C75.7896 12.5996 75.6808 12.8797 75.6869 13.169C75.6931 13.4583 75.8138 13.7335 76.0229 13.9353V13.9353C75.6783 14.397 75.5159 14.9676 75.566 15.5398C75.6162 16.112 75.8756 16.6463 76.2953 17.0421L78.5416 19.1611V21.5672H84.4888V14.941C84.489 14.7832 84.5229 14.6273 84.5881 14.4834C84.6534 14.3396 84.7487 14.211 84.8676 14.1062L86.1073 13.0182C86.4598 12.6559 86.9318 12.4312 87.4374 12.385C87.5601 12.3757 87.6786 12.337 87.783 12.2723C87.8873 12.2077 87.9743 12.1189 88.0365 12.0136C88.1641 11.7867 88.1865 11.4722 87.7704 11.1166C86.9394 10.4063 85.2975 11.048 85.2975 11.048C85.2975 11.048 84.0035 11.9186 83.1023 12.8357" stroke="black" stroke-width="0.5" stroke-linecap="round" stroke-linejoin="round"/>
<path d="M81.2709 14.0725L76.9028 10.1531" stroke="black" stroke-width="0.5" stroke-linecap="round" stroke-linejoin="round"/>
<path d="M79.8612 15.1499L76.4412 11.9175" stroke="black" stroke-width="0.5" stroke-linecap="round" stroke-linejoin="round"/>
<path d="M78.7979 16.6854L76.0249 13.9353" stroke="black" stroke-width="0.5" stroke-linecap="round" stroke-linejoin="round"/>
<path d="M78.5437 19.482V21.5672H84.4835V20.4898L78.5437 19.482Z" fill="black"/>
<path d="M85.3155 34.5179V20.9045H76.0249V34.0557C76.0252 35.6553 76.6661 37.1894 77.8068 38.3204C78.9474 39.4514 80.4943 40.0868 82.1072 40.0868C82.9639 40.0868 83.811 39.9074 84.5929 39.5602C85.3748 39.213 86.0739 38.7059 86.6445 38.0722L96.9662 26.6095" fill="#8C77FF"/>
<path d="M85.3155 34.5179V20.9045H76.0249V34.0557C76.0252 35.6553 76.6661 37.1894 77.8068 38.3204C78.9474 39.4514 80.4943 40.0868 82.1072 40.0868V40.0868C82.9639 40.0868 83.811 39.9074 84.5929 39.5602C85.3748 39.213 86.0739 38.7059 86.6445 38.0722L96.9662 26.6095" stroke="black" stroke-linecap="round" stroke-linejoin="round"/>
<path d="M85.3157 25.0972L92.8037 16.7086C92.8037 16.7086 93.9369 15.2037 96.3865 14.9937" stroke="black" stroke-linecap="round" stroke-linejoin="round"/>
<path d="M73.7712 33.8985L80.5995 34.0779C80.9291 34.0863 81.2536 34.1606 81.5536 34.2962C81.8536 34.4319 82.123 34.626 82.3457 34.8672L84.111 36.7773C84.2175 36.9027 84.2972 37.0482 84.3452 37.2051C84.3931 37.362 84.4084 37.527 84.39 37.6899C84.3715 37.8528 84.3199 38.0103 84.238 38.1528C84.1562 38.2953 84.046 38.4197 83.9141 38.5186C83.7851 38.6158 83.6377 38.6866 83.4807 38.7266C83.3237 38.7666 83.1602 38.7751 82.9998 38.7516C82.8394 38.7281 82.6854 38.6731 82.5468 38.5898C82.4081 38.5064 82.2877 38.3965 82.1924 38.2664L81.4029 37.1847C81.2772 37.0135 81.1058 36.8806 80.908 36.801C80.7102 36.7214 80.4939 36.6982 80.2835 36.7341L79.9791 36.7868L81.7881 38.9892C81.9245 39.1546 82.1029 39.2809 82.3049 39.3551C82.5069 39.4293 82.7252 39.4487 82.9373 39.4114L83.2725 39.3533C84.4035 39.1561 85.4536 38.6407 86.2977 37.8685L86.5754 37.6142C86.8448 37.4347 87.1726 37.3629 87.4932 37.4132C87.8137 37.4635 88.1032 37.6322 88.3035 37.8854C88.5072 38.144 88.6025 38.4705 88.5696 38.7969C88.5367 39.1234 88.3781 39.4248 88.1269 39.6382L87.846 39.8767L87.8513 39.8873C88.011 40.241 88.0496 40.6368 87.9612 41.0143C87.8728 41.3917 87.6623 41.7302 87.3618 41.9779V41.9905C87.4185 42.4367 87.3472 42.8896 87.1559 43.2973C86.9647 43.7051 86.6613 44.051 86.2807 44.2953L86.2509 44.3143C85.5377 44.7726 84.7553 45.1149 83.9333 45.3284L82.5425 45.6946C82.8995 46.2678 83.4616 46.6862 84.1163 46.866L84.3451 46.9293L84.3802 46.9494C84.6334 47.0995 84.8189 47.3403 84.8985 47.622C84.9781 47.9037 84.9457 48.205 84.808 48.4638L84.7941 48.4891C84.7215 48.6277 84.6219 48.7506 84.501 48.8507C84.3802 48.9509 84.2405 49.0262 84.0901 49.0724C83.9396 49.1187 83.7814 49.1348 83.6247 49.12C83.4679 49.1052 83.3156 49.0597 83.1767 48.9861L81.8498 48.2854C81.5725 48.139 81.3304 47.9349 81.1401 47.6871L76.4336 41.5568C76.264 41.3345 76.0448 41.1541 75.7932 41.0298C75.5416 40.9055 75.2643 40.8406 74.9832 40.8402H73.9106L73.7712 33.8985Z" fill="#FFA1FF" stroke="black" stroke-width="0.5" stroke-linecap="round" stroke-linejoin="round"/>
<path d="M74.9832 40.8434H73.9106L73.7712 33.8985L77.0305 33.9839L74.9832 40.8434Z" fill="black"/>
<path d="M78.6245 36.6496L79.977 36.7868" stroke="black" stroke-width="0.5" stroke-linecap="round" stroke-linejoin="round"/>
<path d="M79.561 40.1216C79.561 40.1216 80.5666 42.4591 82.9927 41.8407C85.4188 41.2223 85.2113 41.3932 85.836 41.1188C86.4606 40.8445 87.846 39.881 87.846 39.881" stroke="black" stroke-width="0.5" stroke-linecap="round" stroke-linejoin="round"/>
<path d="M78.8672 41.6687C78.8672 41.6687 80.0462 44.4536 82.5766 43.8004C85.107 43.1471 85.7689 42.8379 85.7689 42.8379L87.365 41.9779" stroke="black" stroke-width="0.5" stroke-linecap="round" stroke-linejoin="round"/>
<path d="M79.6653 45.244C79.6653 45.244 80.3931 46.2413 82.5383 45.6915" stroke="black" stroke-width="0.5" stroke-linecap="round" stroke-linejoin="round"/>
<path d="M74.7077 42.8379V33.2114L60.7712 33.28" fill="#8C77FF"/>
<path d="M74.7077 42.8379V33.2114L60.7712 33.28" stroke="black" stroke-linecap="round" stroke-linejoin="round"/>
<path d="M7.38378 20.8H42.121V9.86603H7.38378L1.97607 15.2301L7.38378 20.8Z" fill="black"/>
<path d="M5.72054 19.4587H40.4567V8.52579H5.72054L0.311768 13.8888L5.72054 19.4587Z" fill="#FFD400"/>
<path d="M7.38378 53.7023H42.121V42.7693H7.38378L1.97607 48.1324L7.38378 53.7023Z" fill="black"/>
<path d="M5.72054 52.361H40.4567V41.428H5.72054L0.311768 46.7911L5.72054 52.361Z" fill="#8C77FF"/>
<path d="M35.9845 27.6067H1.24829V38.5397H35.9845L41.3932 33.1766L35.9845 27.6067Z" fill="black"/>
<path d="M0.106445 36.5779V25.856H34.6915L39.996 31.3182L34.6926 36.5779H0.106445Z" fill="white"/>
<path d="M34.6457 25.9605L39.8459 31.3161L34.6478 36.4713H0.212818V25.9605H34.6457ZM34.7362 25.7494H0V36.6824H34.7362L40.1449 31.3193L34.7362 25.7494Z" fill="black"/>
<path d="M6.3208 103.715L11.4518 99.9098L25.7351 109.72L29.4328 105.869L41.5433 113.295" stroke="black" stroke-width="3" stroke-linecap="round" stroke-linejoin="round"/>
<path d="M41.9549 86.8747H34.4201V85.9967C34.4201 84.5031 34.5655 83.2902 34.8564 82.358C35.14 81.44 35.5793 80.5767 36.1556 79.8052C36.7303 79.0313 38.0224 77.6756 40.0321 75.7381C41.1026 74.7215 41.6378 73.7896 41.6378 72.9426C41.6378 72.0955 41.4229 71.437 40.993 70.967C40.5674 70.4971 39.9165 70.2621 39.0404 70.2621C38.5942 70.2542 38.1522 70.348 37.7483 70.5362C37.3445 70.7245 36.9896 71.0022 36.7111 71.348C36.0961 72.0727 35.7027 73.3358 35.531 75.1376L27.8376 74.0285C28.1015 70.7324 29.1302 68.0794 30.9235 66.0694C32.7169 64.0594 35.4619 63.054 39.1585 63.0533C42.0401 63.0533 44.3665 63.7544 46.1379 65.1565C48.5427 67.0512 49.7455 69.5772 49.7462 72.7347C49.744 74.0534 49.4244 75.3526 48.8141 76.5243C48.194 77.7414 46.9264 79.2276 45.011 80.9829C43.6752 82.2155 42.8325 83.2054 42.4827 83.9526C42.133 84.6997 41.9571 85.6737 41.9549 86.8747ZM38.2008 89.209C38.7307 89.2089 39.2553 89.3123 39.7449 89.5132C40.2344 89.7142 40.6793 90.0089 41.054 90.3804C41.4287 90.7519 41.7259 91.193 41.9287 91.6784C42.1315 92.1639 42.2359 92.6842 42.2359 93.2097V93.4999C42.2361 94.0256 42.132 94.5462 41.9293 95.0319C41.7267 95.5177 41.4295 95.9591 41.0548 96.3309C40.6801 96.7027 40.2351 96.9976 39.7455 97.1989C39.2558 97.4001 38.7309 97.5037 38.2008 97.5037C37.6705 97.5041 37.1453 97.4008 36.6552 97.1998C36.1652 96.9987 35.7199 96.7039 35.3448 96.332C34.9698 95.9601 34.6723 95.5186 34.4694 95.0326C34.2666 94.5467 34.1623 94.0258 34.1626 93.4999V93.2076C34.1629 92.682 34.2676 92.1617 34.4707 91.6762C34.6738 91.1908 34.9714 90.7499 35.3464 90.3785C35.7214 90.0072 36.1665 89.7128 36.6563 89.5121C37.1461 89.3115 37.6709 89.2085 38.2008 89.209Z" fill="black"/>
<path d="M39.2511 87.2873H31.7163V86.4093C31.7163 84.9164 31.8617 83.7035 32.1525 82.7706C32.4361 81.8526 32.8755 80.9893 33.4518 80.2178C34.0264 79.4475 35.3182 78.0917 37.3272 76.1507C38.3984 75.1341 38.934 74.2022 38.934 73.3552C38.934 72.5081 38.719 71.8496 38.2891 71.3797C37.8592 70.9104 37.2084 70.6754 36.3365 70.6747C35.8902 70.6669 35.448 70.7607 35.044 70.949C34.64 71.1372 34.285 71.4149 34.0062 71.7606C33.3925 72.4846 32.9995 73.7478 32.8272 75.5502L25.1338 74.4411C25.3977 71.145 26.4263 68.4917 28.2197 66.4809C30.013 64.4702 32.7584 63.4652 36.4557 63.466C39.3373 63.466 41.6637 64.167 43.4351 65.5692C45.8399 67.4631 47.0427 69.9891 47.0434 73.1473C47.0412 74.4661 46.7216 75.7653 46.1113 76.9369C45.4898 78.154 44.2207 79.6402 42.304 81.3955C40.9696 82.6281 40.1272 83.618 39.7767 84.3652C39.4263 85.1123 39.2511 86.0864 39.2511 87.2873ZM35.4938 89.6216C36.0236 89.6215 36.5483 89.7249 37.0378 89.9259C37.5274 90.1269 37.9722 90.4215 38.3469 90.793C38.7216 91.1645 39.0188 91.6056 39.2216 92.0911C39.4244 92.5765 39.5288 93.0968 39.5288 93.6223V93.9146C39.5288 94.9759 39.1037 95.9938 38.347 96.7442C37.5903 97.4947 36.5639 97.9163 35.4938 97.9163C34.4236 97.9163 33.3973 97.4947 32.6406 96.7442C31.8839 95.9938 31.4587 94.9759 31.4587 93.9146V93.6223C31.4587 93.0968 31.5631 92.5765 31.7659 92.0911C31.9687 91.6056 32.2659 91.1645 32.6406 90.793C33.0153 90.4215 33.4602 90.1269 33.9497 89.9259C34.4393 89.7249 34.9639 89.6215 35.4938 89.6216Z" fill="#FFA1FF" stroke="black" stroke-width="2" stroke-linecap="round" stroke-linejoin="round"/>
</g>
<defs>
<clipPath id="clip0_274_3540">
<rect width="113" height="116" fill="white"/>
</clipPath>
</defs>
</svg>
