<svg width="236" height="48" viewBox="0 0 236 48" fill="none" xmlns="http://www.w3.org/2000/svg">
<path d="M141.864 16.9102H143.959L145.42 21.018L146.881 16.9102H148.966V23.2063H147.597V18.3755L145.946 23.2063H144.894L143.306 18.3755V23.2063H141.922L141.864 16.9102Z" fill="#6D6C6C"/>
<path d="M150.218 16.9102H151.602V23.2063H150.218V16.9102Z" fill="#6D6C6C"/>
<path d="M152.863 16.9102H154.743L157.413 21.3062V16.9102H158.801V23.2063H156.989L154.251 18.7223V23.2063H152.868L152.863 16.9102Z" fill="#6D6C6C"/>
<path d="M160.073 16.9102H161.456V23.2063H160.073V16.9102Z" fill="#6D6C6C"/>
<path d="M165.821 18.4487C165.703 18.3013 165.546 18.191 165.368 18.1313C165.193 18.0664 165.008 18.0318 164.822 18.0287C164.717 18.0299 164.612 18.043 164.51 18.0678C164.405 18.088 164.303 18.1243 164.208 18.1752C164.118 18.2244 164.04 18.2928 163.979 18.3755C163.916 18.4633 163.883 18.5699 163.887 18.6783C163.882 18.7632 163.899 18.848 163.936 18.9242C163.974 19.0005 164.031 19.0656 164.101 19.113C164.265 19.2271 164.446 19.3144 164.637 19.3719C164.856 19.4452 165.085 19.5136 165.333 19.5868C165.578 19.6564 165.812 19.7583 166.03 19.8897C166.274 20.0296 166.474 20.2359 166.607 20.4847C166.74 20.7336 166.8 21.0149 166.78 21.2964C166.788 21.612 166.721 21.9251 166.585 22.2098C166.461 22.4635 166.281 22.6856 166.059 22.8595C165.827 23.0343 165.565 23.1636 165.285 23.2404C164.608 23.428 163.89 23.4076 163.224 23.1818C162.862 23.0488 162.53 22.8427 162.25 22.5762L163.224 21.4918C163.363 21.6815 163.547 21.8328 163.76 21.9314C163.968 22.0331 164.196 22.0865 164.427 22.0877C164.542 22.0875 164.657 22.0728 164.768 22.0437C164.878 22.0218 164.983 21.9822 165.08 21.9265C165.169 21.8755 165.245 21.8054 165.304 21.7214C165.376 21.6024 165.402 21.461 165.377 21.324C165.352 21.1871 165.278 21.0642 165.168 20.9789C165.003 20.8553 164.819 20.7612 164.622 20.7005C164.403 20.6223 164.169 20.5442 163.916 20.466C163.667 20.392 163.428 20.287 163.205 20.1534C162.989 20.0334 162.802 19.8665 162.659 19.665C162.502 19.4122 162.426 19.1174 162.44 18.82C162.434 18.5118 162.503 18.2068 162.64 17.931C162.77 17.6814 162.953 17.4632 163.176 17.2911C163.404 17.1148 163.663 16.9838 163.94 16.9052C164.231 16.8174 164.533 16.773 164.837 16.7734C165.185 16.7716 165.531 16.8226 165.864 16.9248C166.195 17.0198 166.501 17.1865 166.761 17.4132L165.821 18.4487Z" fill="#6D6C6C"/>
<path d="M169.031 18.1362H167.238V16.9102H172.207V18.1362H170.414V23.2063H169.031V18.1362Z" fill="#6D6C6C"/>
<path d="M172.952 16.9102H177.219V18.1899H174.335V19.3622H177.058V20.6468H174.335V21.9265H177.38V23.2063H172.952V16.9102Z" fill="#6D6C6C"/>
<path d="M178.491 16.9102H180.926C181.232 16.9078 181.538 16.9389 181.837 17.003C182.106 17.0578 182.363 17.1639 182.592 17.3156C182.81 17.4649 182.988 17.6663 183.108 17.9017C183.244 18.1882 183.309 18.5031 183.298 18.82C183.309 19.2269 183.188 19.6264 182.953 19.9581C182.703 20.2778 182.34 20.4894 181.939 20.5491L183.537 23.2063H181.876L180.566 20.6908H179.884V23.2063H178.5L178.491 16.9102ZM179.874 19.538H180.688H181.082C181.212 19.5294 181.34 19.5014 181.462 19.455C181.585 19.412 181.69 19.329 181.761 19.2193C181.831 19.1096 181.863 18.9794 181.852 18.8493C181.862 18.7257 181.835 18.6018 181.773 18.4943C181.711 18.3869 181.618 18.3011 181.506 18.2485C181.398 18.193 181.281 18.1582 181.16 18.1459C181.033 18.1266 180.904 18.1168 180.775 18.1166H179.874V19.538Z" fill="#6D6C6C"/>
<path d="M184.219 16.9102H185.593V23.2063H184.209L184.219 16.9102Z" fill="#6D6C6C"/>
<path d="M186.523 20.0557C186.516 19.5875 186.602 19.1225 186.776 18.6881C186.936 18.2937 187.177 17.9375 187.483 17.6428C187.791 17.3507 188.156 17.1247 188.554 16.9785C189.433 16.6725 190.389 16.6725 191.268 16.9785C191.668 17.1247 192.034 17.3507 192.344 17.6428C192.65 17.9375 192.891 18.2937 193.051 18.6881C193.38 19.5715 193.38 20.5448 193.051 21.4283C192.891 21.8209 192.65 22.1754 192.344 22.4687C192.034 22.7607 191.668 22.9867 191.268 23.133C190.389 23.4389 189.433 23.4389 188.554 23.133C188.156 22.9867 187.791 22.7607 187.483 22.4687C187.177 22.174 186.936 21.8178 186.776 21.4234C186.602 20.9889 186.516 20.524 186.523 20.0557ZM187.96 20.0557C187.957 20.334 188.005 20.6104 188.101 20.8714C188.194 21.1053 188.335 21.3167 188.516 21.4918C188.691 21.6734 188.902 21.8179 189.134 21.9167C189.651 22.1184 190.225 22.1184 190.742 21.9167C190.973 21.819 191.182 21.6744 191.355 21.4918C191.529 21.3076 191.663 21.0899 191.75 20.8519C191.932 20.3267 191.932 19.7554 191.75 19.2302C191.663 18.9907 191.529 18.7714 191.355 18.5855C191.182 18.4029 190.973 18.2582 190.742 18.1605C190.225 17.9588 189.651 17.9588 189.134 18.1605C188.902 18.2593 188.691 18.4038 188.516 18.5855C188.342 18.7704 188.209 18.9901 188.126 19.2302C188.02 19.4928 187.964 19.7727 187.96 20.0557Z" fill="#6D6C6C"/>
<path d="M196.87 16.9102H198.945C199.427 16.9071 199.908 16.9628 200.377 17.0762C200.803 17.1806 201.205 17.3663 201.561 17.6233C201.901 17.881 202.177 18.2157 202.364 18.6002C202.573 19.0596 202.675 19.5608 202.661 20.0655C202.671 20.5317 202.571 20.9936 202.369 21.4137C202.187 21.7932 201.922 22.1269 201.595 22.3906C201.26 22.6588 200.878 22.8625 200.469 22.9914C200.036 23.1289 199.584 23.1982 199.13 23.1965H196.87V16.9102ZM198.258 21.9265H198.974C199.274 21.9281 199.573 21.8954 199.865 21.8288C200.124 21.7697 200.367 21.6584 200.581 21.5016C200.791 21.347 200.959 21.1421 201.069 20.9057C201.193 20.6229 201.253 20.3159 201.244 20.0069C201.251 19.728 201.191 19.4516 201.069 19.201C200.953 18.9765 200.786 18.7825 200.581 18.6344C200.375 18.4815 200.142 18.3688 199.895 18.3022C199.625 18.227 199.346 18.1892 199.067 18.1899H198.258V21.9265Z" fill="#6D6C6C"/>
<path d="M203.655 16.9102H207.918V18.1899H205.039V19.3622H207.762V20.6468H205.039V21.9265H208.078V23.2063H203.655V16.9102Z" fill="#6D6C6C"/>
<path d="M141.864 27.5828H143.939C144.422 27.581 144.903 27.6384 145.371 27.7538C145.799 27.8534 146.202 28.0396 146.555 28.3008C146.9 28.5541 147.176 28.8899 147.359 29.2777C147.569 29.7366 147.671 30.2382 147.656 30.7431C147.665 31.2087 147.567 31.6702 147.368 32.0912C147.185 32.4696 146.92 32.8031 146.594 33.0681C146.259 33.3364 145.878 33.5401 145.469 33.6689C145.035 33.8065 144.584 33.8757 144.129 33.874H141.864V27.5828ZM143.247 32.5992H143.968C144.268 32.6002 144.567 32.5675 144.86 32.5015C145.117 32.4439 145.36 32.3324 145.571 32.1742C145.783 32.0219 145.951 31.8164 146.058 31.5783C146.178 31.2944 146.237 30.9879 146.229 30.6796C146.234 30.4014 146.176 30.1256 146.058 29.8736C145.941 29.6501 145.774 29.4563 145.571 29.307C145.365 29.1541 145.132 29.0415 144.884 28.9749C144.614 28.9 144.336 28.8622 144.056 28.8625H143.238L143.247 32.5992Z" fill="#6D6C6C"/>
<path d="M148.65 27.5828H152.917V28.8625H150.033V30.0397H152.756V31.3194H150.033V32.5991H153.078V33.8789H148.65V27.5828Z" fill="#6D6C6C"/>
<path d="M157.291 29.1215C157.176 28.9817 157.024 28.8768 156.853 28.8186C156.678 28.7533 156.494 28.7186 156.307 28.716C156.202 28.7173 156.097 28.7304 155.995 28.7551C155.891 28.7784 155.789 28.8145 155.693 28.8626C155.603 28.9118 155.525 28.9801 155.464 29.0628C155.39 29.1803 155.362 29.3213 155.385 29.4585C155.409 29.5957 155.482 29.7192 155.591 29.8053C155.756 29.9169 155.936 30.0025 156.127 30.0593C156.341 30.1325 156.575 30.2058 156.823 30.2742C157.068 30.3447 157.302 30.4465 157.52 30.577C157.736 30.708 157.919 30.8868 158.056 31.0997C158.211 31.3676 158.285 31.6746 158.27 31.9838C158.276 32.2992 158.209 32.6117 158.075 32.8972C157.951 33.1521 157.769 33.3746 157.544 33.5468C157.315 33.7232 157.053 33.8541 156.775 33.9327C156.471 34.0139 156.158 34.0549 155.844 34.0548C155.458 34.0572 155.075 33.9944 154.709 33.8692C154.348 33.7338 154.017 33.5279 153.735 33.2635L154.709 32.1792C154.849 32.3677 155.033 32.5187 155.245 32.6188C155.455 32.7206 155.685 32.774 155.917 32.7751C156.032 32.7738 156.146 32.7607 156.258 32.736C156.368 32.7102 156.473 32.6691 156.57 32.6139C156.658 32.5626 156.732 32.4926 156.789 32.4087C156.847 32.3224 156.876 32.2197 156.872 32.1157C156.876 32.0288 156.859 31.9424 156.821 31.864C156.784 31.7856 156.728 31.7177 156.658 31.6663C156.492 31.5452 156.308 31.4513 156.112 31.3879C155.893 31.3097 155.654 31.2316 155.401 31.1534C155.154 31.081 154.916 30.9776 154.695 30.8457C154.475 30.7181 154.288 30.5408 154.149 30.3279C153.992 30.0751 153.916 29.7804 153.93 29.4829C153.924 29.1748 153.993 28.8698 154.13 28.5939C154.259 28.3449 154.44 28.1266 154.661 27.9541C154.891 27.7777 155.152 27.6468 155.43 27.5682C155.721 27.4796 156.023 27.4352 156.327 27.4363C156.675 27.4373 157.021 27.4883 157.354 27.5877C157.685 27.6839 157.991 27.8505 158.251 28.0762L157.291 29.1215Z" fill="#6D6C6C"/>
<path d="M161.344 27.5828H162.489L165.221 33.8789H163.672L163.132 32.5454H160.696L160.175 33.8789H158.65L161.344 27.5828ZM161.875 29.4145L161.115 31.3683H162.649L161.875 29.4145Z" fill="#6D6C6C"/>
<path d="M165.85 27.5828H168.285C168.59 27.5804 168.894 27.6116 169.191 27.6756C169.461 27.7304 169.717 27.8365 169.946 27.9882C170.166 28.1359 170.344 28.3377 170.463 28.5743C170.598 28.8608 170.664 29.1757 170.653 29.4926C170.664 29.8996 170.543 30.2993 170.307 30.6307C170.058 30.9512 169.695 31.1629 169.294 31.2217L170.891 33.8789H169.235L167.92 31.3634H167.238V33.8789H165.855L165.85 27.5828ZM167.233 30.1911H168.056H168.456C168.585 30.1848 168.711 30.1567 168.831 30.1081C168.954 30.065 169.059 29.9821 169.13 29.8724C169.2 29.7627 169.232 29.6324 169.221 29.5024C169.226 29.367 169.193 29.2328 169.123 29.1165C169.061 29.0239 168.975 28.9497 168.875 28.9016C168.767 28.8461 168.65 28.8113 168.529 28.799C168.403 28.7799 168.276 28.7701 168.149 28.7697H167.243L167.233 30.1911Z" fill="#6D6C6C"/>
<path d="M171.598 27.5827H174.033C174.338 27.5807 174.642 27.6118 174.939 27.6755C175.209 27.7304 175.465 27.8365 175.695 27.9882C175.913 28.1373 176.09 28.3388 176.211 28.5743C176.346 28.8608 176.412 29.1757 176.401 29.4926C176.412 29.8996 176.291 30.2993 176.055 30.6307C175.805 30.9504 175.442 31.1619 175.042 31.2217L176.64 33.8789H174.983L173.668 31.3633H172.986V33.8789H171.603L171.598 27.5827ZM172.981 30.1911H173.795H174.189C174.32 30.1853 174.448 30.1572 174.569 30.108C174.692 30.065 174.797 29.9821 174.868 29.8724C174.939 29.7626 174.971 29.6324 174.959 29.5023C174.965 29.3669 174.931 29.2328 174.862 29.1165C174.798 29.0249 174.713 28.951 174.613 28.9016C174.505 28.8461 174.388 28.8113 174.267 28.799C174.14 28.7797 174.011 28.7699 173.882 28.7697H172.981V30.1911Z" fill="#6D6C6C"/>
<path d="M177.01 30.7333C177.003 30.2639 177.087 29.7977 177.258 29.3607C177.419 28.9716 177.66 28.6205 177.965 28.3301C178.272 28.0379 178.637 27.8133 179.036 27.6707C179.915 27.3581 180.875 27.3581 181.754 27.6707C182.153 27.8145 182.518 28.0389 182.826 28.3301C183.132 28.6248 183.373 28.981 183.532 29.3754C183.87 30.2574 183.87 31.2335 183.532 32.1156C183.373 32.51 183.132 32.8662 182.826 33.1609C182.517 33.4518 182.152 33.6777 181.754 33.8252C180.874 34.1311 179.917 34.1311 179.036 33.8252C178.638 33.6789 178.273 33.4529 177.965 33.1609C177.658 32.8662 177.418 32.51 177.258 32.1156C177.086 31.6756 177.002 31.2059 177.01 30.7333ZM178.442 30.7333C178.44 31.0099 178.487 31.2846 178.583 31.5441C178.668 31.783 178.802 32.0012 178.978 32.184C179.151 32.3665 179.36 32.5112 179.591 32.6089C180.108 32.8106 180.682 32.8106 181.199 32.6089C181.431 32.5112 181.64 32.3665 181.813 32.184C181.988 32.0012 182.123 31.783 182.207 31.5441C182.396 31.02 182.396 30.4465 182.207 29.9224C182.124 29.6845 181.992 29.4666 181.82 29.2825C181.648 29.0984 181.44 28.952 181.209 28.8527C180.692 28.651 180.118 28.651 179.601 28.8527C179.368 28.9509 179.158 29.0967 178.985 29.2809C178.811 29.4651 178.678 29.6836 178.593 29.9224C178.494 30.1814 178.443 30.4561 178.442 30.7333Z" fill="#6D6C6C"/>
<path d="M184.779 27.5828H186.163V32.5991H188.725V33.8789H184.779V27.5828Z" fill="#6D6C6C"/>
<path d="M189.538 27.5828H190.922V32.5991H193.489V33.8789H189.538V27.5828Z" fill="#6D6C6C"/>
<path d="M193.913 30.7333C193.905 30.2634 193.991 29.7968 194.166 29.3608C194.327 28.9716 194.568 28.6206 194.872 28.3301C195.18 28.0379 195.545 27.8134 195.944 27.6707C196.822 27.3581 197.78 27.3581 198.657 27.6707C199.054 27.8134 199.415 28.0381 199.719 28.3301C200.027 28.6236 200.268 28.9801 200.426 29.3754C200.763 30.2575 200.763 31.2336 200.426 32.1156C200.266 32.5057 200.025 32.8571 199.719 33.1462C199.411 33.4393 199.047 33.6654 198.648 33.8105C197.769 34.1165 196.813 34.1165 195.934 33.8105C195.536 33.6643 195.171 33.4383 194.863 33.1462C194.556 32.8515 194.316 32.4953 194.156 32.101C193.985 31.6658 193.902 31.2009 193.913 30.7333ZM195.35 30.7333C195.346 31.0096 195.392 31.2844 195.486 31.5441C195.572 31.7827 195.706 32.0006 195.88 32.184C196.055 32.3674 196.266 32.5121 196.499 32.6089C197.015 32.8108 197.587 32.8108 198.102 32.6089C198.336 32.5126 198.547 32.3678 198.721 32.184C198.894 31.9999 199.029 31.7821 199.115 31.5441C199.297 31.019 199.297 30.4476 199.115 29.9225C199.029 29.683 198.894 29.4636 198.721 29.2777C198.547 29.0939 198.336 28.9491 198.102 28.8528C197.587 28.6509 197.015 28.6509 196.499 28.8528C196.266 28.9504 196.056 29.095 195.881 29.2777C195.707 29.4636 195.573 29.683 195.486 29.9225C195.387 30.1814 195.336 30.4561 195.335 30.7333H195.35Z" fill="#6D6C6C"/>
<path d="M207.362 29.1214C207.242 28.9746 207.084 28.8646 206.904 28.804C206.73 28.7387 206.545 28.704 206.359 28.7014C206.254 28.7026 206.149 28.7157 206.047 28.7405C205.942 28.7637 205.841 28.7998 205.745 28.8479C205.655 28.8971 205.577 28.9655 205.516 29.0482C205.456 29.1374 205.425 29.2433 205.428 29.351C205.422 29.4363 205.438 29.5217 205.475 29.5989C205.511 29.676 205.568 29.7421 205.638 29.7906C205.804 29.9002 205.984 29.9857 206.174 30.0446C206.393 30.1179 206.622 30.1912 206.87 30.2595C207.116 30.3293 207.352 30.4311 207.572 30.5624C207.787 30.6948 207.97 30.8733 208.108 31.085C208.26 31.3535 208.333 31.6604 208.317 31.9691C208.325 32.2847 208.258 32.5978 208.122 32.8825C207.998 33.1362 207.818 33.3583 207.596 33.5322C207.365 33.7095 207.102 33.8405 206.822 33.918C206.52 33.9992 206.208 34.0402 205.896 34.0401C205.51 34.0425 205.126 33.9797 204.761 33.8545C204.399 33.7204 204.068 33.5144 203.787 33.2489L204.761 32.1645C204.901 32.353 205.085 32.5041 205.297 32.6041C205.506 32.7064 205.736 32.7598 205.969 32.7604C206.084 32.7592 206.198 32.7461 206.31 32.7213C206.417 32.6947 206.521 32.6536 206.617 32.5992C206.706 32.5482 206.782 32.4781 206.841 32.3941C206.899 32.3077 206.928 32.205 206.924 32.101C206.927 32.0144 206.908 31.9284 206.871 31.8502C206.834 31.772 206.778 31.7039 206.709 31.6516C206.543 31.5318 206.359 31.438 206.164 31.3732C205.945 31.2951 205.706 31.2169 205.453 31.1387C205.204 31.0654 204.965 30.9621 204.741 30.831C204.524 30.7007 204.338 30.524 204.196 30.3133C204.043 30.059 203.968 29.765 203.982 29.4682C203.973 29.1599 204.042 28.8543 204.181 28.5793C204.308 28.3289 204.49 28.1102 204.712 27.9394C204.942 27.763 205.203 27.6321 205.482 27.5535C205.771 27.4654 206.071 27.4209 206.373 27.4216C206.723 27.4223 207.071 27.4733 207.406 27.5731C207.736 27.6692 208.042 27.8358 208.302 28.0615L207.362 29.1214Z" fill="#6D6C6C"/>
<path d="M209.009 30.7333C209.003 30.2637 209.089 29.7975 209.262 29.3608C209.417 28.9734 209.651 28.6225 209.949 28.3302C210.256 28.038 210.621 27.8134 211.02 27.6708C211.456 27.5108 211.916 27.4313 212.38 27.4363C212.841 27.4308 213.3 27.5103 213.734 27.6708C214.138 27.8122 214.508 28.0368 214.82 28.3302C215.126 28.6249 215.367 28.9811 215.526 29.3754C215.856 30.2589 215.856 31.2322 215.526 32.1157C215.365 32.5048 215.125 32.8559 214.82 33.1463C214.51 33.4383 214.143 33.6643 213.743 33.8106C213.309 33.9669 212.851 34.0446 212.389 34.0402C211.926 34.0443 211.466 33.9666 211.03 33.8106C210.632 33.6643 210.267 33.4383 209.959 33.1463C209.652 32.8516 209.412 32.4954 209.252 32.101C209.083 31.6652 209.001 31.2007 209.009 30.7333ZM210.446 30.7333C210.443 31.01 210.491 31.2847 210.587 31.5442C210.67 31.784 210.805 32.0025 210.981 32.184C211.155 32.3666 211.364 32.5113 211.595 32.609C212.112 32.8107 212.686 32.8107 213.203 32.609C213.434 32.5113 213.643 32.3666 213.817 32.184C213.99 31.9999 214.124 31.7822 214.211 31.5442C214.393 31.019 214.393 30.4477 214.211 29.9225C214.125 29.683 213.99 29.4637 213.817 29.2778C213.643 29.0952 213.434 28.9505 213.203 28.8528C212.686 28.6511 212.112 28.6511 211.595 28.8528C211.364 28.9505 211.155 29.0952 210.981 29.2778C210.805 29.4611 210.67 29.6812 210.587 29.9225C210.488 30.1815 210.437 30.4561 210.436 30.7333H210.446Z" fill="#6D6C6C"/>
<path d="M220.836 29.2191C220.705 29.0567 220.538 28.9264 220.349 28.8381C220.133 28.7428 219.898 28.6961 219.662 28.7013C219.412 28.7006 219.165 28.7521 218.936 28.8528C218.718 28.9536 218.522 29.0982 218.361 29.2777C218.194 29.4661 218.065 29.685 217.981 29.9225C217.793 30.4465 217.793 31.02 217.981 31.5441C218.063 31.7801 218.191 31.9976 218.357 32.184C218.514 32.3632 218.706 32.5079 218.922 32.6089C219.14 32.7091 219.378 32.7607 219.618 32.7604C219.88 32.766 220.138 32.7038 220.368 32.5796C220.587 32.4651 220.773 32.2971 220.909 32.0912L222.063 32.9557C221.807 33.3182 221.457 33.6036 221.05 33.7812C220.655 33.9587 220.227 34.0503 219.794 34.0499C219.331 34.054 218.871 33.9763 218.434 33.8203C218.036 33.6741 217.671 33.448 217.363 33.156C217.057 32.8613 216.816 32.5051 216.656 32.1107C216.319 31.2287 216.319 30.2526 216.656 29.3705C216.812 28.9792 217.048 28.6248 217.348 28.3301C217.656 28.0379 218.021 27.8133 218.42 27.6707C218.855 27.5107 219.315 27.4313 219.779 27.4363C219.965 27.4388 220.151 27.4551 220.334 27.4851C220.527 27.5206 220.716 27.5729 220.899 27.6414C221.088 27.7153 221.268 27.8103 221.435 27.9247C221.611 28.0465 221.767 28.1948 221.898 28.3643L220.836 29.2191Z" fill="#6D6C6C"/>
<path d="M222.784 27.5828H224.168V33.8789H222.784V27.5828Z" fill="#6D6C6C"/>
<path d="M227.485 27.5828H228.63L231.382 33.8789H229.818L229.278 32.5454H226.842L226.321 33.8789H224.796L227.485 27.5828ZM228.016 29.4145L227.256 31.3683H228.791L228.016 29.4145Z" fill="#6D6C6C"/>
<path d="M232.054 27.5828H233.438V32.5991H236V33.8789H232.054V27.5828Z" fill="#6D6C6C"/>
<path d="M126.198 0V48" stroke="#6D6C6C" stroke-width="2.28" stroke-miterlimit="10"/>
<path d="M0 26.2688H2.51841C2.83469 26.2713 3.14983 26.3073 3.45855 26.3763C3.73822 26.4321 4.00451 26.5416 4.24282 26.6986C4.46736 26.851 4.64998 27.0576 4.77378 27.2994C4.91947 27.6036 4.98807 27.9392 4.9735 28.2763C4.98481 28.6962 4.85815 29.1081 4.61303 29.4486C4.35326 29.774 3.9779 29.9858 3.56572 30.0396L5.22193 32.7945H3.50239L2.14333 30.1862H1.43213V32.7945H0V26.2688ZM1.43213 28.9699H2.27972H2.6889C2.82243 28.9636 2.95405 28.9356 3.0786 28.8869C3.19305 28.8445 3.29285 28.7699 3.366 28.672C3.45136 28.5511 3.49264 28.4045 3.48291 28.2568C3.4943 28.111 3.45843 27.9653 3.38061 27.8416C3.31654 27.7446 3.22728 27.6669 3.12244 27.6169C3.01094 27.5609 2.89065 27.5245 2.76684 27.5095C2.63618 27.4903 2.50432 27.4806 2.37228 27.4802H1.43213V28.9699Z" fill="#6D6C6C"/>
<path d="M6.01106 26.2688H10.4292V27.5974H7.4432V28.8136H10.2636V30.1422H7.4432V31.4659H10.5949V32.7945H6.01106V26.2688Z" fill="#6D6C6C"/>
<path d="M11.7445 26.2688H14.1801C14.4896 26.2757 14.7979 26.3117 15.1007 26.3763C15.3818 26.4297 15.6499 26.5375 15.8899 26.6938C16.1157 26.8488 16.2984 27.0589 16.4208 27.3043C16.5654 27.6089 16.6339 27.9442 16.6205 28.2812C16.633 28.6167 16.5698 28.9506 16.4354 29.2581C16.3276 29.5026 16.1601 29.716 15.9483 29.8784C15.7185 30.0357 15.4604 30.1469 15.1884 30.2057C14.8679 30.2714 14.5413 30.3025 14.2142 30.2985H13.1766V32.8433H11.7445V26.2688ZM13.1766 29.0334H14.1508C14.2767 29.0346 14.4023 29.0232 14.5259 28.9992C14.6394 28.9753 14.7481 28.9324 14.8474 28.8722C14.9424 28.8128 15.0211 28.7306 15.0764 28.6329C15.1384 28.5158 15.1686 28.3844 15.1641 28.2519C15.1708 28.109 15.1297 27.968 15.0471 27.8514C14.9729 27.748 14.8718 27.6669 14.7549 27.6169C14.6293 27.5572 14.494 27.5208 14.3554 27.5095C14.2093 27.5095 14.068 27.5095 13.9316 27.5095H13.1766V29.0334Z" fill="#6D6C6C"/>
<path d="M23.0213 30.2839C23.0249 30.6479 22.9656 31.0098 22.8459 31.3536C22.7351 31.6697 22.5573 31.958 22.3247 32.1986C22.0838 32.4469 21.791 32.6388 21.4674 32.7603C20.6968 33.0337 19.856 33.0337 19.0854 32.7603C18.7618 32.6388 18.469 32.4469 18.228 32.1986C17.9972 31.9567 17.8196 31.6688 17.7068 31.3536C17.5888 31.0096 17.5311 30.6476 17.5363 30.2839V26.2688H18.9733V30.2253C18.9699 30.417 19.003 30.6076 19.0708 30.787C19.1298 30.9515 19.2209 31.1026 19.3387 31.2315C19.4569 31.358 19.5994 31.4594 19.7576 31.5294C19.926 31.5989 20.1065 31.6338 20.2886 31.632C20.4675 31.6338 20.6448 31.5989 20.8098 31.5294C20.9665 31.4593 21.1074 31.3579 21.2238 31.2315C21.3414 31.1015 21.4339 30.9508 21.4966 30.787C21.5605 30.6067 21.5918 30.4165 21.5892 30.2253V26.2688H23.0262L23.0213 30.2839ZM20.2886 24.4713H22.164L20.576 25.7901H19.363L20.2886 24.4713Z" fill="#6D6C6C"/>
<path d="M24.356 26.2688H26.7916C27.077 26.2681 27.362 26.2893 27.6441 26.3323C27.9127 26.3659 28.1733 26.447 28.4137 26.5717C28.6357 26.6848 28.8252 26.8529 28.9642 27.0601C29.1154 27.3203 29.1881 27.6189 29.1736 27.9198C29.1851 28.253 29.0761 28.5791 28.8667 28.8381C28.6511 29.0857 28.3685 29.2655 28.0533 29.3558C28.2567 29.3834 28.4542 29.4445 28.6378 29.5366C28.8079 29.6203 28.9601 29.7364 29.086 29.8785C29.2151 30.0199 29.3145 30.186 29.3782 30.3669C29.4433 30.5554 29.4762 30.7536 29.4756 30.9531C29.4831 31.2676 29.3966 31.5772 29.2272 31.842C29.0831 32.0697 28.888 32.2604 28.6573 32.3989C28.4153 32.5446 28.15 32.6471 27.873 32.7017C27.5882 32.7637 27.2975 32.7948 27.006 32.7945H24.356V26.2688ZM25.8174 28.8771H26.8549C26.9647 28.8781 27.0741 28.8666 27.1813 28.843C27.2835 28.8194 27.3808 28.7781 27.4687 28.7208C27.556 28.6666 27.6281 28.591 27.6782 28.501C27.7308 28.3983 27.7575 28.2843 27.7561 28.1689C27.761 28.0503 27.7305 27.9329 27.6684 27.8319C27.6124 27.7455 27.5352 27.6749 27.4444 27.6267C27.3466 27.575 27.2414 27.5387 27.1326 27.5193C27.02 27.4987 26.906 27.4872 26.7916 27.4851H25.8174V28.8771ZM25.8174 31.5783H27.1034C27.2164 31.5768 27.3291 31.5637 27.4395 31.5392C27.5491 31.5174 27.6534 31.4743 27.7464 31.4122C27.8377 31.3499 27.9142 31.2682 27.9704 31.1729C28.032 31.0626 28.0623 30.9376 28.0581 30.8114C28.0637 30.6778 28.0223 30.5464 27.9412 30.4402C27.8653 30.3451 27.7664 30.2711 27.6538 30.2253C27.5335 30.1757 27.4075 30.1412 27.2787 30.1227C27.1529 30.104 27.026 30.0942 26.8988 30.0934H25.7784L25.8174 31.5783Z" fill="#6D6C6C"/>
<path d="M30.3525 26.2688H31.7846V31.4659H34.4443V32.7945H30.3525V26.2688Z" fill="#6D6C6C"/>
<path d="M36.6461 26.2688H35.2139V32.7945H36.6461V26.2688Z" fill="#6D6C6C"/>
<path d="M42.209 27.9638C42.0673 27.7941 41.8891 27.6588 41.6878 27.5681C41.4631 27.4723 41.2206 27.4256 40.9766 27.4313C40.7183 27.4298 40.4627 27.4831 40.2264 27.5876C39.9996 27.6905 39.797 27.8403 39.6321 28.0273C39.4578 28.2201 39.3236 28.446 39.2375 28.6915C39.1386 28.9604 39.0891 29.2451 39.0914 29.5317C39.0879 29.82 39.1374 30.1064 39.2375 30.3767C39.3254 30.6204 39.4575 30.8456 39.6272 31.041C39.7898 31.2251 39.9889 31.3731 40.2118 31.4757C40.5616 31.6553 40.9652 31.6992 41.3453 31.5992C41.7254 31.4992 42.0555 31.2622 42.2723 30.9335L43.4657 31.8274C43.204 32.2056 42.8409 32.5019 42.4184 32.6822C42.0074 32.8653 41.5627 32.9601 41.1129 32.9606C40.635 32.9679 40.1598 32.8884 39.71 32.7261C39.2961 32.5736 38.9168 32.3394 38.5945 32.0374C38.2786 31.7326 38.0298 31.3649 37.8639 30.958C37.6874 30.5052 37.5997 30.0226 37.6057 29.5366C37.5992 29.0521 37.6869 28.5709 37.8639 28.1201C38.0285 27.711 38.2775 27.3415 38.5945 27.0357C38.9168 26.7337 39.2961 26.4996 39.71 26.347C40.1601 26.1854 40.6349 26.1043 41.1129 26.1076C41.3057 26.1092 41.498 26.1272 41.6878 26.1614C41.8889 26.1962 42.0863 26.2501 42.2772 26.3226C42.4737 26.3967 42.6603 26.4951 42.8325 26.6156C43.0179 26.7401 43.1823 26.8935 43.3196 27.0699L42.209 27.9638Z" fill="#6D6C6C"/>
<path d="M46.3885 26.2688H47.577L50.4072 32.7945H48.79L48.2249 31.4122H45.7016L45.156 32.7945H43.5778L46.3885 26.2688ZM46.9389 28.1689L46.1498 30.1959H47.7378L46.9389 28.1689Z" fill="#6D6C6C"/>
<path d="M53.7781 26.2688H55.9263C56.4187 26.2682 56.9093 26.3273 57.3876 26.4446C57.8299 26.551 58.247 26.7435 58.6152 27.0112C58.9708 27.2793 59.2565 27.6295 59.4482 28.0321C59.6651 28.5082 59.7701 29.0279 59.755 29.5512C59.7631 30.0334 59.6615 30.5112 59.4579 30.9482C59.2657 31.3393 58.9915 31.6842 58.6542 31.9592C58.3065 32.2385 57.91 32.4505 57.4851 32.5845C57.0359 32.7262 56.5676 32.797 56.0968 32.7945H53.7781V26.2688ZM55.2102 31.4659H55.9555C56.2666 31.4672 56.577 31.4344 56.881 31.3682C57.1481 31.3073 57.4 31.1927 57.6215 31.0312C57.8316 30.8671 57.9988 30.6542 58.1086 30.4109C58.2334 30.1162 58.2932 29.7979 58.2839 29.4779C58.2908 29.1896 58.2308 28.9037 58.1086 28.6427C57.9919 28.4133 57.8254 28.213 57.6215 28.0565C57.4087 27.8975 57.1672 27.7814 56.9103 27.7146C56.6313 27.6357 56.3428 27.5963 56.0529 27.5974H55.2053L55.2102 31.4659Z" fill="#6D6C6C"/>
<path d="M60.8072 26.2688H65.2303V27.5974H62.2442V28.8136H65.0647V30.1422H62.2442V31.4659H65.3959V32.7945H60.8072V26.2688Z" fill="#6D6C6C"/>
<path d="M69.2636 26.2688H71.6992C72.0262 26.2675 72.3526 26.2986 72.6735 26.3616C72.9533 26.4142 73.2199 26.5221 73.4577 26.6791C73.6849 26.834 73.8692 27.0441 73.9936 27.2897C74.1363 27.5948 74.2031 27.93 74.1884 28.2666C74.2023 28.6017 74.1407 28.9356 74.0082 29.2435C73.9003 29.488 73.7328 29.7013 73.5211 29.8638C73.2899 30.022 73.0301 30.1332 72.7563 30.1911C72.4359 30.2574 72.1092 30.2885 71.782 30.2839H70.7347V32.8287H69.3026L69.2636 26.2688ZM70.6958 29.0335H71.67C71.7959 29.0347 71.9215 29.0232 72.0451 28.9993C72.1586 28.9754 72.2673 28.9324 72.3666 28.8723C72.4616 28.8129 72.5403 28.7306 72.5955 28.6329C72.6575 28.5158 72.6878 28.3845 72.6832 28.2519C72.69 28.1091 72.6488 27.9681 72.5663 27.8514C72.4899 27.7501 72.3894 27.6695 72.274 27.617C72.1482 27.5578 72.013 27.5214 71.8746 27.5095C71.7285 27.5095 71.5872 27.5095 71.4508 27.5095H70.7152L70.6958 29.0335Z" fill="#6D6C6C"/>
<path d="M76.512 26.2688H77.7005L80.5307 32.7945H78.9135L78.3533 31.4122H75.8251L75.2796 32.7945H73.7013L76.512 26.2688ZM77.0624 28.1689L76.2733 30.1959H77.8662L77.0624 28.1689Z" fill="#6D6C6C"/>
<path d="M81.1835 26.2688H83.1319L85.8939 30.8016H85.9134V26.2688H87.3455V32.7945H85.475L82.6351 28.1493H82.6156V32.7945H81.1835V26.2688Z" fill="#6D6C6C"/>
<path d="M90.8138 26.2688H91.9975L94.8277 32.7945H93.2104L92.6503 31.4122H90.1172L89.5765 32.7945H87.9934L90.8138 26.2688ZM91.3643 28.1689L90.5751 30.1959H92.1631L91.3643 28.1689Z" fill="#6D6C6C"/>
<path d="M95.4804 26.2688H97.6481L99.1485 30.5281H99.1679L100.673 26.2688H102.831V32.7945H101.399V27.7928H101.379L99.6697 32.7945H98.5785L96.9321 27.7928H96.9126V32.7945H95.4804V26.2688Z" fill="#6D6C6C"/>
<path d="M106.299 26.2688H107.483L110.313 32.7945H108.696L108.141 31.4122H105.608L105.067 32.7945H103.484L106.299 26.2688ZM106.913 24.4664H108.789L107.196 25.7901H105.983L106.913 24.4664ZM106.85 28.1689L106.056 30.196H107.654L106.85 28.1689Z" fill="#6D6C6C"/>
<path d="M16.4549 38.8611H6.09875V39.4179H16.4549V38.8611Z" fill="#AA182C"/>
<path d="M103.552 38.8611H93.1958V39.4179H103.552V38.8611Z" fill="#002856"/>
<path d="M24.4047 39.1884V41.3962C24.2871 41.4663 24.1631 41.5252 24.0345 41.572C23.8925 41.6224 23.7477 41.6648 23.601 41.699C23.4518 41.7361 23.3005 41.7639 23.1479 41.7821C22.9921 41.7821 22.8508 41.7821 22.7144 41.7821C22.3673 41.7882 22.0225 41.7234 21.7012 41.5916C21.4208 41.4813 21.1656 41.3152 20.951 41.1031C20.7395 40.89 20.5737 40.6356 20.4639 40.3558C20.3564 40.0668 20.3019 39.7606 20.3032 39.4522C20.3008 39.1343 20.3604 38.8191 20.4785 38.5241C20.5883 38.2443 20.7541 37.9899 20.9656 37.7768C21.1759 37.5664 21.426 37.4003 21.7012 37.2883C22.0039 37.1709 22.3266 37.1145 22.6511 37.1222C22.9939 37.1113 23.3359 37.1643 23.6594 37.2786C23.9067 37.3709 24.131 37.5159 24.317 37.7035L23.8884 38.192C23.722 38.0256 23.5206 37.8988 23.299 37.8207C23.09 37.7515 22.8712 37.7168 22.6511 37.7182C22.413 37.715 22.1771 37.7633 21.9594 37.8598C21.7575 37.9501 21.576 38.0806 21.4261 38.2436C21.2762 38.4065 21.1609 38.5983 21.0874 38.8074C21.0042 39.0127 20.9564 39.2308 20.9462 39.4522C20.9437 39.693 20.9884 39.932 21.0777 40.1555C21.1615 40.3664 21.2856 40.5589 21.443 40.7221C21.5991 40.8837 21.7864 41.0117 21.9935 41.0982C22.2103 41.1917 22.4443 41.2383 22.6803 41.235C22.8847 41.236 23.0887 41.2164 23.2892 41.1764C23.4599 41.1444 23.6244 41.085 23.7763 41.0005V39.755H22.8021V39.1884H24.4047Z" fill="#6D6C6C"/>
<path d="M27.5613 41.8064C27.2389 41.8111 26.9189 41.7496 26.6211 41.6257C26.3459 41.5137 26.0958 41.3476 25.8856 41.1372C25.6759 40.9226 25.5104 40.6686 25.3984 40.3899C25.171 39.7922 25.171 39.1315 25.3984 38.5338C25.5104 38.255 25.6759 38.0011 25.8856 37.7865C26.0958 37.5761 26.3459 37.41 26.6211 37.298C26.9198 37.1777 27.2394 37.1179 27.5613 37.1222C27.8834 37.1207 28.2027 37.1821 28.5014 37.3029C28.7751 37.415 29.0236 37.5811 29.2321 37.7913C29.4418 38.006 29.6073 38.2599 29.7192 38.5387C29.9466 39.1364 29.9466 39.7971 29.7192 40.3948C29.6073 40.6735 29.4418 40.9274 29.2321 41.1421C29.0236 41.3524 28.7751 41.5185 28.5014 41.6306C28.2033 41.7536 27.8836 41.815 27.5613 41.8113V41.8064ZM27.5613 41.2398C27.7902 41.2436 28.0174 41.199 28.2281 41.109C28.4387 41.0189 28.6281 40.8854 28.7839 40.7172C28.9317 40.5511 29.0473 40.359 29.1249 40.1505C29.2808 39.7014 29.2808 39.2125 29.1249 38.7634C29.0473 38.5549 28.9317 38.3628 28.7839 38.1967C28.5402 37.9458 28.2261 37.7749 27.8834 37.7069C27.5407 37.6389 27.1854 37.6768 26.8647 37.8158C26.6652 37.9079 26.485 38.0372 26.3337 38.1967C26.186 38.3628 26.0703 38.5549 25.9927 38.7634C25.8368 39.2125 25.8368 39.7014 25.9927 40.1505C26.0703 40.359 26.186 40.5511 26.3337 40.7172C26.4837 40.8782 26.6642 41.0077 26.8647 41.0981C27.0834 41.197 27.3214 41.2455 27.5613 41.2398Z" fill="#6D6C6C"/>
<path d="M30.7568 37.215H32.3107C32.4916 37.2121 32.6721 37.2351 32.8465 37.2833C33.0034 37.3216 33.1509 37.3914 33.2801 37.4885C33.3997 37.5806 33.4965 37.6993 33.5626 37.8353C33.6325 37.9885 33.6674 38.1553 33.6649 38.3237C33.6736 38.5531 33.5972 38.7776 33.4505 38.9538C33.3002 39.12 33.1086 39.243 32.8952 39.3104C33.0281 39.3184 33.1577 39.3551 33.2752 39.4179C33.3915 39.4777 33.4956 39.5588 33.5821 39.6572C33.6682 39.7612 33.7372 39.8783 33.7867 40.004C33.8365 40.1384 33.8613 40.2808 33.8597 40.4241C33.8644 40.6106 33.8226 40.7953 33.7379 40.9614C33.6559 41.1135 33.5411 41.2453 33.4018 41.3473C33.2551 41.4569 33.0902 41.5396 32.9147 41.5915C32.7166 41.6477 32.5117 41.6756 32.3058 41.6745H30.7568V37.215ZM31.3608 39.076H32.1889C32.297 39.0772 32.4049 39.0657 32.5104 39.0418C32.6076 39.0242 32.6994 38.984 32.7783 38.9245C32.8517 38.8705 32.9117 38.8003 32.9537 38.7194C33.0029 38.6228 33.0264 38.5151 33.0219 38.4068C33.0252 38.3151 33.0088 38.2237 32.9738 38.1389C32.9388 38.054 32.886 37.9778 32.819 37.9152C32.752 37.8527 32.6724 37.8053 32.5855 37.7763C32.4986 37.7474 32.4066 37.7375 32.3156 37.7474H31.3413L31.3608 39.076ZM31.3608 41.1665H32.2522C32.3552 41.1656 32.4578 41.1558 32.5591 41.1372C32.6687 41.1179 32.7741 41.0799 32.8709 41.0249C32.9716 40.9645 33.0581 40.8828 33.1242 40.7855C33.1941 40.6694 33.228 40.5351 33.2216 40.3997C33.2299 40.2868 33.2108 40.1736 33.1658 40.0698C33.1208 39.966 33.0514 39.8747 32.9634 39.8038C32.7584 39.6604 32.5115 39.5899 32.262 39.6035H31.3608V41.1665Z" fill="#6D6C6C"/>
<path d="M35.3357 37.215H34.7317V41.694H35.3357V37.215Z" fill="#6D6C6C"/>
<path d="M36.4853 37.215H39.3691V37.7816H37.0893V39.115H39.2132V39.6865H37.0893V41.1226H39.4811V41.694H36.4853V37.215Z" fill="#6D6C6C"/>
<path d="M40.3384 37.215H41.8923C42.1332 37.207 42.3732 37.2468 42.5987 37.3322C42.7642 37.3971 42.9137 37.4971 43.0371 37.6253C43.1403 37.7425 43.2168 37.8808 43.2611 38.0307C43.3026 38.1719 43.3239 38.3183 43.3245 38.4654C43.3255 38.6076 43.299 38.7486 43.2465 38.8806C43.1972 39.013 43.1246 39.1354 43.0322 39.2421C42.9315 39.3511 42.8129 39.442 42.6815 39.5107C42.5408 39.5897 42.3844 39.6364 42.2236 39.6475L43.495 41.6941H42.7545L41.6196 39.7403H40.9473V41.6941H40.3384V37.215ZM40.9473 39.1688H41.7413C41.8588 39.1688 41.9762 39.1589 42.0921 39.1395C42.1905 39.133 42.2874 39.1116 42.3795 39.076C42.4708 39.0236 42.5465 38.9478 42.5987 38.8562C42.6533 38.7401 42.6817 38.6133 42.6817 38.485C42.6817 38.3566 42.6533 38.2298 42.5987 38.1137C42.5476 38.0226 42.4715 37.948 42.3795 37.8988C42.2847 37.8442 42.1806 37.8078 42.0726 37.7914C41.9567 37.7719 41.8394 37.7621 41.7218 37.7621H40.9473V39.1688Z" fill="#6D6C6C"/>
<path d="M44.1964 37.215H44.9904L47.4504 40.893H47.465V37.215H48.069V41.694H47.2994L44.8151 38.0111H44.8004V41.694H44.1964V37.215Z" fill="#6D6C6C"/>
<path d="M51.2645 41.8064C50.9422 41.8102 50.6225 41.7487 50.3244 41.6257C50.0507 41.5136 49.8022 41.3475 49.5937 41.1372C49.384 40.9226 49.2185 40.6686 49.1066 40.3899C48.8792 39.7922 48.8792 39.1315 49.1066 38.5338C49.2185 38.255 49.384 38.0011 49.5937 37.7865C49.8022 37.5762 50.0507 37.4101 50.3244 37.298C50.6231 37.1772 50.9424 37.1158 51.2645 37.1173C51.5868 37.1146 51.9063 37.176 52.2047 37.298C52.4799 37.41 52.73 37.5761 52.9402 37.7865C53.1499 38.0011 53.3154 38.255 53.4274 38.5338C53.6548 39.1315 53.6548 39.7922 53.4274 40.3899C53.3154 40.6686 53.1499 40.9226 52.9402 41.1372C52.73 41.3476 52.4799 41.5137 52.2047 41.6257C51.9069 41.7496 51.5869 41.8111 51.2645 41.8064ZM51.2645 41.2349C51.5044 41.2406 51.7424 41.1922 51.9611 41.0933C52.1616 41.0028 52.3421 40.8733 52.4921 40.7123C52.6398 40.5463 52.7555 40.3541 52.8331 40.1457C52.989 39.6965 52.989 39.2077 52.8331 38.7585C52.7555 38.55 52.6398 38.3579 52.4921 38.1919C52.3407 38.0323 52.1606 37.903 51.9611 37.8109C51.6416 37.6655 51.2847 37.6241 50.9405 37.6924C50.5963 37.7608 50.2821 37.9354 50.0419 38.1919C49.8941 38.3579 49.7785 38.55 49.7009 38.7585C49.545 39.2077 49.545 39.6965 49.7009 40.1457C49.7785 40.3541 49.8941 40.5463 50.0419 40.7123C50.1977 40.8805 50.3871 41.014 50.5977 41.1041C50.8084 41.1941 51.0356 41.2387 51.2645 41.2349Z" fill="#6D6C6C"/>
<path d="M56.2185 37.215H57.0125L59.4725 40.893H59.4871V37.215H60.0911V41.694H59.3215L56.8372 38.0111H56.8226V41.694H56.2185V37.215Z" fill="#6D6C6C"/>
<path d="M62.6388 37.215H63.1892L65.1036 41.694H64.3973L63.9491 40.5853H61.8204L61.3771 41.694H60.6708L62.6388 37.215ZM63.7251 40.0529L62.8921 37.9965L62.0348 40.0529H63.7251Z" fill="#6D6C6C"/>
<path d="M68.7911 38.1821C68.6629 38.0165 68.4955 37.8855 68.304 37.8011C68.1158 37.7152 67.9116 37.6702 67.7048 37.6692C67.4684 37.6665 67.2342 37.7148 67.018 37.8109C66.8172 37.9002 66.639 38.0338 66.4968 38.2017C66.3479 38.3705 66.2322 38.5661 66.1558 38.778C66.0764 39.0073 66.0369 39.2485 66.0389 39.4912C66.0385 39.719 66.0764 39.9452 66.1509 40.1603C66.2246 40.3645 66.3352 40.5533 66.4773 40.7172C66.6245 40.8792 66.8037 41.009 67.0034 41.0982C67.2248 41.1935 67.464 41.2401 67.7048 41.2349C67.9386 41.2417 68.1701 41.1879 68.3771 41.0786C68.5718 40.9706 68.7386 40.8184 68.8642 40.6341L69.3513 41.02C69.2971 41.0904 69.2386 41.1573 69.1759 41.2203C69.0753 41.3205 68.9624 41.4075 68.8398 41.4792C68.6864 41.5735 68.5231 41.6505 68.3527 41.7087C67.8134 41.8693 67.2346 41.8312 66.7209 41.6013C66.4462 41.4758 66.1994 41.2964 65.995 41.0737C65.7972 40.8555 65.6419 40.602 65.5372 40.3264C65.433 40.0604 65.3801 39.777 65.3813 39.4912C65.3737 39.1575 65.4316 38.8255 65.5518 38.5143C65.663 38.2308 65.8285 37.972 66.0389 37.7523C66.2485 37.5412 66.4988 37.375 66.7744 37.2638C67.0834 37.1373 67.415 37.0758 67.7487 37.0831C68.0459 37.085 68.34 37.143 68.6158 37.2541C68.8915 37.363 69.1324 37.5454 69.3123 37.7816L68.7911 38.1821Z" fill="#6D6C6C"/>
<path d="M70.725 37.215H70.121V41.694H70.725V37.215Z" fill="#6D6C6C"/>
<path d="M73.9254 41.8065C73.603 41.8108 73.2831 41.7493 72.9852 41.6258C72.7115 41.5137 72.463 41.3476 72.2545 41.1373C72.0449 40.9227 71.8793 40.6687 71.7674 40.39C71.5334 39.7935 71.5334 39.1303 71.7674 38.5339C71.8793 38.2552 72.0449 38.0012 72.2545 37.7866C72.463 37.5763 72.7115 37.4102 72.9852 37.2981C73.589 37.0572 74.2618 37.0572 74.8655 37.2981C75.1407 37.4101 75.3908 37.5762 75.6011 37.7866C75.8107 38.0012 75.9762 38.2552 76.0882 38.5339C76.3156 39.1316 76.3156 39.7923 76.0882 40.39C75.9762 40.6687 75.8107 40.9227 75.6011 41.1373C75.3908 41.3477 75.1407 41.5138 74.8655 41.6258C74.5677 41.7497 74.2478 41.8112 73.9254 41.8065ZM73.9254 41.235C74.1652 41.2407 74.4033 41.1923 74.6219 41.0934C74.8224 41.003 75.0029 40.8734 75.1529 40.7124C75.3006 40.5464 75.4163 40.3542 75.4939 40.1458C75.6498 39.6966 75.6498 39.2078 75.4939 38.7586C75.4163 38.5501 75.3006 38.358 75.1529 38.192C75.0016 38.0324 74.8214 37.9031 74.6219 37.811C74.3024 37.6656 73.9455 37.6242 73.6013 37.6925C73.2571 37.7609 72.9429 37.9355 72.7027 38.192C72.5549 38.358 72.4393 38.5501 72.3617 38.7586C72.2058 39.2078 72.2058 39.6966 72.3617 40.1458C72.4393 40.3542 72.5549 40.5464 72.7027 40.7124C72.8585 40.8806 73.0479 41.0141 73.2586 41.1042C73.4692 41.1942 73.6964 41.2388 73.9254 41.235Z" fill="#6D6C6C"/>
<path d="M77.1257 37.215H77.9197L80.3797 40.893H80.3943V37.215H80.9983V41.694H80.2287L77.7444 38.0111H77.7298V41.694H77.1257V37.215Z" fill="#6D6C6C"/>
<path d="M83.546 37.215H84.0964L86.0059 41.694H85.2996L84.8515 40.5853H82.7276L82.2844 41.694H81.578L83.546 37.215ZM84.6323 40.0529L83.7847 37.9965L82.942 40.0529H84.6323Z" fill="#6D6C6C"/>
<path d="M86.5905 37.215H87.1945V41.1226H89.2453V41.694H86.5905V37.215Z" fill="#6D6C6C"/>
<path d="M66.4286 19.6015H43.8652V4.50354H66.4286V19.6015ZM43.9431 19.538H66.3506V4.58169H43.9431V19.538Z" fill="#6D6C6C"/>
<path d="M50.6605 10.067L50.5874 10.0133L49.5742 9.28061C49.5158 9.24153 49.5304 9.23665 49.4671 9.28061L48.4539 10.0182C48.4323 10.0345 48.4095 10.0492 48.3857 10.0621C48.3857 10.0621 48.3857 10.0231 48.3857 10.0084L48.7364 8.92892C48.7364 8.86542 48.7754 8.80681 48.7997 8.74331C48.8037 8.73758 48.8058 8.73076 48.8058 8.72377C48.8058 8.71679 48.8037 8.70997 48.7997 8.70423L48.7559 8.67004L47.7378 7.94225L47.6745 7.89341C47.6745 7.86898 47.6745 7.89341 47.7086 7.89341H49.0579C49.0649 7.8935 49.0716 7.8911 49.077 7.88662C49.0824 7.88214 49.086 7.87588 49.0871 7.86899L49.1163 7.78595L49.4963 6.61367C49.4925 6.59432 49.4925 6.57441 49.4963 6.55505C49.5008 6.57267 49.5008 6.59116 49.4963 6.60878C49.6278 7.00443 49.7545 7.40007 49.8811 7.79572C49.8832 7.8201 49.8832 7.84461 49.8811 7.86899C49.8834 7.87719 49.8887 7.88425 49.8959 7.88877C49.9031 7.89329 49.9117 7.89494 49.9201 7.89341H51.2986C51.2848 7.91053 51.2684 7.92537 51.2499 7.93737L50.3195 8.61143L50.1977 8.70423C50.1637 8.72866 50.1637 8.72866 50.1977 8.76773C50.2416 8.91915 50.2903 9.06569 50.339 9.21222L50.6021 10.0182C50.6151 10.0206 50.6274 10.0264 50.6376 10.0349C50.6479 10.0435 50.6557 10.0545 50.6605 10.067Z" fill="#002856"/>
<path d="M55.1469 12.05H43.9041V19.5624H55.1469V12.05Z" fill="#002856"/>
<path d="M66.3896 4.5426H55.1469V12.055H66.3896V4.5426Z" fill="#AA182C"/>
<path d="M61.9032 17.5842L61.8253 17.5305L60.817 16.7978C60.7585 16.7539 60.7731 16.749 60.7098 16.7978L59.6966 17.5354C59.675 17.5517 59.6522 17.5664 59.6284 17.5793C59.6284 17.5793 59.6284 17.5451 59.6284 17.5256L59.9742 16.4461C59.9986 16.3826 60.0132 16.324 60.0376 16.2654C60.042 16.2589 60.0443 16.2513 60.0443 16.2434C60.0443 16.2356 60.042 16.2279 60.0376 16.2214L59.9937 16.1872L58.9903 15.4595L58.9318 15.4106C58.9318 15.4106 58.9318 15.4106 58.961 15.4106H60.3104C60.3149 15.4128 60.3199 15.4139 60.325 15.4139C60.33 15.4139 60.335 15.4128 60.3396 15.4106L60.3688 15.3227L60.7488 14.1504C60.745 14.1311 60.745 14.1111 60.7488 14.0918C60.7617 14.1071 60.7702 14.1257 60.7731 14.1455C60.9046 14.5412 61.0313 14.9368 61.1579 15.3325L61.1872 15.4106C61.1893 15.4179 61.1939 15.4243 61.2 15.4287C61.2062 15.4331 61.2137 15.4354 61.2213 15.435H62.5998C62.5998 15.435 62.5706 15.4643 62.5511 15.479L61.6353 16.1189L61.5135 16.2068C61.4843 16.2312 61.4794 16.2361 61.5135 16.2752C61.5623 16.4217 61.6061 16.5682 61.6548 16.7148L61.9179 17.5207C61.92 17.5429 61.9149 17.5652 61.9032 17.5842Z" fill="#AA182C"/>
</svg>
