<svg width="1148" height="495" viewBox="0 0 1148 495" fill="none" xmlns="http://www.w3.org/2000/svg">
<line x1="482" y1="55" x2="788" y2="55" stroke="#5A6BB6" stroke-opacity="0.2" stroke-width="6" stroke-linecap="round" stroke-dasharray="0.01 46"/>
<line x1="482" y1="78.5" x2="788" y2="78.5" stroke="#5A6BB6" stroke-opacity="0.2" stroke-width="6" stroke-linecap="round" stroke-dasharray="0.01 46"/>
<line x1="482" y1="102" x2="788" y2="102" stroke="#5A6BB6" stroke-opacity="0.2" stroke-width="6" stroke-linecap="round" stroke-dasharray="0.01 46"/>
<line x1="482" y1="125.5" x2="788" y2="125.5" stroke="#5A6BB6" stroke-opacity="0.2" stroke-width="6" stroke-linecap="round" stroke-dasharray="0.01 46"/>
<line x1="482" y1="149" x2="788" y2="149" stroke="#5A6BB6" stroke-opacity="0.2" stroke-width="6" stroke-linecap="round" stroke-dasharray="0.01 46"/>
<rect x="1.5" y="43.5" width="21.4898" height="21" stroke="#4C5FB0" stroke-opacity="0.75" stroke-width="3"/>
<rect x="12.1122" y="54.7" width="26.3878" height="25.8" stroke="#4C5FB0" stroke-opacity="0.75" stroke-width="3"/>
<rect x="370.5" y="456.5" width="21.4898" height="21" stroke="#4C5FB0" stroke-opacity="0.75" stroke-width="3"/>
<rect x="381.112" y="467.7" width="26.3878" height="25.8" stroke="#4C5FB0" stroke-opacity="0.75" stroke-width="3"/>
<path d="M1144.1 77.5442C1144.1 35.4995 1110.01 1.41481 1067.97 1.41481C1041.54 1.41481 1018.25 14.8927 1004.6 35.3491C1014.61 31.0496 1025.4 28.8387 1036.3 28.8516C1080.68 28.8516 1116.66 64.8339 1116.66 109.218C1116.67 120.116 1114.46 130.902 1110.16 140.916C1130.62 127.268 1144.1 103.989 1144.1 77.5442Z" fill="#B60062" fill-opacity="0.05"/>
<path d="M961.344 79.8292V138.609" stroke="#B60062" stroke-opacity="0.1" stroke-width="3" stroke-miterlimit="10"/>
<path d="M970.161 63.3395V155.097" stroke="#B60062" stroke-opacity="0.1" stroke-width="3" stroke-miterlimit="10"/>
<path d="M978.979 52.7178V165.721" stroke="#B60062" stroke-opacity="0.1" stroke-width="3" stroke-miterlimit="10"/>
<path d="M987.797 44.9823V173.455" stroke="#B60062" stroke-opacity="0.1" stroke-width="3" stroke-miterlimit="10"/>
<path d="M996.615 39.1797V179.257" stroke="#B60062" stroke-opacity="0.1" stroke-width="3" stroke-miterlimit="10"/>
<path d="M1005.43 34.8646V183.572" stroke="#B60062" stroke-opacity="0.1" stroke-width="3" stroke-miterlimit="10"/>
<path d="M1014.25 31.7874V186.651" stroke="#B60062" stroke-opacity="0.1" stroke-width="3" stroke-miterlimit="10"/>
<path d="M1023.07 29.819V188.62" stroke="#B60062" stroke-opacity="0.1" stroke-width="3" stroke-miterlimit="10"/>
<path d="M1031.89 28.8516V189.585" stroke="#B60062" stroke-opacity="0.1" stroke-width="3" stroke-miterlimit="10"/>
<path d="M1040.7 28.8516V189.585" stroke="#B60062" stroke-opacity="0.1" stroke-width="3" stroke-miterlimit="10"/>
<path d="M1049.52 29.819V188.62" stroke="#B60062" stroke-opacity="0.1" stroke-width="3" stroke-miterlimit="10"/>
<path d="M1058.34 31.7874V186.651" stroke="#B60062" stroke-opacity="0.1" stroke-width="3" stroke-miterlimit="10"/>
<path d="M1067.16 34.8646V183.572" stroke="#B60062" stroke-opacity="0.1" stroke-width="3" stroke-miterlimit="10"/>
<path d="M1075.98 39.1797V179.257" stroke="#B60062" stroke-opacity="0.1" stroke-width="3" stroke-miterlimit="10"/>
<path d="M1084.79 44.9823V173.455" stroke="#B60062" stroke-opacity="0.1" stroke-width="3" stroke-miterlimit="10"/>
<path d="M1093.61 52.7178V165.721" stroke="#B60062" stroke-opacity="0.1" stroke-width="3" stroke-miterlimit="10"/>
<path d="M1102.43 63.3395V155.097" stroke="#B60062" stroke-opacity="0.1" stroke-width="3" stroke-miterlimit="10"/>
<path d="M1111.25 79.8292V138.609" stroke="#B60062" stroke-opacity="0.1" stroke-width="3" stroke-miterlimit="10"/>
</svg>
