<svg xmlns="http://www.w3.org/2000/svg" viewBox="0 0 339.27 383.74"><defs><style>.cls-1,.cls-2{fill:#5a6bb6;}.cls-1{opacity:0.1;}</style></defs><g id="Layer_2" data-name="Layer 2"><g id="embera"><path class="cls-1" d="M111.15,382.34c-2.88-2.68-7.65-6.87-11.72-9.12a2.84,2.84,0,0,0-1.4-.37,3,3,0,0,0-2.5,1.38s-1.53,2.31-6,3.79l-1.11.37H88l-3-1.87-1.67-10.6A3,3,0,0,0,82.15,364l-4.45-3.17a48.83,48.83,0,0,0-7.46-4.07c-2.81-1.12-6.08-2.24-7-2.55a2.91,2.91,0,0,0-1-.17l-13.54.59a43.35,43.35,0,0,0-16-6.8c-3.94-.79-4.58-3.29-5.19-9.24A24.18,24.18,0,0,0,26,331.29a35.62,35.62,0,0,0-5.67-9l-2.95-11.83a2.4,2.4,0,0,0-.14-.4l-6.89-16.93a3,3,0,0,0-1.56-1.59c-3.95-1.69-7.18-3.73-7.76-4.43a35.37,35.37,0,0,1,.09-4.91,57.19,57.19,0,0,0,0-9.62c-.39-3.52,0-6.22,1.11-8.23a11.15,11.15,0,0,0,2.56-.6,24,24,0,0,1,3.38-.84,59.55,59.55,0,0,0,8.54-2.29,2.94,2.94,0,0,0,1.79-1.69l1.48-3.7a74.06,74.06,0,0,0,11.75,3,24.54,24.54,0,0,0,2.75.27,3.49,3.49,0,0,0,2-.58c.16-.1.94-.45,4.2-.95a2.93,2.93,0,0,0,2.44-3.34l-1.25-8.16a4.37,4.37,0,0,0-.12-.49l-2.51-7.51a2.9,2.9,0,0,0-.9-1.33l-4.73-3.94,14.26-11L65,243.21,65.6,253a2.93,2.93,0,0,0,1.62,2.45l6.12,3.06,2.32,19.14a2.92,2.92,0,0,0,2.89,2.58l.37,0a3,3,0,0,0,1.79-.92l.31,0a2.94,2.94,0,0,0,1.6-.48l12.68-8.34,2.82.94,11.51,41.17a3,3,0,0,0,1,1.52l5.5,4.28,3.51,3.5.49,6c-.63,2.57-2.48,10.34-2.48,13.42s.58,19.35.63,20.64l-1.16,14.44Z"/><path class="cls-2" d="M47.75,222.55l16.3,21,.56,9.45a3.92,3.92,0,0,0,2.16,3.28l5.64,2.83,2.26,18.6a3.92,3.92,0,0,0,3.88,3.46,4,4,0,0,0,.49,0,3.89,3.89,0,0,0,2-.89,4,4,0,0,0,2.08-.65l12.27-8.07,1.86.62,11.36,40.66a4,4,0,0,0,1.37,2l5.46,4.24,3.2,3.2.45,5.45c-.67,2.75-2.47,10.37-2.47,13.5s.55,18.34.63,20.61l-1.13,14-5,5.06a66,66,0,0,0-11.2-8.61,3.79,3.79,0,0,0-1.89-.5,3.94,3.94,0,0,0-3.33,1.82s-1.41,2.05-5.45,3.4l-.57.18-.38.13h0l-2.36-1.48-1.61-10.15a3.92,3.92,0,0,0-1.59-2.58L78.29,360l0,0,0,0a49.68,49.68,0,0,0-7.62-4.13c-3-1.19-6.43-2.36-7.13-2.6a4,4,0,0,0-1.22-.2h-.18L49,353.6a44.48,44.48,0,0,0-16.11-6.77c-3.17-.63-3.78-2.35-4.4-8.38a24.73,24.73,0,0,0-1.57-7.56,37.21,37.21,0,0,0-5.67-9.1l-2.89-11.56a3.06,3.06,0,0,0-.18-.56l-6.9-16.93a3.88,3.88,0,0,0-2.09-2.14,33.79,33.79,0,0,1-7.19-4c-.07-.95,0-3,.13-4.37a59.33,59.33,0,0,0,0-9.8,13.31,13.31,0,0,1,.76-7.19,13.56,13.56,0,0,0,2.23-.57,23.56,23.56,0,0,1,3.29-.82,58.07,58.07,0,0,0,8.62-2.32,3.91,3.91,0,0,0,2.41-2.26l1.13-2.83a70,70,0,0,0,11,2.76,25.34,25.34,0,0,0,2.88.27,4.49,4.49,0,0,0,2.51-.71,15.77,15.77,0,0,1,3.85-.83,3.92,3.92,0,0,0,3.28-4.48l-1.25-8.16a3.52,3.52,0,0,0-.16-.64l-2.51-7.53A3.94,3.94,0,0,0,39,235.36l-3.77-3.15,12.48-9.66m.36-2.81-16,12.41,5.69,4.74a1.86,1.86,0,0,1,.59.87l2.51,7.53a1.67,1.67,0,0,1,.08.32l1.26,8.15a1.93,1.93,0,0,1-1.61,2.2A16.81,16.81,0,0,0,36,257a2.52,2.52,0,0,1-1.5.44,23.07,23.07,0,0,1-2.63-.26A77.08,77.08,0,0,1,19.44,254l-1.83,4.58a1.94,1.94,0,0,1-1.18,1.11A57,57,0,0,1,8,261.9a26.25,26.25,0,0,0-3.53.88,9,9,0,0,1-2.82.57c-1.47,2.26-2,5.31-1.52,9.32a57.42,57.42,0,0,1,0,9.46,27.7,27.7,0,0,0,0,5.34c.44.91,4.32,3.26,8.3,5a1.91,1.91,0,0,1,1,1l6.9,16.95a1.25,1.25,0,0,1,.09.25l3,12.07a34.29,34.29,0,0,1,5.66,8.95,23.28,23.28,0,0,1,1.42,7c.57,5.64,1.17,9.16,6,10.12a42.37,42.37,0,0,1,15.91,6.84l13.75-.6h.09a2,2,0,0,1,.6.1c.16.06,3.86,1.29,7,2.55a49.1,49.1,0,0,1,7.25,3.95l4.45,3.18a1.88,1.88,0,0,1,.78,1.26l1.74,11.06,3.66,2.28.44,0,.38,0,1.31-.43c4.79-1.6,6.43-4.1,6.5-4.21a2,2,0,0,1,1.65-.91,1.91,1.91,0,0,1,.92.24c4.4,2.44,9.74,7.29,12.22,9.65l6.94-6.94,1.19-14.87c-.06-1.64-.63-17.62-.63-20.66s2-11.4,2.49-13.34l-.54-6.5-3.81-3.81-5.55-4.32a2,2,0,0,1-.67-1L98.94,270.62l-3.79-1.26L82.07,278a1.93,1.93,0,0,1-1,.32,1.83,1.83,0,0,1-.73-.15,1.93,1.93,0,0,1-1.5,1.05l-.24,0a1.92,1.92,0,0,1-1.9-1.7l-2.38-19.67-6.61-3.31a1.92,1.92,0,0,1-1.06-1.61L66,242.85l-17.9-23.11Z"/><path class="cls-1" d="M253.89,226.44a33.65,33.65,0,0,1-1.26-3.39c-2-6.33-1.73-9.43-1.6-10.92a4.33,4.33,0,0,0-.86-3.66c-1.15-1.26-2.57-1.26-4.72-1.26a23.36,23.36,0,0,0-5.56.64,8.14,8.14,0,0,1-1.07.2,2,2,0,0,1-.39-.25,19.46,19.46,0,0,0-3.63-2,20.34,20.34,0,0,1-2-1c.07-.25.15-.54.21-.73,1.47-5.23,5.38-19.05-13.66-30.35-13.82-8.21-21.11-10.94-24.5-11.85l-.43-4.72a2.93,2.93,0,0,0-1.34-2.2,70.64,70.64,0,0,0-11.33-5.88c-.33-3.12-1.43-8.35-5-12.4a47.25,47.25,0,0,0-5.36-5.05c-1.88-1.57-4-3.32-4-4.32V116.24l1.23-8.58a3,3,0,0,0-.11-1.29l-3.13-10a2.82,2.82,0,0,0-.54-1l-8.18-9.94c-.39-3.21-2.32-6.81-6.62-6.81l-.52,0c.56-3.21,1.65-7.34,2.08-8.84a3,3,0,0,0-.89-3A41.27,41.27,0,0,1,143.45,59l-.43-.58c-.69-.92-1.43-1.74-2.08-2.46a15,15,0,0,1-1.73-2.14c0-1.33.6-8.15,1.14-14.19a15.33,15.33,0,0,1,3.92-2.46,10.94,10.94,0,0,1,2.18-.51,14.25,14.25,0,0,0,9.6-5.3c3.86-4.41,8-12.17,9.42-14.86L176,10.67a2.33,2.33,0,0,0,.5-.36l9.3-8.13L202.86,1h3.64l26.57,29.58,9.28,14.85a2.48,2.48,0,0,0,.41.51,18,18,0,0,1,3.06,3.88,98.68,98.68,0,0,0,4.6,9.26,2.92,2.92,0,0,0,2,1.48c.15,0,14.5,2.85,19.63,12.4a38.84,38.84,0,0,0-2.78,4c-.46.74-.85,1.37-1.12,1.72-1.59,2.13-.83,13.11-.82,13.22a47,47,0,0,0,1.28,8l.19.69,19.35,1.26L300.62,121l.3,10.08,1.93,32.21,19.47,2.87,15.52,26.53-9,3.86a124.25,124.25,0,0,0-15,1.91,51.62,51.62,0,0,0-10.23,3.62l-.2.09c-.73.33-1.37.62-1.79.76-1.87.63-13.95,4.85-14.47,5a3,3,0,0,0-1.1.7c-.17.16-4.19,4.19-5.67,7.88a5.06,5.06,0,0,0-.29,1,140.2,140.2,0,0,1-16.26-3.39,2.84,2.84,0,0,0-.81-.12,2.93,2.93,0,0,0-2.17,1C254.87,221.72,254,225.94,253.89,226.44Z"/><path class="cls-2" d="M206.06,2l26.21,29.19L241.5,46a3.87,3.87,0,0,0,.55.7,18.52,18.52,0,0,1,2.82,3.48,95.54,95.54,0,0,0,4.67,9.43,3.92,3.92,0,0,0,2.72,2c.14,0,13.46,2.67,18.62,11.32-.86,1.11-1.7,2.46-2.42,3.61-.43.69-.84,1.33-1.08,1.65-1.75,2.34-1.16,12-1,13.89a46.82,46.82,0,0,0,1.32,8.23l.38,1.38,1.42.09,18.14,1.19,12,18.45.3,9.8v0l1.89,31.38.09,1.62,1.61.23,18.19,2.69,14.7,25.14-7.81,3.34a125.86,125.86,0,0,0-15,1.92,53,53,0,0,0-10.42,3.69l-.18.08c-.72.33-1.34.61-1.71.73-1.88.63-14,4.86-14.49,5a4,4,0,0,0-1.47.93c-.18.17-4.34,4.34-5.9,8.22l-.1.28a144.33,144.33,0,0,1-15.25-3.22,3.58,3.58,0,0,0-1.08-.16,4,4,0,0,0-2.92,1.3,35.77,35.77,0,0,0-6.26,9.1c-.08-.24-.17-.49-.25-.76-2-6.15-1.69-9.11-1.56-10.53a5.32,5.32,0,0,0-1.12-4.43c-1.45-1.58-3.22-1.58-5.46-1.58a24.43,24.43,0,0,0-5.79.67L239,207h0a20.52,20.52,0,0,0-3.81-2.1c-.54-.24-.94-.43-1.24-.58,1.38-4.9,5.56-19.76-14.12-31.44-13.06-7.75-20.37-10.67-24.08-11.77l-.36-4a4,4,0,0,0-1.81-3,72.58,72.58,0,0,0-10.93-5.73A23.55,23.55,0,0,0,177.51,136a48.14,48.14,0,0,0-5.51-5.19c-1.36-1.14-3.41-2.86-3.56-3.52v-11l1.22-8.52a4,4,0,0,0-.14-1.72l-3.14-10a4,4,0,0,0-.71-1.33l-8-9.72c-.69-5-4-7.09-6.9-7.36.58-2.94,1.47-6.28,1.84-7.58a4,4,0,0,0-1.19-4,40.35,40.35,0,0,1-7.17-7.61l-.43-.58c-.71-.95-1.47-1.78-2.15-2.54a20.26,20.26,0,0,1-1.45-1.72c.08-1.7.58-7.7,1.09-13.43a14.35,14.35,0,0,1,3.33-2,9.75,9.75,0,0,1,2-.45A15.16,15.16,0,0,0,156.8,32c3.82-4.36,7.89-11.86,9.41-14.79l10.24-5.69a3.7,3.7,0,0,0,.69-.48l9.05-7.92L202.86,2h3.2M207,0h-4.16L185.38,1.21l-9.55,8.35a2.62,2.62,0,0,1-.34.24l-10.78,6c-1.12,2.2-5.45,10.41-9.41,14.93a13.3,13.3,0,0,1-9,5,11.49,11.49,0,0,0-2.39.56,17.05,17.05,0,0,0-4.51,2.89c-.5,5.52-1.18,13.51-1.18,14.77,0,.54,1.15,1.81,2,2.73.64.71,1.37,1.51,2,2.39l.43.58a42.1,42.1,0,0,0,7.45,7.91,1.94,1.94,0,0,1,.59,2,85.83,85.83,0,0,0-2.31,10.31,6.82,6.82,0,0,1,1.71-.22c4.07,0,5.43,3.73,5.65,6.22L164.12,96a1.78,1.78,0,0,1,.35.65l3.14,10a1.87,1.87,0,0,1,.07.85l-1.24,8.64v11.16c0,1.47,2,3.13,4.28,5.06a45.94,45.94,0,0,1,5.29,5c3.68,4.21,4.58,9.87,4.8,12.44a69.85,69.85,0,0,1,11.72,6,2,2,0,0,1,.89,1.45l.49,5.42c3,.7,10.2,3.18,24.92,11.92,18.38,10.91,14.62,24.19,13.21,29.19a13.8,13.8,0,0,0-.35,1.37c0,.34,2,1.23,2.7,1.56a19,19,0,0,1,3.44,1.88,1.51,1.51,0,0,0,1,.45,6.64,6.64,0,0,0,1.27-.22,22.56,22.56,0,0,1,5.36-.62c2,0,3.13,0,4,.93A3.46,3.46,0,0,1,250,212c-.14,1.55-.44,4.79,1.64,11.32a18.81,18.81,0,0,0,2.37,5.42,8.62,8.62,0,0,0,.82-2.15c0-.31.87-4.37,6.72-10.88a1.93,1.93,0,0,1,1.43-.64,1.89,1.89,0,0,1,.53.08,140.84,140.84,0,0,0,17.53,3.57,3.29,3.29,0,0,1,.23-1.81c1.39-3.46,5.28-7.38,5.45-7.55a1.87,1.87,0,0,1,.72-.45s12.57-4.4,14.46-5c.51-.17,1.21-.49,2.08-.88a50.11,50.11,0,0,1,10-3.56,125.87,125.87,0,0,1,15-1.91l10.2-4.37-16.33-27.92-19.14-2.82-1.88-31.38-.31-10.35L288.75,101l-19.14-1.26a45.84,45.84,0,0,1-1.26-7.84c-.31-4.39-.31-11.29.63-12.55s2.78-4.66,4.31-6.2c-5.08-10.51-20.47-13.51-20.66-13.55a1.91,1.91,0,0,1-1.34-1c-.39-.72-3.86-7.11-4.53-9.1a17.37,17.37,0,0,0-3.29-4.26,2.2,2.2,0,0,1-.28-.34L233.87,30,207,0Z"/></g></g></svg>