<svg xmlns="http://www.w3.org/2000/svg" viewBox="0 0 409.15 298.65"><defs><style>.cls-1,.cls-2{fill:#5a6bb6;}.cls-1{opacity:0.1;}</style></defs><g id="Layer_2" data-name="Layer 2"><g id="ngabe"><path class="cls-1" d="M191.91,277l-.39-.07c-.37-.05-9.05-1.39-27.62-1.39-3.29,0-6.72,0-10.21.13h-1c-7.31,0-12.68-2-15.94-5.94-5-6-3.38-14.76-3.37-14.84l.08-.38-10.87-17.9a11.12,11.12,0,0,0-9.28-5.25,15.49,15.49,0,0,0-7.77,2.4,31.29,31.29,0,0,1-15.8,4.12,31.69,31.69,0,0,1-4.26-.28l12.19-30.47-1.3-8.42c0-.19-2.43-10.42.64-39.9,1.14-11-.29-18.76-4.26-23.17a11.72,11.72,0,0,0-8.92-3.88,12.05,12.05,0,0,0-2.32.21l-36.06-2.48-18.55-9L33,94.23V80.54l-.27-.29c-.08-.08-8.23-8.85-13.2-13.82-3.76-3.76-11.94-6.12-16.38-7.17l12.45-5.7,11.65-9.72L32,22.52l6.07,5.06,3.42,8.55L30.91,46.08l2.66,13.31,2,2.7c.88,1.17,1.18,1.57,1.88,1.57a1.75,1.75,0,0,0,.62-.15,2,2,0,0,1,.85-.14,9.67,9.67,0,0,1,2.23.34,52.48,52.48,0,0,0,5.9,1.23l3.11,5.61,4.24.71a49,49,0,0,1,9.06,3l7.29,5.61-4.71,6.48,1.38,6.22,4.39,8.16,2.48,11.15c1.58,7.09,5.31,7.86,6.84,7.86,3.63,0,6.93-3.68,7.68-8.55,1-6.75,4.78-14.06,5.86-16.06,2.76.12,14.41.6,30.16.6,6.07,0,10.48-1.69,13.11-5a13.92,13.92,0,0,0,2.63-9.36L147.83,87l14-3.34L169,73.06,180.21,83.7l4.9-6.75a38.77,38.77,0,0,0,5.65,6c2.58,1.94,11.76,5.62,12.15,5.78l.55.22,11.45-9.44,1.34-20-6.38-2.13c-8.18-3.51-17.54-8.18-18.24-9.54-.09-.17-9.25-17.61-11.64-19.2-1.85-1.24-8.41-2.35-10.11-2.62L162.8,19,168,20.44h.09c.29,0,7,.63,10.13.63a8.52,8.52,0,0,0,5.73-2.18l.37-.37-1.44-7.93L170.47,5l.34-3L172,3l.09.05c.13.08,13.19,7.54,14.73,8.46.93.56,1.33,2.48,1.57,3.63.06.3.11.56.17.78.38,1.52,2.52,2.26,3.55,2.53l4.21,4.95-2.44.94-7-2.1-1.28,6.42.52.38c.46.32,4.5,3.2,5.78,3.84.4.4,1.05,3.28,1.34,6.11l.08.78,13.63,2,5.25.88a38,38,0,0,0,5.25,5.19c2.87,2.29,7.67,6.78,8.33,7.4L243.87,81.5l23.63,28.06,15.94,14,23.89,4.77h9.33s13.5-1.88,17.89-2.51a5.59,5.59,0,0,1,.68,0c2.33,0,3.46,2,4.56,3.94.34.6.67,1.17,1,1.67,1.21,1.69,3.4,1.93,5.59,1.93h1.86a13,13,0,0,1,1.4.06l1.84.25c3,.4,8,1.07,12.34,1.33l1.05,0c3.36,0,4.61-1.09,5.07-1.95l19.12-1-3.31,10.4,3.45,18.93.82,17.28v10c0,3.26,1.41,16.84,1.69,19.52l.13,1.24,9,7.23,6.13,8.18a125.22,125.22,0,0,1-22.44-4.68C366.43,214.84,362,208.86,362,208.8l-8.72-10.69-24.3,2.6-32.12-12.28,2,24.88L288,241.61l-.3,17.25c-6.6.29-14.3.72-15.71,1.19-2,.66-6.66,4.15-7.19,4.54l-.19.15-10.67,21.35-7,5.83a9.33,9.33,0,0,1-5.74-5,2.74,2.74,0,0,0-2.58-1.55c-4.69,0-14.28,9.58-16.32,11.68l-14.76.58Z"/><path class="cls-2" d="M171.6,4l3.93,2.25-4-1.79,0-.46M183.93,11l2.32,1.35c.56.34,1,2.25,1.11,3,.06.3.12.58.18.81.46,1.87,2.58,2.77,4,3.18L194.6,23l-.81.31-5.62-1.69L186.06,21l-.43,2.16-.94,4.7-.25,1.27,1.05.75c.7.5,4.06,2.89,5.6,3.76a22.75,22.75,0,0,1,1.1,5.48l.16,1.55,1.54.23,12.83,1.87,4.9.82a38.59,38.59,0,0,0,5.15,5c2.75,2.19,7.31,6.44,8.2,7.28L243,82.07l.06.08.06.07,23.53,27.92.09.12.12.1,15.68,13.8.4.35.53.11,23.53,4.7.19,0h9.44l.13,0s13.5-1.88,17.89-2.51a5.29,5.29,0,0,1,.54,0c1.63,0,2.48,1.3,3.69,3.43A19.57,19.57,0,0,0,340,132c1.68,2.35,4.87,2.35,6.4,2.35h1.85a11.61,11.61,0,0,1,1.28.06l1.85.24c3,.41,8,1.08,12.4,1.34l1.11,0c3.27,0,4.85-1,5.62-2l17.18-.9-2.79,8.79-.15.47.09.49,3.38,18.62.82,17.17v10c0,3.45,1.52,18,1.69,19.65l.09.8.09.83.65.52,8.6,6.89,4.67,6.23a133.6,133.6,0,0,1-20-4.39c-17.66-5.15-22.05-10.9-22.07-10.93l-.05-.07-.05-.06-8.33-10.21-.69-.84-1.08.11-23.52,2.52-30.41-11.62-3-1.14.25,3.16,1.85,23.07-10.68,27.93-.13.33v.35l-.28,16.14c-13.26.6-14.59,1-15,1.19-2.08.7-6.59,4-7.47,4.69l-.37.29-.22.42-5,10-5.46,10.92-6.41,5.34a8.52,8.52,0,0,1-4.63-4.34,3.76,3.76,0,0,0-3.48-2.1c-4.88,0-13.89,8.77-16.76,11.69l-13.84.56L193,276.73l-.48-.64-.8-.12c-.36-.06-9.13-1.41-27.77-1.41-3.29,0-6.73,0-10.23.13h-1c-7,0-12.09-1.87-15.15-5.57-4.69-5.66-3.19-13.94-3.17-14l.14-.76-.4-.66-10.66-17.55a12.13,12.13,0,0,0-10.14-5.75,16.35,16.35,0,0,0-8.27,2.54,30.37,30.37,0,0,1-15.3,4c-1.09,0-2,0-2.84-.12l11.6-29,.2-.51-.08-.54-1.26-8.16v-.09l0-.08c0-.1-2.37-10.28.67-39.47,1.18-11.26-.34-19.31-4.51-23.94a12.7,12.7,0,0,0-9.66-4.21,12.56,12.56,0,0,0-2.38.21L45.7,128.53,28,120,34,94.56l0-.22V80.15l-.54-.58c-.08-.08-8.24-8.86-13.22-13.85C17,62.5,10.77,60.28,6.13,59l9.76-4.47.24-.11.21-.17,11.29-9.41.53-.44.14-.67,4.31-19.38,4.62,3.85,3.07,7.68L30.63,45l-.81.76L30,46.82l2.51,12.55.09.44.27.37,1.88,2.51c.92,1.22,1.48,2,2.68,2a2.54,2.54,0,0,0,1-.21,1.07,1.07,0,0,1,.47-.07,8.44,8.44,0,0,1,2,.31c2.81.7,4.51,1,5.51,1.19l2.64,4.74.47.85,1,.15,3.77.63A47,47,0,0,1,63,75.14l6.42,4.94-3.88,5.33-.53.73.2.88,1.25,5.64.07.27.13.25,4.26,7.91,2.45,11c1.73,7.8,6,8.64,7.81,8.64,4.12,0,7.84-4,8.66-9.39.94-6.09,4.15-12.67,5.46-15.19,3.64.15,14.82.57,29.58.57,6.39,0,11.07-1.82,13.9-5.41a14,14,0,0,0,2.82-7.93l5.26,4.13.76.59.94-.22,13.18-3.14.76-.18.44-.65,6.21-9.32,9.57,9,1.66,1.57,1.33-1.84,3.47-4.77a35.36,35.36,0,0,0,5,5.19c2.64,2,11.39,5.51,12.38,5.9l1.1.44.91-.75,10.67-8.78.66-.55.06-.86,1.26-18.83.1-1.54-1.47-.49-5.56-1.85c-7.68-3.3-16.6-7.7-17.79-9.14-.66-1.27-9.31-17.77-11.93-19.52-1.9-1.26-7.66-2.3-10.2-2.72L166.23,21l1.37.39.18.05.18,0c.29,0,7,.64,10.22.64a9.46,9.46,0,0,0,6.44-2.47l.74-.74-.19-1L183.93,11M170,0l-.63,5.65L182,11.29l1.25,6.9a7.49,7.49,0,0,1-5,1.89c-3.13,0-10-.63-10-.63l-8.79-2.51,10,10s8.16,1.25,10,2.51,10,16.31,11.29,18.82,18.82,10,18.82,10l5.65,1.88L214,79.05l-10.67,8.79s-9.41-3.77-11.92-5.65-6.27-6.9-6.27-6.9l-5,6.9-11.3-10.67-7.53,11.3L148.07,86l-8.79-6.9s3.77,15.69-14.43,15.69-30.74-.63-30.74-.63-5,8.78-6.27,16.94c-.7,4.53-3.71,7.7-6.69,7.7-2.38,0-4.74-2-5.86-7.07l-2.51-11.29-4.39-8.16-1.26-5.65,5-6.9L64,73.41a50.92,50.92,0,0,0-9.42-3.14l-3.76-.63L47.68,64a35.11,35.11,0,0,1-6.27-1.26,10.62,10.62,0,0,0-2.47-.37,4.55,4.55,0,0,0-1.47.28c-.2,0-.39-.24-1.08-1.16L34.51,59,32,46.43l10.66-10L38.9,27,31.37,20.7l-5,22.59L15.06,52.7,0,59.6s13.8,2.51,18.82,7.53S32,80.94,32,80.94V94.11l-6.28,27,19.45,9.41L81.56,133a10.43,10.43,0,0,1,2.25-.22c4.63,0,14.61,2.63,12.18,25.94-3.13,30.12-.62,40.16-.62,40.16L96.62,207,84.07,238.41a28.44,28.44,0,0,0,5.65.5A32.18,32.18,0,0,0,106,234.65a14.36,14.36,0,0,1,7.26-2.26,10.19,10.19,0,0,1,8.43,4.77l10.66,17.57s-4.27,22,20.29,22h1c3.68-.09,7.07-.13,10.19-.13,18.7,0,27.46,1.38,27.46,1.38L207,298.65l15.69-.63s11.19-11.66,15.88-11.66a1.74,1.74,0,0,1,1.69,1,10,10,0,0,0,6.9,5.65l7.53-6.28,5.64-11.29,5-10s5-3.76,6.9-4.39c1.5-.5,12.09-1,16.38-1.18l.32-18,10.84-28.35L298,189.93l30.86,11.8,24-2.57,8.33,10.21s4.35,6.23,23.16,11.72c12.34,3.6,20.52,4.62,24.85,4.89l-7.54-10.06-8.8-7-.09-.8c-.06-.65-1.68-16-1.68-19.44v-10l-.83-17.35L386.8,142.5,390.47,131l-21.24,1.1s0,1.91-4.34,1.91l-1,0c-5.34-.31-11.61-1.25-14.12-1.57a14.45,14.45,0,0,0-1.53-.07l-1.85,0c-1.91,0-3.81-.17-4.78-1.52-1.46-2.05-2.65-6-6.39-6a6,6,0,0,0-.82.06c-4.39.63-17.88,2.51-17.88,2.51h-9.1l-23.53-4.7-15.68-13.8L244.69,80.94l-18.2-26.36s-5.33-5-8.47-7.52a36.29,36.29,0,0,1-5.33-5.34L207,40.78,194.18,38.9s-.62-6.27-1.88-6.9-5.65-3.77-5.65-3.77l.94-4.7,6.28,1.88L198,23.84l-5.34-6.27s-2.82-.63-3.13-1.88-.63-4.08-2.2-5S172.54,2.2,172.54,2.2L170,0Z"/></g></g></svg>