<svg viewBox="0 0 411.51 543.4" xmlns="http://www.w3.org/2000/svg"><g fill="#5a6bb6"><path d="m77.28 508.2c-.5 0-.69-.14-.71-.19l-.07-.37-.26-.15c-1.18-1-7.11-5.78-8.74-6.43a6.45 6.45 0 0 0 -2.37-.46 5.53 5.53 0 0 0 -.88.07l-14.11-1.23c-.82-.38-4.89-2.38-7-5.25a14.47 14.47 0 0 0 -2.71-3 3 3 0 0 1 -1-1.23c-.67-1.34-3.47-3.5-7-6.18-1.28-.95-2.48-1.85-2.86-2.23-1.25-1.25-8.76-4.08-11.6-5.12-.7-1.43-3.3-6.82-3.82-9.14s-3.35-5.73-6-8.81c-.5-.58-.89-1-1.09-1.29-.88-1.19-2.72-4.55-2.74-4.59l-2.57-4.2c2-.05 5.44-.2 9.63-.6 2.48-.23 3.69-.71 4.16-1.64a2.72 2.72 0 0 0 -.54-2.67c-.31-.51-.66-1.09-.56-1.43.44-1.55 2.62-3.55 3.43-4.2l.32-.25.05-.41c.53-4.42 1.11-9.8.95-11.39a14.35 14.35 0 0 1 3.35-2.18c.79-.06 3.79-.29 5.37-.29 2 0 3.28-2.29 3.81-3.47a46.92 46.92 0 0 0 5.76-.62 10.3 10.3 0 0 0 6.29-3.53l.2-.26v-6.87h1.66c5.09 1.73 4.53 11.72 3.88 15.46v.16.16c.16 1.05.8 4.57 2.27 5.67.66.5 1.63 3.79 2.12 7.18.29 2 1.67 2.14 2.68 2.22a7.06 7.06 0 0 1 2.88.73l.26.13a1.92 1.92 0 0 0 .42.63 77 77 0 0 0 6.95 4.78l.14.09a10.2 10.2 0 0 1 -1 .36l-12.43 2.94-.16.55c-.69 2.28-4.12 13.73-4.12 15.67a8.11 8.11 0 0 0 3.55 6.46 24.65 24.65 0 0 1 4.58 4c1.29 1.29 1.46 1.45 1.77 1.47l.18.16.43.36a1 1 0 0 0 0 .1 19.17 19.17 0 0 0 -.75 6.3 20 20 0 0 0 .17 3.21c.23 1.35.91 1.63 1.44 1.63a2.37 2.37 0 0 0 1.52-.81 2.77 2.77 0 0 1 1.52-.88.75.75 0 0 1 .21 0 14.38 14.38 0 0 0 3.15.29c1.46 0 3.12-.13 5-.28 1.31-.1 2.74-.21 4.32-.3 1.91-.11 3.32-.21 4.41-.3s2-.14 2.59-.14a5.83 5.83 0 0 1 1.07.08c.45.68.73 3.79.6 6.85v.2l.07.18c.09.26 2.34 6.28 6.3 9.24a5.73 5.73 0 0 1 1.35 1.25 1.2 1.2 0 0 1 -.24.06c-.43.07-9 1.61-13.11 3.19a6.86 6.86 0 0 1 -2.37.56z" opacity=".1"/><path d="m45.47 409.56c4.22 1.65 3.62 11.06 3.07 14.29l-.06.32.05.32c.22 1.46.92 4.95 2.6 6.28.49.59 1.34 3.4 1.79 6.57.4 2.81 2.56 3 3.59 3.07a5.83 5.83 0 0 1 2.49.59 3.33 3.33 0 0 0 .46.58 46.83 46.83 0 0 0 5.43 3.82l-10.77 2.6-1.12.26-.33 1.11c-1.25 4.14-4.16 14-4.16 16a9.09 9.09 0 0 0 4 7.27 24 24 0 0 1 4.45 3.86 8 8 0 0 0 1.92 1.68 22.33 22.33 0 0 0 -.62 6c0 2.87 0 5.84 2.61 5.84a3.29 3.29 0 0 0 2.13-1.13 3.11 3.11 0 0 1 .86-.63 15.63 15.63 0 0 0 3.36.31c1.5 0 3.18-.13 5.13-.28 1.27-.1 2.72-.22 4.28-.3 1.93-.11 3.32-.21 4.43-.3s1.93-.14 2.52-.14h.42a26.09 26.09 0 0 1 .32 5.89v.4l.14.37c.1.26 2.39 6.39 6.48 9.57a84.88 84.88 0 0 0 -11.59 2.93 6.77 6.77 0 0 1 -1.83.48l-.58-.48c-2.15-1.75-7.32-5.91-9-6.58a7.51 7.51 0 0 0 -2.75-.53 7 7 0 0 0 -.91.06l-13.82-1.2c-1-.49-4.59-2.33-6.43-4.86a15.3 15.3 0 0 0 -2.88-3.2 2.23 2.23 0 0 1 -.72-.91c-.83-1.55-3.43-3.6-7.43-6.49-1.13-.85-2.42-1.81-2.75-2.14-1.28-1.28-7.49-3.71-11.58-5.21a59.5 59.5 0 0 1 -3.56-8.55c-.56-2.5-3.37-5.94-6.21-9.25l-1-1.24c-.7-.94-2.16-3.54-2.66-4.47l-1.65-2.69c2-.09 4.76-.25 8-.55 2.11-.2 4.16-.61 5-2.19a3.63 3.63 0 0 0 -.58-3.64 6.36 6.36 0 0 1 -.41-.75 11.31 11.31 0 0 1 3.05-3.58l.64-.51.1-.81a95.66 95.66 0 0 0 1-11.1 18.48 18.48 0 0 1 2.6-1.61c1-.07 3.66-.27 5.09-.27 2.24 0 3.7-2.05 4.45-3.5a51.58 51.58 0 0 0 5.29-.61 11.4 11.4 0 0 0 6.92-3.91l.4-.53v-6.2h.49m.33-2h-2.96v7.53a9.31 9.31 0 0 1 -5.65 3.14 42 42 0 0 1 -6.27.63s-1.26 3.45-3.14 3.45-5.65.31-5.65.31-4.39 2.2-4.08 3.14-.94 11.29-.94 11.29-3.13 2.51-3.76 4.71 4.39 4.39-2.2 5-11.31.51-11.31.51l3.45 5.65s1.88 3.45 2.82 4.71 6.28 6.9 6.91 9.72 4.07 9.73 4.07 9.73 10.36 3.76 11.61 5 8.78 6.27 9.73 8.15 1.25.94 3.76 4.39 7.53 5.65 7.53 5.65l14.43 1.26a3.61 3.61 0 0 1 .82-.08 5.45 5.45 0 0 1 2 .39c1.57.63 8.47 6.27 8.47 6.27s.16.94 1.69.94a7.79 7.79 0 0 0 2.7-.62c4.08-1.57 12.87-3.14 12.87-3.14s3.13-.31-.63-3.14-6-8.78-6-8.78.31-7.53-1.26-7.84a6.38 6.38 0 0 0 -1.41-.13c-1.27 0-3.06.22-7.06.44s-6.89.58-9.3.58a13.16 13.16 0 0 1 -2.93-.27 2.15 2.15 0 0 0 -.43 0c-1.47 0-2.46 1.69-3 1.69-.41 0-.61-.86-.61-3.84 0-7.53 1.88-6 0-7.53a3.28 3.28 0 0 0 -.75-.56c-.06 0 .09.18.07.18s-.24-.23-1.2-1.19a25.33 25.33 0 0 0 -4.71-4.08 7.05 7.05 0 0 1 -3.13-5.64c0-1.89 4.07-15.38 4.07-15.38l11.93-2.82s3.13-.94 2.19-1.57-6.9-4.39-7.84-5.33c-.25-.25-.21-.33-.08-.33a3.38 3.38 0 0 1 .56.13 9.15 9.15 0 0 0 -1.42-.74c-3.14-1.57-4.71 0-5-2.2s-1.26-6.9-2.51-7.84-1.88-5-1.88-5 2.47-14.47-4.73-16.67z"/><path d="m25.4 532.14c-.3-.71-.66-1.57-.94-2.29a23.52 23.52 0 0 0 -1.72-3.23l1.57-5.25 5-1 .49 3.66a8.44 8.44 0 0 1 0 2.69 57.45 57.45 0 0 1 -4.4 5.42z" opacity=".1"/><path d="m28.41 521.6.35 2.63a9.45 9.45 0 0 1 .1 2.15c-.36.57-1.67 2.16-3.16 3.88l-.32-.78a22 22 0 0 0 -1.56-3l1.27-4.24 3.32-.63m1.71-2.36-6.59 1.26-1.88 6.27a23.36 23.36 0 0 1 1.88 3.45c.63 1.57 1.57 3.77 1.57 3.77s5.33-6 5.64-6.9a9.81 9.81 0 0 0 0-3.14z"/><path d="m216.81 444.38c1.32.15 5 .57 6.86.57a8.83 8.83 0 0 0 3.22-.48c.43-.13 1-.29 1.73-.49a5.27 5.27 0 0 0 3.72-3c.26-.43.55-.92.93-1.45.76-1.08 1.44-1.9 2.15-2.77s1.44-1.76 2.24-2.88l.75-1.05a9.66 9.66 0 0 1 1.65-2 2.64 2.64 0 0 1 1.67-.93c.37-.1.81-.2 1.39-.4a53.62 53.62 0 0 1 5.53-1.54 8.33 8.33 0 0 0 2.34-1 6.82 6.82 0 0 1 3.11-1.15 16.34 16.34 0 0 1 4.46.59c1.08.27 9.77 2.06 12.64 2.65a5.14 5.14 0 0 1 -.43 1.27 26.62 26.62 0 0 0 -1.62 4.5c-.91.83-7.13 1.52-10.14 1.86-.71.07-1.29.11-1.71.11a2.17 2.17 0 0 0 .23-2.08c-.63-1.26-2.87-1.8-7.48-1.8-1.26 0-7.92.3-8.2.31h-.45l-7.4 9.37-8.78 6.05-14.92 2.06z" opacity=".1"/><path d="m254.1 426.82a14.79 14.79 0 0 1 4.22.57c1 .24 8.05 1.7 11.59 2.43v.06a25.69 25.69 0 0 0 -1.58 4.28c-1.51.66-6.78 1.24-9.4 1.53h-.22a2.75 2.75 0 0 0 -.28-1.44c-.85-1.7-3.2-2.36-8.38-2.36-1.28 0-8 .3-8.25.31h-.91l-.56.72-7 8.86-.51.35c.15-.24.3-.48.44-.72.26-.43.52-.88.88-1.38.75-1.05 1.41-1.86 2.12-2.72s1.45-1.78 2.27-2.93c.32-.44.56-.79.75-1.06a10 10 0 0 1 1.55-1.83 1.73 1.73 0 0 1 1.2-.66c.36-.09.84-.21 1.47-.42a52.09 52.09 0 0 1 5.41-1.51 8.87 8.87 0 0 0 2.63-1.13 6.23 6.23 0 0 1 2.62-1m-25.44 18.23-3.91 2.69-11.65 1.61 4-3.87c1.6.19 4.8.53 6.51.53a9.94 9.94 0 0 0 3.52-.52c.4-.13.86-.27 1.53-.44m25.38-20.17c-2.2 0-4.08 1.88-5.65 2.19a52.93 52.93 0 0 0 -5.64 1.57c-1.89.63-2.2.32-3.45 1.57a14.9 14.9 0 0 0 -2.51 3.14c-1.57 2.19-2.83 3.45-4.4 5.64s-1.56 3.46-4.07 4.08-2.51.94-4.71.94-7.21-.62-7.21-.62l-9.1 8.78 18.19-2.51 9.1-6.27 7.22-9.1s6.9-.31 8.15-.31 6 0 6.59 1.25c.54 1.08-2.19 2.63.69 2.63a15.85 15.85 0 0 0 1.82-.12c5.65-.63 10.67-1.26 11-2.51a24.1 24.1 0 0 1 1.57-4.39 6.33 6.33 0 0 0 .62-2.51s-12.23-2.51-13.48-2.82a16.79 16.79 0 0 0 -4.71-.63z"/><path d="m332.24 542.4c-.93-.1-3.36-.5-4.42-1.35s-5.8-5.7-8.06-8.07l-.18-.19-.25-.07c-3.25-1-7.05-2.47-7.79-3.15 0-1 1.44-5.4 2.79-9l2.32-5.22 2.86-1.14.1-.07c1-.68 4.28-3 5-4 .11-.16.2-.23.57-.23h.47.64a1.11 1.11 0 0 0 .86-.41c.3-.35 1-1.18-1.13-12.69v-.09l-4.08-10.9-7 1.22-.75-7.48 3.58-.9 1.77-12.78-.78-.27c-1.42-.47-3.65-1.53-4.17-2.39-1.07-1.78-6.84-9.06-10.61-11.89a8.58 8.58 0 0 1 -1.17-1h.06a2.66 2.66 0 0 0 1.49-1.74c.11-.54.21-1.31.36-2.47.3-2.24.79-6 1.84-11.66.58-3.15.52-4.87-.21-5.75a1.76 1.76 0 0 0 -1.42-.65 3.87 3.87 0 0 0 -1.31.29l-.2.06a11.44 11.44 0 0 0 -4-3.5 5.46 5.46 0 0 1 -2.07-2.69c-.29-.6-.18-3.77.1-6.34l.06-.48-.35-.35c-3-2.89-12.76-12.39-14.06-13l-.36-.17c-1.17-.58-4.75-2.34-5.46-3.77-.44-.88-.21-1.34.3-2.35a11 11 0 0 0 .69-1.59c0-.1.05-.14.33-.14a8.8 8.8 0 0 1 2.24.56 12.88 12.88 0 0 0 2 .56 2.63 2.63 0 0 0 .49 0c2.45 0 5.06-2.81 5.06-4.79a16.08 16.08 0 0 0 -.75-4.11l-.22-.84c-.11-.46-.46-1.84-8.19-3.54a31.26 31.26 0 0 1 -5.08-2.59 41.14 41.14 0 0 1 4.75-4.12l.13-.1 4.49-6.53-9.88-1.09-5.24-3.7-7.45-2.58 1.53-7.15 15-.3 6.58-6.58-.75-8.59h-7.19l-4.68 3.2c-.09-5.26-.34-18.9-.61-20.28-.32-1.56-.94-5-.94-5l-.21-1.16-4.95 1.7-3 4.68-3.88 7.46a12.18 12.18 0 0 1 -2.27-2.42 44.51 44.51 0 0 1 -2.12-4.56l-.45-1.13-6 3.87 2.37 9.75-6.44-.25-4.31-.93-6.76-.92-5.1-3.11-1.55-8.11-10.09-7.56-3.84 8.45 4.08 8.84 8.66 5.57a120.08 120.08 0 0 0 2.78 12.25 17.21 17.21 0 0 1 .89 6.49 45.58 45.58 0 0 1 -1.18 6.94 56.86 56.86 0 0 1 -3.53 5.41c-1.25 1.81-2.44 3.52-3 4.51s-1 1-1.12 1a3.64 3.64 0 0 1 -1.33-.49c-.13-.07-.17-.3-.2-1.31a21.21 21.21 0 0 0 -.53-4.29c-.2-.9-.69-3-2.28-3a2.69 2.69 0 0 0 -1.59.71 3.25 3.25 0 0 1 -.34.25c-1.31.06-8.85 1-10.38 1.26l-.56.07-.23.52c-.89 2-2.27 5.67-1.54 7.12a32.92 32.92 0 0 0 3.53 4.54l4.85 8.08.35.12a14.86 14.86 0 0 0 3.58.74 2.53 2.53 0 0 0 .82-.12l.45-.14a8.23 8.23 0 0 0 3.7-2 .84.84 0 0 1 .56-.14 7.06 7.06 0 0 1 2.51.71l.55 4.65-1.56 8.08-.31 9.24-2 3.48c-2.56-.82-10.82-3.5-14.17-5.05-4.08-1.88-6.37-3.66-7.15-4.71a23.52 23.52 0 0 0 -3.65-3.34l-.25-.18h-.3c-.27 0-6.64-.32-8.52-.32a27 27 0 0 1 -6-1.2c-.72-.24-5.62-2.15-8.11-3.12l-.15-.06-15.62-.55-10.09-12.88h-21.65l7.8-4.23 3.3-6.6-4.49-4.13-6.87-1.94-10.74-.69-.15.89a6.68 6.68 0 0 0 1 4.27 10.62 10.62 0 0 1 -2.88.5c0-1.69-.94-4.84-5.09-10.24-5.68-7.38-.87-13.24-.66-13.48v-.06l5.23-8.5-.4-5.64h-7.8a22.28 22.28 0 0 1 -3.75-3.53c-.11-1.09-1.5-3.37-2.67-5.12l-.22-.34-4.13-.88-.79-4.76 2.16 1.26h7.8a1.55 1.55 0 0 0 1.45-1c.82-2-1.09-7-5.14-11.05-3.5-3.5-1.24-13.12-.07-16.54l.94-2.76-13.84 9.09-.45 6.58-4-7.74 7.2-7.2 5.72-20 4.36-20.85 30.19-37.11-.27-21.77-3.57-27.28h-2.53l.28-16 10.93-28.58-1.36-17 24.74 9.53 22.51-2.43 6.48 7.92c.86 1.22 6.36 7.91 25.75 13.56 16 4.68 25.41 5.18 28.69 5.18h1.67l5.23-.48-13.22-17.75-7.85-6.35c-.59-5.68-1.53-15.39-1.53-17.72v-10.11l-.85-17.68-3.25-18 3.58-11.26 45-5.74.12-.05c19.88-8.44 57.57-24.43 59.18-25.09 1.43 8.18 4.24 14.27 8.37 18.12 11.18 10.44 21.06 13.3 24.17 14l11.16 8.77.57.38.5.15c.27.08 1.21 1.21.39 4.9a26.28 26.28 0 0 1 -2.94 6.94c-1.78 3.25-4 7.29-.46 10.82 2.34 2.34 5.79 7.71 7.15 9.9l-6 14.25-10.91 16.41-19.26 5.07 19.41 23.29 19.94 45.7 5.28 8.33-14.22 41 6.85 10.82 3.23 2.51-10.84.66-.79 1.3c-.11.16-10.61 16.68-33.93 20.76l-3.51.62 7.18 18.66-3.53 10.86-12.69 12.11-8.32 4.75-9.11 3.79-1.4 52.81 13.23-2.2c1.77 2.2 5.91 8.6 5.69 20v.9l22.83 35.05 8.05 7.45 5.49 4.32 8.13-1.51 7.78 8.89 2.23 1.47c-1.81 6.14-3.37 18 4.06 32.84 7.8 15.6 11.58 22.16 13 24.47l-2.08 17.64 4.27-1.28a14.85 14.85 0 0 1 3.65-.44 12.27 12.27 0 0 1 7.87 2.64c3.47 2.87 5.48 8.13 6 15.62h-.32l-23.8 5.95z" opacity=".1"/><path d="m323.28 2.41c1.53 7.79 4.37 13.66 8.45 17.46 11.1 10.37 21 13.4 24.41 14.18l11 8.63h.06.07l.39.26.25.16.28.08h.12c.14.28.49 1.29-.07 3.79a25.32 25.32 0 0 1 -2.84 6.68c-1.83 3.35-4.35 7.95-.29 12 2.13 2.12 5.25 6.91 6.74 9.28l-5.76 13.68-10.68 16-17.41 4.73-3 .8 2 2.42 18.31 22 19.84 45.44.06.14.08.13 5 7.86-13.9 40.08-.32.92.52.81 6.53 10.27.19.29.27.21 1 .79-7.68.46-1 .07-.54.88-.52.85c-.1.16-10.46 16.32-33.26 20.31l-2.3.4-2.39.42.87 2.27 6.61 17.2-3.37 10.31-12.42 11.85-8.16 4.66-8.42 3.52-1.2.5v1.29l-1.35 50.95-.07 2.43 2.39-.4 11.44-1.91c1.84 2.46 5.32 8.53 5.12 18.91v1.21l.33.51 22.6 34.69.13.21.18.17 8 7.36.06.06.06.05 5.08 4 .71.56.89-.17 7.13-1.32 7.31 8.36.17.2.23.15 1.51 1c-1.76 6.47-3 18.25 4.33 32.86 7.5 15 11.3 21.68 12.83 24.24l-1.85 15.77-.36 3 2.92-.88 2.81-.84a13.49 13.49 0 0 1 3.35-.4 11 11 0 0 1 7.23 2.41c3.07 2.54 5 7.38 5.54 14.05l-23.19 5.79-53.92 1.87a9.58 9.58 0 0 1 -3.84-1.12c-1.07-.86-5.35-5.24-8-8l-.36-.38-.5-.15a47.48 47.48 0 0 1 -7-2.66 79.66 79.66 0 0 1 2.61-8.16l2.16-4.85 2.38-1 .21-.08.19-.13a31.24 31.24 0 0 0 5.07-4.09h.3.7a2.12 2.12 0 0 0 1.63-.77c.6-.72 1.29-1.54-.92-13.51v-.18l-.06-.16-3.76-10-.59-1.55-1.63.28-5.1.89-.55-5.55 2.09-.53 1.31-.32.18-1.34 1.57-11.29.23-1.65-1.58-.53a9.71 9.71 0 0 1 -3.62-1.95c-.94-1.57-6.75-9.09-10.87-12.18l-.16-.12a3.09 3.09 0 0 0 .92-1.65c.12-.58.22-1.36.38-2.54.29-2.23.78-6 1.82-11.61.66-3.57.55-5.41-.42-6.57a2.8 2.8 0 0 0 -2.19-1 3.86 3.86 0 0 0 -1.12.18 13.07 13.07 0 0 0 -3.93-3.22 4.73 4.73 0 0 1 -1.58-2.18 26.59 26.59 0 0 1 .17-5.85l.11-1-.7-.68c-5.83-5.68-13-12.59-14.31-13.22l-.36-.18c-3.87-1.9-4.81-2.9-5-3.32s-.22-.43.3-1.45c.16-.32.35-.7.53-1.13a14.42 14.42 0 0 1 1.52.46 14.72 14.72 0 0 0 2.12.6 4.89 4.89 0 0 0 .66.05c2.83 0 6.06-3.08 6.06-5.79a17.2 17.2 0 0 0 -.78-4.38c-.08-.29-.16-.56-.22-.81-.21-.85-.61-2.44-8.86-4.25-1.4-.6-2.82-1.29-3.79-1.83 1-.89 2.45-2.13 3.77-3.14l.25-.19.18-.27 3.45-5 1.9-2.76-3.32-.37-8-.88-5-3.32-.24-.16-.26-.09-6.49-2.25 1.18-5.5 13.79-.28h.81l.56-.57 6-6 .66-.66-.08-.93-.62-7.21-.16-1.83h-8.42l-.51.35-2.89 2c-.11-6.57-.34-17.29-.6-18.6-.31-1.54-.93-5-.94-5l-.42-2.33-2.23.81-3.49 1.25-.63.23-.37.56-2.82 4.4-.05.07v.09l-3.22 6.22a7.24 7.24 0 0 1 -1.13-1.31 40.91 40.91 0 0 1 -2.05-4.42l-.9-2.25-2 1.31-4.39 2.82-1.2.77.34 1.38 1.88 7.78-5-.2-4.23-.9h-.07-.08l-6.48-.89-4.54-2.77-1.4-7.28-.14-.76-.62-.47-8.79-6.58-2-1.5-1 2.27-3.13 6.9-.38.83.38.83 3.77 8.16.24.53.49.32 8.05 5.17a120.86 120.86 0 0 0 2.74 12 16.64 16.64 0 0 1 .85 6 46.1 46.1 0 0 1 -1.12 6.69 58.9 58.9 0 0 1 -3.42 5.21c-1.26 1.83-2.46 3.55-3 4.58a3.3 3.3 0 0 1 -.35.5 3 3 0 0 1 -.41-.17c0-.19 0-.43 0-.64a21.7 21.7 0 0 0 -.54-4.48c-.22-.93-.87-3.76-3.26-3.76a3.56 3.56 0 0 0 -2.2.92l-.08.06c-1.82.15-7.58.9-10.17 1.25l-1.11.15-.45 1c-.64 1.45-2.57 5.88-1.53 8a32.9 32.9 0 0 0 3.62 4.69l4.61 7.68.38.63.7.24a15.32 15.32 0 0 0 3.9.79 3.31 3.31 0 0 0 1.13-.17l.43-.13a9.27 9.27 0 0 0 4-2.08 5 5 0 0 1 1.59.41l.46 3.91-1.51 7.85v.16.15l-.3 8.92-1.46 2.56c-3.14-1-10.26-3.36-13.28-4.76-3.91-1.8-6.09-3.5-6.77-4.4a24.09 24.09 0 0 0 -3.85-3.54l-.49-.36h-.62c-.27 0-6.65-.32-8.56-.32a25.94 25.94 0 0 1 -5.64-1.15c-.66-.22-5.18-2-8.06-3.1l-.32-.13h-.33l-15.07-.59-9.75-12.21-.6-.77h-18.2l4.06-2.2.55-.3.28-.57 2.83-5.64.67-1.35-1.11-1-3.76-3.45-.35-.32-.46-.13-6.58-1.94-.21-.06h-.22l-9.72-.62-1.8-.12-.3 1.78a7.46 7.46 0 0 0 .5 3.78l-.53.07c-.36-2.06-1.67-5.18-5.2-9.76-5.16-6.71-.87-12-.69-12.22l.1-.12.08-.13 5-8.16.34-.55v-.64l-.31-4.39-.13-1.86h-8.41a26.15 26.15 0 0 1 -3.14-2.9c-.14-.7-.69-2.14-2.8-5.31l-.45-.67-.79-.17-3.06-.66-.33-2 .08.05.47.27h8.07a2.53 2.53 0 0 0 2.37-1.63c1.08-2.6-1.37-8.16-5.35-12.14-3.11-3.11-.87-12.47.16-15.5l1.94-5.49-4.88 3.21-11 7.21-.83.55-.07 1-.22 2.49-2-3.86 6.5-6.5.36-.37.14-.5 5.65-19.76v-.07-.07l4.35-20.54 29.84-36.64.46-.57v-.72l-.3-21.34v-.11-.12l-3.45-26.35-.22-1.74h-2.39l.26-14.81 10.73-28.24.16-.42v-.46l-1.25-15.12 23.07 8.82.45.17.48-.05 21.77-2.34 6.09 7.45c1.07 1.47 6.87 8.28 26.29 13.94 16.15 4.71 25.64 5.22 29 5.22 1 0 1.61 0 1.76-.06l3.44-.31 3.57-.33-2.15-2.86-12.11-16.15-.15-.2-.19-.15-7.43-6c-.75-7.28-1.48-15.23-1.48-17.2v-10.23l-.83-17.57v-.15-.13l-3.2-17.69 3.31-10.41 44.25-5.65h.27l.25-.11c18.19-7.73 51.51-21.86 58-24.59m1.19-2.42a3.09 3.09 0 0 0 -.75.06c-.94.32-59.29 25.1-59.29 25.1l-45.51 5.84-3.85 12.1 3.29 18.19.84 17.57v10.14c0 2.44 1 12.56 1.58 18.24l8.07 6.53 12.13 16.1-3.44.31c-.08 0-.6 0-1.58 0-3.46 0-12.65-.54-28.41-5.14-19.23-5.61-24.51-12.17-25.26-13.23l-6.82-8.34-22.87 2.53-26-10 1.46 18.3-10.91 28.54-.3 17.19h2.67l3.46 26.37.32 21.33-30.12 37-4.39 21-5.65 19.76-7.53 7.53 6 11.61.63-9.73 11-7.21s-4.39 12.86.31 17.57 6 10.35 4.4 10.35h-7.62l-3.77-2.2 1.26 7.59 4.39.94s2.51 3.77 2.51 4.71 4.39 4.35 4.39 4.35h7.22l.31 4.39-5 8.16s-5.65 6.59.63 14.74 4.71 10.71 4.71 10.71 6.28 0 5-1.88a5.73 5.73 0 0 1 -.94-3.77l9.73.63 6.58 1.88 3.77 3.45-2.83 5.65-11 6h25.09l10 12.86 16 .63s7.21 2.82 8.16 3.14a27.74 27.74 0 0 0 6.27 1.25c1.88 0 8.47.31 8.47.31a23.41 23.41 0 0 1 3.45 3.14c.94 1.26 3.45 3.14 7.53 5s15.06 5.33 15.06 5.33l2.51-4.39.31-9.41 1.57-8.16-.63-5.33a9 9 0 0 0 -3.44-1.06 1.73 1.73 0 0 0 -1.26.43 8.51 8.51 0 0 1 -3.77 1.89 1.8 1.8 0 0 1 -.5.06 14 14 0 0 1 -3.26-.69l-4.71-7.84a35.78 35.78 0 0 1 -3.45-4.4c-.63-1.25 1.57-6.27 1.57-6.27s9.41-1.25 10.35-1.25c.55 0 1.2-1 1.83-1 .46 0 .91.5 1.31 2.21.94 4.08 0 5.65 1.25 6.27a4.18 4.18 0 0 0 1.78.6c.66 0 1.32-.38 2-1.54 1.25-2.19 6-8.47 6.59-10s1.25-7.21 1.25-7.21a18.42 18.42 0 0 0 -.94-6.9c-1.26-3.77-2.82-12.55-2.82-12.55l-8.79-5.65-3.76-8.15 3.13-6.9 8.79 6.58 1.57 8.16 5.64 3.45 6.9.94 4.4.94 7.84.32-2.51-10.36 4.39-2.82a44.83 44.83 0 0 0 2.2 4.71 16.86 16.86 0 0 0 3.45 3.45l4.39-8.47 2.82-4.4 3.45-1.25s.63 3.45 1 5 .62 22 .62 22l6-4.08h6l.63 7.22-6 6-15.37.31-1.88 8.78 8.15 2.83 5.34 3.76 8.47.94-3.45 5s-5.34 4.08-5.34 5 6 3.45 6 3.45 7.22 1.57 7.53 2.82a20.57 20.57 0 0 1 .94 4.71c0 1.48-2.23 3.79-4.06 3.79h-.33c-1.27-.21-3.11-1.13-4.37-1.13a1.2 1.2 0 0 0 -1.28.82c-.62 1.88-1.88 2.82-.94 4.71s5 3.76 6.28 4.39 13.8 12.86 13.8 12.86-.63 5.65 0 6.9a6.25 6.25 0 0 0 2.51 3.14 9.92 9.92 0 0 1 3.76 3.45.42.42 0 0 0 .41.23c.46 0 1.18-.43 1.77-.43.86 0 1.45.89.65 5.22-1.57 8.47-1.88 12.55-2.2 14.12s-3.76.94 0 3.76 9.41 10 10.35 11.61 4.71 2.82 4.71 2.82l-1.57 11.29-3.76.94.94 9.42 7.21-1.26 3.69 9.98s2.19 11.92 1.25 11.92c-.37 0-.75-.05-1.11-.05a1.5 1.5 0 0 0 -1.4.68c-.63.94-4.7 3.76-4.7 3.76l-3.14 1.26-2.51 5.64s-3.14 8.47-2.82 9.73 8.47 3.76 8.47 3.76 6.58 6.9 8.15 8.16 5 1.57 5 1.57l54.27-1.88 23.84-6 1.19-.15c-.39-8.19-2.54-14.09-6.39-17.27a13.14 13.14 0 0 0 -8.5-2.87 15.48 15.48 0 0 0 -3.94.48l-2.81.85 1.94-16.46c-1.14-1.85-4.88-8.23-13.11-24.69-7.65-15.29-5.55-27.31-3.79-32.81l-2.74-1.81-8.06-9.21-8.25 1.52-5.07-4-8-7.37-22.53-34.66v-.59c.24-12.49-4.58-19.15-6.29-21.11l-12.6 2.1 1.35-50.95 8.57-3.57 8.48-4.85 13-12.36 3.71-11.44-6.87-17.86 2.31-.4c23.88-4.18 34.51-21.06 34.61-21.23l.49-.84 13-.79-5.18-4-6.54-10.27 14.23-41-5.5-8.68-20-45.76-18.49-22.19 18.11-4.77 11.21-16.84 6.24-14.81c-1.34-2.16-5-8-7.57-10.52-3-3-1.16-6.37.63-9.63a27 27 0 0 0 3-7.2c.95-4.27-.23-5.83-1.08-6.08l-.35-.1-.39-.26-11.32-8.91c-2.4-.49-12.49-3.11-23.92-13.78-4.65-4.36-7.08-11.26-8.2-18.41z"/></g></svg>