<svg xmlns="http://www.w3.org/2000/svg" viewBox="0 0 179.98 195.46"><defs><style>.cls-1,.cls-2{fill:#5a6bb6;}.cls-1{opacity:0.1;}</style></defs><g id="Layer_2" data-name="Layer 2"><g id="herrera"><path class="cls-1" d="M70.43,193.64,60.6,182.41,51.79,184l-3.23-2.54-7.2-6.6L19.77,141.75c0-16.81-8.18-24.24-8.53-24.55l-1-.92L1,117.81,2.14,75.88,8,73.45l9.16-5.22L31.62,54.5l4.63-14.24-5.4-14c20-4.63,30.43-17.09,33.56-21.47L76.83,4l-.11-1.84.47.36,24,4.45,14.06-4.68,12,12.05L136.14,9l9.31,5.65-.07,1.91,5.4,5.08.92,7.65L155.38,37l23.51,9.62-1.2,9.59L169,66.39l-29.72,2.55L128,91.44,113.23,101l-1,17.82.88.91c.1.11,10.1,10.73,9.39,18.73a7.07,7.07,0,0,1-3.15,5.33c-9.22,6.77-13.33,7.11-14.06,7.11h0l-2.45-1-1.15,2.57c-6.86,15.26-20.93,39.88-29.48,40.95l-1.51.19-.09.17Z"/><path class="cls-2" d="M115,3.42l11.06,11.06,1.1,1.11,1.34-.81,7.63-4.57,8.29,5,0,.87,0,.91.66.62,4.81,4.52.85,7.13,0,.32.14.3,3.46,7.22.33.69.71.29,22.44,9.18-1.07,8.54-8.22,9.6-28.75,2.46-1.12.1-.5,1L127.26,90.75,113.12,99.9l-.86.55-.05,1-.94,16.87,0,.86.6.63.57.6c2.73,2.87,9.68,11.68,9.12,17.95a6.11,6.11,0,0,1-2.74,4.62c-8.46,6.2-12.42,6.84-13.31,6.9l-1.36-.54-1.78-.71-.79,1.75-.75,1.68c-7.27,16.19-21,39.42-28.7,40.38l-1,.13-.22,0-9.14-10.43-.75-.86-1.12.21L52.06,183l-2.83-2.21-7.1-6.52L20.77,141.45A40.26,40.26,0,0,0,16.63,123a23.07,23.07,0,0,0-4.73-6.52l-.69-.61-.71-.62-.94.15-7.5,1.25L3.13,76.55l5.18-2.16.11,0,.11-.06,9-5.13.21-.12.17-.17L32.13,55.4l.37-.35.15-.48L37.09,40.9l.22-.67-.25-.66L32.19,26.91C51.24,22.15,61.5,10.4,64.94,5.71l11-.66,2-.13-.08-1.27,23,4.25.5.1.49-.17L115,3.42M75.59,0l.18,3.05-11.9.73C61.37,7.38,50.73,21,29.5,25.48l5.69,14.81L30.75,54,16.54,67.42l-9,5.13L1.16,75.2,0,119l9.89-1.65.69.61c.34.3,8.32,7.51,8.19,24.1l21.82,33.5,7.35,6.73,3.59,2.82,8.7-1.61,9.5,10.87,1.14,1.1.47-.89,1-.12C82.42,193.18,97.6,164,102.6,152.9l.76-1.68,1.71.68s.07,0,.23,0c1,0,5.27-.42,14.65-7.3a8.1,8.1,0,0,0,3.56-6.05c.74-8.49-9.56-19.4-9.67-19.51l-.57-.6.93-16.87,14.6-9.45,11.13-22.25,29.57-2.53,9.14-10.67L180,46l-23.86-9.76-3.45-7.21-.94-7.85-5.33-5,.07-2.05L136.14,7.87l-8.66,5.2L115.55,1.13l-14.4,4.81L77.61,1.58,75.59,0Z"/></g></g></svg>