<svg xmlns="http://www.w3.org/2000/svg" viewBox="0 0 298.65 255.98"><defs><style>.cls-1,.cls-2{fill:#5a6bb6;}.cls-1{opacity:0.1;}</style></defs><g id="Layer_2" data-name="Layer 2"><g id="bocas"><path class="cls-1" d="M147.65,238.67H135.28c-1.13-1.06-5.44-5.28-7-9.39-1.33-3.54-7.18-4-13.31-4-3.73,0-8.11.23-12.74.46-2.83.15-5.79.3-8.8.41-1.12,0-2.17.06-3.17.06-11.56,0-15-2.61-15.71-3.26-.4-2.79-3.6-21.5-18.41-23.14-14.49-1.61-26-15.4-26.11-15.54l-.34-.42-7.45.83a59.75,59.75,0,0,1-5.42-11.8,5.1,5.1,0,0,0-5.29-3.65C7.9,169.2,3.35,171.61,1,173V43.67c2.33,0,8.87.14,20.92.62.4,0,.78,0,1.15,0,4.89,0,8.33-1.34,10.2-4,2.77-3.9,1-9.07.93-9.29l-.14-.38-.36-.18C26.33,26.79,21.61,16.39,20.59,14l9.9-12.8,18,5.4L74.2,23.69C74,26.08,75,33.62,91.77,42.3a15.21,15.21,0,0,0,6.83,1.94,8.17,8.17,0,0,0,6.27-2.8c5-5.47,5-17.62,4.8-22.51a53.85,53.85,0,0,0,10.45,5.22,5.12,5.12,0,0,0,1.77.36,2.69,2.69,0,0,0,2.31-1.18c1.28-1.88.52-5.83-.34-8.83,8.39,7.4,33.39,29.69,44.16,42,4.88,5.57,9.77,8.4,14.54,8.4a11.84,11.84,0,0,0,4.58-.93l-8.76,13.62L181,92.14l6.88,5.63.41,3.28L174.1,98.58l-.72,15.84,5,.72,4.52,4,1.89,11.32,13.08,10.46,8.29.75v-7.37l5-2.52,6.09,7.12-.16.15c-2.56,2.65-2.39,13.4-2.3,16.3a8,8,0,0,0-1.25,6.61c1.16,4.33,5.91,7.22,7.55,8.1l.59,17.52-5.13,1.92.15.82c1.46,8.22,4.75,11.73,11,11.73a46.37,46.37,0,0,0,8.58-1.2,71,71,0,0,1,10.93-1.55l.89,0c8.57,0,10.75,5.41,13.28,11.68,1.32,3.29,2.7,6.7,5.13,9.35,2,2.15,5.33,3.24,10,3.24,6.82,0,14.89-2.3,19.27-3.74-5.53,5.1-17.47,5.1-31,5.1-12.32,0-17.3,11.4-19,17.11l-3.85-10.1-1.15-6.94a9.62,9.62,0,0,0,3-7.27c-.28-4.78-4.49-8.13-4.67-8.27l-.06-.05L227.5,203l-9.15-2.44-3.12-5-11.29-3.76a6.23,6.23,0,0,1-.7-4.29c.44-1.8,1.87-3.37,4.28-4.66a14.67,14.67,0,0,0,8-13.51l0-.55-10.63-5.62c-.13-7.39-2.68-10-2.8-10.14l-.24-.24-.33-.05a13.29,13.29,0,0,0-1.64-.11c-12.87,0-14.37,20.31-14.53,23.81l-13.29,10.27-10.62,3.12-.12.08c-.15.1-3.61,2.38-3.27,6.08s4.69,7.43,12.85,10.75c19,7.72,20.72,14.56,20.08,19.65-.53,4.28-5.83,23.4-7.18,28.23Z"/><path class="cls-2" d="M30.86,2.31,48.08,7.48,73.17,24.21c0,3.2,2,10.63,18.14,19a16.19,16.19,0,0,0,7.29,2.05,9.16,9.16,0,0,0,7-3.12c4.67-5.12,5.21-15.6,5.11-21.36a53.77,53.77,0,0,0,9.06,4.33,6.08,6.08,0,0,0,2.11.42A3.66,3.66,0,0,0,125,23.9c1-1.53,1-4.06.54-6.55,10,8.85,31.85,28.54,41.71,39.81,5.07,5.8,10.22,8.74,15.29,8.74a12.82,12.82,0,0,0,2.29-.21l-7.09,11-.43.66.14.78L180,92l.13.72.57.47L187,98.29l.2,1.54-11.77-2-2.24-.39-.1,2.27-.63,13.8-.08,1.81,1.8.26,3.8.54,4,3.53,1.76,10.59.13.76.59.48,12.55,10,.47.38.6.05,6.9.63,2.18.2v-7.86l3.77-1.88,5,5.87c-2.28,3.38-2.27,12.48-2.16,16.17a8.82,8.82,0,0,0-1.21,7.14c1.15,4.3,5.47,7.25,7.54,8.45l.54,16.23L217,188.23l-1.56.59.29,1.64c.76,4.24,2,7.33,3.92,9.39l-.67-.18-2.72-4.35-.38-.61-.68-.23L204.64,191a5,5,0,0,1-.42-3.25c.37-1.51,1.64-2.85,3.77-4a15.7,15.7,0,0,0,8.58-14.46l-.09-1.1-1-.52-9.62-5.09c-.26-7.21-2.78-9.94-3.08-10.24l-.48-.48-.67-.09a13.5,13.5,0,0,0-1.77-.12c-13.26,0-15.23,19.61-15.51,24.3l-12.77,9.87-10.3,3-.28.08-.25.16c-.16.11-4.12,2.72-3.71,7s4.81,8.07,13.46,11.58c20.74,8.43,19.82,15.82,19.47,18.61-.44,3.53-4.37,18.1-6.85,27l-34.9-15.38-.39-.17H135.68c-1.39-1.34-5.08-5.11-6.44-8.74-1.54-4.11-7.76-4.68-14.25-4.68-3.76,0-8.15.23-12.79.46-2.84.15-5.78.3-8.79.41-1.07,0-2.13.06-3.13.06-10.19,0-13.82-2.05-14.78-2.78-.62-3.92-4.26-22-19.23-23.62-14.05-1.56-25.34-15-25.45-15.18l-.69-.83-1.07.12-6.27.69a58.54,58.54,0,0,1-5-11.05,6.11,6.11,0,0,0-6.24-4.33c-3.22,0-7,1.67-9.55,3.09V44.68c2.94,0,9.27.19,19.88.61.41,0,.81,0,1.19,0,5.24,0,8.94-1.48,11-4.4,3.06-4.31,1.13-10,1-10.2l-.27-.77-.72-.36c-6.63-3.31-11.07-12.42-12.41-15.47l9.12-11.8M248.13,200.24c7.9,0,9.86,4.88,12.35,11,1.36,3.38,2.77,6.87,5.32,9.65a10.49,10.49,0,0,0,5.09,2.91c-2,0-4,0-6.12,0-10.48,0-16.38,8-19.12,15.07l-2.79-7.32-1.06-6.36a10.43,10.43,0,0,0,2.9-7.65c-.31-5.22-4.86-8.85-5-9l-.12-.1-.14-.08-9.91-5.5a64.54,64.54,0,0,0,7-1.14,71.18,71.18,0,0,1,10.78-1.53l.85,0M30.12,0,19.45,13.8s5,13.18,13.8,17.57c0,0,4.18,11.94-10.18,11.94-.36,0-.73,0-1.11,0-15.69-.63-22-.63-22-.63V174.84s6.74-4.64,11.55-4.64a4.14,4.14,0,0,1,4.34,3,57.61,57.61,0,0,0,5.86,12.55l7.53-.83S41,199.1,56.05,200.77s17.57,22.59,17.57,22.59,2.55,3.82,16.66,3.82c1,0,2.07,0,3.2-.06,8-.29,15.54-.87,21.51-.87,6.7,0,11.38.73,12.37,3.38,1.89,5,7.53,10,7.53,10h12.55l37,16.31s6.9-24.47,7.53-29.49-.63-12.54-20.71-20.7-9.41-15.06-9.41-15.06l10.67-3.14,13.8-10.66s.58-23.32,13.55-23.32a13.34,13.34,0,0,1,1.51.1s2.51,2.51,2.51,10l10.66,5.65A13.78,13.78,0,0,1,207,182c-8.15,4.39-3.76,10.66-3.76,10.66l11.29,3.77,3.14,5,9.41,2.51,11.29,6.27s8.79,6.9,1.26,14.43l1.25,7.53,5,13.18s3.14-19.45,18.83-19.45,29.48,0,33.88-8.16c0,0-12.49,4.8-22.14,4.8-3.86,0-7.26-.77-9.23-2.92-6.76-7.37-5.1-21.35-19.15-21.35l-.93,0c-7.66.32-14.34,2.75-19.47,2.75-5,0-8.48-2.27-10-10.91l5-1.88-.63-18.82s-11.92-5.65-6.27-13.8c0,0-.61-16.33,2.93-16.33H219l-7.53-8.78-6.28,3.14v6.9l-6.9-.63-12.55-10-1.88-11.29-5-4.39-4.39-.63.63-13.8,14.43,2.51-.63-5L182,91.6l-2.51-13.8,11.29-17.57a11.24,11.24,0,0,1-8.17,3.67c-3.64,0-8.34-1.83-13.79-8.06-13.17-15.06-47.05-44.55-47.05-44.55s4.78,12.22.17,12.22a4.31,4.31,0,0,1-1.43-.3,51.27,51.27,0,0,1-11.92-6.27s2.39,26.3-9.94,26.3a14.16,14.16,0,0,1-6.37-1.83c-19.45-10-16.94-18.2-16.94-18.2L48.94,5.65,30.12,0Z"/><path class="cls-1" d="M215.31,73.34,201.36,61.82c2.48-4.83,11.85-6,14.46-6.19l4.27,9.75.35.16a7.18,7.18,0,0,1,4.44,7l-3.65,8.88Z"/><path class="cls-2" d="M215.19,56.69,219,65.42l.31.72.71.31a6.14,6.14,0,0,1,3.85,5.87L221,79.39l-4.79-6.54-.15-.2-.19-.16L202.67,61.61c2.37-3.23,8.84-4.55,12.52-4.92m1.27-2.11s-13.81.63-16.32,7.53L214.57,74l6.9,9.42,4.4-10.67a8.25,8.25,0,0,0-5-8.16l-4.39-10Z"/><path class="cls-1" d="M258.13,111.5c1.34-4.59,2.45-11.51-.47-17.4A17,17,0,0,0,248.45,86a18.06,18.06,0,0,1,3.85.59,9.56,9.56,0,0,1,6,4.3c3.25,5.57,9.86,7.28,13.67,7.8L266,102.77Z"/><path class="cls-2" d="M254.86,88.75a7.57,7.57,0,0,1,2.53,2.6c2.83,4.86,8,7,12,7.85l-3.87,2.68-.19.13-.16.17L260,107.93c.79-4.35.88-9.61-1.43-14.28a16.42,16.42,0,0,0-3.7-4.9m-7.58-3.82a24,24,0,0,0-4.47.4c25.09,5,12.54,30.74,12.54,30.74l11.3-12.55,8.15-5.64s-11.29,0-15.68-7.53a10.54,10.54,0,0,0-6.55-4.76,19.79,19.79,0,0,0-5.29-.66Z"/><polygon class="cls-1" points="225.06 138 225.46 134.41 233.39 137.46 236.29 128.73 242.54 136.01 245.62 145.78 225.06 138"/><path class="cls-2" d="M236.69,130.72l5,5.79,2.4,7.6-17.91-6.77.17-1.53,5.74,2.2,1.95.76.67-2,2-6.06m-.78-4-3.14,9.41L224.61,133l-.63,5.65,23.22,8.78-3.77-11.92-7.52-8.78Z"/><polygon class="cls-1" points="286.73 144.96 290.63 142.62 293.37 149.25 286.73 144.96"/><path class="cls-2" d="M290.15,144.08l1.07,2.6-2.6-1.68,1.53-.92m1-2.91-6.28,3.76,10.67,6.9-4.39-10.66Z"/></g></g></svg>