<svg xmlns="http://www.w3.org/2000/svg" viewBox="0 0 514.38 409.06"><defs><style>.cls-1,.cls-2{fill:#5a6bb6;}.cls-1{opacity:0.1;}</style></defs><g id="Layer_2" data-name="Layer 2"><g id="panama"><path class="cls-1" d="M377.6,335.65c-2.61,0-4-.71-4.07-2.09-.13-2-.2-3.73-.27-5.28-.09-2.12-.17-3.95-.36-5.45s1.58-6.91,2.76-9.85l.2-.5L365.2,297.05a45.67,45.67,0,0,0,7.91,1.18c.24,0,.47,0,.69,0,1.86,0,3.08-.47,3.73-1.43.92-1.37.22-3.07-.16-4l-.12-.31c-.19-.57-.89-1.36-2.7-3.32a29.32,29.32,0,0,1-2.91-3.43c-.25-1.42-3-8.34-5.4-14l-.17-.43-6-2L352.49,265l-.33-8.68-16.88,1.94a27.78,27.78,0,0,1-3.47-4.37c0-.13,0-.3,0-.5-.19-2.28-.07-4.73,2.24-5.7,4.77-2,2.63-12.89,1.81-15.08l-3.9-10.38-6.66-3.74-.16,1.51c-.11,1-.62,6.29.07,8,.29.93-.43,7.1-1.27,12.38l-4.53,5.53c-1.47-2.77-4.76-9-5.24-9.94-.71-1.43-4.1-3.33-5.13-3.88l-.22-.12H298c-.91-1.07-3.67-4.31-4.7-5.59a18.58,18.58,0,0,1-1.88-3.47,24,24,0,0,0-1.18-2.38,27.46,27.46,0,0,1-1.24-5.63,28.58,28.58,0,0,0-.88-4.27c-.64-1.59-3.34-3.93-4.21-4.65l-7.55-15.1-.88.39c-10.48,4.74-10.15,6.08-10,6.8.44,1.75,3.94,4.74,6.34,5.43.36.38-.06,2.73-1.11,5.17l-5.69,2.45-11.14-8.21c-1.17-7.14-2.89-15.65-4.48-16.6-.54-.33-4.76-2.4-12.8-6.33-12.19-6-32.59-16-34.17-17.14-2.51-1.88-11.24-4.14-12.77-4.53l-6.8-3.89c5.62-11,4.88-20.14-2.1-25.9-.92-.76-1.75-1.43-2.49-2l10.11-8,7.74,3.61a2.89,2.89,0,0,0,3-.31l18.49-13.87a2.88,2.88,0,0,0,1.14-1.93,2.92,2.92,0,0,0-.55-2.16l-2.31-3.08A2.9,2.9,0,0,0,214,99.56a2.83,2.83,0,0,0-.41,0,3,3,0,0,0-1.76.58l-15.24,11.43-7.85-3.66a2.81,2.81,0,0,0-1.24-.28,3,3,0,0,0-1.82.64l-16.77,13.29a5,5,0,0,0-2.8,1.32,5.26,5.26,0,0,0-.58,7.05l1.16,1.74a3,3,0,0,0,2,1.27,3.44,3.44,0,0,0,.46,0,2.93,2.93,0,0,0,1.3-.31c1.16.87,2.57,2,4.21,3.34,4.26,3.51,1.48,10.52-.85,14.82a11.35,11.35,0,0,0-2.68-.41c-1.81,0-2.15,1-2.22,1.47v0a7.41,7.41,0,0,1-2.31-.94,5.38,5.38,0,0,0-2.33-.79,29.06,29.06,0,0,1-5.62-1.59,8.66,8.66,0,0,1-4.73-5l-.1-.31-3.19-2.39-5.8,1.93-.57,4.84-.15,0a12,12,0,0,0-2.79-.19,31.73,31.73,0,0,1-3.62-.15,12.4,12.4,0,0,1-3.77-1.12,11.27,11.27,0,0,0-2.1-.75,40.87,40.87,0,0,0-5.53-.64c-.65,0-8.17-.77-12.76-1.25h-.08l-11.06.63-24.15,1.25H67.62c-.51,0-11.14.75-24.39,9.26-9.32,6-9.51,14.91-8.65,20.06h0a10.33,10.33,0,0,0-2.73-2.5,6.89,6.89,0,0,1-2.23-2.1c-.61-1.21-.84-5-.84-7.08v-.92l-3.46-.3c-2.67-7.47-4-13.82-4-18.86,0-11-1.76-18.19-5.22-21.32A6.38,6.38,0,0,0,13.3,120l-12-9.58c3.49-6.35,2.09-14.49,1-18.57l19.77-6.33,7.07-32.71,0-15.14,8.7-29.28C41.19,6.93,50.11,2.87,54,1.57A15,15,0,0,1,58.6,1,41.2,41.2,0,0,1,68.88,2.41c1.78.59,7.8,3.06,10.82,4.31l.53,3.73L78,22.64H88.21a41.58,41.58,0,0,0,9.55-1.17,71.07,71.07,0,0,1,8.31-1.36l1.1-.11a4.41,4.41,0,0,0,1.12.13c1,0,5,1.17,9.39,2.7l3.64,10.93,1.46,10.93-1.7.54c-1.27.07-8.73,1-10.86,13.08-.54,3,0,5.24,1.73,6.6a5.82,5.82,0,0,0,3.79,1.21c3.46,0,8.3-2,15.62-5,5.75-2.34,12.89-5.24,20.87-7.7a36.39,36.39,0,0,1,10.49-1.81,15.71,15.71,0,0,1,8.16,2,11.53,11.53,0,0,1,5.23,7l.37,2,2.06.32c.85.13,8.44,1.29,11.11,1.29,1.91,0,11.31.89,14.76,1.24l3.81.38-2.3-13.8,2.89-3.72,19-3a31.58,31.58,0,0,1,4.49-.57c2.13,0,7.73-1.25,10.49-4.94a16.29,16.29,0,0,1,3.47-3.16c1.4.08,4.33.22,7.55.22,2.7,0,5.06-.1,7-.3a37.8,37.8,0,0,0,11.73-3.3l.24-.1c.49-.21.89-.39,1.21-.49a2,2,0,0,1,.69-.11,17,17,0,0,1,2.35.3c.92.15,2.19.35,3.83.56,2.06.26,2.06.26,2.61,1.77.3.83.72,2,1.36,3.42,1.43,3.21,3.43,4.85,5.95,4.85a10.12,10.12,0,0,0,3.29-.7,7,7,0,0,1,2.22-.53c1.82,0,3.4,0,4.28-1.73a3.15,3.15,0,0,0-.41-3.45,1.93,1.93,0,0,1-.35-1.73c.43-3,.82-4.72,1.68-5.83a10.94,10.94,0,0,0,1.2,2.1c2.83,4,5.48,5.14,6.93,5.48,5.95,4,12.88,9,13.81,10.26a5.68,5.68,0,0,0,4.93,2.52c.54,0,1.08-.05,1.61-.1.72-.06,1.54-.13,2.56-.13.76,0,1.54,0,2.36.12,3.19.32,4.5.47,5,.53v.11h.71l.57.1,0-.1h2.39l0-.65c4.05-1.17,10.61-3.53,13.81-7.27l2.59-3,2.06.52,7.39,12.75,6.33-1.58,6.71,2.24a14.77,14.77,0,0,1,2.66,3.47c1.73,5,4.42,12.84,4.85,14.54.46,1.86,1.17,4.66,24.71,5.35l.65,0,16.95-7.34a64.64,64.64,0,0,1,2.92,6c.53,1.59,3.44,11.27,4.32,14.2l.65,2.16,2.11.07c.18,0,19.55.63,26.44.63,4.44,0,6.2-.5,7.83-3.47.12-.2.23-.41.37-.64l1.89,3.49L478,96l-5.1,8.49,2.69,1.46c.63.34,15.53,8.36,27,11.54A15.28,15.28,0,0,1,513.23,127L505,135.26l-6.38,10.52-1.17,25.71c-11.2,1.62-22.17,14.76-25.72,19.41-8.84.67-23.68,1.77-25.44,1.77-4.17,0-8.26,4.88-9.14,9.25-.45,2.27-1.84,3.65-3.59,5.41-2,2-2.21,4.56-2.37,6.44,0,.51-.1,1.11-.17,1.45a9.74,9.74,0,0,1-2.06,1.05c-1.06-.55-2.92-1.54-4.07-2.28a13.63,13.63,0,0,1-.41-3.24,14.11,14.11,0,0,0-.51-3.53c-.43-1.29-1.14-3.45-16.55-6.95l-.72-.16-26,7.21.58,2.69c.59,2.78,2.12,9.43,3.5,11.57.48,1,1.7,8.11,2.71,16.85v12.79l-5,33.59-1.87,10-.13.74.22.7c0,.06,1.85,6,4.89,35.17l.21,2c-.33-1.22-.87-2.25-1.92-2.25-.42,0-1.67,0-2.78,4.15A19.05,19.05,0,0,1,377.6,335.65Z"/><path class="cls-2" d="M58.6,0V2a40.27,40.27,0,0,1,10,1.36c1.22.4,5,1.91,10.22,4.06l.43,3-2,10.85-.43,2.36H88.21A42.32,42.32,0,0,0,98,22.44a69.68,69.68,0,0,1,8.19-1.33l.53-.06.41,0a5.62,5.62,0,0,0,1.18.12,55.35,55.35,0,0,1,8.6,2.48L120.34,34l1.34,10-.79.26c-1.81.15-9.47,1.52-11.65,13.88-.61,3.41.09,5.95,2.08,7.56a6.76,6.76,0,0,0,4.42,1.43c3.66,0,8.57-2,16-5,5.73-2.33,12.85-5.23,20.79-7.67a35,35,0,0,1,10.19-1.77,14.75,14.75,0,0,1,7.64,1.84,10.39,10.39,0,0,1,4.76,6.3l.25,1.35.26,1.39,1.4.22,1.35.21c1.42.21,8.59,1.3,11.27,1.3,1.67,0,9.88.75,14.66,1.23l2.51.25,2.6.26L209,64.42l-2-12.08,2.38-3.06L228,46.37h.08a28.23,28.23,0,0,1,4.26-.55c2.94,0,8.57-1.7,11.29-5.34a14.87,14.87,0,0,1,3-2.75c1.5.09,4.25.21,7.25.21,2.73,0,5.12-.1,7.11-.3a39.22,39.22,0,0,0,12-3.38l.2-.09c.48-.21.9-.39,1.17-.48a1,1,0,0,1,.37,0,18.14,18.14,0,0,1,2.19.28c.93.15,2.2.36,3.87.57.56.07,1.14.14,1.44.21.1.21.23.58.35.91.31.84.73,2,1.38,3.48,1.61,3.61,3.92,5.45,6.87,5.45a11.08,11.08,0,0,0,3.62-.76,6.71,6.71,0,0,1,1.89-.47c1.88,0,4,0,5.17-2.27a4.12,4.12,0,0,0-.49-4.49c-.18-.25-.26-.37-.17-1a25.26,25.26,0,0,1,.74-3.79c.1.17.22.34.33.5,2.91,4.07,5.7,5.39,7.33,5.82,6.42,4.32,12.66,8.93,13.43,9.94a6.69,6.69,0,0,0,5.73,2.92c.59,0,1.15-.05,1.7-.1s1.5-.13,2.47-.13a22.26,22.26,0,0,1,2.26.12c2.17.21,3.47.35,4.24.43l0,.21h1.5l1.45.26.06-.26h2.52l0-.89c4.19-1.27,10.42-3.66,13.61-7.38l2.19-2.55,1.05.26,6.79,11.74.76,1.3,1.46-.36,5.32-1.33,6.22,2.07a16.3,16.3,0,0,1,2.28,3C386,62.09,388.7,70,389.12,71.69c.74,3,3.18,5.45,25.65,6.11h.43l.44,0,.41-.18L432,70.76a54.15,54.15,0,0,1,2.42,5c.61,1.8,4.32,14.19,4.36,14.32l.4,1.32.41,1.38,1.44,0,1.38,0c.19,0,19.55.63,26.48.63,4.15,0,6.37-.45,8.16-3.08l.87,1.61-.8,3.6-4.48,7.45-1.07,1.79,1.84,1,1.77,1c.63.34,15.62,8.42,27.17,11.62a14.35,14.35,0,0,1,9.76,8.31l-7.72,7.72-.17.17-.13.21-6.18,10.2-.27.43,0,.51-1.12,24.65c-11,2.12-21.49,14.41-25.28,19.29-11.13.85-23.42,1.74-24.92,1.74-4.78,0-9.17,5.3-10.12,10.06-.39,2-1.62,3.19-3.32,4.89-2.25,2.25-2.5,5.15-2.66,7.07,0,.26,0,.63-.09.93a9.74,9.74,0,0,1-1.09.55c-1.34-.71-2.48-1.34-3.26-1.82a23.27,23.27,0,0,1-.28-2.69,15.14,15.14,0,0,0-.55-3.76c-.7-2.09-2.54-4.25-17.28-7.6l-.47-.11-.5-.11-.48.13-24.81,6.89-1.81.5.39,1.85.38,1.77c.75,3.47,2.18,9.54,3.58,11.82.48,1.24,1.68,8.4,2.61,16.44v12.66l-5,33.49-1.88,10-.08.49-.09.48.15.47.15.47c.07.23,1.79,5.92,4.71,33.64a2.15,2.15,0,0,0-.58-.07c-1,0-2.43.48-3.57,4.28a18.74,18.74,0,0,1-2.74.24c-1.37,0-3-.2-3.07-1.16-.13-2-.21-3.72-.27-5.27-.1-2.13-.18-4-.37-5.51-.15-1.19,1.28-5.8,2.7-9.36l.4-1-.61-.88-8.93-12.92a44.72,44.72,0,0,0,5.6.68c.27,0,.51,0,.75,0,2.19,0,3.73-.63,4.56-1.88,1.22-1.81.35-3.91-.06-4.91,0-.1-.08-.18-.1-.25-.26-.76-.92-1.52-2.91-3.68a39.61,39.61,0,0,1-2.7-3.1c-.23-1-1.19-3.86-5.42-14.06l-.35-.84-.87-.29-5.45-1.82-7-4.05-.27-7.05-.08-2.16-2.15.25-15.29,1.76a31.32,31.32,0,0,1-2.88-3.58l0-.32c-.16-2-.08-4,1.63-4.7,5.89-2.45,3-14.69,2.36-16.35l-3.76-10-.26-.68-.63-.36-5-2.82-2.65-1.49-.32,3c-.2,1.91-.59,6.48.09,8.38.19,1.2-.48,6.85-1.25,11.69l-3.4,4.16c-1.62-3.07-4.12-7.78-4.53-8.6-.79-1.58-3.81-3.38-5.54-4.32l-.45-.23H298.48c-1.11-1.3-3.46-4.06-4.38-5.21a17.94,17.94,0,0,1-1.75-3.27,23.68,23.68,0,0,0-1.23-2.47A33.06,33.06,0,0,1,290,214.7a25.51,25.51,0,0,0-.94-4.48c-.68-1.7-3.18-3.94-4.33-4.92l-7-14.05-.86-1.72-1.75.79c-11.25,5.08-10.86,6.61-10.53,8,.52,2.07,3.92,4.93,6.43,5.93a13.43,13.43,0,0,1-1,3.67l-4.79,2.05-10.35-7.62c-2.58-15.52-4.13-16.45-4.89-16.9-.55-.33-4-2-12.88-6.38-12.1-5.92-32.35-15.83-34-17-2.58-1.94-10.76-4.1-13-4.67L184.23,154c5.38-11,4.42-20.34-2.79-26.27l-1.52-1.25,8.64-6.85,7.18,3.35a4,4,0,0,0,1.67.37,3.91,3.91,0,0,0,2.35-.79l18.49-13.87a3.93,3.93,0,0,0,.79-5.49l-2.31-3.08a3.87,3.87,0,0,0-2.58-1.53,3.6,3.6,0,0,0-.56,0,4,4,0,0,0-2.36.78l-14.76,11.07L189.16,107a4,4,0,0,0-1.66-.37,3.93,3.93,0,0,0-2.44.85l-16.55,13.13a6,6,0,0,0-3.07,1.53,6.29,6.29,0,0,0-.74,8.34l1.16,1.75a4,4,0,0,0,2.65,1.69,3.18,3.18,0,0,0,.62.05,4.05,4.05,0,0,0,1.15-.17c1.05.8,2.3,1.8,3.72,3,3.52,2.9,1.36,8.87-.73,12.9a10.54,10.54,0,0,0-2.16-.26,3.1,3.1,0,0,0-2.82,1.29c-.44-.19-1-.47-1.24-.62a8.17,8.17,0,0,0-1.24-.58,9.76,9.76,0,0,0-1.38-.32,27.48,27.48,0,0,1-5.44-1.54,7.67,7.67,0,0,1-4.14-4.36l-.19-.63-.52-.39-2.51-1.88-.84-.63-1,.33-4.71,1.57-1.2.4-.15,1.27-.37,3.15c-.63-.06-1.32-.06-2.07-.06a31.68,31.68,0,0,1-3.51-.14,11.49,11.49,0,0,1-3.49-1.05,11.63,11.63,0,0,0-2.3-.81,41.26,41.26,0,0,0-5.71-.66h0c-.77,0-8.18-.78-12.67-1.25l-.16,0h-.16l-11,.63-24.1,1.25H67.5c-.46,0-11.35.75-24.81,9.41A19.49,19.49,0,0,0,33.28,172c-.28-.23-.57-.43-.85-.63a6.88,6.88,0,0,1-1.93-1.74c-.45-.9-.72-4.14-.73-6.63v-1.83L28,161,26,160.81c-2.49-7.1-3.75-13.13-3.75-17.92,0-11.47-1.82-18.69-5.55-22.06a7.54,7.54,0,0,0-3-1.7L2.59,110.19c2.9-5.92,2.08-13,1-17.64l18.33-5.86,1.1-.35.24-1.13,6.93-32,0-.21v-.21l0-14.9,8.53-28.7c3.53-1.62,11.86-5.4,15.55-6.63A14.39,14.39,0,0,1,58.6,2V0m0,0a16.19,16.19,0,0,0-4.91.62C49.54,2,39.92,6.41,37.11,7.71L28.24,37.56l0,15.19-6.92,32L1.13,91.23c1.14,3.92,3,13-1.13,19.51l.74.53L12.86,121a5.34,5.34,0,0,1,2.54,1.35c3.24,2.94,4.89,9.86,4.89,20.58,0,5.91,1.79,12.9,4.3,19.8l3.18.28s0,5.65.95,7.53,3.76,2.82,5,4.7a15.29,15.29,0,0,0,2.83,3.14s-6-14.43,7.21-22.9,23.84-9.1,23.84-9.1H78.28l24.16-1.25,11-.63s11.92,1.26,12.86,1.26a40.51,40.51,0,0,1,5.33.62c1.57.32,3.14,1.57,6,1.89s5,0,6.27.31l1.26.31.63-5.33,4.7-1.57,2.51,1.88a9.6,9.6,0,0,0,5.34,5.65,38.13,38.13,0,0,0,6.9,1.88c.66.22,2.55,1.52,3.73,1.52a.9.9,0,0,0,1-.89c.06-.44.53-.61,1.23-.61a13.08,13.08,0,0,1,3.18.58c2.75-4.86,6-12.67,1-16.76-2.24-1.84-3.78-3-4.81-3.79l-.15.12a1.91,1.91,0,0,1-1.19.41l-.3,0a2,2,0,0,1-1.31-.84l-1.16-1.74a4.29,4.29,0,0,1,.42-5.75,3.85,3.85,0,0,1,2.51-1.08l17-13.49a1.92,1.92,0,0,1,2-.24l8.4,3.92,15.72-11.79a1.94,1.94,0,0,1,1.16-.38,1.23,1.23,0,0,1,.27,0,1.91,1.91,0,0,1,1.27.75l2.31,3.08a1.92,1.92,0,0,1-.39,2.69l-18.49,13.87a1.88,1.88,0,0,1-1.15.39,2,2,0,0,1-.82-.18l-8.3-3.88-11.59,9.19c1,.76,2.12,1.68,3.47,2.79,8.93,7.36,5.14,18.58,1.41,25.52l7.75,4.43s10,2.51,12.55,4.4,45.49,22.58,47.06,23.52S253,203.44,253,203.44l11.92,8.78,6.59-2.82s2.83-6.28.63-6.9-5.33-3.45-5.65-4.71,9.41-5.65,9.41-5.65l7.22,14.43s3.45,2.83,4.08,4.4,1.25,8.47,2.19,10,1.89,4.4,3.14,6,5,6,5,6h11s4.08,2.19,4.7,3.45,6,11.29,6,11.29l5.64-6.9s1.88-11.61,1.26-13.18,0-7.53,0-7.53l5,2.83,3.76,10c.94,2.5,2.51,12.23-1.25,13.8s-2.83,6.27-2.83,7.21,4.08,5.34,4.08,5.34l16.31-1.89.32,8.16,8.15,4.71,5.65,1.88s5.33,12.86,5.33,13.8,5.34,6,5.65,6.9,2.34,4.41-2.5,4.41c-.2,0-.41,0-.64,0a44.28,44.28,0,0,1-10.35-1.88l11.92,17.26s-3.14,7.84-2.82,10.35.31,6,.62,10.66c.17,2.44,2.68,3,5.07,3a20.76,20.76,0,0,0,4.35-.52s1-4,2-4c.4,0,.81.64,1.17,2.44a67,67,0,0,0,3.12,9.75c-.55-4-1.09-8.29-1.58-13-3-29.17-4.86-35.12-4.94-35.36l-.14-.46.08-.49,1.88-10,5-33.67V238.37c-.85-7.35-2.17-16-2.84-17.28-1.33-2-2.93-9.14-3.39-11.29l-.38-1.77,24.8-6.89.48.11c14.85,3.37,15.54,5.41,15.82,6.28a13.92,13.92,0,0,1,.46,3.29c.07,1.12.22,3.44.69,3.89,1.28.85,3.58,2.06,4.72,2.65a7.29,7.29,0,0,0,3-1.7,9.58,9.58,0,0,0,.25-1.8c.16-1.82.35-4.09,2.09-5.82s3.35-3.36,3.86-5.92c.78-3.91,4.52-8.45,8.16-8.45,1.92,0,18.62-1.25,26-1.81,2.68-3.55,14.58-18.43,26.16-19.48l1.2-26.3,6.18-10.2,8.63-8.62a16.31,16.31,0,0,0-11.55-10.75c-11.37-3.15-26.13-11.11-26.75-11.45l-1.77-1L479,96.37l1-4.64-2.82-5.23a11.82,11.82,0,0,0-1.36,2c-1.34,2.42-2.58,2.95-7,2.95-6.85,0-26.22-.62-26.41-.63l-1.39,0-.39-1.33c0-.13-3.77-12.54-4.38-14.38-.34-1-2-4.33-3.42-6.92l-17.59,7.63-.43,0c-22.79-.67-23.45-3.32-23.77-4.59-.49-2-3.65-11.12-4.91-14.72-1.1-1.88-2.63-3.76-3.25-4l-7-2.33L370,51.63l-7.22-12.47-3.08-.77-3,3.49c-3.32,3.87-10.79,6.27-14,7.15l0,.42h-1.85l-.14-1.19-.24,1.14c-.1,0-.81-.12-5.46-.58a23,23,0,0,0-2.46-.13c-1.06,0-1.91.07-2.65.14-.51,0-1,.09-1.52.09a4.71,4.71,0,0,1-4.13-2.12c-1.13-1.51-8.87-7-14.22-10.6-1.23-.25-3.73-1.23-6.51-5.12a9.13,9.13,0,0,1-1.55-3.3c-2.05,1.39-2.56,3.49-3.13,7.47a2.87,2.87,0,0,0,.52,2.45,2.26,2.26,0,0,1,.34,2.42c-.6,1.18-1.65,1.18-3.39,1.18a8,8,0,0,0-2.54.58,9.38,9.38,0,0,1-3,.65c-1.7,0-3.54-.88-5-4.26-.61-1.39-1-2.48-1.33-3.35-.76-2.09-.76-2.09-3.42-2.42-1.59-.2-2.82-.4-3.8-.56a17.74,17.74,0,0,0-2.51-.31,3,3,0,0,0-1,.16c-.39.13-.9.35-1.53.62a37.07,37.07,0,0,1-11.44,3.23c-2.17.22-4.62.29-6.91.29-3.44,0-6.52-.16-7.83-.24a17.33,17.33,0,0,0-4,3.58c-2.41,3.21-7.51,4.54-9.7,4.54a30.3,30.3,0,0,0-4.64.59l-19.41,3-3.4,4.38L207,64.75l-2.51-.25c-3.46-.35-12.89-1.24-14.86-1.24-2.59,0-10.11-1.15-11-1.28l-1.35-.21-.25-1.34a12.45,12.45,0,0,0-5.7-7.65,16.61,16.61,0,0,0-8.67-2.13,37.39,37.39,0,0,0-10.78,1.85c-8,2.47-15.2,5.39-20.95,7.74-7.15,2.91-12,4.88-15.25,4.88a4.82,4.82,0,0,1-3.16-1c-2.08-1.67-1.55-4.66-1.37-5.65,2.13-12.11,9.73-12.25,10.05-12.25l2.62-.85L122.3,33.53l-3.83-11.48c-3.68-1.31-8.8-2.92-10.18-2.92a3.49,3.49,0,0,1-1-.14l-1.28.13a71.55,71.55,0,0,0-8.41,1.37,40.73,40.73,0,0,1-9.35,1.15h-9l2-11.17L80.61,6C78,4.94,71.15,2.11,69.2,1.46A41.87,41.87,0,0,0,58.6,0Z"/><path class="cls-1" d="M171.48,350.39l-3-4.24L165,342.72,170.9,340l2.85,7.4.2.17c2,1.69,2,1.69,2.44,1.83a17.66,17.66,0,0,1,3.29,2l.35.23a5.06,5.06,0,0,0-2.6,1.46Z"/><path class="cls-2" d="M170.35,341.35l2.37,6.17.19.48.4.34c2.17,1.81,2.17,1.81,2.76,2a12.49,12.49,0,0,1,1.83,1.09,7,7,0,0,0-.67.48l-5.09-2.32-2.83-3.95-.09-.14-.12-.11L166.74,343l3.61-1.67m1.1-2.71-8.16,3.77,4.4,4.39,3.13,4.39,6.9,3.14c2.51-3.77,8.16,0,2.51-3.77s-1.88-.62-5.64-3.76l-3.14-8.16Z"/><path class="cls-1" d="M168,408.05a9.16,9.16,0,0,1-3.23-2.24l-1.18-2.36a2.85,2.85,0,0,1,.45-3.25l.15-.15,3.29-9.21,0-.22a56.62,56.62,0,0,1-.08-9.91l5.39-2.69-.42,3.31,0,.16a39.84,39.84,0,0,1,0,12.68l-3.8,8.25v.22a26.69,26.69,0,0,1-.6,5.4Z"/><path class="cls-2" d="M171.51,379.75l-.16,1.31,0,.3.06.3a39,39,0,0,1,0,12.2l-3.67,7.94-.18.4v.44a29.37,29.37,0,0,1-.32,3.94,14.12,14.12,0,0,1-1.69-1.37l-1.1-2.21a1.79,1.79,0,0,1,.25-2.08l.32-.32.15-.43,3.13-8.78.16-.42-.05-.45a59,59,0,0,1-.13-9.16l3.22-1.61m2.45-3.46-7.53,3.76a54.64,54.64,0,0,0,0,10.67l-3.14,8.78a3.87,3.87,0,0,0-.62,4.39l1.25,2.51s2.66,2.66,4.13,2.66a.87.87,0,0,0,.89-.77,27.5,27.5,0,0,0,.63-5.65l3.76-8.16a40.34,40.34,0,0,0,0-13.17l.63-5Z"/><path class="cls-1" d="M228,387.45l-9-4.78a67.85,67.85,0,0,1,3.53-10.37l.08-.19V366l-2.8-4.91-3.24-1.39,4.16-3.64v-.46a47.56,47.56,0,0,0-.65-7.72c-.55-2.76-1.16-3.42-2.5-4.67-.27-.25-.57-.52-.91-.86-1-1-.84-5.08-.44-7.93a54.93,54.93,0,0,1,9.25-1.66l2.27-.23c.62-.07,1.46-.16,1.49-1l5-1.67,1.73,4,.51.11a17.9,17.9,0,0,0,3.08.3A8.22,8.22,0,0,0,242,334c1.57-.53,2-2.41,2-4l4.28,3c.31,1.29,1.36,6,2.41,13.34l.08.56,4.09,1.75L253.31,354a18.81,18.81,0,0,0-1.3,5.31c0,2.08,3.59,3.29,6,3.87-.6,1.78-1.85,5.41-2.76,7.68-.81,2-2,5.72-1.4,8.39a15.34,15.34,0,0,1-1.79-.17,19.46,19.46,0,0,0-2.34-.2,4.49,4.49,0,0,0-1.38.18,5.61,5.61,0,0,1-1.92.37c-2,0-4.78-1.3-8.47-4l-.81-.59-5.74,7.89-1.45,7.74Z"/><path class="cls-2" d="M233.71,331.08l1.15,2.7.42,1,1,.21a18.88,18.88,0,0,0,3.27.32,8.64,8.64,0,0,0,2.77-.39,4,4,0,0,0,2.53-3.14l2.6,1.82c.38,1.67,1.34,6.18,2.3,12.89l.16,1.11,1,.44,2.75,1.18-1.34,4.48a19,19,0,0,0-1.37,5.68c0,2.33,2.74,3.73,5.68,4.57-.66,1.91-1.65,4.74-2.4,6.61a19.7,19.7,0,0,0-1.62,7.66l-.51-.06a20.93,20.93,0,0,0-2.47-.21,5.32,5.32,0,0,0-1.7.24,4.89,4.89,0,0,1-1.6.31c-1.76,0-4.42-1.28-7.89-3.8l-1.61-1.18-1.18,1.62-5,6.9-.26.37-.09.44-.93,5-.42-.67-.29-.45-.47-.26-8-4.28a65,65,0,0,1,3.27-9.45l.17-.39v-6.6l-.26-.46-2.51-4.39-.33-.59-.62-.26-1.47-.63,2.63-2.3.68-.6v-.91a48.69,48.69,0,0,0-.67-7.92c-.6-3-1.38-3.88-2.8-5.2-.26-.24-.55-.51-.87-.83-.51-.63-.61-3.52-.25-6.44a55.78,55.78,0,0,1,8.44-1.46l2.27-.23a2.46,2.46,0,0,0,2.23-1.22l3.6-1.2M243,328s.62,4.39-1.26,5a7,7,0,0,1-2.14.28,16.68,16.68,0,0,1-2.88-.28l-1.88-4.4-7.53,2.51c-1.88.63,4.39,0-1.88.63a51.15,51.15,0,0,0-10,1.88s-1.26,7.53.63,9.42,2.51,1.88,3.13,5a46.9,46.9,0,0,1,.63,7.53l-5,4.4,4.39,1.88,2.51,4.39v5.65a67.1,67.1,0,0,0-3.76,11.29l9.41,5,3.14,5,1.88-10,5-6.9c4.6,3.34,7.25,4.18,9.06,4.18a6.66,6.66,0,0,0,2.23-.42,3.73,3.73,0,0,1,1.07-.13c1.3,0,3,.37,4.13.37.81,0,1.3-.2,1.08-.87-.63-1.88,0-5,1.25-8.15s3.14-8.79,3.14-8.79-6.28-1.25-6.28-3.13a18.25,18.25,0,0,1,1.26-5l1.88-6.28-4.39-1.88c-1.26-8.78-2.51-13.8-2.51-13.8L243,328Z"/></g></g></svg>