<svg xmlns="http://www.w3.org/2000/svg" viewBox="0 0 612.15 299.26"><defs><style>.cls-1,.cls-2{fill:#5a6bb6;}.cls-1{opacity:0.1;}</style></defs><g id="Layer_2" data-name="Layer 2"><g id="sanBlas"><path class="cls-1" d="M585.08,298a27.08,27.08,0,0,0-10.71-10.25A46.46,46.46,0,0,0,563,283.22c-1.53-2.86-3.24-6.2-3.55-7.15-.72-2.14-3.14-4.79-4.23-5.91l-9.24-14.79a3.79,3.79,0,0,0-.3-.4L518,224.23a2.92,2.92,0,0,0-1.48-.89l-.6-1.4c-.05-15.25-38.94-37.56-47.64-42.36-5.34-13.37-14.09-20.36-25.14-29.19-4.79-3.83-10.21-8.16-16-13.56-9.69-9.05-16.37-13.26-21-13.26a6.54,6.54,0,0,0-1.62.19,5.05,5.05,0,0,0-.55.18,21.08,21.08,0,0,0-14.72-13.51c-8-2.23-18.18-7.16-23-9.63l2.41-4,1.59-7.18-6.66-12.37-2.76,2.46a17.23,17.23,0,0,0-4.13,5.09l-.18.32a17,17,0,0,1-2.53.12c-5.61,0-19.85-.42-24.16-.56-1.54-5.13-3.38-11.19-3.81-12.49a95.49,95.49,0,0,0-4.6-9.25l-1.28-2.36-20.67,9c-8.35-.28-16.45-1.1-18.84-1.9-.91-3.05-3.32-10-4.73-14.06l-.08-.25-.19-.41c-1-1.7-3.4-5.54-6.05-6.42l-8.33-2.78-3.71.92L251.1,33.54l-8-2-4.94,5.77c-2.32,2.7-9,4.95-12.34,5.82l-.37,0c-.79-.1-2.22-.25-4.86-.51a27.31,27.31,0,0,0-3-.16c-1.26,0-2.26.09-3.06.16-.53.05-.89.08-1.15.08h-.06l-.14-.18c-2-2.7-12.49-9.78-15.73-11.94l-.62-.52h-.85c-.2-.06-1.59-.55-3.47-3.17a3.29,3.29,0,0,1-.8-2.56A3.3,3.3,0,0,0,190.5,21a2.93,2.93,0,0,0-1.69-.55,7.1,7.1,0,0,0-3,1c-5.34,2.67-6,7.42-6.62,11.62a8.93,8.93,0,0,0-.06,2.18c-.67.17-1.26.37-1.77.55a6.54,6.54,0,0,1-1.3.37,7.74,7.74,0,0,1-.71-1.36c-.55-1.25-.91-2.24-1.2-3-1.38-3.79-2.51-5-7.38-5.59-1.53-.19-2.69-.38-3.62-.53a21.4,21.4,0,0,0-3.31-.38,7.74,7.74,0,0,0-2.52.41c-.51.17-1.14.44-1.91.77a32.43,32.43,0,0,1-10,2.86c-1.75.17-3.9.26-6.39.26-4.33,0-8.13-.26-8.17-.27l-.92-.06-.8.47A23.16,23.16,0,0,0,123.25,35c-1.14,1.52-4.46,2.59-5.82,2.59a34.94,34.94,0,0,0-5.54.68l-21.15,3.3-5.89,7.57,1.47,8.8c-4-.38-9.82-.9-11.55-.9-1.34,0-5.12-.48-8.41-1a17.43,17.43,0,0,0-7.27-8.79,21.35,21.35,0,0,0-11.23-2.86,42.09,42.09,0,0,0-12.22,2.07C27.41,49,20.13,52,14.28,54.33c-4.41,1.8-11,4.48-13.28,4.58a5.93,5.93,0,0,1,.11-1C2.5,50,6.28,49.68,6.44,49.67l.25,0,.22-.13,2.9-1.81,2.1-.7c.81-.27,8-2.68,10.74-4.53,1.6-1.06,6.78-3.53,10.57-5.33,1.72-.82,3.19-1.52,4.17-2a55.66,55.66,0,0,0,8-5.35l.78-.62,1.07-4.31a17.2,17.2,0,0,1,1.19-3.12,11.7,11.7,0,0,0,1.41-5.11c0-.65,1.56-3.8,3.93-7.5L65.35,6.05l7.41-3.3c1.9.74,3.89,1.53,5.72,2.26A20.09,20.09,0,0,0,86,6.5a25.42,25.42,0,0,0,3.88-.34A9.18,9.18,0,0,1,91.08,6c1.54,0,10.86-3.48,14.52-4.87,1.3,1.2,5.13,4.67,8.71,7.48,3.89,3,4,5.79,4,5.81l0,.91.91.08c.44,0,10.69.69,15.28.69a16.16,16.16,0,0,0,1.85-.07c1.48-.18,2.82-.47,4.67-.86,1.35-.29,3-.63,5.12-1,3.27-.62,3.83-.66,3.91-.66l-.94-.83.6-1.07.49,1.93A78.78,78.78,0,0,0,163.28,10l1.36-.53C169.08,7.76,172,6.61,176,6.61c.41,0,.84,0,1.27,0A6.25,6.25,0,0,1,179.4,7c0,.11-.09.25-.12.36a2.3,2.3,0,0,0,.1,2.34c1,1.37,7.52,2.6,11.3,3.21a82.5,82.5,0,0,0,8.95.32c4.49,0,7.91.17,9.74.26l1.47.06c.5.16,2.31,1.17,7.94,5l.68.47a2.27,2.27,0,0,0,1.27.36c1.17,0,2.46-.74,4.25-1.76l.24-.14c1.83-1,6.21-3,7.43-3.57,1.33.34,6.13,1.57,9.15,2.12,1.95.36,3.41.72,6.07,1.37,2,.49,4.62,1.14,8.62,2.07a30.25,30.25,0,0,0,6.55,1.1l.65,0h.6a26,26,0,0,1,5.39.82c.67.14,1.24.27,1.74.39l-.74,0,2.79,1.64c4.1,2.4,8.84,5.46,9.35,6.21,1,2,5.12,3.45,5.58,3.6a113.66,113.66,0,0,0,12.07,2.86c2.43.41,4,2,6.17,4.26.8.83,1.7,1.76,2.73,2.71a17.67,17.67,0,0,0,9,4.36l1.12.26c2.35.59,10.15.9,11.83,1l13.43,9.69.24,0c.06,0,6,.94,7.49,1.24.89.18,5,1.45,8,2.38,2.24.7,4,1.25,4.54,1.38,1,.38,8.25,6,13.11,9.85l.29.23,19.05-.92a29,29,0,0,0,1.4,3.49c1,2,7.05,10.89,9.18,13.93,1.11,1.6,2.22,2.31,3.6,2.31a7.61,7.61,0,0,0,.94-.08,5.51,5.51,0,0,1,.71-.06,1.76,1.76,0,0,1,.58.09,63.69,63.69,0,0,0,8.55,1.26L441,120.09c.28.37,6.33,8.54,7.9,10.42s13.36,8.86,14.69,9.64l2.77,1.62-3.52-7.55-5-16.36,14.38,15.92,1.26,6.93,18.2,18.51.85,4.23-1,5.75,2.76,2.08,4.34,12.07,5.63,8.28,6.4,1.28,17.05,15.81c.78.85,8.2,8.82,9.49,9.79a1.22,1.22,0,0,0,.76.27,1.12,1.12,0,0,0,.85-.39c.55-.62.46-1.7.05-4.86,0-.34-.09-.72-.14-1.11.15.19.32.39.52.62a22.17,22.17,0,0,0,6.2,4.44L549,228.85l11.19-1.51-1.82,18.47,20.51,14.1c.66.59,3.43,3,5.13,3.33a13.79,13.79,0,0,0,2.33.1c4.16,0,12.57-.39,12.66-.4h.07l11.54-2.31.45,4.77-5.53,2.49-11.48,2.7L597,288.27l-7.65,8C588.7,296.46,586.89,297.17,585.08,298Z"/><path class="cls-2" d="M105.38,2.31c1.6,1.45,5,4.52,8.31,7.11s3.6,4.74,3.63,5l-.12,1.84,2,.13c.43,0,10.72.69,15.34.69a16.08,16.08,0,0,0,2-.08c1.51-.19,2.87-.47,4.75-.87,1.32-.28,3-.63,5.09-1,3.09-.58,3.69-.64,3.78-.64h-.06a2,2,0,0,1-.64-3.85l1,3.87A80.86,80.86,0,0,0,163.65,11l1.35-.53c4.34-1.7,7.2-2.82,11-2.82l1.21,0c.36,0,.65.05.88.08a3,3,0,0,0,.47,2.58c.39.52,1.42,1.9,11.94,3.6h.07a87,87,0,0,0,9,.32c4.48,0,7.88.17,9.7.26l1.31,0a73.39,73.39,0,0,1,7.6,4.86l.68.46a3.24,3.24,0,0,0,1.82.53c1.43,0,2.9-.83,4.75-1.89l.23-.14c1.66-.95,5.51-2.7,7-3.39,1.68.44,6,1.54,8.88,2.06,1.92.35,3.37.7,6,1.35,2,.48,4.63,1.14,8.63,2.08A31,31,0,0,0,263,21.58l.69,0h.56a25.47,25.47,0,0,1,5.19.8l.21,0L273,24.31c3.76,2.2,8.21,5.05,9,5.91,1.25,2.23,5,3.61,6.09,4a118,118,0,0,0,12.23,2.9c2.1.35,3.5,1.79,5.61,4,.81.83,1.72,1.78,2.78,2.74a18.42,18.42,0,0,0,9.49,4.61l1.1.25c2.34.59,9.46.9,11.73,1L344,59l.39.28.47.07c.06,0,5.94.94,7.45,1.24.84.17,5.07,1.49,7.87,2.36,2.3.71,3.81,1.18,4.44,1.35,1.23.64,7.45,5.39,12.88,9.7l.58.47.76,0,17.92-.86A27.57,27.57,0,0,0,398,76.5c1.09,2.18,7.66,11.79,9.25,14,1.3,1.87,2.71,2.74,4.42,2.74a7.93,7.93,0,0,0,1.06-.09,4.84,4.84,0,0,1,.59,0,1.06,1.06,0,0,1,.27,0,56.77,56.77,0,0,0,8.3,1.27l18.29,26.22,0,0,0,0c.25.35,6.32,8.54,7.91,10.44s11.87,8,15,9.86l5.53,3.24-2.71-5.81-2.14-4.58-3.64-12,11.2,12.39,1.15,6.34.11.61.43.44,17.78,18.08.75,3.75-.88,5-.21,1.22,1,.73,2,1.52,4.19,11.68.09.23.14.21,5.34,7.85.45.67.81.16,5.72,1.15L527,209.4c2,2.16,8.34,8.95,9.63,9.91a2.22,2.22,0,0,0,1.36.47,2.17,2.17,0,0,0,1.61-.73c.67-.77.74-1.72.51-3.83a26.23,26.23,0,0,0,4.53,3l3.2,10.17.51,1.61,1.67-.23,9.1-1.23-1.64,16.62-.11,1.18,1,.66,20,13.73c.94.84,3.67,3.15,5.55,3.53a14.74,14.74,0,0,0,2.53.12c4.18,0,12.36-.38,12.7-.4h.15l.15,0,10.38-2.07.28,2.95-4.79,2.16-10.48,2.47-1.82.42.3,1.85,2.66,16.26-7.15,7.43c-.63.25-1.89.74-3.24,1.32a28.58,28.58,0,0,0-10.63-9.85,47.43,47.43,0,0,0-11.25-4.48c-1.69-3.17-3-5.88-3.28-6.6-.74-2.22-3-4.79-4.38-6.22l-9.18-14.68a3.48,3.48,0,0,0-.41-.56l-27.61-30.74a3.89,3.89,0,0,0-1.48-1l-.34-.8c-.38-15.3-35.83-36.21-47.84-42.85-5.45-13.4-14.24-20.42-25.32-29.28-4.77-3.81-10.19-8.14-15.92-13.5-9.88-9.23-16.78-13.53-21.71-13.53a7.94,7.94,0,0,0-1.56.15,22.05,22.05,0,0,0-15.06-13.26c-7.44-2.06-16.78-6.5-21.89-9.07l1.78-3,.16-.28.07-.31,1.48-6.66.16-.72-.35-.66-5.89-10.93-1.2-2.23L362,77.32l-1.82,1.62a18.67,18.67,0,0,0-4.27,5.23c-.37,0-1,0-1.9,0-5.31,0-18.42-.38-23.41-.53-1.5-5-3.19-10.58-3.61-11.84a95.42,95.42,0,0,0-4.67-9.42l-.84-1.54-.88-1.61-1.67.73-19.63,8.5c-8.19-.28-15.33-1.05-17.85-1.7-1.08-3.47-3.52-10.54-4.6-13.64l-.07-.19,0-.09,0-.09-.15-.32,0-.08,0-.08c-1.22-2.13-3.69-5.83-6.56-6.79l-8.06-2.69-.55-.19-.57.15-2.69.67L252.18,33.4l-.42-.73-.83-.2-7-1.75-1.2-.3-.81.94-4.53,5.3c-2,2.29-7.9,4.47-11.65,5.46l-.2,0c-.93-.11-2.56-.28-4.86-.51-1.06-.1-2.05-.16-3.05-.16-1.3,0-2.33.09-3.15.16l-.65.06c-2.4-2.86-11.67-9.19-15.74-11.91l-.29-.24-.56-.47h-1a7.93,7.93,0,0,1-2.84-2.75,2.29,2.29,0,0,1-.62-1.88,4.21,4.21,0,0,0-1.72-4.17,4,4,0,0,0-2.26-.73,7.93,7.93,0,0,0-3.49,1.15c-5.79,2.9-6.54,8.15-7.15,12.37a10.64,10.64,0,0,0-.11,1.57l-1.07.35-.47.16c-.08-.15-.17-.35-.29-.61-.53-1.2-.88-2.17-1.17-3-1.49-4.09-2.88-5.57-8.2-6.23-1.49-.19-2.65-.38-3.61-.53a20.94,20.94,0,0,0-3.44-.39,8.89,8.89,0,0,0-2.84.46c-.54.18-1.19.46-2,.81a31.81,31.81,0,0,1-9.7,2.77,62.35,62.35,0,0,1-6.29.26c-4.29,0-8.06-.26-8.1-.26l-.61,0-.63,0-.54.32-.52.32a23.55,23.55,0,0,0-6.14,5.4c-.9,1.2-3.88,2.19-5,2.19a34.35,34.35,0,0,0-5.64.68L91,40.47l-.78.12-.49.63-5.38,6.92-.54.69.15.86,1.18,7.08c-4.28-.39-8.8-.78-10.35-.78-1.21,0-4.67-.43-7.69-.86a18.41,18.41,0,0,0-7.47-8.73,22.32,22.32,0,0,0-11.75-3A43,43,0,0,0,35.35,45.5C27.07,48.05,19.77,51,13.88,53.41a109.14,109.14,0,0,1-11.72,4.3c1.28-6.61,4.34-7,4.32-7.05l.52,0,.44-.28,2.8-1.74,2-.66c1.34-.45,8.17-2.77,11-4.64,1.55-1,6.91-3.59,10.47-5.28,1.7-.81,3.16-1.51,4.17-2a55.23,55.23,0,0,0,8.22-5.46l.51-.41.53-.42.16-.66,1-4a16.23,16.23,0,0,1,1.13-3,12.58,12.58,0,0,0,1.5-5.42A35.15,35.15,0,0,1,54.45,10L65.54,7l.15,0,.14-.06,7-3.1,5.33,2.1A21,21,0,0,0,86,7.5a25.71,25.71,0,0,0,4-.35c.4-.06.86-.13,1-.13,1.51,0,8.37-2.47,14.3-4.71M105.83,0S92.65,5,91.08,5c-.87,0-2.61.48-5.06.48a19.13,19.13,0,0,1-7.17-1.42L72.73,1.66,65,5.1,53.18,8.26c-2.33,3.58-4.29,7.39-4.3,8.37a10.87,10.87,0,0,1-1.31,4.68,18.61,18.61,0,0,0-1.26,3.31l-1,4-.51.4a53,53,0,0,1-7.87,5.24c-1,.49-2.46,1.2-4.13,2-3.82,1.82-9.06,4.31-10.72,5.42-2.65,1.77-9.7,4.14-10.5,4.41l-2.21.74-3,1.87c-.15,0-4.71.3-6.26,9.07-.27,1.58,0,2,0,2a1.21,1.21,0,0,0,.75.18c2.35,0,8.86-2.65,13.78-4.65,5.83-2.38,13.08-5.33,21.27-7.85a40.87,40.87,0,0,1,11.93-2,20.32,20.32,0,0,1,10.71,2.72,16.49,16.49,0,0,1,7.05,8.83c2.75.41,7.5,1.05,9.15,1.05,1.89,0,8.92.65,12.75,1l-1.61-9.65,5.38-6.91,20.83-3.26a35.05,35.05,0,0,1,5.31-.65c1.54,0,5.23-1.14,6.62-3a22,22,0,0,1,5.57-4.89l.52-.31.61,0c.05,0,3.9.27,8.24.27,2.18,0,4.47-.06,6.49-.27a33.24,33.24,0,0,0,10.29-2.93c.75-.32,1.37-.58,1.84-.74a6.66,6.66,0,0,1,2.2-.36,19.74,19.74,0,0,1,3.15.37c.94.15,2.12.34,3.65.53,4.51.57,5.32,1.5,6.57,4.93.29.81.66,1.82,1.23,3.1.64,1.45,1,2,1.62,2a5.59,5.59,0,0,0,1.61-.43,15.06,15.06,0,0,1,2.59-.7,7.83,7.83,0,0,1-.08-2.83c.59-4.14,1.21-8.43,6.07-10.86a6.52,6.52,0,0,1,2.59-.94,1.87,1.87,0,0,1,1.12.38,2.31,2.31,0,0,1,.87,2.32,4.15,4.15,0,0,0,1,3.24C194.17,30.77,196,31,196,31h.58l.38.32c2.25,1.49,13.55,9.1,15.53,11.74.33.44.44.58,1,.58.28,0,.66,0,1.23-.08.8-.07,1.76-.16,3-.16a28,28,0,0,1,2.85.15c2.63.26,4.06.42,4.83.51l.55.07C229,43.38,236.31,41,239,38l4.53-5.3,7,1.75L257,45.78l4.16-1,8.06,2.68c2.39.8,4.78,4.72,5.45,5.89l.15.32c.17.49,4,11.4,4.94,14.74,2.11,1,11.63,1.89,19.85,2.16l20-8.69.84,1.55c.4.72,3.87,7.11,4.53,9.09.51,1.54,3,9.87,4,13.16,4.57.14,19.18.58,24.91.58,2.51,0,3-.19,3.17-.27a5.32,5.32,0,0,0,.41-.68,16.47,16.47,0,0,1,3.92-4.83l1.82-1.62,5.89,10.93L367.7,96.4l-2.88,4.8c4.29,2.21,15.46,7.77,24.17,10.19a20,20,0,0,1,14.39,14,4.23,4.23,0,0,1,1.4-.66,5.42,5.42,0,0,1,1.37-.16c4.33,0,11,4.27,20.34,13,5.8,5.42,11.24,9.77,16,13.61,11,8.79,19.74,15.77,25,29.11,7.2,3.95,47.76,26.91,47.44,41.86l.9,2.11a1.93,1.93,0,0,1,1.43.64l27.61,30.75a2.56,2.56,0,0,1,.2.26l9.3,14.88c.82.84,3.39,3.57,4.07,5.61.37,1.14,2.4,5,3.83,7.7a45,45,0,0,1,11.6,4.49,25.72,25.72,0,0,1,10.76,10.68c2.39-1.1,5.23-2.18,5.23-2.18l8.16-8.47-2.82-17.26,10.66-2.51,6.28-2.82-.63-6.59L599,261.94s-8.43.4-12.61.4a16.22,16.22,0,0,1-2.13-.08c-1.57-.32-4.71-3.14-4.71-3.14l-20.08-13.8,1.89-19.14-11.61,1.57-3.45-11a22.27,22.27,0,0,1-6.28-4.39c-2.19-2.51-1.25-2.2-2.19-2.51h0c-.78,0,1.08,7.92.21,7.92a.25.25,0,0,1-.16-.07c-1.26-.94-9.41-9.72-9.41-9.72l-17.26-16-6.27-1.26-5.33-7.84-4.4-12.24-2.51-1.88.95-5.33-.95-4.71-18.19-18.5-1.26-6.91-17.56-19.45,6.27,20.71,2.2,4.7s-12.86-7.52-14.43-9.41-7.85-10.35-7.85-10.35L423,92.54s-6.9-.62-8.78-1.25a2.67,2.67,0,0,0-.9-.14c-.57,0-1.1.14-1.65.14-.82,0-1.69-.32-2.78-1.88-2.2-3.14-8.16-11.93-9.1-13.81a27.51,27.51,0,0,1-1.57-4.08l-19.45,1s-12.23-9.73-13.49-10-11-3.45-12.55-3.77-7.53-1.25-7.53-1.25l-13.49-9.73s-9.41-.31-11.92-.94-6-.94-9.72-4.39-5.65-6.59-9.41-7.22a111.09,111.09,0,0,1-11.92-2.82c-1.89-.63-4.39-1.88-5-3.14S274,22.59,274,22.59s4.71-.32-4.08-2.2a27.39,27.39,0,0,0-5.6-.84c-.46,0-.81,0-1.25,0a29.34,29.34,0,0,1-6.32-1.07c-9.41-2.2-11.29-2.82-14.74-3.45s-9.42-2.2-9.42-2.2-5.64,2.51-7.84,3.77c-1.71,1-3.05,1.76-4,1.76a1.21,1.21,0,0,1-.71-.2c-1-.62-8.16-5.64-9.1-5.64s-5-.32-11.3-.32a83.09,83.09,0,0,1-8.78-.31s-9.72-1.57-10.66-2.82,2.5-3.14-2.83-3.45c-.46,0-.9,0-1.33,0-4.61,0-7.94,1.48-13.1,3.49a80.16,80.16,0,0,1-12.86,3.45s.15-.05,0-.05a40.8,40.8,0,0,0-4.09.68c-5,.94-7.21,1.56-9.72,1.88-.36,0-1,.06-1.73.06-4.61,0-15.21-.69-15.21-.69s0-3.14-4.39-6.59S105.83,0,105.83,0Z"/></g></g></svg>