<svg width="37" height="76" viewBox="0 0 37 76" fill="none" xmlns="http://www.w3.org/2000/svg">
<g clip-path="url(#clip0_262_1021)">
<path d="M36.637 0.370972H0.362955V37.1175H36.637V0.370972Z" fill="white"/>
<path d="M17.7287 38.8407H0.207874V56.5897H17.7287V38.8407Z" fill="white"/>
<path d="M36.7014 38.8407H19.1805V56.5897H36.7014V38.8407Z" fill="white"/>
<path d="M17.7287 58.2192H0.207874V75.9683H17.7287V58.2192Z" fill="white"/>
<path d="M36.7014 58.2192H19.1805V75.9683H36.7014V58.2192Z" fill="white"/>
<path d="M22.4851 13.4923L22.462 13.5525C22.0083 14.0321 21.5101 14.5268 21.0745 15.0165C21.1047 15.0773 21.1517 15.1278 21.2098 15.1619C21.2279 15.0416 21.2923 14.9363 21.3022 14.8126C21.421 14.6455 21.5991 14.7525 21.7526 14.7876C21.9885 14.7324 22.2096 14.8427 22.4521 14.8377C22.6303 14.9263 22.6451 15.1569 22.8068 15.2472C22.8249 15.2791 22.8298 15.317 22.8206 15.3527C22.8113 15.3883 22.7886 15.4189 22.7573 15.4377C22.8068 15.8121 22.985 15.3357 23.1731 15.4277C23.2506 15.4561 23.3496 15.446 23.409 15.5313C23.4387 15.6867 23.6267 15.6566 23.6366 15.807C23.6218 15.8806 23.5426 15.9006 23.4931 15.9407C23.5377 16.0912 23.3397 16.1864 23.409 16.3452C23.6944 16.4003 23.7043 16.0661 23.8379 15.9157C23.7831 15.6521 23.6902 15.3981 23.5624 15.1619C23.3974 15.1268 23.3001 14.9313 23.1384 14.8962C22.8216 14.7725 23.1862 14.572 23.1384 14.3814C22.9489 14.0648 22.7301 13.7671 22.4851 13.4923Z" fill="#0968B1"/>
<path d="M24.3329 18.8053C24.1474 19.4842 23.8555 20.1286 23.4684 20.7139C23.3034 20.9228 23.1384 21.2152 22.9338 21.3222L23.3842 21.7233C23.409 21.6982 23.3941 21.6581 23.3991 21.623C23.404 21.5879 23.4288 21.4927 23.503 21.5027C23.7191 21.5027 23.7241 21.7333 23.8478 21.852C23.8231 22.0425 23.9864 22.1863 23.932 22.3668C25.1743 21.0297 25.7962 19.4086 25.9117 17.6053L25.9794 17.5251C25.5372 17.5702 25.0687 17.5401 24.6084 17.5451L24.5011 17.51C24.5308 17.8159 24.45 18.11 24.4318 18.4108L24.5968 18.5897C24.6184 18.6263 24.6266 18.6695 24.62 18.7116C24.6133 18.7538 24.5923 18.7923 24.5605 18.8203C24.5258 18.8424 24.4852 18.8528 24.4443 18.8501C24.4034 18.8474 24.3644 18.8317 24.3329 18.8053Z" fill="#0968B1"/>
<path d="M22.6055 23.5568L22.6732 23.4615C22.9863 23.2389 23.2804 22.9901 23.5525 22.7178H23.5872C23.5278 22.6977 23.4535 22.7579 23.3842 22.7261C23.2456 22.6626 23.2192 22.5373 23.2192 22.3919L22.6121 21.7585L22.5791 21.6632C22.5267 21.7735 22.4506 21.8706 22.3564 21.9473C22.3564 22.0275 22.3317 22.1479 22.4257 22.203C22.622 22.2682 22.8794 22.3969 22.9206 22.6326C22.8414 22.8515 22.4257 23.052 22.6831 23.2927C22.7722 23.4114 22.5709 23.4598 22.6055 23.5568Z" fill="#0968B1"/>
<path d="M19.0634 20.9178C19.1921 20.9429 19.1014 21.085 19.1954 21.1334C19.3983 21.0682 19.5517 21.3006 19.7134 21.1585C19.7134 20.9228 19.9658 20.9429 20.1077 20.8827C20.3304 20.749 20.5829 20.5685 20.5565 20.2677L20.5235 20.2242C20.37 20.2242 20.2909 20.3429 20.1787 20.4382C20.0401 20.5184 19.9708 20.2894 19.8487 20.3429C19.8487 20.368 19.8784 20.378 19.8982 20.388C19.915 20.4084 19.9242 20.4342 19.9242 20.4607C19.9242 20.4873 19.915 20.513 19.8982 20.5334C19.7332 20.6889 19.6524 20.4582 19.494 20.4733V20.5334C19.494 20.5685 19.4841 20.6237 19.4346 20.6036C19.3356 20.4365 19.1343 20.4983 19.0354 20.3529C18.971 20.3195 18.9116 20.363 18.8704 20.4031C18.8374 20.4783 18.679 20.393 18.7169 20.5234C18.5949 20.5685 18.58 20.7022 18.4909 20.7841C18.3391 20.7591 18.2699 20.9329 18.1247 20.9279C18.1412 20.9579 18.1247 21.0081 18.1709 21.0131C18.2605 21.0531 18.3598 21.0654 18.4563 21.0482C18.6097 20.8092 18.8555 21.0081 19.0634 20.9178Z" fill="#0968B1"/>
<path d="M18.1709 25.3551L18.2204 25.2799L18.0669 25.32C16.1433 25.1863 14.4374 24.4961 13.035 23.1206L13.0202 23.1824L12.0039 24.217C13.5432 25.5657 15.2804 26.4348 17.2635 26.7089C17.5786 26.764 17.9382 26.7339 18.2435 26.8292L18.1709 26.7089V25.3551Z" fill="#0968B1"/>
<path d="M19.0783 15.446C19.1921 15.5112 19.2548 15.3925 19.3488 15.3675C19.4808 15.4019 19.5971 15.4809 19.6788 15.5914C19.7662 15.6315 19.8438 15.5764 19.9295 15.5463C19.984 15.1318 20.4971 15.192 20.6505 14.8026L20.5548 14.8377C20.5169 14.7825 20.4179 14.8076 20.4228 14.7173C20.506 14.6196 20.6061 14.538 20.7182 14.4767C20.2857 14.1879 19.8115 13.9691 19.3125 13.8282C19.1128 13.801 18.9149 13.7608 18.7202 13.7079C18.8143 13.992 18.7301 14.4132 18.7912 14.7424L19.1459 14.8627C19.2498 14.6956 19.4759 14.6522 19.5732 14.4867C19.6392 14.4316 19.7118 14.4867 19.7613 14.5469C19.7685 14.6826 19.7489 14.8184 19.7035 14.9463C19.5715 15.2171 19.2548 15.2522 19.0783 15.446Z" fill="#0968B1"/>
<path d="M22.2492 20.4983C22.269 20.6655 22.0726 20.739 22.0974 20.9045C22.0602 20.9367 22.0168 20.9609 21.97 20.9752C21.9231 20.9896 21.8738 20.994 21.8252 20.988C21.429 20.8367 21.0144 20.7405 20.5928 20.7022C20.5734 20.709 20.5569 20.7223 20.546 20.74C20.5352 20.7576 20.5307 20.7786 20.5334 20.7992C20.7116 20.8928 20.9277 20.8978 21.1158 20.978C21.2807 21.0231 21.3962 21.2337 21.6107 21.1685C21.7872 21.0682 22.0842 21.227 22.2013 21.0382C22.1815 20.8543 22.3399 20.7173 22.4191 20.5585L22.4785 20.5435C22.5775 20.6488 22.5725 20.8042 22.6154 20.9178C22.754 20.7691 22.8629 20.6036 22.9866 20.4482C23.3225 19.9853 23.5668 19.4609 23.7059 18.9039C23.5736 18.9095 23.4427 18.9331 23.3166 18.9741C23.1747 18.9641 23.0015 19.0493 22.8777 18.9491C22.8332 18.9089 22.8035 18.9691 22.8084 19.0092C22.759 19.0844 22.7095 19.1764 22.5973 19.1446C22.4851 19.1128 22.5065 19.0092 22.4785 18.939C22.4779 18.9918 22.4696 19.0442 22.4537 19.0945C22.3707 19.1974 22.2993 19.3096 22.2409 19.4287C22.137 19.544 21.9703 19.5039 21.8615 19.5958C21.8417 19.8348 21.581 19.7847 21.4325 19.8616C21.4226 19.89 21.4573 19.895 21.4721 19.9201C21.508 19.9348 21.5474 19.938 21.5852 19.9294C21.6229 19.9207 21.6572 19.9005 21.6833 19.8716C21.8912 19.9251 21.8483 19.661 21.9654 19.5708C22.0693 19.5557 22.1683 19.4655 22.2756 19.5357C22.3762 19.6816 22.4181 19.8609 22.3927 20.0371C22.2739 20.1641 22.3333 20.3596 22.2492 20.4983Z" fill="#0968B1"/>
<path d="M19.9658 19.9835C20.0846 19.8582 20.3354 19.8649 20.3453 19.6844C20.1803 19.6593 20.0846 19.7546 19.9658 19.8515C19.951 19.8883 19.8965 19.9584 19.9658 19.9835Z" fill="#0968B1"/>
<path d="M18.7483 24.8152C19.1112 24.6915 19.5352 24.7116 19.9312 24.6481C19.8472 24.628 19.7713 24.5825 19.7134 24.5177C19.4825 24.5027 19.3736 24.2586 19.2993 24.0731C19.2647 23.9378 19.3538 23.8291 19.4082 23.7138C19.3109 23.5082 19.004 23.6587 18.8258 23.5835C18.7763 23.5433 18.7417 23.4832 18.674 23.4731L18.7483 23.5835C18.7721 23.9937 18.7721 24.405 18.7483 24.8152Z" fill="#0968B1"/>
<path d="M23.9666 23.017C23.828 23.2927 23.5228 23.4665 23.2902 23.6855C22.9701 24.0097 22.4471 24.0799 22.2838 24.5495C22.1188 24.7083 22.0528 24.959 21.8103 25.0509C21.7229 25.2899 21.4705 25.2749 21.3269 25.4504C20.9128 25.8247 20.6472 25.2114 20.2727 25.1362L19.5171 25.2699C19.2548 25.2699 18.9941 25.3651 18.7483 25.2799C18.7813 25.8025 18.7813 26.3266 18.7483 26.8492L18.8423 26.7891C21.2197 26.6854 23.2704 25.7712 25.0324 24.1518L23.9913 23.149L23.9666 23.017Z" fill="#0968B1"/>
<path d="M23.1038 17.475L23.2572 17.6304C23.409 17.7357 23.305 17.9647 23.4684 18.0499C23.6597 18.1502 23.729 18.3741 23.8132 18.5513C23.8347 18.5052 23.8497 18.4562 23.8577 18.4059C23.927 18.1318 23.9171 17.8226 24.0012 17.5519C23.7043 17.5602 23.3644 17.5903 23.1038 17.475Z" fill="#0968B1"/>
<path d="M20.2958 12.0684C19.7775 11.9077 19.2457 11.7958 18.707 11.7341L18.7565 11.8444V13.1982L18.8836 13.1731C19.6922 13.2612 20.46 13.578 21.0993 14.0873L21.1322 14.1926C21.355 13.8767 21.6899 13.6076 21.9571 13.3085L22.2046 13.1631L22.0858 13.1129C21.556 12.6586 20.9496 12.3047 20.2958 12.0684Z" fill="#0968B1"/>
<path d="M17.963 20.7991C17.9976 20.6637 17.9432 20.4933 18.0125 20.3779C18.0818 20.2626 18.1956 20.2743 18.2929 20.2944C18.3072 20.2929 18.3207 20.2876 18.3323 20.2792C18.344 20.2708 18.3532 20.2594 18.3592 20.2463C18.3652 20.2332 18.3677 20.2187 18.3665 20.2042C18.3653 20.1898 18.3604 20.176 18.3523 20.164C18.2088 20.1339 18.2748 19.9735 18.2253 19.8832C18.2253 19.8331 18.3127 19.8431 18.2929 19.778C18.1956 19.6994 18.3441 19.6108 18.2583 19.5239C18.283 19.5072 18.3012 19.4788 18.3259 19.4604C18.0273 19.5874 17.7089 19.4036 17.445 19.2933C17.3163 19.2181 17.1298 19.1429 17.1001 18.9824C16.8873 19.3334 16.4831 19.6509 16.1862 19.9852C16.6979 20.4094 17.3106 20.6901 17.963 20.7991Z" fill="#0968B1"/>
<path d="M11.1213 17.6454L11.2302 18.5646C11.2747 18.919 11.4281 19.2599 11.4166 19.6092C11.4727 19.534 11.4364 19.3853 11.57 19.3685C11.5156 19.2599 11.674 19.1646 11.5849 19.0694C11.6294 18.8304 11.6591 18.5847 11.867 18.4109C12.1178 18.3992 12.1376 18.0649 12.3883 18.0499C12.517 18.0499 12.5962 18.217 12.6506 18.2789C12.4857 18.085 12.5022 17.7658 12.5418 17.5452L12.4329 17.5953C11.9756 17.6115 11.5178 17.5998 11.0619 17.5602L11.1213 17.6454Z" fill="#0968B1"/>
<path d="M16.7949 18.6398L16.63 18.5546C16.5926 18.6798 16.5225 18.7924 16.427 18.8805L16.4419 18.8905C16.5574 18.8053 16.6415 18.6498 16.7949 18.6398Z" fill="#0968B1"/>
<path d="M12.7265 22.7629C12.5578 22.6229 12.4051 22.4643 12.2712 22.2899C12.1832 22.2655 12.101 22.2234 12.0295 22.1659C11.9581 22.1085 11.8988 22.0369 11.8554 21.9556C11.8076 21.9005 11.8554 21.8019 11.7977 21.7601L11.7383 21.8353C11.5651 21.9205 11.5007 21.7417 11.3836 21.6682C11.2302 21.5829 11.3044 21.2871 11.0965 21.3423C11.0173 21.3423 10.9926 21.2487 10.9431 21.1986C10.7517 21.2186 10.7022 21.003 10.5983 20.8994C10.5785 20.9428 10.5983 21.003 10.5389 21.0331C10.3426 21.0782 10.2733 20.8325 10.1397 20.7339C10.105 20.749 10.0803 20.7874 10.0308 20.7791C9.97071 20.7264 9.92189 20.6619 9.88728 20.5895C9.85267 20.5171 9.83301 20.4383 9.82949 20.3579C9.66451 20.1741 9.7404 19.8782 9.7701 19.6543C9.79979 19.5941 9.88393 19.559 9.86908 19.4872C9.91363 19.3835 10.0209 19.3735 10.1248 19.3668C10.1656 19.389 10.1998 19.4219 10.2238 19.4621C10.2881 19.422 10.4317 19.4621 10.3772 19.3234C10.4713 19.2549 10.5819 19.2133 10.6973 19.203C10.7621 19.3127 10.8367 19.4162 10.92 19.5122L10.8507 19.4036C10.7229 18.9057 10.6433 18.3963 10.6131 17.8827C10.6131 17.8526 10.5488 17.8393 10.5884 17.8092L10.5983 17.8242C10.5948 17.7304 10.5998 17.6364 10.6131 17.5435L10.4795 17.5936L9.10853 17.5836C9.1791 19.1203 9.59255 20.6208 10.3178 21.9724C10.6676 22.6409 11.1807 23.2275 11.6294 23.8409L12.6193 22.813L12.7265 22.7629Z" fill="#0968B1"/>
<path d="M18.057 23.4113C16.8986 23.3455 15.7875 22.924 14.8713 22.203C14.901 22.3217 15.0577 22.3969 15.0132 22.5473C14.965 22.603 14.9032 22.6448 14.8339 22.6686C14.7647 22.6923 14.6905 22.6972 14.6189 22.6827C14.3367 22.6375 14.1239 22.8498 13.8632 22.8815C13.6224 22.9568 13.5333 22.6576 13.3172 22.6827C14.6881 23.896 16.2571 24.6564 18.0917 24.7551L18.2303 24.8503L18.1709 24.6832V23.3629L18.057 23.4113Z" fill="#0968B1"/>
<path d="M14.3087 11.0923C14.0018 11.3079 13.7214 11.5937 13.4062 11.7775C13.7709 12.0115 14.0662 12.4026 14.3961 12.7118L14.4308 12.807C15.2563 12.0226 16.2872 11.4953 17.4004 11.2878C17.6611 11.2628 17.9217 11.1725 18.1791 11.2277C18.1407 10.7489 18.1368 10.268 18.1676 9.7887C16.7881 9.85941 15.4539 10.3101 14.3087 11.0923Z" fill="#0968B1"/>
<path d="M15.6797 18.4108C15.6302 18.3841 15.6252 18.3908 15.5856 18.4342C15.5605 18.4388 15.5345 18.4353 15.5114 18.4242C15.5114 18.1401 15.1963 18.3106 15.0775 18.1602C15.2161 18.4192 15.2903 18.715 15.4322 18.9741C15.5213 19.2047 15.7176 19.3852 15.8084 19.6092C15.9305 19.4328 16.0692 19.2688 16.2225 19.1195C16.2331 19.0509 16.2171 18.9809 16.1779 18.9239C16.1334 18.8203 16.1779 18.6699 16.0938 18.5796C15.9651 18.6248 16.1383 18.7468 16.0839 18.8303C16.0725 18.8371 16.0596 18.8409 16.0464 18.8413C16.0333 18.8418 16.0202 18.8389 16.0084 18.8329C15.9966 18.8269 15.9864 18.8181 15.9789 18.8071C15.9713 18.7962 15.9666 18.7835 15.9651 18.7702C15.9099 18.7563 15.8592 18.7283 15.8179 18.6888C15.7765 18.6492 15.746 18.5996 15.7292 18.5446C15.8216 18.4844 15.7044 18.4593 15.6797 18.4108Z" fill="#0968B1"/>
<path d="M13.134 16.3101C13.0796 16.5507 13.1093 16.8315 13.0153 17.0555C13.2155 16.9943 13.4278 16.9856 13.6323 17.0304C13.5184 16.9702 13.6125 16.8248 13.5481 16.7463C13.5333 16.6209 13.5135 16.4655 13.6323 16.3853C13.6174 16.1814 13.8335 16.0761 13.855 15.8839C13.9078 15.675 14.1454 15.8154 14.2592 15.7051C14.3334 15.6649 14.2691 15.5948 14.2691 15.5379C14.3664 15.4042 14.5199 15.4076 14.6387 15.334C14.7205 15.1929 14.8334 15.0728 14.9686 14.9831C15.2656 14.9931 15.2705 14.5736 15.551 14.5636C15.1664 14.2441 14.8021 13.9002 14.4605 13.5341C13.7836 14.3242 13.3259 15.2821 13.134 16.3101Z" fill="#0968B1"/>
<path d="M13.04 12.1987L12.5071 12.8839C11.6344 14.0972 11.2203 15.5011 11.0965 17.0303L12.4477 17.0053L12.5764 17.0554C12.522 17.0203 12.5368 16.9601 12.517 16.9117C12.5952 15.5132 13.1517 14.186 14.0909 13.158C13.7207 12.833 13.3749 12.4805 13.0565 12.1034L13.04 12.1987Z" fill="#0968B1"/>
<path d="M13.3221 18.3407C13.337 18.2505 13.2033 18.2254 13.2182 18.1352C13.3122 17.9497 13.2182 17.6505 13.4656 17.5703C13.3007 17.6004 13.1357 17.6355 12.9905 17.5251L13.0647 17.6455C13.0746 17.9797 13.2033 18.2906 13.134 18.6249C13.1885 18.5296 13.2033 18.3992 13.3221 18.3407Z" fill="#0968B1"/>
<path d="M13.8335 17.5703L13.7956 17.836C13.7346 17.9898 13.5432 17.8744 13.4541 17.9797C13.3898 18.08 13.4541 18.1853 13.5135 18.2638C13.3749 18.5847 13.8236 18.685 13.8203 18.9741C13.9573 19.1546 13.8006 19.4137 13.9969 19.5741C14.0414 19.8984 13.954 20.3396 14.2344 20.5936L14.2839 20.9045C14.3417 21.1184 14.0315 21.0716 14.0711 21.2538C14.1305 21.2237 14.1454 21.3022 14.1503 21.3223V21.3139C14.5422 20.8475 14.9662 20.4096 15.419 20.0037L15.2309 19.8131C14.8722 19.2963 14.614 18.7149 14.4704 18.1001L14.3268 18.0248C14.2964 18.1717 14.2738 18.3201 14.2592 18.4694L14.2097 18.5296C14.1058 18.5296 14.0447 18.4393 13.954 18.3842C13.9342 18.3307 13.8781 18.2404 13.954 18.1953C13.9966 18.191 14.0392 18.2035 14.0728 18.2304C14.1173 18.1753 14.0975 18.095 14.1223 18.0248C14.1371 17.9045 14.0332 17.7959 14.1074 17.6906C14.2015 17.6806 14.2724 17.7959 14.3103 17.8577C14.4027 17.8878 14.4753 17.8093 14.5562 17.7742C14.5562 17.6889 14.6749 17.5736 14.5463 17.5235C14.593 17.3323 14.5913 17.1322 14.5413 16.9419C14.4869 16.7747 14.3054 16.8082 14.1718 16.8215C13.7725 16.9519 14.2361 17.2577 14.1371 17.5067C14.086 17.6455 13.9375 17.5101 13.8335 17.5703Z" fill="#0968B1"/>
<path d="M17.209 21.5428C17.311 21.4325 17.4378 21.3488 17.5786 21.2988C17.1414 21.3874 16.7537 21.0682 16.3792 20.8927C16.1664 20.7256 15.8842 20.6036 15.7622 20.3629C15.4692 20.7344 15.141 21.0759 14.7822 21.3824C14.934 21.3924 15.0181 21.5629 15.1468 21.6381C15.8859 22.2632 16.8081 22.5623 17.6677 22.7779L17.4301 22.6676C17.2519 22.462 17.0012 22.2231 16.9913 21.9373C17.1694 21.8771 17.148 21.6782 17.209 21.5428Z" fill="#0968B1"/>
<path d="M24.12 11.7441C24.2223 11.7692 24.252 11.8945 24.3213 11.9697C24.6826 12.1636 24.775 12.553 25.0918 12.7736C25.2683 13.148 25.6774 13.4421 25.6923 13.8667C26.1476 14.8389 26.4024 15.8949 26.4413 16.9702L26.4034 17.0304C26.4462 17.0286 26.4873 17.0128 26.5205 16.9853L27.941 16.9602C27.8469 16.8198 27.8882 16.6159 27.8634 16.4454C27.6753 14.2226 26.7383 12.319 25.2683 10.6394C24.9611 11.0169 24.6304 11.3741 24.2784 11.709L24.12 11.7441Z" fill="#0968B1"/>
<path d="M10.6247 17.0454L10.5818 16.8516C10.6647 15.3098 11.1797 13.8239 12.0666 12.5681C12.2877 12.314 12.4494 11.9931 12.7265 11.8043C12.3966 11.4984 12.0666 11.1358 11.7367 10.8015L11.702 10.6661C10.298 12.2622 9.42694 14.0672 9.17782 16.1312C9.12338 16.4304 9.15803 16.7413 9.09863 17.0454C9.60655 17.0053 10.1168 17.0053 10.6247 17.0454Z" fill="#0968B1"/>
<path d="M13.1093 11.4266L13.134 11.3581C14.5036 10.0522 16.2917 9.28975 18.1709 9.2105L18.1247 9.09017L18.1098 7.89185L18.1511 7.75146C16.2355 7.83488 14.3886 8.49793 12.8486 9.65506C12.5467 9.86564 12.2811 10.1849 11.9759 10.3654H12.0188C12.413 10.6852 12.778 11.0404 13.1093 11.4266Z" fill="#0968B1"/>
<path d="M18.1709 13.748C17.3773 13.8533 16.6465 14.1274 16.0641 14.7508H16.173C16.2901 14.8712 16.4831 14.8444 16.5722 15.0049C16.6168 15.0951 16.4881 15.0851 16.493 15.1603C16.5178 15.1803 16.5524 15.1854 16.5722 15.2204C16.6662 15.2555 16.6464 15.1653 16.6794 15.1252C16.8032 14.9998 16.8246 15.2455 16.9418 15.2455C16.9611 15.2298 16.9833 15.2183 17.0071 15.2116C17.0309 15.2048 17.0558 15.203 17.0803 15.2063C17.1048 15.2096 17.1284 15.2179 17.1497 15.2306C17.171 15.2434 17.1895 15.2604 17.2041 15.2806C17.2816 15.2104 17.4499 15.2806 17.4746 15.1452C17.6281 14.9781 17.5439 14.7257 17.7716 14.6205C17.8492 14.6656 17.7716 14.7408 17.7964 14.811C17.9481 14.8762 18.1263 14.6806 18.2435 14.8361C18.1362 14.5118 18.1709 14.1007 18.1709 13.748Z" fill="#0968B1"/>
<path d="M0 0V37.4886H37.0016V0H0ZM31.7454 19.5239C31.2274 20.2677 30.6004 20.9629 30.122 21.7234C30.1764 21.1234 30.2457 20.3863 30.0131 19.8131C29.6139 18.5897 29.2641 17.3463 29.1503 16.0009L29.1651 15.4861C29.467 16.8599 30.7984 17.8059 30.7143 19.3451C30.744 19.7178 30.6301 20.0337 30.5608 20.3629L30.5856 20.388L30.645 20.3195C30.843 19.5641 30.9419 18.7702 31.2472 18.0649C31.686 17.0504 32.237 16.0259 32.0077 14.8026C32.6726 16.2466 32.4697 18.1752 31.7454 19.5239ZM30.9205 11.7441C31.7949 12.9424 31.9863 14.8527 31.3494 16.2265C31.1113 16.8201 30.9451 17.4408 30.8545 18.0749C30.8116 17.9646 30.8017 17.8159 30.7621 17.6905C30.4157 16.3535 29.1585 15.3875 28.6405 14.1173C28.4717 13.7001 28.3446 13.2667 28.261 12.8238C28.8137 13.8583 30.1748 14.3931 30.5443 15.5312C30.6978 15.8221 30.6879 16.1814 30.7819 16.4906C30.7917 16.491 30.8013 16.4876 30.8087 16.4811C30.8161 16.4746 30.8207 16.4654 30.8215 16.4555C30.6789 15.2708 30.6967 14.072 30.8743 12.8923C30.8644 12.2639 30.8067 11.6539 30.4602 11.1692C30.6747 11.2996 30.7737 11.5486 30.9254 11.7441H30.9205ZM30.3051 11.5135C30.5377 12.563 30.2012 13.5875 30.4124 14.6471L30.4025 14.6572C29.8399 13.5324 28.6421 13.0026 27.8189 12.1034C27.3404 11.5686 27.1326 10.9202 27.0154 10.2299C27.4889 11.3848 28.7609 11.6388 29.4901 12.6082C29.7376 12.8338 29.8201 13.143 29.9752 13.397L29.9983 13.3736C29.5792 12.4628 29.4373 11.4399 29.1453 10.4689C28.99 10.0248 28.7016 9.6409 28.3204 9.37089C29.2789 9.56978 30.1121 10.5909 30.3101 11.5135H30.3051ZM27.7397 9.10516C28.4639 9.7603 28.7906 10.6093 29.0018 11.4884L29.1206 11.7692C28.058 10.9898 27.151 10.0132 26.4479 8.89124L25.623 8.05559C26.3539 8.36144 27.1276 8.54528 27.7397 9.10516ZM14.0216 8.29124C15.4195 7.59601 16.9535 7.22708 18.5107 7.21159C20.3715 7.22256 22.1917 7.76338 23.7635 8.7723C25.3353 9.78123 26.5954 11.2176 27.3998 12.9174C28.426 14.9229 28.7197 17.6805 28.0499 19.9368C27.3751 22.6108 25.1545 25.3133 22.5709 26.413C19.6557 27.8637 15.5312 27.5043 12.9311 25.6191C9.3263 23.1122 7.85138 18.8053 8.9419 14.5469C9.60182 12.0182 11.5898 9.46449 14.0216 8.29124ZM11.1708 8.19097C10.4449 8.83608 9.94333 9.65 9.40384 10.4104C8.9221 11.0138 8.30508 11.4132 7.75405 11.9346C8.05101 11.3146 8.05926 10.5742 8.47996 10.0043C9.07883 8.9514 10.1842 8.58539 11.1708 8.19097ZM7.21126 10.4338C7.539 10.0031 7.99666 9.69267 8.5146 9.54972C7.53132 10.2299 7.59402 11.45 7.2822 12.4628C7.18322 12.8388 7.01164 13.1831 6.92585 13.5675L6.95224 13.5875C7.13285 13.1343 7.40675 12.7252 7.7557 12.3876C8.45191 11.7391 9.47808 11.3347 9.81794 10.382C9.80309 11.719 8.70268 12.7653 7.65176 13.514C7.20755 13.8782 6.83769 14.3267 6.56289 14.8343C6.53815 14.5001 6.61239 14.1658 6.58599 13.7998C6.47545 12.6282 6.39131 11.2996 7.20466 10.4338H7.21126ZM5.23151 14.4165C5.20181 13.2466 5.68685 12.2739 6.36657 11.3948C6.38636 11.3848 6.40121 11.3647 6.42596 11.3681C5.67695 12.5229 6.29728 13.977 6.26098 15.2923L6.16199 16.6293C6.17684 16.6393 6.17684 16.6794 6.21149 16.6644C6.25603 16.514 6.26593 16.3535 6.29563 16.1998C6.4705 15.1218 7.39769 14.353 8.21104 13.5992C8.38535 13.4181 8.52567 13.2063 8.62514 12.9742C8.55232 13.5222 8.39942 14.0562 8.17144 14.5586C7.53957 15.8087 6.37152 16.8315 6.15869 18.2605C6.05476 16.895 5.13747 15.8705 5.22656 14.4165H5.23151ZM4.66563 16.0878C4.72915 15.7172 4.83204 15.3547 4.97249 15.0065C4.67223 16.5658 5.7083 17.6905 6.04816 19.0443C6.19004 19.5457 6.22468 20.0939 6.42761 20.5685C6.44741 20.5785 6.46226 20.5585 6.4771 20.5434C5.96897 19.1045 6.69818 17.7708 7.43399 16.646C7.60293 16.3309 7.72733 15.9934 7.80354 15.6432C7.88273 16.2934 7.7194 17.0421 7.62536 17.7173C7.44718 18.5763 7.18157 19.3886 6.9506 20.2242C6.79716 20.744 6.83676 21.3323 6.91595 21.8771L6.84171 21.8169C6.30387 20.8142 5.23811 20.0287 4.92299 18.929C4.65573 18.0649 4.47755 17.0504 4.66068 16.0961L4.66563 16.0878ZM4.61613 19.1362C4.73492 20.7908 6.4903 21.6649 7.30365 23.0336C7.47748 23.3313 7.68451 23.6078 7.92068 23.8576C7.88108 23.6821 7.71775 23.5334 7.65836 23.3562C7.37139 22.7487 7.26041 22.0713 7.3383 21.4025C7.41749 20.5668 7.76724 19.773 7.63361 18.8855C8.34962 20.4482 8.12855 22.3952 8.53275 24.0916C8.63504 24.4609 8.84786 24.7902 8.98645 25.1445C7.51648 24.1317 5.52187 23.1673 4.86195 21.3005C4.58149 20.6738 4.55014 19.8799 4.61118 19.1446L4.61613 19.1362ZM5.49382 22.9334C6.31872 24.8119 8.36282 24.9673 9.7404 26.1088C9.98131 26.3309 10.2518 26.5177 10.5439 26.6637L10.5587 26.6486C10.2129 26.359 9.90907 26.0214 9.65626 25.6459C8.85281 24.5127 9.13328 22.9233 8.53275 21.705C9.08497 22.34 9.54799 23.0492 9.90868 23.8125C10.4036 25.0425 10.5884 26.4314 11.7235 27.3606C10.4894 26.9511 9.04584 27.0665 7.96027 26.296C6.77077 25.5757 5.70995 24.3222 5.48887 22.9417L5.49382 22.9334ZM7.59897 26.4431C8.9188 27.9573 11.0635 27.4458 12.809 27.8469C13.0548 27.882 13.2825 27.9823 13.5432 27.9422C13.3353 27.8068 13.0482 27.8219 12.8189 27.7015C11.4463 27.2119 11.245 25.7094 10.4993 24.6932C11.4512 25.3317 12.2514 26.1974 13.1291 27.033C13.761 27.5929 14.5199 27.852 15.32 28.0174C15.127 28.0876 14.8746 28.0676 14.6601 28.1227C13.2248 28.482 11.6261 29.067 10.1017 28.5422C9.03346 28.1905 8.13706 27.4408 7.59402 26.4447L7.59897 26.4431ZM25.43 29.9778C23.9452 30.5377 22.4059 29.9528 21.251 29.0636C20.7825 28.7628 20.3684 28.3283 19.7662 28.3684C19.5582 28.357 19.3496 28.3773 19.1475 28.4286C20.3021 28.9778 21.3577 29.7189 22.2706 30.6213C22.0965 30.8107 21.9066 30.9846 21.7031 31.141C20.7858 30.1383 19.7662 29.1723 18.6262 28.6091C18.3995 28.6611 18.1838 28.7539 17.9894 28.8831C17.0154 29.4875 16.1566 30.2642 15.4536 31.1761L14.8614 30.6748C15.7648 29.7372 16.8263 28.9709 17.996 28.4118C16.8725 28.0525 16.1367 29.0068 15.2837 29.4915C14.2938 30.1951 12.8569 30.526 11.6542 30.0413C10.9768 29.8045 10.3754 29.3864 9.91363 28.8313C10.8606 29.4915 12.2712 29.5617 13.3469 29.1322C14.7921 28.4971 16.2901 27.6932 18.0323 28.0776C18.3028 28.0776 18.5701 28.3567 18.8258 28.1227C20.1339 27.8098 21.5096 27.9879 22.6979 28.6241L23.8528 29.0887C24.9185 29.4881 26.2994 29.3778 27.2118 28.7177C26.7444 29.2967 26.1276 29.7329 25.43 29.9778ZM27.0171 28.4286C25.3557 29.0636 23.6828 28.2831 22.0908 28.0241L21.7839 27.984V27.9723C22.5445 27.8052 23.2836 27.5678 23.8907 27.013C24.7833 26.1439 25.5768 25.2481 26.5683 24.5645C25.8342 25.5188 25.7566 26.8776 24.5407 27.4926C24.2405 27.6915 23.861 27.7266 23.5509 27.877C23.9946 27.8871 24.3972 27.7266 24.8377 27.6832C26.466 27.4224 28.3303 27.6832 29.4703 26.2826C29.0381 27.2587 27.9773 28.0793 27.0088 28.4235L27.0171 28.4286ZM27.9393 26.7138C27.0913 26.9445 26.1839 27.0197 25.3607 27.3038C26.7564 26.0904 26.6805 24.2119 27.6094 22.783C27.8844 22.3628 28.1807 21.9572 28.4969 21.5679C27.9311 22.7228 28.1769 24.2169 27.5269 25.335C27.2585 25.7959 26.9181 26.2097 26.5188 26.5601C26.6492 26.5601 26.7614 26.4397 26.8752 26.3645C27.9344 25.2949 29.3169 24.9957 30.4602 24.1267C30.9309 23.7683 31.303 23.2935 31.5408 22.7479C31.3148 24.5161 29.5743 26.1807 27.9311 26.7088L27.9393 26.7138ZM30.0379 23.6905C29.3779 24.1267 28.718 24.5261 28.0828 25.0275V24.964C29.0513 23.3345 28.5778 21.1016 29.1734 19.3134L29.3944 18.7134C29.2724 19.8265 29.7508 20.7724 29.7244 21.8888C29.6899 22.538 29.4818 23.1654 29.1222 23.7038H29.1816C29.6551 23.0738 30.0247 22.4036 30.5773 21.8036C31.4369 20.9679 32.3096 20.1056 32.4235 18.9407C32.6891 20.8827 31.6217 22.5874 30.0296 23.6854L30.0379 23.6905Z" fill="#0968B1"/>
<path d="M26.4776 17.5452L26.3935 17.485L26.4413 17.6204C26.3699 19.2244 25.8257 20.7699 24.8789 22.0576C24.7138 22.2978 24.518 22.5147 24.2966 22.7027C24.6901 23.0378 25.0579 23.4027 25.397 23.7941L25.4366 23.7189C26.9445 21.9741 27.804 19.9551 27.8981 17.617L27.9575 17.4967L27.8832 17.5318L26.4776 17.5452Z" fill="#0968B1"/>
<path d="M18.1065 11.7691C16.8543 11.8577 15.7671 12.3875 14.8069 13.183C15.1913 13.4471 15.5312 13.8716 15.8612 14.1775C15.8859 14.1424 15.9106 14.1073 15.937 14.0671C16.3846 13.7107 16.8945 13.4431 17.44 13.2783C17.6858 13.2532 17.9349 13.1329 18.1857 13.1931C18.1313 12.7033 18.1313 12.2088 18.1857 11.719L18.1065 11.7691Z" fill="#0968B1"/>
<path d="M18.7219 9.08674C18.724 9.04312 18.7403 9.00143 18.7681 8.96808C18.8357 8.92797 18.8951 8.98814 18.9248 9.0366C18.9545 9.08507 18.9595 9.22713 18.9017 9.26724C18.9595 9.27727 18.9892 9.23215 19.0436 9.23215C20.139 9.31261 21.2027 9.64039 22.1568 10.1915V10.1664C22.3482 10.0711 22.5956 9.94746 22.7919 10.1163C23.0295 10.0277 23.0741 10.3218 23.2654 10.3569C23.4981 10.4956 23.7604 10.7564 23.7884 11.0254C23.833 11.1157 23.9699 11.1809 23.9913 11.2761C24.1563 10.9419 24.4648 10.6962 24.7354 10.402L24.9004 10.3319C23.4678 8.9475 21.6325 8.06832 19.6672 7.82492C19.3505 7.76977 19.0073 7.79985 18.7038 7.70459C18.7565 8.16346 18.7626 8.62661 18.7219 9.08674ZM23.1615 9.75526C23.2107 9.76384 23.2569 9.7849 23.2958 9.81646C23.3347 9.84802 23.3652 9.88907 23.3842 9.93576C23.3595 10.0494 23.4882 10.1447 23.409 10.2349C23.1434 10.3051 23.1186 9.99927 22.914 9.92406C22.8848 9.88237 22.8724 9.83096 22.8794 9.78033C22.9701 9.65999 23.0592 9.85052 23.1615 9.75526ZM18.9248 8.84608C18.9644 8.76586 19.0783 8.79594 19.136 8.82101L19.8471 8.51015C20.1341 8.53522 20.4492 8.57032 20.6175 8.81098V8.84608C20.4393 8.99482 20.2133 9.11516 19.9757 9.01321C19.6458 9.07839 19.1954 9.26891 18.9347 8.92964C18.9248 8.90123 18.8951 8.86613 18.9248 8.84106V8.84608Z" fill="#0968B1"/>
<path d="M18.7219 11.2294C18.91 11.1642 19.1014 11.2444 19.2894 11.2495C20.2562 11.4166 21.1685 11.7241 21.944 12.3291C21.8338 12.2355 21.7544 12.1102 21.7163 11.9698C21.7231 11.9608 21.7324 11.9542 21.743 11.9506C21.7535 11.947 21.7649 11.9467 21.7757 11.9497C21.7856 11.7943 21.6239 11.7141 21.5991 11.5737C21.61 11.5557 21.6263 11.5416 21.6455 11.5335C21.6648 11.5254 21.6861 11.5237 21.7064 11.5286C21.8685 11.6842 22.0139 11.8568 22.1403 12.0433C22.2492 11.9982 22.3383 12.0684 22.4174 12.1286C22.561 12.2138 22.4719 12.3993 22.5824 12.4996C22.6022 12.7937 22.9569 12.9575 22.9355 13.2533C22.9355 13.3235 23.0262 13.2684 23.0559 13.3035L23.3512 13.6728C23.3311 13.7068 23.325 13.7474 23.3343 13.7859C23.3435 13.8244 23.3674 13.8576 23.4007 13.8784C23.5344 13.9369 23.6086 13.7681 23.7406 13.7932C23.9336 13.9035 23.7109 14.0321 23.7307 14.1525C23.8049 14.1525 23.8957 14.0923 23.9567 14.1675C23.9815 14.2778 23.8693 14.348 23.8247 14.4165C23.8247 14.5268 23.9138 14.5018 23.9897 14.5268C24.0788 14.5268 24.1316 14.6321 24.1085 14.7073C24.3543 14.9664 24.0342 15.2472 24.153 15.5213C24.1787 15.6069 24.1802 15.6981 24.1574 15.7847C24.1347 15.8712 24.0886 15.9495 24.0243 16.011C24.0243 16.2316 23.8313 16.3653 23.7521 16.5508L23.5014 16.6009C23.3677 16.7363 23.6135 16.9017 23.4816 16.9853L24.0342 16.9953L23.9749 16.9352C23.9338 16.819 23.9192 16.695 23.9321 16.5723C23.9449 16.4496 23.9849 16.3314 24.0491 16.2265C24.1316 16.046 24.153 15.8321 24.3098 15.6767C24.3444 15.6667 24.4087 15.6015 24.4384 15.6767C24.4549 15.8528 24.4259 16.0301 24.3543 16.1914C24.5193 16.4204 24.4929 16.7212 24.5077 17.0054C25.0027 16.9753 25.4745 16.9653 25.953 16.9703L25.9084 16.8767C25.8554 15.9806 25.6372 15.1025 25.265 14.2879C25.1627 14.2879 25.0885 14.3781 24.9697 14.348C24.95 14.3406 24.9334 14.3267 24.9226 14.3084C24.9118 14.2902 24.9075 14.2688 24.9103 14.2477C24.7123 14.0572 24.5902 13.8082 24.3675 13.6377C24.1167 13.6628 24.0029 13.3686 23.7752 13.3386C23.574 13.2533 23.7109 12.9241 23.4205 13.0043C23.3453 12.9794 23.2775 12.9357 23.2233 12.8773C23.1691 12.8189 23.1302 12.7476 23.1104 12.6701C23.1239 12.5376 23.1053 12.4038 23.0561 12.2803C23.0069 12.1568 22.9287 12.0473 22.8282 11.9614C22.6501 11.8962 22.5775 12.1286 22.3993 12.0951C22.3003 12.045 22.3449 11.9163 22.3152 11.8311C22.2855 11.7458 22.1964 11.7007 22.2129 11.6004C22.4438 11.2912 21.9324 11.2963 22.0479 10.9904C22.0198 10.7715 21.7971 10.6862 21.6833 10.5108C20.9264 10.1547 20.1193 9.92069 19.2911 9.81717C19.0799 9.78709 18.8819 9.83221 18.6988 9.73193L18.7499 9.8272C18.7367 10.3002 18.7681 10.7949 18.7219 11.2294Z" fill="#0968B1"/>
<path d="M18.2253 15.9859C18.0768 16.2366 17.8294 16.2917 17.5984 16.3602C17.534 16.4421 17.5489 16.6159 17.3971 16.6009C17.346 16.7112 17.1777 16.7764 17.2437 16.9351C17.1645 17.1023 17.2041 17.3262 17.1595 17.5101C16.8675 17.6956 16.9517 17.2661 16.8032 17.1758L16.7553 17.261C16.729 17.2648 16.7022 17.2612 16.6777 17.2506C16.6533 17.24 16.6322 17.2228 16.6168 17.2009C16.5722 17.1858 16.498 17.1708 16.4518 17.2109C16.3858 17.3212 16.2868 17.4098 16.3132 17.5602C16.2818 17.6505 16.135 17.6204 16.1482 17.7156C16.3149 17.7073 16.4806 17.6838 16.6432 17.6454C16.7586 17.6755 16.851 17.5903 16.9731 17.5853C16.9968 17.5939 17.0166 17.6107 17.0293 17.6327C17.042 17.6547 17.0466 17.6805 17.0424 17.7056H17.082C17.1203 17.6807 17.1491 17.6432 17.1635 17.5994C17.1779 17.5556 17.1771 17.5082 17.1612 17.4649C17.1612 17.3597 17.2833 17.3597 17.3526 17.3312C17.4169 17.3597 17.3773 17.4248 17.3889 17.475C17.6099 17.5602 17.3344 17.7257 17.3047 17.846C17.2437 17.9396 17.3047 18.1552 17.1166 18.1251C17.099 18.1204 17.0838 18.1088 17.0746 18.0928C17.0653 18.0768 17.0626 18.0578 17.0672 18.0399H17.0424C17.0423 18.086 17.0548 18.1313 17.0783 18.1708C17.1019 18.2102 17.1357 18.2424 17.176 18.2638C17.3146 18.1502 17.3179 17.9546 17.5159 17.9296C17.6198 17.8209 17.4714 17.6505 17.6248 17.5602C17.8822 17.5602 18.156 17.4449 18.3606 17.6555C18.3441 17.7457 18.3094 17.7858 18.3837 17.8594C18.3473 17.9816 18.2873 18.0952 18.2072 18.1936C18.2193 18.2266 18.2209 18.2625 18.2118 18.2964C18.2026 18.3303 18.1831 18.3605 18.156 18.3825C18.0884 18.6883 17.7419 18.5496 17.5406 18.6482C17.8539 18.8824 18.2424 18.9892 18.6295 18.9474C18.8423 18.9373 18.7483 18.6733 18.8572 18.553C18.9265 18.2037 19.2432 18.4426 19.4346 18.3491C19.5163 18.2047 19.5722 18.0468 19.5996 17.8828C19.5406 17.8431 19.4958 17.7853 19.4718 17.7179C19.4477 17.6505 19.4457 17.5771 19.466 17.5084C19.3818 17.3931 19.3917 17.1842 19.2102 17.1641C19.1994 17.1448 19.1955 17.1223 19.1991 17.1004C19.2027 17.0785 19.2136 17.0585 19.23 17.0438C19.23 16.9335 19.3323 16.9001 19.362 16.8131C19.2498 16.7396 19.2779 16.5742 19.2878 16.4789C19.0964 16.534 19.075 16.28 18.9331 16.2249C18.8984 16.1095 18.7681 16.0895 18.6774 16.0694C18.4398 16.1847 18.4002 15.8889 18.2237 15.8204C18.2039 15.7652 18.1643 15.685 18.2237 15.6399C18.3111 15.5647 18.4299 15.6299 18.5338 15.6249L18.4497 15.5797C18.3705 15.4895 18.1973 15.5446 18.095 15.5797C18.2055 15.6817 18.1709 15.8605 18.2253 15.9859Z" fill="#0968B1"/>
<path d="M8.67628 42.8467C8.18781 42.8419 7.7 42.8845 7.21951 42.9737V47.6884C7.63906 47.7829 8.06845 47.825 8.49811 47.8137C10.3838 47.8137 11.5024 46.8795 11.5024 45.2416C11.5024 43.6038 10.3838 42.8467 8.67628 42.8467Z" fill="#0968B1"/>
<path d="M0.00164986 38.6301V56.802H17.9382V38.6301H0.00164986ZM12.1244 47.6651C11.3077 48.5442 9.97963 49.0021 8.46511 49.0021C8.04723 49.0153 7.62924 48.9794 7.21951 48.8952V53.7536H5.67365V41.7788C6.6536 41.6011 7.64781 41.5166 8.64329 41.5265C10.1727 41.5265 11.2912 41.8858 12.0023 42.5292C12.6622 43.1058 13.0664 43.9866 13.0664 45.0696C13.0664 46.1526 12.7463 47.0333 12.1244 47.6651Z" fill="#0968B1"/>
<path d="M26.8768 61.9328C26.2678 61.9247 25.6596 61.9807 25.0621 62.0999V71.6947C25.5808 71.7599 26.1037 71.784 26.6261 71.7666C29.9257 71.785 31.7256 69.8948 31.7256 66.6191C31.7454 63.7144 30.1451 61.9328 26.8768 61.9328Z" fill="#0968B1"/>
<path d="M19.0436 57.8281V76H36.9786V57.8281H19.0436ZM31.6398 71.2753C30.4998 72.4101 28.652 73.0201 26.3258 73.0201C25.3817 73.0346 24.4377 72.9872 23.4997 72.878V60.9417C24.5919 60.7753 25.6948 60.691 26.7993 60.6894C29.0216 60.6894 30.5938 61.1908 31.653 62.1835C32.7336 63.1746 33.3572 64.5968 33.3572 66.5589C33.3572 68.521 32.7386 70.1589 31.6398 71.2753Z" fill="#0968B1"/>
<path d="M0 57.8281V76H17.9382V57.8281H0ZM13.3865 67.9478C13.3865 71.6697 11.4479 73.1839 8.85611 73.1839C6.40286 73.1839 4.55344 71.7817 4.55344 68.0029V60.8515H6.1191V68.053C6.1191 70.7522 7.3086 71.9087 8.9089 71.9087C10.6676 71.9087 11.8224 70.7187 11.8224 68.053V60.8515H13.3865V67.9478Z" fill="#0968B1"/>
<path d="M19.042 56.8003H36.9786V38.6284H19.042V56.8003ZM23.5162 41.6501H25.2238L29.0463 47.7887C29.8454 49.0509 30.5571 50.3677 31.1762 51.7296L31.2307 51.7146C31.0888 50.0934 31.0541 48.6177 31.0541 46.7458V41.6501H32.5109V53.7836H30.9469L27.1441 47.6283C26.3185 46.3278 25.5767 44.9746 24.9235 43.5771L24.869 43.5955C24.9598 45.1264 24.9763 46.5821 24.9763 48.5976V53.7786H23.5162V41.6501Z" fill="#0968B1"/>
</g>
<defs>
<clipPath id="clip0_262_1021">
<rect width="37" height="76" fill="white"/>
</clipPath>
</defs>
</svg>
