<svg xmlns="http://www.w3.org/2000/svg" viewBox="0 0 375 925"><defs><style>.cls-1,.cls-2,.cls-3{fill:none;}.cls-1,.cls-2{stroke:#f2f2f2;}.cls-1{stroke-width:2px;}.cls-2{stroke-width:1.81px;}.cls-3{stroke:#6d6c6c;stroke-width:4px;stroke-dasharray:0 16;}.cls-10,.cls-3{stroke-linecap:round;stroke-linejoin:round;}.cls-4{fill:#5a6bb6;}.cls-5{opacity:0.2;}.cls-10,.cls-6{fill:#fff;}.cls-7{fill:#ffd400;}.cls-8{fill:#b60062;}.cls-9{fill:#404040;}.cls-10{stroke:#5a6bb6;stroke-width:0.84px;}.cls-11{fill:#6d6c6c;}</style></defs><g id="Layer_1" data-name="Layer 1"><path class="cls-1" d="M15.8,16h33q17.2,0,25.1,8T81.77,48.6v8.7q0,22.07-14.57,27.93v.4a17.38,17.38,0,0,1,11.43,9.92Q82,103,82,115.59v24.89a94.68,94.68,0,0,0,.41,9.81,24.61,24.61,0,0,0,2,7.39H61.74a32.3,32.3,0,0,1-1.62-6.48,94.39,94.39,0,0,1-.41-10.92V114.37q0-9.7-3.14-13.56T45.75,97H38.06v60.71H15.8ZM46.15,76.73c4.46,0,7.79-1.14,10-3.44s3.34-6.14,3.34-11.54V50.83q0-7.69-2.73-11.14t-8.6-3.44H38.06V76.73Z"/><path class="cls-1" d="M120.22,150.5q-8.49-9.21-8.5-26.41V16H134V125.71q0,7.28,2.94,10.52t8.4,3.24q5.46,0,8.4-3.24t2.93-10.52V16H178.1V124.09q0,17.19-8.5,26.41t-24.69,9.2Q128.73,159.7,120.22,150.5Z"/><path class="cls-1" d="M226.47,36.25H203.2V16H272V36.25H248.73V157.68H226.47Z"/><path class="cls-1" d="M305.8,16H336L359,157.68H336.77l-4-28.13v.4h-25.3l-4.05,27.73H282.73Zm24.29,94.71-9.92-70h-.4l-9.72,70Z"/><path class="cls-1" d="M61.85,554.53q-8.66-9.37-8.65-26.48V449.62q0-17.1,8.65-26.49T87,413.75q16.49,0,25.14,9.38t8.65,26.49v15.44H99.08v-16.9q0-13.56-11.47-13.56T76.14,448.16v81.55q0,13.35,11.47,13.35t11.47-13.35V507.4h21.69v20.65q0,17.1-8.65,26.48T87,563.92Q70.51,563.92,61.85,554.53Z"/><path class="cls-1" d="M157.9,554.33q-9-9.6-9-27.12V450.46q0-17.52,9-27.12t25.86-9.59q16.91,0,25.86,9.59t9,27.12v76.75q0,17.52-9,27.12t-25.86,9.59Q166.87,563.92,157.9,554.33Zm37.75-25.66V449q0-14.4-11.89-14.4T171.87,449v79.67q0,14.4,11.89,14.39T195.65,528.67Z"/><path class="cls-1" d="M249.67,415.83h28.78l22.32,87.4h.42v-87.4h20.44v146H298.06L270.53,455.25h-.42V561.83H249.67Z"/><path class="cls-1" d="M67.27,729.05q-8.55-9.49-8.55-27.22v-8.34H80.41v10q0,14.18,11.89,14.18,5.83,0,8.87-3.44c2-2.3,3-6,3-11.16A30.92,30.92,0,0,0,100,686.92q-4.17-7-15.43-16.79Q70.4,657.61,64.77,647.49a46.15,46.15,0,0,1-5.63-22.83q0-17.31,8.76-26.81t25.45-9.49q16.47,0,24.92,9.49t8.45,27.22v6H105v-7.51q0-7.5-2.92-11t-8.55-3.44q-11.48,0-11.48,14A27.53,27.53,0,0,0,86.36,638q4.27,6.88,15.54,16.69,14.38,12.51,19.81,22.74t5.43,24q0,17.94-8.87,27.53t-25.76,9.6Q75.83,738.54,67.27,729.05Z"/><path class="cls-1" d="M163.84,729.05q-8.76-9.49-8.76-27.22V590.45H178v113q0,7.5,3,10.84t8.66,3.34c3.75,0,6.64-1.11,8.65-3.34s3-5.84,3-10.84v-113H223.5V701.83q0,17.73-8.76,27.22t-25.45,9.49Q172.6,738.54,163.84,729.05Z"/><path class="cls-1" d="M255.41,590.45h22.94V715.59H316.1v20.86H255.41Z"/><path class="cls-1" d="M131.1,783.84h-24V763H178v20.86H154V909H131.1Z"/><path class="cls-1" d="M212.86,763h31.08l23.77,146H244.77l-4.17-29v.42H214.53L210.36,909H189.08Zm25,97.61-10.22-72.16h-.42l-10,72.16Z"/><path class="cls-2" d="M73,184.15H122.2q24,0,36.05,12.89t12,37.81V338.6q0,24.91-12,37.81t-36,12.89H73ZM121.62,360q7.91,0,12.16-4.68T138,340.07V233.39q0-10.56-4.25-15.24t-12.16-4.69H105.2V360Z"/><path class="cls-2" d="M213.93,184.15h87.93v29.31H246.17v54.22h44.26V297H246.17v63h55.69V389.3H213.93Z"/></g><g id="Layer_3" data-name="Layer 3"><path class="cls-3" d="M96,105.33,157.2,252.49a70.54,70.54,0,0,1-55.91,90.86c-19.44,3.17-36.89,5.43-44.67,4.92C32,346.63,21.06,332.75,19.87,317,17,279.37,67.13,263.78,87.22,295.78c19.8,31.53,26.43,77.28-6.91,192.59q-1.29,4.44-2.74,8.57a94.94,94.94,0,0,0,74,125l130,21.66L320.9,754.35c.3.84.58,1.68.86,2.52,19.42,60.11-30.17,120.25-93.07,114.35l-91.62-8.59"/><path class="cls-4" d="M87.06,169.55A68.17,68.17,0,0,1,62.23,40L76.87,71.86,89.6,133Z"/><path class="cls-4" d="M123,162.05A68.16,68.16,0,0,0,95.66,33.49l-1,29.21,12.22,72.81Z"/><circle class="cls-5" cx="91.64" cy="101.53" r="57.23" transform="translate(-28.23 167.39) rotate(-76.72)"/><circle class="cls-6" cx="91.64" cy="101.53" r="53.32"/><path class="cls-4" d="M170,150.31h3.89a3.85,3.85,0,0,1,2.95,1.05,4.39,4.39,0,0,1,1,3.1v1.65a4.37,4.37,0,0,1-1,3.1,3.85,3.85,0,0,1-2.95,1.06h-1.25v6.84H170Zm3.89,7.56a1.23,1.23,0,0,0,1-.36,1.81,1.81,0,0,0,.33-1.23v-2a1.78,1.78,0,0,0-.33-1.22,1.23,1.23,0,0,0-1-.36h-1.25v5.16Z"/><path class="cls-4" d="M180.45,150.31H184l2.74,16.8h-2.64l-.48-3.34v0h-3l-.48,3.29h-2.45Zm2.88,11.23-1.18-8.31h-.05L181,161.54Z"/><path class="cls-4" d="M188,150.31h3.91a3.37,3.37,0,0,1,3.92,3.86v1c0,1.75-.58,2.85-1.73,3.31v.05a2,2,0,0,1,1.35,1.18,5.78,5.78,0,0,1,.4,2.37v3c0,.48,0,.86.05,1.16a2.82,2.82,0,0,0,.24.88h-2.69a3.59,3.59,0,0,1-.19-.77,11.93,11.93,0,0,1,0-1.3V162a2.61,2.61,0,0,0-.37-1.61,1.6,1.6,0,0,0-1.29-.45h-.91v7.2H188Zm3.6,7.2a1.59,1.59,0,0,0,1.19-.41,2,2,0,0,0,.4-1.37v-1.3a2.13,2.13,0,0,0-.33-1.32,1.21,1.21,0,0,0-1-.4h-1.2v4.8Z"/><path class="cls-4" d="M199.72,152.71H197v-2.4h8.16v2.4h-2.76v14.4h-2.64Z"/><path class="cls-4" d="M206.39,150.31H209v16.8h-2.64Z"/><path class="cls-4" d="M211.83,166.27a4.31,4.31,0,0,1-1-3.05v-9a4.29,4.29,0,0,1,1-3,4.41,4.41,0,0,1,5.78,0,4.33,4.33,0,0,1,1,3V156h-2.5V154q0-1.56-1.32-1.56T213.47,154v9.38c0,1,.44,1.54,1.32,1.54s1.32-.52,1.32-1.54v-2.57h2.5v2.38a4.36,4.36,0,0,1-1,3.05,4.41,4.41,0,0,1-5.78,0Z"/><path class="cls-4" d="M220.19,150.31h2.64v16.8h-2.64Z"/><path class="cls-4" d="M224.8,150.31h3.89a3.86,3.86,0,0,1,2.95,1.05,4.43,4.43,0,0,1,1,3.1v1.65a4.42,4.42,0,0,1-1,3.1,3.87,3.87,0,0,1-2.95,1.06h-1.25v6.84H224.8Zm3.89,7.56a1.25,1.25,0,0,0,1-.36,1.87,1.87,0,0,0,.32-1.23v-2a1.84,1.84,0,0,0-.32-1.22,1.25,1.25,0,0,0-1-.36h-1.25v5.16Z"/><path class="cls-4" d="M235.26,150.31h3.58l2.73,16.8h-2.64l-.48-3.34v0h-3l-.48,3.29h-2.44Zm2.88,11.23L237,153.23h-.05l-1.15,8.31Z"/><path class="cls-4" d="M243.63,166.27a4.31,4.31,0,0,1-1-3.05v-9a4.29,4.29,0,0,1,1-3,4.41,4.41,0,0,1,5.78,0,4.33,4.33,0,0,1,1,3V156h-2.5V154q0-1.56-1.32-1.56T245.27,154v9.38c0,1,.44,1.54,1.32,1.54s1.32-.52,1.32-1.54v-2.57h2.5v2.38a4.36,4.36,0,0,1-1,3.05,4.41,4.41,0,0,1-5.78,0Z"/><path class="cls-4" d="M252,150.31h2.64v16.8H252Z"/><path class="cls-4" d="M257.44,166.24a4.37,4.37,0,0,1-1-3.12v-8.83a4.4,4.4,0,0,1,1-3.12,4.57,4.57,0,0,1,5.95,0,4.4,4.4,0,0,1,1,3.12v8.83a4.37,4.37,0,0,1-1,3.12,4.54,4.54,0,0,1-5.95,0Zm3.21-19.82h2.88L261,149.18h-2Zm1.13,16.87v-9.17c0-1.1-.45-1.65-1.37-1.65s-1.36.55-1.36,1.65v9.17c0,1.1.45,1.66,1.36,1.66S261.78,164.39,261.78,163.29Z"/><path class="cls-4" d="M266.2,150.31h3.31l2.57,10.05h.05V150.31h2.35v16.8h-2.71l-3.17-12.27h-.05v12.27H266.2Z"/><path d="M285.25,167.11l-.41-1h0a3.09,3.09,0,0,1-1.08.92,3.58,3.58,0,0,1-1.46.25,2.34,2.34,0,0,1-1.73-.63,2.41,2.41,0,0,1-.63-1.79,2,2,0,0,1,.85-1.79,4.88,4.88,0,0,1,2.57-.64l1.32,0V162a1,1,0,0,0-1.19-1.16,5.4,5.4,0,0,0-2.15.56L280.6,160a6.2,6.2,0,0,1,2.92-.69,3.61,3.61,0,0,1,2.36.67,2.44,2.44,0,0,1,.82,2v5.1Zm-.62-3.54-.8,0a2.63,2.63,0,0,0-1.36.33,1,1,0,0,0-.44.92c0,.58.34.88,1,.88a1.6,1.6,0,0,0,1.16-.42,1.47,1.47,0,0,0,.43-1.11Z"/><path d="M295.71,165.58a4.52,4.52,0,0,0,1.31-.24v1.55a4.58,4.58,0,0,1-1.92.35,2.35,2.35,0,0,1-1.82-.63,2.75,2.75,0,0,1-.57-1.9V161h-1v-.88l1.15-.7.6-1.61h1.34v1.62h2.14V161H294.8v3.68a.8.8,0,0,0,.25.66A1,1,0,0,0,295.71,165.58Z"/><path d="M302.83,159.32a3.37,3.37,0,0,1,.7.06l-.15,2a2.25,2.25,0,0,0-.62-.07,2.21,2.21,0,0,0-1.55.51,1.83,1.83,0,0,0-.56,1.44v3.89h-2.09v-7.65h1.58l.31,1.29h.1a3,3,0,0,1,1-1A2.42,2.42,0,0,1,302.83,159.32Z"/><path d="M309.77,167.11l-.4-1h-.05a3.11,3.11,0,0,1-1.09.92,3.5,3.5,0,0,1-1.45.25,2.34,2.34,0,0,1-1.73-.63,2.41,2.41,0,0,1-.63-1.79,2,2,0,0,1,.85-1.79,4.84,4.84,0,0,1,2.56-.64l1.33,0V162a1,1,0,0,0-1.19-1.16,5.4,5.4,0,0,0-2.15.56l-.69-1.41a6.2,6.2,0,0,1,2.92-.69,3.63,3.63,0,0,1,2.36.67,2.44,2.44,0,0,1,.82,2v5.1Zm-.61-3.54-.81,0a2.62,2.62,0,0,0-1.35.33,1,1,0,0,0-.44.92c0,.58.33.88,1,.88a1.6,1.6,0,0,0,1.16-.42,1.47,1.47,0,0,0,.43-1.11Z"/><path d="M315.2,167.11l-2.92-7.65h2.18l1.48,4.36a8,8,0,0,1,.31,1.56h0a6.78,6.78,0,0,1,.31-1.56l1.47-4.36h2.18l-2.91,7.65Z"/><path d="M324.8,167.24a3.93,3.93,0,0,1-2.88-1,3.81,3.81,0,0,1-1-2.88,4.24,4.24,0,0,1,1-3,3.9,3.9,0,0,1,5.18-.13,3.51,3.51,0,0,1,.9,2.55v1H323a2,2,0,0,0,.53,1.39,1.84,1.84,0,0,0,1.38.5,6,6,0,0,0,1.3-.14,6.94,6.94,0,0,0,1.29-.46v1.61a4.78,4.78,0,0,1-1.17.41A7.35,7.35,0,0,1,324.8,167.24Zm-.29-6.44a1.31,1.31,0,0,0-1,.42,1.92,1.92,0,0,0-.43,1.2H326a1.75,1.75,0,0,0-.4-1.2A1.36,1.36,0,0,0,324.51,160.8Zm-1.21-2.18v-.18a18.82,18.82,0,0,0,1.61-2.06h2.34v.14c-.24.24-.64.59-1.22,1.06s-1,.81-1.34,1Z"/><path d="M334.94,164.84a2.11,2.11,0,0,1-.81,1.79,4.06,4.06,0,0,1-2.45.61,7.31,7.31,0,0,1-1.42-.11,5.41,5.41,0,0,1-1.1-.33v-1.72a7.44,7.44,0,0,0,1.31.45,5,5,0,0,0,1.28.19q1.14,0,1.14-.66a.57.57,0,0,0-.15-.4,2.41,2.41,0,0,0-.52-.35q-.37-.19-1-.45a6.37,6.37,0,0,1-1.29-.68,1.8,1.8,0,0,1-.6-.73,2.29,2.29,0,0,1-.19-1,1.79,1.79,0,0,1,.79-1.57,3.84,3.84,0,0,1,2.24-.56,6.34,6.34,0,0,1,2.68.6l-.63,1.51c-.38-.17-.74-.3-1.07-.41a3.5,3.5,0,0,0-1-.15c-.61,0-.92.16-.92.49a.59.59,0,0,0,.3.49,7.88,7.88,0,0,0,1.3.61,6.42,6.42,0,0,1,1.31.67,2.13,2.13,0,0,1,.62.73A2.26,2.26,0,0,1,334.94,164.84Z"/><path d="M172.51,184a2.49,2.49,0,0,1-2.11-1,5.87,5.87,0,0,1,0-5.83,2.54,2.54,0,0,1,2.16-1,2.49,2.49,0,0,1,2.2,1.12h.07a8.11,8.11,0,0,1-.16-1.52v-2.45h2.09v10.64h-1.6l-.4-1h-.09A2.37,2.37,0,0,1,172.51,184Zm.74-1.66a1.41,1.41,0,0,0,1.17-.46,2.69,2.69,0,0,0,.4-1.58v-.23a3,3,0,0,0-.38-1.76,1.39,1.39,0,0,0-1.23-.53,1.21,1.21,0,0,0-1.08.59,3.11,3.11,0,0,0-.39,1.72,3,3,0,0,0,.39,1.69A1.29,1.29,0,0,0,173.25,182.38Z"/><path d="M182.41,184a3.93,3.93,0,0,1-2.88-1,3.81,3.81,0,0,1-1-2.88,4.24,4.24,0,0,1,1-3,3.9,3.9,0,0,1,5.18-.13,3.51,3.51,0,0,1,.9,2.55v1H180.6a2,2,0,0,0,.53,1.39,1.87,1.87,0,0,0,1.38.5,6,6,0,0,0,1.3-.14,6.94,6.94,0,0,0,1.29-.46v1.61a5.24,5.24,0,0,1-1.17.41A7.29,7.29,0,0,1,182.41,184Zm-.29-6.44a1.33,1.33,0,0,0-1,.42,2,2,0,0,0-.43,1.2h2.92a1.75,1.75,0,0,0-.4-1.2A1.36,1.36,0,0,0,182.12,177.6Z"/><path d="M197.14,183.91l-.72-2.38h-3.64l-.73,2.38h-2.28l3.53-10h2.59l3.54,10Zm-1.23-4.16c-.67-2.16-1-3.37-1.13-3.66s-.14-.5-.18-.67c-.15.59-.58,2-1.29,4.33Zm-2.44-6.64v-.18a18.41,18.41,0,0,0,1.6-2.06h2.34V171c-.24.24-.64.59-1.21,1.06s-1,.81-1.35,1Z"/><path d="M207.17,176.26v1.06l-1.19.31a2.16,2.16,0,0,1,.32,1.15,2.33,2.33,0,0,1-.85,1.92,3.8,3.8,0,0,1-2.39.68l-.37,0-.31,0a.7.7,0,0,0-.32.55c0,.3.38.45,1.15.45h1.3a3,3,0,0,1,1.91.54,1.93,1.93,0,0,1,.66,1.58,2.35,2.35,0,0,1-1.11,2.08,5.86,5.86,0,0,1-3.21.74,4.49,4.49,0,0,1-2.45-.56,1.77,1.77,0,0,1-.84-1.56,1.61,1.61,0,0,1,.43-1.15,2.38,2.38,0,0,1,1.26-.67,1.4,1.4,0,0,1-.56-.45,1.08,1.08,0,0,1,0-1.38,2.5,2.5,0,0,1,.73-.57,2.17,2.17,0,0,1-1-.84,2.56,2.56,0,0,1-.35-1.35,2.38,2.38,0,0,1,.82-1.94,3.53,3.53,0,0,1,2.32-.68,5.74,5.74,0,0,1,.76.06l.57.08Zm-5.9,8.73a.75.75,0,0,0,.42.67,2.2,2.2,0,0,0,1.16.25,4,4,0,0,0,1.75-.31.92.92,0,0,0,.64-.84.59.59,0,0,0-.38-.59,3,3,0,0,0-1.16-.17h-1.08a1.65,1.65,0,0,0-1,.27A.84.84,0,0,0,201.27,185Zm.76-6.22a1.61,1.61,0,0,0,.28,1,1,1,0,0,0,.87.36,1,1,0,0,0,.86-.36,1.61,1.61,0,0,0,.27-1c0-.92-.37-1.39-1.13-1.39S202,177.85,202,178.77Z"/><path d="M215.38,180.07a4.08,4.08,0,0,1-1,2.92,3.58,3.58,0,0,1-2.74,1,3.85,3.85,0,0,1-1.94-.48,3.19,3.19,0,0,1-1.29-1.38,4.68,4.68,0,0,1-.45-2.11,4.08,4.08,0,0,1,1-2.91,3.6,3.6,0,0,1,2.75-1,3.85,3.85,0,0,1,1.94.48,3.22,3.22,0,0,1,1.29,1.37A4.51,4.51,0,0,1,215.38,180.07Zm-5.29,0a3.3,3.3,0,0,0,.37,1.72,1.36,1.36,0,0,0,1.22.58,1.32,1.32,0,0,0,1.2-.58,3.29,3.29,0,0,0,.36-1.72,3.11,3.11,0,0,0-.37-1.7,1.56,1.56,0,0,0-2.41,0A3.09,3.09,0,0,0,210.09,180.07Z"/><path d="M221.36,176.12a3.48,3.48,0,0,1,.71.06l-.16,2a2.18,2.18,0,0,0-.61-.07,2.22,2.22,0,0,0-1.56.51,1.86,1.86,0,0,0-.56,1.44v3.89H217.1v-7.65h1.58l.3,1.29h.11a2.82,2.82,0,0,1,1-1A2.36,2.36,0,0,1,221.36,176.12Z"/><path d="M228.31,183.91l-.4-1h-.06a3.09,3.09,0,0,1-1.08.92,3.55,3.55,0,0,1-1.46.25,2.34,2.34,0,0,1-1.73-.63,2.41,2.41,0,0,1-.63-1.79,2,2,0,0,1,.85-1.79,4.88,4.88,0,0,1,2.57-.64l1.32,0v-.34a1,1,0,0,0-1.19-1.16,5.58,5.58,0,0,0-2.15.55l-.69-1.4a6.24,6.24,0,0,1,2.93-.69,3.6,3.6,0,0,1,2.35.67,2.45,2.45,0,0,1,.83,2v5.1Zm-.62-3.54-.8,0a2.63,2.63,0,0,0-1.36.33,1,1,0,0,0-.44.92c0,.58.34.88,1,.88a1.6,1.6,0,0,0,1.16-.42,1.47,1.47,0,0,0,.43-1.11Z"/><path d="M234.67,186.85a4.6,4.6,0,0,1-1.25-.15v-1.77a4.13,4.13,0,0,0,1,.14,1.13,1.13,0,0,0,1-.44,2.41,2.41,0,0,0,.3-1.35v-9.37h2.12v9.35a4,4,0,0,1-.8,2.67A3,3,0,0,1,234.67,186.85Z"/><path d="M245.6,183.91l-.28-1h-.11a2.24,2.24,0,0,1-1,.82,3.16,3.16,0,0,1-1.4.29,2.66,2.66,0,0,1-2-.72,2.88,2.88,0,0,1-.69-2.07v-5h2.09v4.47a2.12,2.12,0,0,0,.29,1.24,1.09,1.09,0,0,0,.94.41,1.4,1.4,0,0,0,1.26-.58,3.64,3.64,0,0,0,.39-1.94v-3.6h2.09v7.65Z"/><path d="M251.2,183.91l-2.91-7.65h2.18l1.48,4.36a8.77,8.77,0,0,1,.31,1.56h0a6.69,6.69,0,0,1,.3-1.56l1.47-4.36h2.18l-2.91,7.65Z"/><path d="M260.81,184a4,4,0,0,1-2.89-1,3.85,3.85,0,0,1-1-2.88,4.24,4.24,0,0,1,1-3,3.43,3.43,0,0,1,2.66-1A3.38,3.38,0,0,1,263,177a3.51,3.51,0,0,1,.9,2.55v1H259a2,2,0,0,0,.52,1.39,1.87,1.87,0,0,0,1.38.5,6.12,6.12,0,0,0,1.31-.14,6.61,6.61,0,0,0,1.28-.46v1.61a4.91,4.91,0,0,1-1.17.41A7.25,7.25,0,0,1,260.81,184Zm-.3-6.44a1.33,1.33,0,0,0-1,.42,2,2,0,0,0-.43,1.2H262a1.75,1.75,0,0,0-.4-1.2A1.39,1.39,0,0,0,260.51,177.6Z"/><path d="M272.67,183.91h-2.08v-4.47a2.2,2.2,0,0,0-.29-1.24,1.09,1.09,0,0,0-.94-.41,1.41,1.41,0,0,0-1.27.58,3.64,3.64,0,0,0-.39,1.94v3.6h-2.08v-7.65h1.59l.28,1h.12a2.18,2.18,0,0,1,1-.84,3.26,3.26,0,0,1,1.39-.28,2.66,2.66,0,0,1,2,.72,2.9,2.9,0,0,1,.69,2.08Z"/><path d="M278,182.38a4.52,4.52,0,0,0,1.31-.24v1.55a4.56,4.56,0,0,1-1.91.35,2.33,2.33,0,0,1-1.82-.63,2.75,2.75,0,0,1-.57-1.9v-3.68h-1V177l1.15-.7.6-1.61h1.33v1.62h2.14v1.57h-2.14v3.68a.8.8,0,0,0,.25.66A1,1,0,0,0,278,182.38Z"/><path d="M286.31,183.91l-.28-1h-.11a2.19,2.19,0,0,1-.95.82,3.16,3.16,0,0,1-1.4.29,2.67,2.67,0,0,1-2-.72,2.87,2.87,0,0,1-.68-2.07v-5h2.08v4.47a2.12,2.12,0,0,0,.3,1.24,1.06,1.06,0,0,0,.93.41,1.41,1.41,0,0,0,1.27-.58,3.64,3.64,0,0,0,.39-1.94v-3.6h2.08v7.65Z"/><path d="M292.52,184a2.51,2.51,0,0,1-2.12-1,5.84,5.84,0,0,1,0-5.83,2.53,2.53,0,0,1,2.15-1,2.48,2.48,0,0,1,2.2,1.12h.07a8.94,8.94,0,0,1-.15-1.52v-2.45h2.09v10.64h-1.6l-.41-1h-.08A2.38,2.38,0,0,1,292.52,184Zm.73-1.66a1.41,1.41,0,0,0,1.17-.46,2.68,2.68,0,0,0,.41-1.58v-.23a3.12,3.12,0,0,0-.38-1.76,1.39,1.39,0,0,0-1.23-.53,1.22,1.22,0,0,0-1.09.59,3.2,3.2,0,0,0-.38,1.72,3,3,0,0,0,.39,1.69A1.28,1.28,0,0,0,293.25,182.38Z"/><rect class="cls-7" x="169" y="204.69" width="48.22" height="20.52" rx="4"/><path d="M178.45,218.45a2.15,2.15,0,0,1-1.81-.89,4.14,4.14,0,0,1-.66-2.49,4.18,4.18,0,0,1,.67-2.51,2.19,2.19,0,0,1,1.85-.9,2.14,2.14,0,0,1,1.89,1h.06a7.31,7.31,0,0,1-.14-1.3v-2.1h1.79v9.11h-1.37l-.34-.84h-.08A2,2,0,0,1,178.45,218.45Zm.63-1.42a1.22,1.22,0,0,0,1-.4,2.36,2.36,0,0,0,.35-1.35v-.2a2.66,2.66,0,0,0-.33-1.51,1.23,1.23,0,0,0-1.06-.46,1,1,0,0,0-.93.51,2.71,2.71,0,0,0-.33,1.47,2.48,2.48,0,0,0,.34,1.45A1.07,1.07,0,0,0,179.08,217Z"/><path d="M186.94,218.45a3.37,3.37,0,0,1-2.47-.87,3.28,3.28,0,0,1-.89-2.47,3.64,3.64,0,0,1,.82-2.55,2.94,2.94,0,0,1,2.28-.9,2.89,2.89,0,0,1,2.16.79,3,3,0,0,1,.77,2.19v.86h-4.22a1.72,1.72,0,0,0,.45,1.19,1.56,1.56,0,0,0,1.18.43,5,5,0,0,0,1.12-.12,5.4,5.4,0,0,0,1.1-.39V218a4.08,4.08,0,0,1-1,.35A6.85,6.85,0,0,1,186.94,218.45Zm-.25-5.52a1.12,1.12,0,0,0-.89.36,1.63,1.63,0,0,0-.37,1h2.51a1.52,1.52,0,0,0-.35-1A1.16,1.16,0,0,0,186.69,212.93Z"/><path d="M195.63,216.39a1.79,1.79,0,0,1-.7,1.53,3.37,3.37,0,0,1-2.09.53,7.08,7.08,0,0,1-1.22-.09,4.49,4.49,0,0,1-.94-.29v-1.48a6.1,6.1,0,0,0,1.12.4,4.86,4.86,0,0,0,1.1.16c.65,0,1-.19,1-.57a.45.45,0,0,0-.13-.34,1.63,1.63,0,0,0-.44-.3c-.21-.11-.5-.24-.85-.39a5.47,5.47,0,0,1-1.11-.58,1.65,1.65,0,0,1-.51-.62,2,2,0,0,1-.16-.86,1.56,1.56,0,0,1,.67-1.35,3.28,3.28,0,0,1,1.92-.48,5.33,5.33,0,0,1,2.3.52l-.54,1.29a9,9,0,0,0-.92-.35,2.82,2.82,0,0,0-.87-.13c-.53,0-.79.14-.79.42a.52.52,0,0,0,.26.42,6.71,6.71,0,0,0,1.11.52,5.46,5.46,0,0,1,1.13.58,1.68,1.68,0,0,1,.52.62A1.86,1.86,0,0,1,195.63,216.39Z"/><path d="M199.1,218.45a2.14,2.14,0,0,1-1.81-.89,5,5,0,0,1,0-5,2.18,2.18,0,0,1,1.85-.9,2.16,2.16,0,0,1,1.89,1h.06a7.31,7.31,0,0,1-.14-1.3v-2.1h1.79v9.11h-1.37l-.34-.84H201A2,2,0,0,1,199.1,218.45Zm.63-1.42a1.18,1.18,0,0,0,1-.4,2.28,2.28,0,0,0,.35-1.35v-.2a2.67,2.67,0,0,0-.32-1.51,1.23,1.23,0,0,0-1.06-.46,1,1,0,0,0-.93.51,2.71,2.71,0,0,0-.33,1.47,2.57,2.57,0,0,0,.33,1.45A1.1,1.1,0,0,0,199.73,217Z"/><path d="M207.59,218.45a3.41,3.41,0,0,1-2.48-.87,3.32,3.32,0,0,1-.89-2.47,3.64,3.64,0,0,1,.83-2.55,3.34,3.34,0,0,1,4.44-.11,3,3,0,0,1,.77,2.19v.86H206a1.68,1.68,0,0,0,.46,1.19,1.56,1.56,0,0,0,1.18.43,5.06,5.06,0,0,0,1.12-.12,5.4,5.4,0,0,0,1.1-.39V218a4.23,4.23,0,0,1-1,.35A6.85,6.85,0,0,1,207.59,218.45Zm-.25-5.52a1.16,1.16,0,0,0-.9.36,1.69,1.69,0,0,0-.36,1h2.5a1.47,1.47,0,0,0-.34-1A1.18,1.18,0,0,0,207.34,212.93Z"/><rect class="cls-8" x="169" y="232.12" width="48.22" height="20.52" rx="4"/><path class="cls-6" d="M183.31,245.76h-1.78v-3.82c0-.95-.35-1.42-1.06-1.42a1.19,1.19,0,0,0-1.08.51,3.14,3.14,0,0,0-.33,1.65v3.08h-1.79v-9.11h1.79v1.85c0,.15,0,.49-.05,1l0,.53h.1a2.07,2.07,0,0,1,1.9-1,2.35,2.35,0,0,1,1.75.62,2.47,2.47,0,0,1,.59,1.78Z"/><path class="cls-6" d="M189.31,245.76l-.34-.89h-.05a2.55,2.55,0,0,1-.93.79,2.9,2.9,0,0,1-1.24.22,2,2,0,0,1-1.49-.54,2.07,2.07,0,0,1-.54-1.53,1.72,1.72,0,0,1,.73-1.54,4.28,4.28,0,0,1,2.2-.55l1.14,0v-.29a.89.89,0,0,0-1-1,4.61,4.61,0,0,0-1.85.48l-.59-1.21a5.37,5.37,0,0,1,2.51-.59,3.14,3.14,0,0,1,2,.57,2.14,2.14,0,0,1,.7,1.75v4.36Zm-.52-3-.69,0a2.26,2.26,0,0,0-1.16.28.89.89,0,0,0-.38.79c0,.5.28.75.86.75a1.37,1.37,0,0,0,1-.35,1.3,1.3,0,0,0,.37-.95Z"/><path class="cls-6" d="M197,243.82a1.79,1.79,0,0,1-.7,1.53,3.37,3.37,0,0,1-2.09.53,6.12,6.12,0,0,1-1.22-.1,4,4,0,0,1-.94-.28V244a6.1,6.1,0,0,0,1.12.4,4.72,4.72,0,0,0,1.1.15c.65,0,1-.18,1-.56a.45.45,0,0,0-.13-.34,1.82,1.82,0,0,0-.44-.3c-.22-.11-.5-.24-.85-.39a5.42,5.42,0,0,1-1.11-.59,1.47,1.47,0,0,1-.51-.61,2,2,0,0,1-.17-.86,1.56,1.56,0,0,1,.68-1.35,3.28,3.28,0,0,1,1.92-.48,5.33,5.33,0,0,1,2.3.52l-.54,1.28a8.78,8.78,0,0,0-.92-.34,2.83,2.83,0,0,0-.87-.14c-.53,0-.79.15-.79.43a.51.51,0,0,0,.25.42,7,7,0,0,0,1.12.52,5.46,5.46,0,0,1,1.13.58,1.78,1.78,0,0,1,.52.62A1.83,1.83,0,0,1,197,243.82Z"/><path class="cls-6" d="M201.13,244.46a3.79,3.79,0,0,0,1.12-.21v1.33a4,4,0,0,1-1.64.3,2,2,0,0,1-1.56-.54,2.34,2.34,0,0,1-.49-1.63v-3.15h-.85v-.76l1-.6.52-1.38h1.14v1.39h1.83v1.35h-1.83v3.15a.73.73,0,0,0,.21.57A.85.85,0,0,0,201.13,244.46Z"/><path class="cls-6" d="M207.74,245.76l-.35-.89h0a2.61,2.61,0,0,1-.92.79,3,3,0,0,1-1.25.22,2,2,0,0,1-1.48-.54,2,2,0,0,1-.55-1.53,1.74,1.74,0,0,1,.73-1.54,4.28,4.28,0,0,1,2.2-.55l1.14,0v-.29a.89.89,0,0,0-1-1,4.65,4.65,0,0,0-1.85.48l-.59-1.21a5.4,5.4,0,0,1,2.51-.59,3.14,3.14,0,0,1,2,.57,2.14,2.14,0,0,1,.7,1.75v4.36Zm-.53-3-.69,0a2.26,2.26,0,0,0-1.16.28.89.89,0,0,0-.38.79c0,.5.29.75.86.75a1.37,1.37,0,0,0,1-.35,1.26,1.26,0,0,0,.37-.95Z"/><path class="cls-4" d="M172.69,423.46a4.31,4.31,0,0,1-1-3v-9a4.29,4.29,0,0,1,1-3,4.41,4.41,0,0,1,5.78,0,4.29,4.29,0,0,1,1,3v1.78H177v-1.94q0-1.56-1.32-1.56t-1.32,1.56v9.38c0,1,.44,1.54,1.32,1.54s1.32-.52,1.32-1.54V418h2.5v2.38a4.31,4.31,0,0,1-1,3,4.41,4.41,0,0,1-5.78,0Z"/><path class="cls-4" d="M181.05,407.5h2.64v14.4H188v2.4h-7Z"/><path class="cls-4" d="M191.44,407.5H195l2.74,16.8h-2.65l-.47-3.34V421h-3l-.49,3.29h-2.44Zm2.88,11.23-1.17-8.31h-.05L192,418.73Z"/><path class="cls-4" d="M199.48,423.44a4.53,4.53,0,0,1-1-3.13v-1H201v1.15c0,1.09.46,1.64,1.37,1.64a1.3,1.3,0,0,0,1-.4,1.92,1.92,0,0,0,.35-1.28,3.53,3.53,0,0,0-.48-1.86,9,9,0,0,0-1.77-1.94,10.76,10.76,0,0,1-2.29-2.6,5.33,5.33,0,0,1-.64-2.63,4.33,4.33,0,0,1,1-3.08,3.76,3.76,0,0,1,2.92-1.09,3.63,3.63,0,0,1,2.87,1.09,4.55,4.55,0,0,1,1,3.13v.7h-2.49v-.87a2,2,0,0,0-.34-1.26,1.22,1.22,0,0,0-1-.39c-.88,0-1.32.53-1.32,1.6a3.17,3.17,0,0,0,.49,1.71,9.21,9.21,0,0,0,1.79,1.92,10.08,10.08,0,0,1,2.28,2.61,5.91,5.91,0,0,1,.62,2.76,4.49,4.49,0,0,1-1,3.17,3.82,3.82,0,0,1-3,1.11A3.73,3.73,0,0,1,199.48,423.44Z"/><path class="cls-4" d="M207.88,407.5h2.64v16.8h-2.64Z"/><path class="cls-4" d="M212.49,407.5h7v2.4h-4.34v4.68h3.41V417h-3.41v7.32h-2.64Z"/><path class="cls-4" d="M220.75,407.5h2.64v16.8h-2.64Z"/><path class="cls-4" d="M226.18,423.46a4.36,4.36,0,0,1-1-3v-9a4.33,4.33,0,0,1,1-3,4.42,4.42,0,0,1,5.79,0,4.33,4.33,0,0,1,1,3v1.78h-2.49v-1.94c0-1-.45-1.56-1.32-1.56s-1.32.52-1.32,1.56v9.38c0,1,.44,1.54,1.32,1.54s1.32-.52,1.32-1.54V418H233v2.38a4.36,4.36,0,0,1-1,3,4.42,4.42,0,0,1-5.79,0Z"/><path class="cls-4" d="M236.58,407.5h3.58l2.74,16.8h-2.64l-.48-3.34V421h-3l-.48,3.29h-2.45Zm2.88,11.23-1.17-8.31h0l-1.15,8.31Z"/><path class="cls-4" d="M245,423.46a4.31,4.31,0,0,1-1-3v-9a4.29,4.29,0,0,1,1-3,4.41,4.41,0,0,1,5.78,0,4.29,4.29,0,0,1,1,3v1.78h-2.5v-1.94q0-1.56-1.32-1.56t-1.32,1.56v9.38c0,1,.44,1.54,1.32,1.54s1.32-.52,1.32-1.54V418h2.5v2.38a4.31,4.31,0,0,1-1,3,4.41,4.41,0,0,1-5.78,0Z"/><path class="cls-4" d="M253.31,407.5H256v16.8h-2.64Z"/><path class="cls-4" d="M258.76,423.43a4.37,4.37,0,0,1-1-3.12v-8.83a4.4,4.4,0,0,1,1-3.12,4.57,4.57,0,0,1,5.95,0,4.4,4.4,0,0,1,1,3.12v8.83a4.37,4.37,0,0,1-1,3.12,4.54,4.54,0,0,1-5.95,0ZM262,403.61h2.88l-2.57,2.76h-2Zm1.12,16.87v-9.17c0-1.1-.45-1.65-1.36-1.65s-1.37.55-1.37,1.65v9.17c0,1.1.45,1.66,1.37,1.66S263.1,421.58,263.1,420.48Z"/><path class="cls-4" d="M267.52,407.5h3.31l2.57,10.05h.05V407.5h2.35v16.8h-2.71L269.92,412h-.05V424.3h-2.35Z"/><path class="cls-9" d="M175.19,439.57a4.52,4.52,0,0,0,1.31-.24v1.55a4.56,4.56,0,0,1-1.91.35,2.33,2.33,0,0,1-1.82-.63,2.75,2.75,0,0,1-.58-1.9V435h-1v-.88l1.15-.7.6-1.61h1.33v1.62h2.14V435h-2.14v3.68a.8.8,0,0,0,.25.66A1,1,0,0,0,175.19,439.57Z"/><path class="cls-9" d="M181.51,441.23a3.93,3.93,0,0,1-2.89-1,3.85,3.85,0,0,1-1-2.88,4.24,4.24,0,0,1,1-3,3.43,3.43,0,0,1,2.66-1.05,3.38,3.38,0,0,1,2.52.92,3.51,3.51,0,0,1,.9,2.55v1h-4.93a2,2,0,0,0,.53,1.39,1.87,1.87,0,0,0,1.38.5,6.12,6.12,0,0,0,1.31-.14,6.86,6.86,0,0,0,1.28-.46v1.61a4.91,4.91,0,0,1-1.17.41A7.25,7.25,0,0,1,181.51,441.23Zm-.3-6.44a1.33,1.33,0,0,0-1,.42,2,2,0,0,0-.43,1.2h2.93a1.75,1.75,0,0,0-.41-1.2A1.36,1.36,0,0,0,181.21,434.79Zm-1.2-2.18v-.18a18.41,18.41,0,0,0,1.6-2.06H184v.14c-.23.24-.64.59-1.21,1.06s-1,.81-1.34,1Z"/><path class="cls-9" d="M189.42,441.23q-3.57,0-3.57-3.91a4.21,4.21,0,0,1,1-3,3.65,3.65,0,0,1,2.79-1,5.22,5.22,0,0,1,2.37.52l-.61,1.61a9.27,9.27,0,0,0-.92-.32,2.72,2.72,0,0,0-.84-.13c-1.09,0-1.63.77-1.63,2.31s.54,2.24,1.63,2.24a3.59,3.59,0,0,0,1.11-.16,3.9,3.9,0,0,0,1-.5v1.79a3.41,3.41,0,0,1-1,.44A5.87,5.87,0,0,1,189.42,441.23Z"/><path class="cls-9" d="M200.57,441.1h-2.08v-4.47a2.12,2.12,0,0,0-.3-1.24,1.07,1.07,0,0,0-.93-.41,1.41,1.41,0,0,0-1.27.58,3.64,3.64,0,0,0-.39,1.94v3.6h-2.08v-7.65h1.59l.28,1h.12a2.18,2.18,0,0,1,1-.84,3.23,3.23,0,0,1,1.39-.28,2.66,2.66,0,0,1,2,.72,2.9,2.9,0,0,1,.69,2.08Z"/><path class="cls-9" d="M202.63,431.48c0-.68.38-1,1.13-1s1.14.34,1.14,1a1,1,0,0,1-.29.75,1.17,1.17,0,0,1-.85.27C203,432.5,202.63,432.16,202.63,431.48Zm2.17,9.62h-2.08v-7.65h2.08Z"/><path class="cls-9" d="M210.09,441.23q-3.57,0-3.57-3.91a4.16,4.16,0,0,1,1-3,3.61,3.61,0,0,1,2.78-1,5.3,5.3,0,0,1,2.38.52l-.62,1.61c-.33-.13-.63-.24-.91-.32a2.83,2.83,0,0,0-.85-.13c-1.09,0-1.63.77-1.63,2.31s.54,2.24,1.63,2.24a3.59,3.59,0,0,0,1.11-.16,3.75,3.75,0,0,0,1-.5v1.79a3.46,3.46,0,0,1-1,.44A6,6,0,0,1,210.09,441.23Z"/><path class="cls-9" d="M221.13,437.26a4.08,4.08,0,0,1-1,2.92,3.58,3.58,0,0,1-2.74,1.05,3.82,3.82,0,0,1-1.94-.48,3.27,3.27,0,0,1-1.3-1.38,4.68,4.68,0,0,1-.45-2.11,4.08,4.08,0,0,1,1-2.91,3.6,3.6,0,0,1,2.75-1,3.85,3.85,0,0,1,1.94.48,3.22,3.22,0,0,1,1.29,1.37A4.64,4.64,0,0,1,221.13,437.26Zm-5.28,0a3.21,3.21,0,0,0,.37,1.72,1.35,1.35,0,0,0,1.22.58,1.29,1.29,0,0,0,1.19-.58,3.19,3.19,0,0,0,.37-1.72,3.11,3.11,0,0,0-.37-1.7,1.33,1.33,0,0,0-1.21-.57,1.31,1.31,0,0,0-1.2.57A3.09,3.09,0,0,0,215.85,437.26Z"/><path class="cls-9" d="M222.18,438.2v-1.71h3.67v1.71Z"/><path class="cls-9" d="M230.46,441.23q-3.56,0-3.56-3.91a4.16,4.16,0,0,1,1-3,3.61,3.61,0,0,1,2.78-1,5.27,5.27,0,0,1,2.38.52l-.62,1.61c-.33-.13-.63-.24-.91-.32a2.83,2.83,0,0,0-.85-.13c-1.09,0-1.63.77-1.63,2.31s.54,2.24,1.63,2.24a3.59,3.59,0,0,0,1.11-.16,3.75,3.75,0,0,0,1-.5v1.79a3.46,3.46,0,0,1-1,.44A6,6,0,0,1,230.46,441.23Z"/><path class="cls-9" d="M234.47,431.48c0-.68.38-1,1.13-1s1.14.34,1.14,1a1,1,0,0,1-.28.75,1.22,1.22,0,0,1-.86.27C234.85,432.5,234.47,432.16,234.47,431.48Zm2.17,9.62h-2.08v-7.65h2.08Z"/><path class="cls-9" d="M242.29,441.23a3.93,3.93,0,0,1-2.88-1,3.81,3.81,0,0,1-1-2.88,4.24,4.24,0,0,1,1-3,3.9,3.9,0,0,1,5.18-.13,3.51,3.51,0,0,1,.9,2.55v1h-4.93a2,2,0,0,0,.53,1.39,1.84,1.84,0,0,0,1.38.5,6,6,0,0,0,1.3-.14,6.94,6.94,0,0,0,1.29-.46v1.61a5.24,5.24,0,0,1-1.17.41A7.35,7.35,0,0,1,242.29,441.23Zm-.29-6.44a1.31,1.31,0,0,0-1,.42,1.92,1.92,0,0,0-.43,1.2h2.92a1.75,1.75,0,0,0-.4-1.2A1.36,1.36,0,0,0,242,434.79Z"/><path class="cls-9" d="M254.16,441.1h-2.09v-4.47a2.2,2.2,0,0,0-.29-1.24,1.09,1.09,0,0,0-.94-.41,1.4,1.4,0,0,0-1.26.58,3.64,3.64,0,0,0-.39,1.94v3.6H247.1v-7.65h1.6l.28,1h.11a2.24,2.24,0,0,1,1-.84,3.26,3.26,0,0,1,1.39-.28,2.69,2.69,0,0,1,2,.72,2.9,2.9,0,0,1,.69,2.08Z"/><path class="cls-9" d="M259.52,439.57a4.52,4.52,0,0,0,1.32-.24v1.55a4.58,4.58,0,0,1-1.92.35,2.35,2.35,0,0,1-1.82-.63,2.75,2.75,0,0,1-.57-1.9V435h-1v-.88l1.15-.7.6-1.61h1.33v1.62h2.14V435h-2.14v3.68a.84.84,0,0,0,.25.66A1,1,0,0,0,259.52,439.57Z"/><path class="cls-9" d="M262.29,431.48q0-1,1.14-1c.75,0,1.13.34,1.13,1a1,1,0,0,1-.28.75,1.19,1.19,0,0,1-.85.27Q262.29,432.5,262.29,431.48Zm2.18,9.62h-2.09v-7.65h2.09Z"/><path class="cls-9" d="M270.88,435h-1.81v6.08H267V435h-1.15v-1l1.15-.56v-.56a2.48,2.48,0,0,1,.64-1.9,2.92,2.92,0,0,1,2.06-.61,5.22,5.22,0,0,1,1.92.33l-.53,1.53a3.69,3.69,0,0,0-1.17-.2.77.77,0,0,0-.64.26,1.12,1.12,0,0,0-.2.68v.47h1.81Zm1.11-3.54c0-.68.37-1,1.13-1s1.14.34,1.14,1a1,1,0,0,1-.29.75,1.19,1.19,0,0,1-.85.27C272.36,432.5,272,432.16,272,431.48Zm2.17,9.62h-2.09v-7.65h2.09Z"/><path class="cls-9" d="M279.44,441.23c-2.38,0-3.56-1.3-3.56-3.91a4.16,4.16,0,0,1,1-3,3.61,3.61,0,0,1,2.78-1,5.27,5.27,0,0,1,2.38.52l-.62,1.61c-.33-.13-.63-.24-.91-.32a2.83,2.83,0,0,0-.85-.13c-1.09,0-1.63.77-1.63,2.31s.54,2.24,1.63,2.24a3.59,3.59,0,0,0,1.11-.16,3.75,3.75,0,0,0,1-.5v1.79a3.46,3.46,0,0,1-1,.44A6,6,0,0,1,279.44,441.23Z"/><path class="cls-9" d="M288.39,441.1l-.4-1h-.06a3.09,3.09,0,0,1-1.08.92,3.53,3.53,0,0,1-1.45.25,2.37,2.37,0,0,1-1.74-.63,2.41,2.41,0,0,1-.63-1.79,2,2,0,0,1,.85-1.79,4.9,4.9,0,0,1,2.57-.64l1.33,0V436a1,1,0,0,0-1.19-1.16,5.62,5.62,0,0,0-2.16.55l-.69-1.4a6.24,6.24,0,0,1,2.93-.69A3.65,3.65,0,0,1,289,434a2.47,2.47,0,0,1,.82,2v5.1Zm-.61-3.54-.81,0a2.56,2.56,0,0,0-1.35.33,1,1,0,0,0-.45.92c0,.58.34.88,1,.88a1.59,1.59,0,0,0,1.16-.42,1.48,1.48,0,0,0,.44-1.11Z"/><polygon class="cls-10" points="137.07 862.63 145.01 886.44 66.73 847.03 137.07 862.63"/><polygon class="cls-10" points="145.01 886.44 109.43 870.02 129.41 870.02 145.01 886.44"/><polygon class="cls-10" points="154.59 844.56 137.07 862.63 66.73 847.03 154.59 844.56"/><polygon class="cls-10" points="129.41 870.02 112.71 891.09 66.73 847.03 129.41 870.02"/><path d="M106.47,107.81a4.67,4.67,0,0,1,1.54,4.08c-.05,2.38,0,4.76,0,7.14a4.36,4.36,0,0,1-2.59,4.09c-1.8.9-1.81.88-1.68,3.1,1.46.06,1.4,1.14,1.39,2.22,0,2.38,0,4.76,0,7.14,0,1.38-.36,1.73-1.74,1.73H79.47c-1.26,0-1.64-.37-1.65-1.63,0-2.53,0-5.07,0-7.6,0-1,.21-1.77,1.37-1.84V112.7c-1.74.65-3.13,0-4.52-.88-1.82-1.11-3.68-2.17-5.54-3.21a4.49,4.49,0,0,1-2.51-5c.19-1.1-.08-1.73-1.1-2.09a4.9,4.9,0,0,1-.71-.39c-1.14.9-1.25.91-2.51.19L55.8,97.55c-1.07-.62-1.21-1.16-.58-2.25q6-10.38,12-20.75c.63-1.1,1.15-1.24,2.23-.62,2.22,1.27,4.43,2.57,6.66,3.83.86.48,1.35,1.06.81,2.12l11.75,6.79c.27-2.12,1.88-2.9,3.43-3.77,1.84-1,3.64-2.12,5.47-3.14a4.38,4.38,0,0,1,4.92.22c1.67,1.14,1.67,1.15,3.39-.08-.16-1.45-.12-1.53,1.19-2.28L113.4,74c1.14-.66,1.67-.52,2.32.59q6,10.38,12,20.76c.62,1.08.48,1.62-.6,2.24l-6.57,3.81c-1.14.65-1.38.62-2.4-.26ZM76.15,81.13,65.4,99.76l1.56.9c1.34.77,1.34.77,1.13,2.27a12.8,12.8,0,0,0-.13,1.64A2.73,2.73,0,0,0,69.33,107c2.4,1.44,4.82,2.85,7.28,4.21a2.27,2.27,0,0,0,3.33-1.33c-.19-.13-.39-.28-.59-.4-1.61-.93-3.23-1.84-4.83-2.78-.45-.27-1.12-.53-.73-1.23s.94-.3,1.43,0l.15.09q6.5,3.75,13,7.49a3.58,3.58,0,0,0,1.1.42,2.06,2.06,0,0,0,2.31-1.36,2.17,2.17,0,0,0-1.06-2.65l-10.2-5.9c-.24-.13-.55-.24-.67-.45a1,1,0,0,1-.08-.82.78.78,0,0,1,.66-.32,2.21,2.21,0,0,1,.83.35c3.38,1.94,6.75,3.9,10.13,5.83a2.16,2.16,0,0,0,3.16-.7,2.19,2.19,0,0,0-1.05-3l-6.81-3.94c-1.24-.71-2.5-1.4-3.7-2.18-.25-.16-.25-.69-.37-1a5.52,5.52,0,0,1,1-.19c.18,0,.36.2.55.31l10,5.75a2.15,2.15,0,0,0,3.17-.64,2.18,2.18,0,0,0-1-3.08l-6.49-3.74-3.89-2.24c-.45-.26-.74-.61-.46-1.11s.75-.41,1.19-.16l.47.27L97.2,98.23a2.07,2.07,0,0,0,2.48-.11,1.81,1.81,0,0,0,.72-2.18,3.35,3.35,0,0,0-1.31-1.52C93.2,91,87.28,87.56,81.37,84.14Zm16.8,8c.36.22.53.34.71.44,2.17,1.26,4.34,2.49,6.48,3.78a3.54,3.54,0,0,1,1.34,4.91A3.71,3.71,0,0,1,98.89,100c.74,2.68-.55,4.25-2.86,5.31a4.42,4.42,0,0,0,1.36-.57c1.55-.89,3.1-1.81,4.68-2.65a.46.46,0,0,1,.2,0,.7.7,0,0,1,.61,1.07.5.5,0,0,1-.12.13c-.51.43-1.16.66-1.7,1.06-1.94,1.41-4.54,1.89-5.76,4.35-.34.67-1.36,1-1.93,1.41L93,113.59a11.83,11.83,0,0,0,1.75-.7q9.1-5.22,18.2-10.49l4.56-2.64-10.73-18.6-.72.39c-2.72,1.48-1.73,1.56-4.22-.25a3.11,3.11,0,0,0-3.67-.22c-2.24,1.3-4.51,2.56-6.72,3.9a3,3,0,0,0-1.14,1.24,1.6,1.6,0,0,0,.1,1.39,1.23,1.23,0,0,0,1.76.29c1.4-.91,2.88-1.71,4.35-2.51a1.27,1.27,0,0,1,.92,0,.66.66,0,0,1,.25.6,1.51,1.51,0,0,1-.6.72C95.77,87.49,94.42,88.25,93,89.11Zm9.28,37.12c0-.39,0-.66,0-.94.06-2.93-.47-2.14,2.2-3.32a3.2,3.2,0,0,0,2.12-3.2c0-2.56,0-5.12,0-7.68a2.54,2.54,0,0,0-.41-1.45,1.9,1.9,0,0,0-1.35-.78,1.25,1.25,0,0,0-1.13,1.46c.1,1.52,0,3.05,0,4.57,0,.56.07,1.23-.71,1.24s-.74-.71-.74-1.28V111.1c0-.22,0-.44-.09-.77-2.34,1.34-4.59,2.62-6.82,3.93a3.9,3.9,0,0,1-3.49.44.82.82,0,0,0-.52-.07c-1.75.74-3.19,0-4.63-.89-1.74-1.06-3.53-2-5.49-3.16a7.87,7.87,0,0,0-.49,1.78c0,4.33,0,8.66,0,13,0,.29,0,.58,0,.88Zm-38.81-26,12.19-21.1-7-4.07L56.38,96.2Zm43.89-21.1,12.18,21.1,7-4.07c-4.09-7.1-8.13-14.08-12.18-21.1Zm-28,56.62H103.6v-8H79.31Z"/><path class="cls-4" d="M55.65,514.29a68.18,68.18,0,0,1,36-126.88l-1.22,35L74.36,482.74Z"/><path class="cls-4" d="M91.13,523.74a68.18,68.18,0,0,0,33.36-127.17l-14,25.67-21.8,70.55Z"/><circle class="cls-5" cx="90.31" cy="455.57" r="57.24" transform="matrix(0.64, -0.77, 0.77, 0.64, -316.79, 232.02)"/><circle class="cls-6" cx="90.31" cy="455.57" r="53.33"/><path class="cls-11" d="M66.17,439.11a4,4,0,0,1,3.61-2.28h43a4,4,0,0,1,3.6,2.28,3.82,3.82,0,0,1-.6,4.23L97.68,465.62v12.66a3.2,3.2,0,0,1-5.11,2.55l-6.37-4.78a3.16,3.16,0,0,1-1.28-2.55v-7.88L66.69,443.34A4,4,0,0,1,66.17,439.11Z"/><path class="cls-8" d="M209.6,608.83a68.16,68.16,0,0,1,104.85,80l-32.13-13.95L232.1,637.79Z"/><path class="cls-8" d="M187.82,638.38A68.16,68.16,0,0,0,293.91,716l-18.76-22.41L217.5,647.44Z"/><circle class="cls-5" cx="251.54" cy="662.57" r="57.22" transform="translate(-285.98 200.67) rotate(-28.54)"/><circle class="cls-6" cx="251.53" cy="662.59" r="53.32"/><path class="cls-11" d="M222.48,671.52h4v3.93c0,.29,0,.57,0,.85h-4a2.39,2.39,0,0,1,0-4.78Zm16.74-20.72a3.19,3.19,0,0,1-6.38,0v-3.19a9.57,9.57,0,0,1,19.13,0v.78a53.57,53.57,0,0,1-.36,6.2l12.19-3.66a3,3,0,0,1,3.12.83,3.09,3.09,0,0,1,.83,3.23l-1.8,5.28h8.33a3.25,3.25,0,0,1,3.19,3.19,3.14,3.14,0,0,1-3.19,3.19H261.53a3.1,3.1,0,0,1-2.59-1.24,3.19,3.19,0,0,1-.44-2.87l1.25-3.73-9.41,2.82a53.68,53.68,0,0,1-5.81,15L243.14,679a7.19,7.19,0,0,1-6.26,3.63,7.29,7.29,0,0,1-7.31-7.22v-7.16a9.62,9.62,0,0,1,6.9-9.15l8.41-2.53a48,48,0,0,0,.62-8.22v-.78a3.13,3.13,0,0,0-3.18-3.19,3.24,3.24,0,0,0-3.19,3.19ZM236,668.29v7.16a.85.85,0,0,0,.85.85.82.82,0,0,0,.73-.43l1.39-2.42a48.39,48.39,0,0,0,4.18-9.67l-4.88,1.37A3.39,3.39,0,0,0,236,668.29Zm45.42,8H248.33c.82-1.57,1.57-3.16,2.23-4.78h30.89a2.39,2.39,0,0,1,0,4.78Z"/><path class="cls-9" d="M247.08,463.8H245v-4.47a2.31,2.31,0,0,0-.27-1.24,1,1,0,0,0-.87-.41,1.26,1.26,0,0,0-1.17.59,3.85,3.85,0,0,0-.36,1.93v3.6h-2.08v-7.65h1.59l.28,1h.12a2.12,2.12,0,0,1,.88-.82,2.91,2.91,0,0,1,1.34-.3,2.39,2.39,0,0,1,2.32,1.12H247a2.08,2.08,0,0,1,.9-.83,3.11,3.11,0,0,1,1.35-.29,2.66,2.66,0,0,1,2,.67,2.92,2.92,0,0,1,.66,2.13v5h-2.09v-4.47a2.31,2.31,0,0,0-.27-1.24,1,1,0,0,0-.88-.41,1.28,1.28,0,0,0-1.14.55,3.1,3.1,0,0,0-.38,1.73Z"/><path class="cls-9" d="M258.84,463.8l-.41-1h-.05a3.09,3.09,0,0,1-1.08.92,3.58,3.58,0,0,1-1.46.25,2.34,2.34,0,0,1-1.73-.63,2.4,2.4,0,0,1-.63-1.79,2,2,0,0,1,.85-1.79,4.88,4.88,0,0,1,2.57-.64l1.32,0v-.34a1,1,0,0,0-1.19-1.16,5.4,5.4,0,0,0-2.15.56l-.69-1.41a6.2,6.2,0,0,1,2.92-.69,3.61,3.61,0,0,1,2.36.67,2.44,2.44,0,0,1,.82,2v5.1Zm-.62-3.54-.8,0a2.63,2.63,0,0,0-1.36.33,1,1,0,0,0-.44.92c0,.58.33.88,1,.88a1.6,1.6,0,0,0,1.16-.42,1.47,1.47,0,0,0,.43-1.11Z"/><path class="cls-9" d="M261.35,456.15h2.28l1.44,4.3a5.94,5.94,0,0,1,.25,1.33h.05a5.72,5.72,0,0,1,.29-1.33l1.41-4.3h2.24l-3.23,8.62a3.71,3.71,0,0,1-1.27,1.79,3.19,3.19,0,0,1-1.93.6,4.72,4.72,0,0,1-1.06-.12v-1.65a3.58,3.58,0,0,0,.83.09,1.5,1.5,0,0,0,1-.34,2.25,2.25,0,0,0,.65-1l.12-.38Z"/><path class="cls-9" d="M277.35,460a4.08,4.08,0,0,1-1,2.92,3.56,3.56,0,0,1-2.74,1.05,3.85,3.85,0,0,1-1.94-.48,3.19,3.19,0,0,1-1.29-1.38,4.68,4.68,0,0,1-.45-2.11,4,4,0,0,1,1-2.91,3.58,3.58,0,0,1,2.74-1,3.86,3.86,0,0,1,1.95.48,3.22,3.22,0,0,1,1.29,1.37A4.64,4.64,0,0,1,277.35,460Zm-5.29,0a3.2,3.2,0,0,0,.38,1.72,1.34,1.34,0,0,0,1.21.58,1.29,1.29,0,0,0,1.2-.58,3.28,3.28,0,0,0,.37-1.72,3.2,3.2,0,0,0-.37-1.7,1.57,1.57,0,0,0-2.42,0A3.18,3.18,0,0,0,272.06,460Z"/><path class="cls-9" d="M285.13,463.93a2.5,2.5,0,0,1-2.12-1,4.85,4.85,0,0,1-.77-2.9,4.77,4.77,0,0,1,.79-2.93,2.53,2.53,0,0,1,2.15-1.05,2.48,2.48,0,0,1,2.2,1.12h.07a8.94,8.94,0,0,1-.15-1.52v-2.45h2.09V463.8h-1.6l-.41-1h-.08A2.4,2.4,0,0,1,285.13,463.93Zm.73-1.66a1.41,1.41,0,0,0,1.17-.46,2.68,2.68,0,0,0,.41-1.58V460a3.12,3.12,0,0,0-.38-1.76,1.39,1.39,0,0,0-1.23-.53,1.22,1.22,0,0,0-1.09.59,3.11,3.11,0,0,0-.38,1.72,3,3,0,0,0,.39,1.69A1.28,1.28,0,0,0,285.86,462.27Z"/><path class="cls-9" d="M295,463.93a4,4,0,0,1-2.89-1,3.85,3.85,0,0,1-1-2.88,4.24,4.24,0,0,1,1-3,3.43,3.43,0,0,1,2.66-1.05,3.38,3.38,0,0,1,2.52.92,3.51,3.51,0,0,1,.9,2.55v1h-4.92a2,2,0,0,0,.52,1.39,1.83,1.83,0,0,0,1.38.5,6.12,6.12,0,0,0,1.31-.14,6.61,6.61,0,0,0,1.28-.46v1.61a4.51,4.51,0,0,1-1.17.41A7.25,7.25,0,0,1,295,463.93Zm-.3-6.44a1.33,1.33,0,0,0-1,.42,2,2,0,0,0-.43,1.2h2.93a1.75,1.75,0,0,0-.4-1.2A1.39,1.39,0,0,0,294.73,457.49Z"/><path class="cls-9" d="M309.93,463.8h-7v-1.47l2.51-2.54c.74-.76,1.23-1.29,1.46-1.58a3.53,3.53,0,0,0,.49-.82,2.08,2.08,0,0,0,.15-.78,1.12,1.12,0,0,0-.33-.89,1.28,1.28,0,0,0-.89-.3,2.5,2.5,0,0,0-1.12.27,5.83,5.83,0,0,0-1.15.76l-1.14-1.36a7,7,0,0,1,1.22-.89,4.47,4.47,0,0,1,1.06-.4,5.58,5.58,0,0,1,1.28-.14,3.79,3.79,0,0,1,1.66.34,2.61,2.61,0,0,1,1.11,1,2.5,2.5,0,0,1,.4,1.41,3.44,3.44,0,0,1-.24,1.29,5.25,5.25,0,0,1-.76,1.24,16.92,16.92,0,0,1-1.79,1.81l-1.29,1.21v.1h4.36Z"/><path class="cls-9" d="M317.87,458.8a7,7,0,0,1-.86,3.88,3,3,0,0,1-2.64,1.25,2.92,2.92,0,0,1-2.61-1.3,6.8,6.8,0,0,1-.88-3.83,7.05,7.05,0,0,1,.85-3.9A3.32,3.32,0,0,1,317,455,6.85,6.85,0,0,1,317.87,458.8Zm-4.89,0a7.55,7.55,0,0,0,.32,2.63,1.09,1.09,0,0,0,1.07.8,1.11,1.11,0,0,0,1.06-.81,10.65,10.65,0,0,0,0-5.26,1.12,1.12,0,0,0-1.06-.81,1.1,1.1,0,0,0-1.07.81A7.57,7.57,0,0,0,313,458.8Z"/><path class="cls-9" d="M325.91,463.8h-7v-1.47l2.5-2.54c.75-.76,1.23-1.29,1.46-1.58a3.53,3.53,0,0,0,.49-.82,2.08,2.08,0,0,0,.15-.78,1.12,1.12,0,0,0-.33-.89,1.25,1.25,0,0,0-.88-.3,2.51,2.51,0,0,0-1.13.27,5.51,5.51,0,0,0-1.14.76l-1.15-1.36a7.34,7.34,0,0,1,1.22-.89,4.47,4.47,0,0,1,1.06-.4,5.6,5.6,0,0,1,1.29-.14,3.77,3.77,0,0,1,1.65.34,2.61,2.61,0,0,1,1.11,1,2.5,2.5,0,0,1,.4,1.41,3.44,3.44,0,0,1-.24,1.29,4.88,4.88,0,0,1-.75,1.24,17.26,17.26,0,0,1-1.8,1.81l-1.28,1.21v.1h4.35Z"/><path class="cls-9" d="M333.9,463.8h-7v-1.47l2.51-2.54c.74-.76,1.22-1.29,1.45-1.58a3.53,3.53,0,0,0,.49-.82,2.08,2.08,0,0,0,.15-.78,1.12,1.12,0,0,0-.33-.89,1.25,1.25,0,0,0-.88-.3,2.51,2.51,0,0,0-1.13.27,5.51,5.51,0,0,0-1.14.76l-1.15-1.36a7.34,7.34,0,0,1,1.22-.89,4.64,4.64,0,0,1,1.06-.4,5.67,5.67,0,0,1,1.29-.14,3.77,3.77,0,0,1,1.65.34,2.7,2.7,0,0,1,1.12,1,2.58,2.58,0,0,1,.39,1.41,3.44,3.44,0,0,1-.24,1.29,4.88,4.88,0,0,1-.75,1.24,17.26,17.26,0,0,1-1.8,1.81l-1.28,1.21v.1h4.35Z"/><rect id="stage-2__desde-box" class="cls-11" x="170.42" y="449.59" width="61.91" height="20.52" rx="4"/><g id="stage-2__desde"><path class="cls-6" d="M180.2,463.35a2.12,2.12,0,0,1-1.81-.9,5,5,0,0,1,0-5,2.19,2.19,0,0,1,1.85-.9,2.16,2.16,0,0,1,1.89,1h.06a7.32,7.32,0,0,1-.14-1.31v-2.09h1.79v9.11h-1.37l-.34-.85h-.08A2,2,0,0,1,180.2,463.35Zm.63-1.42a1.25,1.25,0,0,0,1-.4,2.38,2.38,0,0,0,.34-1.36V460a2.65,2.65,0,0,0-.32-1.51,1.2,1.2,0,0,0-1.06-.46,1,1,0,0,0-.93.51,2.71,2.71,0,0,0-.33,1.47,2.48,2.48,0,0,0,.34,1.45A1.09,1.09,0,0,0,180.83,461.93Z"/><path class="cls-6" d="M190.36,463.23l-.24-.84H190a1.87,1.87,0,0,1-.81.71,2.79,2.79,0,0,1-1.21.25,2.29,2.29,0,0,1-1.74-.62,2.48,2.48,0,0,1-.58-1.78v-4.27h1.79v3.83a1.82,1.82,0,0,0,.25,1.06.91.91,0,0,0,.8.36,1.19,1.19,0,0,0,1.08-.51,3,3,0,0,0,.34-1.66v-3.08h1.78v6.55Z"/><path class="cls-6" d="M197.27,456.56a3.28,3.28,0,0,1,.6.05l-.14,1.68a2,2,0,0,0-.52-.06,1.88,1.88,0,0,0-1.34.44,1.6,1.6,0,0,0-.47,1.23v3.33h-1.79v-6.55H195l.27,1.1h.08a2.5,2.5,0,0,1,.83-.88A2,2,0,0,1,197.27,456.56Z"/><path class="cls-6" d="M203.22,463.23l-.35-.89h0a2.65,2.65,0,0,1-.93.79,3,3,0,0,1-1.25.22,2,2,0,0,1-1.48-.54,2.07,2.07,0,0,1-.54-1.53,1.73,1.73,0,0,1,.72-1.54,4.2,4.2,0,0,1,2.21-.55l1.13,0v-.28a.89.89,0,0,0-1-1,4.57,4.57,0,0,0-1.84.48l-.6-1.21a5.28,5.28,0,0,1,2.51-.59,3.12,3.12,0,0,1,2,.57,2.13,2.13,0,0,1,.71,1.75v4.36Zm-.53-3-.69,0a2.26,2.26,0,0,0-1.16.28.9.9,0,0,0-.38.79q0,.75.87.75a1.41,1.41,0,0,0,1-.35,1.26,1.26,0,0,0,.37-.95Z"/><path class="cls-6" d="M212.35,463.23h-1.78v-3.82a1.83,1.83,0,0,0-.26-1.07.91.91,0,0,0-.8-.35,1.2,1.2,0,0,0-1.08.5,3.12,3.12,0,0,0-.34,1.66v3.08h-1.78v-6.55h1.36l.24.84h.1a1.88,1.88,0,0,1,.83-.72,2.81,2.81,0,0,1,1.19-.24,2.25,2.25,0,0,1,1.73.62,2.44,2.44,0,0,1,.59,1.78Z"/><path class="cls-6" d="M217,461.93a3.79,3.79,0,0,0,1.13-.21v1.33a4,4,0,0,1-1.64.3,2,2,0,0,1-1.56-.54,2.35,2.35,0,0,1-.49-1.63V458h-.86v-.75l1-.6.51-1.38h1.14v1.39H218V458h-1.84v3.16a.69.69,0,0,0,.22.56A.79.79,0,0,0,217,461.93Z"/><path class="cls-6" d="M222.37,463.35a3.37,3.37,0,0,1-2.47-.87A3.31,3.31,0,0,1,219,460a3.63,3.63,0,0,1,.83-2.54,2.93,2.93,0,0,1,2.27-.9,2.89,2.89,0,0,1,2.17.79,3,3,0,0,1,.77,2.19v.86h-4.23a1.68,1.68,0,0,0,.46,1.19,1.56,1.56,0,0,0,1.18.43,5.06,5.06,0,0,0,1.12-.12,6.15,6.15,0,0,0,1.1-.4v1.39a4.73,4.73,0,0,1-1,.35A6.85,6.85,0,0,1,222.37,463.35Zm-.25-5.52a1.12,1.12,0,0,0-.89.36,1.63,1.63,0,0,0-.37,1h2.5a1.46,1.46,0,0,0-.34-1A1.18,1.18,0,0,0,222.12,457.83Z"/></g><g id="stage-4__title"><path class="cls-4" d="M37,739.54h7.2v2.4H39.66v4.44h3.63v2.4H39.66v5.16h4.56v2.4H37Z"/><path class="cls-4" d="M45.73,739.54h2.64v14.4h4.35v2.4h-7Z"/><path class="cls-4" d="M56.12,739.54H59.7l2.74,16.8H59.8L59.32,753v0h-3l-.48,3.29H53.39ZM59,750.77l-1.17-8.3h0l-1.15,8.3Z"/><path class="cls-4" d="M63.71,739.54h4a3.37,3.37,0,0,1,3.91,3.86v.67a4.65,4.65,0,0,1-.42,2.12,2.44,2.44,0,0,1-1.28,1.17v0c1.31.45,2,1.62,2,3.5v1.44a3.58,3.58,0,0,1-4,4H63.71Zm3.67,6.84a1.6,1.6,0,0,0,1.19-.41A2,2,0,0,0,69,744.6v-.93a2.1,2.1,0,0,0-.32-1.32,1.21,1.21,0,0,0-1-.41H66.35v4.44Zm.48,7.56a1.35,1.35,0,0,0,1-.37,1.9,1.9,0,0,0,.34-1.29v-1.46a2.41,2.41,0,0,0-.4-1.6,1.69,1.69,0,0,0-1.31-.44H66.35v5.16Z"/><path class="cls-4" d="M74.24,755.47a4.41,4.41,0,0,1-1-3.12v-8.83a4.45,4.45,0,0,1,1-3.12,4.59,4.59,0,0,1,6,0,4.45,4.45,0,0,1,1,3.12v8.83a4.41,4.41,0,0,1-1,3.12,4.56,4.56,0,0,1-6,0Zm4.35-3v-9.17c0-1.1-.46-1.65-1.37-1.65s-1.37.55-1.37,1.65v9.17c0,1.11.46,1.66,1.37,1.66S78.59,753.63,78.59,752.52Z"/><path class="cls-4" d="M83,739.54h3.92a3.38,3.38,0,0,1,3.91,3.86v1c0,1.75-.58,2.85-1.73,3.32v0A2.11,2.11,0,0,1,90.46,749a6,6,0,0,1,.39,2.38v2.95a11.61,11.61,0,0,0,.05,1.16,2.82,2.82,0,0,0,.24.88H88.45a4.11,4.11,0,0,1-.19-.77,11.93,11.93,0,0,1-.05-1.3V751.2a2.61,2.61,0,0,0-.37-1.61,1.59,1.59,0,0,0-1.28-.45h-.92v7.2H83Zm3.6,7.2a1.59,1.59,0,0,0,1.19-.41,1.9,1.9,0,0,0,.4-1.37v-1.29a2.1,2.1,0,0,0-.33-1.32,1.19,1.19,0,0,0-1-.41h-1.2v4.8Z"/><path class="cls-4" d="M94.72,739.54h3.57l2.74,16.8H98.39L97.91,753v0h-3l-.48,3.29H92Zm2.88,11.23-1.18-8.3h0l-1.15,8.3Z"/><path class="cls-4" d="M103.08,755.5a4.36,4.36,0,0,1-1-3v-9a4.34,4.34,0,0,1,1-3,4.41,4.41,0,0,1,5.78,0,4.3,4.3,0,0,1,1,3v1.77h-2.5v-1.94q0-1.56-1.32-1.56t-1.32,1.56v9.38c0,1,.44,1.54,1.32,1.54s1.32-.51,1.32-1.54v-2.57h2.5v2.38a4.31,4.31,0,0,1-1,3,4.41,4.41,0,0,1-5.78,0Z"/><path class="cls-4" d="M111.44,739.54h2.64v16.8h-2.64Z"/><path class="cls-4" d="M116.89,755.47a4.37,4.37,0,0,1-1-3.12v-8.83a4.4,4.4,0,0,1,1-3.12,4.57,4.57,0,0,1,6,0,4.4,4.4,0,0,1,1,3.12v8.83a4.37,4.37,0,0,1-1,3.12,4.54,4.54,0,0,1-6,0Zm3.22-19.82H123l-2.57,2.76h-2Zm1.13,16.87v-9.17c0-1.1-.46-1.65-1.37-1.65s-1.37.55-1.37,1.65v9.17c0,1.11.46,1.66,1.37,1.66S121.24,753.63,121.24,752.52Z"/><path class="cls-4" d="M125.65,739.54H129l2.57,10.05h.05V739.54h2.35v16.8h-2.71l-3.17-12.27H128v12.27h-2.35Z"/></g><rect id="stage-4__desde-box" class="cls-4" x="36.34" y="802.87" width="109.17" height="20.52" rx="4"/><g id="stage-4__slogan"><path class="cls-9" d="M143.71,756.47a2.45,2.45,0,0,1-2.11-1,4.78,4.78,0,0,1-.77-2.9,4.84,4.84,0,0,1,.78-2.93,2.54,2.54,0,0,1,2.16-1.05,2.49,2.49,0,0,1,2.2,1.12H146a8.11,8.11,0,0,1-.16-1.52V745.7H148v10.64h-1.6l-.4-1h-.09A2.4,2.4,0,0,1,143.71,756.47Zm.73-1.66a1.39,1.39,0,0,0,1.17-.46,2.68,2.68,0,0,0,.41-1.58v-.23a3.06,3.06,0,0,0-.38-1.76,1.39,1.39,0,0,0-1.23-.53,1.22,1.22,0,0,0-1.09.59,3.22,3.22,0,0,0-.38,1.72,3,3,0,0,0,.39,1.69A1.28,1.28,0,0,0,144.44,754.81Z"/><path class="cls-9" d="M153.61,756.47a4,4,0,0,1-2.88-1,3.83,3.83,0,0,1-1-2.89,4.24,4.24,0,0,1,1-3,3.89,3.89,0,0,1,5.17-.13,3.48,3.48,0,0,1,.91,2.55v1H151.8a2,2,0,0,0,.52,1.38,1.84,1.84,0,0,0,1.39.5,6,6,0,0,0,1.3-.14,6.94,6.94,0,0,0,1.29-.46v1.61a4.78,4.78,0,0,1-1.17.41A7.35,7.35,0,0,1,153.61,756.47Zm-.29-6.43a1.31,1.31,0,0,0-1,.41,1.94,1.94,0,0,0-.43,1.2h2.92a1.77,1.77,0,0,0-.4-1.2A1.36,1.36,0,0,0,153.32,750Z"/><path class="cls-9" d="M164.48,756.47a2.48,2.48,0,0,1-2.12-1,4.85,4.85,0,0,1-.77-2.9,4.77,4.77,0,0,1,.79-2.93,2.53,2.53,0,0,1,2.15-1.05,2.48,2.48,0,0,1,2.2,1.12h.07a8.94,8.94,0,0,1-.15-1.52V745.7h2.09v10.64h-1.6l-.41-1h-.08A2.4,2.4,0,0,1,164.48,756.47Zm.73-1.66a1.41,1.41,0,0,0,1.17-.46,2.68,2.68,0,0,0,.41-1.58v-.23a3.15,3.15,0,0,0-.38-1.76,1.39,1.39,0,0,0-1.23-.53,1.22,1.22,0,0,0-1.09.59,3.22,3.22,0,0,0-.38,1.72,3,3,0,0,0,.39,1.69A1.28,1.28,0,0,0,165.21,754.81Z"/><path class="cls-9" d="M177.86,752.5a4.08,4.08,0,0,1-1,2.92,3.58,3.58,0,0,1-2.74,1.05,3.82,3.82,0,0,1-1.94-.48,3.27,3.27,0,0,1-1.3-1.38,4.68,4.68,0,0,1-.45-2.11,4.08,4.08,0,0,1,1-2.91,3.6,3.6,0,0,1,2.75-1,3.85,3.85,0,0,1,1.94.48,3.22,3.22,0,0,1,1.29,1.37A4.64,4.64,0,0,1,177.86,752.5Zm-5.28,0a3.21,3.21,0,0,0,.37,1.72,1.33,1.33,0,0,0,1.22.58,1.29,1.29,0,0,0,1.19-.58,3.19,3.19,0,0,0,.37-1.72,3.13,3.13,0,0,0-.37-1.7,1.56,1.56,0,0,0-2.41,0A3.09,3.09,0,0,0,172.58,752.5Z"/><path class="cls-9" d="M182.69,756.47q-3.57,0-3.57-3.91a4.18,4.18,0,0,1,1-3,3.64,3.64,0,0,1,2.78-1,5.24,5.24,0,0,1,2.38.52l-.61,1.61c-.33-.13-.64-.24-.92-.32a3.07,3.07,0,0,0-.85-.13q-1.62,0-1.62,2.31t1.62,2.25a3.65,3.65,0,0,0,1.12-.17,3.7,3.7,0,0,0,1-.5v1.79a3.25,3.25,0,0,1-1,.44A5.87,5.87,0,0,1,182.69,756.47Z"/><path class="cls-9" d="M192.2,756.34l-.28-1h-.11a2.12,2.12,0,0,1-.95.82,3.16,3.16,0,0,1-1.4.29,2.66,2.66,0,0,1-2-.72,2.88,2.88,0,0,1-.69-2.07v-5h2.09v4.46a2.2,2.2,0,0,0,.29,1.24,1.07,1.07,0,0,0,.94.41,1.4,1.4,0,0,0,1.26-.58,3.64,3.64,0,0,0,.39-1.94V748.7h2.09v7.64Z"/><path class="cls-9" d="M202.83,756.34h-2.09v-4.47a2.31,2.31,0,0,0-.27-1.24,1,1,0,0,0-.87-.41,1.25,1.25,0,0,0-1.17.59,3.85,3.85,0,0,0-.36,1.93v3.6H196V748.7h1.59l.28,1H198a2.12,2.12,0,0,1,.88-.82,2.88,2.88,0,0,1,1.34-.3,2.4,2.4,0,0,1,2.32,1.12h.19a2,2,0,0,1,.9-.82,3,3,0,0,1,1.35-.3,2.66,2.66,0,0,1,2,.67,2.92,2.92,0,0,1,.66,2.13v5H205.5v-4.47a2.21,2.21,0,0,0-.28-1.24,1,1,0,0,0-.87-.41,1.28,1.28,0,0,0-1.14.55,3,3,0,0,0-.38,1.73Z"/><path class="cls-9" d="M213.19,756.47a4,4,0,0,1-2.88-1,3.83,3.83,0,0,1-1-2.89,4.24,4.24,0,0,1,1-3,3.9,3.9,0,0,1,5.18-.13,3.51,3.51,0,0,1,.9,2.55v1h-4.93a2,2,0,0,0,.53,1.38,1.8,1.8,0,0,0,1.38.5,6,6,0,0,0,1.3-.14,6.94,6.94,0,0,0,1.29-.46v1.61a4.78,4.78,0,0,1-1.17.41A7.35,7.35,0,0,1,213.19,756.47ZM212.9,750a1.32,1.32,0,0,0-1,.41,1.94,1.94,0,0,0-.43,1.2h2.92a1.77,1.77,0,0,0-.4-1.2A1.36,1.36,0,0,0,212.9,750Z"/><path class="cls-9" d="M225.06,756.34H223v-4.47a2.12,2.12,0,0,0-.29-1.24,1.09,1.09,0,0,0-.94-.41,1.4,1.4,0,0,0-1.26.58,3.64,3.64,0,0,0-.39,1.94v3.6H218V748.7h1.6l.28,1H220a2.3,2.3,0,0,1,1-.84,3.46,3.46,0,0,1,1.4-.28,2.68,2.68,0,0,1,2,.72,2.9,2.9,0,0,1,.69,2.08Z"/><path class="cls-9" d="M230.43,754.81a4.52,4.52,0,0,0,1.31-.24v1.56a4.75,4.75,0,0,1-1.92.34,2.35,2.35,0,0,1-1.82-.63,2.74,2.74,0,0,1-.57-1.89v-3.69h-1v-.88l1.15-.7.6-1.61h1.34v1.63h2.14v1.56h-2.14V754a.8.8,0,0,0,.25.65A1,1,0,0,0,230.43,754.81Z"/><path class="cls-9" d="M240.23,752.5a4.08,4.08,0,0,1-1,2.92,3.56,3.56,0,0,1-2.74,1.05,3.85,3.85,0,0,1-1.94-.48,3.19,3.19,0,0,1-1.29-1.38,4.68,4.68,0,0,1-.45-2.11,4,4,0,0,1,1-2.91,3.58,3.58,0,0,1,2.74-1,3.82,3.82,0,0,1,1.94.48,3.19,3.19,0,0,1,1.3,1.37A4.64,4.64,0,0,1,240.23,752.5Zm-5.29,0a3.2,3.2,0,0,0,.38,1.72,1.31,1.31,0,0,0,1.21.58,1.29,1.29,0,0,0,1.2-.58,3.28,3.28,0,0,0,.37-1.72,3.22,3.22,0,0,0-.37-1.7,1.57,1.57,0,0,0-2.42,0A3.18,3.18,0,0,0,234.94,752.5Z"/><path class="cls-9" d="M39.23,774.5a2.47,2.47,0,0,1-2.11-1,4.78,4.78,0,0,1-.77-2.9,4.84,4.84,0,0,1,.78-2.93,2.54,2.54,0,0,1,2.16-1,2.49,2.49,0,0,1,2.2,1.12h.07a8.11,8.11,0,0,1-.16-1.52v-2.45h2.09v10.64h-1.6l-.4-1H41.4A2.39,2.39,0,0,1,39.23,774.5Zm.74-1.66a1.41,1.41,0,0,0,1.17-.46,2.69,2.69,0,0,0,.4-1.58v-.23a3.13,3.13,0,0,0-.37-1.76,1.42,1.42,0,0,0-1.24-.53,1.2,1.2,0,0,0-1.08.59,3.11,3.11,0,0,0-.39,1.72,3,3,0,0,0,.39,1.69A1.26,1.26,0,0,0,40,772.84Z"/><path class="cls-9" d="M49.13,774.5a4,4,0,0,1-2.88-1,3.89,3.89,0,0,1-1-2.89,4.24,4.24,0,0,1,1-3,3.9,3.9,0,0,1,5.18-.13,3.51,3.51,0,0,1,.9,2.55v1H47.32a2,2,0,0,0,.53,1.38,1.83,1.83,0,0,0,1.38.5,6,6,0,0,0,1.3-.14,6.94,6.94,0,0,0,1.29-.46V774a4.78,4.78,0,0,1-1.17.41A7.35,7.35,0,0,1,49.13,774.5Zm-.29-6.44a1.3,1.3,0,0,0-1,.43,1.89,1.89,0,0,0-.43,1.19h2.92a1.68,1.68,0,0,0-.4-1.19A1.34,1.34,0,0,0,48.84,768.06Z"/><path class="cls-9" d="M64.65,767.49a3.06,3.06,0,0,1-1,2.47,4.31,4.31,0,0,1-2.87.85h-.91v3.56H57.75v-10h3.19a4.19,4.19,0,0,1,2.76.79A2.85,2.85,0,0,1,64.65,767.49Zm-4.79,1.59h.7a2.29,2.29,0,0,0,1.46-.39,1.33,1.33,0,0,0,.49-1.12,1.41,1.41,0,0,0-.41-1.11,1.93,1.93,0,0,0-1.27-.35h-1Z"/><path class="cls-9" d="M73.32,770.53a4.08,4.08,0,0,1-1,2.92,3.56,3.56,0,0,1-2.74,1,3.85,3.85,0,0,1-1.94-.48,3.19,3.19,0,0,1-1.29-1.38,4.68,4.68,0,0,1-.45-2.11,4,4,0,0,1,1-2.91,3.58,3.58,0,0,1,2.74-1,3.82,3.82,0,0,1,1.94.48,3.19,3.19,0,0,1,1.3,1.37A4.64,4.64,0,0,1,73.32,770.53Zm-5.29,0a3.2,3.2,0,0,0,.38,1.72,1.31,1.31,0,0,0,1.21.58,1.29,1.29,0,0,0,1.2-.58,3.28,3.28,0,0,0,.37-1.72,3.22,3.22,0,0,0-.37-1.7,1.57,1.57,0,0,0-2.42,0A3.18,3.18,0,0,0,68,770.53Z"/><path class="cls-9" d="M77.13,774.37H75V763.73h2.09Z"/><path class="cls-9" d="M79.21,765.88v-.18a20.19,20.19,0,0,0,1.61-2.06h2.33v.15c-.23.23-.64.58-1.21,1.05s-1,.82-1.34,1Zm2.19,8.49H79.31v-7.65H81.4Z"/><path class="cls-9" d="M86.81,772.84a4.52,4.52,0,0,0,1.31-.24v1.56a4.75,4.75,0,0,1-1.92.34,2.35,2.35,0,0,1-1.82-.63,2.75,2.75,0,0,1-.57-1.9v-3.68h-1v-.88l1.15-.7.6-1.61H85.9v1.62H88v1.57H85.9V772a.8.8,0,0,0,.25.66A1,1,0,0,0,86.81,772.84Z"/><path class="cls-9" d="M89.57,764.75q0-1,1.14-1c.76,0,1.13.34,1.13,1a1,1,0,0,1-.28.75,1.19,1.19,0,0,1-.85.27Q89.57,765.77,89.57,764.75Zm2.18,9.62H89.66v-7.65h2.09Z"/><path class="cls-9" d="M97,774.5q-3.57,0-3.57-3.91a4.18,4.18,0,0,1,1-3,3.64,3.64,0,0,1,2.78-1,5.24,5.24,0,0,1,2.38.52L99,768.71c-.33-.13-.64-.24-.92-.32a2.74,2.74,0,0,0-.85-.13q-1.62,0-1.62,2.31t1.62,2.25a4,4,0,0,0,1.12-.16,4.05,4.05,0,0,0,1-.51v1.79a3.25,3.25,0,0,1-1,.44A5.87,5.87,0,0,1,97,774.5Z"/><path class="cls-9" d="M106,774.37l-.41-1h0a3.09,3.09,0,0,1-1.08.92,3.58,3.58,0,0,1-1.46.25,2.34,2.34,0,0,1-1.73-.63,2.4,2.4,0,0,1-.63-1.79,2,2,0,0,1,.85-1.79,4.88,4.88,0,0,1,2.57-.64l1.32,0v-.34a1,1,0,0,0-1.19-1.16,5.4,5.4,0,0,0-2.15.56l-.69-1.41a6.2,6.2,0,0,1,2.92-.69,3.61,3.61,0,0,1,2.36.67,2.44,2.44,0,0,1,.82,2v5.1Zm-.62-3.54-.81,0a2.62,2.62,0,0,0-1.35.33,1,1,0,0,0-.44.92c0,.59.33.88,1,.88a1.6,1.6,0,0,0,1.16-.42,1.44,1.44,0,0,0,.43-1.11Z"/><path class="cls-9" d="M120.29,767.49a3.06,3.06,0,0,1-1,2.47,4.33,4.33,0,0,1-2.87.85h-.91v3.56h-2.12v-10h3.19a4.22,4.22,0,0,1,2.77.79A2.85,2.85,0,0,1,120.29,767.49Zm-4.78,1.59h.7a2.29,2.29,0,0,0,1.46-.39,1.36,1.36,0,0,0,.48-1.12,1.41,1.41,0,0,0-.4-1.11,2,2,0,0,0-1.28-.35h-1Z"/><path class="cls-9" d="M127.43,774.37l-.28-1H127a2.12,2.12,0,0,1-1,.82,3.16,3.16,0,0,1-1.4.29,2.67,2.67,0,0,1-2-.72,2.87,2.87,0,0,1-.68-2.07v-5h2.08v4.47a2.2,2.2,0,0,0,.29,1.24,1.09,1.09,0,0,0,.94.41,1.42,1.42,0,0,0,1.27-.58,3.64,3.64,0,0,0,.39-1.94v-3.6H129v7.65Zm-3.1-8.49v-.18a18.41,18.41,0,0,0,1.6-2.06h2.34v.15c-.24.23-.64.58-1.21,1.05s-1,.82-1.34,1Z"/><path class="cls-9" d="M135.47,766.58a2.47,2.47,0,0,1,2.12,1.06,5.88,5.88,0,0,1,0,5.82,2.77,2.77,0,0,1-4.27.07h-.14l-.35.84h-1.59V763.73h2.08v2.47c0,.32,0,.82-.08,1.52h.08A2.41,2.41,0,0,1,135.47,766.58Zm-.67,1.67a1.35,1.35,0,0,0-1.13.47,2.8,2.8,0,0,0-.37,1.57v.23a3.22,3.22,0,0,0,.37,1.76,1.3,1.3,0,0,0,1.16.54,1.15,1.15,0,0,0,1-.6,3.2,3.2,0,0,0,.38-1.72,3.09,3.09,0,0,0-.38-1.69A1.23,1.23,0,0,0,134.8,768.25Z"/><path class="cls-9" d="M142.16,774.37h-2.08V763.73h2.08Z"/><path class="cls-9" d="M144.26,764.75q0-1,1.14-1c.75,0,1.13.34,1.13,1a1,1,0,0,1-.28.75,1.2,1.2,0,0,1-.85.27Q144.26,765.77,144.26,764.75Zm2.18,9.62h-2.09v-7.65h2.09Z"/><path class="cls-9" d="M151.73,774.5q-3.57,0-3.57-3.91a4.18,4.18,0,0,1,1-3,3.62,3.62,0,0,1,2.78-1,5.27,5.27,0,0,1,2.38.52l-.62,1.61a9.14,9.14,0,0,0-.91-.32,2.79,2.79,0,0,0-.85-.13c-1.08,0-1.63.77-1.63,2.31s.55,2.25,1.63,2.25a3.6,3.6,0,0,0,2.14-.67v1.79a3.46,3.46,0,0,1-1,.44A5.93,5.93,0,0,1,151.73,774.5Z"/><path class="cls-9" d="M160.67,774.37l-.4-1h-.05a3.11,3.11,0,0,1-1.09.92,3.5,3.5,0,0,1-1.45.25,2.34,2.34,0,0,1-1.73-.63,2.4,2.4,0,0,1-.64-1.79,2,2,0,0,1,.86-1.79,4.84,4.84,0,0,1,2.56-.64l1.33,0v-.34a1,1,0,0,0-1.19-1.16,5.4,5.4,0,0,0-2.15.56l-.69-1.41a6.2,6.2,0,0,1,2.92-.69,3.63,3.63,0,0,1,2.36.67,2.44,2.44,0,0,1,.82,2v5.1Zm-.61-3.54-.81,0a2.59,2.59,0,0,0-1.35.33,1,1,0,0,0-.45.92c0,.59.34.88,1,.88a1.6,1.6,0,0,0,1.16-.42,1.48,1.48,0,0,0,.43-1.11Z"/><path class="cls-9" d="M170.33,774.5a2.47,2.47,0,0,1-2.11-1,4.78,4.78,0,0,1-.77-2.9,4.84,4.84,0,0,1,.78-2.93,2.54,2.54,0,0,1,2.16-1,2.49,2.49,0,0,1,2.2,1.12h.07a8.11,8.11,0,0,1-.16-1.52v-2.45h2.09v10.64H173l-.4-1h-.09A2.39,2.39,0,0,1,170.33,774.5Zm.73-1.66a1.42,1.42,0,0,0,1.18-.46,2.69,2.69,0,0,0,.4-1.58v-.23a3.13,3.13,0,0,0-.37-1.76,1.42,1.42,0,0,0-1.24-.53,1.2,1.2,0,0,0-1.08.59,3.11,3.11,0,0,0-.39,1.72,3,3,0,0,0,.39,1.69A1.26,1.26,0,0,0,171.06,772.84Z"/><path class="cls-9" d="M180.23,774.5a4,4,0,0,1-2.88-1,3.85,3.85,0,0,1-1-2.89,4.24,4.24,0,0,1,1-3,3.9,3.9,0,0,1,5.18-.13,3.51,3.51,0,0,1,.9,2.55v1h-4.93a2,2,0,0,0,.53,1.38,1.8,1.8,0,0,0,1.38.5,6,6,0,0,0,1.3-.14,6.94,6.94,0,0,0,1.29-.46V774a4.78,4.78,0,0,1-1.17.41A7.35,7.35,0,0,1,180.23,774.5Zm-.29-6.44a1.3,1.3,0,0,0-1,.43,1.89,1.89,0,0,0-.43,1.19h2.92a1.68,1.68,0,0,0-.4-1.19A1.34,1.34,0,0,0,179.94,768.06Z"/><path class="cls-9" d="M35.93,794.11a4.65,4.65,0,0,1-1.25-.15v-1.77a4.28,4.28,0,0,0,1,.14,1.16,1.16,0,0,0,1-.43,2.45,2.45,0,0,0,.3-1.36v-9.37H39.1v9.35a4,4,0,0,1-.8,2.67A3,3,0,0,1,35.93,794.11Z"/><path class="cls-9" d="M46.86,791.17l-.28-1h-.11a2.19,2.19,0,0,1-.95.82,3.13,3.13,0,0,1-1.4.29,2.67,2.67,0,0,1-2-.72,2.92,2.92,0,0,1-.68-2.07v-5h2.08V788a2.12,2.12,0,0,0,.3,1.24,1.06,1.06,0,0,0,.93.41,1.41,1.41,0,0,0,1.27-.58,3.64,3.64,0,0,0,.39-1.94v-3.6h2.08v7.65Z"/><path class="cls-9" d="M52.47,791.17l-2.91-7.65h2.18l1.47,4.36a7.29,7.29,0,0,1,.31,1.56h0a6.88,6.88,0,0,1,.31-1.56l1.47-4.36h2.18l-2.91,7.65Z"/><path class="cls-9" d="M62.07,791.3a4,4,0,0,1-2.88-1,3.89,3.89,0,0,1-1-2.89,4.24,4.24,0,0,1,1-3,3.43,3.43,0,0,1,2.66-1,3.38,3.38,0,0,1,2.52.92,3.51,3.51,0,0,1,.9,2.55v1H60.26a2,2,0,0,0,.53,1.38,1.83,1.83,0,0,0,1.38.5,6,6,0,0,0,1.3-.14,6.94,6.94,0,0,0,1.29-.46v1.61a4.51,4.51,0,0,1-1.17.41A7.29,7.29,0,0,1,62.07,791.3Zm-.29-6.44a1.3,1.3,0,0,0-1,.43,2,2,0,0,0-.43,1.19h2.92a1.68,1.68,0,0,0-.4-1.19A1.34,1.34,0,0,0,61.78,784.86Z"/><path class="cls-9" d="M73.94,791.17H71.85V786.7a2.12,2.12,0,0,0-.29-1.24,1.09,1.09,0,0,0-.94-.41,1.4,1.4,0,0,0-1.26.58,3.64,3.64,0,0,0-.39,1.94v3.6H66.89v-7.65h1.59l.28,1h.11a2.3,2.3,0,0,1,1-.84,3.46,3.46,0,0,1,1.4-.28,2.68,2.68,0,0,1,2,.72,2.9,2.9,0,0,1,.69,2.08Z"/><path class="cls-9" d="M79.31,789.64a4.52,4.52,0,0,0,1.31-.24V791a4.58,4.58,0,0,1-1.92.35,2.35,2.35,0,0,1-1.82-.63,2.75,2.75,0,0,1-.57-1.9v-3.68h-1v-.88l1.15-.7.6-1.61H78.4v1.62h2.14v1.57H78.4v3.68a.8.8,0,0,0,.25.66A1,1,0,0,0,79.31,789.64Z"/><path class="cls-9" d="M87.58,791.17l-.28-1h-.11a2.24,2.24,0,0,1-1,.82,3.16,3.16,0,0,1-1.4.29,2.66,2.66,0,0,1-2-.72,2.88,2.88,0,0,1-.69-2.07v-5h2.09V788a2.2,2.2,0,0,0,.29,1.24,1.09,1.09,0,0,0,.94.41,1.4,1.4,0,0,0,1.26-.58,3.64,3.64,0,0,0,.39-1.94v-3.6h2.09v7.65Z"/><path class="cls-9" d="M93.78,791.3a2.49,2.49,0,0,1-2.11-1,5.87,5.87,0,0,1,0-5.83,2.54,2.54,0,0,1,2.16-1A2.49,2.49,0,0,1,96,784.5h.07A8.11,8.11,0,0,1,96,783v-2.45H98v10.64h-1.6l-.4-1H96A2.37,2.37,0,0,1,93.78,791.3Zm.74-1.66a1.41,1.41,0,0,0,1.17-.46,2.75,2.75,0,0,0,.41-1.58v-.23a3.12,3.12,0,0,0-.38-1.76,1.42,1.42,0,0,0-1.24-.53,1.21,1.21,0,0,0-1.08.59,3.11,3.11,0,0,0-.39,1.72,3,3,0,0,0,.39,1.69A1.29,1.29,0,0,0,94.52,789.64Z"/><path class="cls-9" d="M110.31,791.17h-7V789.7l2.51-2.54c.74-.76,1.22-1.29,1.45-1.58a3.34,3.34,0,0,0,.49-.82,1.91,1.91,0,0,0,.16-.78,1.12,1.12,0,0,0-.34-.89,1.25,1.25,0,0,0-.88-.3,2.51,2.51,0,0,0-1.13.27,6.09,6.09,0,0,0-1.14.76l-1.15-1.36a7.34,7.34,0,0,1,1.22-.89,4.64,4.64,0,0,1,1.06-.4,5.73,5.73,0,0,1,1.29-.14,3.77,3.77,0,0,1,1.65.34,2.7,2.7,0,0,1,1.12,1,2.58,2.58,0,0,1,.39,1.41,3.44,3.44,0,0,1-.24,1.29,4.72,4.72,0,0,1-.75,1.24,17.26,17.26,0,0,1-1.8,1.81L106,789.29v.1h4.35Z"/><path class="cls-9" d="M118.25,786.17a7,7,0,0,1-.86,3.88,3,3,0,0,1-2.64,1.25,3,3,0,0,1-2.61-1.3,6.88,6.88,0,0,1-.88-3.83,7,7,0,0,1,.86-3.9,3.33,3.33,0,0,1,5.25.06A6.86,6.86,0,0,1,118.25,786.17Zm-4.89,0a7.87,7.87,0,0,0,.32,2.64,1.1,1.1,0,0,0,1.07.79,1.12,1.12,0,0,0,1.07-.81,10.49,10.49,0,0,0,0-5.26,1.11,1.11,0,0,0-2.13,0A7.83,7.83,0,0,0,113.36,786.17Z"/><path class="cls-9" d="M126.3,791.17h-7V789.7l2.51-2.54c.74-.76,1.23-1.29,1.45-1.58a3.41,3.41,0,0,0,.5-.82,2.08,2.08,0,0,0,.15-.78,1.12,1.12,0,0,0-.33-.89,1.3,1.3,0,0,0-.89-.3,2.54,2.54,0,0,0-1.13.27,6.09,6.09,0,0,0-1.14.76l-1.15-1.36a7,7,0,0,1,1.23-.89,4.31,4.31,0,0,1,1.06-.4,5.58,5.58,0,0,1,1.28-.14,3.79,3.79,0,0,1,1.66.34,2.74,2.74,0,0,1,1.11,1,2.58,2.58,0,0,1,.4,1.41,3.26,3.26,0,0,1-.25,1.29,4.72,4.72,0,0,1-.75,1.24,18,18,0,0,1-1.79,1.81l-1.29,1.21v.1h4.36Z"/><path class="cls-9" d="M134.29,791.17h-7V789.7l2.51-2.54c.74-.76,1.23-1.29,1.46-1.58a3.68,3.68,0,0,0,.49-.82,2.08,2.08,0,0,0,.15-.78,1.12,1.12,0,0,0-.33-.89,1.28,1.28,0,0,0-.89-.3,2.54,2.54,0,0,0-1.13.27,6.09,6.09,0,0,0-1.14.76l-1.15-1.36a7.34,7.34,0,0,1,1.23-.89,4.31,4.31,0,0,1,1.06-.4,5.58,5.58,0,0,1,1.28-.14,3.79,3.79,0,0,1,1.66.34,2.61,2.61,0,0,1,1.11,1,2.5,2.5,0,0,1,.4,1.41,3.26,3.26,0,0,1-.25,1.29,4.72,4.72,0,0,1-.75,1.24,18,18,0,0,1-1.79,1.81l-1.29,1.21v.1h4.36Z"/><path class="cls-9" d="M135.15,788.27v-1.71h3.67v1.71Z"/><path class="cls-9" d="M146.78,791.17h-7V789.7l2.51-2.54c.74-.76,1.22-1.29,1.45-1.58a3.34,3.34,0,0,0,.49-.82,2.08,2.08,0,0,0,.15-.78,1.12,1.12,0,0,0-.33-.89,1.25,1.25,0,0,0-.88-.3,2.51,2.51,0,0,0-1.13.27,5.79,5.79,0,0,0-1.14.76l-1.15-1.36a7.34,7.34,0,0,1,1.22-.89,4.64,4.64,0,0,1,1.06-.4,5.67,5.67,0,0,1,1.29-.14,3.77,3.77,0,0,1,1.65.34,2.7,2.7,0,0,1,1.12,1,2.58,2.58,0,0,1,.39,1.41,3.44,3.44,0,0,1-.24,1.29,4.72,4.72,0,0,1-.75,1.24,17.26,17.26,0,0,1-1.8,1.81l-1.28,1.21v.1h4.35Z"/><path class="cls-9" d="M154.72,786.17a7,7,0,0,1-.86,3.88,3,3,0,0,1-2.64,1.25,3,3,0,0,1-2.61-1.3,6.88,6.88,0,0,1-.88-3.83,7,7,0,0,1,.86-3.9,3.33,3.33,0,0,1,5.25.06A6.86,6.86,0,0,1,154.72,786.17Zm-4.89,0a7.87,7.87,0,0,0,.32,2.64,1.1,1.1,0,0,0,1.07.79,1.12,1.12,0,0,0,1.07-.81,10.8,10.8,0,0,0,0-5.26,1.11,1.11,0,0,0-2.13,0A7.83,7.83,0,0,0,149.83,786.17Z"/><path class="cls-9" d="M162.77,791.17h-7V789.7l2.51-2.54c.74-.76,1.23-1.29,1.45-1.58a3.41,3.41,0,0,0,.5-.82,2.08,2.08,0,0,0,.15-.78,1.12,1.12,0,0,0-.33-.89,1.3,1.3,0,0,0-.89-.3,2.54,2.54,0,0,0-1.13.27,6.09,6.09,0,0,0-1.14.76l-1.15-1.36a7,7,0,0,1,1.23-.89,4.31,4.31,0,0,1,1.06-.4,5.58,5.58,0,0,1,1.28-.14,3.82,3.82,0,0,1,1.66.34,2.74,2.74,0,0,1,1.11,1,2.58,2.58,0,0,1,.4,1.41,3.45,3.45,0,0,1-.25,1.29,4.72,4.72,0,0,1-.75,1.24,18,18,0,0,1-1.79,1.81l-1.29,1.21v.1h4.36Z"/><path class="cls-9" d="M164.76,791.17l3.76-8.21h-4.93v-1.77h7.17v1.32L167,791.17Z"/></g><path class="cls-6" d="M45.48,821a4.6,4.6,0,0,1-1.25-.15v-1.76a4.21,4.21,0,0,0,1,.14,1.15,1.15,0,0,0,1-.44,2.42,2.42,0,0,0,.3-1.36v-9.36h2.12v9.35a4,4,0,0,1-.8,2.67A3,3,0,0,1,45.48,821Z"/><path class="cls-6" d="M56.41,818.08l-.28-1H56a2.19,2.19,0,0,1-1,.82,3.3,3.3,0,0,1-1.4.29,2.67,2.67,0,0,1-2-.72,2.88,2.88,0,0,1-.68-2.08v-5H53v4.47a2.2,2.2,0,0,0,.29,1.24,1.09,1.09,0,0,0,.94.41,1.4,1.4,0,0,0,1.27-.59,3.57,3.57,0,0,0,.39-1.93v-3.6H58v7.64Z"/><path class="cls-6" d="M67.25,818.08H65.17v-4.46a2.12,2.12,0,0,0-.3-1.24,1,1,0,0,0-.93-.41,1.41,1.41,0,0,0-1.27.58,3.64,3.64,0,0,0-.39,1.94v3.59H60.2v-7.64h1.59l.28,1h.12a2.18,2.18,0,0,1,1-.84,3.26,3.26,0,0,1,1.39-.28,2.66,2.66,0,0,1,2,.72,2.88,2.88,0,0,1,.69,2.08Z"/><path class="cls-6" d="M69.31,808.47c0-.68.38-1,1.13-1s1.14.34,1.14,1a1,1,0,0,1-.28.75,1.22,1.22,0,0,1-.86.27C69.69,809.49,69.31,809.15,69.31,808.47Zm2.17,9.61H69.4v-7.64h2.08Z"/><path class="cls-6" d="M80.62,814.25a4.1,4.1,0,0,1-1,2.92,3.56,3.56,0,0,1-2.74,1.05,3.85,3.85,0,0,1-1.94-.48,3.16,3.16,0,0,1-1.29-1.39,4.64,4.64,0,0,1-.45-2.1,4.08,4.08,0,0,1,1-2.91,3.58,3.58,0,0,1,2.75-1,3.82,3.82,0,0,1,1.94.48,3.25,3.25,0,0,1,1.3,1.37A4.64,4.64,0,0,1,80.62,814.25Zm-5.29,0a3.14,3.14,0,0,0,.38,1.71,1.53,1.53,0,0,0,2.41,0,3.31,3.31,0,0,0,.36-1.72,3.09,3.09,0,0,0-.37-1.7A1.32,1.32,0,0,0,76.9,812a1.35,1.35,0,0,0-1.2.56A3.24,3.24,0,0,0,75.33,814.25Z"/><path class="cls-6" d="M88.4,818.22a2.48,2.48,0,0,1-2.12-1.05,5.85,5.85,0,0,1,0-5.82,2.55,2.55,0,0,1,2.16-1.05,2.48,2.48,0,0,1,2.2,1.12h.07a9,9,0,0,1-.16-1.53v-2.44h2.09v10.63H91.06l-.41-1h-.09A2.38,2.38,0,0,1,88.4,818.22Zm.73-1.66a1.42,1.42,0,0,0,1.17-.47,2.69,2.69,0,0,0,.41-1.57v-.23a3.12,3.12,0,0,0-.38-1.76,1.42,1.42,0,0,0-1.24-.54,1.23,1.23,0,0,0-1.08.59,3.15,3.15,0,0,0-.39,1.72A3,3,0,0,0,88,816,1.3,1.3,0,0,0,89.13,816.56Z"/><path class="cls-6" d="M98.29,818.22a3.93,3.93,0,0,1-2.88-1,3.86,3.86,0,0,1-1-2.88,4.24,4.24,0,0,1,1-3A3.43,3.43,0,0,1,98,810.3a3.38,3.38,0,0,1,2.52.92,3.51,3.51,0,0,1,.9,2.55v1H96.48a2,2,0,0,0,.53,1.39,1.87,1.87,0,0,0,1.38.5,6.12,6.12,0,0,0,1.31-.14,6.86,6.86,0,0,0,1.28-.46v1.61a4.91,4.91,0,0,1-1.17.41A7.29,7.29,0,0,1,98.29,818.22ZM98,811.78a1.33,1.33,0,0,0-1,.42,2,2,0,0,0-.43,1.19h2.93a1.74,1.74,0,0,0-.41-1.19A1.36,1.36,0,0,0,98,811.78Z"/><path class="cls-6" d="M113.2,818.08h-7v-1.47l2.51-2.53c.74-.76,1.23-1.29,1.46-1.58a3.92,3.92,0,0,0,.49-.82,2.08,2.08,0,0,0,.15-.78,1.16,1.16,0,0,0-.33-.9,1.32,1.32,0,0,0-.89-.29,2.54,2.54,0,0,0-1.13.27,5.64,5.64,0,0,0-1.14.76l-1.15-1.37a7.79,7.79,0,0,1,1.23-.88,4,4,0,0,1,1.06-.4,5.07,5.07,0,0,1,1.28-.14,3.79,3.79,0,0,1,1.66.34,2.61,2.61,0,0,1,1.11,1,2.55,2.55,0,0,1,.4,1.4,3.34,3.34,0,0,1-.25,1.3,4.88,4.88,0,0,1-.75,1.24,19.1,19.1,0,0,1-1.79,1.81l-1.29,1.21v.1h4.36Z"/><path class="cls-6" d="M121.13,813.09a7,7,0,0,1-.85,3.87,3,3,0,0,1-2.65,1.26,2.92,2.92,0,0,1-2.6-1.3,6.8,6.8,0,0,1-.88-3.83,7,7,0,0,1,.85-3.9,3.32,3.32,0,0,1,5.25.06A6.86,6.86,0,0,1,121.13,813.09Zm-4.88,0a7.85,7.85,0,0,0,.31,2.63,1.11,1.11,0,0,0,2.14,0,10.65,10.65,0,0,0,0-5.26,1.12,1.12,0,0,0-1.07-.81,1.1,1.1,0,0,0-1.06.81A7.57,7.57,0,0,0,116.25,813.09Z"/><path class="cls-6" d="M129.18,818.08h-7v-1.47l2.51-2.53c.74-.76,1.23-1.29,1.46-1.58a3.53,3.53,0,0,0,.49-.82,2.08,2.08,0,0,0,.15-.78,1.16,1.16,0,0,0-.33-.9,1.32,1.32,0,0,0-.89-.29,2.5,2.5,0,0,0-1.12.27,5.42,5.42,0,0,0-1.15.76l-1.14-1.37a7.79,7.79,0,0,1,1.22-.88,4.08,4.08,0,0,1,1.06-.4,5.07,5.07,0,0,1,1.28-.14,3.79,3.79,0,0,1,1.66.34,2.55,2.55,0,0,1,1.11,1,2.47,2.47,0,0,1,.4,1.4,3.53,3.53,0,0,1-.24,1.3,5.25,5.25,0,0,1-.76,1.24,17.93,17.93,0,0,1-1.79,1.81l-1.29,1.21v.1h4.36Z"/><path class="cls-6" d="M137.17,818.08h-7v-1.47l2.51-2.53c.75-.76,1.23-1.29,1.46-1.58a3.53,3.53,0,0,0,.49-.82,2.08,2.08,0,0,0,.15-.78,1.16,1.16,0,0,0-.33-.9,1.32,1.32,0,0,0-.89-.29,2.5,2.5,0,0,0-1.12.27,5.13,5.13,0,0,0-1.14.76l-1.15-1.37a7.79,7.79,0,0,1,1.22-.88,4.08,4.08,0,0,1,1.06-.4,5.1,5.1,0,0,1,1.29-.14,3.77,3.77,0,0,1,1.65.34,2.55,2.55,0,0,1,1.11,1,2.47,2.47,0,0,1,.4,1.4,3.53,3.53,0,0,1-.24,1.3,5.19,5.19,0,0,1-.75,1.24,18.3,18.3,0,0,1-1.8,1.81l-1.28,1.21v.1h4.35Z"/><path d="M229.47,218.9h-2.09v-4.47a2.31,2.31,0,0,0-.27-1.24,1,1,0,0,0-.88-.41,1.27,1.27,0,0,0-1.16.59,3.87,3.87,0,0,0-.36,1.93v3.6h-2.09v-7.64h1.6l.28,1h.11a2.21,2.21,0,0,1,.89-.82,2.88,2.88,0,0,1,1.34-.3,2.42,2.42,0,0,1,2.32,1.12h.18a2.08,2.08,0,0,1,.91-.82,3,3,0,0,1,1.35-.3,2.66,2.66,0,0,1,2,.67,2.94,2.94,0,0,1,.66,2.13v5h-2.09v-4.47a2.21,2.21,0,0,0-.28-1.24,1,1,0,0,0-.87-.41,1.28,1.28,0,0,0-1.14.55,3,3,0,0,0-.38,1.73Z"/><path d="M241.23,218.9l-.41-1h0a3,3,0,0,1-1.09.92,3.48,3.48,0,0,1-1.45.26,2.34,2.34,0,0,1-1.73-.63,2.43,2.43,0,0,1-.63-1.79,2,2,0,0,1,.85-1.8,4.93,4.93,0,0,1,2.56-.64l1.33,0v-.33a1,1,0,0,0-1.19-1.17,5.4,5.4,0,0,0-2.15.56l-.69-1.41a6.2,6.2,0,0,1,2.92-.69,3.63,3.63,0,0,1,2.36.67,2.45,2.45,0,0,1,.82,2v5.09Zm-.62-3.54-.81,0a2.62,2.62,0,0,0-1.35.33,1,1,0,0,0-.44.92c0,.59.33.88,1,.88a1.6,1.6,0,0,0,1.16-.42,1.43,1.43,0,0,0,.43-1.1Z"/><path d="M249.09,211.11a3.48,3.48,0,0,1,.71.06l-.16,2a2.65,2.65,0,0,0-2.17.44,1.86,1.86,0,0,0-.56,1.44v3.89h-2.08v-7.64h1.58l.3,1.28h.11a2.72,2.72,0,0,1,1-1A2.3,2.3,0,0,1,249.09,211.11Z"/><path d="M256.5,218.9h-6v-1.23l3.54-4.82h-3.33v-1.59h5.7v1.35l-3.44,4.7h3.56Z"/><path d="M265,215.06a4.12,4.12,0,0,1-1,2.92,3.59,3.59,0,0,1-2.75,1.06,3.85,3.85,0,0,1-1.94-.49,3.19,3.19,0,0,1-1.29-1.38,4.65,4.65,0,0,1-.45-2.11,4.08,4.08,0,0,1,1-2.91,3.59,3.59,0,0,1,2.74-1,3.86,3.86,0,0,1,2,.48,3.22,3.22,0,0,1,1.29,1.37A4.64,4.64,0,0,1,265,215.06Zm-5.28,0a3.21,3.21,0,0,0,.37,1.72,1.32,1.32,0,0,0,1.21.58,1.29,1.29,0,0,0,1.2-.58,3.28,3.28,0,0,0,.37-1.72,3.22,3.22,0,0,0-.37-1.7,1.57,1.57,0,0,0-2.42,0A3.19,3.19,0,0,0,259.68,215.06Z"/><path d="M272.74,219a2.49,2.49,0,0,1-2.12-1,4.83,4.83,0,0,1-.77-2.9,4.77,4.77,0,0,1,.79-2.93,2.53,2.53,0,0,1,2.15-1,2.49,2.49,0,0,1,2.2,1.12h.07a8.84,8.84,0,0,1-.15-1.52v-2.45H277V218.9h-1.6l-.41-1h-.08A2.4,2.4,0,0,1,272.74,219Zm.73-1.67a1.41,1.41,0,0,0,1.17-.46,2.68,2.68,0,0,0,.41-1.58v-.23a3.15,3.15,0,0,0-.38-1.76,1.41,1.41,0,0,0-1.23-.53,1.22,1.22,0,0,0-1.09.59,3.22,3.22,0,0,0-.38,1.72,3,3,0,0,0,.39,1.69A1.26,1.26,0,0,0,273.47,217.37Z"/><path d="M282.64,219a4,4,0,0,1-2.89-1,3.87,3.87,0,0,1-1-2.89,4.24,4.24,0,0,1,1-3,3.43,3.43,0,0,1,2.66-1,3.34,3.34,0,0,1,2.52.93,3.47,3.47,0,0,1,.9,2.54v1h-4.92a2,2,0,0,0,.52,1.38,1.83,1.83,0,0,0,1.38.5,5.54,5.54,0,0,0,1.31-.14,6.61,6.61,0,0,0,1.28-.46v1.62a4.89,4.89,0,0,1-1.17.4A7.18,7.18,0,0,1,282.64,219Zm-.3-6.44a1.34,1.34,0,0,0-1,.42,2,2,0,0,0-.43,1.19h2.93a1.72,1.72,0,0,0-.4-1.19A1.37,1.37,0,0,0,282.34,212.6Z"/><path d="M297.54,218.9h-7v-1.47l2.51-2.54c.75-.76,1.23-1.29,1.46-1.58a3.34,3.34,0,0,0,.49-.82,2.08,2.08,0,0,0,.15-.78,1.12,1.12,0,0,0-.33-.89,1.28,1.28,0,0,0-.89-.3,2.5,2.5,0,0,0-1.12.27,5.83,5.83,0,0,0-1.15.76l-1.14-1.36a7.34,7.34,0,0,1,1.22-.89,4.47,4.47,0,0,1,1.06-.4,5.58,5.58,0,0,1,1.28-.14,3.79,3.79,0,0,1,1.66.34,2.61,2.61,0,0,1,1.11,1,2.5,2.5,0,0,1,.4,1.41,3.44,3.44,0,0,1-.24,1.29,5.33,5.33,0,0,1-.75,1.24,18.14,18.14,0,0,1-1.8,1.82L293.19,217v.09h4.35Z"/><path d="M305.48,213.9a7,7,0,0,1-.86,3.88,3.33,3.33,0,0,1-5.25,0,6.86,6.86,0,0,1-.88-3.84,7.05,7.05,0,0,1,.85-3.9,3.33,3.33,0,0,1,5.25.06A6.85,6.85,0,0,1,305.48,213.9Zm-4.89,0a7.57,7.57,0,0,0,.32,2.64,1.1,1.1,0,0,0,1.07.79,1.11,1.11,0,0,0,1.06-.8,10.69,10.69,0,0,0,0-5.27,1.11,1.11,0,0,0-1.06-.8,1.09,1.09,0,0,0-1.07.8A7.87,7.87,0,0,0,300.59,213.9Z"/><path d="M313.52,218.9h-7v-1.47l2.5-2.54c.75-.76,1.23-1.29,1.46-1.58a3.34,3.34,0,0,0,.49-.82,2.08,2.08,0,0,0,.15-.78,1.12,1.12,0,0,0-.33-.89,1.25,1.25,0,0,0-.88-.3,2.51,2.51,0,0,0-1.13.27,5.51,5.51,0,0,0-1.14.76l-1.15-1.36a7.34,7.34,0,0,1,1.22-.89,4.64,4.64,0,0,1,1.06-.4,5.6,5.6,0,0,1,1.29-.14,3.77,3.77,0,0,1,1.65.34,2.7,2.7,0,0,1,1.12,1,2.58,2.58,0,0,1,.39,1.41,3.44,3.44,0,0,1-.24,1.29,4.72,4.72,0,0,1-.75,1.24,18.14,18.14,0,0,1-1.8,1.82L309.17,217v.09h4.35Z"/><path d="M321.51,218.9h-7v-1.47l2.51-2.54c.74-.76,1.22-1.29,1.45-1.58a3.34,3.34,0,0,0,.49-.82,2.08,2.08,0,0,0,.15-.78,1.12,1.12,0,0,0-.33-.89,1.25,1.25,0,0,0-.88-.3,2.51,2.51,0,0,0-1.13.27,5.79,5.79,0,0,0-1.14.76l-1.15-1.36a7.34,7.34,0,0,1,1.22-.89,4.64,4.64,0,0,1,1.06-.4,5.67,5.67,0,0,1,1.29-.14,3.77,3.77,0,0,1,1.65.34,2.7,2.7,0,0,1,1.12,1,2.58,2.58,0,0,1,.39,1.41,3.44,3.44,0,0,1-.24,1.29,4.72,4.72,0,0,1-.75,1.24,18.14,18.14,0,0,1-1.8,1.82L317.16,217v.09h4.35Z"/><path d="M229.47,246.33h-2.09v-4.47a2.21,2.21,0,0,0-.28-1.24,1,1,0,0,0-.87-.41,1.27,1.27,0,0,0-1.16.59,3.85,3.85,0,0,0-.36,1.93v3.6h-2.09v-7.65h1.6l.28,1h.11a2.14,2.14,0,0,1,.89-.82,2.88,2.88,0,0,1,1.34-.3,2.42,2.42,0,0,1,2.32,1.12h.18a2.08,2.08,0,0,1,.91-.82,3,3,0,0,1,1.35-.3,2.66,2.66,0,0,1,2,.67,2.92,2.92,0,0,1,.66,2.13v5h-2.09v-4.47a2.21,2.21,0,0,0-.28-1.24,1,1,0,0,0-.87-.41,1.28,1.28,0,0,0-1.14.55,3,3,0,0,0-.38,1.73Z"/><path d="M241.23,246.33l-.41-1h0a3,3,0,0,1-1.09.92,3.5,3.5,0,0,1-1.45.25,2.38,2.38,0,0,1-1.73-.62,2.44,2.44,0,0,1-.63-1.8,2,2,0,0,1,.85-1.79,4.84,4.84,0,0,1,2.56-.64l1.33,0v-.34a1,1,0,0,0-1.19-1.16,5.4,5.4,0,0,0-2.15.56l-.69-1.41a6.2,6.2,0,0,1,2.92-.69,3.63,3.63,0,0,1,2.36.67,2.44,2.44,0,0,1,.82,2v5.1Zm-.62-3.54-.81,0a2.62,2.62,0,0,0-1.35.33,1,1,0,0,0-.44.92c0,.59.33.88,1,.88a1.6,1.6,0,0,0,1.16-.42,1.45,1.45,0,0,0,.43-1.1Z"/><path d="M243.73,238.68H246l1.44,4.3a5.94,5.94,0,0,1,.25,1.33h0a5.73,5.73,0,0,1,.3-1.33l1.41-4.3h2.24l-3.24,8.63a3.72,3.72,0,0,1-1.26,1.79,3.25,3.25,0,0,1-1.93.59,4.72,4.72,0,0,1-1.06-.12v-1.65a3.55,3.55,0,0,0,.82.09,1.47,1.47,0,0,0,1-.34,2.25,2.25,0,0,0,.65-1l.12-.38Z"/><path d="M259.74,242.49a4.08,4.08,0,0,1-1,2.92,3.56,3.56,0,0,1-2.74,1.05,3.85,3.85,0,0,1-1.94-.48,3.19,3.19,0,0,1-1.29-1.38,4.68,4.68,0,0,1-.45-2.11,4.08,4.08,0,0,1,1-2.91,3.62,3.62,0,0,1,2.75-1A3.82,3.82,0,0,1,258,239a3.31,3.31,0,0,1,1.3,1.37A4.64,4.64,0,0,1,259.74,242.49Zm-5.29,0a3.2,3.2,0,0,0,.38,1.72,1.54,1.54,0,0,0,2.41,0,3.29,3.29,0,0,0,.36-1.72,3.13,3.13,0,0,0-.37-1.7,1.32,1.32,0,0,0-1.21-.57,1.33,1.33,0,0,0-1.2.57A3.18,3.18,0,0,0,254.45,242.49Z"/><path d="M267.52,246.46a2.47,2.47,0,0,1-2.12-1,5.87,5.87,0,0,1,0-5.83,2.55,2.55,0,0,1,2.16-1.05,2.5,2.5,0,0,1,2.2,1.12h.07a9,9,0,0,1-.16-1.52v-2.45h2.09v10.64h-1.59l-.41-1h-.09A2.37,2.37,0,0,1,267.52,246.46Zm.73-1.66a1.41,1.41,0,0,0,1.17-.46,2.75,2.75,0,0,0,.41-1.58v-.23a3.15,3.15,0,0,0-.38-1.76,1.42,1.42,0,0,0-1.24-.53,1.21,1.21,0,0,0-1.08.59,3.13,3.13,0,0,0-.39,1.72,3,3,0,0,0,.39,1.69A1.3,1.3,0,0,0,268.25,244.8Z"/><path d="M277.41,246.46a4,4,0,0,1-2.88-1,3.87,3.87,0,0,1-1-2.89,4.24,4.24,0,0,1,1-3,3.43,3.43,0,0,1,2.66-1.05,3.38,3.38,0,0,1,2.52.92,3.51,3.51,0,0,1,.9,2.55v1H275.6a2,2,0,0,0,.53,1.38,1.83,1.83,0,0,0,1.38.5,6.12,6.12,0,0,0,1.31-.14,6.86,6.86,0,0,0,1.28-.46v1.61a4.51,4.51,0,0,1-1.17.41A7.29,7.29,0,0,1,277.41,246.46Zm-.29-6.44a1.36,1.36,0,0,0-1,.42,2,2,0,0,0-.43,1.2h2.93a1.77,1.77,0,0,0-.41-1.2A1.4,1.4,0,0,0,277.12,240Z"/><path d="M292.32,246.33h-7v-1.47l2.51-2.54c.74-.76,1.23-1.29,1.46-1.58a3.92,3.92,0,0,0,.49-.82,2.08,2.08,0,0,0,.15-.78,1.12,1.12,0,0,0-.33-.89,1.28,1.28,0,0,0-.89-.3,2.54,2.54,0,0,0-1.13.27,6.09,6.09,0,0,0-1.14.76l-1.15-1.36a7.34,7.34,0,0,1,1.23-.89,4.31,4.31,0,0,1,1.06-.4,5.58,5.58,0,0,1,1.28-.14,3.79,3.79,0,0,1,1.66.34,2.67,2.67,0,0,1,1.11,1,2.58,2.58,0,0,1,.4,1.41,3.26,3.26,0,0,1-.25,1.29,4.72,4.72,0,0,1-.75,1.24,18,18,0,0,1-1.79,1.81L288,244.45v.1h4.36Z"/><path d="M300.25,241.33a7,7,0,0,1-.85,3.88,3,3,0,0,1-2.65,1.25,2.93,2.93,0,0,1-2.6-1.29,6.86,6.86,0,0,1-.88-3.84,7.05,7.05,0,0,1,.85-3.9,3.33,3.33,0,0,1,5.25.06A6.86,6.86,0,0,1,300.25,241.33Zm-4.88,0a7.92,7.92,0,0,0,.31,2.64,1.12,1.12,0,0,0,2.14,0,10.69,10.69,0,0,0,0-5.27,1.11,1.11,0,0,0-1.07-.8,1.09,1.09,0,0,0-1.06.8A7.57,7.57,0,0,0,295.37,241.33Z"/><path d="M308.3,246.33h-7v-1.47l2.51-2.54c.74-.76,1.23-1.29,1.46-1.58a3.53,3.53,0,0,0,.49-.82,2.08,2.08,0,0,0,.15-.78,1.12,1.12,0,0,0-.33-.89,1.28,1.28,0,0,0-.89-.3,2.5,2.5,0,0,0-1.12.27,5.83,5.83,0,0,0-1.15.76l-1.14-1.36a7.34,7.34,0,0,1,1.22-.89,4.47,4.47,0,0,1,1.06-.4,5.58,5.58,0,0,1,1.28-.14,3.79,3.79,0,0,1,1.66.34,2.61,2.61,0,0,1,1.11,1,2.5,2.5,0,0,1,.4,1.41,3.44,3.44,0,0,1-.24,1.29,5.06,5.06,0,0,1-.76,1.24,16,16,0,0,1-1.79,1.81l-1.29,1.21v.1h4.36Z"/><path d="M316.29,246.33h-7v-1.47l2.51-2.54c.75-.76,1.23-1.29,1.46-1.58a3.53,3.53,0,0,0,.49-.82,2.08,2.08,0,0,0,.15-.78,1.12,1.12,0,0,0-.33-.89,1.28,1.28,0,0,0-.89-.3,2.5,2.5,0,0,0-1.12.27,5.51,5.51,0,0,0-1.14.76l-1.15-1.36a7.34,7.34,0,0,1,1.22-.89,4.47,4.47,0,0,1,1.06-.4,5.6,5.6,0,0,1,1.29-.14,3.77,3.77,0,0,1,1.65.34,2.61,2.61,0,0,1,1.11,1,2.5,2.5,0,0,1,.4,1.41,3.44,3.44,0,0,1-.24,1.29,5,5,0,0,1-.75,1.24,17.26,17.26,0,0,1-1.8,1.81l-1.28,1.21v.1h4.35Z"/></g></svg>