<svg xmlns="http://www.w3.org/2000/svg" viewBox="0 0 1206.47 647.03"><defs><style>.cls-1,.cls-2,.cls-3{fill:none;}.cls-1{stroke:#f2f2f2;stroke-width:1.82px;}.cls-2,.cls-3{stroke:#6d6c6c;stroke-width:8px;}.cls-2,.cls-3,.cls-4{stroke-linecap:round;stroke-linejoin:round;}.cls-3{stroke-dasharray:0 15.98;}.cls-4,.cls-7{fill:#fff;}.cls-4{stroke:#5a6bb6;}.cls-5{fill:#5a6bb6;}.cls-6{opacity:0.2;}.cls-8{fill:#ffd400;}.cls-9{fill:#b60062;}.cls-10{fill:#404040;}.cls-11{fill:#6d6c6c;}</style></defs><g id="beneath_txt"><path class="cls-1" d="M52,17.88h67.21q35,0,51.13,16.28t16.08,50.1V102q0,44.94-29.69,56.9v.82q16.48,4.95,23.3,20.2t6.8,40.82v50.72a193.9,193.9,0,0,0,.82,20,49.87,49.87,0,0,0,4.13,15.05H145.58a66.05,66.05,0,0,1-3.3-13.19q-.83-6.18-.82-22.27V218.26q0-19.8-6.4-27.63t-22-7.83H97.34V306.49H52Zm61.85,123.69q13.61,0,20.41-7t6.8-23.5V88.79q0-15.66-5.56-22.67t-17.53-7H97.34v82.46Z" transform="translate(-50.84 -16.97)"/><path class="cls-1" d="M264.74,291.86q-17.33-18.76-17.32-53.81V17.88h45.35V241.35q0,14.84,6,21.44t17.11,6.59q11.13,0,17.11-6.59t6-21.44V17.88h43.71V238.05q0,35.06-17.32,53.81T315,310.62Q282,310.62,264.74,291.86Z" transform="translate(-50.84 -16.97)"/><path class="cls-1" d="M481.2,59.11H433.78V17.88H574V59.11H526.55V306.49H481.2Z" transform="translate(-50.84 -16.97)"/><path class="cls-1" d="M642.83,17.88h61.43l47,288.61H705.91l-8.25-57.31V250H646.12l-8.24,56.48H595.82Zm49.47,193L672.1,68.18h-.83L651.48,210.84Z" transform="translate(-50.84 -16.97)"/><path class="cls-1" d="M900.92,17.88h69.27q33.79,0,50.71,18.14t16.91,53.19v146q0,35.05-16.91,53.19t-50.71,18.14H900.92Zm68.44,247.38q11.14,0,17.11-6.6t6-21.44V87.14q0-14.83-6-21.44t-17.11-6.59H946.27V265.26Z" transform="translate(-50.84 -16.97)"/><path class="cls-1" d="M1099.24,17.88h123.69V59.11h-78.34v76.27h62.26v41.24h-62.26v88.64h78.34v41.23H1099.24Z" transform="translate(-50.84 -16.97)"/><path class="cls-1" d="M65.9,647.74Q51.74,632.4,51.75,604.43V476.21q0-27.94,14.15-43.3T107,417.56q26.92,0,41.09,15.35t14.15,43.3v25.24H126.76V473.83q0-22.17-18.75-22.17T89.25,473.83V607.16Q89.25,629,108,629t18.75-21.82V570.67h35.47v33.76q0,28-14.15,43.31T107,663.08Q80.05,663.08,65.9,647.74Z" transform="translate(-50.84 -16.97)"/><path class="cls-1" d="M222.92,647.4q-14.65-15.69-14.66-44.33V477.58q0-28.65,14.66-44.33t42.29-15.69q27.62,0,42.28,15.69t14.67,44.33V603.07q0,28.63-14.67,44.33t-42.28,15.68Q237.58,663.08,222.92,647.4Zm61.73-41.95V475.19q0-23.52-19.44-23.53t-19.44,23.53V605.45q0,23.53,19.44,23.53T284.65,605.45Z" transform="translate(-50.84 -16.97)"/><path class="cls-1" d="M373,421H420l36.49,142.88h.68V421h33.42v238.7H452.07l-45-174.25h-.68V659.67H373Z" transform="translate(-50.84 -16.97)"/><path class="cls-1" d="M551.64,647.57q-14-15.51-14-44.5V589.43h35.46v16.36q0,23.21,19.44,23.19,9.54,0,14.49-5.62t5-18.25q0-15-6.82-26.42T580,551.23q-23.21-20.46-32.4-37t-9.21-37.34q0-28.31,14.33-43.82t41.6-15.52q26.93,0,40.75,15.52t13.81,44.5v9.89H613.36V475.19q0-12.27-4.77-17.9t-14-5.63q-18.76,0-18.76,22.85a45.05,45.05,0,0,0,7,24.21q7,11.25,25.41,27.28,23.52,20.46,32.39,37.17t8.87,39.21q0,29.34-14.49,45T592.9,663.08Q565.62,663.08,551.64,647.57Z" transform="translate(-50.84 -16.97)"/><path class="cls-1" d="M709.52,647.57q-14.31-15.51-14.32-44.5V421h37.51V605.79q0,12.29,4.95,17.74T751.81,629q9.21,0,14.15-5.45t4.94-17.74V421h36.15v182.1q0,29-14.32,44.5t-41.61,15.51Q723.83,663.08,709.52,647.57Z" transform="translate(-50.84 -16.97)"/><path class="cls-1" d="M859.22,421h37.51v204.6h61.72v34.1H859.22Z" transform="translate(-50.84 -16.97)"/><path class="cls-1" d="M1004.83,455.07H965.61V421h115.94v34.1h-39.21v204.6h-37.51Z" transform="translate(-50.84 -16.97)"/><path class="cls-1" d="M1138.5,421h50.81l38.88,238.7h-37.51l-6.82-47.4V613h-42.63l-6.82,46.71h-34.78Zm40.92,159.59-16.71-118H1162l-16.36,118Z" transform="translate(-50.84 -16.97)"/></g><g id="base"><g id="long-line"><line class="cls-2" x1="158.35" y1="106.94" x2="158.35" y2="106.94"/><path class="cls-3" d="M225.16,123.59c103.46,1.92,174.3,80,174.3,80S507.61,328.51,604.05,323.29c0,0,79.49-24.76,46.91-82.1s-109.47-1.3-109.47-1.3-57.34,65.16-44.3,172,86,165.5,86,165.5S709.6,692.09,873.8,595.65c0,0,132.92-88.61,92.53-245l-40.4-109.47s-23.46-66.46,71.67-114.68l36.62-15.46" transform="translate(-50.84 -16.97)"/><line class="cls-2" x1="990.75" y1="90.98" x2="990.75" y2="90.98"/></g><g id="paper-plane"><polygon class="cls-4" points="1009.32 61.66 999.87 90 1093.05 43.09 1009.32 61.66"/><polygon class="cls-4" points="999.87 90 1042.22 70.45 1018.44 70.45 999.87 90"/><polygon class="cls-4" points="988.47 40.16 1009.32 61.66 1093.05 43.09 988.47 40.16"/><polygon class="cls-4" points="1018.44 70.45 1038.31 95.54 1093.05 43.09 1018.44 70.45"/></g></g><g id="stage-1"><path class="cls-5" d="M181.3,215.64A87.24,87.24,0,0,1,149.53,49.9l18.74,40.73,16.29,78.19Z" transform="translate(-50.84 -16.97)"/><path class="cls-5" d="M227.29,206a87.23,87.23,0,0,0-35-164.53L191.07,78.9l15.64,93.17Z" transform="translate(-50.84 -16.97)"/><circle class="cls-6" cx="187.16" cy="128.6" r="73.24" transform="translate(-31.83 264.24) rotate(-76.72)"/><circle class="cls-7" cx="136.33" cy="111.63" r="68.24"/><path class="cls-5" d="M107.24,252.19h3.89a3.83,3.83,0,0,1,3,1.06,4.39,4.39,0,0,1,1,3.09V258a4.43,4.43,0,0,1-1,3.1,3.86,3.86,0,0,1-3,1h-1.25V269h-2.64Zm3.89,7.56a1.25,1.25,0,0,0,1-.36,1.86,1.86,0,0,0,.32-1.22v-2a1.87,1.87,0,0,0-.32-1.23,1.25,1.25,0,0,0-1-.36h-1.25v5.16Z" transform="translate(-50.84 -16.97)"/><path class="cls-5" d="M117.7,252.19h3.58L124,269h-2.64l-.48-3.33v0h-3l-.48,3.29H115Zm2.88,11.23-1.17-8.3h0l-1.15,8.3Z" transform="translate(-50.84 -16.97)"/><path class="cls-5" d="M125.29,252.19h3.91a4,4,0,0,1,3,.95,4,4,0,0,1,.94,2.92v1c0,1.74-.58,2.85-1.73,3.31v.05a2.07,2.07,0,0,1,1.36,1.17,6.06,6.06,0,0,1,.39,2.38V267c0,.48,0,.87.05,1.17a2.83,2.83,0,0,0,.24.87h-2.69a4.11,4.11,0,0,1-.19-.77,11.84,11.84,0,0,1,0-1.29v-3.08a2.58,2.58,0,0,0-.37-1.6,1.55,1.55,0,0,0-1.28-.46h-.91V269h-2.64Zm3.6,7.2a1.54,1.54,0,0,0,1.18-.41,1.87,1.87,0,0,0,.4-1.36v-1.3a2.17,2.17,0,0,0-.32-1.32,1.24,1.24,0,0,0-1-.41h-1.2v4.8Z" transform="translate(-50.84 -16.97)"/><path class="cls-5" d="M137,254.59h-2.76v-2.4h8.16v2.4h-2.76V269H137Z" transform="translate(-50.84 -16.97)"/><path class="cls-5" d="M143.65,252.19h2.64V269h-2.64Z" transform="translate(-50.84 -16.97)"/><path class="cls-5" d="M149.08,268.15a4.34,4.34,0,0,1-1-3v-9a4.36,4.36,0,0,1,1-3,4.42,4.42,0,0,1,5.79,0,4.36,4.36,0,0,1,1,3v1.77h-2.49v-1.94c0-1-.45-1.56-1.33-1.56s-1.31.52-1.31,1.56v9.39c0,1,.44,1.53,1.31,1.53s1.33-.51,1.33-1.53v-2.57h2.49v2.37a4.34,4.34,0,0,1-1,3,4.42,4.42,0,0,1-5.79,0Z" transform="translate(-50.84 -16.97)"/><path class="cls-5" d="M157.44,252.19h2.64V269h-2.64Z" transform="translate(-50.84 -16.97)"/><path class="cls-5" d="M162.05,252.19h3.89a3.81,3.81,0,0,1,2.95,1.06,4.35,4.35,0,0,1,1,3.09V258a4.39,4.39,0,0,1-1,3.1,3.85,3.85,0,0,1-2.95,1h-1.25V269h-2.64Zm3.89,7.56a1.23,1.23,0,0,0,1-.36,1.8,1.8,0,0,0,.33-1.22v-2a1.81,1.81,0,0,0-.33-1.23,1.23,1.23,0,0,0-1-.36h-1.25v5.16Z" transform="translate(-50.84 -16.97)"/><path class="cls-5" d="M172.52,252.19h3.57l2.74,16.8h-2.64l-.48-3.33v0h-3l-.48,3.29h-2.45Zm2.88,11.23-1.18-8.3h-.05l-1.15,8.3Z" transform="translate(-50.84 -16.97)"/><path class="cls-5" d="M180.88,268.15a4.34,4.34,0,0,1-1-3v-9a4.36,4.36,0,0,1,1-3,4.41,4.41,0,0,1,5.78,0,4.31,4.31,0,0,1,1,3v1.77h-2.5v-1.94q0-1.56-1.32-1.56t-1.32,1.56v9.39q0,1.53,1.32,1.53t1.32-1.53v-2.57h2.5v2.37a4.3,4.3,0,0,1-1,3,4.41,4.41,0,0,1-5.78,0Z" transform="translate(-50.84 -16.97)"/><path class="cls-5" d="M189.24,252.19h2.64V269h-2.64Z" transform="translate(-50.84 -16.97)"/><path class="cls-5" d="M194.69,268.13a4.4,4.4,0,0,1-1-3.12v-8.83a4.37,4.37,0,0,1,1-3.12,4.54,4.54,0,0,1,5.95,0,4.37,4.37,0,0,1,1,3.12V265a4.4,4.4,0,0,1-1,3.12,4.57,4.57,0,0,1-5.95,0Zm3.22-19.83h2.88l-2.57,2.76h-2ZM199,265.18V256c0-1.11-.46-1.66-1.37-1.66s-1.37.55-1.37,1.66v9.17c0,1.1.46,1.65,1.37,1.65S199,266.28,199,265.18Z" transform="translate(-50.84 -16.97)"/><path class="cls-5" d="M203.45,252.19h3.31l2.57,10.06h0V252.19h2.35V269H209l-3.17-12.26h0V269h-2.35Z" transform="translate(-50.84 -16.97)"/><path d="M222.5,269l-.4-1H222a3.09,3.09,0,0,1-1.08.92,3.52,3.52,0,0,1-1.45.26,2.37,2.37,0,0,1-1.74-.63,2.43,2.43,0,0,1-.63-1.79,2.05,2.05,0,0,1,.85-1.8,5.1,5.1,0,0,1,2.57-.64l1.33,0v-.33a1,1,0,0,0-1.19-1.16,5.44,5.44,0,0,0-2.16.55l-.69-1.41a6.24,6.24,0,0,1,2.93-.69,3.65,3.65,0,0,1,2.36.67,2.51,2.51,0,0,1,.82,2V269Zm-.61-3.54-.81,0a2.47,2.47,0,0,0-1.35.33,1,1,0,0,0-.45.91c0,.59.34.88,1,.88a1.63,1.63,0,0,0,1.16-.41,1.48,1.48,0,0,0,.44-1.11Z" transform="translate(-50.84 -16.97)"/><path d="M233,267.47a4.46,4.46,0,0,0,1.31-.24v1.55a4.69,4.69,0,0,1-1.91.35,2.35,2.35,0,0,1-1.82-.63,2.78,2.78,0,0,1-.57-1.9v-3.69h-1V262l1.15-.7.6-1.61h1.33v1.63h2.14v1.56h-2.14v3.69a.78.78,0,0,0,.25.65A1,1,0,0,0,233,267.47Z" transform="translate(-50.84 -16.97)"/><path d="M240.08,261.21a3.48,3.48,0,0,1,.71.06l-.16,2a2.63,2.63,0,0,0-.61-.07,2.18,2.18,0,0,0-1.56.52,1.85,1.85,0,0,0-.56,1.43V269h-2.08v-7.64h1.58l.31,1.28h.1a2.79,2.79,0,0,1,1-1A2.36,2.36,0,0,1,240.08,261.21Z" transform="translate(-50.84 -16.97)"/><path d="M247,269l-.4-1h-.06a3.09,3.09,0,0,1-1.08.92,3.52,3.52,0,0,1-1.45.26,2.35,2.35,0,0,1-1.74-.63,2.43,2.43,0,0,1-.63-1.79,2,2,0,0,1,.85-1.8,5.07,5.07,0,0,1,2.57-.64l1.32,0v-.33a1,1,0,0,0-1.19-1.16,5.4,5.4,0,0,0-2.15.55l-.69-1.41a6.24,6.24,0,0,1,2.93-.69,3.65,3.65,0,0,1,2.36.67,2.51,2.51,0,0,1,.82,2V269Zm-.62-3.54-.8,0a2.54,2.54,0,0,0-1.36.33,1,1,0,0,0-.44.91c0,.59.34.88,1,.88a1.64,1.64,0,0,0,1.16-.41,1.47,1.47,0,0,0,.43-1.11Z" transform="translate(-50.84 -16.97)"/><path d="M252.45,269l-2.91-7.64h2.18l1.48,4.35a8,8,0,0,1,.3,1.57h0a7.43,7.43,0,0,1,.31-1.57l1.47-4.35h2.18L254.59,269Z" transform="translate(-50.84 -16.97)"/><path d="M262.05,269.13a3.93,3.93,0,0,1-2.88-1,3.87,3.87,0,0,1-1-2.89,4.24,4.24,0,0,1,1-3,3.42,3.42,0,0,1,2.66-1,3.34,3.34,0,0,1,2.52.92,3.48,3.48,0,0,1,.9,2.55v1h-4.93a2.06,2.06,0,0,0,.53,1.39,1.87,1.87,0,0,0,1.38.5,5.53,5.53,0,0,0,1.31-.15,6.21,6.21,0,0,0,1.28-.46v1.62a4.49,4.49,0,0,1-1.17.4A7.22,7.22,0,0,1,262.05,269.13Zm-.29-6.44a1.33,1.33,0,0,0-1,.42,2,2,0,0,0-.43,1.19h2.93a1.74,1.74,0,0,0-.41-1.19A1.36,1.36,0,0,0,261.76,262.69Zm-1.2-2.18v-.19a18.54,18.54,0,0,0,1.6-2.05h2.34v.14c-.23.24-.64.59-1.21,1.06s-1,.81-1.34,1Z" transform="translate(-50.84 -16.97)"/><path d="M272.2,266.72a2.08,2.08,0,0,1-.82,1.79,4,4,0,0,1-2.44.62,8.11,8.11,0,0,1-1.42-.11,5.24,5.24,0,0,1-1.1-.34V267a6.91,6.91,0,0,0,1.31.46,5.37,5.37,0,0,0,1.28.18c.75,0,1.13-.22,1.13-.65a.54.54,0,0,0-.15-.4,1.91,1.91,0,0,0-.52-.35c-.24-.13-.57-.28-1-.46a6,6,0,0,1-1.3-.68,2,2,0,0,1-.6-.72,2.32,2.32,0,0,1-.19-1,1.84,1.84,0,0,1,.79-1.58,3.86,3.86,0,0,1,2.24-.55,6.38,6.38,0,0,1,2.69.6l-.63,1.5a11.23,11.23,0,0,0-1.07-.4,3.29,3.29,0,0,0-1-.16c-.62,0-.93.17-.93.5a.57.57,0,0,0,.3.48,7.88,7.88,0,0,0,1.3.61,6,6,0,0,1,1.32.68,2.06,2.06,0,0,1,.61.72A2.28,2.28,0,0,1,272.2,266.72Z" transform="translate(-50.84 -16.97)"/><path d="M279.88,269.13a2.46,2.46,0,0,1-2.11-1.05,4.76,4.76,0,0,1-.77-2.9,4.84,4.84,0,0,1,.78-2.93,2.53,2.53,0,0,1,2.16-1,2.49,2.49,0,0,1,2.2,1.12h.07a8.12,8.12,0,0,1-.16-1.53v-2.45h2.09V269h-1.6l-.4-1h-.09A2.39,2.39,0,0,1,279.88,269.13Zm.73-1.66a1.42,1.42,0,0,0,1.18-.47,2.66,2.66,0,0,0,.4-1.58v-.22a3.1,3.1,0,0,0-.38-1.77,1.41,1.41,0,0,0-1.23-.53,1.22,1.22,0,0,0-1.08.59,3.15,3.15,0,0,0-.39,1.72,3,3,0,0,0,.39,1.69A1.27,1.27,0,0,0,280.61,267.47Z" transform="translate(-50.84 -16.97)"/><path d="M289.78,269.13a3.93,3.93,0,0,1-2.88-1,3.83,3.83,0,0,1-1-2.89,4.24,4.24,0,0,1,1-3,3.92,3.92,0,0,1,5.18-.12,3.48,3.48,0,0,1,.9,2.55v1H288a2,2,0,0,0,.53,1.39,1.84,1.84,0,0,0,1.38.5,5.45,5.45,0,0,0,1.3-.15,6.29,6.29,0,0,0,1.29-.46v1.62a4.76,4.76,0,0,1-1.17.4A7.29,7.29,0,0,1,289.78,269.13Zm-.29-6.44a1.33,1.33,0,0,0-1,.42,1.91,1.91,0,0,0-.43,1.19h2.92a1.74,1.74,0,0,0-.4-1.19A1.36,1.36,0,0,0,289.49,262.69Z" transform="translate(-50.84 -16.97)"/><path d="M113.63,285.79l-.72-2.38h-3.65l-.72,2.38h-2.29l3.53-10h2.59l3.54,10Zm-1.23-4.16c-.67-2.15-1.05-3.37-1.13-3.65a6.48,6.48,0,0,1-.18-.67q-.23.87-1.29,4.32ZM110,275v-.19a17.9,17.9,0,0,0,1.61-2.06h2.34v.15a15.15,15.15,0,0,1-1.22,1.05c-.57.47-1,.82-1.34,1.05Z" transform="translate(-50.84 -16.97)"/><path d="M123.66,278.15v1.06l-1.2.31a2.05,2.05,0,0,1,.33,1.14,2.33,2.33,0,0,1-.86,1.92,3.69,3.69,0,0,1-2.38.69l-.38,0-.3,0a.69.69,0,0,0-.32.55q0,.45,1.14.45H121a3,3,0,0,1,1.92.54,1.93,1.93,0,0,1,.66,1.59,2.36,2.36,0,0,1-1.12,2.08,5.82,5.82,0,0,1-3.21.73,4.45,4.45,0,0,1-2.44-.55A1.78,1.78,0,0,1,116,287a1.63,1.63,0,0,1,.44-1.16,2.37,2.37,0,0,1,1.26-.66,1.4,1.4,0,0,1-.56-.45,1.11,1.11,0,0,1,0-1.39,3.31,3.31,0,0,1,.73-.57,2.06,2.06,0,0,1-1-.83,2.62,2.62,0,0,1-.35-1.36,2.38,2.38,0,0,1,.81-1.93,3.5,3.5,0,0,1,2.33-.69,5.86,5.86,0,0,1,.76.06l.56.09Zm-5.9,8.72a.77.77,0,0,0,.41.68,2.33,2.33,0,0,0,1.16.24,4.22,4.22,0,0,0,1.76-.3,1,1,0,0,0,.63-.84.6.6,0,0,0-.37-.6,3.08,3.08,0,0,0-1.16-.16h-1.08a1.6,1.6,0,0,0-1,.27A.82.82,0,0,0,117.76,286.87Zm.76-6.22a1.54,1.54,0,0,0,.28,1,1,1,0,0,0,.87.37,1,1,0,0,0,.86-.37,1.61,1.61,0,0,0,.27-1c0-.92-.38-1.38-1.13-1.38S118.52,279.73,118.52,280.65Z" transform="translate(-50.84 -16.97)"/><path d="M131.86,282a4.16,4.16,0,0,1-1,2.92,3.58,3.58,0,0,1-2.74,1.05,3.89,3.89,0,0,1-1.95-.48,3.27,3.27,0,0,1-1.29-1.39,4.64,4.64,0,0,1-.45-2.1,4.12,4.12,0,0,1,1-2.92,3.6,3.6,0,0,1,2.75-1,3.85,3.85,0,0,1,1.94.48,3.19,3.19,0,0,1,1.29,1.38A4.58,4.58,0,0,1,131.86,282Zm-5.28,0a3.19,3.19,0,0,0,.37,1.71,1.32,1.32,0,0,0,1.21.58,1.31,1.31,0,0,0,1.2-.57,3.21,3.21,0,0,0,.37-1.72,3.15,3.15,0,0,0-.37-1.71,1.35,1.35,0,0,0-1.21-.56,1.3,1.3,0,0,0-1.2.56A3.12,3.12,0,0,0,126.58,282Z" transform="translate(-50.84 -16.97)"/><path d="M137.85,278a3.29,3.29,0,0,1,.7.07L138.4,280a2.72,2.72,0,0,0-.62-.07,2.17,2.17,0,0,0-1.55.52,1.82,1.82,0,0,0-.56,1.43v3.89h-2.09v-7.64h1.58l.31,1.28h.1a3,3,0,0,1,1-1A2.43,2.43,0,0,1,137.85,278Z" transform="translate(-50.84 -16.97)"/><path d="M144.8,285.79l-.41-1h0a3,3,0,0,1-1.09.92,3.48,3.48,0,0,1-1.45.26,2.34,2.34,0,0,1-1.73-.63,2.43,2.43,0,0,1-.63-1.79,2,2,0,0,1,.85-1.8,5,5,0,0,1,2.56-.64l1.33,0v-.33a1,1,0,0,0-1.19-1.16,5.36,5.36,0,0,0-2.15.55l-.69-1.41a6.2,6.2,0,0,1,2.92-.69,3.63,3.63,0,0,1,2.36.67,2.48,2.48,0,0,1,.82,2v5.09Zm-.62-3.54-.81,0a2.52,2.52,0,0,0-1.35.33,1,1,0,0,0-.44.91c0,.59.33.88,1,.88a1.64,1.64,0,0,0,1.16-.41,1.47,1.47,0,0,0,.43-1.11Z" transform="translate(-50.84 -16.97)"/><path d="M151.15,288.73a4.65,4.65,0,0,1-1.25-.15v-1.76a4.23,4.23,0,0,0,1,.13,1.13,1.13,0,0,0,1-.43,2.42,2.42,0,0,0,.3-1.36V275.8h2.12v9.35a4,4,0,0,1-.8,2.66A3,3,0,0,1,151.15,288.73Z" transform="translate(-50.84 -16.97)"/><path d="M162.08,285.79l-.28-1h-.11a2.21,2.21,0,0,1-.95.83,3.27,3.27,0,0,1-1.4.29,2.67,2.67,0,0,1-2-.72,2.94,2.94,0,0,1-.68-2.08v-5h2.08v4.46a2.1,2.1,0,0,0,.3,1.24,1.05,1.05,0,0,0,.93.42,1.41,1.41,0,0,0,1.27-.59,3.61,3.61,0,0,0,.39-1.94v-3.59h2.08v7.64Z" transform="translate(-50.84 -16.97)"/><path d="M167.69,285.79l-2.91-7.64H167l1.47,4.35a7.37,7.37,0,0,1,.31,1.57h0a7.43,7.43,0,0,1,.31-1.57l1.47-4.35h2.18l-2.91,7.64Z" transform="translate(-50.84 -16.97)"/><path d="M177.29,285.93a3.93,3.93,0,0,1-2.88-1,3.87,3.87,0,0,1-1-2.89,4.24,4.24,0,0,1,1-3A3.43,3.43,0,0,1,177,278a3.34,3.34,0,0,1,2.52.93,3.48,3.48,0,0,1,.9,2.55v1h-4.93a2,2,0,0,0,.53,1.39,1.87,1.87,0,0,0,1.38.5,5.45,5.45,0,0,0,1.3-.15,6.29,6.29,0,0,0,1.29-.46v1.62a4.49,4.49,0,0,1-1.17.4A7.22,7.22,0,0,1,177.29,285.93Zm-.29-6.44a1.33,1.33,0,0,0-1,.42,2,2,0,0,0-.43,1.19h2.93a1.74,1.74,0,0,0-.41-1.19A1.36,1.36,0,0,0,177,279.49Z" transform="translate(-50.84 -16.97)"/><path d="M189.16,285.79h-2.08v-4.46a2.1,2.1,0,0,0-.3-1.24,1.05,1.05,0,0,0-.93-.42,1.41,1.41,0,0,0-1.27.59,3.61,3.61,0,0,0-.39,1.94v3.59h-2.08v-7.64h1.59l.28,1h.12a2.18,2.18,0,0,1,1-.84,3.23,3.23,0,0,1,1.39-.29,2.67,2.67,0,0,1,2,.73,2.88,2.88,0,0,1,.69,2.08Z" transform="translate(-50.84 -16.97)"/><path d="M194.53,284.27a4.52,4.52,0,0,0,1.31-.24v1.55a4.72,4.72,0,0,1-1.91.35,2.36,2.36,0,0,1-1.83-.63,2.78,2.78,0,0,1-.57-1.9v-3.69h-1v-.88l1.15-.7.6-1.61h1.34v1.63h2.14v1.56h-2.14v3.69a.8.8,0,0,0,.25.65A.92.92,0,0,0,194.53,284.27Z" transform="translate(-50.84 -16.97)"/><path d="M202.8,285.79l-.28-1h-.11a2.21,2.21,0,0,1-.95.83,3.3,3.3,0,0,1-1.4.29,2.66,2.66,0,0,1-2-.72,2.9,2.9,0,0,1-.69-2.08v-5h2.09v4.46a2.18,2.18,0,0,0,.29,1.24,1.07,1.07,0,0,0,.94.42,1.41,1.41,0,0,0,1.26-.59,3.61,3.61,0,0,0,.39-1.94v-3.59h2.09v7.64Z" transform="translate(-50.84 -16.97)"/><path d="M209,285.93a2.48,2.48,0,0,1-2.12-1.05,5.87,5.87,0,0,1,0-5.83,2.55,2.55,0,0,1,2.16-1.05,2.49,2.49,0,0,1,2.2,1.13h.07a8.12,8.12,0,0,1-.16-1.53v-2.45h2.09v10.64h-1.6l-.4-1h-.09A2.38,2.38,0,0,1,209,285.93Zm.73-1.66a1.42,1.42,0,0,0,1.17-.47,2.73,2.73,0,0,0,.41-1.58V282a3.18,3.18,0,0,0-.38-1.77,1.44,1.44,0,0,0-1.24-.53,1.23,1.23,0,0,0-1.08.59,3.15,3.15,0,0,0-.39,1.72,3,3,0,0,0,.39,1.69A1.27,1.27,0,0,0,209.74,284.27Z" transform="translate(-50.84 -16.97)"/><path d="M166.72,320.78h-2.08v-4.46a2.3,2.3,0,0,0-.28-1.24,1,1,0,0,0-.87-.41,1.25,1.25,0,0,0-1.16.58,3.79,3.79,0,0,0-.37,1.94v3.59h-2.08v-7.64h1.59l.28,1h.12a2,2,0,0,1,.89-.82,2.83,2.83,0,0,1,1.33-.3,2.39,2.39,0,0,1,2.32,1.12h.19a2,2,0,0,1,.9-.83,3.11,3.11,0,0,1,1.35-.29,2.64,2.64,0,0,1,2,.67,2.92,2.92,0,0,1,.67,2.13v5h-2.1v-4.46a2.31,2.31,0,0,0-.27-1.24,1,1,0,0,0-.87-.41,1.31,1.31,0,0,0-1.15.54,3.16,3.16,0,0,0-.38,1.74Z" transform="translate(-50.84 -16.97)"/><path d="M178.48,320.78l-.4-1H178a3.2,3.2,0,0,1-1.08.92,3.72,3.72,0,0,1-1.46.25,2.34,2.34,0,0,1-1.73-.63,2.41,2.41,0,0,1-.63-1.79,2,2,0,0,1,.85-1.79,4.88,4.88,0,0,1,2.57-.64l1.32,0v-.34a1,1,0,0,0-1.19-1.16,5.4,5.4,0,0,0-2.15.55l-.69-1.41a6.24,6.24,0,0,1,2.93-.69,3.66,3.66,0,0,1,2.35.67,2.48,2.48,0,0,1,.83,2v5.09Zm-.62-3.54-.8,0a2.63,2.63,0,0,0-1.36.33,1,1,0,0,0-.44.91c0,.59.34.89,1,.89a1.6,1.6,0,0,0,1.16-.42,1.47,1.47,0,0,0,.43-1.11Z" transform="translate(-50.84 -16.97)"/><path d="M186.35,313a3.44,3.44,0,0,1,.7.06l-.16,1.95a2.62,2.62,0,0,0-.61-.06,2.24,2.24,0,0,0-1.56.51,1.85,1.85,0,0,0-.55,1.43v3.89h-2.09v-7.64h1.58l.31,1.29h.1a2.91,2.91,0,0,1,1-1A2.37,2.37,0,0,1,186.35,313Z" transform="translate(-50.84 -16.97)"/><path d="M193.76,320.78h-6v-1.23l3.54-4.82h-3.33v-1.59h5.7v1.36l-3.44,4.69h3.57Z" transform="translate(-50.84 -16.97)"/><path d="M202.21,317a4.09,4.09,0,0,1-1,2.92,3.58,3.58,0,0,1-2.74,1.05,3.82,3.82,0,0,1-1.94-.48,3.24,3.24,0,0,1-1.3-1.39,4.64,4.64,0,0,1-.45-2.1,4.08,4.08,0,0,1,1-2.91,3.57,3.57,0,0,1,2.75-1,3.85,3.85,0,0,1,1.94.48,3.17,3.17,0,0,1,1.29,1.37A4.64,4.64,0,0,1,202.21,317Zm-5.28,0a3.21,3.21,0,0,0,.37,1.72,1.35,1.35,0,0,0,1.22.58,1.31,1.31,0,0,0,1.19-.58,3.21,3.21,0,0,0,.37-1.72,3.09,3.09,0,0,0-.37-1.7,1.57,1.57,0,0,0-2.41,0A3.15,3.15,0,0,0,196.93,317Z" transform="translate(-50.84 -16.97)"/><path d="M210,320.92a2.48,2.48,0,0,1-2.11-1,5.87,5.87,0,0,1,0-5.83,2.54,2.54,0,0,1,2.16-1.05,2.49,2.49,0,0,1,2.2,1.12h.07a8.12,8.12,0,0,1-.16-1.53v-2.44h2.09v10.63h-1.6l-.4-1h-.09A2.39,2.39,0,0,1,210,320.92Zm.73-1.66a1.42,1.42,0,0,0,1.18-.47,2.63,2.63,0,0,0,.4-1.57V317a3,3,0,0,0-.38-1.76,1.39,1.39,0,0,0-1.23-.54,1.22,1.22,0,0,0-1.08.59,3.15,3.15,0,0,0-.39,1.72,3,3,0,0,0,.39,1.7A1.28,1.28,0,0,0,210.72,319.26Z" transform="translate(-50.84 -16.97)"/><path d="M219.89,320.92a3.93,3.93,0,0,1-2.88-1,3.83,3.83,0,0,1-1-2.88,4.24,4.24,0,0,1,1-3,3.9,3.9,0,0,1,5.18-.13,3.51,3.51,0,0,1,.9,2.55v1h-4.93a2,2,0,0,0,.53,1.39,1.84,1.84,0,0,0,1.38.5,6,6,0,0,0,1.3-.14,6.94,6.94,0,0,0,1.29-.46v1.61a5.24,5.24,0,0,1-1.17.41A7.35,7.35,0,0,1,219.89,320.92Zm-.29-6.44a1.33,1.33,0,0,0-1,.42,1.91,1.91,0,0,0-.43,1.19h2.92a1.74,1.74,0,0,0-.4-1.19A1.36,1.36,0,0,0,219.6,314.48Z" transform="translate(-50.84 -16.97)"/><path d="M234.79,320.78h-7v-1.47l2.51-2.53c.74-.76,1.22-1.29,1.45-1.58a3.53,3.53,0,0,0,.49-.82,2.08,2.08,0,0,0,.15-.78,1.16,1.16,0,0,0-.33-.9,1.3,1.3,0,0,0-.88-.29,2.51,2.51,0,0,0-1.13.27,5.37,5.37,0,0,0-1.14.76l-1.15-1.36a7.34,7.34,0,0,1,1.22-.89,4.22,4.22,0,0,1,1.06-.4,5.15,5.15,0,0,1,1.29-.14A3.77,3.77,0,0,1,233,311a2.7,2.7,0,0,1,1.12,1,2.57,2.57,0,0,1,.39,1.4,3.49,3.49,0,0,1-.24,1.3,4.88,4.88,0,0,1-.75,1.24,18.3,18.3,0,0,1-1.8,1.81l-1.28,1.21v.1h4.35Z" transform="translate(-50.84 -16.97)"/><path d="M242.73,315.79a7,7,0,0,1-.86,3.87,3.33,3.33,0,0,1-5.25,0,6.88,6.88,0,0,1-.88-3.83,7,7,0,0,1,.86-3.9,3.31,3.31,0,0,1,5.24.06A6.77,6.77,0,0,1,242.73,315.79Zm-4.89,0a7.8,7.8,0,0,0,.32,2.63,1.11,1.11,0,0,0,1.07.8,1.12,1.12,0,0,0,1.07-.81,10.8,10.8,0,0,0,0-5.26,1.11,1.11,0,0,0-2.13,0A7.83,7.83,0,0,0,237.84,315.79Z" transform="translate(-50.84 -16.97)"/><path d="M250.78,320.78h-7v-1.47l2.51-2.53c.74-.76,1.23-1.29,1.45-1.58a3.61,3.61,0,0,0,.5-.82,2.08,2.08,0,0,0,.15-.78,1.16,1.16,0,0,0-.33-.9,1.34,1.34,0,0,0-.89-.29,2.54,2.54,0,0,0-1.13.27,5.64,5.64,0,0,0-1.14.76l-1.15-1.36a7,7,0,0,1,1.23-.89,4,4,0,0,1,1.06-.4,5.07,5.07,0,0,1,1.28-.14A3.71,3.71,0,0,1,249,311a2.7,2.7,0,0,1,1.12,1,2.57,2.57,0,0,1,.4,1.4,3.5,3.5,0,0,1-.25,1.3,4.88,4.88,0,0,1-.75,1.24,19.1,19.1,0,0,1-1.79,1.81l-1.29,1.21v.1h4.36Z" transform="translate(-50.84 -16.97)"/><path d="M258.77,320.78h-7v-1.47l2.51-2.53c.74-.76,1.23-1.29,1.46-1.58a3.92,3.92,0,0,0,.49-.82,2.08,2.08,0,0,0,.15-.78,1.16,1.16,0,0,0-.33-.9,1.32,1.32,0,0,0-.89-.29,2.54,2.54,0,0,0-1.13.27,5.64,5.64,0,0,0-1.14.76l-1.15-1.36a7.34,7.34,0,0,1,1.23-.89,4,4,0,0,1,1.06-.4,5.07,5.07,0,0,1,1.28-.14A3.79,3.79,0,0,1,257,311a2.67,2.67,0,0,1,1.11,1,2.57,2.57,0,0,1,.4,1.4,3.31,3.31,0,0,1-.25,1.3,4.88,4.88,0,0,1-.75,1.24,19.1,19.1,0,0,1-1.79,1.81l-1.29,1.21v.1h4.36Z" transform="translate(-50.84 -16.97)"/><rect class="cls-8" x="55.42" y="289.61" width="48.22" height="20.52" rx="4"/><path d="M115.71,320.34a2.11,2.11,0,0,1-1.81-.9,5,5,0,0,1,0-5,2.17,2.17,0,0,1,1.85-.9,2.13,2.13,0,0,1,1.88,1h.06a7.32,7.32,0,0,1-.13-1.31v-2.1h1.79v9.12H118l-.35-.85h-.07A2,2,0,0,1,115.71,320.34Zm.63-1.43a1.22,1.22,0,0,0,1-.39,2.37,2.37,0,0,0,.35-1.36V317a2.64,2.64,0,0,0-.33-1.51,1.18,1.18,0,0,0-1-.46,1,1,0,0,0-.93.51,2.69,2.69,0,0,0-.33,1.47,2.59,2.59,0,0,0,.33,1.45A1.09,1.09,0,0,0,116.34,318.91Z" transform="translate(-50.84 -16.97)"/><path d="M124.19,320.34a3.35,3.35,0,0,1-2.47-.88,3.3,3.3,0,0,1-.89-2.47,3.61,3.61,0,0,1,.82-2.54,2.94,2.94,0,0,1,2.28-.9,2.87,2.87,0,0,1,2.16.79,3,3,0,0,1,.77,2.18v.87h-4.22a1.73,1.73,0,0,0,.45,1.19,1.61,1.61,0,0,0,1.18.43,4.47,4.47,0,0,0,1.12-.13,5.47,5.47,0,0,0,1.11-.39v1.38a3.9,3.9,0,0,1-1,.35A6,6,0,0,1,124.19,320.34Zm-.25-5.52a1.14,1.14,0,0,0-.89.36,1.69,1.69,0,0,0-.37,1h2.51a1.46,1.46,0,0,0-.35-1A1.16,1.16,0,0,0,123.94,314.82Z" transform="translate(-50.84 -16.97)"/><path d="M132.89,318.27a1.82,1.82,0,0,1-.7,1.54,3.49,3.49,0,0,1-2.1.53,6.19,6.19,0,0,1-1.22-.1,4.66,4.66,0,0,1-.94-.28v-1.48a5.66,5.66,0,0,0,1.12.39,4.41,4.41,0,0,0,1.1.16c.65,0,1-.19,1-.56a.47.47,0,0,0-.12-.34,1.92,1.92,0,0,0-.45-.3q-.31-.16-.84-.39a4.92,4.92,0,0,1-1.11-.59,1.6,1.6,0,0,1-.52-.62,2,2,0,0,1-.16-.86,1.56,1.56,0,0,1,.68-1.35,3.36,3.36,0,0,1,1.92-.47,5.53,5.53,0,0,1,2.3.51l-.54,1.29c-.33-.14-.64-.25-.92-.34a2.93,2.93,0,0,0-.87-.14c-.53,0-.8.14-.8.43a.49.49,0,0,0,.26.41,6.32,6.32,0,0,0,1.12.53,4.9,4.9,0,0,1,1.12.58,1.73,1.73,0,0,1,.53.62A1.92,1.92,0,0,1,132.89,318.27Z" transform="translate(-50.84 -16.97)"/><path d="M136.36,320.34a2.14,2.14,0,0,1-1.82-.9,5,5,0,0,1,0-5,2.16,2.16,0,0,1,1.84-.9,2.13,2.13,0,0,1,1.89,1h.06a7.42,7.42,0,0,1-.14-1.31v-2.1H140v9.12h-1.37l-.35-.85h-.08A2,2,0,0,1,136.36,320.34Zm.62-1.43a1.23,1.23,0,0,0,1-.39,2.37,2.37,0,0,0,.35-1.36V317a2.64,2.64,0,0,0-.33-1.51A1.19,1.19,0,0,0,137,315a1,1,0,0,0-.92.51,2.68,2.68,0,0,0-.34,1.47,2.59,2.59,0,0,0,.34,1.45A1.09,1.09,0,0,0,137,318.91Z" transform="translate(-50.84 -16.97)"/><path d="M144.84,320.34a3.35,3.35,0,0,1-2.47-.88,3.27,3.27,0,0,1-.89-2.47,3.61,3.61,0,0,1,.82-2.54,2.94,2.94,0,0,1,2.28-.9,2.89,2.89,0,0,1,2.16.79,3,3,0,0,1,.77,2.18v.87h-4.22a1.73,1.73,0,0,0,.45,1.19,1.61,1.61,0,0,0,1.18.43,4.47,4.47,0,0,0,1.12-.13,5.4,5.4,0,0,0,1.1-.39v1.38a3.71,3.71,0,0,1-1,.35A6,6,0,0,1,144.84,320.34Zm-.25-5.52a1.12,1.12,0,0,0-.89.36,1.63,1.63,0,0,0-.37,1h2.51a1.51,1.51,0,0,0-.35-1A1.16,1.16,0,0,0,144.59,314.82Z" transform="translate(-50.84 -16.97)"/><rect class="cls-9" x="55.42" y="317.04" width="48.22" height="20.52" rx="4"/><path class="cls-7" d="M120.57,347.65h-1.79v-3.83q0-1.41-1-1.41a1.22,1.22,0,0,0-1.09.51,3.14,3.14,0,0,0-.33,1.65v3.08h-1.79v-9.12h1.79v1.86c0,.14,0,.48,0,1l0,.53h.09a2.07,2.07,0,0,1,1.9-1,2.29,2.29,0,0,1,1.75.62,2.44,2.44,0,0,1,.6,1.78Z" transform="translate(-50.84 -16.97)"/><path class="cls-7" d="M126.57,347.65l-.35-.89h0a2.65,2.65,0,0,1-.93.79,3.15,3.15,0,0,1-1.25.22,2,2,0,0,1-1.48-.54,2.08,2.08,0,0,1-.54-1.54,1.75,1.75,0,0,1,.72-1.54,4.2,4.2,0,0,1,2.2-.54l1.14,0v-.29a.89.89,0,0,0-1-1,4.7,4.7,0,0,0-1.84.47l-.6-1.2a5.29,5.29,0,0,1,2.51-.6,3.12,3.12,0,0,1,2,.58,2.11,2.11,0,0,1,.71,1.74v4.37Zm-.53-3-.69,0a2.17,2.17,0,0,0-1.16.28.88.88,0,0,0-.38.78c0,.51.29.76.87.76a1.37,1.37,0,0,0,1-.36,1.24,1.24,0,0,0,.37-1Z" transform="translate(-50.84 -16.97)"/><path class="cls-7" d="M134.23,345.7a1.82,1.82,0,0,1-.7,1.54,3.49,3.49,0,0,1-2.1.53,7.06,7.06,0,0,1-1.22-.1,4.66,4.66,0,0,1-.94-.28v-1.48a5.66,5.66,0,0,0,1.12.39,4.35,4.35,0,0,0,1.1.16c.65,0,1-.19,1-.56a.44.44,0,0,0-.13-.34,1.63,1.63,0,0,0-.44-.3q-.31-.17-.84-.39a4.92,4.92,0,0,1-1.11-.59,1.6,1.6,0,0,1-.52-.62,2,2,0,0,1-.16-.86,1.54,1.54,0,0,1,.68-1.35,3.35,3.35,0,0,1,1.91-.47,5.54,5.54,0,0,1,2.31.51l-.54,1.29a8.22,8.22,0,0,0-.92-.34,2.94,2.94,0,0,0-.88-.14c-.52,0-.79.14-.79.43a.49.49,0,0,0,.26.41,6.49,6.49,0,0,0,1.11.53,4.79,4.79,0,0,1,1.13.58,1.73,1.73,0,0,1,.53.62A1.92,1.92,0,0,1,134.23,345.7Z" transform="translate(-50.84 -16.97)"/><path class="cls-7" d="M138.38,346.34a4.15,4.15,0,0,0,1.13-.2v1.33a4,4,0,0,1-1.64.3,2,2,0,0,1-1.57-.54,2.42,2.42,0,0,1-.49-1.63v-3.16H135v-.75l1-.6.52-1.39h1.14v1.4h1.84v1.34H137.6v3.16a.68.68,0,0,0,.22.56A.84.84,0,0,0,138.38,346.34Z" transform="translate(-50.84 -16.97)"/><path class="cls-7" d="M145,347.65l-.34-.89h-.05a2.65,2.65,0,0,1-.93.79,3.11,3.11,0,0,1-1.25.22,2,2,0,0,1-1.48-.54,2.08,2.08,0,0,1-.54-1.54,1.73,1.73,0,0,1,.73-1.54,4.17,4.17,0,0,1,2.2-.54l1.13,0v-.29a.89.89,0,0,0-1-1,4.74,4.74,0,0,0-1.84.47l-.59-1.2a5.25,5.25,0,0,1,2.5-.6,3.17,3.17,0,0,1,2,.58,2.13,2.13,0,0,1,.7,1.74v4.37Zm-.53-3-.69,0a2.19,2.19,0,0,0-1.16.28.88.88,0,0,0-.38.78c0,.51.29.76.87.76a1.37,1.37,0,0,0,1-.36,1.24,1.24,0,0,0,.37-1Z" transform="translate(-50.84 -16.97)"/><path d="M166.72,348.21h-2.08v-4.46a2.27,2.27,0,0,0-.28-1.24,1,1,0,0,0-.87-.41,1.25,1.25,0,0,0-1.16.58,3.77,3.77,0,0,0-.37,1.94v3.59h-2.08v-7.64h1.59l.28,1h.12a2,2,0,0,1,.89-.82,2.83,2.83,0,0,1,1.33-.3,2.39,2.39,0,0,1,2.32,1.12h.19a2,2,0,0,1,.9-.83,3,3,0,0,1,1.35-.29,2.68,2.68,0,0,1,2,.66,3,3,0,0,1,.67,2.14v5h-2.1v-4.46a2.28,2.28,0,0,0-.27-1.24,1,1,0,0,0-.87-.41,1.31,1.31,0,0,0-1.15.54,3.16,3.16,0,0,0-.38,1.74Z" transform="translate(-50.84 -16.97)"/><path d="M178.48,348.21l-.4-1H178a3,3,0,0,1-1.08.92,3.53,3.53,0,0,1-1.46.26,2.34,2.34,0,0,1-1.73-.63,2.43,2.43,0,0,1-.63-1.79,2,2,0,0,1,.85-1.79,4.88,4.88,0,0,1,2.57-.64l1.32,0v-.34a1,1,0,0,0-1.19-1.16,5.4,5.4,0,0,0-2.15.55l-.69-1.41a6.24,6.24,0,0,1,2.93-.69,3.66,3.66,0,0,1,2.35.67,2.48,2.48,0,0,1,.83,2v5.09Zm-.62-3.54-.8,0a2.63,2.63,0,0,0-1.36.33,1,1,0,0,0-.44.91c0,.59.34.89,1,.89a1.6,1.6,0,0,0,1.16-.42,1.47,1.47,0,0,0,.43-1.11Z" transform="translate(-50.84 -16.97)"/><path d="M181,340.57h2.28l1.44,4.3a5.8,5.8,0,0,1,.26,1.33h0a6.28,6.28,0,0,1,.29-1.33l1.42-4.3H189l-3.23,8.62a3.71,3.71,0,0,1-1.27,1.79,3.18,3.18,0,0,1-1.92.6,4.66,4.66,0,0,1-1.06-.12v-1.65a3.49,3.49,0,0,0,.82.09,1.48,1.48,0,0,0,1-.34,2.16,2.16,0,0,0,.65-1l.12-.37Z" transform="translate(-50.84 -16.97)"/><path d="M197,344.38a4.14,4.14,0,0,1-1,2.92,3.58,3.58,0,0,1-2.74,1.05,3.86,3.86,0,0,1-2-.48,3.16,3.16,0,0,1-1.29-1.39,4.64,4.64,0,0,1-.45-2.1,4.08,4.08,0,0,1,1-2.91,3.57,3.57,0,0,1,2.75-1,3.85,3.85,0,0,1,1.94.48,3.17,3.17,0,0,1,1.29,1.37A4.64,4.64,0,0,1,197,344.38Zm-5.28,0a3.15,3.15,0,0,0,.37,1.71,1.33,1.33,0,0,0,1.21.59,1.32,1.32,0,0,0,1.2-.58,3.21,3.21,0,0,0,.37-1.72,3.18,3.18,0,0,0-.37-1.7,1.34,1.34,0,0,0-1.21-.57,1.32,1.32,0,0,0-1.2.56A3.15,3.15,0,0,0,191.71,344.38Z" transform="translate(-50.84 -16.97)"/><path d="M204.77,348.35a2.49,2.49,0,0,1-2.12-1.05,5.88,5.88,0,0,1,0-5.82,2.53,2.53,0,0,1,2.15-1.05,2.5,2.5,0,0,1,2.21,1.12h.06a9,9,0,0,1-.15-1.53v-2.44H209v10.63h-1.6l-.4-1h-.09A2.4,2.4,0,0,1,204.77,348.35Zm.73-1.66a1.4,1.4,0,0,0,1.17-.47,2.64,2.64,0,0,0,.41-1.57v-.23a3.12,3.12,0,0,0-.38-1.76,1.39,1.39,0,0,0-1.23-.54,1.24,1.24,0,0,0-1.09.59,3.25,3.25,0,0,0-.38,1.72,3,3,0,0,0,.39,1.7A1.28,1.28,0,0,0,205.5,346.69Z" transform="translate(-50.84 -16.97)"/><path d="M214.67,348.35a4,4,0,0,1-2.89-1,3.86,3.86,0,0,1-1-2.88,4.2,4.2,0,0,1,1-3,3.41,3.41,0,0,1,2.65-1.05,3.34,3.34,0,0,1,2.52.92,3.5,3.5,0,0,1,.91,2.55v1h-4.93a2,2,0,0,0,.52,1.39,1.87,1.87,0,0,0,1.38.5,5.53,5.53,0,0,0,1.31-.15,6,6,0,0,0,1.28-.45v1.61a5,5,0,0,1-1.16.41A7.35,7.35,0,0,1,214.67,348.35Zm-.3-6.44a1.31,1.31,0,0,0-1,.42,1.92,1.92,0,0,0-.44,1.19h2.93a1.74,1.74,0,0,0-.4-1.19A1.37,1.37,0,0,0,214.37,341.91Z" transform="translate(-50.84 -16.97)"/><path d="M229.57,348.21h-7v-1.47l2.51-2.53c.75-.76,1.23-1.29,1.46-1.58a3.53,3.53,0,0,0,.49-.82,2.08,2.08,0,0,0,.15-.78,1.16,1.16,0,0,0-.33-.9,1.31,1.31,0,0,0-.88-.29,2.51,2.51,0,0,0-1.13.27,5.43,5.43,0,0,0-1.14.75l-1.15-1.36a7.17,7.17,0,0,1,1.22-.88,4.08,4.08,0,0,1,1.06-.4,5.1,5.1,0,0,1,1.29-.14,3.77,3.77,0,0,1,1.65.34,2.59,2.59,0,0,1,1.11.95,2.5,2.5,0,0,1,.4,1.41,3.53,3.53,0,0,1-.24,1.3,4.88,4.88,0,0,1-.75,1.24,18.3,18.3,0,0,1-1.8,1.81l-1.28,1.21v.1h4.35Z" transform="translate(-50.84 -16.97)"/><path d="M237.51,343.22a7,7,0,0,1-.86,3.87,3,3,0,0,1-2.64,1.26,2.92,2.92,0,0,1-2.61-1.3,6.8,6.8,0,0,1-.88-3.83,7,7,0,0,1,.86-3.9,3.31,3.31,0,0,1,5.24.05A6.91,6.91,0,0,1,237.51,343.22Zm-4.89,0a7.8,7.8,0,0,0,.32,2.63,1.11,1.11,0,0,0,2.13,0,7.51,7.51,0,0,0,.33-2.62,7.62,7.62,0,0,0-.33-2.65,1.11,1.11,0,0,0-2.13,0A7.93,7.93,0,0,0,232.62,343.22Z" transform="translate(-50.84 -16.97)"/><path d="M245.55,348.21h-7v-1.47l2.51-2.53c.74-.76,1.22-1.29,1.45-1.58a3.53,3.53,0,0,0,.49-.82,2.08,2.08,0,0,0,.15-.78,1.16,1.16,0,0,0-.33-.9,1.3,1.3,0,0,0-.88-.29,2.51,2.51,0,0,0-1.13.27,5.43,5.43,0,0,0-1.14.75l-1.15-1.36a7.17,7.17,0,0,1,1.22-.88,4.22,4.22,0,0,1,1.06-.4,5.15,5.15,0,0,1,1.29-.14,3.77,3.77,0,0,1,1.65.34,2.68,2.68,0,0,1,1.12.95,2.58,2.58,0,0,1,.39,1.41,3.53,3.53,0,0,1-.24,1.3,4.88,4.88,0,0,1-.75,1.24,18.3,18.3,0,0,1-1.8,1.81l-1.28,1.21v.1h4.35Z" transform="translate(-50.84 -16.97)"/><path d="M253.54,348.21h-7v-1.47l2.51-2.53c.74-.76,1.22-1.29,1.45-1.58a3.61,3.61,0,0,0,.5-.82,2.08,2.08,0,0,0,.15-.78,1.13,1.13,0,0,0-.34-.9,1.3,1.3,0,0,0-.88-.29,2.54,2.54,0,0,0-1.13.27,6,6,0,0,0-1.14.75l-1.15-1.36a7.17,7.17,0,0,1,1.22-.88,4.22,4.22,0,0,1,1.06-.4,5.15,5.15,0,0,1,1.29-.14,3.77,3.77,0,0,1,1.65.34,2.68,2.68,0,0,1,1.12.95,2.58,2.58,0,0,1,.39,1.41,3.53,3.53,0,0,1-.24,1.3,4.88,4.88,0,0,1-.75,1.24,19.1,19.1,0,0,1-1.79,1.81l-1.29,1.21v.1h4.35Z" transform="translate(-50.84 -16.97)"/><path d="M206.14,136.64c1.74,1.47,2,3.25,2,5.21-.08,3.05,0,6.09,0,9.14a5.57,5.57,0,0,1-3.32,5.23c-2.3,1.15-2.31,1.14-2.14,4,1.87.09,1.78,1.47,1.77,2.86,0,3,0,6.09,0,9.13,0,1.76-.46,2.21-2.23,2.21H171.59c-1.61,0-2.1-.48-2.11-2.09,0-3.24,0-6.48,0-9.72,0-1.28.26-2.26,1.75-2.36V142.89c-2.23.83-4,0-5.79-1.13-2.33-1.42-4.7-2.78-7.09-4.11a5.74,5.74,0,0,1-3.2-6.42c.24-1.41-.11-2.21-1.42-2.68a5.28,5.28,0,0,1-.9-.5c-1.46,1.16-1.61,1.18-3.21.25-2.78-1.59-5.55-3.2-8.31-4.8-1.37-.79-1.55-1.48-.75-2.88l15.34-26.56c.82-1.4,1.48-1.59,2.87-.79,2.84,1.62,5.66,3.29,8.52,4.9,1.09.62,1.73,1.36,1,2.71l15,8.7c.35-2.71,2.41-3.72,4.39-4.83,2.35-1.31,4.65-2.71,7-4A5.6,5.6,0,0,1,201,101c2.14,1.46,2.13,1.48,4.34-.09-.21-1.87-.15-2,1.52-2.93,2.71-1.56,5.41-3.13,8.12-4.68,1.46-.84,2.13-.67,3,.76q7.67,13.28,15.33,26.57c.8,1.38.61,2.06-.77,2.86l-8.41,4.87c-1.45.83-1.76.79-3.06-.33Zm-38.8-34.15-13.75,23.83c.72.43,1.35.8,2,1.16,1.72,1,1.71,1,1.45,2.9a16.51,16.51,0,0,0-.17,2.1,3.5,3.5,0,0,0,1.75,3.13q4.6,2.76,9.31,5.39a2.92,2.92,0,0,0,4.27-1.71c-.25-.17-.49-.35-.76-.51-2.06-1.19-4.13-2.35-6.17-3.56-.58-.34-1.43-.68-.93-1.58s1.2-.38,1.82,0l.2.13q8.29,4.78,16.61,9.57a4.5,4.5,0,0,0,1.41.55,2.66,2.66,0,0,0,3-1.75A2.79,2.79,0,0,0,186,138.7q-6.51-3.78-13.06-7.54c-.3-.18-.69-.32-.85-.59a1.29,1.29,0,0,1-.1-1,1,1,0,0,1,.85-.4,2.62,2.62,0,0,1,1.05.45c4.33,2.48,8.64,5,13,7.45a2.77,2.77,0,0,0,4-.89,2.8,2.8,0,0,0-1.35-3.86l-8.72-5c-1.58-.92-3.2-1.79-4.73-2.8-.31-.2-.32-.87-.47-1.33a7.86,7.86,0,0,1,1.34-.24c.23,0,.47.26.7.39q6.39,3.69,12.78,7.37c1.66,1,3.23.61,4.06-.83s.29-3-1.33-3.93l-8.32-4.8-5-2.86c-.58-.33-1-.77-.6-1.42s1-.52,1.52-.2l.61.35,12.87,7.43a2.66,2.66,0,0,0,3.17-.14,2.33,2.33,0,0,0,.93-2.8,4.42,4.42,0,0,0-1.69-1.94c-7.53-4.42-15.1-8.78-22.67-13.15Zm21.5,10.2c.46.29.68.44.92.57,2.76,1.61,5.55,3.18,8.29,4.83a4.55,4.55,0,0,1,1.71,6.29,4.73,4.73,0,0,1-3.32,2.28c.95,3.43-.71,5.44-3.66,6.79a5.73,5.73,0,0,0,1.74-.72c2-1.14,4-2.33,6-3.4a.66.66,0,0,1,.25-.06.9.9,0,0,1,.78,1.37l-.15.17c-.65.54-1.49.85-2.18,1.35-2.49,1.8-5.81,2.42-7.37,5.57-.43.86-1.74,1.29-2.47,1.8l-.47,4.49a16.12,16.12,0,0,0,2.23-.88q11.67-6.69,23.3-13.44l5.84-3.37-13.74-23.8-.93.49c-3.48,1.89-2.21,2-5.39-.32a4,4,0,0,0-4.7-.28c-2.87,1.66-5.76,3.28-8.6,5a3.85,3.85,0,0,0-1.46,1.59,2,2,0,0,0,.13,1.78,1.57,1.57,0,0,0,2.25.37c1.79-1.17,3.68-2.19,5.57-3.22a1.62,1.62,0,0,1,1.17,0,.83.83,0,0,1,.33.77,2,2,0,0,1-.77.93C192.45,110.63,190.73,111.6,188.84,112.69Zm11.88,47.51c0-.5,0-.85,0-1.2.07-3.74-.6-2.73,2.81-4.25a4.1,4.1,0,0,0,2.72-4.09c0-3.28,0-6.56,0-9.83a3.24,3.24,0,0,0-.52-1.86,2.46,2.46,0,0,0-1.73-1,1.6,1.6,0,0,0-1.44,1.87c.12,1.95,0,3.9,0,5.85,0,.71.1,1.57-.9,1.59s-.95-.91-.95-1.63c0-1.6,0-3.2,0-4.8,0-.29-.06-.57-.1-1-3,1.72-5.88,3.36-8.73,5a5,5,0,0,1-4.47.57,1.09,1.09,0,0,0-.67-.1c-2.24,1-4.07,0-5.93-1.14-2.23-1.35-4.51-2.6-7-4a9.22,9.22,0,0,0-.62,2.28c0,5.54,0,11.08,0,16.62,0,.38.05.75.07,1.13ZM151.05,127l15.59-27-9-5.2-15.59,27Zm56.17-27,15.59,27,9-5.21c-5.24-9.08-10.4-18-15.6-27Zm-35.84,72.46h31.09V162.21H171.38Z" transform="translate(-50.84 -16.97)"/></g><g id="stage-2"><g id="stage-2__base"><path class="cls-5" d="M539.24,569.8a87.23,87.23,0,0,1-63.8-156.23l26.39,36.23,31.38,73.45Z" transform="translate(-50.84 -16.97)"/><path class="cls-5" d="M582.44,551.33a87.23,87.23,0,0,0-66.71-154.42l6.15,36.9,33.69,88.27Z" transform="translate(-50.84 -16.97)"/></g><circle class="cls-6" cx="527.84" cy="483.31" r="73.24" transform="translate(-23.72 977.68) rotate(-88.08)"/><circle class="cls-7" cx="477" cy="466.34" r="68.24"/><path class="cls-10" d="M710,472.16H707.9V467.7a2.17,2.17,0,0,0-.28-1.24,1,1,0,0,0-.87-.42,1.27,1.27,0,0,0-1.16.59,3.87,3.87,0,0,0-.36,1.93v3.6h-2.09v-7.64h1.6l.28,1h.11a2.1,2.1,0,0,1,.89-.83,2.88,2.88,0,0,1,1.34-.3,2.4,2.4,0,0,1,2.32,1.13h.18a2,2,0,0,1,.91-.83,3,3,0,0,1,1.35-.3,2.66,2.66,0,0,1,2,.67,2.91,2.91,0,0,1,.67,2.14v5h-2.09V467.7a2.17,2.17,0,0,0-.28-1.24,1,1,0,0,0-.87-.42,1.28,1.28,0,0,0-1.14.55,3,3,0,0,0-.38,1.74Z" transform="translate(-50.84 -16.97)"/><path class="cls-10" d="M721.75,472.16l-.41-1h-.05a3,3,0,0,1-1.09.92,3.48,3.48,0,0,1-1.45.26,2.34,2.34,0,0,1-1.73-.63,2.43,2.43,0,0,1-.63-1.79,2,2,0,0,1,.85-1.8,4.93,4.93,0,0,1,2.56-.64l1.33,0v-.33a1,1,0,0,0-1.19-1.16,5.36,5.36,0,0,0-2.15.55l-.69-1.41a6.2,6.2,0,0,1,2.92-.69,3.63,3.63,0,0,1,2.36.67,2.48,2.48,0,0,1,.82,2v5.09Zm-.62-3.54-.81,0A2.63,2.63,0,0,0,719,469a1,1,0,0,0-.44.92c0,.59.33.88,1,.88a1.64,1.64,0,0,0,1.16-.41,1.47,1.47,0,0,0,.43-1.11Z" transform="translate(-50.84 -16.97)"/><path class="cls-10" d="M724.25,464.52h2.29l1.44,4.3a5.74,5.74,0,0,1,.25,1.32h0a5.53,5.53,0,0,1,.3-1.32l1.41-4.3h2.24L729,473.14a3.68,3.68,0,0,1-1.26,1.79,3.18,3.18,0,0,1-1.93.59,5.37,5.37,0,0,1-1.06-.11v-1.66a3.55,3.55,0,0,0,.82.09,1.47,1.47,0,0,0,1-.34,2.15,2.15,0,0,0,.65-1l.12-.37Z" transform="translate(-50.84 -16.97)"/><path class="cls-10" d="M740.26,468.33a4.07,4.07,0,0,1-1,2.91,3.53,3.53,0,0,1-2.74,1.06,3.76,3.76,0,0,1-1.94-.49,3.19,3.19,0,0,1-1.29-1.38,4.64,4.64,0,0,1-.45-2.1,4.12,4.12,0,0,1,1-2.92,3.62,3.62,0,0,1,2.75-1,3.82,3.82,0,0,1,1.94.48,3.27,3.27,0,0,1,1.3,1.38A4.58,4.58,0,0,1,740.26,468.33Zm-5.29,0a3.29,3.29,0,0,0,.37,1.71,1.34,1.34,0,0,0,1.22.58,1.32,1.32,0,0,0,1.2-.58,3.25,3.25,0,0,0,.36-1.71,3.15,3.15,0,0,0-.37-1.71,1.58,1.58,0,0,0-2.41,0A3.22,3.22,0,0,0,735,468.33Z" transform="translate(-50.84 -16.97)"/><path class="cls-10" d="M748,472.3a2.48,2.48,0,0,1-2.12-1.05,5.87,5.87,0,0,1,0-5.83,2.55,2.55,0,0,1,2.16-1.05,2.49,2.49,0,0,1,2.2,1.13h.07a8.12,8.12,0,0,1-.16-1.53v-2.45h2.09v10.64H750.7l-.41-1h-.09A2.38,2.38,0,0,1,748,472.3Zm.73-1.66a1.42,1.42,0,0,0,1.17-.47,2.75,2.75,0,0,0,.41-1.58v-.22a3.18,3.18,0,0,0-.38-1.77,1.44,1.44,0,0,0-1.24-.53,1.23,1.23,0,0,0-1.08.59,3.13,3.13,0,0,0-.39,1.72,3,3,0,0,0,.39,1.69A1.27,1.27,0,0,0,748.77,470.64Z" transform="translate(-50.84 -16.97)"/><path class="cls-10" d="M757.93,472.3a3.93,3.93,0,0,1-2.88-1,3.87,3.87,0,0,1-1-2.89,4.24,4.24,0,0,1,1-3,3.43,3.43,0,0,1,2.66-1.05,3.34,3.34,0,0,1,2.52.93,3.48,3.48,0,0,1,.9,2.55v1h-4.93a2.06,2.06,0,0,0,.53,1.39,1.87,1.87,0,0,0,1.38.5,5.53,5.53,0,0,0,1.31-.15,6.21,6.21,0,0,0,1.28-.46v1.62a4.89,4.89,0,0,1-1.17.4A7.22,7.22,0,0,1,757.93,472.3Zm-.29-6.44a1.33,1.33,0,0,0-1,.42,2,2,0,0,0-.43,1.19h2.93a1.74,1.74,0,0,0-.41-1.19A1.36,1.36,0,0,0,757.64,465.86Z" transform="translate(-50.84 -16.97)"/><path class="cls-10" d="M772.84,472.16h-7v-1.47l2.51-2.54c.74-.76,1.23-1.28,1.46-1.58a3.47,3.47,0,0,0,.49-.82,2.07,2.07,0,0,0,.15-.77,1.14,1.14,0,0,0-.33-.9,1.27,1.27,0,0,0-.89-.29,2.67,2.67,0,0,0-1.13.26,6.09,6.09,0,0,0-1.14.76l-1.15-1.36a8,8,0,0,1,1.23-.89,4.76,4.76,0,0,1,1.06-.4,5.58,5.58,0,0,1,1.28-.14,3.93,3.93,0,0,1,1.66.34,2.67,2.67,0,0,1,1.11,1,2.58,2.58,0,0,1,.4,1.41,3.34,3.34,0,0,1-.25,1.3,5.06,5.06,0,0,1-.75,1.24,20.4,20.4,0,0,1-1.79,1.81l-1.29,1.21v.09h4.36Z" transform="translate(-50.84 -16.97)"/><path class="cls-10" d="M780.77,467.16a7,7,0,0,1-.85,3.88,3,3,0,0,1-2.65,1.26,2.94,2.94,0,0,1-2.6-1.3,6.86,6.86,0,0,1-.88-3.84,7.05,7.05,0,0,1,.85-3.9,3.33,3.33,0,0,1,5.25.06A6.9,6.9,0,0,1,780.77,467.16Zm-4.88,0a7.88,7.88,0,0,0,.31,2.64,1.12,1.12,0,0,0,2.14,0,10.69,10.69,0,0,0,0-5.27,1.12,1.12,0,0,0-1.07-.8,1.1,1.1,0,0,0-1.06.8A7.65,7.65,0,0,0,775.89,467.16Z" transform="translate(-50.84 -16.97)"/><path class="cls-10" d="M788.82,472.16h-7v-1.47l2.51-2.54c.74-.76,1.23-1.28,1.46-1.58a3.16,3.16,0,0,0,.49-.82,2.07,2.07,0,0,0,.15-.77,1.14,1.14,0,0,0-.33-.9,1.27,1.27,0,0,0-.89-.29,2.62,2.62,0,0,0-1.12.26,5.83,5.83,0,0,0-1.15.76l-1.14-1.36a8,8,0,0,1,1.22-.89,5,5,0,0,1,1.06-.4,5.58,5.58,0,0,1,1.28-.14,3.93,3.93,0,0,1,1.66.34,2.61,2.61,0,0,1,1.11,1,2.5,2.5,0,0,1,.4,1.41,3.53,3.53,0,0,1-.24,1.3,5.46,5.46,0,0,1-.76,1.24,17.89,17.89,0,0,1-1.79,1.81l-1.29,1.21v.09h4.36Z" transform="translate(-50.84 -16.97)"/><path class="cls-10" d="M796.81,472.16h-7v-1.47l2.51-2.54a20.86,20.86,0,0,0,1.46-1.58,3.16,3.16,0,0,0,.49-.82,2.07,2.07,0,0,0,.15-.77,1.14,1.14,0,0,0-.33-.9,1.27,1.27,0,0,0-.89-.29,2.62,2.62,0,0,0-1.12.26,5.51,5.51,0,0,0-1.14.76l-1.15-1.36a8,8,0,0,1,1.22-.89,5,5,0,0,1,1.06-.4,5.6,5.6,0,0,1,1.29-.14,3.92,3.92,0,0,1,1.65.34,2.61,2.61,0,0,1,1.11,1,2.5,2.5,0,0,1,.4,1.41,3.53,3.53,0,0,1-.24,1.3,5.06,5.06,0,0,1-.75,1.24,19.48,19.48,0,0,1-1.8,1.81l-1.28,1.21v.09h4.35Z" transform="translate(-50.84 -16.97)"/><rect id="stage-2__desde-box" class="cls-9" x="582.49" y="440.98" width="61.91" height="20.52" rx="4"/><g id="stage-2__desde"><path class="cls-7" d="M643.11,471.71a2.11,2.11,0,0,1-1.81-.89,5,5,0,0,1,0-5,2.18,2.18,0,0,1,1.85-.9,2.16,2.16,0,0,1,1.89,1h.05a7.13,7.13,0,0,1-.13-1.3v-2.1h1.79v9.12h-1.37l-.34-.85H645A2.06,2.06,0,0,1,643.11,471.71Zm.63-1.42a1.18,1.18,0,0,0,1-.4,2.26,2.26,0,0,0,.35-1.35v-.2a2.76,2.76,0,0,0-.32-1.51,1.22,1.22,0,0,0-1.06-.45,1,1,0,0,0-.93.5,2.73,2.73,0,0,0-.33,1.48,2.61,2.61,0,0,0,.33,1.45A1.1,1.1,0,0,0,643.74,470.29Z" transform="translate(-50.84 -16.97)"/><path class="cls-7" d="M653.27,471.6l-.24-.84h-.09a1.83,1.83,0,0,1-.82.7,2.71,2.71,0,0,1-1.2.25,2.29,2.29,0,0,1-1.74-.61,2.51,2.51,0,0,1-.58-1.78v-4.27h1.78v3.82a1.86,1.86,0,0,0,.26,1.07.91.91,0,0,0,.8.35,1.2,1.2,0,0,0,1.08-.5,3.12,3.12,0,0,0,.34-1.66v-3.08h1.78v6.55Z" transform="translate(-50.84 -16.97)"/><path class="cls-7" d="M660.17,464.92a2.56,2.56,0,0,1,.61.06l-.14,1.67a2,2,0,0,0-.52-.06,1.91,1.91,0,0,0-1.34.44,1.6,1.6,0,0,0-.47,1.23v3.34h-1.79v-6.55h1.35l.27,1.1h.08a2.45,2.45,0,0,1,.83-.89A2,2,0,0,1,660.17,464.92Z" transform="translate(-50.84 -16.97)"/><path class="cls-7" d="M666.13,471.6l-.35-.89h0a2.68,2.68,0,0,1-.92.78,3,3,0,0,1-1.25.22,2,2,0,0,1-1.48-.54,2,2,0,0,1-.55-1.53,1.74,1.74,0,0,1,.73-1.54,4.28,4.28,0,0,1,2.2-.55l1.14,0v-.29a.89.89,0,0,0-1-1,4.61,4.61,0,0,0-1.85.47l-.59-1.21a5.4,5.4,0,0,1,2.51-.59,3.08,3.08,0,0,1,2,.58,2.11,2.11,0,0,1,.71,1.74v4.37Zm-.53-3-.69,0a2.16,2.16,0,0,0-1.16.29.86.86,0,0,0-.38.78c0,.51.29.76.86.76a1.38,1.38,0,0,0,1-.36,1.24,1.24,0,0,0,.37-.95Z" transform="translate(-50.84 -16.97)"/><path class="cls-7" d="M675.26,471.6h-1.79v-3.83a1.8,1.8,0,0,0-.25-1.06.91.91,0,0,0-.8-.36,1.2,1.2,0,0,0-1.08.5,3,3,0,0,0-.34,1.66v3.09h-1.79v-6.55h1.37l.24.83h.1a1.89,1.89,0,0,1,.82-.71,2.71,2.71,0,0,1,1.2-.25,2.28,2.28,0,0,1,1.73.62,2.51,2.51,0,0,1,.59,1.79Z" transform="translate(-50.84 -16.97)"/><path class="cls-7" d="M679.86,470.29a3.85,3.85,0,0,0,1.13-.21v1.34a4.22,4.22,0,0,1-1.64.29,2,2,0,0,1-1.56-.54,2.33,2.33,0,0,1-.5-1.62v-3.16h-.85v-.76l1-.6.52-1.38h1.14v1.4h1.84v1.34h-1.84v3.16a.68.68,0,0,0,.22.56A.84.84,0,0,0,679.86,470.29Z" transform="translate(-50.84 -16.97)"/><path class="cls-7" d="M685.28,471.71a3.41,3.41,0,0,1-2.48-.87,3.32,3.32,0,0,1-.89-2.47,3.64,3.64,0,0,1,.83-2.55,3.33,3.33,0,0,1,4.43-.11,3,3,0,0,1,.78,2.19v.87h-4.23a1.75,1.75,0,0,0,.45,1.19,1.63,1.63,0,0,0,1.19.42,5.13,5.13,0,0,0,1.12-.12,5.4,5.4,0,0,0,1.1-.39v1.38a4.23,4.23,0,0,1-1,.35A6.12,6.12,0,0,1,685.28,471.71Zm-.26-5.52a1.14,1.14,0,0,0-.89.36,1.72,1.72,0,0,0-.37,1h2.51a1.54,1.54,0,0,0-.34-1A1.2,1.2,0,0,0,685,466.19Z" transform="translate(-50.84 -16.97)"/></g><path id="icono-2" class="cls-11" d="M497.25,465a5.09,5.09,0,0,1,4.61-2.91h55.07a5.07,5.07,0,0,1,4.6,2.91,4.89,4.89,0,0,1-.76,5.41L537.55,499v16.2a4.07,4.07,0,0,1-6.52,3.26l-8.16-6.11a4,4,0,0,1-1.63-3.27V499l-23.33-28.51A5.1,5.1,0,0,1,497.25,465Z" transform="translate(-50.84 -16.97)"/><g id="stage-2_slogan"><path class="cls-10" d="M637.06,445.32a4.52,4.52,0,0,0,1.32-.24v1.55a4.58,4.58,0,0,1-1.92.35,2.35,2.35,0,0,1-1.82-.63,2.77,2.77,0,0,1-.57-1.9v-3.68h-1v-.88l1.15-.7.6-1.61h1.33v1.62h2.14v1.57h-2.14v3.68a.84.84,0,0,0,.25.66A1,1,0,0,0,637.06,445.32Z" transform="translate(-50.84 -16.97)"/><path class="cls-10" d="M643.38,447a3.93,3.93,0,0,1-2.88-1,3.83,3.83,0,0,1-1-2.88,4.24,4.24,0,0,1,1-3,3.89,3.89,0,0,1,5.17-.13,3.48,3.48,0,0,1,.91,2.55v1h-4.93a2,2,0,0,0,.52,1.39,1.88,1.88,0,0,0,1.39.5,6,6,0,0,0,1.3-.14,6.94,6.94,0,0,0,1.29-.46v1.61a5.24,5.24,0,0,1-1.17.41A7.35,7.35,0,0,1,643.38,447Zm-.29-6.44a1.31,1.31,0,0,0-1,.42,1.92,1.92,0,0,0-.43,1.2h2.92a1.75,1.75,0,0,0-.4-1.2A1.36,1.36,0,0,0,643.09,440.54Zm-1.21-2.18v-.18a19.85,19.85,0,0,0,1.61-2.06h2.34v.14c-.24.24-.64.59-1.22,1.06s-1,.81-1.34,1Z" transform="translate(-50.84 -16.97)"/><path class="cls-10" d="M651.3,447c-2.38,0-3.57-1.3-3.57-3.92a4.15,4.15,0,0,1,1-3,3.62,3.62,0,0,1,2.78-1,5.27,5.27,0,0,1,2.38.52l-.62,1.61a9.14,9.14,0,0,0-.91-.32,2.79,2.79,0,0,0-.85-.13c-1.08,0-1.63.77-1.63,2.31s.55,2.24,1.63,2.24a3.68,3.68,0,0,0,2.14-.66v1.78a3.25,3.25,0,0,1-1,.45A5.93,5.93,0,0,1,651.3,447Z" transform="translate(-50.84 -16.97)"/><path class="cls-10" d="M662.45,446.84h-2.09v-4.46a2.2,2.2,0,0,0-.29-1.24,1.07,1.07,0,0,0-.94-.41,1.39,1.39,0,0,0-1.26.58,3.64,3.64,0,0,0-.39,1.94v3.59h-2.09V439.2H657l.28,1h.12a2.18,2.18,0,0,1,1-.84,3.26,3.26,0,0,1,1.39-.28,2.66,2.66,0,0,1,2,.72,2.85,2.85,0,0,1,.7,2.08Z" transform="translate(-50.84 -16.97)"/><path class="cls-10" d="M664.5,437.23q0-1,1.14-1c.75,0,1.13.34,1.13,1a1,1,0,0,1-.28.75,1.19,1.19,0,0,1-.85.27Q664.5,438.25,664.5,437.23Zm2.18,9.61h-2.09V439.2h2.09Z" transform="translate(-50.84 -16.97)"/><path class="cls-10" d="M672,447c-2.38,0-3.57-1.3-3.57-3.92a4.15,4.15,0,0,1,1-3,3.64,3.64,0,0,1,2.78-1,5.24,5.24,0,0,1,2.38.52l-.61,1.61c-.33-.13-.64-.24-.92-.32a2.74,2.74,0,0,0-.85-.13q-1.62,0-1.62,2.31c0,1.49.54,2.24,1.62,2.24a3.63,3.63,0,0,0,2.14-.66v1.78a3.16,3.16,0,0,1-1,.45A5.87,5.87,0,0,1,672,447Z" transform="translate(-50.84 -16.97)"/><path class="cls-10" d="M683,443a4.1,4.1,0,0,1-1,2.92,3.56,3.56,0,0,1-2.74,1.05,3.85,3.85,0,0,1-1.94-.48,3.19,3.19,0,0,1-1.29-1.38,4.71,4.71,0,0,1-.45-2.11,4,4,0,0,1,1-2.91,3.54,3.54,0,0,1,2.74-1,3.82,3.82,0,0,1,1.94.48,3.13,3.13,0,0,1,1.3,1.37A4.64,4.64,0,0,1,683,443Zm-5.29,0a3.2,3.2,0,0,0,.38,1.72,1.33,1.33,0,0,0,1.21.58,1.32,1.32,0,0,0,1.2-.58,3.3,3.3,0,0,0,.37-1.72,3.2,3.2,0,0,0-.37-1.7,1.34,1.34,0,0,0-1.21-.57,1.35,1.35,0,0,0-1.21.56A3.24,3.24,0,0,0,677.72,443Z" transform="translate(-50.84 -16.97)"/><path class="cls-10" d="M684.05,444v-1.71h3.67V444Z" transform="translate(-50.84 -16.97)"/><path class="cls-10" d="M692.34,447c-2.38,0-3.57-1.3-3.57-3.92a4.15,4.15,0,0,1,1-3,3.64,3.64,0,0,1,2.78-1,5.24,5.24,0,0,1,2.38.52l-.61,1.61c-.33-.13-.64-.24-.92-.32a2.74,2.74,0,0,0-.85-.13q-1.62,0-1.62,2.31c0,1.49.54,2.24,1.62,2.24a3.65,3.65,0,0,0,1.12-.16,3.7,3.7,0,0,0,1-.5v1.78a3.07,3.07,0,0,1-1,.45A5.87,5.87,0,0,1,692.34,447Z" transform="translate(-50.84 -16.97)"/><path class="cls-10" d="M696.34,437.23q0-1,1.14-1c.76,0,1.13.34,1.13,1a1,1,0,0,1-.28.75,1.19,1.19,0,0,1-.85.27Q696.34,438.25,696.34,437.23Zm2.18,9.61h-2.09V439.2h2.09Z" transform="translate(-50.84 -16.97)"/><path class="cls-10" d="M704.17,447a3.93,3.93,0,0,1-2.89-1,3.86,3.86,0,0,1-1-2.88,4.24,4.24,0,0,1,1-3,3.43,3.43,0,0,1,2.66-1.05,3.38,3.38,0,0,1,2.52.92,3.51,3.51,0,0,1,.9,2.55v1h-4.93a2,2,0,0,0,.53,1.39,1.87,1.87,0,0,0,1.38.5,6.12,6.12,0,0,0,1.31-.14,6.61,6.61,0,0,0,1.28-.46v1.61a4.91,4.91,0,0,1-1.17.41A7.25,7.25,0,0,1,704.17,447Zm-.3-6.44a1.33,1.33,0,0,0-1,.42,2,2,0,0,0-.43,1.2h2.93a1.75,1.75,0,0,0-.41-1.2A1.36,1.36,0,0,0,703.87,440.54Z" transform="translate(-50.84 -16.97)"/><path class="cls-10" d="M716,446.84H714v-4.46a2.12,2.12,0,0,0-.3-1.24,1,1,0,0,0-.93-.41,1.41,1.41,0,0,0-1.27.58,3.64,3.64,0,0,0-.39,1.94v3.59H709V439.2h1.59l.28,1H711a2.18,2.18,0,0,1,1-.84,3.23,3.23,0,0,1,1.39-.28,2.66,2.66,0,0,1,2,.72,2.88,2.88,0,0,1,.69,2.08Z" transform="translate(-50.84 -16.97)"/><path class="cls-10" d="M721.4,445.32a4.52,4.52,0,0,0,1.31-.24v1.55a4.56,4.56,0,0,1-1.91.35,2.33,2.33,0,0,1-1.82-.63,2.72,2.72,0,0,1-.58-1.9v-3.68h-1v-.88l1.14-.7.61-1.61h1.33v1.62h2.14v1.57h-2.14v3.68a.8.8,0,0,0,.25.66A1,1,0,0,0,721.4,445.32Z" transform="translate(-50.84 -16.97)"/><path class="cls-10" d="M724.17,437.23c0-.68.38-1,1.13-1s1.14.34,1.14,1a1,1,0,0,1-.29.75,1.19,1.19,0,0,1-.85.27C724.55,438.25,724.17,437.91,724.17,437.23Zm2.17,9.61h-2.08V439.2h2.08Z" transform="translate(-50.84 -16.97)"/><path class="cls-10" d="M732.75,440.77H731v6.07h-2.09v-6.07h-1.15v-1l1.15-.56v-.56a2.51,2.51,0,0,1,.65-1.91,2.92,2.92,0,0,1,2-.6,5.44,5.44,0,0,1,1.92.32L733,438a3.67,3.67,0,0,0-1.16-.2.75.75,0,0,0-.64.26,1,1,0,0,0-.2.67v.48h1.8Zm1.11-3.54q0-1,1.14-1c.75,0,1.13.34,1.13,1a1,1,0,0,1-.28.75,1.2,1.2,0,0,1-.85.27Q733.86,438.25,733.86,437.23Zm2.17,9.61H734V439.2H736Z" transform="translate(-50.84 -16.97)"/><path class="cls-10" d="M741.32,447c-2.38,0-3.57-1.3-3.57-3.92a4.15,4.15,0,0,1,1-3,3.64,3.64,0,0,1,2.78-1,5.24,5.24,0,0,1,2.38.52l-.61,1.61c-.33-.13-.64-.24-.92-.32a2.74,2.74,0,0,0-.85-.13q-1.62,0-1.62,2.31c0,1.49.54,2.24,1.62,2.24a3.65,3.65,0,0,0,1.12-.16,3.7,3.7,0,0,0,1-.5v1.78a3.16,3.16,0,0,1-1,.45A5.87,5.87,0,0,1,741.32,447Z" transform="translate(-50.84 -16.97)"/><path class="cls-10" d="M750.27,446.84l-.41-1h-.05a3.05,3.05,0,0,1-1.08.91,3.41,3.41,0,0,1-1.46.26,2.34,2.34,0,0,1-1.73-.63,2.41,2.41,0,0,1-.63-1.79,2,2,0,0,1,.85-1.79,4.88,4.88,0,0,1,2.57-.64l1.32,0v-.34a1,1,0,0,0-1.19-1.16,5.36,5.36,0,0,0-2.15.55l-.69-1.4a6.09,6.09,0,0,1,2.92-.7,3.67,3.67,0,0,1,2.36.67,2.48,2.48,0,0,1,.82,2v5.09Zm-.62-3.54-.81,0a2.62,2.62,0,0,0-1.35.33,1,1,0,0,0-.44.92c0,.58.33.88,1,.88a1.6,1.6,0,0,0,1.16-.42,1.47,1.47,0,0,0,.43-1.11Z" transform="translate(-50.84 -16.97)"/></g><g id="stage-2__title"><path class="cls-5" d="M634.56,429.69a4.34,4.34,0,0,1-1-3.05v-9a4.36,4.36,0,0,1,1-3.05,4.42,4.42,0,0,1,5.79,0,4.36,4.36,0,0,1,1,3.05v1.77h-2.49v-1.94q0-1.56-1.32-1.56t-1.32,1.56v9.38c0,1,.44,1.54,1.32,1.54s1.32-.51,1.32-1.54v-2.56h2.49v2.37a4.34,4.34,0,0,1-1,3.05,4.42,4.42,0,0,1-5.79,0Z" transform="translate(-50.84 -16.97)"/><path class="cls-5" d="M642.93,413.73h2.64v14.4h4.34v2.4h-7Z" transform="translate(-50.84 -16.97)"/><path class="cls-5" d="M653.32,413.73h3.57l2.74,16.8H657l-.48-3.34v.05h-3l-.48,3.29h-2.45ZM656.2,425l-1.18-8.3h0l-1.15,8.3Z" transform="translate(-50.84 -16.97)"/><path class="cls-5" d="M661.36,429.68a4.5,4.5,0,0,1-1-3.13v-1h2.5v1.15c0,1.09.46,1.63,1.37,1.63a1.26,1.26,0,0,0,1-.4,1.92,1.92,0,0,0,.35-1.28,3.58,3.58,0,0,0-.48-1.86,8.88,8.88,0,0,0-1.78-1.93,10.49,10.49,0,0,1-2.28-2.61,5.3,5.3,0,0,1-.65-2.62,4.41,4.41,0,0,1,1-3.09,3.78,3.78,0,0,1,2.93-1.09,3.64,3.64,0,0,1,2.87,1.09,4.6,4.6,0,0,1,1,3.13v.7h-2.5v-.86a1.94,1.94,0,0,0-.33-1.26,1.23,1.23,0,0,0-1-.4c-.88,0-1.32.54-1.32,1.61a3.23,3.23,0,0,0,.49,1.7,9.5,9.5,0,0,0,1.79,1.92,9.73,9.73,0,0,1,2.28,2.62,5.74,5.74,0,0,1,.63,2.76,4.51,4.51,0,0,1-1,3.17,3.86,3.86,0,0,1-3,1.1A3.68,3.68,0,0,1,661.36,429.68Z" transform="translate(-50.84 -16.97)"/><path class="cls-5" d="M669.76,413.73h2.64v16.8h-2.64Z" transform="translate(-50.84 -16.97)"/><path class="cls-5" d="M674.37,413.73h7v2.4H677v4.68h3.41v2.4H677v7.32h-2.63Z" transform="translate(-50.84 -16.97)"/><path class="cls-5" d="M682.62,413.73h2.64v16.8h-2.64Z" transform="translate(-50.84 -16.97)"/><path class="cls-5" d="M688.06,429.69a4.3,4.3,0,0,1-1-3.05v-9a4.31,4.31,0,0,1,1-3.05,4.41,4.41,0,0,1,5.78,0,4.36,4.36,0,0,1,1,3.05v1.77h-2.5v-1.94q0-1.56-1.32-1.56t-1.32,1.56v9.38c0,1,.44,1.54,1.32,1.54s1.32-.51,1.32-1.54v-2.56h2.5v2.37a4.34,4.34,0,0,1-1,3.05,4.41,4.41,0,0,1-5.78,0Z" transform="translate(-50.84 -16.97)"/><path class="cls-5" d="M698.46,413.73H702l2.73,16.8h-2.64l-.48-3.34v.05h-3l-.48,3.29h-2.45ZM701.34,425l-1.17-8.3h0L699,425Z" transform="translate(-50.84 -16.97)"/><path class="cls-5" d="M706.82,429.69a4.34,4.34,0,0,1-1-3.05v-9a4.36,4.36,0,0,1,1-3.05,4.42,4.42,0,0,1,5.79,0,4.36,4.36,0,0,1,1,3.05v1.77h-2.49v-1.94q0-1.56-1.32-1.56t-1.32,1.56v9.38c0,1,.44,1.54,1.32,1.54s1.32-.51,1.32-1.54v-2.56h2.49v2.37a4.34,4.34,0,0,1-1,3.05,4.42,4.42,0,0,1-5.79,0Z" transform="translate(-50.84 -16.97)"/><path class="cls-5" d="M715.19,413.73h2.64v16.8h-2.64Z" transform="translate(-50.84 -16.97)"/><path class="cls-5" d="M720.64,429.67a4.4,4.4,0,0,1-1-3.12v-8.84a4.4,4.4,0,0,1,1-3.12,4.57,4.57,0,0,1,6,0,4.4,4.4,0,0,1,1,3.12v8.84a4.4,4.4,0,0,1-1,3.12,4.57,4.57,0,0,1-6,0Zm3.21-19.83h2.88l-2.57,2.76h-2ZM725,426.71v-9.16c0-1.11-.46-1.66-1.37-1.66s-1.37.55-1.37,1.66v9.16c0,1.11.46,1.66,1.37,1.66S725,427.82,725,426.71Z" transform="translate(-50.84 -16.97)"/><path class="cls-5" d="M729.4,413.73h3.31l2.57,10.06h0V413.73h2.36v16.8H735l-3.16-12.26h0v12.26H729.4Z" transform="translate(-50.84 -16.97)"/></g></g><g id="stage-4"><g id="stage-4__base"><path class="cls-11" d="M949.46,384.64a87.24,87.24,0,0,1-45.41-162.53l22.05,39,22.72,76.56Z" transform="translate(-50.84 -16.97)"/><path class="cls-11" d="M994.5,371.26A87.23,87.23,0,0,0,946,210.2l1.87,37.36,23.31,91.55Z" transform="translate(-50.84 -16.97)"/></g><circle class="cls-6" cx="948.08" cy="297.41" r="73.24" transform="matrix(0.15, -0.99, 0.99, 0.15, 462.59, 1173.97)"/><circle class="cls-7" cx="897.25" cy="280.44" r="68.24"/><g id="stage-4__title"><path class="cls-10" d="M1054.1,269.06h7.2v2.4h-4.56v4.44h3.63v2.4h-3.63v5.16h4.56v2.4h-7.2Z" transform="translate(-50.84 -16.97)"/><path class="cls-10" d="M1062.81,269.06h2.64v14.4h4.35v2.4h-7Z" transform="translate(-50.84 -16.97)"/><path class="cls-10" d="M1073.21,269.06h3.57l2.74,16.8h-2.64l-.48-3.34v.05h-3l-.48,3.29h-2.45Zm2.87,11.23-1.17-8.3h-.05l-1.15,8.3Z" transform="translate(-50.84 -16.97)"/><path class="cls-10" d="M1080.79,269.06h4a4.07,4.07,0,0,1,3,.95,4,4,0,0,1,.93,2.91v.68a4.6,4.6,0,0,1-.42,2.11,2.41,2.41,0,0,1-1.28,1.17v.05c1.31.45,2,1.62,2,3.51v1.44a4,4,0,0,1-1,3,4.06,4.06,0,0,1-3,1h-4.15Zm3.67,6.84a1.57,1.57,0,0,0,1.19-.41,1.93,1.93,0,0,0,.39-1.37v-.93a2.1,2.1,0,0,0-.32-1.32,1.24,1.24,0,0,0-1-.41h-1.27v4.44Zm.48,7.56a1.31,1.31,0,0,0,1-.37,1.9,1.9,0,0,0,.34-1.29v-1.46a2.41,2.41,0,0,0-.4-1.6,1.69,1.69,0,0,0-1.31-.44h-1.17v5.16Z" transform="translate(-50.84 -16.97)"/><path class="cls-10" d="M1091.33,285a4.4,4.4,0,0,1-1-3.12V273a4.4,4.4,0,0,1,1-3.12,4.57,4.57,0,0,1,6,0,4.45,4.45,0,0,1,1,3.12v8.84a4.45,4.45,0,0,1-1,3.12,4.57,4.57,0,0,1-6,0Zm4.34-3v-9.16c0-1.11-.46-1.66-1.37-1.66s-1.37.55-1.37,1.66V282c0,1.11.46,1.66,1.37,1.66S1095.67,283.15,1095.67,282Z" transform="translate(-50.84 -16.97)"/><path class="cls-10" d="M1100.08,269.06H1104a4,4,0,0,1,3,.95,4,4,0,0,1,.94,2.91v1c0,1.74-.58,2.85-1.73,3.31v.05a2.07,2.07,0,0,1,1.36,1.17,6,6,0,0,1,.39,2.38v2.95a11.61,11.61,0,0,0,0,1.16,2.82,2.82,0,0,0,.24.88h-2.69a4.11,4.11,0,0,1-.19-.77,11.84,11.84,0,0,1,0-1.29v-3.08a2.58,2.58,0,0,0-.37-1.6,1.56,1.56,0,0,0-1.28-.46h-.92v7.2h-2.64Zm3.6,7.2a1.59,1.59,0,0,0,1.19-.41,1.9,1.9,0,0,0,.4-1.37v-1.29a2.1,2.1,0,0,0-.33-1.32,1.21,1.21,0,0,0-1-.41h-1.2v4.8Z" transform="translate(-50.84 -16.97)"/><path class="cls-10" d="M1111.8,269.06h3.57l2.74,16.8h-2.64l-.48-3.34v.05h-3l-.48,3.29h-2.45Zm2.88,11.23-1.18-8.3h0l-1.15,8.3Z" transform="translate(-50.84 -16.97)"/><path class="cls-10" d="M1120.16,285a4.34,4.34,0,0,1-1-3v-9a4.36,4.36,0,0,1,1-3.05,4.41,4.41,0,0,1,5.78,0,4.31,4.31,0,0,1,1,3.05v1.77h-2.5v-1.94q0-1.56-1.32-1.56t-1.32,1.56v9.39q0,1.53,1.32,1.53t1.32-1.53V279.6h2.5V282a4.3,4.3,0,0,1-1,3,4.41,4.41,0,0,1-5.78,0Z" transform="translate(-50.84 -16.97)"/><path class="cls-10" d="M1128.52,269.06h2.64v16.8h-2.64Z" transform="translate(-50.84 -16.97)"/><path class="cls-10" d="M1134,285a4.4,4.4,0,0,1-1-3.12V273a4.4,4.4,0,0,1,1-3.12,4.57,4.57,0,0,1,6,0,4.4,4.4,0,0,1,1,3.12v8.84a4.4,4.4,0,0,1-1,3.12,4.57,4.57,0,0,1-6,0Zm3.22-19.83h2.88l-2.57,2.76h-2Zm1.13,16.87v-9.16c0-1.11-.46-1.66-1.37-1.66s-1.37.55-1.37,1.66V282c0,1.11.46,1.66,1.37,1.66S1138.32,283.15,1138.32,282Z" transform="translate(-50.84 -16.97)"/><path class="cls-10" d="M1142.73,269.06H1146l2.57,10.06h.05V269.06H1151v16.8h-2.71l-3.17-12.26h-.05v12.26h-2.35Z" transform="translate(-50.84 -16.97)"/></g><rect id="stage-4__desde-box" class="cls-10" x="1002.58" y="316.43" width="109.17" height="20.52" rx="4"/><path id="icono-4" class="cls-11" d="M906.44,311.76h5.09v5c0,.37,0,.73.05,1.09h-5.14a3.06,3.06,0,0,1,0-6.12Zm21.41-26.52a4.08,4.08,0,0,1-8.16,0v-4.08a12.24,12.24,0,0,1,24.48,0v1a68.11,68.11,0,0,1-.46,8l15.61-4.7a3.85,3.85,0,0,1,4,1.08,3.93,3.93,0,0,1,1.06,4.13l-2.3,6.75h10.66a4.15,4.15,0,0,1,4.08,4.08,4,4,0,0,1-4.08,4.08H956.41a4,4,0,0,1-3.31-1.58,4.11,4.11,0,0,1-.57-3.67l1.6-4.78-12,3.61a68.64,68.64,0,0,1-7.44,19.18l-1.77,3.1a9.24,9.24,0,0,1-8,4.65,9.35,9.35,0,0,1-9.36-9.24v-9.16a12.33,12.33,0,0,1,8.83-11.72l10.76-3.24a59.63,59.63,0,0,0,.81-10.52v-1a4,4,0,0,0-4.08-4.08,4.15,4.15,0,0,0-4.08,4.08Zm-4.08,22.39v9.16a1.09,1.09,0,0,0,2,.54l1.77-3.1a62.28,62.28,0,0,0,5.36-12.38l-6.25,1.76A4.33,4.33,0,0,0,923.77,307.63Zm58.14,10.25H939.52c1-2,2-4.05,2.85-6.12h39.54a3.06,3.06,0,1,1,0,6.12Z" transform="translate(-50.84 -16.97)"/><g id="stage-4__slogan"><path class="cls-10" d="M1160.79,286a2.46,2.46,0,0,1-2.11-1.05,4.76,4.76,0,0,1-.77-2.9,4.84,4.84,0,0,1,.78-2.93,2.54,2.54,0,0,1,2.16-1.05,2.5,2.5,0,0,1,2.2,1.13h.07a8.12,8.12,0,0,1-.16-1.53v-2.45h2.09v10.64h-1.6l-.4-1H1163A2.4,2.4,0,0,1,1160.79,286Zm.73-1.66a1.42,1.42,0,0,0,1.18-.47,2.74,2.74,0,0,0,.4-1.58v-.22a3.1,3.1,0,0,0-.38-1.77,1.41,1.41,0,0,0-1.23-.53,1.21,1.21,0,0,0-1.08.59,3.15,3.15,0,0,0-.39,1.72,3,3,0,0,0,.39,1.69A1.27,1.27,0,0,0,1161.52,284.34Z" transform="translate(-50.84 -16.97)"/><path class="cls-10" d="M1170.69,286a4,4,0,0,1-2.89-1,3.87,3.87,0,0,1-1-2.89,4.24,4.24,0,0,1,1-3,3.41,3.41,0,0,1,2.65-1.05,3.34,3.34,0,0,1,2.52.93,3.44,3.44,0,0,1,.91,2.55v1h-4.93a2.05,2.05,0,0,0,.52,1.39,1.88,1.88,0,0,0,1.39.5,5.45,5.45,0,0,0,1.3-.15,6.29,6.29,0,0,0,1.29-.46v1.62a4.76,4.76,0,0,1-1.17.4A7.29,7.29,0,0,1,1170.69,286Zm-.29-6.44a1.31,1.31,0,0,0-1,.42,1.91,1.91,0,0,0-.43,1.19h2.92a1.74,1.74,0,0,0-.4-1.19A1.36,1.36,0,0,0,1170.4,279.56Z" transform="translate(-50.84 -16.97)"/><path class="cls-10" d="M1181.56,286a2.49,2.49,0,0,1-2.12-1.05,4.83,4.83,0,0,1-.77-2.9,4.77,4.77,0,0,1,.79-2.93,2.53,2.53,0,0,1,2.15-1.05,2.48,2.48,0,0,1,2.2,1.13h.07a9,9,0,0,1-.15-1.53v-2.45h2.09v10.64h-1.6l-.41-1h-.08A2.4,2.4,0,0,1,1181.56,286Zm.73-1.66a1.42,1.42,0,0,0,1.17-.47,2.66,2.66,0,0,0,.41-1.58v-.22a3.18,3.18,0,0,0-.38-1.77,1.41,1.41,0,0,0-1.23-.53,1.24,1.24,0,0,0-1.09.59,3.25,3.25,0,0,0-.38,1.72,3,3,0,0,0,.39,1.69A1.27,1.27,0,0,0,1182.29,284.34Z" transform="translate(-50.84 -16.97)"/><path class="cls-10" d="M1194.94,282a4.07,4.07,0,0,1-1,2.91,3.55,3.55,0,0,1-2.74,1.06,3.82,3.82,0,0,1-1.94-.48,3.36,3.36,0,0,1-1.3-1.39,4.64,4.64,0,0,1-.45-2.1,4.12,4.12,0,0,1,1-2.92,3.6,3.6,0,0,1,2.75-1,3.85,3.85,0,0,1,1.94.48,3.19,3.19,0,0,1,1.29,1.38A4.58,4.58,0,0,1,1194.94,282Zm-5.28,0a3.19,3.19,0,0,0,.37,1.71,1.56,1.56,0,0,0,2.42,0,3.31,3.31,0,0,0,.36-1.72,3.15,3.15,0,0,0-.37-1.71,1.34,1.34,0,0,0-1.21-.56,1.31,1.31,0,0,0-1.2.56A3.12,3.12,0,0,0,1189.66,282Z" transform="translate(-50.84 -16.97)"/><path class="cls-10" d="M1199.77,286q-3.57,0-3.57-3.92a4.22,4.22,0,0,1,1-3,3.67,3.67,0,0,1,2.78-1,5.37,5.37,0,0,1,2.38.52l-.61,1.62c-.33-.13-.64-.24-.92-.33a3.06,3.06,0,0,0-.85-.12q-1.62,0-1.62,2.31c0,1.49.54,2.24,1.62,2.24a3.61,3.61,0,0,0,1.12-.16,4.37,4.37,0,0,0,1-.5v1.78a3.25,3.25,0,0,1-1,.44A5.26,5.26,0,0,1,1199.77,286Z" transform="translate(-50.84 -16.97)"/><path class="cls-10" d="M1209.28,285.86l-.28-1h-.11a2.21,2.21,0,0,1-1,.83,3.3,3.3,0,0,1-1.4.29,2.66,2.66,0,0,1-2-.72,2.9,2.9,0,0,1-.69-2.08v-5h2.09v4.46a2.18,2.18,0,0,0,.29,1.24,1.07,1.07,0,0,0,.94.42,1.41,1.41,0,0,0,1.26-.59,3.61,3.61,0,0,0,.39-1.94v-3.59h2.09v7.64Z" transform="translate(-50.84 -16.97)"/><path class="cls-10" d="M1219.91,285.86h-2.09V281.4a2.28,2.28,0,0,0-.27-1.24,1,1,0,0,0-.88-.42,1.27,1.27,0,0,0-1.16.59,3.89,3.89,0,0,0-.36,1.94v3.59h-2.08v-7.64h1.59l.28,1h.11a2.16,2.16,0,0,1,.89-.83,2.91,2.91,0,0,1,1.34-.3,2.39,2.39,0,0,1,2.32,1.13h.19a2,2,0,0,1,.9-.83,3,3,0,0,1,1.35-.3,2.7,2.7,0,0,1,2,.67,3,3,0,0,1,.66,2.14v5h-2.09V281.4a2.19,2.19,0,0,0-.28-1.24,1,1,0,0,0-.87-.42,1.28,1.28,0,0,0-1.14.55,3.12,3.12,0,0,0-.38,1.74Z" transform="translate(-50.84 -16.97)"/><path class="cls-10" d="M1230.27,286a3.93,3.93,0,0,1-2.88-1,3.83,3.83,0,0,1-1-2.89,4.24,4.24,0,0,1,1-3,3.89,3.89,0,0,1,5.18-.12,3.48,3.48,0,0,1,.9,2.55v1h-4.93A2,2,0,0,0,1229,284a1.85,1.85,0,0,0,1.38.5,5.45,5.45,0,0,0,1.3-.15,6.29,6.29,0,0,0,1.29-.46v1.62a4.76,4.76,0,0,1-1.17.4A7.22,7.22,0,0,1,1230.27,286Zm-.29-6.44a1.33,1.33,0,0,0-1,.42,1.91,1.91,0,0,0-.43,1.19h2.92a1.74,1.74,0,0,0-.4-1.19A1.36,1.36,0,0,0,1230,279.56Z" transform="translate(-50.84 -16.97)"/><path class="cls-10" d="M1242.14,285.86h-2.09V281.4a2.1,2.1,0,0,0-.29-1.24,1.07,1.07,0,0,0-.94-.42,1.41,1.41,0,0,0-1.26.59,3.61,3.61,0,0,0-.39,1.94v3.59h-2.09v-7.64h1.6l.28,1h.11a2.3,2.3,0,0,1,1-.84,3.29,3.29,0,0,1,1.39-.29,2.65,2.65,0,0,1,2,.73,2.88,2.88,0,0,1,.69,2.08Z" transform="translate(-50.84 -16.97)"/><path class="cls-10" d="M1247.5,284.34a4.52,4.52,0,0,0,1.32-.24v1.55a4.74,4.74,0,0,1-1.92.35,2.35,2.35,0,0,1-1.82-.63,2.78,2.78,0,0,1-.57-1.9v-3.69h-1v-.88l1.15-.7.6-1.61h1.34v1.63h2.14v1.56h-2.14v3.69a.8.8,0,0,0,.25.65A.92.92,0,0,0,1247.5,284.34Z" transform="translate(-50.84 -16.97)"/><path class="cls-10" d="M1257.31,282a4.07,4.07,0,0,1-1,2.91,3.53,3.53,0,0,1-2.74,1.06,3.85,3.85,0,0,1-1.94-.48,3.27,3.27,0,0,1-1.29-1.39,4.64,4.64,0,0,1-.45-2.1,4.08,4.08,0,0,1,1-2.92,3.58,3.58,0,0,1,2.74-1,3.82,3.82,0,0,1,1.94.48,3.21,3.21,0,0,1,1.3,1.38A4.58,4.58,0,0,1,1257.31,282Zm-5.29,0a3.19,3.19,0,0,0,.38,1.71,1.55,1.55,0,0,0,2.41,0,3.31,3.31,0,0,0,.36-1.72,3.25,3.25,0,0,0-.36-1.71,1.35,1.35,0,0,0-1.21-.56,1.33,1.33,0,0,0-1.21.56A3.22,3.22,0,0,0,1252,282Z" transform="translate(-50.84 -16.97)"/><path class="cls-10" d="M1056.31,304a2.48,2.48,0,0,1-2.11-1,4.76,4.76,0,0,1-.77-2.9,4.84,4.84,0,0,1,.78-2.93,2.54,2.54,0,0,1,2.16-1,2.5,2.5,0,0,1,2.2,1.13h.07a8.12,8.12,0,0,1-.16-1.53v-2.45h2.09v10.64H1059l-.4-1h-.09A2.39,2.39,0,0,1,1056.31,304Zm.73-1.66a1.42,1.42,0,0,0,1.18-.47,2.66,2.66,0,0,0,.4-1.58v-.22a3.2,3.2,0,0,0-.37-1.77,1.44,1.44,0,0,0-1.24-.53,1.22,1.22,0,0,0-1.08.59,3.15,3.15,0,0,0-.39,1.72,3,3,0,0,0,.39,1.69A1.27,1.27,0,0,0,1057,302.37Z" transform="translate(-50.84 -16.97)"/><path class="cls-10" d="M1066.21,304a3.93,3.93,0,0,1-2.88-1,3.83,3.83,0,0,1-1-2.89,4.24,4.24,0,0,1,1-3,3.41,3.41,0,0,1,2.65-1,3.37,3.37,0,0,1,2.53.93,3.48,3.48,0,0,1,.9,2.55v1h-4.93a2,2,0,0,0,.53,1.39,1.84,1.84,0,0,0,1.38.5,5.45,5.45,0,0,0,1.3-.15,6.29,6.29,0,0,0,1.29-.46v1.62a4.76,4.76,0,0,1-1.17.4A7.29,7.29,0,0,1,1066.21,304Zm-.29-6.44a1.33,1.33,0,0,0-1,.42,1.91,1.91,0,0,0-.43,1.19h2.92a1.69,1.69,0,0,0-.4-1.19A1.36,1.36,0,0,0,1065.92,297.59Z" transform="translate(-50.84 -16.97)"/><path class="cls-10" d="M1081.73,297a3.06,3.06,0,0,1-1,2.47,4.31,4.31,0,0,1-2.87.86h-.91v3.55h-2.11v-10H1078a4.24,4.24,0,0,1,2.76.78A2.85,2.85,0,0,1,1081.73,297Zm-4.79,1.59h.7a2.29,2.29,0,0,0,1.46-.39,1.32,1.32,0,0,0,.49-1.12,1.39,1.39,0,0,0-.41-1.1,1.87,1.87,0,0,0-1.27-.36h-1Z" transform="translate(-50.84 -16.97)"/><path class="cls-10" d="M1090.4,300.06a4.12,4.12,0,0,1-1,2.92,3.56,3.56,0,0,1-2.74,1,3.85,3.85,0,0,1-1.94-.48,3.27,3.27,0,0,1-1.29-1.39,4.64,4.64,0,0,1-.45-2.1,4.12,4.12,0,0,1,1-2.92,3.62,3.62,0,0,1,2.75-1,3.82,3.82,0,0,1,1.94.48A3.21,3.21,0,0,1,1090,298,4.58,4.58,0,0,1,1090.4,300.06Zm-5.29,0a3.19,3.19,0,0,0,.38,1.71,1.55,1.55,0,0,0,2.41,0,3.31,3.31,0,0,0,.36-1.72,3.25,3.25,0,0,0-.36-1.71,1.35,1.35,0,0,0-1.21-.56,1.33,1.33,0,0,0-1.21.56A3.22,3.22,0,0,0,1085.11,300.06Z" transform="translate(-50.84 -16.97)"/><path class="cls-10" d="M1094.21,303.89h-2.09V293.25h2.09Z" transform="translate(-50.84 -16.97)"/><path class="cls-10" d="M1096.29,295.41v-.19a20.35,20.35,0,0,0,1.61-2.05h2.33v.14c-.23.24-.64.59-1.21,1.06s-1,.81-1.34,1Zm2.19,8.48h-2.09v-7.64h2.09Z" transform="translate(-50.84 -16.97)"/><path class="cls-10" d="M1103.88,302.37a4.52,4.52,0,0,0,1.32-.24v1.55a4.74,4.74,0,0,1-1.92.35,2.35,2.35,0,0,1-1.82-.63,2.78,2.78,0,0,1-.57-1.9v-3.69h-1v-.88l1.15-.7.6-1.61H1103v1.63h2.14v1.56H1103v3.69a.8.8,0,0,0,.25.65A.92.92,0,0,0,1103.88,302.37Z" transform="translate(-50.84 -16.97)"/><path class="cls-10" d="M1106.65,294.27q0-1,1.14-1c.75,0,1.13.34,1.13,1a1,1,0,0,1-.28.76,1.19,1.19,0,0,1-.85.27C1107,295.3,1106.65,295,1106.65,294.27Zm2.18,9.62h-2.09v-7.64h2.09Z" transform="translate(-50.84 -16.97)"/><path class="cls-10" d="M1114.12,304q-3.57,0-3.57-3.92a4.18,4.18,0,0,1,1-3,3.66,3.66,0,0,1,2.78-1,5.37,5.37,0,0,1,2.38.52l-.61,1.62c-.33-.13-.64-.24-.92-.33a3.12,3.12,0,0,0-.85-.12q-1.62,0-1.62,2.31c0,1.49.54,2.24,1.62,2.24a3.65,3.65,0,0,0,1.12-.16,4.37,4.37,0,0,0,1-.5v1.78a3.36,3.36,0,0,1-1,.44A5.26,5.26,0,0,1,1114.12,304Z" transform="translate(-50.84 -16.97)"/><path class="cls-10" d="M1123.07,303.89l-.41-1h-.05a3.09,3.09,0,0,1-1.08.92,3.57,3.57,0,0,1-1.46.26,2.34,2.34,0,0,1-1.73-.63,2.43,2.43,0,0,1-.63-1.79,2,2,0,0,1,.85-1.8,5,5,0,0,1,2.56-.64l1.33,0v-.33a1,1,0,0,0-1.19-1.16,5.36,5.36,0,0,0-2.15.55l-.69-1.41a6.2,6.2,0,0,1,2.92-.69,3.61,3.61,0,0,1,2.36.67,2.48,2.48,0,0,1,.82,2v5.09Zm-.62-3.54-.81,0a2.52,2.52,0,0,0-1.35.33,1,1,0,0,0-.44.91c0,.59.33.88,1,.88a1.64,1.64,0,0,0,1.16-.41,1.47,1.47,0,0,0,.43-1.11Z" transform="translate(-50.84 -16.97)"/><path class="cls-10" d="M1137.37,297a3.06,3.06,0,0,1-1,2.47,4.33,4.33,0,0,1-2.87.86h-.91v3.55h-2.12v-10h3.19a4.27,4.27,0,0,1,2.77.78A2.85,2.85,0,0,1,1137.37,297Zm-4.78,1.59h.7a2.29,2.29,0,0,0,1.46-.39,1.34,1.34,0,0,0,.48-1.12,1.39,1.39,0,0,0-.4-1.1,1.9,1.9,0,0,0-1.28-.36h-1Z" transform="translate(-50.84 -16.97)"/><path class="cls-10" d="M1144.51,303.89l-.28-1h-.11a2.21,2.21,0,0,1-.95.83,3.3,3.3,0,0,1-1.4.29,2.67,2.67,0,0,1-2-.72,2.9,2.9,0,0,1-.68-2.08v-5h2.08v4.46a2.18,2.18,0,0,0,.29,1.24,1.07,1.07,0,0,0,.94.42,1.42,1.42,0,0,0,1.27-.59,3.61,3.61,0,0,0,.39-1.94v-3.59h2.08v7.64Zm-3.1-8.48v-.19a18.54,18.54,0,0,0,1.6-2.05h2.34v.14c-.24.24-.64.59-1.21,1.06s-1,.81-1.35,1Z" transform="translate(-50.84 -16.97)"/><path class="cls-10" d="M1152.55,296.1a2.49,2.49,0,0,1,2.12,1.06,4.87,4.87,0,0,1,.76,2.9,4.79,4.79,0,0,1-.78,2.93,2.76,2.76,0,0,1-4.27.06h-.14l-.35.84h-1.59V293.25h2.08v2.48c0,.31,0,.82-.08,1.51h.08A2.41,2.41,0,0,1,1152.55,296.1Zm-.67,1.67a1.32,1.32,0,0,0-1.13.48,2.7,2.7,0,0,0-.37,1.57V300a3.2,3.2,0,0,0,.37,1.77,1.31,1.31,0,0,0,1.16.53,1.16,1.16,0,0,0,1-.59,3.25,3.25,0,0,0,.38-1.72,3.06,3.06,0,0,0-.38-1.69A1.21,1.21,0,0,0,1151.88,297.77Z" transform="translate(-50.84 -16.97)"/><path class="cls-10" d="M1159.24,303.89h-2.08V293.25h2.08Z" transform="translate(-50.84 -16.97)"/><path class="cls-10" d="M1161.34,294.27q0-1,1.14-1c.75,0,1.13.34,1.13,1a1,1,0,0,1-.28.76,1.2,1.2,0,0,1-.85.27C1161.72,295.3,1161.34,295,1161.34,294.27Zm2.17,9.62h-2.08v-7.64h2.08Z" transform="translate(-50.84 -16.97)"/><path class="cls-10" d="M1168.81,304q-3.57,0-3.57-3.92a4.18,4.18,0,0,1,1-3,3.66,3.66,0,0,1,2.78-1,5.4,5.4,0,0,1,2.38.52l-.62,1.62c-.32-.13-.63-.24-.91-.33a3.12,3.12,0,0,0-.85-.12c-1.08,0-1.63.77-1.63,2.31s.55,2.24,1.63,2.24a3.59,3.59,0,0,0,1.11-.16,4.25,4.25,0,0,0,1-.5v1.78a3.46,3.46,0,0,1-1,.44A5.32,5.32,0,0,1,1168.81,304Z" transform="translate(-50.84 -16.97)"/><path class="cls-10" d="M1177.75,303.89l-.4-1h0a3.11,3.11,0,0,1-1.09.92,3.48,3.48,0,0,1-1.45.26,2.34,2.34,0,0,1-1.73-.63,2.43,2.43,0,0,1-.64-1.79,2,2,0,0,1,.86-1.8,5,5,0,0,1,2.56-.64l1.33,0v-.33a1,1,0,0,0-1.19-1.16,5.36,5.36,0,0,0-2.15.55l-.69-1.41a6.2,6.2,0,0,1,2.92-.69,3.63,3.63,0,0,1,2.36.67,2.48,2.48,0,0,1,.82,2v5.09Zm-.61-3.54-.81,0a2.5,2.5,0,0,0-1.35.33,1,1,0,0,0-.45.91c0,.59.34.88,1,.88a1.64,1.64,0,0,0,1.16-.41,1.51,1.51,0,0,0,.43-1.11Z" transform="translate(-50.84 -16.97)"/><path class="cls-10" d="M1187.41,304a2.48,2.48,0,0,1-2.11-1,4.76,4.76,0,0,1-.77-2.9,4.84,4.84,0,0,1,.78-2.93,2.54,2.54,0,0,1,2.16-1,2.5,2.5,0,0,1,2.2,1.13h.07a8.12,8.12,0,0,1-.16-1.53v-2.45h2.09v10.64h-1.6l-.4-1h-.09A2.39,2.39,0,0,1,1187.41,304Zm.73-1.66a1.42,1.42,0,0,0,1.18-.47,2.66,2.66,0,0,0,.4-1.58v-.22a3.1,3.1,0,0,0-.38-1.77,1.41,1.41,0,0,0-1.23-.53,1.22,1.22,0,0,0-1.08.59,3.15,3.15,0,0,0-.39,1.72,3,3,0,0,0,.39,1.69A1.27,1.27,0,0,0,1188.14,302.37Z" transform="translate(-50.84 -16.97)"/><path class="cls-10" d="M1197.31,304a3.93,3.93,0,0,1-2.88-1,3.83,3.83,0,0,1-1-2.89,4.24,4.24,0,0,1,1-3,3.89,3.89,0,0,1,5.18-.12,3.48,3.48,0,0,1,.9,2.55v1h-4.93A2,2,0,0,0,1196,302a1.84,1.84,0,0,0,1.38.5,5.45,5.45,0,0,0,1.3-.15,6.29,6.29,0,0,0,1.29-.46v1.62a4.76,4.76,0,0,1-1.17.4A7.29,7.29,0,0,1,1197.31,304Zm-.29-6.44a1.33,1.33,0,0,0-1,.42,1.91,1.91,0,0,0-.43,1.19h2.92a1.74,1.74,0,0,0-.4-1.19A1.36,1.36,0,0,0,1197,297.59Z" transform="translate(-50.84 -16.97)"/><path class="cls-10" d="M1053,323.63a4.65,4.65,0,0,1-1.25-.15v-1.76a4.16,4.16,0,0,0,1,.13,1.13,1.13,0,0,0,1-.43,2.42,2.42,0,0,0,.3-1.36V310.7h2.12v9.35a4,4,0,0,1-.8,2.66A3,3,0,0,1,1053,323.63Z" transform="translate(-50.84 -16.97)"/><path class="cls-10" d="M1063.94,320.69l-.28-1h-.11a2.21,2.21,0,0,1-1,.83,3.27,3.27,0,0,1-1.4.29,2.67,2.67,0,0,1-2-.72,2.9,2.9,0,0,1-.68-2.08v-5h2.08v4.46a2.1,2.1,0,0,0,.3,1.24,1,1,0,0,0,.93.42,1.41,1.41,0,0,0,1.27-.59,3.61,3.61,0,0,0,.39-1.94v-3.59h2.08v7.64Z" transform="translate(-50.84 -16.97)"/><path class="cls-10" d="M1069.55,320.69l-2.91-7.64h2.18l1.47,4.35a7.37,7.37,0,0,1,.31,1.57h0a6.85,6.85,0,0,1,.31-1.57l1.47-4.35h2.18l-2.91,7.64Z" transform="translate(-50.84 -16.97)"/><path class="cls-10" d="M1079.15,320.83a3.93,3.93,0,0,1-2.88-1,3.87,3.87,0,0,1-1-2.89,4.24,4.24,0,0,1,1-3,3.41,3.41,0,0,1,2.65-1.05,3.37,3.37,0,0,1,2.53.93,3.48,3.48,0,0,1,.9,2.55v1h-4.93a2,2,0,0,0,.53,1.39,1.87,1.87,0,0,0,1.38.5,5.45,5.45,0,0,0,1.3-.15,6.29,6.29,0,0,0,1.29-.46v1.62a4.76,4.76,0,0,1-1.17.4A7.29,7.29,0,0,1,1079.15,320.83Zm-.29-6.44a1.33,1.33,0,0,0-1,.42,1.91,1.91,0,0,0-.43,1.19h2.92a1.69,1.69,0,0,0-.4-1.19A1.36,1.36,0,0,0,1078.86,314.39Z" transform="translate(-50.84 -16.97)"/><path class="cls-10" d="M1091,320.69h-2.09v-4.46a2.1,2.1,0,0,0-.29-1.24,1.07,1.07,0,0,0-.94-.42,1.41,1.41,0,0,0-1.26.59,3.61,3.61,0,0,0-.39,1.94v3.59H1084v-7.64h1.6l.28,1h.11a2.3,2.3,0,0,1,1-.84,3.3,3.3,0,0,1,1.4-.29,2.68,2.68,0,0,1,2,.73,2.88,2.88,0,0,1,.69,2.08Z" transform="translate(-50.84 -16.97)"/><path class="cls-10" d="M1096.39,319.17a4.52,4.52,0,0,0,1.31-.24v1.55a4.74,4.74,0,0,1-1.92.35,2.35,2.35,0,0,1-1.82-.63,2.78,2.78,0,0,1-.57-1.9v-3.69h-1v-.88l1.15-.7.6-1.61h1.34v1.63h2.14v1.56h-2.14v3.69a.8.8,0,0,0,.25.65A.92.92,0,0,0,1096.39,319.17Z" transform="translate(-50.84 -16.97)"/><path class="cls-10" d="M1104.66,320.69l-.28-1h-.11a2.26,2.26,0,0,1-1,.83,3.3,3.3,0,0,1-1.4.29,2.66,2.66,0,0,1-2-.72,2.9,2.9,0,0,1-.69-2.08v-5h2.09v4.46a2.1,2.1,0,0,0,.29,1.24,1.07,1.07,0,0,0,.94.42,1.41,1.41,0,0,0,1.26-.59,3.61,3.61,0,0,0,.39-1.94v-3.59h2.09v7.64Z" transform="translate(-50.84 -16.97)"/><path class="cls-10" d="M1110.86,320.83a2.48,2.48,0,0,1-2.11-1.05,5.87,5.87,0,0,1,0-5.83,2.54,2.54,0,0,1,2.16-1.05,2.5,2.5,0,0,1,2.2,1.13h.07a8.12,8.12,0,0,1-.16-1.53v-2.45h2.09v10.64h-1.6l-.4-1H1113A2.39,2.39,0,0,1,1110.86,320.83Zm.74-1.66a1.42,1.42,0,0,0,1.17-.47,2.66,2.66,0,0,0,.4-1.58v-.22a3.2,3.2,0,0,0-.37-1.77,1.44,1.44,0,0,0-1.24-.53,1.23,1.23,0,0,0-1.08.59,3.15,3.15,0,0,0-.39,1.72,3,3,0,0,0,.39,1.69A1.27,1.27,0,0,0,1111.6,319.17Z" transform="translate(-50.84 -16.97)"/><path class="cls-10" d="M1127.39,320.69h-7v-1.47l2.51-2.53c.74-.77,1.22-1.29,1.45-1.59a3.3,3.3,0,0,0,.49-.81,2.08,2.08,0,0,0,.15-.78,1.16,1.16,0,0,0-.33-.9,1.3,1.3,0,0,0-.88-.29,2.63,2.63,0,0,0-1.13.26,5.79,5.79,0,0,0-1.14.76l-1.15-1.36a8,8,0,0,1,1.22-.89,5.16,5.16,0,0,1,1.06-.4,5.67,5.67,0,0,1,1.29-.14,3.77,3.77,0,0,1,1.65.35,2.61,2.61,0,0,1,1.12,1,2.58,2.58,0,0,1,.39,1.41,3.53,3.53,0,0,1-.24,1.3,5.06,5.06,0,0,1-.75,1.24,19.48,19.48,0,0,1-1.8,1.81l-1.28,1.21v.09h4.35Z" transform="translate(-50.84 -16.97)"/><path class="cls-10" d="M1135.33,315.69a7,7,0,0,1-.86,3.88,3.33,3.33,0,0,1-5.25,0,6.94,6.94,0,0,1-.88-3.84,7,7,0,0,1,.86-3.9,3.33,3.33,0,0,1,5.25.06A6.9,6.9,0,0,1,1135.33,315.69Zm-4.89,0a7.83,7.83,0,0,0,.32,2.64,1.11,1.11,0,0,0,1.07.8,1.12,1.12,0,0,0,1.07-.81,10.84,10.84,0,0,0,0-5.27,1.11,1.11,0,0,0-2.13,0A7.91,7.91,0,0,0,1130.44,315.69Z" transform="translate(-50.84 -16.97)"/><path class="cls-10" d="M1143.38,320.69h-7v-1.47l2.51-2.53c.74-.77,1.23-1.29,1.45-1.59a3.37,3.37,0,0,0,.5-.81,2.08,2.08,0,0,0,.15-.78,1.16,1.16,0,0,0-.33-.9,1.34,1.34,0,0,0-.89-.29,2.67,2.67,0,0,0-1.13.26,6.09,6.09,0,0,0-1.14.76l-1.15-1.36a7.52,7.52,0,0,1,1.23-.89,4.76,4.76,0,0,1,1.06-.4,5.58,5.58,0,0,1,1.28-.14,3.74,3.74,0,0,1,1.65.35,2.61,2.61,0,0,1,1.12,1,2.58,2.58,0,0,1,.4,1.41,3.54,3.54,0,0,1-.25,1.3,5.06,5.06,0,0,1-.75,1.24,20.4,20.4,0,0,1-1.79,1.81l-1.29,1.21v.09h4.36Z" transform="translate(-50.84 -16.97)"/><path class="cls-10" d="M1151.37,320.69h-7v-1.47l2.51-2.53c.74-.77,1.23-1.29,1.46-1.59a3.64,3.64,0,0,0,.49-.81,2.08,2.08,0,0,0,.15-.78,1.16,1.16,0,0,0-.33-.9,1.32,1.32,0,0,0-.89-.29,2.67,2.67,0,0,0-1.13.26,6.09,6.09,0,0,0-1.14.76l-1.15-1.36a8,8,0,0,1,1.23-.89,4.76,4.76,0,0,1,1.06-.4,5.58,5.58,0,0,1,1.28-.14,3.79,3.79,0,0,1,1.66.35,2.58,2.58,0,0,1,1.11,1,2.5,2.5,0,0,1,.4,1.41,3.34,3.34,0,0,1-.25,1.3,5.06,5.06,0,0,1-.75,1.24,20.4,20.4,0,0,1-1.79,1.81l-1.29,1.21v.09h4.36Z" transform="translate(-50.84 -16.97)"/><path class="cls-10" d="M1152.23,317.79v-1.71h3.67v1.71Z" transform="translate(-50.84 -16.97)"/><path class="cls-10" d="M1163.86,320.69h-7v-1.47l2.51-2.53c.74-.77,1.22-1.29,1.45-1.59a3.3,3.3,0,0,0,.49-.81,2.08,2.08,0,0,0,.15-.78,1.16,1.16,0,0,0-.33-.9,1.3,1.3,0,0,0-.88-.29,2.63,2.63,0,0,0-1.13.26,5.79,5.79,0,0,0-1.14.76l-1.15-1.36a8,8,0,0,1,1.22-.89,5.16,5.16,0,0,1,1.06-.4,5.67,5.67,0,0,1,1.29-.14,3.77,3.77,0,0,1,1.65.35,2.61,2.61,0,0,1,1.12,1,2.58,2.58,0,0,1,.39,1.41,3.53,3.53,0,0,1-.24,1.3,5.06,5.06,0,0,1-.75,1.24,19.48,19.48,0,0,1-1.8,1.81l-1.28,1.21v.09h4.35Z" transform="translate(-50.84 -16.97)"/><path class="cls-10" d="M1171.8,315.69a7,7,0,0,1-.86,3.88,3.33,3.33,0,0,1-5.25,0,6.94,6.94,0,0,1-.88-3.84,7,7,0,0,1,.86-3.9,3.33,3.33,0,0,1,5.25.06A7,7,0,0,1,1171.8,315.69Zm-4.89,0a7.83,7.83,0,0,0,.32,2.64,1.11,1.11,0,0,0,1.07.8,1.12,1.12,0,0,0,1.07-.81,7.84,7.84,0,0,0,.32-2.63,7.6,7.6,0,0,0-.33-2.64,1.11,1.11,0,0,0-2.13,0A7.91,7.91,0,0,0,1166.91,315.69Z" transform="translate(-50.84 -16.97)"/><path class="cls-10" d="M1179.85,320.69h-7v-1.47l2.51-2.53c.74-.77,1.23-1.29,1.45-1.59a3.37,3.37,0,0,0,.5-.81,2.08,2.08,0,0,0,.15-.78,1.13,1.13,0,0,0-.34-.9,1.3,1.3,0,0,0-.88-.29,2.67,2.67,0,0,0-1.13.26,6.09,6.09,0,0,0-1.14.76l-1.15-1.36a7.52,7.52,0,0,1,1.23-.89,4.76,4.76,0,0,1,1.06-.4,5.58,5.58,0,0,1,1.28-.14,3.74,3.74,0,0,1,1.65.35,2.61,2.61,0,0,1,1.12,1,2.58,2.58,0,0,1,.4,1.41,3.54,3.54,0,0,1-.25,1.3,5.06,5.06,0,0,1-.75,1.24,20.4,20.4,0,0,1-1.79,1.81l-1.29,1.21v.09h4.36Z" transform="translate(-50.84 -16.97)"/><path class="cls-10" d="M1181.84,320.69l3.75-8.2h-4.92v-1.78h7.17V312l-3.78,8.65Z" transform="translate(-50.84 -16.97)"/></g><path class="cls-7" d="M1062.56,350.55a4.65,4.65,0,0,1-1.25-.15v-1.77a4.21,4.21,0,0,0,1,.14,1.14,1.14,0,0,0,1-.43,2.45,2.45,0,0,0,.3-1.36v-9.37h2.12V347a4,4,0,0,1-.8,2.66A3,3,0,0,1,1062.56,350.55Z" transform="translate(-50.84 -16.97)"/><path class="cls-7" d="M1073.49,347.61l-.28-1h-.11a2.12,2.12,0,0,1-.95.82,3.16,3.16,0,0,1-1.4.29,2.66,2.66,0,0,1-2-.72A2.87,2.87,0,0,1,1068,345v-5h2.08v4.46a2.12,2.12,0,0,0,.3,1.24,1,1,0,0,0,.93.41,1.42,1.42,0,0,0,1.27-.58,3.64,3.64,0,0,0,.39-1.94V340h2.08v7.64Z" transform="translate(-50.84 -16.97)"/><path class="cls-7" d="M1084.33,347.61h-2.08v-4.47a2.12,2.12,0,0,0-.3-1.24,1.06,1.06,0,0,0-.93-.41,1.41,1.41,0,0,0-1.27.58,3.64,3.64,0,0,0-.39,1.94v3.6h-2.08V340h1.59l.28,1h.12a2.1,2.1,0,0,1,1-.83,3.26,3.26,0,0,1,1.39-.29,2.66,2.66,0,0,1,2,.72,2.9,2.9,0,0,1,.69,2.08Z" transform="translate(-50.84 -16.97)"/><path class="cls-7" d="M1086.39,338q0-1,1.14-1c.75,0,1.13.34,1.13,1a1,1,0,0,1-.28.76,1.2,1.2,0,0,1-.85.27C1086.77,339,1086.39,338.67,1086.39,338Zm2.17,9.62h-2.08V340h2.08Z" transform="translate(-50.84 -16.97)"/><path class="cls-7" d="M1097.7,343.77a4.08,4.08,0,0,1-1,2.92,3.56,3.56,0,0,1-2.74,1.05,3.85,3.85,0,0,1-1.94-.48,3.19,3.19,0,0,1-1.29-1.38,4.68,4.68,0,0,1-.45-2.11,4.08,4.08,0,0,1,1-2.91,3.62,3.62,0,0,1,2.75-1,3.82,3.82,0,0,1,1.94.48,3.25,3.25,0,0,1,1.3,1.37A4.64,4.64,0,0,1,1097.7,343.77Zm-5.29,0a3.2,3.2,0,0,0,.38,1.72,1.54,1.54,0,0,0,2.41,0,3.29,3.29,0,0,0,.36-1.72,3.23,3.23,0,0,0-.36-1.7,1.57,1.57,0,0,0-2.42,0A3.18,3.18,0,0,0,1092.41,343.77Z" transform="translate(-50.84 -16.97)"/><path class="cls-7" d="M1105.48,347.74a2.47,2.47,0,0,1-2.12-1,5.87,5.87,0,0,1,0-5.83,2.57,2.57,0,0,1,2.16-1.05,2.5,2.5,0,0,1,2.2,1.12h.07a9,9,0,0,1-.16-1.52V337h2.1v10.64h-1.6l-.41-1h-.09A2.37,2.37,0,0,1,1105.48,347.74Zm.73-1.66a1.41,1.41,0,0,0,1.17-.46,2.75,2.75,0,0,0,.41-1.58v-.23a3.15,3.15,0,0,0-.38-1.76,1.42,1.42,0,0,0-1.24-.53,1.21,1.21,0,0,0-1.08.59,3.13,3.13,0,0,0-.39,1.72,3,3,0,0,0,.39,1.69A1.26,1.26,0,0,0,1106.21,346.08Z" transform="translate(-50.84 -16.97)"/><path class="cls-7" d="M1115.38,347.74a4,4,0,0,1-2.89-1,3.87,3.87,0,0,1-1-2.89,4.24,4.24,0,0,1,1-3,3.43,3.43,0,0,1,2.66-1.05,3.38,3.38,0,0,1,2.52.92,3.51,3.51,0,0,1,.9,2.55v1h-4.93a2,2,0,0,0,.53,1.38,1.83,1.83,0,0,0,1.38.5,5.54,5.54,0,0,0,1.31-.14,6.86,6.86,0,0,0,1.28-.46v1.61a4.51,4.51,0,0,1-1.17.41A7.25,7.25,0,0,1,1115.38,347.74Zm-.3-6.43a1.33,1.33,0,0,0-1,.42,2,2,0,0,0-.43,1.19h2.93a1.73,1.73,0,0,0-.41-1.19A1.36,1.36,0,0,0,1115.08,341.31Z" transform="translate(-50.84 -16.97)"/><path class="cls-7" d="M1130.28,347.61h-7v-1.47l2.51-2.54c.74-.76,1.23-1.29,1.46-1.58a3.68,3.68,0,0,0,.49-.82,2.08,2.08,0,0,0,.15-.78,1.12,1.12,0,0,0-.33-.89,1.28,1.28,0,0,0-.89-.3,2.54,2.54,0,0,0-1.13.27,6.09,6.09,0,0,0-1.14.76l-1.15-1.36a7.34,7.34,0,0,1,1.23-.89,4.31,4.31,0,0,1,1.06-.4,5.58,5.58,0,0,1,1.28-.14,3.79,3.79,0,0,1,1.66.34,2.67,2.67,0,0,1,1.11,1,2.58,2.58,0,0,1,.4,1.41,3.26,3.26,0,0,1-.25,1.29,4.72,4.72,0,0,1-.75,1.24,18,18,0,0,1-1.79,1.81l-1.29,1.21v.1h4.36Z" transform="translate(-50.84 -16.97)"/><path class="cls-7" d="M1138.21,342.61a7,7,0,0,1-.85,3.88,3,3,0,0,1-2.65,1.25,2.93,2.93,0,0,1-2.6-1.29,6.86,6.86,0,0,1-.88-3.84,7.05,7.05,0,0,1,.85-3.9,3.33,3.33,0,0,1,5.25.06A6.86,6.86,0,0,1,1138.21,342.61Zm-4.88,0a7.88,7.88,0,0,0,.31,2.64,1.12,1.12,0,0,0,2.14,0,10.69,10.69,0,0,0,0-5.27,1.11,1.11,0,0,0-1.07-.8,1.09,1.09,0,0,0-1.06.8A7.61,7.61,0,0,0,1133.33,342.61Z" transform="translate(-50.84 -16.97)"/><path class="cls-7" d="M1146.26,347.61h-7v-1.47l2.51-2.54c.74-.76,1.23-1.29,1.46-1.58a3.34,3.34,0,0,0,.49-.82,2.08,2.08,0,0,0,.15-.78,1.12,1.12,0,0,0-.33-.89,1.28,1.28,0,0,0-.89-.3,2.5,2.5,0,0,0-1.12.27,5.83,5.83,0,0,0-1.15.76l-1.14-1.36a7.34,7.34,0,0,1,1.22-.89,4.47,4.47,0,0,1,1.06-.4,5.58,5.58,0,0,1,1.28-.14,3.79,3.79,0,0,1,1.66.34,2.61,2.61,0,0,1,1.11,1,2.5,2.5,0,0,1,.4,1.41,3.44,3.44,0,0,1-.24,1.29,4.77,4.77,0,0,1-.76,1.24,16,16,0,0,1-1.79,1.81l-1.28,1.21v.1h4.35Z" transform="translate(-50.84 -16.97)"/><path class="cls-7" d="M1154.25,347.61h-7v-1.47l2.51-2.54c.75-.76,1.23-1.29,1.46-1.58a3.34,3.34,0,0,0,.49-.82,2.08,2.08,0,0,0,.15-.78,1.12,1.12,0,0,0-.33-.89,1.27,1.27,0,0,0-.88-.3,2.51,2.51,0,0,0-1.13.27,5.51,5.51,0,0,0-1.14.76l-1.15-1.36a7.34,7.34,0,0,1,1.22-.89,4.47,4.47,0,0,1,1.06-.4,5.6,5.6,0,0,1,1.29-.14,3.77,3.77,0,0,1,1.65.34,2.61,2.61,0,0,1,1.11,1,2.5,2.5,0,0,1,.4,1.41,3.44,3.44,0,0,1-.24,1.29,4.72,4.72,0,0,1-.75,1.24,17.26,17.26,0,0,1-1.8,1.81l-1.28,1.21v.1h4.35Z" transform="translate(-50.84 -16.97)"/></g></svg>