<svg width="1087" height="253" viewBox="0 0 1087 253" fill="none" xmlns="http://www.w3.org/2000/svg">
<path d="M1.37402 239.006H4.19727C5.52344 239.006 6.48275 239.204 7.0752 239.601C7.66764 239.997 7.96387 240.624 7.96387 241.48C7.96387 242.073 7.79753 242.563 7.46484 242.95C7.13672 243.333 6.65592 243.581 6.02246 243.695V243.764C7.54004 244.023 8.29883 244.821 8.29883 246.156C8.29883 247.049 7.99577 247.747 7.38965 248.248C6.78809 248.749 5.94499 249 4.86035 249H1.37402V239.006ZM2.53613 243.285H4.4502C5.27051 243.285 5.86068 243.158 6.2207 242.902C6.58073 242.643 6.76074 242.207 6.76074 241.597C6.76074 241.036 6.56022 240.633 6.15918 240.387C5.75814 240.136 5.12012 240.011 4.24512 240.011H2.53613V243.285ZM2.53613 244.27V248.009H4.62109C5.42773 248.009 6.03385 247.854 6.43945 247.544C6.84961 247.229 7.05469 246.74 7.05469 246.074C7.05469 245.454 6.84505 244.999 6.42578 244.707C6.01107 244.415 5.3776 244.27 4.52539 244.27H2.53613ZM16.748 245.247C16.748 246.468 16.4404 247.423 15.8252 248.111C15.21 248.795 14.36 249.137 13.2754 249.137C12.6055 249.137 12.0107 248.979 11.4912 248.665C10.9717 248.351 10.5706 247.899 10.2881 247.312C10.0055 246.724 9.86426 246.035 9.86426 245.247C9.86426 244.026 10.1696 243.076 10.7803 242.396C11.391 241.713 12.2386 241.371 13.3232 241.371C14.3714 241.371 15.2031 241.72 15.8184 242.417C16.4382 243.114 16.748 244.058 16.748 245.247ZM11.04 245.247C11.04 246.204 11.2314 246.933 11.6143 247.435C11.9971 247.936 12.5599 248.187 13.3027 248.187C14.0456 248.187 14.6084 247.938 14.9912 247.441C15.3786 246.94 15.5723 246.209 15.5723 245.247C15.5723 244.295 15.3786 243.572 14.9912 243.08C14.6084 242.583 14.041 242.335 13.2891 242.335C12.5462 242.335 11.9857 242.579 11.6074 243.066C11.2292 243.554 11.04 244.281 11.04 245.247ZM21.7383 249.137C20.6536 249.137 19.8128 248.804 19.2158 248.139C18.6234 247.469 18.3271 246.523 18.3271 245.302C18.3271 244.049 18.6279 243.08 19.2295 242.396C19.8356 241.713 20.6969 241.371 21.8135 241.371C22.1735 241.371 22.5335 241.41 22.8936 241.487C23.2536 241.565 23.5361 241.656 23.7412 241.761L23.3926 242.725C23.1419 242.624 22.8685 242.542 22.5723 242.479C22.276 242.41 22.014 242.376 21.7861 242.376C20.264 242.376 19.5029 243.347 19.5029 245.288C19.5029 246.209 19.6875 246.915 20.0566 247.407C20.4303 247.899 20.9818 248.146 21.7109 248.146C22.3353 248.146 22.9756 248.011 23.6318 247.742V248.747C23.1305 249.007 22.4993 249.137 21.7383 249.137ZM30.0234 249L29.7979 247.934H29.7432C29.3695 248.403 28.9958 248.722 28.6221 248.891C28.2529 249.055 27.7904 249.137 27.2344 249.137C26.4915 249.137 25.9082 248.945 25.4844 248.562C25.0651 248.18 24.8555 247.635 24.8555 246.929C24.8555 245.416 26.0654 244.623 28.4854 244.55L29.7568 244.509V244.044C29.7568 243.456 29.6292 243.023 29.374 242.745C29.1234 242.463 28.7201 242.321 28.1641 242.321C27.5397 242.321 26.8333 242.513 26.0449 242.896L25.6963 242.027C26.0654 241.827 26.4688 241.67 26.9062 241.556C27.3483 241.442 27.7904 241.385 28.2324 241.385C29.1257 241.385 29.7865 241.583 30.2148 241.979C30.6478 242.376 30.8643 243.012 30.8643 243.887V249H30.0234ZM27.46 248.2C28.1663 248.2 28.7201 248.007 29.1211 247.619C29.5267 247.232 29.7295 246.689 29.7295 245.992V245.315L28.5947 245.363C27.6924 245.395 27.0407 245.536 26.6396 245.787C26.2432 246.033 26.0449 246.418 26.0449 246.942C26.0449 247.353 26.168 247.665 26.4141 247.879C26.6647 248.093 27.0133 248.2 27.46 248.2ZM38.042 246.956C38.042 247.653 37.7822 248.191 37.2627 248.569C36.7432 248.948 36.014 249.137 35.0752 249.137C34.0817 249.137 33.307 248.979 32.751 248.665V247.612C33.111 247.795 33.4961 247.938 33.9062 248.043C34.321 248.148 34.7197 248.2 35.1025 248.2C35.695 248.2 36.1507 248.107 36.4697 247.92C36.7887 247.729 36.9482 247.439 36.9482 247.052C36.9482 246.76 36.8206 246.512 36.5654 246.307C36.3148 246.097 35.8226 245.851 35.0889 245.568C34.3916 245.309 33.8949 245.083 33.5986 244.892C33.307 244.696 33.0882 244.475 32.9424 244.229C32.8011 243.982 32.7305 243.688 32.7305 243.347C32.7305 242.736 32.9788 242.255 33.4756 241.904C33.9723 241.549 34.6536 241.371 35.5195 241.371C36.3262 241.371 37.1146 241.535 37.8848 241.863L37.4814 242.786C36.7295 242.476 36.0482 242.321 35.4375 242.321C34.8997 242.321 34.4941 242.406 34.2207 242.574C33.9473 242.743 33.8105 242.975 33.8105 243.271C33.8105 243.472 33.8607 243.643 33.9609 243.784C34.0658 243.925 34.2321 244.06 34.46 244.188C34.6878 244.315 35.1253 244.5 35.7725 244.741C36.6611 245.065 37.2604 245.391 37.5703 245.719C37.8848 246.047 38.042 246.459 38.042 246.956ZM48.6309 247.995H48.5693C48.0452 248.756 47.2614 249.137 46.2178 249.137C45.238 249.137 44.4746 248.802 43.9277 248.132C43.3854 247.462 43.1143 246.509 43.1143 245.274C43.1143 244.039 43.3877 243.08 43.9346 242.396C44.4814 241.713 45.2425 241.371 46.2178 241.371C47.234 241.371 48.0133 241.74 48.5557 242.479H48.6445L48.5967 241.938L48.5693 241.412V238.363H49.7041V249H48.7812L48.6309 247.995ZM46.3613 248.187C47.1361 248.187 47.6966 247.977 48.043 247.558C48.3939 247.134 48.5693 246.452 48.5693 245.514V245.274C48.5693 244.213 48.3916 243.456 48.0361 243.005C47.6852 242.549 47.1224 242.321 46.3477 242.321C45.6823 242.321 45.1719 242.581 44.8164 243.101C44.4655 243.616 44.29 244.345 44.29 245.288C44.29 246.245 44.4655 246.967 44.8164 247.455C45.1673 247.943 45.6823 248.187 46.3613 248.187ZM55.2822 249.137C54.1748 249.137 53.2998 248.799 52.6572 248.125C52.0192 247.451 51.7002 246.514 51.7002 245.315C51.7002 244.108 51.9964 243.148 52.5889 242.438C53.1859 241.727 53.9857 241.371 54.9883 241.371C55.9271 241.371 56.6699 241.681 57.2168 242.301C57.7637 242.916 58.0371 243.729 58.0371 244.741V245.459H52.876C52.8988 246.339 53.1198 247.006 53.5391 247.462C53.9629 247.918 54.5576 248.146 55.3232 248.146C56.1299 248.146 56.9274 247.977 57.7158 247.64V248.651C57.3148 248.825 56.9342 248.948 56.5742 249.021C56.2188 249.098 55.7881 249.137 55.2822 249.137ZM54.9746 242.321C54.373 242.321 53.8923 242.517 53.5322 242.909C53.1768 243.301 52.9671 243.843 52.9033 244.536H56.8203C56.8203 243.821 56.6608 243.274 56.3418 242.896C56.0228 242.513 55.5671 242.321 54.9746 242.321ZM61.1133 249H59.9785V238.363H61.1133V249ZM69.5762 248.2C69.7767 248.2 69.9704 248.187 70.1572 248.159C70.3441 248.127 70.4922 248.095 70.6016 248.063V248.932C70.4785 248.991 70.2962 249.039 70.0547 249.075C69.8177 249.116 69.6035 249.137 69.4121 249.137C67.9629 249.137 67.2383 248.373 67.2383 246.847V242.39H66.165V241.843L67.2383 241.371L67.7168 239.771H68.373V241.508H70.5469V242.39H68.373V246.799C68.373 247.25 68.4801 247.596 68.6943 247.838C68.9085 248.079 69.2025 248.2 69.5762 248.2ZM78.5723 245.247C78.5723 246.468 78.2646 247.423 77.6494 248.111C77.0342 248.795 76.1842 249.137 75.0996 249.137C74.4297 249.137 73.835 248.979 73.3154 248.665C72.7959 248.351 72.3949 247.899 72.1123 247.312C71.8298 246.724 71.6885 246.035 71.6885 245.247C71.6885 244.026 71.9938 243.076 72.6045 242.396C73.2152 241.713 74.0628 241.371 75.1475 241.371C76.1956 241.371 77.0273 241.72 77.6426 242.417C78.2624 243.114 78.5723 244.058 78.5723 245.247ZM72.8643 245.247C72.8643 246.204 73.0557 246.933 73.4385 247.435C73.8213 247.936 74.3841 248.187 75.127 248.187C75.8698 248.187 76.4326 247.938 76.8154 247.441C77.2028 246.94 77.3965 246.209 77.3965 245.247C77.3965 244.295 77.2028 243.572 76.8154 243.08C76.4326 242.583 75.8652 242.335 75.1133 242.335C74.3704 242.335 73.8099 242.579 73.4316 243.066C73.0534 243.554 72.8643 244.281 72.8643 245.247ZM83.9863 241.371C84.319 241.371 84.6175 241.398 84.8818 241.453L84.7246 242.506C84.4147 242.438 84.1413 242.403 83.9043 242.403C83.2982 242.403 82.7786 242.649 82.3457 243.142C81.9173 243.634 81.7031 244.247 81.7031 244.98V249H80.5684V241.508H81.5049L81.6348 242.896H81.6895C81.9674 242.408 82.3024 242.032 82.6943 241.768C83.0863 241.503 83.5169 241.371 83.9863 241.371ZM92.75 245.247C92.75 246.468 92.4424 247.423 91.8271 248.111C91.2119 248.795 90.362 249.137 89.2773 249.137C88.6074 249.137 88.0127 248.979 87.4932 248.665C86.9736 248.351 86.5726 247.899 86.29 247.312C86.0075 246.724 85.8662 246.035 85.8662 245.247C85.8662 244.026 86.1715 243.076 86.7822 242.396C87.3929 241.713 88.2406 241.371 89.3252 241.371C90.3734 241.371 91.2051 241.72 91.8203 242.417C92.4401 243.114 92.75 244.058 92.75 245.247ZM87.042 245.247C87.042 246.204 87.2334 246.933 87.6162 247.435C87.999 247.936 88.5618 248.187 89.3047 248.187C90.0475 248.187 90.6104 247.938 90.9932 247.441C91.3805 246.94 91.5742 246.209 91.5742 245.247C91.5742 244.295 91.3805 243.572 90.9932 243.08C90.6104 242.583 90.043 242.335 89.291 242.335C88.5482 242.335 87.9876 242.579 87.6094 243.066C87.2311 243.554 87.042 244.281 87.042 245.247Z" fill="#ADADAD"/>
<path d="M117.653 239.901C116.555 239.901 115.687 240.268 115.049 241.002C114.415 241.731 114.099 242.731 114.099 244.003C114.099 245.311 114.404 246.323 115.015 247.038C115.63 247.749 116.505 248.104 117.64 248.104C118.337 248.104 119.132 247.979 120.025 247.729V248.747C119.333 249.007 118.478 249.137 117.462 249.137C115.99 249.137 114.853 248.69 114.051 247.797C113.253 246.904 112.854 245.634 112.854 243.989C112.854 242.959 113.046 242.057 113.429 241.282C113.816 240.507 114.372 239.91 115.097 239.491C115.826 239.072 116.683 238.862 117.667 238.862C118.715 238.862 119.631 239.054 120.415 239.437L119.923 240.435C119.166 240.079 118.41 239.901 117.653 239.901ZM127.162 249V244.153C127.162 243.543 127.023 243.087 126.745 242.786C126.467 242.485 126.032 242.335 125.439 242.335C124.651 242.335 124.075 242.549 123.71 242.978C123.35 243.406 123.17 244.108 123.17 245.083V249H122.035V238.363H123.17V241.583C123.17 241.97 123.152 242.292 123.115 242.547H123.184C123.407 242.187 123.724 241.904 124.134 241.699C124.549 241.49 125.02 241.385 125.549 241.385C126.465 241.385 127.151 241.604 127.606 242.041C128.067 242.474 128.297 243.164 128.297 244.112V249H127.162ZM131.77 249H130.635V241.508H131.77V249ZM130.539 239.478C130.539 239.218 130.603 239.029 130.73 238.91C130.858 238.787 131.018 238.726 131.209 238.726C131.391 238.726 131.549 238.787 131.681 238.91C131.813 239.033 131.879 239.222 131.879 239.478C131.879 239.733 131.813 239.924 131.681 240.052C131.549 240.175 131.391 240.236 131.209 240.236C131.018 240.236 130.858 240.175 130.73 240.052C130.603 239.924 130.539 239.733 130.539 239.478ZM137.594 241.371C137.926 241.371 138.225 241.398 138.489 241.453L138.332 242.506C138.022 242.438 137.749 242.403 137.512 242.403C136.906 242.403 136.386 242.649 135.953 243.142C135.525 243.634 135.311 244.247 135.311 244.98V249H134.176V241.508H135.112L135.242 242.896H135.297C135.575 242.408 135.91 242.032 136.302 241.768C136.694 241.503 137.124 241.371 137.594 241.371ZM141.025 249H139.891V241.508H141.025V249ZM139.795 239.478C139.795 239.218 139.859 239.029 139.986 238.91C140.114 238.787 140.273 238.726 140.465 238.726C140.647 238.726 140.804 238.787 140.937 238.91C141.069 239.033 141.135 239.222 141.135 239.478C141.135 239.733 141.069 239.924 140.937 240.052C140.804 240.175 140.647 240.236 140.465 240.236C140.273 240.236 140.114 240.175 139.986 240.052C139.859 239.924 139.795 239.733 139.795 239.478ZM146.262 248.187C147.018 248.187 147.57 247.984 147.916 247.578C148.262 247.173 148.447 246.489 148.47 245.527V245.274C148.47 244.226 148.292 243.472 147.937 243.012C147.581 242.551 147.018 242.321 146.248 242.321C145.583 242.321 145.072 242.581 144.717 243.101C144.366 243.616 144.19 244.345 144.19 245.288C144.19 246.231 144.364 246.951 144.71 247.448C145.061 247.94 145.578 248.187 146.262 248.187ZM146.091 249.137C145.125 249.137 144.37 248.797 143.828 248.118C143.286 247.439 143.015 246.491 143.015 245.274C143.015 244.049 143.288 243.091 143.835 242.403C144.382 241.715 145.143 241.371 146.118 241.371C147.144 241.371 147.932 241.758 148.483 242.533H148.545L148.709 241.508H149.604V252.363H148.47V249.157C148.47 248.701 148.495 248.314 148.545 247.995H148.456C147.932 248.756 147.144 249.137 146.091 249.137ZM153.084 241.508V246.368C153.084 246.979 153.223 247.435 153.501 247.735C153.779 248.036 154.214 248.187 154.807 248.187C155.59 248.187 156.162 247.972 156.522 247.544C156.887 247.116 157.069 246.416 157.069 245.445V241.508H158.204V249H157.268L157.104 247.995H157.042C156.81 248.364 156.486 248.647 156.071 248.843C155.661 249.039 155.192 249.137 154.663 249.137C153.752 249.137 153.068 248.92 152.612 248.487C152.161 248.054 151.936 247.362 151.936 246.409V241.508H153.084ZM161.752 249H160.617V241.508H161.752V249ZM160.569 240.346C160.788 240.063 161.023 239.721 161.273 239.32C161.529 238.919 161.729 238.571 161.875 238.274H163.256V238.418C163.055 238.714 162.757 239.079 162.36 239.512C161.964 239.945 161.62 240.28 161.328 240.517H160.569V240.346Z" fill="#ADADAD"/>
<path d="M188.082 239.006H189.333L185.73 249H184.582L181 239.006H182.23L184.527 245.473C184.792 246.215 185.001 246.938 185.156 247.64C185.32 246.901 185.535 246.165 185.799 245.432L188.082 239.006ZM193.708 249.137C192.601 249.137 191.726 248.799 191.083 248.125C190.445 247.451 190.126 246.514 190.126 245.315C190.126 244.108 190.422 243.148 191.015 242.438C191.612 241.727 192.411 241.371 193.414 241.371C194.353 241.371 195.096 241.681 195.643 242.301C196.189 242.916 196.463 243.729 196.463 244.741V245.459H191.302C191.325 246.339 191.546 247.006 191.965 247.462C192.389 247.918 192.983 248.146 193.749 248.146C194.556 248.146 195.353 247.977 196.142 247.64V248.651C195.741 248.825 195.36 248.948 195 249.021C194.645 249.098 194.214 249.137 193.708 249.137ZM193.4 242.321C192.799 242.321 192.318 242.517 191.958 242.909C191.603 243.301 191.393 243.843 191.329 244.536H195.246C195.246 243.821 195.087 243.274 194.768 242.896C194.449 242.513 193.993 242.321 193.4 242.321ZM201.822 241.371C202.155 241.371 202.453 241.398 202.718 241.453L202.561 242.506C202.251 242.438 201.977 242.403 201.74 242.403C201.134 242.403 200.615 242.649 200.182 243.142C199.753 243.634 199.539 244.247 199.539 244.98V249H198.404V241.508H199.341L199.471 242.896H199.525C199.803 242.408 200.138 242.032 200.53 241.768C200.922 241.503 201.353 241.371 201.822 241.371ZM208.727 249L208.501 247.934H208.446C208.073 248.403 207.699 248.722 207.325 248.891C206.956 249.055 206.493 249.137 205.938 249.137C205.195 249.137 204.611 248.945 204.188 248.562C203.768 248.18 203.559 247.635 203.559 246.929C203.559 245.416 204.769 244.623 207.188 244.55L208.46 244.509V244.044C208.46 243.456 208.332 243.023 208.077 242.745C207.826 242.463 207.423 242.321 206.867 242.321C206.243 242.321 205.536 242.513 204.748 242.896L204.399 242.027C204.769 241.827 205.172 241.67 205.609 241.556C206.051 241.442 206.493 241.385 206.936 241.385C207.829 241.385 208.49 241.583 208.918 241.979C209.351 242.376 209.567 243.012 209.567 243.887V249H208.727ZM206.163 248.2C206.869 248.2 207.423 248.007 207.824 247.619C208.23 247.232 208.433 246.689 208.433 245.992V245.315L207.298 245.363C206.396 245.395 205.744 245.536 205.343 245.787C204.946 246.033 204.748 246.418 204.748 246.942C204.748 247.353 204.871 247.665 205.117 247.879C205.368 248.093 205.716 248.2 206.163 248.2ZM218.044 241.508V242.226L216.656 242.39C216.784 242.549 216.898 242.759 216.998 243.019C217.098 243.274 217.148 243.563 217.148 243.887C217.148 244.62 216.898 245.206 216.396 245.644C215.895 246.081 215.207 246.3 214.332 246.3C214.109 246.3 213.899 246.282 213.703 246.245C213.22 246.5 212.979 246.822 212.979 247.209C212.979 247.414 213.063 247.567 213.231 247.667C213.4 247.763 213.689 247.811 214.1 247.811H215.426C216.237 247.811 216.859 247.981 217.292 248.323C217.729 248.665 217.948 249.162 217.948 249.813C217.948 250.643 217.616 251.274 216.95 251.707C216.285 252.145 215.314 252.363 214.038 252.363C213.058 252.363 212.302 252.181 211.769 251.816C211.24 251.452 210.976 250.937 210.976 250.271C210.976 249.816 211.121 249.422 211.413 249.089C211.705 248.756 212.115 248.531 212.644 248.412C212.452 248.326 212.29 248.191 212.158 248.009C212.031 247.826 211.967 247.615 211.967 247.373C211.967 247.1 212.04 246.86 212.186 246.655C212.331 246.45 212.562 246.252 212.876 246.061C212.489 245.901 212.172 245.63 211.926 245.247C211.684 244.864 211.563 244.427 211.563 243.935C211.563 243.114 211.81 242.483 212.302 242.041C212.794 241.594 213.491 241.371 214.394 241.371C214.785 241.371 215.139 241.417 215.453 241.508H218.044ZM212.069 250.258C212.069 250.663 212.24 250.971 212.582 251.181C212.924 251.39 213.414 251.495 214.052 251.495C215.004 251.495 215.708 251.352 216.164 251.064C216.624 250.782 216.854 250.397 216.854 249.909C216.854 249.504 216.729 249.221 216.479 249.062C216.228 248.907 215.756 248.829 215.063 248.829H213.703C213.188 248.829 212.787 248.952 212.5 249.198C212.213 249.444 212.069 249.798 212.069 250.258ZM212.685 243.907C212.685 244.431 212.833 244.828 213.129 245.097C213.425 245.366 213.838 245.5 214.366 245.5C215.474 245.5 216.027 244.962 216.027 243.887C216.027 242.761 215.467 242.198 214.346 242.198C213.812 242.198 213.402 242.342 213.115 242.629C212.828 242.916 212.685 243.342 212.685 243.907ZM220.648 241.508V246.368C220.648 246.979 220.787 247.435 221.065 247.735C221.343 248.036 221.779 248.187 222.371 248.187C223.155 248.187 223.727 247.972 224.087 247.544C224.451 247.116 224.634 246.416 224.634 245.445V241.508H225.769V249H224.832L224.668 247.995H224.606C224.374 248.364 224.05 248.647 223.636 248.843C223.226 249.039 222.756 249.137 222.228 249.137C221.316 249.137 220.632 248.92 220.177 248.487C219.726 248.054 219.5 247.362 219.5 246.409V241.508H220.648ZM232.789 249L232.563 247.934H232.509C232.135 248.403 231.761 248.722 231.388 248.891C231.019 249.055 230.556 249.137 230 249.137C229.257 249.137 228.674 248.945 228.25 248.562C227.831 248.18 227.621 247.635 227.621 246.929C227.621 245.416 228.831 244.623 231.251 244.55L232.522 244.509V244.044C232.522 243.456 232.395 243.023 232.14 242.745C231.889 242.463 231.486 242.321 230.93 242.321C230.305 242.321 229.599 242.513 228.811 242.896L228.462 242.027C228.831 241.827 229.234 241.67 229.672 241.556C230.114 241.442 230.556 241.385 230.998 241.385C231.891 241.385 232.552 241.583 232.98 241.979C233.413 242.376 233.63 243.012 233.63 243.887V249H232.789ZM230.226 248.2C230.932 248.2 231.486 248.007 231.887 247.619C232.292 247.232 232.495 246.689 232.495 245.992V245.315L231.36 245.363C230.458 245.395 229.806 245.536 229.405 245.787C229.009 246.033 228.811 246.418 228.811 246.942C228.811 247.353 228.934 247.665 229.18 247.879C229.43 248.093 229.779 248.2 230.226 248.2ZM240.808 246.956C240.808 247.653 240.548 248.191 240.028 248.569C239.509 248.948 238.78 249.137 237.841 249.137C236.847 249.137 236.073 248.979 235.517 248.665V247.612C235.877 247.795 236.262 247.938 236.672 248.043C237.087 248.148 237.485 248.2 237.868 248.2C238.461 248.2 238.916 248.107 239.235 247.92C239.554 247.729 239.714 247.439 239.714 247.052C239.714 246.76 239.586 246.512 239.331 246.307C239.08 246.097 238.588 245.851 237.854 245.568C237.157 245.309 236.66 245.083 236.364 244.892C236.073 244.696 235.854 244.475 235.708 244.229C235.567 243.982 235.496 243.688 235.496 243.347C235.496 242.736 235.744 242.255 236.241 241.904C236.738 241.549 237.419 241.371 238.285 241.371C239.092 241.371 239.88 241.535 240.65 241.863L240.247 242.786C239.495 242.476 238.814 242.321 238.203 242.321C237.665 242.321 237.26 242.406 236.986 242.574C236.713 242.743 236.576 242.975 236.576 243.271C236.576 243.472 236.626 243.643 236.727 243.784C236.831 243.925 236.998 244.06 237.226 244.188C237.453 244.315 237.891 244.5 238.538 244.741C239.427 245.065 240.026 245.391 240.336 245.719C240.65 246.047 240.808 246.459 240.808 246.956Z" fill="#ADADAD"/>
<path d="M261.374 249V239.006H262.536V247.947H266.945V249H261.374ZM274.943 245.247C274.943 246.468 274.636 247.423 274.021 248.111C273.405 248.795 272.555 249.137 271.471 249.137C270.801 249.137 270.206 248.979 269.687 248.665C269.167 248.351 268.766 247.899 268.483 247.312C268.201 246.724 268.06 246.035 268.06 245.247C268.06 244.026 268.365 243.076 268.976 242.396C269.586 241.713 270.434 241.371 271.519 241.371C272.567 241.371 273.398 241.72 274.014 242.417C274.633 243.114 274.943 244.058 274.943 245.247ZM269.235 245.247C269.235 246.204 269.427 246.933 269.81 247.435C270.192 247.936 270.755 248.187 271.498 248.187C272.241 248.187 272.804 247.938 273.187 247.441C273.574 246.94 273.768 246.209 273.768 245.247C273.768 244.295 273.574 243.572 273.187 243.08C272.804 242.583 272.236 242.335 271.484 242.335C270.742 242.335 270.181 242.579 269.803 243.066C269.424 243.554 269.235 244.281 269.235 245.247ZM281.772 246.956C281.772 247.653 281.513 248.191 280.993 248.569C280.474 248.948 279.744 249.137 278.806 249.137C277.812 249.137 277.037 248.979 276.481 248.665V247.612C276.841 247.795 277.227 247.938 277.637 248.043C278.051 248.148 278.45 248.2 278.833 248.2C279.425 248.2 279.881 248.107 280.2 247.92C280.519 247.729 280.679 247.439 280.679 247.052C280.679 246.76 280.551 246.512 280.296 246.307C280.045 246.097 279.553 245.851 278.819 245.568C278.122 245.309 277.625 245.083 277.329 244.892C277.037 244.696 276.819 244.475 276.673 244.229C276.532 243.982 276.461 243.688 276.461 243.347C276.461 242.736 276.709 242.255 277.206 241.904C277.703 241.549 278.384 241.371 279.25 241.371C280.057 241.371 280.845 241.535 281.615 241.863L281.212 242.786C280.46 242.476 279.779 242.321 279.168 242.321C278.63 242.321 278.225 242.406 277.951 242.574C277.678 242.743 277.541 242.975 277.541 243.271C277.541 243.472 277.591 243.643 277.691 243.784C277.796 243.925 277.963 244.06 278.19 244.188C278.418 244.315 278.856 244.5 279.503 244.741C280.392 245.065 280.991 245.391 281.301 245.719C281.615 246.047 281.772 246.459 281.772 246.956ZM293.072 246.341C293.072 247.22 292.753 247.906 292.115 248.398C291.477 248.891 290.611 249.137 289.518 249.137C288.333 249.137 287.421 248.984 286.783 248.679V247.558C287.193 247.731 287.64 247.868 288.123 247.968C288.606 248.068 289.085 248.118 289.559 248.118C290.333 248.118 290.917 247.972 291.309 247.681C291.701 247.384 291.896 246.974 291.896 246.45C291.896 246.104 291.826 245.821 291.685 245.603C291.548 245.379 291.315 245.174 290.987 244.987C290.664 244.8 290.169 244.589 289.504 244.352C288.574 244.019 287.909 243.625 287.508 243.169C287.111 242.713 286.913 242.118 286.913 241.385C286.913 240.615 287.202 240.002 287.781 239.546C288.36 239.09 289.126 238.862 290.078 238.862C291.072 238.862 291.985 239.045 292.819 239.409L292.457 240.421C291.632 240.075 290.83 239.901 290.051 239.901C289.436 239.901 288.955 240.034 288.608 240.298C288.262 240.562 288.089 240.929 288.089 241.398C288.089 241.745 288.153 242.03 288.28 242.253C288.408 242.472 288.622 242.674 288.923 242.861C289.228 243.044 289.693 243.246 290.317 243.47C291.366 243.843 292.086 244.244 292.478 244.673C292.874 245.101 293.072 245.657 293.072 246.341ZM299.553 249L299.327 247.934H299.272C298.899 248.403 298.525 248.722 298.151 248.891C297.782 249.055 297.32 249.137 296.764 249.137C296.021 249.137 295.438 248.945 295.014 248.562C294.594 248.18 294.385 247.635 294.385 246.929C294.385 245.416 295.595 244.623 298.015 244.55L299.286 244.509V244.044C299.286 243.456 299.159 243.023 298.903 242.745C298.653 242.463 298.249 242.321 297.693 242.321C297.069 242.321 296.363 242.513 295.574 242.896L295.226 242.027C295.595 241.827 295.998 241.67 296.436 241.556C296.878 241.442 297.32 241.385 297.762 241.385C298.655 241.385 299.316 241.583 299.744 241.979C300.177 242.376 300.394 243.012 300.394 243.887V249H299.553ZM296.989 248.2C297.696 248.2 298.249 248.007 298.65 247.619C299.056 247.232 299.259 246.689 299.259 245.992V245.315L298.124 245.363C297.222 245.395 296.57 245.536 296.169 245.787C295.772 246.033 295.574 246.418 295.574 246.942C295.574 247.353 295.697 247.665 295.943 247.879C296.194 248.093 296.543 248.2 296.989 248.2ZM307.865 249V244.153C307.865 243.543 307.726 243.087 307.448 242.786C307.17 242.485 306.735 242.335 306.143 242.335C305.359 242.335 304.785 242.547 304.42 242.971C304.055 243.395 303.873 244.094 303.873 245.069V249H302.738V241.508H303.661L303.846 242.533H303.9C304.133 242.164 304.459 241.879 304.878 241.679C305.297 241.474 305.764 241.371 306.279 241.371C307.182 241.371 307.861 241.59 308.316 242.027C308.772 242.46 309 243.155 309 244.112V249H307.865ZM313.758 248.2C313.958 248.2 314.152 248.187 314.339 248.159C314.526 248.127 314.674 248.095 314.783 248.063V248.932C314.66 248.991 314.478 249.039 314.236 249.075C313.999 249.116 313.785 249.137 313.594 249.137C312.145 249.137 311.42 248.373 311.42 246.847V242.39H310.347V241.843L311.42 241.371L311.898 239.771H312.555V241.508H314.729V242.39H312.555V246.799C312.555 247.25 312.662 247.596 312.876 247.838C313.09 248.079 313.384 248.2 313.758 248.2ZM322.754 245.247C322.754 246.468 322.446 247.423 321.831 248.111C321.216 248.795 320.366 249.137 319.281 249.137C318.611 249.137 318.017 248.979 317.497 248.665C316.978 248.351 316.576 247.899 316.294 247.312C316.011 246.724 315.87 246.035 315.87 245.247C315.87 244.026 316.175 243.076 316.786 242.396C317.397 241.713 318.244 241.371 319.329 241.371C320.377 241.371 321.209 241.72 321.824 242.417C322.444 243.114 322.754 244.058 322.754 245.247ZM317.046 245.247C317.046 246.204 317.237 246.933 317.62 247.435C318.003 247.936 318.566 248.187 319.309 248.187C320.051 248.187 320.614 247.938 320.997 247.441C321.384 246.94 321.578 246.209 321.578 245.247C321.578 244.295 321.384 243.572 320.997 243.08C320.614 242.583 320.047 242.335 319.295 242.335C318.552 242.335 317.992 242.579 317.613 243.066C317.235 243.554 317.046 244.281 317.046 245.247ZM329.583 246.956C329.583 247.653 329.323 248.191 328.804 248.569C328.284 248.948 327.555 249.137 326.616 249.137C325.623 249.137 324.848 248.979 324.292 248.665V247.612C324.652 247.795 325.037 247.938 325.447 248.043C325.862 248.148 326.261 248.2 326.644 248.2C327.236 248.2 327.692 248.107 328.011 247.92C328.33 247.729 328.489 247.439 328.489 247.052C328.489 246.76 328.362 246.512 328.106 246.307C327.856 246.097 327.364 245.851 326.63 245.568C325.933 245.309 325.436 245.083 325.14 244.892C324.848 244.696 324.629 244.475 324.483 244.229C324.342 243.982 324.271 243.688 324.271 243.347C324.271 242.736 324.52 242.255 325.017 241.904C325.513 241.549 326.195 241.371 327.061 241.371C327.867 241.371 328.656 241.535 329.426 241.863L329.022 242.786C328.271 242.476 327.589 242.321 326.979 242.321C326.441 242.321 326.035 242.406 325.762 242.574C325.488 242.743 325.352 242.975 325.352 243.271C325.352 243.472 325.402 243.643 325.502 243.784C325.607 243.925 325.773 244.06 326.001 244.188C326.229 244.315 326.666 244.5 327.313 244.741C328.202 245.065 328.801 245.391 329.111 245.719C329.426 246.047 329.583 246.459 329.583 246.956Z" fill="#ADADAD"/>
<path d="M354.653 239.901C353.555 239.901 352.687 240.268 352.049 241.002C351.415 241.731 351.099 242.731 351.099 244.003C351.099 245.311 351.404 246.323 352.015 247.038C352.63 247.749 353.505 248.104 354.64 248.104C355.337 248.104 356.132 247.979 357.025 247.729V248.747C356.333 249.007 355.478 249.137 354.462 249.137C352.99 249.137 351.853 248.69 351.051 247.797C350.253 246.904 349.854 245.634 349.854 243.989C349.854 242.959 350.046 242.057 350.429 241.282C350.816 240.507 351.372 239.91 352.097 239.491C352.826 239.072 353.683 238.862 354.667 238.862C355.715 238.862 356.631 239.054 357.415 239.437L356.923 240.435C356.166 240.079 355.41 239.901 354.653 239.901ZM365.502 245.247C365.502 246.468 365.194 247.423 364.579 248.111C363.964 248.795 363.114 249.137 362.029 249.137C361.359 249.137 360.765 248.979 360.245 248.665C359.726 248.351 359.325 247.899 359.042 247.312C358.759 246.724 358.618 246.035 358.618 245.247C358.618 244.026 358.924 243.076 359.534 242.396C360.145 241.713 360.993 241.371 362.077 241.371C363.125 241.371 363.957 241.72 364.572 242.417C365.192 243.114 365.502 244.058 365.502 245.247ZM359.794 245.247C359.794 246.204 359.985 246.933 360.368 247.435C360.751 247.936 361.314 248.187 362.057 248.187C362.799 248.187 363.362 247.938 363.745 247.441C364.132 246.94 364.326 246.209 364.326 245.247C364.326 244.295 364.132 243.572 363.745 243.08C363.362 242.583 362.795 242.335 362.043 242.335C361.3 242.335 360.74 242.579 360.361 243.066C359.983 243.554 359.794 244.281 359.794 245.247ZM370.492 249.137C369.408 249.137 368.567 248.804 367.97 248.139C367.377 247.469 367.081 246.523 367.081 245.302C367.081 244.049 367.382 243.08 367.983 242.396C368.59 241.713 369.451 241.371 370.567 241.371C370.927 241.371 371.287 241.41 371.647 241.487C372.007 241.565 372.29 241.656 372.495 241.761L372.146 242.725C371.896 242.624 371.622 242.542 371.326 242.479C371.03 242.41 370.768 242.376 370.54 242.376C369.018 242.376 368.257 243.347 368.257 245.288C368.257 246.209 368.441 246.915 368.811 247.407C369.184 247.899 369.736 248.146 370.465 248.146C371.089 248.146 371.729 248.011 372.386 247.742V248.747C371.884 249.007 371.253 249.137 370.492 249.137ZM375.305 249H374.17V238.363H375.305V249ZM380.876 249.137C379.769 249.137 378.894 248.799 378.251 248.125C377.613 247.451 377.294 246.514 377.294 245.315C377.294 244.108 377.59 243.148 378.183 242.438C378.78 241.727 379.579 241.371 380.582 241.371C381.521 241.371 382.264 241.681 382.811 242.301C383.357 242.916 383.631 243.729 383.631 244.741V245.459H378.47C378.493 246.339 378.714 247.006 379.133 247.462C379.557 247.918 380.151 248.146 380.917 248.146C381.724 248.146 382.521 247.977 383.31 247.64V248.651C382.909 248.825 382.528 248.948 382.168 249.021C381.812 249.098 381.382 249.137 380.876 249.137ZM380.568 242.321C379.967 242.321 379.486 242.517 379.126 242.909C378.771 243.301 378.561 243.843 378.497 244.536H382.414C382.414 243.821 382.255 243.274 381.936 242.896C381.617 242.513 381.161 242.321 380.568 242.321ZM379.728 240.346C379.946 240.063 380.181 239.721 380.432 239.32C380.687 238.919 380.887 238.571 381.033 238.274H382.414V238.418C382.214 238.714 381.915 239.079 381.519 239.512C381.122 239.945 380.778 240.28 380.486 240.517H379.728V240.346Z" fill="#ADADAD"/>
<path d="M411.962 249H410.8V244.297H405.536V249H404.374V239.006H405.536V243.258H410.8V239.006H411.962V249ZM417.704 249.137C416.597 249.137 415.722 248.799 415.079 248.125C414.441 247.451 414.122 246.514 414.122 245.315C414.122 244.108 414.418 243.148 415.011 242.438C415.608 241.727 416.408 241.371 417.41 241.371C418.349 241.371 419.092 241.681 419.639 242.301C420.186 242.916 420.459 243.729 420.459 244.741V245.459H415.298C415.321 246.339 415.542 247.006 415.961 247.462C416.385 247.918 416.979 248.146 417.745 248.146C418.552 248.146 419.349 247.977 420.138 247.64V248.651C419.737 248.825 419.356 248.948 418.996 249.021C418.641 249.098 418.21 249.137 417.704 249.137ZM417.396 242.321C416.795 242.321 416.314 242.517 415.954 242.909C415.599 243.301 415.389 243.843 415.325 244.536H419.242C419.242 243.821 419.083 243.274 418.764 242.896C418.445 242.513 417.989 242.321 417.396 242.321ZM425.818 241.371C426.151 241.371 426.45 241.398 426.714 241.453L426.557 242.506C426.247 242.438 425.973 242.403 425.736 242.403C425.13 242.403 424.611 242.649 424.178 243.142C423.749 243.634 423.535 244.247 423.535 244.98V249H422.4V241.508H423.337L423.467 242.896H423.521C423.799 242.408 424.134 242.032 424.526 241.768C424.918 241.503 425.349 241.371 425.818 241.371ZM431.533 241.371C431.866 241.371 432.164 241.398 432.429 241.453L432.271 242.506C431.962 242.438 431.688 242.403 431.451 242.403C430.845 242.403 430.326 242.649 429.893 243.142C429.464 243.634 429.25 244.247 429.25 244.98V249H428.115V241.508H429.052L429.182 242.896H429.236C429.514 242.408 429.849 242.032 430.241 241.768C430.633 241.503 431.064 241.371 431.533 241.371ZM436.995 249.137C435.888 249.137 435.013 248.799 434.37 248.125C433.732 247.451 433.413 246.514 433.413 245.315C433.413 244.108 433.709 243.148 434.302 242.438C434.899 241.727 435.699 241.371 436.701 241.371C437.64 241.371 438.383 241.681 438.93 242.301C439.477 242.916 439.75 243.729 439.75 244.741V245.459H434.589C434.612 246.339 434.833 247.006 435.252 247.462C435.676 247.918 436.271 248.146 437.036 248.146C437.843 248.146 438.64 247.977 439.429 247.64V248.651C439.028 248.825 438.647 248.948 438.287 249.021C437.932 249.098 437.501 249.137 436.995 249.137ZM436.688 242.321C436.086 242.321 435.605 242.517 435.245 242.909C434.89 243.301 434.68 243.843 434.616 244.536H438.533C438.533 243.821 438.374 243.274 438.055 242.896C437.736 242.513 437.28 242.321 436.688 242.321ZM445.109 241.371C445.442 241.371 445.741 241.398 446.005 241.453L445.848 242.506C445.538 242.438 445.264 242.403 445.027 242.403C444.421 242.403 443.902 242.649 443.469 243.142C443.04 243.634 442.826 244.247 442.826 244.98V249H441.691V241.508H442.628L442.758 242.896H442.812C443.09 242.408 443.425 242.032 443.817 241.768C444.209 241.503 444.64 241.371 445.109 241.371ZM452.014 249L451.788 247.934H451.733C451.36 248.403 450.986 248.722 450.612 248.891C450.243 249.055 449.781 249.137 449.225 249.137C448.482 249.137 447.898 248.945 447.475 248.562C447.055 248.18 446.846 247.635 446.846 246.929C446.846 245.416 448.056 244.623 450.476 244.55L451.747 244.509V244.044C451.747 243.456 451.619 243.023 451.364 242.745C451.114 242.463 450.71 242.321 450.154 242.321C449.53 242.321 448.824 242.513 448.035 242.896L447.687 242.027C448.056 241.827 448.459 241.67 448.896 241.556C449.339 241.442 449.781 241.385 450.223 241.385C451.116 241.385 451.777 241.583 452.205 241.979C452.638 242.376 452.854 243.012 452.854 243.887V249H452.014ZM449.45 248.2C450.157 248.2 450.71 248.007 451.111 247.619C451.517 247.232 451.72 246.689 451.72 245.992V245.315L450.585 245.363C449.683 245.395 449.031 245.536 448.63 245.787C448.233 246.033 448.035 246.418 448.035 246.942C448.035 247.353 448.158 247.665 448.404 247.879C448.655 248.093 449.004 248.2 449.45 248.2Z" fill="#ADADAD"/>
<path d="M479.711 241.918C479.711 242.93 479.365 243.709 478.672 244.256C477.984 244.798 476.997 245.069 475.712 245.069H474.536V249H473.374V239.006H475.965C478.462 239.006 479.711 239.977 479.711 241.918ZM474.536 244.071H475.582C476.612 244.071 477.357 243.905 477.817 243.572C478.278 243.24 478.508 242.706 478.508 241.973C478.508 241.312 478.291 240.82 477.858 240.496C477.425 240.173 476.751 240.011 475.835 240.011H474.536V244.071ZM486.246 249L486.021 247.934H485.966C485.592 248.403 485.218 248.722 484.845 248.891C484.476 249.055 484.013 249.137 483.457 249.137C482.714 249.137 482.131 248.945 481.707 248.562C481.288 248.18 481.078 247.635 481.078 246.929C481.078 245.416 482.288 244.623 484.708 244.55L485.979 244.509V244.044C485.979 243.456 485.852 243.023 485.597 242.745C485.346 242.463 484.943 242.321 484.387 242.321C483.762 242.321 483.056 242.513 482.268 242.896L481.919 242.027C482.288 241.827 482.691 241.67 483.129 241.556C483.571 241.442 484.013 241.385 484.455 241.385C485.348 241.385 486.009 241.583 486.438 241.979C486.87 242.376 487.087 243.012 487.087 243.887V249H486.246ZM483.683 248.2C484.389 248.2 484.943 248.007 485.344 247.619C485.749 247.232 485.952 246.689 485.952 245.992V245.315L484.817 245.363C483.915 245.395 483.263 245.536 482.862 245.787C482.466 246.033 482.268 246.418 482.268 246.942C482.268 247.353 482.391 247.665 482.637 247.879C482.887 248.093 483.236 248.2 483.683 248.2ZM494.559 249V244.153C494.559 243.543 494.42 243.087 494.142 242.786C493.864 242.485 493.428 242.335 492.836 242.335C492.052 242.335 491.478 242.547 491.113 242.971C490.749 243.395 490.566 244.094 490.566 245.069V249H489.432V241.508H490.354L490.539 242.533H490.594C490.826 242.164 491.152 241.879 491.571 241.679C491.991 241.474 492.458 241.371 492.973 241.371C493.875 241.371 494.554 241.59 495.01 242.027C495.465 242.46 495.693 243.155 495.693 244.112V249H494.559ZM502.639 249L502.413 247.934H502.358C501.985 248.403 501.611 248.722 501.237 248.891C500.868 249.055 500.406 249.137 499.85 249.137C499.107 249.137 498.523 248.945 498.1 248.562C497.68 248.18 497.471 247.635 497.471 246.929C497.471 245.416 498.681 244.623 501.101 244.55L502.372 244.509V244.044C502.372 243.456 502.244 243.023 501.989 242.745C501.739 242.463 501.335 242.321 500.779 242.321C500.155 242.321 499.449 242.513 498.66 242.896L498.312 242.027C498.681 241.827 499.084 241.67 499.521 241.556C499.964 241.442 500.406 241.385 500.848 241.385C501.741 241.385 502.402 241.583 502.83 241.979C503.263 242.376 503.479 243.012 503.479 243.887V249H502.639ZM500.075 248.2C500.782 248.2 501.335 248.007 501.736 247.619C502.142 247.232 502.345 246.689 502.345 245.992V245.315L501.21 245.363C500.308 245.395 499.656 245.536 499.255 245.787C498.858 246.033 498.66 246.418 498.66 246.942C498.66 247.353 498.783 247.665 499.029 247.879C499.28 248.093 499.629 248.2 500.075 248.2ZM515.374 249V244.126C515.374 243.529 515.246 243.082 514.991 242.786C514.736 242.485 514.34 242.335 513.802 242.335C513.095 242.335 512.574 242.538 512.236 242.943C511.899 243.349 511.73 243.973 511.73 244.816V249H510.596V244.126C510.596 243.529 510.468 243.082 510.213 242.786C509.958 242.485 509.559 242.335 509.017 242.335C508.306 242.335 507.784 242.549 507.451 242.978C507.123 243.401 506.959 244.099 506.959 245.069V249H505.824V241.508H506.747L506.932 242.533H506.986C507.201 242.169 507.501 241.884 507.889 241.679C508.281 241.474 508.718 241.371 509.201 241.371C510.372 241.371 511.138 241.795 511.498 242.643H511.553C511.776 242.251 512.1 241.941 512.523 241.713C512.947 241.485 513.43 241.371 513.973 241.371C514.82 241.371 515.454 241.59 515.873 242.027C516.297 242.46 516.509 243.155 516.509 244.112V249H515.374ZM523.461 249L523.235 247.934H523.181C522.807 248.403 522.433 248.722 522.06 248.891C521.69 249.055 521.228 249.137 520.672 249.137C519.929 249.137 519.346 248.945 518.922 248.562C518.503 248.18 518.293 247.635 518.293 246.929C518.293 245.416 519.503 244.623 521.923 244.55L523.194 244.509V244.044C523.194 243.456 523.067 243.023 522.812 242.745C522.561 242.463 522.158 242.321 521.602 242.321C520.977 242.321 520.271 242.513 519.482 242.896L519.134 242.027C519.503 241.827 519.906 241.67 520.344 241.556C520.786 241.442 521.228 241.385 521.67 241.385C522.563 241.385 523.224 241.583 523.652 241.979C524.085 242.376 524.302 243.012 524.302 243.887V249H523.461ZM520.897 248.2C521.604 248.2 522.158 248.007 522.559 247.619C522.964 247.232 523.167 246.689 523.167 245.992V245.315L522.032 245.363C521.13 245.395 520.478 245.536 520.077 245.787C519.681 246.033 519.482 246.418 519.482 246.942C519.482 247.353 519.605 247.665 519.852 247.879C520.102 248.093 520.451 248.2 520.897 248.2ZM520.631 240.346C520.85 240.063 521.084 239.721 521.335 239.32C521.59 238.919 521.791 238.571 521.937 238.274H523.317V238.418C523.117 238.714 522.818 239.079 522.422 239.512C522.025 239.945 521.681 240.28 521.39 240.517H520.631V240.346ZM539.129 243.989C539.129 245.589 538.723 246.847 537.912 247.763C537.105 248.679 535.982 249.137 534.542 249.137C533.07 249.137 531.933 248.688 531.131 247.79C530.333 246.888 529.935 245.616 529.935 243.976C529.935 242.349 530.336 241.089 531.138 240.195C531.94 239.298 533.079 238.849 534.556 238.849C535.991 238.849 537.112 239.304 537.919 240.216C538.726 241.127 539.129 242.385 539.129 243.989ZM531.165 243.989C531.165 245.343 531.452 246.37 532.026 247.072C532.605 247.77 533.444 248.118 534.542 248.118C535.649 248.118 536.486 247.77 537.051 247.072C537.616 246.375 537.898 245.347 537.898 243.989C537.898 242.645 537.616 241.626 537.051 240.934C536.49 240.236 535.659 239.888 534.556 239.888C533.448 239.888 532.605 240.239 532.026 240.94C531.452 241.638 531.165 242.654 531.165 243.989ZM544.358 249.137C543.251 249.137 542.376 248.799 541.733 248.125C541.095 247.451 540.776 246.514 540.776 245.315C540.776 244.108 541.073 243.148 541.665 242.438C542.262 241.727 543.062 241.371 544.064 241.371C545.003 241.371 545.746 241.681 546.293 242.301C546.84 242.916 547.113 243.729 547.113 244.741V245.459H541.952C541.975 246.339 542.196 247.006 542.615 247.462C543.039 247.918 543.634 248.146 544.399 248.146C545.206 248.146 546.004 247.977 546.792 247.64V248.651C546.391 248.825 546.01 248.948 545.65 249.021C545.295 249.098 544.864 249.137 544.358 249.137ZM544.051 242.321C543.449 242.321 542.968 242.517 542.608 242.909C542.253 243.301 542.043 243.843 541.979 244.536H545.896C545.896 243.821 545.737 243.274 545.418 242.896C545.099 242.513 544.643 242.321 544.051 242.321ZM553.888 246.956C553.888 247.653 553.628 248.191 553.108 248.569C552.589 248.948 551.86 249.137 550.921 249.137C549.927 249.137 549.153 248.979 548.597 248.665V247.612C548.957 247.795 549.342 247.938 549.752 248.043C550.167 248.148 550.565 248.2 550.948 248.2C551.541 248.2 551.996 248.107 552.315 247.92C552.634 247.729 552.794 247.439 552.794 247.052C552.794 246.76 552.666 246.512 552.411 246.307C552.16 246.097 551.668 245.851 550.935 245.568C550.237 245.309 549.741 245.083 549.444 244.892C549.153 244.696 548.934 244.475 548.788 244.229C548.647 243.982 548.576 243.688 548.576 243.347C548.576 242.736 548.825 242.255 549.321 241.904C549.818 241.549 550.499 241.371 551.365 241.371C552.172 241.371 552.96 241.535 553.73 241.863L553.327 242.786C552.575 242.476 551.894 242.321 551.283 242.321C550.745 242.321 550.34 242.406 550.066 242.574C549.793 242.743 549.656 242.975 549.656 243.271C549.656 243.472 549.706 243.643 549.807 243.784C549.911 243.925 550.078 244.06 550.306 244.188C550.534 244.315 550.971 244.5 551.618 244.741C552.507 245.065 553.106 245.391 553.416 245.719C553.73 246.047 553.888 246.459 553.888 246.956ZM558.16 248.2C558.361 248.2 558.554 248.187 558.741 248.159C558.928 248.127 559.076 248.095 559.186 248.063V248.932C559.062 248.991 558.88 249.039 558.639 249.075C558.402 249.116 558.188 249.137 557.996 249.137C556.547 249.137 555.822 248.373 555.822 246.847V242.39H554.749V241.843L555.822 241.371L556.301 239.771H556.957V241.508H559.131V242.39H556.957V246.799C556.957 247.25 557.064 247.596 557.278 247.838C557.493 248.079 557.786 248.2 558.16 248.2ZM563.854 249.137C562.747 249.137 561.872 248.799 561.229 248.125C560.591 247.451 560.272 246.514 560.272 245.315C560.272 244.108 560.569 243.148 561.161 242.438C561.758 241.727 562.558 241.371 563.561 241.371C564.499 241.371 565.242 241.681 565.789 242.301C566.336 242.916 566.609 243.729 566.609 244.741V245.459H561.448C561.471 246.339 561.692 247.006 562.111 247.462C562.535 247.918 563.13 248.146 563.896 248.146C564.702 248.146 565.5 247.977 566.288 247.64V248.651C565.887 248.825 565.507 248.948 565.146 249.021C564.791 249.098 564.36 249.137 563.854 249.137ZM563.547 242.321C562.945 242.321 562.465 242.517 562.104 242.909C561.749 243.301 561.539 243.843 561.476 244.536H565.393C565.393 243.821 565.233 243.274 564.914 242.896C564.595 242.513 564.139 242.321 563.547 242.321Z" fill="#ADADAD"/>
<path d="M593.711 241.918C593.711 242.93 593.365 243.709 592.672 244.256C591.984 244.798 590.997 245.069 589.712 245.069H588.536V249H587.374V239.006H589.965C592.462 239.006 593.711 239.977 593.711 241.918ZM588.536 244.071H589.582C590.612 244.071 591.357 243.905 591.817 243.572C592.278 243.24 592.508 242.706 592.508 241.973C592.508 241.312 592.291 240.82 591.858 240.496C591.425 240.173 590.751 240.011 589.835 240.011H588.536V244.071ZM600.246 249L600.021 247.934H599.966C599.592 248.403 599.218 248.722 598.845 248.891C598.476 249.055 598.013 249.137 597.457 249.137C596.714 249.137 596.131 248.945 595.707 248.562C595.288 248.18 595.078 247.635 595.078 246.929C595.078 245.416 596.288 244.623 598.708 244.55L599.979 244.509V244.044C599.979 243.456 599.852 243.023 599.597 242.745C599.346 242.463 598.943 242.321 598.387 242.321C597.762 242.321 597.056 242.513 596.268 242.896L595.919 242.027C596.288 241.827 596.691 241.67 597.129 241.556C597.571 241.442 598.013 241.385 598.455 241.385C599.348 241.385 600.009 241.583 600.438 241.979C600.87 242.376 601.087 243.012 601.087 243.887V249H600.246ZM597.683 248.2C598.389 248.2 598.943 248.007 599.344 247.619C599.749 247.232 599.952 246.689 599.952 245.992V245.315L598.817 245.363C597.915 245.395 597.263 245.536 596.862 245.787C596.466 246.033 596.268 246.418 596.268 246.942C596.268 247.353 596.391 247.665 596.637 247.879C596.887 248.093 597.236 248.2 597.683 248.2ZM608.559 249V244.153C608.559 243.543 608.42 243.087 608.142 242.786C607.864 242.485 607.428 242.335 606.836 242.335C606.052 242.335 605.478 242.547 605.113 242.971C604.749 243.395 604.566 244.094 604.566 245.069V249H603.432V241.508H604.354L604.539 242.533H604.594C604.826 242.164 605.152 241.879 605.571 241.679C605.991 241.474 606.458 241.371 606.973 241.371C607.875 241.371 608.554 241.59 609.01 242.027C609.465 242.46 609.693 243.155 609.693 244.112V249H608.559ZM616.639 249L616.413 247.934H616.358C615.985 248.403 615.611 248.722 615.237 248.891C614.868 249.055 614.406 249.137 613.85 249.137C613.107 249.137 612.523 248.945 612.1 248.562C611.68 248.18 611.471 247.635 611.471 246.929C611.471 245.416 612.681 244.623 615.101 244.55L616.372 244.509V244.044C616.372 243.456 616.244 243.023 615.989 242.745C615.739 242.463 615.335 242.321 614.779 242.321C614.155 242.321 613.449 242.513 612.66 242.896L612.312 242.027C612.681 241.827 613.084 241.67 613.521 241.556C613.964 241.442 614.406 241.385 614.848 241.385C615.741 241.385 616.402 241.583 616.83 241.979C617.263 242.376 617.479 243.012 617.479 243.887V249H616.639ZM614.075 248.2C614.782 248.2 615.335 248.007 615.736 247.619C616.142 247.232 616.345 246.689 616.345 245.992V245.315L615.21 245.363C614.308 245.395 613.656 245.536 613.255 245.787C612.858 246.033 612.66 246.418 612.66 246.942C612.66 247.353 612.783 247.665 613.029 247.879C613.28 248.093 613.629 248.2 614.075 248.2ZM629.374 249V244.126C629.374 243.529 629.246 243.082 628.991 242.786C628.736 242.485 628.34 242.335 627.802 242.335C627.095 242.335 626.574 242.538 626.236 242.943C625.899 243.349 625.73 243.973 625.73 244.816V249H624.596V244.126C624.596 243.529 624.468 243.082 624.213 242.786C623.958 242.485 623.559 242.335 623.017 242.335C622.306 242.335 621.784 242.549 621.451 242.978C621.123 243.401 620.959 244.099 620.959 245.069V249H619.824V241.508H620.747L620.932 242.533H620.986C621.201 242.169 621.501 241.884 621.889 241.679C622.281 241.474 622.718 241.371 623.201 241.371C624.372 241.371 625.138 241.795 625.498 242.643H625.553C625.776 242.251 626.1 241.941 626.523 241.713C626.947 241.485 627.43 241.371 627.973 241.371C628.82 241.371 629.454 241.59 629.873 242.027C630.297 242.46 630.509 243.155 630.509 244.112V249H629.374ZM637.461 249L637.235 247.934H637.181C636.807 248.403 636.433 248.722 636.06 248.891C635.69 249.055 635.228 249.137 634.672 249.137C633.929 249.137 633.346 248.945 632.922 248.562C632.503 248.18 632.293 247.635 632.293 246.929C632.293 245.416 633.503 244.623 635.923 244.55L637.194 244.509V244.044C637.194 243.456 637.067 243.023 636.812 242.745C636.561 242.463 636.158 242.321 635.602 242.321C634.977 242.321 634.271 242.513 633.482 242.896L633.134 242.027C633.503 241.827 633.906 241.67 634.344 241.556C634.786 241.442 635.228 241.385 635.67 241.385C636.563 241.385 637.224 241.583 637.652 241.979C638.085 242.376 638.302 243.012 638.302 243.887V249H637.461ZM634.897 248.2C635.604 248.2 636.158 248.007 636.559 247.619C636.964 247.232 637.167 246.689 637.167 245.992V245.315L636.032 245.363C635.13 245.395 634.478 245.536 634.077 245.787C633.681 246.033 633.482 246.418 633.482 246.942C633.482 247.353 633.605 247.665 633.852 247.879C634.102 248.093 634.451 248.2 634.897 248.2ZM634.631 240.346C634.85 240.063 635.084 239.721 635.335 239.32C635.59 238.919 635.791 238.571 635.937 238.274H637.317V238.418C637.117 238.714 636.818 239.079 636.422 239.512C636.025 239.945 635.681 240.28 635.39 240.517H634.631V240.346Z" fill="#ADADAD"/>
<path d="M663.653 239.901C662.555 239.901 661.687 240.268 661.049 241.002C660.415 241.731 660.099 242.731 660.099 244.003C660.099 245.311 660.404 246.323 661.015 247.038C661.63 247.749 662.505 248.104 663.64 248.104C664.337 248.104 665.132 247.979 666.025 247.729V248.747C665.333 249.007 664.478 249.137 663.462 249.137C661.99 249.137 660.853 248.69 660.051 247.797C659.253 246.904 658.854 245.634 658.854 243.989C658.854 242.959 659.046 242.057 659.429 241.282C659.816 240.507 660.372 239.91 661.097 239.491C661.826 239.072 662.683 238.862 663.667 238.862C664.715 238.862 665.631 239.054 666.415 239.437L665.923 240.435C665.166 240.079 664.41 239.901 663.653 239.901ZM674.502 245.247C674.502 246.468 674.194 247.423 673.579 248.111C672.964 248.795 672.114 249.137 671.029 249.137C670.359 249.137 669.765 248.979 669.245 248.665C668.726 248.351 668.325 247.899 668.042 247.312C667.759 246.724 667.618 246.035 667.618 245.247C667.618 244.026 667.924 243.076 668.534 242.396C669.145 241.713 669.993 241.371 671.077 241.371C672.125 241.371 672.957 241.72 673.572 242.417C674.192 243.114 674.502 244.058 674.502 245.247ZM668.794 245.247C668.794 246.204 668.985 246.933 669.368 247.435C669.751 247.936 670.314 248.187 671.057 248.187C671.799 248.187 672.362 247.938 672.745 247.441C673.132 246.94 673.326 246.209 673.326 245.247C673.326 244.295 673.132 243.572 672.745 243.08C672.362 242.583 671.795 242.335 671.043 242.335C670.3 242.335 669.74 242.579 669.361 243.066C668.983 243.554 668.794 244.281 668.794 245.247ZM677.633 249H676.498V238.363H677.633V249ZM686.506 245.247C686.506 246.468 686.198 247.423 685.583 248.111C684.968 248.795 684.118 249.137 683.033 249.137C682.363 249.137 681.769 248.979 681.249 248.665C680.729 248.351 680.328 247.899 680.046 247.312C679.763 246.724 679.622 246.035 679.622 245.247C679.622 244.026 679.927 243.076 680.538 242.396C681.149 241.713 681.996 241.371 683.081 241.371C684.129 241.371 684.961 241.72 685.576 242.417C686.196 243.114 686.506 244.058 686.506 245.247ZM680.798 245.247C680.798 246.204 680.989 246.933 681.372 247.435C681.755 247.936 682.318 248.187 683.061 248.187C683.803 248.187 684.366 247.938 684.749 247.441C685.136 246.94 685.33 246.209 685.33 245.247C685.33 244.295 685.136 243.572 684.749 243.08C684.366 242.583 683.799 242.335 683.047 242.335C682.304 242.335 681.743 242.579 681.365 243.066C680.987 243.554 680.798 244.281 680.798 245.247ZM682.11 240.346C682.329 240.063 682.564 239.721 682.814 239.32C683.07 238.919 683.27 238.571 683.416 238.274H684.797V238.418C684.596 238.714 684.298 239.079 683.901 239.512C683.505 239.945 683.161 240.28 682.869 240.517H682.11V240.346ZM693.629 249V244.153C693.629 243.543 693.49 243.087 693.212 242.786C692.934 242.485 692.499 242.335 691.906 242.335C691.122 242.335 690.548 242.547 690.184 242.971C689.819 243.395 689.637 244.094 689.637 245.069V249H688.502V241.508H689.425L689.609 242.533H689.664C689.896 242.164 690.222 241.879 690.642 241.679C691.061 241.474 691.528 241.371 692.043 241.371C692.945 241.371 693.624 241.59 694.08 242.027C694.536 242.46 694.764 243.155 694.764 244.112V249H693.629Z" fill="#ADADAD"/>
<path d="M723.352 243.907C723.352 245.557 722.903 246.819 722.005 247.694C721.112 248.565 719.824 249 718.143 249H715.374V239.006H718.437C719.991 239.006 721.198 239.437 722.06 240.298C722.921 241.159 723.352 242.362 723.352 243.907ZM722.121 243.948C722.121 242.645 721.793 241.663 721.137 241.002C720.485 240.341 719.514 240.011 718.225 240.011H716.536V247.995H717.951C719.337 247.995 720.378 247.656 721.075 246.977C721.772 246.293 722.121 245.284 722.121 243.948ZM730.023 249L729.798 247.934H729.743C729.369 248.403 728.996 248.722 728.622 248.891C728.253 249.055 727.79 249.137 727.234 249.137C726.492 249.137 725.908 248.945 725.484 248.562C725.065 248.18 724.855 247.635 724.855 246.929C724.855 245.416 726.065 244.623 728.485 244.55L729.757 244.509V244.044C729.757 243.456 729.629 243.023 729.374 242.745C729.123 242.463 728.72 242.321 728.164 242.321C727.54 242.321 726.833 242.513 726.045 242.896L725.696 242.027C726.065 241.827 726.469 241.67 726.906 241.556C727.348 241.442 727.79 241.385 728.232 241.385C729.126 241.385 729.786 241.583 730.215 241.979C730.648 242.376 730.864 243.012 730.864 243.887V249H730.023ZM727.46 248.2C728.166 248.2 728.72 248.007 729.121 247.619C729.527 247.232 729.729 246.689 729.729 245.992V245.315L728.595 245.363C727.692 245.395 727.041 245.536 726.64 245.787C726.243 246.033 726.045 246.418 726.045 246.942C726.045 247.353 726.168 247.665 726.414 247.879C726.665 248.093 727.013 248.2 727.46 248.2ZM736.627 241.371C736.96 241.371 737.258 241.398 737.522 241.453L737.365 242.506C737.055 242.438 736.782 242.403 736.545 242.403C735.939 242.403 735.419 242.649 734.986 243.142C734.558 243.634 734.344 244.247 734.344 244.98V249H733.209V241.508H734.146L734.275 242.896H734.33C734.608 242.408 734.943 242.032 735.335 241.768C735.727 241.503 736.158 241.371 736.627 241.371ZM740.059 249H738.924V241.508H740.059V249ZM738.828 239.478C738.828 239.218 738.892 239.029 739.02 238.91C739.147 238.787 739.307 238.726 739.498 238.726C739.68 238.726 739.838 238.787 739.97 238.91C740.102 239.033 740.168 239.222 740.168 239.478C740.168 239.733 740.102 239.924 739.97 240.052C739.838 240.175 739.68 240.236 739.498 240.236C739.307 240.236 739.147 240.175 739.02 240.052C738.892 239.924 738.828 239.733 738.828 239.478ZM745.63 249.137C744.522 249.137 743.647 248.799 743.005 248.125C742.367 247.451 742.048 246.514 742.048 245.315C742.048 244.108 742.344 243.148 742.937 242.438C743.534 241.727 744.333 241.371 745.336 241.371C746.275 241.371 747.018 241.681 747.564 242.301C748.111 242.916 748.385 243.729 748.385 244.741V245.459H743.224C743.246 246.339 743.467 247.006 743.887 247.462C744.311 247.918 744.905 248.146 745.671 248.146C746.478 248.146 747.275 247.977 748.063 247.64V248.651C747.662 248.825 747.282 248.948 746.922 249.021C746.566 249.098 746.136 249.137 745.63 249.137ZM745.322 242.321C744.721 242.321 744.24 242.517 743.88 242.909C743.524 243.301 743.315 243.843 743.251 244.536H747.168C747.168 243.821 747.008 243.274 746.689 242.896C746.37 242.513 745.915 242.321 745.322 242.321ZM744.481 240.346C744.7 240.063 744.935 239.721 745.186 239.32C745.441 238.919 745.641 238.571 745.787 238.274H747.168V238.418C746.967 238.714 746.669 239.079 746.272 239.512C745.876 239.945 745.532 240.28 745.24 240.517H744.481V240.346ZM755.453 249V244.153C755.453 243.543 755.314 243.087 755.036 242.786C754.758 242.485 754.323 242.335 753.73 242.335C752.947 242.335 752.372 242.547 752.008 242.971C751.643 243.395 751.461 244.094 751.461 245.069V249H750.326V241.508H751.249L751.434 242.533H751.488C751.721 242.164 752.047 241.879 752.466 241.679C752.885 241.474 753.352 241.371 753.867 241.371C754.77 241.371 755.449 241.59 755.904 242.027C756.36 242.46 756.588 243.155 756.588 244.112V249H755.453Z" fill="#ADADAD"/>
<path d="M785.181 249H783.854L778.393 240.612H778.338C778.411 241.597 778.447 242.499 778.447 243.319V249H777.374V239.006H778.687L784.135 247.359H784.189C784.18 247.236 784.16 246.842 784.128 246.177C784.096 245.507 784.085 245.028 784.094 244.741V239.006H785.181V249ZM793.89 241.508V242.226L792.502 242.39C792.63 242.549 792.743 242.759 792.844 243.019C792.944 243.274 792.994 243.563 792.994 243.887C792.994 244.62 792.743 245.206 792.242 245.644C791.741 246.081 791.053 246.3 790.178 246.3C789.954 246.3 789.745 246.282 789.549 246.245C789.066 246.5 788.824 246.822 788.824 247.209C788.824 247.414 788.909 247.567 789.077 247.667C789.246 247.763 789.535 247.811 789.945 247.811H791.271C792.083 247.811 792.705 247.981 793.138 248.323C793.575 248.665 793.794 249.162 793.794 249.813C793.794 250.643 793.461 251.274 792.796 251.707C792.131 252.145 791.16 252.363 789.884 252.363C788.904 252.363 788.147 252.181 787.614 251.816C787.086 251.452 786.821 250.937 786.821 250.271C786.821 249.816 786.967 249.422 787.259 249.089C787.55 248.756 787.961 248.531 788.489 248.412C788.298 248.326 788.136 248.191 788.004 248.009C787.876 247.826 787.812 247.615 787.812 247.373C787.812 247.1 787.885 246.86 788.031 246.655C788.177 246.45 788.407 246.252 788.722 246.061C788.334 245.901 788.018 245.63 787.771 245.247C787.53 244.864 787.409 244.427 787.409 243.935C787.409 243.114 787.655 242.483 788.147 242.041C788.64 241.594 789.337 241.371 790.239 241.371C790.631 241.371 790.984 241.417 791.299 241.508H793.89ZM787.915 250.258C787.915 250.663 788.086 250.971 788.428 251.181C788.77 251.39 789.259 251.495 789.897 251.495C790.85 251.495 791.554 251.352 792.01 251.064C792.47 250.782 792.7 250.397 792.7 249.909C792.7 249.504 792.575 249.221 792.324 249.062C792.074 248.907 791.602 248.829 790.909 248.829H789.549C789.034 248.829 788.633 248.952 788.346 249.198C788.059 249.444 787.915 249.798 787.915 250.258ZM788.53 243.907C788.53 244.431 788.678 244.828 788.975 245.097C789.271 245.366 789.683 245.5 790.212 245.5C791.319 245.5 791.873 244.962 791.873 243.887C791.873 242.761 791.312 242.198 790.191 242.198C789.658 242.198 789.248 242.342 788.961 242.629C788.674 242.916 788.53 243.342 788.53 243.907ZM800.035 249L799.81 247.934H799.755C799.381 248.403 799.007 248.722 798.634 248.891C798.265 249.055 797.802 249.137 797.246 249.137C796.503 249.137 795.92 248.945 795.496 248.562C795.077 248.18 794.867 247.635 794.867 246.929C794.867 245.416 796.077 244.623 798.497 244.55L799.769 244.509V244.044C799.769 243.456 799.641 243.023 799.386 242.745C799.135 242.463 798.732 242.321 798.176 242.321C797.551 242.321 796.845 242.513 796.057 242.896L795.708 242.027C796.077 241.827 796.48 241.67 796.918 241.556C797.36 241.442 797.802 241.385 798.244 241.385C799.137 241.385 799.798 241.583 800.227 241.979C800.66 242.376 800.876 243.012 800.876 243.887V249H800.035ZM797.472 248.2C798.178 248.2 798.732 248.007 799.133 247.619C799.538 247.232 799.741 246.689 799.741 245.992V245.315L798.606 245.363C797.704 245.395 797.052 245.536 796.651 245.787C796.255 246.033 796.057 246.418 796.057 246.942C796.057 247.353 796.18 247.665 796.426 247.879C796.676 248.093 797.025 248.2 797.472 248.2ZM796.132 239.478C796.132 239.241 796.191 239.07 796.31 238.965C796.433 238.86 796.578 238.808 796.747 238.808C796.92 238.808 797.068 238.86 797.191 238.965C797.319 239.07 797.383 239.241 797.383 239.478C797.383 239.705 797.319 239.876 797.191 239.99C797.068 240.1 796.92 240.154 796.747 240.154C796.578 240.154 796.433 240.1 796.31 239.99C796.191 239.876 796.132 239.705 796.132 239.478ZM798.736 239.478C798.736 239.241 798.796 239.07 798.914 238.965C799.037 238.86 799.183 238.808 799.352 238.808C799.52 238.808 799.666 238.86 799.789 238.965C799.917 239.07 799.98 239.241 799.98 239.478C799.98 239.705 799.917 239.876 799.789 239.99C799.666 240.1 799.52 240.154 799.352 240.154C799.183 240.154 799.037 240.1 798.914 239.99C798.796 239.876 798.736 239.705 798.736 239.478ZM806.707 241.385C807.691 241.385 808.455 241.722 808.997 242.396C809.544 243.066 809.817 244.017 809.817 245.247C809.817 246.478 809.542 247.435 808.99 248.118C808.443 248.797 807.682 249.137 806.707 249.137C806.219 249.137 805.773 249.048 805.367 248.87C804.966 248.688 804.629 248.41 804.355 248.036H804.273L804.034 249H803.221V238.363H804.355V240.947C804.355 241.526 804.337 242.046 804.301 242.506H804.355C804.884 241.758 805.668 241.385 806.707 241.385ZM806.543 242.335C805.768 242.335 805.21 242.558 804.868 243.005C804.526 243.447 804.355 244.194 804.355 245.247C804.355 246.3 804.531 247.054 804.882 247.51C805.233 247.961 805.796 248.187 806.57 248.187C807.268 248.187 807.787 247.934 808.129 247.428C808.471 246.917 808.642 246.186 808.642 245.233C808.642 244.258 808.471 243.531 808.129 243.053C807.787 242.574 807.258 242.335 806.543 242.335ZM814.972 249.137C813.864 249.137 812.989 248.799 812.347 248.125C811.709 247.451 811.39 246.514 811.39 245.315C811.39 244.108 811.686 243.148 812.278 242.438C812.875 241.727 813.675 241.371 814.678 241.371C815.617 241.371 816.359 241.681 816.906 242.301C817.453 242.916 817.727 243.729 817.727 244.741V245.459H812.565C812.588 246.339 812.809 247.006 813.229 247.462C813.652 247.918 814.247 248.146 815.013 248.146C815.819 248.146 816.617 247.977 817.405 247.64V248.651C817.004 248.825 816.624 248.948 816.264 249.021C815.908 249.098 815.478 249.137 814.972 249.137ZM814.664 242.321C814.062 242.321 813.582 242.517 813.222 242.909C812.866 243.301 812.657 243.843 812.593 244.536H816.51C816.51 243.821 816.35 243.274 816.031 242.896C815.712 242.513 815.257 242.321 814.664 242.321ZM819.039 245.767V244.728H822.396V245.767H819.039ZM824.351 239.006H827.174C828.5 239.006 829.459 239.204 830.052 239.601C830.644 239.997 830.94 240.624 830.94 241.48C830.94 242.073 830.774 242.563 830.441 242.95C830.113 243.333 829.632 243.581 828.999 243.695V243.764C830.517 244.023 831.275 244.821 831.275 246.156C831.275 247.049 830.972 247.747 830.366 248.248C829.765 248.749 828.922 249 827.837 249H824.351V239.006ZM825.513 243.285H827.427C828.247 243.285 828.837 243.158 829.197 242.902C829.557 242.643 829.737 242.207 829.737 241.597C829.737 241.036 829.537 240.633 829.136 240.387C828.735 240.136 828.097 240.011 827.222 240.011H825.513V243.285ZM825.513 244.27V248.009H827.598C828.404 248.009 829.01 247.854 829.416 247.544C829.826 247.229 830.031 246.74 830.031 246.074C830.031 245.454 829.822 244.999 829.402 244.707C828.988 244.415 828.354 244.27 827.502 244.27H825.513ZM834.324 241.508V246.368C834.324 246.979 834.463 247.435 834.741 247.735C835.019 248.036 835.454 248.187 836.047 248.187C836.831 248.187 837.403 247.972 837.763 247.544C838.127 247.116 838.31 246.416 838.31 245.445V241.508H839.444V249H838.508L838.344 247.995H838.282C838.05 248.364 837.726 248.647 837.312 248.843C836.901 249.039 836.432 249.137 835.903 249.137C834.992 249.137 834.308 248.92 833.853 248.487C833.401 248.054 833.176 247.362 833.176 246.409V241.508H834.324ZM847.989 241.508V242.226L846.602 242.39C846.729 242.549 846.843 242.759 846.943 243.019C847.044 243.274 847.094 243.563 847.094 243.887C847.094 244.62 846.843 245.206 846.342 245.644C845.84 246.081 845.152 246.3 844.277 246.3C844.054 246.3 843.844 246.282 843.648 246.245C843.165 246.5 842.924 246.822 842.924 247.209C842.924 247.414 843.008 247.567 843.177 247.667C843.345 247.763 843.635 247.811 844.045 247.811H845.371C846.182 247.811 846.804 247.981 847.237 248.323C847.675 248.665 847.894 249.162 847.894 249.813C847.894 250.643 847.561 251.274 846.896 251.707C846.23 252.145 845.259 252.363 843.983 252.363C843.004 252.363 842.247 252.181 841.714 251.816C841.185 251.452 840.921 250.937 840.921 250.271C840.921 249.816 841.067 249.422 841.358 249.089C841.65 248.756 842.06 248.531 842.589 248.412C842.397 248.326 842.236 248.191 842.104 248.009C841.976 247.826 841.912 247.615 841.912 247.373C841.912 247.1 841.985 246.86 842.131 246.655C842.277 246.45 842.507 246.252 842.821 246.061C842.434 245.901 842.117 245.63 841.871 245.247C841.63 244.864 841.509 244.427 841.509 243.935C841.509 243.114 841.755 242.483 842.247 242.041C842.739 241.594 843.437 241.371 844.339 241.371C844.731 241.371 845.084 241.417 845.398 241.508H847.989ZM842.015 250.258C842.015 250.663 842.186 250.971 842.527 251.181C842.869 251.39 843.359 251.495 843.997 251.495C844.95 251.495 845.654 251.352 846.109 251.064C846.57 250.782 846.8 250.397 846.8 249.909C846.8 249.504 846.674 249.221 846.424 249.062C846.173 248.907 845.701 248.829 845.009 248.829H843.648C843.133 248.829 842.732 248.952 842.445 249.198C842.158 249.444 842.015 249.798 842.015 250.258ZM842.63 243.907C842.63 244.431 842.778 244.828 843.074 245.097C843.37 245.366 843.783 245.5 844.312 245.5C845.419 245.5 845.973 244.962 845.973 243.887C845.973 242.761 845.412 242.198 844.291 242.198C843.758 242.198 843.348 242.342 843.061 242.629C842.773 242.916 842.63 243.342 842.63 243.907ZM850.662 249H849.527V238.363H850.662V249ZM856.233 249.137C855.126 249.137 854.251 248.799 853.608 248.125C852.97 247.451 852.651 246.514 852.651 245.315C852.651 244.108 852.948 243.148 853.54 242.438C854.137 241.727 854.937 241.371 855.939 241.371C856.878 241.371 857.621 241.681 858.168 242.301C858.715 242.916 858.988 243.729 858.988 244.741V245.459H853.827C853.85 246.339 854.071 247.006 854.49 247.462C854.914 247.918 855.509 248.146 856.274 248.146C857.081 248.146 857.879 247.977 858.667 247.64V248.651C858.266 248.825 857.885 248.948 857.525 249.021C857.17 249.098 856.739 249.137 856.233 249.137ZM855.926 242.321C855.324 242.321 854.843 242.517 854.483 242.909C854.128 243.301 853.918 243.843 853.854 244.536H857.771C857.771 243.821 857.612 243.274 857.293 242.896C856.974 242.513 856.518 242.321 855.926 242.321ZM855.085 240.346C855.304 240.063 855.538 239.721 855.789 239.32C856.044 238.919 856.245 238.571 856.391 238.274H857.771V238.418C857.571 238.714 857.272 239.079 856.876 239.512C856.479 239.945 856.135 240.28 855.844 240.517H855.085V240.346Z" fill="#ADADAD"/>
<path d="M883.77 243.764H887.167V248.624C886.638 248.793 886.101 248.92 885.554 249.007C885.007 249.093 884.373 249.137 883.653 249.137C882.14 249.137 880.962 248.688 880.119 247.79C879.276 246.888 878.854 245.625 878.854 244.003C878.854 242.964 879.062 242.055 879.477 241.275C879.896 240.492 880.497 239.895 881.281 239.484C882.065 239.07 882.983 238.862 884.036 238.862C885.103 238.862 886.096 239.058 887.017 239.45L886.565 240.476C885.663 240.093 884.795 239.901 883.961 239.901C882.744 239.901 881.794 240.264 881.11 240.988C880.427 241.713 880.085 242.718 880.085 244.003C880.085 245.352 880.413 246.375 881.069 247.072C881.73 247.77 882.699 248.118 883.975 248.118C884.667 248.118 885.344 248.038 886.005 247.879V244.803H883.77V243.764ZM890.469 241.508V246.368C890.469 246.979 890.608 247.435 890.886 247.735C891.164 248.036 891.599 248.187 892.191 248.187C892.975 248.187 893.547 247.972 893.907 247.544C894.272 247.116 894.454 246.416 894.454 245.445V241.508H895.589V249H894.652L894.488 247.995H894.427C894.194 248.364 893.871 248.647 893.456 248.843C893.046 249.039 892.576 249.137 892.048 249.137C891.136 249.137 890.453 248.92 889.997 248.487C889.546 248.054 889.32 247.362 889.32 246.409V241.508H890.469ZM903.129 249V244.153C903.129 243.543 902.99 243.087 902.712 242.786C902.434 242.485 901.999 242.335 901.406 242.335C900.622 242.335 900.048 242.547 899.684 242.971C899.319 243.395 899.137 244.094 899.137 245.069V249H898.002V241.508H898.925L899.109 242.533H899.164C899.396 242.164 899.722 241.879 900.142 241.679C900.561 241.474 901.028 241.371 901.543 241.371C902.445 241.371 903.124 241.59 903.58 242.027C904.036 242.46 904.264 243.155 904.264 244.112V249H903.129ZM911.209 249L910.983 247.934H910.929C910.555 248.403 910.181 248.722 909.808 248.891C909.438 249.055 908.976 249.137 908.42 249.137C907.677 249.137 907.094 248.945 906.67 248.562C906.251 248.18 906.041 247.635 906.041 246.929C906.041 245.416 907.251 244.623 909.671 244.55L910.942 244.509V244.044C910.942 243.456 910.815 243.023 910.56 242.745C910.309 242.463 909.906 242.321 909.35 242.321C908.725 242.321 908.019 242.513 907.23 242.896L906.882 242.027C907.251 241.827 907.654 241.67 908.092 241.556C908.534 241.442 908.976 241.385 909.418 241.385C910.311 241.385 910.972 241.583 911.4 241.979C911.833 242.376 912.05 243.012 912.05 243.887V249H911.209ZM908.646 248.2C909.352 248.2 909.906 248.007 910.307 247.619C910.712 247.232 910.915 246.689 910.915 245.992V245.315L909.78 245.363C908.878 245.395 908.226 245.536 907.825 245.787C907.429 246.033 907.23 246.418 907.23 246.942C907.23 247.353 907.354 247.665 907.6 247.879C907.85 248.093 908.199 248.2 908.646 248.2ZM920.745 244.003L923.411 239.006H924.669L921.333 245.124V249H920.157V245.179L916.828 239.006H918.1L920.745 244.003ZM930.486 249L930.261 247.934H930.206C929.832 248.403 929.459 248.722 929.085 248.891C928.716 249.055 928.253 249.137 927.697 249.137C926.954 249.137 926.371 248.945 925.947 248.562C925.528 248.18 925.318 247.635 925.318 246.929C925.318 245.416 926.528 244.623 928.948 244.55L930.22 244.509V244.044C930.22 243.456 930.092 243.023 929.837 242.745C929.586 242.463 929.183 242.321 928.627 242.321C928.003 242.321 927.296 242.513 926.508 242.896L926.159 242.027C926.528 241.827 926.932 241.67 927.369 241.556C927.811 241.442 928.253 241.385 928.695 241.385C929.589 241.385 930.249 241.583 930.678 241.979C931.111 242.376 931.327 243.012 931.327 243.887V249H930.486ZM927.923 248.2C928.629 248.2 929.183 248.007 929.584 247.619C929.99 247.232 930.192 246.689 930.192 245.992V245.315L929.058 245.363C928.155 245.395 927.504 245.536 927.103 245.787C926.706 246.033 926.508 246.418 926.508 246.942C926.508 247.353 926.631 247.665 926.877 247.879C927.128 248.093 927.476 248.2 927.923 248.2ZM934.807 249H933.672V238.363H934.807V249ZM941.82 249L941.595 247.934H941.54C941.166 248.403 940.793 248.722 940.419 248.891C940.05 249.055 939.587 249.137 939.031 249.137C938.288 249.137 937.705 248.945 937.281 248.562C936.862 248.18 936.652 247.635 936.652 246.929C936.652 245.416 937.862 244.623 940.282 244.55L941.554 244.509V244.044C941.554 243.456 941.426 243.023 941.171 242.745C940.92 242.463 940.517 242.321 939.961 242.321C939.337 242.321 938.63 242.513 937.842 242.896L937.493 242.027C937.862 241.827 938.266 241.67 938.703 241.556C939.145 241.442 939.587 241.385 940.029 241.385C940.923 241.385 941.583 241.583 942.012 241.979C942.445 242.376 942.661 243.012 942.661 243.887V249H941.82ZM939.257 248.2C939.963 248.2 940.517 248.007 940.918 247.619C941.324 247.232 941.526 246.689 941.526 245.992V245.315L940.392 245.363C939.489 245.395 938.838 245.536 938.437 245.787C938.04 246.033 937.842 246.418 937.842 246.942C937.842 247.353 937.965 247.665 938.211 247.879C938.462 248.093 938.81 248.2 939.257 248.2Z" fill="#ADADAD"/>
<path d="M968.945 249H963.374V239.006H968.945V240.038H964.536V243.258H968.679V244.283H964.536V247.961H968.945V249ZM980.546 249V244.126C980.546 243.529 980.418 243.082 980.163 242.786C979.908 242.485 979.511 242.335 978.974 242.335C978.267 242.335 977.745 242.538 977.408 242.943C977.071 243.349 976.902 243.973 976.902 244.816V249H975.768V244.126C975.768 243.529 975.64 243.082 975.385 242.786C975.13 242.485 974.731 242.335 974.188 242.335C973.478 242.335 972.956 242.549 972.623 242.978C972.295 243.401 972.131 244.099 972.131 245.069V249H970.996V241.508H971.919L972.104 242.533H972.158C972.372 242.169 972.673 241.884 973.061 241.679C973.452 241.474 973.89 241.371 974.373 241.371C975.544 241.371 976.31 241.795 976.67 242.643H976.725C976.948 242.251 977.271 241.941 977.695 241.713C978.119 241.485 978.602 241.371 979.145 241.371C979.992 241.371 980.626 241.59 981.045 242.027C981.469 242.46 981.681 243.155 981.681 244.112V249H980.546ZM987.512 241.385C988.496 241.385 989.259 241.722 989.802 242.396C990.349 243.066 990.622 244.017 990.622 245.247C990.622 246.478 990.346 247.435 989.795 248.118C989.248 248.797 988.487 249.137 987.512 249.137C987.024 249.137 986.577 249.048 986.172 248.87C985.771 248.688 985.434 248.41 985.16 248.036H985.078L984.839 249H984.025V238.363H985.16V240.947C985.16 241.526 985.142 242.046 985.105 242.506H985.16C985.689 241.758 986.473 241.385 987.512 241.385ZM987.348 242.335C986.573 242.335 986.015 242.558 985.673 243.005C985.331 243.447 985.16 244.194 985.16 245.247C985.16 246.3 985.336 247.054 985.687 247.51C986.037 247.961 986.6 248.187 987.375 248.187C988.072 248.187 988.592 247.934 988.934 247.428C989.275 246.917 989.446 246.186 989.446 245.233C989.446 244.258 989.275 243.531 988.934 243.053C988.592 242.574 988.063 242.335 987.348 242.335ZM995.776 249.137C994.669 249.137 993.794 248.799 993.151 248.125C992.513 247.451 992.194 246.514 992.194 245.315C992.194 244.108 992.491 243.148 993.083 242.438C993.68 241.727 994.48 241.371 995.482 241.371C996.421 241.371 997.164 241.681 997.711 242.301C998.258 242.916 998.531 243.729 998.531 244.741V245.459H993.37C993.393 246.339 993.614 247.006 994.033 247.462C994.457 247.918 995.052 248.146 995.817 248.146C996.624 248.146 997.422 247.977 998.21 247.64V248.651C997.809 248.825 997.428 248.948 997.068 249.021C996.713 249.098 996.282 249.137 995.776 249.137ZM995.469 242.321C994.867 242.321 994.386 242.517 994.026 242.909C993.671 243.301 993.461 243.843 993.397 244.536H997.314C997.314 243.821 997.155 243.274 996.836 242.896C996.517 242.513 996.061 242.321 995.469 242.321ZM1003.89 241.371C1004.22 241.371 1004.52 241.398 1004.79 241.453L1004.63 242.506C1004.32 242.438 1004.05 242.403 1003.81 242.403C1003.2 242.403 1002.68 242.649 1002.25 243.142C1001.82 243.634 1001.61 244.247 1001.61 244.98V249H1000.47V241.508H1001.41L1001.54 242.896H1001.59C1001.87 242.408 1002.21 242.032 1002.6 241.768C1002.99 241.503 1003.42 241.371 1003.89 241.371ZM1010.79 249L1010.57 247.934H1010.51C1010.14 248.403 1009.77 248.722 1009.39 248.891C1009.02 249.055 1008.56 249.137 1008.01 249.137C1007.26 249.137 1006.68 248.945 1006.26 248.562C1005.84 248.18 1005.63 247.635 1005.63 246.929C1005.63 245.416 1006.84 244.623 1009.26 244.55L1010.53 244.509V244.044C1010.53 243.456 1010.4 243.023 1010.15 242.745C1009.89 242.463 1009.49 242.321 1008.94 242.321C1008.31 242.321 1007.6 242.513 1006.82 242.896L1006.47 242.027C1006.84 241.827 1007.24 241.67 1007.68 241.556C1008.12 241.442 1008.56 241.385 1009 241.385C1009.9 241.385 1010.56 241.583 1010.99 241.979C1011.42 242.376 1011.64 243.012 1011.64 243.887V249H1010.79ZM1008.23 248.2C1008.94 248.2 1009.49 248.007 1009.89 247.619C1010.3 247.232 1010.5 246.689 1010.5 245.992V245.315L1009.37 245.363C1008.46 245.395 1007.81 245.536 1007.41 245.787C1007.01 246.033 1006.82 246.418 1006.82 246.942C1006.82 247.353 1006.94 247.665 1007.19 247.879C1007.44 248.093 1007.78 248.2 1008.23 248.2ZM1016.99 245.767V244.728H1020.34V245.767H1016.99ZM1034.66 249H1033.51L1031.49 242.308C1031.4 242.011 1031.29 241.638 1031.17 241.187C1031.05 240.735 1030.99 240.464 1030.99 240.373C1030.89 240.975 1030.73 241.633 1030.51 242.349L1028.55 249H1027.41L1024.75 239.006H1025.98L1027.56 245.179C1027.78 246.045 1027.93 246.828 1028.04 247.53C1028.16 246.696 1028.34 245.881 1028.58 245.083L1030.37 239.006H1031.6L1033.48 245.138C1033.7 245.844 1033.89 246.642 1034.04 247.53C1034.12 246.883 1034.29 246.095 1034.53 245.165L1036.1 239.006H1037.33L1034.66 249ZM1045.19 245.247C1045.19 246.468 1044.89 247.423 1044.27 248.111C1043.66 248.795 1042.81 249.137 1041.72 249.137C1041.05 249.137 1040.46 248.979 1039.94 248.665C1039.42 248.351 1039.02 247.899 1038.73 247.312C1038.45 246.724 1038.31 246.035 1038.31 245.247C1038.31 244.026 1038.61 243.076 1039.23 242.396C1039.84 241.713 1040.68 241.371 1041.77 241.371C1042.82 241.371 1043.65 241.72 1044.26 242.417C1044.88 243.114 1045.19 244.058 1045.19 245.247ZM1039.49 245.247C1039.49 246.204 1039.68 246.933 1040.06 247.435C1040.44 247.936 1041.01 248.187 1041.75 248.187C1042.49 248.187 1043.05 247.938 1043.44 247.441C1043.82 246.94 1044.02 246.209 1044.02 245.247C1044.02 244.295 1043.82 243.572 1043.44 243.08C1043.05 242.583 1042.49 242.335 1041.73 242.335C1040.99 242.335 1040.43 242.579 1040.05 243.066C1039.67 243.554 1039.49 244.281 1039.49 245.247ZM1048.26 241.508V246.368C1048.26 246.979 1048.39 247.435 1048.67 247.735C1048.95 248.036 1049.39 248.187 1049.98 248.187C1050.76 248.187 1051.33 247.972 1051.69 247.544C1052.06 247.116 1052.24 246.416 1052.24 245.445V241.508H1053.38V249H1052.44L1052.28 247.995H1052.21C1051.98 248.364 1051.66 248.647 1051.24 248.843C1050.83 249.039 1050.36 249.137 1049.83 249.137C1048.92 249.137 1048.24 248.92 1047.78 248.487C1047.33 248.054 1047.11 247.362 1047.11 246.409V241.508H1048.26ZM1060.92 249V244.153C1060.92 243.543 1060.78 243.087 1060.5 242.786C1060.22 242.485 1059.79 242.335 1059.19 242.335C1058.41 242.335 1057.84 242.547 1057.47 242.971C1057.11 243.395 1056.92 244.094 1056.92 245.069V249H1055.79V241.508H1056.71L1056.9 242.533H1056.95C1057.18 242.164 1057.51 241.879 1057.93 241.679C1058.35 241.474 1058.82 241.371 1059.33 241.371C1060.23 241.371 1060.91 241.59 1061.37 242.027C1061.82 242.46 1062.05 243.155 1062.05 244.112V249H1060.92ZM1069 249L1068.77 247.934H1068.72C1068.34 248.403 1067.97 248.722 1067.59 248.891C1067.23 249.055 1066.76 249.137 1066.21 249.137C1065.46 249.137 1064.88 248.945 1064.46 248.562C1064.04 248.18 1063.83 247.635 1063.83 246.929C1063.83 245.416 1065.04 244.623 1067.46 244.55L1068.73 244.509V244.044C1068.73 243.456 1068.6 243.023 1068.35 242.745C1068.1 242.463 1067.69 242.321 1067.14 242.321C1066.51 242.321 1065.81 242.513 1065.02 242.896L1064.67 242.027C1065.04 241.827 1065.44 241.67 1065.88 241.556C1066.32 241.442 1066.76 241.385 1067.21 241.385C1068.1 241.385 1068.76 241.583 1069.19 241.979C1069.62 242.376 1069.84 243.012 1069.84 243.887V249H1069ZM1066.43 248.2C1067.14 248.2 1067.69 248.007 1068.09 247.619C1068.5 247.232 1068.7 246.689 1068.7 245.992V245.315L1067.57 245.363C1066.67 245.395 1066.01 245.536 1065.61 245.787C1065.22 246.033 1065.02 246.418 1065.02 246.942C1065.02 247.353 1065.14 247.665 1065.39 247.879C1065.64 248.093 1065.99 248.2 1066.43 248.2ZM1076.79 249L1076.56 247.934H1076.51C1076.14 248.403 1075.76 248.722 1075.39 248.891C1075.02 249.055 1074.56 249.137 1074 249.137C1073.26 249.137 1072.67 248.945 1072.25 248.562C1071.83 248.18 1071.62 247.635 1071.62 246.929C1071.62 245.416 1072.83 244.623 1075.25 244.55L1076.52 244.509V244.044C1076.52 243.456 1076.39 243.023 1076.14 242.745C1075.89 242.463 1075.49 242.321 1074.93 242.321C1074.31 242.321 1073.6 242.513 1072.81 242.896L1072.46 242.027C1072.83 241.827 1073.23 241.67 1073.67 241.556C1074.11 241.442 1074.56 241.385 1075 241.385C1075.89 241.385 1076.55 241.583 1076.98 241.979C1077.41 242.376 1077.63 243.012 1077.63 243.887V249H1076.79ZM1074.23 248.2C1074.93 248.2 1075.49 248.007 1075.89 247.619C1076.29 247.232 1076.5 246.689 1076.5 245.992V245.315L1075.36 245.363C1074.46 245.395 1073.81 245.536 1073.41 245.787C1073.01 246.033 1072.81 246.418 1072.81 246.942C1072.81 247.353 1072.93 247.665 1073.18 247.879C1073.43 248.093 1073.78 248.2 1074.23 248.2ZM1085.1 249V244.153C1085.1 243.543 1084.96 243.087 1084.68 242.786C1084.41 242.485 1083.97 242.335 1083.38 242.335C1082.6 242.335 1082.02 242.547 1081.66 242.971C1081.29 243.395 1081.11 244.094 1081.11 245.069V249H1079.97V241.508H1080.9L1081.08 242.533H1081.14C1081.37 242.164 1081.69 241.879 1082.11 241.679C1082.53 241.474 1083 241.371 1083.52 241.371C1084.42 241.371 1085.1 241.59 1085.55 242.027C1086.01 242.46 1086.24 243.155 1086.24 244.112V249H1085.1Z" fill="#ADADAD"/>
<path d="M47 107C47 104.239 44.7614 102 42 102C39.2386 102 37 104.239 37 107L47 107ZM47 227L47 107L37 107L37 227L47 227Z" fill="#5A6BB6"/>
<path d="M217 107C217 104.239 214.761 102 212 102C209.239 102 207 104.239 207 107L217 107ZM217 227L217 107L207 107L207 227L217 227Z" fill="#5A6BB6"/>
<path d="M433 72C433 69.2386 430.761 67 428 67C425.239 67 423 69.2386 423 72L433 72ZM433 227L433 72L423 72L423 227L433 227Z" fill="#5A6BB6"/>
<path d="M147 72C147 69.2386 144.761 67 142 67C139.239 67 137 69.2386 137 72L147 72ZM147 227L147 72L137 72L137 227L147 227Z" fill="#5A6BB6"/>
<path d="M522 40C522 37.2386 519.761 35 517 35C514.239 35 512 37.2386 512 40L522 40ZM522 227L522 40L512 40L512 227L522 227Z" fill="#5A6BB6"/>
<path d="M680 5C680 2.23857 677.761 -6.3173e-08 675 0C672.239 6.3173e-08 670 2.23857 670 5L680 5ZM680 227L680 5L670 5L670 227L680 227Z" fill="#5A6BB6"/>
<path d="M615 5C615 2.23857 612.761 -6.3173e-08 610 0C607.239 6.3173e-08 605 2.23857 605 5L615 5ZM615 227L615 5L605 5L605 227L615 227Z" fill="#5A6BB6"/>
<path d="M741 134C741 131.239 738.761 129 736 129C733.239 129 731 131.239 731 134L741 134ZM741 227L741 134L731 134L731 227L741 227Z" fill="#5A6BB6"/>
<path d="M369 134C369 131.239 366.761 129 364 129C361.239 129 359 131.239 359 134L369 134ZM369 227L369 134L359 134L359 227L369 227Z" fill="#5A6BB6"/>
<path d="M820 145C820 142.239 817.761 140 815 140C812.239 140 810 142.239 810 145L820 145ZM820 227L820 145L810 145L810 227L820 227Z" fill="#5A6BB6"/>
<path d="M293 145C293 142.239 290.761 140 288 140C285.239 140 283 142.239 283 145L293 145ZM293 227L293 145L283 145L283 227L293 227Z" fill="#5A6BB6"/>
<path d="M913 107C913 104.239 910.761 102 908 102C905.239 102 903 104.239 903 107L913 107ZM913 227L913 107L903 107L903 227L913 227Z" fill="#5A6BB6"/>
<path d="M1021 181C1021 178.239 1018.76 176 1016 176C1013.24 176 1011 178.239 1011 181L1021 181ZM1021 227L1021 181L1011 181L1011 227L1021 227Z" fill="#5A6BB6"/>
<path d="M47 207C47 204.239 44.7614 202 42 202C39.2386 202 37 204.239 37 207L47 207ZM47 227L47 207L37 207L37 227L47 227Z" fill="#B60062"/>
<path d="M433 181C433 178.239 430.761 176 428 176C425.239 176 423 178.239 423 181L433 181ZM433 227L433 181L423 181L423 227L433 227Z" fill="#B60062"/>
<path d="M147 181C147 178.239 144.761 176 142 176C139.239 176 137 178.239 137 181L147 181ZM147 227L147 181L137 181L137 227L147 227Z" fill="#B60062"/>
<path d="M522 167C522 164.239 519.761 162 517 162C514.239 162 512 164.239 512 167L522 167ZM522 227L522 167L512 167L512 227L522 227Z" fill="#B60062"/>
<path d="M680 145C680 142.239 677.761 140 675 140C672.239 140 670 142.239 670 145L680 145ZM680 227L680 145L670 145L670 227L680 227Z" fill="#B60062"/>
<path d="M615 145C615 142.239 612.761 140 610 140C607.239 140 605 142.239 605 145L615 145ZM615 227L615 145L605 145L605 227L615 227Z" fill="#B60062"/>
<path d="M741 192C741 189.239 738.761 187 736 187C733.239 187 731 189.239 731 192L741 192ZM741 227L741 192L731 192L731 227L741 227Z" fill="#B60062"/>
<path d="M369 192C369 189.239 366.761 187 364 187C361.239 187 359 189.239 359 192L369 192ZM369 227L369 192L359 192L359 227L369 227Z" fill="#B60062"/>
<path d="M820 167C820 164.239 817.761 162 815 162C812.239 162 810 164.239 810 167L820 167ZM820 227L820 167L810 167L810 227L820 227Z" fill="#B60062"/>
<path d="M293 167C293 164.239 290.761 162 288 162C285.239 162 283 164.239 283 167L293 167ZM293 227L293 167L283 167L283 227L293 227Z" fill="#B60062"/>
<path d="M913 151C913 148.239 910.761 146 908 146C905.239 146 903 148.239 903 151L913 151ZM913 227L913 151L903 151L903 227L913 227Z" fill="#B60062"/>
<path d="M1021 207C1021 204.239 1018.76 202 1016 202C1013.24 202 1011 204.239 1011 207L1021 207ZM1021 227L1021 207L1011 207L1011 227L1021 227Z" fill="#B60062"/>
</svg>
