<svg width="149" height="149" viewBox="0 0 149 149" fill="none" xmlns="http://www.w3.org/2000/svg">
<path d="M139 74.5C139 87.2569 135.217 99.7273 128.13 110.334C121.042 120.941 110.969 129.208 99.1831 134.09C87.3972 138.972 74.4284 140.249 61.9167 137.761C49.4049 135.272 37.9121 129.129 28.8916 120.108" stroke="#5A6BB6" stroke-width="20"/>
<path d="M139 74.5C139 63.8929 136.384 53.4495 131.384 44.0949C126.384 34.7403 119.154 26.7632 110.334 20.8702C101.515 14.9772 91.3781 11.3503 80.8221 10.3106C70.2661 9.27092 59.6166 10.8506 49.8169 14.9098C40.0173 18.9689 31.3699 25.3823 24.6408 33.5816C17.9118 41.781 13.3087 51.5134 11.2394 61.9167C9.17001 72.3199 9.69828 83.073 12.7774 93.2234C15.8564 103.374 21.3913 112.608 28.8916 120.108" stroke="#B60062" stroke-width="20" stroke-linecap="round"/>
<path d="M139 74.5C139 66.0297 137.332 57.6424 134.09 49.8169C130.849 41.9914 126.098 34.881 120.108 28.8916C114.119 22.9022 107.009 18.1512 99.1831 14.9098C91.3576 11.6683 82.9703 10 74.5 10" stroke="#65ADC7" stroke-width="20" stroke-linecap="round"/>
</svg>
