<svg width="214" height="214" viewBox="0 0 214 214" fill="none" xmlns="http://www.w3.org/2000/svg">
<circle cx="107" cy="107" r="99" stroke="#EDEDED" stroke-width="16"/>
<path d="M206 107C206 90.0266 201.636 73.3383 193.327 58.5377C185.019 43.737 173.044 31.3212 158.554 22.4824C144.063 13.6436 127.544 8.67884 110.581 8.06481C93.6192 7.45079 76.7839 11.2081 61.6924 18.9761C46.6008 26.744 33.7599 38.2615 24.4027 52.4227C15.0455 66.5839 9.48639 82.913 8.25915 99.8419C7.0319 116.771 10.1778 133.731 17.3947 149.094C24.6115 164.456 35.657 177.706 49.4704 187.569" stroke="#5A6BB6" stroke-width="16" stroke-linecap="round"/>
<circle cx="107.282" cy="107.283" r="68" transform="rotate(75 107.282 107.283)" stroke="#EDEDED" stroke-width="16"/>
<path d="M125.063 172.917C136.294 169.908 146.559 164.054 154.875 155.918C163.19 147.781 169.276 137.635 172.548 126.454C175.82 115.274 176.168 103.433 173.559 92.0706C170.95 80.7079 165.471 70.2044 157.649 61.5688C149.826 52.9333 139.923 46.4557 128.89 42.7581C117.857 39.0605 106.065 38.2671 94.6461 40.4541C83.2271 42.6411 72.565 47.735 63.6835 55.2467C54.802 62.7584 47.9995 72.4356 43.9292 83.3489" stroke="#B60062" stroke-width="16" stroke-linecap="round"/>
<circle cx="107.5" cy="106.5" r="38.7837" transform="rotate(75 107.5 106.5)" stroke="#EDEDED" stroke-width="16"/>
<path d="M117.641 143.935C124.047 142.218 129.902 138.88 134.644 134.239C139.387 129.598 142.858 123.812 144.724 117.435C146.591 111.058 146.789 104.305 145.301 97.8239C143.813 91.3432 140.688 85.3526 136.226 80.4273C131.765 75.502 126.117 71.8075 119.824 69.6986C113.531 67.5897 106.806 67.1372 100.293 68.3845C93.7802 69.6319 87.6991 72.5372 82.6335 76.8215C77.568 81.1058 73.6882 86.6251 71.3667 92.8495" stroke="#65ADC7" stroke-width="16" stroke-linecap="round"/>
</svg>
