<svg width="285" height="201" viewBox="0 0 285 201" fill="none" xmlns="http://www.w3.org/2000/svg">
<circle cx="100.5" cy="100.5" r="92.5" stroke="#EDEDED" stroke-width="16"/>
<path d="M193 100.5C193 84.641 188.923 69.0484 181.159 55.2195C173.396 41.3906 162.208 29.79 148.669 21.5315C135.13 13.2731 119.695 8.63427 103.846 8.06056C87.9977 7.48685 72.2678 10.9975 58.1671 18.2554C44.0664 25.5133 32.0686 36.2747 23.3258 49.506C14.5829 62.7374 9.3888 77.9944 8.24213 93.8119C7.09546 109.629 10.0348 125.476 16.7778 139.83C23.5209 154.184 33.8412 166.563 46.7476 175.779" stroke="#5A6BB6" stroke-width="16" stroke-linecap="round"/>
<path d="M130.062 102.812L116.75 81.8125C114.5 78.25 110.75 76 106.625 76H95.1875C91.0625 76 87.3125 78.25 85.0625 81.8125L71.75 102.812C70.0625 105.625 71 109.375 73.8125 111.25C76.625 112.938 80.1875 112 82.0625 109.188L87.5 100.562L87.3125 142C87.3125 145.375 89.9375 148 93.3125 148C96.5 148 99.125 145.375 99.125 142V115H102.125V142C102.125 145.375 104.75 148 108.125 148C111.312 148 114.125 145.375 114.125 142V100.562L119.562 109.188C120.875 111.062 122.938 112 125 112C125.938 112 127.062 111.812 128 111.25C130.812 109.375 131.75 105.625 130.062 102.812ZM101 70C105.875 70 110 66.0625 110 61C110 56.125 105.875 52 101 52C95.9375 52 92 56.125 92 61C92 66.0625 95.9375 70 101 70Z" fill="#5A6BB6"/>
<path d="M233.508 25H231.641V19.8438H226.375V25H224.5V13.5781H226.375V18.25H231.641V13.5781H233.508V25ZM243.68 20.6562C243.68 21.375 243.586 22.013 243.399 22.5703C243.211 23.1276 242.938 23.599 242.578 23.9844C242.219 24.3646 241.787 24.6562 241.282 24.8594C240.776 25.0573 240.206 25.1562 239.571 25.1562C238.977 25.1562 238.433 25.0573 237.938 24.8594C237.443 24.6562 237.013 24.3646 236.649 23.9844C236.289 23.599 236.011 23.1276 235.813 22.5703C235.615 22.013 235.516 21.375 235.516 20.6562C235.516 19.7031 235.68 18.8958 236.008 18.2344C236.341 17.5677 236.815 17.0599 237.43 16.7109C238.045 16.362 238.776 16.1875 239.625 16.1875C240.422 16.1875 241.125 16.362 241.735 16.7109C242.344 17.0599 242.821 17.5677 243.164 18.2344C243.508 18.901 243.68 19.7083 243.68 20.6562ZM237.407 20.6562C237.407 21.2865 237.482 21.8255 237.633 22.2734C237.789 22.7214 238.029 23.0651 238.352 23.3047C238.675 23.5391 239.091 23.6562 239.602 23.6562C240.112 23.6562 240.529 23.5391 240.852 23.3047C241.175 23.0651 241.412 22.7214 241.563 22.2734C241.714 21.8255 241.789 21.2865 241.789 20.6562C241.789 20.026 241.714 19.4922 241.563 19.0547C241.412 18.612 241.175 18.276 240.852 18.0469C240.529 17.8125 240.11 17.6953 239.594 17.6953C238.834 17.6953 238.279 17.9505 237.93 18.4609C237.581 18.9714 237.407 19.7031 237.407 20.6562ZM255.243 16.1875C256.212 16.1875 256.941 16.4375 257.43 16.9375C257.925 17.4375 258.173 18.2396 258.173 19.3438V25H256.337V19.6719C256.337 19.0156 256.209 18.5208 255.954 18.1875C255.699 17.8542 255.311 17.6875 254.79 17.6875C254.061 17.6875 253.534 17.9219 253.212 18.3906C252.894 18.8542 252.735 19.5286 252.735 20.4141V25H250.899V19.6719C250.899 19.2344 250.842 18.8698 250.727 18.5781C250.618 18.2812 250.449 18.0599 250.219 17.9141C249.99 17.763 249.701 17.6875 249.352 17.6875C248.847 17.6875 248.443 17.8021 248.141 18.0312C247.844 18.2604 247.631 18.599 247.501 19.0469C247.37 19.4896 247.305 20.0339 247.305 20.6797V25H245.469V16.3516H246.899L247.157 17.5156H247.258C247.436 17.2135 247.654 16.9661 247.915 16.7734C248.18 16.5755 248.475 16.4297 248.798 16.3359C249.12 16.237 249.456 16.1875 249.805 16.1875C250.451 16.1875 250.995 16.3021 251.438 16.5312C251.881 16.7552 252.212 17.099 252.43 17.5625H252.571C252.842 17.0938 253.219 16.7474 253.704 16.5234C254.188 16.2995 254.701 16.1875 255.243 16.1875ZM262.251 12.8438V15.7734C262.251 16.112 262.241 16.4453 262.22 16.7734C262.204 17.0964 262.188 17.349 262.173 17.5312H262.251C262.485 17.1562 262.811 16.8411 263.228 16.5859C263.649 16.3255 264.188 16.1953 264.845 16.1953C265.871 16.1953 266.696 16.5729 267.321 17.3281C267.946 18.0781 268.259 19.1901 268.259 20.6641C268.259 21.6432 268.116 22.4661 267.829 23.1328C267.543 23.7995 267.139 24.3047 266.618 24.6484C266.103 24.987 265.496 25.1562 264.798 25.1562C264.142 25.1562 263.61 25.0365 263.204 24.7969C262.803 24.5521 262.488 24.2682 262.259 23.9453H262.126L261.79 25H260.415V12.8438H262.251ZM264.36 17.6875C263.839 17.6875 263.425 17.7917 263.118 18C262.816 18.2083 262.597 18.5208 262.462 18.9375C262.326 19.349 262.256 19.8724 262.251 20.5078V20.6719C262.251 21.6354 262.402 22.3724 262.704 22.8828C263.011 23.3932 263.569 23.6484 264.376 23.6484C265.017 23.6484 265.509 23.3906 265.853 22.875C266.196 22.3542 266.368 21.6094 266.368 20.6406C266.368 19.6615 266.196 18.9245 265.853 18.4297C265.514 17.9349 265.017 17.6875 264.36 17.6875ZM274.447 16.1875C274.592 16.1875 274.751 16.1953 274.923 16.2109C275.095 16.2266 275.243 16.2474 275.368 16.2734L275.197 17.9922C275.087 17.9609 274.952 17.9375 274.79 17.9219C274.634 17.9062 274.493 17.8984 274.368 17.8984C274.04 17.8984 273.728 17.9531 273.431 18.0625C273.134 18.1667 272.871 18.3281 272.642 18.5469C272.413 18.7604 272.233 19.0286 272.103 19.3516C271.973 19.6745 271.908 20.0495 271.908 20.4766V25H270.064V16.3516H271.501L271.751 17.875H271.837C272.009 17.5677 272.223 17.2865 272.478 17.0312C272.733 16.776 273.025 16.5729 273.353 16.4219C273.686 16.2656 274.051 16.1875 274.447 16.1875ZM280.095 16.1875C280.866 16.1875 281.528 16.3464 282.08 16.6641C282.632 16.9818 283.056 17.4323 283.353 18.0156C283.65 18.599 283.798 19.2969 283.798 20.1094V21.0938H278.025C278.046 21.9323 278.27 22.5781 278.697 23.0312C279.129 23.4844 279.733 23.7109 280.509 23.7109C281.061 23.7109 281.556 23.6589 281.994 23.5547C282.436 23.4453 282.892 23.2865 283.361 23.0781V24.5703C282.929 24.7734 282.489 24.9219 282.041 25.0156C281.593 25.1094 281.056 25.1562 280.431 25.1562C279.582 25.1562 278.835 24.9922 278.189 24.6641C277.548 24.3307 277.046 23.8359 276.681 23.1797C276.322 22.5234 276.142 21.7083 276.142 20.7344C276.142 19.7656 276.306 18.9427 276.634 18.2656C276.963 17.5885 277.423 17.0729 278.017 16.7188C278.611 16.3646 279.304 16.1875 280.095 16.1875ZM280.095 17.5703C279.517 17.5703 279.048 17.7578 278.689 18.1328C278.335 18.5078 278.127 19.0573 278.064 19.7812H282.002C281.996 19.349 281.923 18.9661 281.783 18.6328C281.647 18.2995 281.439 18.0391 281.158 17.8516C280.882 17.6641 280.528 17.5703 280.095 17.5703Z" fill="#ADADAD"/>
<path d="M232.993 46.3369H231.446V49H228.792V46.3369H223.308V44.4473L228.941 36.1504H231.446V44.2275H232.993V46.3369ZM228.792 44.2275V42.0479C228.792 41.6846 228.807 41.1572 228.836 40.4658C228.865 39.7744 228.889 39.373 228.906 39.2617H228.836C228.619 39.7422 228.358 40.2109 228.054 40.668L225.698 44.2275H228.792ZM238.32 40.791C239.562 40.791 240.549 41.1396 241.282 41.8369C242.02 42.5342 242.389 43.4893 242.389 44.7021C242.389 46.1377 241.947 47.2422 241.062 48.0156C240.177 48.7891 238.911 49.1758 237.265 49.1758C235.835 49.1758 234.681 48.9443 233.802 48.4814V46.1348C234.265 46.3809 234.804 46.583 235.419 46.7412C236.035 46.8936 236.618 46.9697 237.168 46.9697C238.827 46.9697 239.656 46.29 239.656 44.9307C239.656 43.6357 238.797 42.9883 237.08 42.9883C236.77 42.9883 236.427 43.0205 236.052 43.085C235.677 43.1436 235.372 43.208 235.138 43.2783L234.057 42.6982L234.54 36.1504H241.51V38.4531H236.922L236.685 40.9756L236.993 40.9141C237.35 40.832 237.792 40.791 238.32 40.791ZM252.479 42.5752C252.479 44.8193 252.11 46.4805 251.372 47.5586C250.639 48.6367 249.509 49.1758 247.979 49.1758C246.497 49.1758 245.378 48.6191 244.622 47.5059C243.872 46.3926 243.497 44.749 243.497 42.5752C243.497 40.3076 243.863 38.6377 244.595 37.5654C245.328 36.4873 246.456 35.9482 247.979 35.9482C249.462 35.9482 250.581 36.5107 251.337 37.6357C252.098 38.7607 252.479 40.4072 252.479 42.5752ZM246.195 42.5752C246.195 44.1514 246.33 45.2822 246.599 45.9678C246.875 46.6475 247.335 46.9873 247.979 46.9873C248.612 46.9873 249.069 46.6416 249.35 45.9502C249.632 45.2588 249.772 44.1338 249.772 42.5752C249.772 40.999 249.629 39.8682 249.342 39.1826C249.06 38.4912 248.606 38.1455 247.979 38.1455C247.341 38.1455 246.884 38.4912 246.608 39.1826C246.333 39.8682 246.195 40.999 246.195 42.5752Z" fill="black"/>
</svg>
