<svg width="370" height="47" viewBox="0 0 370 47" fill="none" xmlns="http://www.w3.org/2000/svg">
<circle cx="9.5" cy="11" r="9.5" fill="#5A6BB6"/>
<path d="M35.1172 17H33.2734V9.64844C33.2734 9.40365 33.276 9.15885 33.2812 8.91406C33.2865 8.66927 33.2917 8.42969 33.2969 8.19531C33.3073 7.96094 33.3203 7.73698 33.3359 7.52344C33.2266 7.64323 33.0911 7.77344 32.9297 7.91406C32.7734 8.05469 32.6068 8.20052 32.4297 8.35156L31.1172 9.39844L30.1953 8.23438L33.5859 5.57812H35.1172V17ZM42.4378 9.85938C43.1722 9.85938 43.818 9.99219 44.3753 10.2578C44.9378 10.5182 45.3753 10.9036 45.6878 11.4141C46.0003 11.9193 46.1566 12.5391 46.1566 13.2734C46.1566 14.0755 45.9873 14.7682 45.6488 15.3516C45.3102 15.9297 44.8128 16.375 44.1566 16.6875C43.5003 17 42.7008 17.1562 41.7581 17.1562C41.1592 17.1562 40.5993 17.1042 40.0784 17C39.5628 16.8958 39.1175 16.7396 38.7425 16.5312V14.875C39.1331 15.0938 39.6019 15.2734 40.1488 15.4141C40.6956 15.5495 41.2191 15.6172 41.7191 15.6172C42.2503 15.6172 42.706 15.5391 43.0863 15.3828C43.4665 15.2266 43.7581 14.987 43.9613 14.6641C44.1696 14.3411 44.2738 13.9323 44.2738 13.4375C44.2738 12.7812 44.0628 12.276 43.6409 11.9219C43.2243 11.5625 42.5706 11.3828 41.68 11.3828C41.3675 11.3828 41.0342 11.4115 40.68 11.4688C40.331 11.5208 40.0394 11.5781 39.805 11.6406L39.0003 11.1641L39.43 5.57812H45.3675V7.19531H41.0472L40.7972 10.0391C40.9847 9.9974 41.2086 9.95833 41.4691 9.92188C41.7295 9.88021 42.0524 9.85938 42.4378 9.85938ZM47.235 13.4844V11.9297H51.2663V13.4844H47.235ZM57.6259 17H55.7822V9.64844C55.7822 9.40365 55.7848 9.15885 55.79 8.91406C55.7952 8.66927 55.8004 8.42969 55.8056 8.19531C55.816 7.96094 55.8291 7.73698 55.8447 7.52344C55.7353 7.64323 55.5999 7.77344 55.4384 7.91406C55.2822 8.05469 55.1155 8.20052 54.9384 8.35156L53.6259 9.39844L52.7041 8.23438L56.0947 5.57812H57.6259V17ZM68.7825 10.4453C68.7825 11.1224 68.733 11.7865 68.6341 12.4375C68.5403 13.0885 68.3736 13.6979 68.1341 14.2656C67.8997 14.8333 67.5742 15.3359 67.1575 15.7734C66.746 16.2057 66.2252 16.5443 65.595 16.7891C64.9648 17.0339 64.2044 17.1562 63.3137 17.1562C63.0898 17.1562 62.8294 17.1432 62.5325 17.1172C62.2408 17.0964 62.0012 17.0651 61.8137 17.0234V15.4922C62.0117 15.5495 62.233 15.5964 62.4778 15.6328C62.7278 15.6641 62.9752 15.6797 63.22 15.6797C64.1835 15.6797 64.9335 15.5 65.47 15.1406C66.0117 14.7812 66.3945 14.2865 66.6184 13.6562C66.8476 13.026 66.9778 12.3099 67.0091 11.5078H66.9153C66.7643 11.7578 66.5742 11.987 66.345 12.1953C66.1158 12.3984 65.832 12.5625 65.4934 12.6875C65.1549 12.8073 64.7434 12.8672 64.2591 12.8672C63.6028 12.8672 63.0299 12.7292 62.5403 12.4531C62.0559 12.1771 61.6783 11.776 61.4075 11.25C61.1419 10.7188 61.0091 10.0807 61.0091 9.33594C61.0091 8.52865 61.1627 7.83333 61.47 7.25C61.7773 6.66667 62.2122 6.21875 62.7747 5.90625C63.3372 5.58854 63.9986 5.42969 64.7591 5.42969C65.332 5.42969 65.8606 5.53385 66.345 5.74219C66.8346 5.94531 67.2617 6.25781 67.6262 6.67969C67.9908 7.09635 68.2747 7.61979 68.4778 8.25C68.6809 8.875 68.7825 9.60677 68.7825 10.4453ZM64.7825 6.94531C64.2044 6.94531 63.733 7.14062 63.3684 7.53125C63.0039 7.91667 62.8216 8.51042 62.8216 9.3125C62.8216 9.96354 62.9778 10.4792 63.2903 10.8594C63.6028 11.2396 64.082 11.4297 64.7278 11.4297C65.1757 11.4297 65.5611 11.3385 65.8841 11.1562C66.2122 10.9688 66.4648 10.7318 66.6419 10.4453C66.8242 10.1589 66.9153 9.86719 66.9153 9.57031C66.9153 9.26302 66.871 8.95573 66.7825 8.64844C66.6992 8.34115 66.569 8.0599 66.3919 7.80469C66.2148 7.54948 65.9908 7.34375 65.72 7.1875C65.4544 7.02604 65.1419 6.94531 64.7825 6.94531ZM77.7206 8.1875C78.8144 8.1875 79.6399 8.42969 80.1972 8.91406C80.7597 9.39844 81.0409 10.1536 81.0409 11.1797V17H79.7363L79.3847 15.7734H79.3222C79.0774 16.0859 78.8248 16.3438 78.5644 16.5469C78.304 16.75 78.0019 16.901 77.6581 17C77.3196 17.1042 76.9055 17.1562 76.4159 17.1562C75.9003 17.1562 75.4394 17.0625 75.0331 16.875C74.6269 16.6823 74.3066 16.3906 74.0722 16C73.8378 15.6094 73.7206 15.1146 73.7206 14.5156C73.7206 13.625 74.0514 12.9557 74.7128 12.5078C75.3795 12.0599 76.3847 11.8125 77.7284 11.7656L79.2284 11.7109V11.2578C79.2284 10.6589 79.0878 10.2318 78.8066 9.97656C78.5305 9.72135 78.1399 9.59375 77.6347 9.59375C77.2024 9.59375 76.7831 9.65625 76.3769 9.78125C75.9706 9.90625 75.5748 10.0599 75.1894 10.2422L74.5956 8.94531C75.0175 8.72135 75.4967 8.53906 76.0331 8.39844C76.5748 8.25781 77.1373 8.1875 77.7206 8.1875ZM79.2206 12.8672L78.1034 12.9062C77.1868 12.9375 76.5435 13.0938 76.1738 13.375C75.804 13.6562 75.6191 14.0417 75.6191 14.5312C75.6191 14.9583 75.7467 15.2708 76.0019 15.4688C76.2571 15.6615 76.593 15.7578 77.0097 15.7578C77.6451 15.7578 78.1711 15.5781 78.5878 15.2188C79.0097 14.8542 79.2206 14.3203 79.2206 13.6172V12.8672ZM87.7991 8.1875C88.773 8.1875 89.5308 8.4401 90.0725 8.94531C90.6194 9.44531 90.8928 10.25 90.8928 11.3594V17H89.0569V11.7031C89.0569 11.0312 88.9189 10.5286 88.6428 10.1953C88.3668 9.85677 87.9397 9.6875 87.3616 9.6875C86.523 9.6875 85.9397 9.94531 85.6116 10.4609C85.2886 10.9766 85.1272 11.724 85.1272 12.7031V17H83.2912V8.35156H84.7209L84.9787 9.52344H85.0803C85.2678 9.22135 85.4996 8.97396 85.7756 8.78125C86.0569 8.58333 86.3694 8.4349 86.7131 8.33594C87.0621 8.23698 87.4241 8.1875 87.7991 8.1875ZM83.9787 7.29688C84.01 6.93229 84.0777 6.61458 84.1819 6.34375C84.286 6.06771 84.4215 5.83854 84.5881 5.65625C84.76 5.46875 84.9553 5.32812 85.1741 5.23438C85.398 5.14062 85.6402 5.09375 85.9006 5.09375C86.1298 5.09375 86.3485 5.13802 86.5569 5.22656C86.7704 5.3151 86.9761 5.41927 87.1741 5.53906C87.3772 5.65365 87.5725 5.75521 87.76 5.84375C87.9527 5.93229 88.1376 5.97656 88.3147 5.97656C88.5178 5.97656 88.6897 5.90365 88.8303 5.75781C88.9761 5.61198 89.0855 5.38542 89.1584 5.07812H90.1194C90.0569 5.79688 89.8511 6.34635 89.5022 6.72656C89.1532 7.10156 88.7183 7.28906 88.1975 7.28906C87.9787 7.28906 87.7626 7.24479 87.5491 7.15625C87.3407 7.0625 87.1376 6.95833 86.9397 6.84375C86.7418 6.72917 86.5465 6.6276 86.3537 6.53906C86.161 6.45052 85.9735 6.40625 85.7912 6.40625C85.5829 6.40625 85.4058 6.47917 85.26 6.625C85.1194 6.77083 85.0152 6.99479 84.9475 7.29688H83.9787ZM100.799 12.6562C100.799 13.375 100.706 14.013 100.518 14.5703C100.331 15.1276 100.057 15.599 99.6978 15.9844C99.3384 16.3646 98.9061 16.6562 98.4009 16.8594C97.8957 17.0573 97.3254 17.1562 96.69 17.1562C96.0962 17.1562 95.552 17.0573 95.0572 16.8594C94.5624 16.6562 94.1327 16.3646 93.7681 15.9844C93.4087 15.599 93.1301 15.1276 92.9322 14.5703C92.7343 14.013 92.6353 13.375 92.6353 12.6562C92.6353 11.7031 92.7994 10.8958 93.1275 10.2344C93.4608 9.56771 93.9348 9.0599 94.5494 8.71094C95.164 8.36198 95.8957 8.1875 96.7447 8.1875C97.5416 8.1875 98.2447 8.36198 98.8541 8.71094C99.4634 9.0599 99.94 9.56771 100.284 10.2344C100.627 10.901 100.799 11.7083 100.799 12.6562ZM94.5259 12.6562C94.5259 13.2865 94.6015 13.8255 94.7525 14.2734C94.9087 14.7214 95.1483 15.0651 95.4712 15.3047C95.7942 15.5391 96.2108 15.6562 96.7212 15.6562C97.2317 15.6562 97.6483 15.5391 97.9712 15.3047C98.2942 15.0651 98.5311 14.7214 98.6822 14.2734C98.8332 13.8255 98.9087 13.2865 98.9087 12.6562C98.9087 12.026 98.8332 11.4922 98.6822 11.0547C98.5311 10.612 98.2942 10.276 97.9712 10.0469C97.6483 9.8125 97.2291 9.69531 96.7134 9.69531C95.953 9.69531 95.3983 9.95052 95.0494 10.4609C94.7004 10.9714 94.5259 11.7031 94.5259 12.6562ZM108.401 14.5312C108.401 15.099 108.263 15.5781 107.987 15.9688C107.711 16.3594 107.308 16.6562 106.776 16.8594C106.25 17.0573 105.604 17.1562 104.839 17.1562C104.235 17.1562 103.714 17.112 103.276 17.0234C102.844 16.9401 102.435 16.8099 102.05 16.6328V15.0469C102.461 15.2396 102.922 15.4062 103.433 15.5469C103.948 15.6875 104.435 15.7578 104.893 15.7578C105.498 15.7578 105.933 15.6641 106.198 15.4766C106.464 15.2839 106.597 15.0286 106.597 14.7109C106.597 14.5234 106.542 14.3568 106.433 14.2109C106.328 14.0599 106.13 13.9062 105.839 13.75C105.552 13.5885 105.13 13.3958 104.573 13.1719C104.026 12.9531 103.565 12.7344 103.19 12.5156C102.815 12.2969 102.531 12.0339 102.339 11.7266C102.146 11.4141 102.05 11.0156 102.05 10.5312C102.05 9.76562 102.352 9.1849 102.956 8.78906C103.565 8.38802 104.37 8.1875 105.37 8.1875C105.901 8.1875 106.401 8.24219 106.87 8.35156C107.344 8.45573 107.808 8.60938 108.261 8.8125L107.683 10.1953C107.292 10.0234 106.899 9.88281 106.503 9.77344C106.112 9.65885 105.714 9.60156 105.308 9.60156C104.834 9.60156 104.472 9.67448 104.222 9.82031C103.977 9.96615 103.854 10.1745 103.854 10.4453C103.854 10.6484 103.914 10.8203 104.034 10.9609C104.154 11.1016 104.36 11.2422 104.651 11.3828C104.948 11.5234 105.36 11.6979 105.886 11.9062C106.401 12.1042 106.847 12.3125 107.222 12.5312C107.602 12.7448 107.893 13.0078 108.097 13.3203C108.3 13.6328 108.401 14.0365 108.401 14.5312Z" fill="#ADADAD"/>
<path d="M38.2021 31.0244C38.2021 31.8271 37.959 32.5098 37.4727 33.0723C36.9863 33.6348 36.3037 34.0215 35.4248 34.2324V34.2852C36.4619 34.4141 37.2471 34.7305 37.7803 35.2344C38.3135 35.7324 38.5801 36.4062 38.5801 37.2559C38.5801 38.4922 38.1318 39.4561 37.2354 40.1475C36.3389 40.833 35.0586 41.1758 33.3945 41.1758C32 41.1758 30.7637 40.9443 29.6855 40.4814V38.1699C30.1836 38.4219 30.7314 38.627 31.3291 38.7852C31.9268 38.9434 32.5186 39.0225 33.1045 39.0225C34.001 39.0225 34.6631 38.8701 35.0908 38.5654C35.5186 38.2607 35.7324 37.7715 35.7324 37.0977C35.7324 36.4941 35.4863 36.0664 34.9941 35.8145C34.502 35.5625 33.7168 35.4365 32.6387 35.4365H31.6631V33.3535H32.6562C33.6523 33.3535 34.3789 33.2246 34.8359 32.9668C35.2988 32.7031 35.5303 32.2549 35.5303 31.6221C35.5303 30.6494 34.9209 30.1631 33.7021 30.1631C33.2803 30.1631 32.8496 30.2334 32.4102 30.374C31.9766 30.5146 31.4932 30.7578 30.96 31.1035L29.7031 29.2314C30.875 28.3877 32.2725 27.9658 33.8955 27.9658C35.2256 27.9658 36.2744 28.2354 37.042 28.7744C37.8154 29.3135 38.2021 30.0635 38.2021 31.0244ZM48.9164 38.3369H47.3695V41H44.7152V38.3369H39.2308V36.4473L44.8646 28.1504H47.3695V36.2275H48.9164V38.3369ZM44.7152 36.2275V34.0479C44.7152 33.6846 44.7298 33.1572 44.7591 32.4658C44.7884 31.7744 44.8119 31.373 44.8295 31.2617H44.7591C44.5423 31.7422 44.2816 32.2109 43.9769 32.668L41.6214 36.2275H44.7152ZM54.2429 32.791C55.4851 32.791 56.4724 33.1396 57.2048 33.8369C57.9431 34.5342 58.3122 35.4893 58.3122 36.7021C58.3122 38.1377 57.8698 39.2422 56.9851 40.0156C56.1003 40.7891 54.8347 41.1758 53.1882 41.1758C51.7585 41.1758 50.6042 40.9443 49.7253 40.4814V38.1348C50.1882 38.3809 50.7273 38.583 51.3425 38.7412C51.9577 38.8936 52.5407 38.9697 53.0915 38.9697C54.7497 38.9697 55.5788 38.29 55.5788 36.9307C55.5788 35.6357 54.7204 34.9883 53.0036 34.9883C52.6931 34.9883 52.3503 35.0205 51.9753 35.085C51.6003 35.1436 51.2956 35.208 51.0613 35.2783L49.9802 34.6982L50.4636 28.1504H57.4333V30.4531H52.8454L52.6081 32.9756L52.9157 32.9141C53.2732 32.832 53.7155 32.791 54.2429 32.791Z" fill="black"/>
<circle cx="139.5" cy="11" r="9.5" fill="#B60062"/>
<path d="M167.453 17H159.719V15.6172L162.68 12.6172C163.253 12.0339 163.724 11.5312 164.094 11.1094C164.464 10.6823 164.737 10.2786 164.914 9.89844C165.096 9.51823 165.188 9.10417 165.188 8.65625C165.188 8.10417 165.029 7.6875 164.711 7.40625C164.393 7.11979 163.974 6.97656 163.453 6.97656C162.958 6.97656 162.5 7.07552 162.078 7.27344C161.661 7.46615 161.229 7.74219 160.781 8.10156L159.773 6.89062C160.091 6.61979 160.43 6.3724 160.789 6.14844C161.154 5.92448 161.56 5.7474 162.008 5.61719C162.456 5.48177 162.966 5.41406 163.539 5.41406C164.263 5.41406 164.888 5.54427 165.414 5.80469C165.94 6.0599 166.344 6.41667 166.625 6.875C166.911 7.33333 167.055 7.86719 167.055 8.47656C167.055 9.09115 166.932 9.65885 166.688 10.1797C166.443 10.7005 166.094 11.2161 165.641 11.7266C165.188 12.2318 164.648 12.7812 164.023 13.375L162.047 15.3047V15.3906H167.453V17ZM176.289 11.2812C176.289 12.2031 176.216 13.0286 176.071 13.7578C175.93 14.4818 175.706 15.0964 175.399 15.6016C175.091 16.1068 174.69 16.4922 174.196 16.7578C173.701 17.0234 173.102 17.1562 172.399 17.1562C171.519 17.1562 170.792 16.9245 170.219 16.4609C169.646 15.9922 169.222 15.3203 168.946 14.4453C168.67 13.5651 168.532 12.5104 168.532 11.2812C168.532 10.0521 168.657 9 168.907 8.125C169.162 7.24479 169.573 6.57031 170.141 6.10156C170.709 5.63281 171.461 5.39844 172.399 5.39844C173.284 5.39844 174.013 5.63281 174.586 6.10156C175.164 6.5651 175.591 7.23698 175.868 8.11719C176.149 8.99219 176.289 10.0469 176.289 11.2812ZM170.383 11.2812C170.383 12.2448 170.446 13.0495 170.571 13.6953C170.701 14.3411 170.914 14.8255 171.211 15.1484C171.508 15.4661 171.904 15.625 172.399 15.625C172.894 15.625 173.289 15.4661 173.586 15.1484C173.883 14.8307 174.097 14.349 174.227 13.7031C174.362 13.0573 174.43 12.25 174.43 11.2812C174.43 10.3229 174.365 9.52083 174.235 8.875C174.104 8.22917 173.891 7.74479 173.594 7.42188C173.297 7.09375 172.899 6.92969 172.399 6.92969C171.899 6.92969 171.5 7.09375 171.203 7.42188C170.912 7.74479 170.701 8.22917 170.571 8.875C170.446 9.52083 170.383 10.3229 170.383 11.2812ZM177.235 13.4844V11.9297H181.266V13.4844H177.235ZM189.962 17H182.228V15.6172L185.188 12.6172C185.761 12.0339 186.233 11.5312 186.603 11.1094C186.972 10.6823 187.246 10.2786 187.423 9.89844C187.605 9.51823 187.696 9.10417 187.696 8.65625C187.696 8.10417 187.537 7.6875 187.22 7.40625C186.902 7.11979 186.483 6.97656 185.962 6.97656C185.467 6.97656 185.009 7.07552 184.587 7.27344C184.17 7.46615 183.738 7.74219 183.29 8.10156L182.282 6.89062C182.6 6.61979 182.938 6.3724 183.298 6.14844C183.662 5.92448 184.069 5.7474 184.517 5.61719C184.964 5.48177 185.475 5.41406 186.048 5.41406C186.772 5.41406 187.397 5.54427 187.923 5.80469C188.449 6.0599 188.853 6.41667 189.134 6.875C189.42 7.33333 189.563 7.86719 189.563 8.47656C189.563 9.09115 189.441 9.65885 189.196 10.1797C188.951 10.7005 188.603 11.2161 188.149 11.7266C187.696 12.2318 187.157 12.7812 186.532 13.375L184.556 15.3047V15.3906H189.962V17ZM199.212 14.4922H197.665V17H195.853V14.4922H190.657V13.1016L195.876 5.54688H197.665V12.9688H199.212V14.4922ZM195.853 12.9688V10.1328C195.853 9.89844 195.855 9.66146 195.861 9.42188C195.871 9.17708 195.881 8.94271 195.892 8.71875C195.902 8.49479 195.913 8.28906 195.923 8.10156C195.934 7.90885 195.941 7.75 195.947 7.625H195.884C195.785 7.83333 195.676 8.04688 195.556 8.26562C195.436 8.47917 195.309 8.6875 195.173 8.89062L192.361 12.9688H195.853ZM207.721 8.1875C208.814 8.1875 209.64 8.42969 210.197 8.91406C210.76 9.39844 211.041 10.1536 211.041 11.1797V17H209.736L209.385 15.7734H209.322C209.077 16.0859 208.825 16.3438 208.564 16.5469C208.304 16.75 208.002 16.901 207.658 17C207.32 17.1042 206.906 17.1562 206.416 17.1562C205.9 17.1562 205.439 17.0625 205.033 16.875C204.627 16.6823 204.307 16.3906 204.072 16C203.838 15.6094 203.721 15.1146 203.721 14.5156C203.721 13.625 204.051 12.9557 204.713 12.5078C205.379 12.0599 206.385 11.8125 207.728 11.7656L209.228 11.7109V11.2578C209.228 10.6589 209.088 10.2318 208.807 9.97656C208.531 9.72135 208.14 9.59375 207.635 9.59375C207.202 9.59375 206.783 9.65625 206.377 9.78125C205.971 9.90625 205.575 10.0599 205.189 10.2422L204.596 8.94531C205.018 8.72135 205.497 8.53906 206.033 8.39844C206.575 8.25781 207.137 8.1875 207.721 8.1875ZM209.221 12.8672L208.103 12.9062C207.187 12.9375 206.544 13.0938 206.174 13.375C205.804 13.6562 205.619 14.0417 205.619 14.5312C205.619 14.9583 205.747 15.2708 206.002 15.4688C206.257 15.6615 206.593 15.7578 207.01 15.7578C207.645 15.7578 208.171 15.5781 208.588 15.2188C209.01 14.8542 209.221 14.3203 209.221 13.6172V12.8672ZM217.799 8.1875C218.773 8.1875 219.531 8.4401 220.072 8.94531C220.619 9.44531 220.893 10.25 220.893 11.3594V17H219.057V11.7031C219.057 11.0312 218.919 10.5286 218.643 10.1953C218.367 9.85677 217.94 9.6875 217.362 9.6875C216.523 9.6875 215.94 9.94531 215.612 10.4609C215.289 10.9766 215.127 11.724 215.127 12.7031V17H213.291V8.35156H214.721L214.979 9.52344H215.08C215.268 9.22135 215.5 8.97396 215.776 8.78125C216.057 8.58333 216.369 8.4349 216.713 8.33594C217.062 8.23698 217.424 8.1875 217.799 8.1875ZM213.979 7.29688C214.01 6.93229 214.078 6.61458 214.182 6.34375C214.286 6.06771 214.421 5.83854 214.588 5.65625C214.76 5.46875 214.955 5.32812 215.174 5.23438C215.398 5.14062 215.64 5.09375 215.901 5.09375C216.13 5.09375 216.349 5.13802 216.557 5.22656C216.77 5.3151 216.976 5.41927 217.174 5.53906C217.377 5.65365 217.572 5.75521 217.76 5.84375C217.953 5.93229 218.138 5.97656 218.315 5.97656C218.518 5.97656 218.69 5.90365 218.83 5.75781C218.976 5.61198 219.086 5.38542 219.158 5.07812H220.119C220.057 5.79688 219.851 6.34635 219.502 6.72656C219.153 7.10156 218.718 7.28906 218.197 7.28906C217.979 7.28906 217.763 7.24479 217.549 7.15625C217.341 7.0625 217.138 6.95833 216.94 6.84375C216.742 6.72917 216.546 6.6276 216.354 6.53906C216.161 6.45052 215.974 6.40625 215.791 6.40625C215.583 6.40625 215.406 6.47917 215.26 6.625C215.119 6.77083 215.015 6.99479 214.947 7.29688H213.979ZM230.799 12.6562C230.799 13.375 230.706 14.013 230.518 14.5703C230.331 15.1276 230.057 15.599 229.698 15.9844C229.338 16.3646 228.906 16.6562 228.401 16.8594C227.896 17.0573 227.325 17.1562 226.69 17.1562C226.096 17.1562 225.552 17.0573 225.057 16.8594C224.562 16.6562 224.133 16.3646 223.768 15.9844C223.409 15.599 223.13 15.1276 222.932 14.5703C222.734 14.013 222.635 13.375 222.635 12.6562C222.635 11.7031 222.799 10.8958 223.127 10.2344C223.461 9.56771 223.935 9.0599 224.549 8.71094C225.164 8.36198 225.896 8.1875 226.745 8.1875C227.542 8.1875 228.245 8.36198 228.854 8.71094C229.463 9.0599 229.94 9.56771 230.284 10.2344C230.627 10.901 230.799 11.7083 230.799 12.6562ZM224.526 12.6562C224.526 13.2865 224.601 13.8255 224.752 14.2734C224.909 14.7214 225.148 15.0651 225.471 15.3047C225.794 15.5391 226.211 15.6562 226.721 15.6562C227.232 15.6562 227.648 15.5391 227.971 15.3047C228.294 15.0651 228.531 14.7214 228.682 14.2734C228.833 13.8255 228.909 13.2865 228.909 12.6562C228.909 12.026 228.833 11.4922 228.682 11.0547C228.531 10.612 228.294 10.276 227.971 10.0469C227.648 9.8125 227.229 9.69531 226.713 9.69531C225.953 9.69531 225.398 9.95052 225.049 10.4609C224.7 10.9714 224.526 11.7031 224.526 12.6562ZM238.401 14.5312C238.401 15.099 238.263 15.5781 237.987 15.9688C237.711 16.3594 237.308 16.6562 236.776 16.8594C236.25 17.0573 235.604 17.1562 234.839 17.1562C234.235 17.1562 233.714 17.112 233.276 17.0234C232.844 16.9401 232.435 16.8099 232.05 16.6328V15.0469C232.461 15.2396 232.922 15.4062 233.433 15.5469C233.948 15.6875 234.435 15.7578 234.893 15.7578C235.498 15.7578 235.933 15.6641 236.198 15.4766C236.464 15.2839 236.597 15.0286 236.597 14.7109C236.597 14.5234 236.542 14.3568 236.433 14.2109C236.328 14.0599 236.13 13.9062 235.839 13.75C235.552 13.5885 235.13 13.3958 234.573 13.1719C234.026 12.9531 233.565 12.7344 233.19 12.5156C232.815 12.2969 232.531 12.0339 232.339 11.7266C232.146 11.4141 232.05 11.0156 232.05 10.5312C232.05 9.76562 232.352 9.1849 232.956 8.78906C233.565 8.38802 234.37 8.1875 235.37 8.1875C235.901 8.1875 236.401 8.24219 236.87 8.35156C237.344 8.45573 237.808 8.60938 238.261 8.8125L237.683 10.1953C237.292 10.0234 236.899 9.88281 236.503 9.77344C236.112 9.65885 235.714 9.60156 235.308 9.60156C234.834 9.60156 234.472 9.67448 234.222 9.82031C233.977 9.96615 233.854 10.1745 233.854 10.4453C233.854 10.6484 233.914 10.8203 234.034 10.9609C234.154 11.1016 234.36 11.2422 234.651 11.3828C234.948 11.5234 235.36 11.6979 235.886 11.9062C236.401 12.1042 236.847 12.3125 237.222 12.5312C237.602 12.7448 237.893 13.0078 238.097 13.3203C238.3 13.6328 238.401 14.0365 238.401 14.5312Z" fill="#ADADAD"/>
<path d="M166.436 41H163.72V33.5645L163.746 32.3428L163.79 31.0068C163.339 31.458 163.025 31.7539 162.85 31.8945L161.373 33.0811L160.063 31.4463L164.203 28.1504H166.436V41ZM178.916 38.3369H177.369V41H174.715V38.3369H169.231V36.4473L174.865 28.1504H177.369V36.2275H178.916V38.3369ZM174.715 36.2275V34.0479C174.715 33.6846 174.73 33.1572 174.759 32.4658C174.788 31.7744 174.812 31.373 174.829 31.2617H174.759C174.542 31.7422 174.282 32.2109 173.977 32.668L171.621 36.2275H174.715ZM184.243 32.791C185.485 32.791 186.472 33.1396 187.205 33.8369C187.943 34.5342 188.312 35.4893 188.312 36.7021C188.312 38.1377 187.87 39.2422 186.985 40.0156C186.1 40.7891 184.835 41.1758 183.188 41.1758C181.759 41.1758 180.604 40.9443 179.725 40.4814V38.1348C180.188 38.3809 180.727 38.583 181.343 38.7412C181.958 38.8936 182.541 38.9697 183.092 38.9697C184.75 38.9697 185.579 38.29 185.579 36.9307C185.579 35.6357 184.72 34.9883 183.004 34.9883C182.693 34.9883 182.35 35.0205 181.975 35.085C181.6 35.1436 181.296 35.208 181.061 35.2783L179.98 34.6982L180.464 28.1504H187.433V30.4531H182.845L182.608 32.9756L182.916 32.9141C183.273 32.832 183.716 32.791 184.243 32.791Z" fill="black"/>
<circle cx="269.5" cy="11" r="9.5" fill="#65ADC7"/>
<path d="M297.453 17H289.719V15.6172L292.68 12.6172C293.253 12.0339 293.724 11.5312 294.094 11.1094C294.464 10.6823 294.737 10.2786 294.914 9.89844C295.096 9.51823 295.188 9.10417 295.188 8.65625C295.188 8.10417 295.029 7.6875 294.711 7.40625C294.393 7.11979 293.974 6.97656 293.453 6.97656C292.958 6.97656 292.5 7.07552 292.078 7.27344C291.661 7.46615 291.229 7.74219 290.781 8.10156L289.773 6.89062C290.091 6.61979 290.43 6.3724 290.789 6.14844C291.154 5.92448 291.56 5.7474 292.008 5.61719C292.456 5.48177 292.966 5.41406 293.539 5.41406C294.263 5.41406 294.888 5.54427 295.414 5.80469C295.94 6.0599 296.344 6.41667 296.625 6.875C296.911 7.33333 297.055 7.86719 297.055 8.47656C297.055 9.09115 296.932 9.65885 296.688 10.1797C296.443 10.7005 296.094 11.2161 295.641 11.7266C295.188 12.2318 294.648 12.7812 294.023 13.375L292.047 15.3047V15.3906H297.453V17ZM302.438 9.85938C303.172 9.85938 303.818 9.99219 304.375 10.2578C304.938 10.5182 305.375 10.9036 305.688 11.4141C306 11.9193 306.157 12.5391 306.157 13.2734C306.157 14.0755 305.987 14.7682 305.649 15.3516C305.31 15.9297 304.813 16.375 304.157 16.6875C303.5 17 302.701 17.1562 301.758 17.1562C301.159 17.1562 300.599 17.1042 300.078 17C299.563 16.8958 299.118 16.7396 298.743 16.5312V14.875C299.133 15.0938 299.602 15.2734 300.149 15.4141C300.696 15.5495 301.219 15.6172 301.719 15.6172C302.25 15.6172 302.706 15.5391 303.086 15.3828C303.466 15.2266 303.758 14.987 303.961 14.6641C304.17 14.3411 304.274 13.9323 304.274 13.4375C304.274 12.7812 304.063 12.276 303.641 11.9219C303.224 11.5625 302.571 11.3828 301.68 11.3828C301.368 11.3828 301.034 11.4115 300.68 11.4688C300.331 11.5208 300.039 11.5781 299.805 11.6406L299 11.1641L299.43 5.57812H305.368V7.19531H301.047L300.797 10.0391C300.985 9.9974 301.209 9.95833 301.469 9.92188C301.729 9.88021 302.052 9.85938 302.438 9.85938ZM307.235 13.4844V11.9297H311.266V13.4844H307.235ZM319.962 17H312.228V15.6172L315.188 12.6172C315.761 12.0339 316.233 11.5312 316.603 11.1094C316.972 10.6823 317.246 10.2786 317.423 9.89844C317.605 9.51823 317.696 9.10417 317.696 8.65625C317.696 8.10417 317.537 7.6875 317.22 7.40625C316.902 7.11979 316.483 6.97656 315.962 6.97656C315.467 6.97656 315.009 7.07552 314.587 7.27344C314.17 7.46615 313.738 7.74219 313.29 8.10156L312.282 6.89062C312.6 6.61979 312.938 6.3724 313.298 6.14844C313.662 5.92448 314.069 5.7474 314.517 5.61719C314.964 5.48177 315.475 5.41406 316.048 5.41406C316.772 5.41406 317.397 5.54427 317.923 5.80469C318.449 6.0599 318.853 6.41667 319.134 6.875C319.42 7.33333 319.563 7.86719 319.563 8.47656C319.563 9.09115 319.441 9.65885 319.196 10.1797C318.951 10.7005 318.603 11.2161 318.149 11.7266C317.696 12.2318 317.157 12.7812 316.532 13.375L314.556 15.3047V15.3906H319.962V17ZM328.782 10.4453C328.782 11.1224 328.733 11.7865 328.634 12.4375C328.54 13.0885 328.374 13.6979 328.134 14.2656C327.9 14.8333 327.574 15.3359 327.157 15.7734C326.746 16.2057 326.225 16.5443 325.595 16.7891C324.965 17.0339 324.204 17.1562 323.314 17.1562C323.09 17.1562 322.829 17.1432 322.532 17.1172C322.241 17.0964 322.001 17.0651 321.814 17.0234V15.4922C322.012 15.5495 322.233 15.5964 322.478 15.6328C322.728 15.6641 322.975 15.6797 323.22 15.6797C324.184 15.6797 324.934 15.5 325.47 15.1406C326.012 14.7812 326.394 14.2865 326.618 13.6562C326.848 13.026 326.978 12.3099 327.009 11.5078H326.915C326.764 11.7578 326.574 11.987 326.345 12.1953C326.116 12.3984 325.832 12.5625 325.493 12.6875C325.155 12.8073 324.743 12.8672 324.259 12.8672C323.603 12.8672 323.03 12.7292 322.54 12.4531C322.056 12.1771 321.678 11.776 321.407 11.25C321.142 10.7188 321.009 10.0807 321.009 9.33594C321.009 8.52865 321.163 7.83333 321.47 7.25C321.777 6.66667 322.212 6.21875 322.775 5.90625C323.337 5.58854 323.999 5.42969 324.759 5.42969C325.332 5.42969 325.861 5.53385 326.345 5.74219C326.835 5.94531 327.262 6.25781 327.626 6.67969C327.991 7.09635 328.275 7.61979 328.478 8.25C328.681 8.875 328.782 9.60677 328.782 10.4453ZM324.782 6.94531C324.204 6.94531 323.733 7.14062 323.368 7.53125C323.004 7.91667 322.822 8.51042 322.822 9.3125C322.822 9.96354 322.978 10.4792 323.29 10.8594C323.603 11.2396 324.082 11.4297 324.728 11.4297C325.176 11.4297 325.561 11.3385 325.884 11.1562C326.212 10.9688 326.465 10.7318 326.642 10.4453C326.824 10.1589 326.915 9.86719 326.915 9.57031C326.915 9.26302 326.871 8.95573 326.782 8.64844C326.699 8.34115 326.569 8.0599 326.392 7.80469C326.215 7.54948 325.991 7.34375 325.72 7.1875C325.454 7.02604 325.142 6.94531 324.782 6.94531ZM337.721 8.1875C338.814 8.1875 339.64 8.42969 340.197 8.91406C340.76 9.39844 341.041 10.1536 341.041 11.1797V17H339.736L339.385 15.7734H339.322C339.077 16.0859 338.825 16.3438 338.564 16.5469C338.304 16.75 338.002 16.901 337.658 17C337.32 17.1042 336.906 17.1562 336.416 17.1562C335.9 17.1562 335.439 17.0625 335.033 16.875C334.627 16.6823 334.307 16.3906 334.072 16C333.838 15.6094 333.721 15.1146 333.721 14.5156C333.721 13.625 334.051 12.9557 334.713 12.5078C335.379 12.0599 336.385 11.8125 337.728 11.7656L339.228 11.7109V11.2578C339.228 10.6589 339.088 10.2318 338.807 9.97656C338.531 9.72135 338.14 9.59375 337.635 9.59375C337.202 9.59375 336.783 9.65625 336.377 9.78125C335.971 9.90625 335.575 10.0599 335.189 10.2422L334.596 8.94531C335.018 8.72135 335.497 8.53906 336.033 8.39844C336.575 8.25781 337.137 8.1875 337.721 8.1875ZM339.221 12.8672L338.103 12.9062C337.187 12.9375 336.544 13.0938 336.174 13.375C335.804 13.6562 335.619 14.0417 335.619 14.5312C335.619 14.9583 335.747 15.2708 336.002 15.4688C336.257 15.6615 336.593 15.7578 337.01 15.7578C337.645 15.7578 338.171 15.5781 338.588 15.2188C339.01 14.8542 339.221 14.3203 339.221 13.6172V12.8672ZM347.799 8.1875C348.773 8.1875 349.531 8.4401 350.072 8.94531C350.619 9.44531 350.893 10.25 350.893 11.3594V17H349.057V11.7031C349.057 11.0312 348.919 10.5286 348.643 10.1953C348.367 9.85677 347.94 9.6875 347.362 9.6875C346.523 9.6875 345.94 9.94531 345.612 10.4609C345.289 10.9766 345.127 11.724 345.127 12.7031V17H343.291V8.35156H344.721L344.979 9.52344H345.08C345.268 9.22135 345.5 8.97396 345.776 8.78125C346.057 8.58333 346.369 8.4349 346.713 8.33594C347.062 8.23698 347.424 8.1875 347.799 8.1875ZM343.979 7.29688C344.01 6.93229 344.078 6.61458 344.182 6.34375C344.286 6.06771 344.421 5.83854 344.588 5.65625C344.76 5.46875 344.955 5.32812 345.174 5.23438C345.398 5.14062 345.64 5.09375 345.901 5.09375C346.13 5.09375 346.349 5.13802 346.557 5.22656C346.77 5.3151 346.976 5.41927 347.174 5.53906C347.377 5.65365 347.572 5.75521 347.76 5.84375C347.953 5.93229 348.138 5.97656 348.315 5.97656C348.518 5.97656 348.69 5.90365 348.83 5.75781C348.976 5.61198 349.086 5.38542 349.158 5.07812H350.119C350.057 5.79688 349.851 6.34635 349.502 6.72656C349.153 7.10156 348.718 7.28906 348.197 7.28906C347.979 7.28906 347.763 7.24479 347.549 7.15625C347.341 7.0625 347.138 6.95833 346.94 6.84375C346.742 6.72917 346.546 6.6276 346.354 6.53906C346.161 6.45052 345.974 6.40625 345.791 6.40625C345.583 6.40625 345.406 6.47917 345.26 6.625C345.119 6.77083 345.015 6.99479 344.947 7.29688H343.979ZM360.799 12.6562C360.799 13.375 360.706 14.013 360.518 14.5703C360.331 15.1276 360.057 15.599 359.698 15.9844C359.338 16.3646 358.906 16.6562 358.401 16.8594C357.896 17.0573 357.325 17.1562 356.69 17.1562C356.096 17.1562 355.552 17.0573 355.057 16.8594C354.562 16.6562 354.133 16.3646 353.768 15.9844C353.409 15.599 353.13 15.1276 352.932 14.5703C352.734 14.013 352.635 13.375 352.635 12.6562C352.635 11.7031 352.799 10.8958 353.127 10.2344C353.461 9.56771 353.935 9.0599 354.549 8.71094C355.164 8.36198 355.896 8.1875 356.745 8.1875C357.542 8.1875 358.245 8.36198 358.854 8.71094C359.463 9.0599 359.94 9.56771 360.284 10.2344C360.627 10.901 360.799 11.7083 360.799 12.6562ZM354.526 12.6562C354.526 13.2865 354.601 13.8255 354.752 14.2734C354.909 14.7214 355.148 15.0651 355.471 15.3047C355.794 15.5391 356.211 15.6562 356.721 15.6562C357.232 15.6562 357.648 15.5391 357.971 15.3047C358.294 15.0651 358.531 14.7214 358.682 14.2734C358.833 13.8255 358.909 13.2865 358.909 12.6562C358.909 12.026 358.833 11.4922 358.682 11.0547C358.531 10.612 358.294 10.276 357.971 10.0469C357.648 9.8125 357.229 9.69531 356.713 9.69531C355.953 9.69531 355.398 9.95052 355.049 10.4609C354.7 10.9714 354.526 11.7031 354.526 12.6562ZM368.401 14.5312C368.401 15.099 368.263 15.5781 367.987 15.9688C367.711 16.3594 367.308 16.6562 366.776 16.8594C366.25 17.0573 365.604 17.1562 364.839 17.1562C364.235 17.1562 363.714 17.112 363.276 17.0234C362.844 16.9401 362.435 16.8099 362.05 16.6328V15.0469C362.461 15.2396 362.922 15.4062 363.433 15.5469C363.948 15.6875 364.435 15.7578 364.893 15.7578C365.498 15.7578 365.933 15.6641 366.198 15.4766C366.464 15.2839 366.597 15.0286 366.597 14.7109C366.597 14.5234 366.542 14.3568 366.433 14.2109C366.328 14.0599 366.13 13.9062 365.839 13.75C365.552 13.5885 365.13 13.3958 364.573 13.1719C364.026 12.9531 363.565 12.7344 363.19 12.5156C362.815 12.2969 362.531 12.0339 362.339 11.7266C362.146 11.4141 362.05 11.0156 362.05 10.5312C362.05 9.76562 362.352 9.1849 362.956 8.78906C363.565 8.38802 364.37 8.1875 365.37 8.1875C365.901 8.1875 366.401 8.24219 366.87 8.35156C367.344 8.45573 367.808 8.60938 368.261 8.8125L367.683 10.1953C367.292 10.0234 366.899 9.88281 366.503 9.77344C366.112 9.65885 365.714 9.60156 365.308 9.60156C364.834 9.60156 364.472 9.67448 364.222 9.82031C363.977 9.96615 363.854 10.1745 363.854 10.4453C363.854 10.6484 363.914 10.8203 364.034 10.9609C364.154 11.1016 364.36 11.2422 364.651 11.3828C364.948 11.5234 365.36 11.6979 365.886 11.9062C366.401 12.1042 366.847 12.3125 367.222 12.5312C367.602 12.7448 367.893 13.0078 368.097 13.3203C368.3 13.6328 368.401 14.0365 368.401 14.5312Z" fill="#ADADAD"/>
<path d="M298.703 41H289.721V39.1104L292.946 35.8496C293.901 34.8711 294.525 34.1943 294.818 33.8193C295.111 33.4385 295.322 33.0869 295.451 32.7646C295.58 32.4424 295.645 32.1084 295.645 31.7627C295.645 31.2471 295.501 30.8633 295.214 30.6113C294.933 30.3594 294.555 30.2334 294.08 30.2334C293.582 30.2334 293.099 30.3477 292.63 30.5762C292.161 30.8047 291.672 31.1299 291.162 31.5518L289.686 29.8027C290.318 29.2637 290.843 28.8828 291.259 28.6602C291.675 28.4375 292.129 28.2676 292.621 28.1504C293.113 28.0273 293.664 27.9658 294.273 27.9658C295.076 27.9658 295.785 28.1123 296.4 28.4053C297.016 28.6982 297.493 29.1084 297.833 29.6357C298.173 30.1631 298.343 30.7666 298.343 31.4463C298.343 32.0381 298.237 32.5947 298.026 33.1162C297.821 33.6318 297.499 34.1621 297.06 34.707C296.626 35.252 295.858 36.0283 294.757 37.0361L293.104 38.5918V38.7148H298.703V41ZM304.32 32.791C305.562 32.791 306.549 33.1396 307.282 33.8369C308.02 34.5342 308.389 35.4893 308.389 36.7021C308.389 38.1377 307.947 39.2422 307.062 40.0156C306.177 40.7891 304.911 41.1758 303.265 41.1758C301.835 41.1758 300.681 40.9443 299.802 40.4814V38.1348C300.265 38.3809 300.804 38.583 301.419 38.7412C302.035 38.8936 302.618 38.9697 303.168 38.9697C304.827 38.9697 305.656 38.29 305.656 36.9307C305.656 35.6357 304.797 34.9883 303.08 34.9883C302.77 34.9883 302.427 35.0205 302.052 35.085C301.677 35.1436 301.372 35.208 301.138 35.2783L300.057 34.6982L300.54 28.1504H307.51V30.4531H302.922L302.685 32.9756L302.993 32.9141C303.35 32.832 303.792 32.791 304.32 32.791ZM318.479 34.5752C318.479 36.8193 318.11 38.4805 317.372 39.5586C316.639 40.6367 315.509 41.1758 313.979 41.1758C312.497 41.1758 311.378 40.6191 310.622 39.5059C309.872 38.3926 309.497 36.749 309.497 34.5752C309.497 32.3076 309.863 30.6377 310.595 29.5654C311.328 28.4873 312.456 27.9482 313.979 27.9482C315.462 27.9482 316.581 28.5107 317.337 29.6357C318.098 30.7607 318.479 32.4072 318.479 34.5752ZM312.195 34.5752C312.195 36.1514 312.33 37.2822 312.599 37.9678C312.875 38.6475 313.335 38.9873 313.979 38.9873C314.612 38.9873 315.069 38.6416 315.35 37.9502C315.632 37.2588 315.772 36.1338 315.772 34.5752C315.772 32.999 315.629 31.8682 315.342 31.1826C315.06 30.4912 314.606 30.1455 313.979 30.1455C313.341 30.1455 312.884 30.4912 312.608 31.1826C312.333 31.8682 312.195 32.999 312.195 34.5752Z" fill="black"/>
</svg>
