<svg width="98" height="100" viewBox="0 0 98 100" fill="none" xmlns="http://www.w3.org/2000/svg">
<path opacity="0.1" d="M49.0187 85.4839C68.5116 85.4839 84.3138 69.6818 84.3138 50.1889C84.3138 30.6959 68.5116 14.8938 49.0187 14.8938C29.5258 14.8938 13.7236 30.6959 13.7236 50.1889C13.7236 69.6818 29.5258 85.4839 49.0187 85.4839Z" stroke="#E8B000" stroke-width="3" stroke-miterlimit="10"/>
<path d="M93.395 56.1405C93.62 55.5899 94.1212 55.3669 94.6866 55.5978C95.2519 55.8287 95.4542 56.3388 95.2292 56.8893L94.3254 59.1054L96.5415 60.0102C97.1069 60.2401 97.3091 60.7512 97.0842 61.3007C96.8592 61.8503 96.358 62.0743 95.7926 61.8444L93.5766 60.9436L92.6718 63.1596C92.4478 63.7102 91.9466 63.9332 91.3802 63.7023C90.8139 63.4714 90.6136 62.9613 90.8376 62.4107L91.7414 60.1907L89.5253 59.286C88.9599 59.0551 88.7577 58.545 88.9826 57.9954C89.2076 57.4458 89.7078 57.2218 90.2742 57.4517L92.4902 58.3565L93.395 56.1405Z" fill="#2E3192"/>
<path d="M27.3355 39.9423C27.5594 39.3917 28.0607 39.1678 28.626 39.3986C29.1914 39.6295 29.3936 40.1406 29.1687 40.6902L28.2649 42.9062L30.4809 43.811C31.0463 44.0419 31.2486 44.552 31.0236 45.1026C30.7987 45.6531 30.2974 45.8761 29.7321 45.6452L27.516 44.7405L26.6112 46.9575C26.3873 47.5071 25.886 47.7311 25.3207 47.5002C24.7553 47.2693 24.5531 46.7592 24.777 46.2086L25.6818 43.9926L23.4638 43.0848C22.8984 42.854 22.6961 42.3438 22.9211 41.7933C23.1461 41.2427 23.6463 41.0197 24.2127 41.2506L26.4287 42.1554L27.3355 39.9423Z" fill="#2E3192"/>
<path d="M92.1284 13.1306C94.0498 13.1306 95.6074 11.573 95.6074 9.6516C95.6074 7.7302 94.0498 6.17261 92.1284 6.17261C90.207 6.17261 88.6494 7.7302 88.6494 9.6516C88.6494 11.573 90.207 13.1306 92.1284 13.1306Z" stroke="#2E3192" stroke-width="3" stroke-linecap="round" stroke-linejoin="round"/>
<path d="M42.3938 2C42.3938 2 82.7485 3.3547 81.6631 33.1481C81.6631 33.1481 80.5778 45.3364 75.975 52.1079C75.975 52.1079 60.2653 54.2786 46.9936 39.1066C46.9975 39.1066 36.9809 27.7313 42.3938 2Z" stroke="#65ADC7" stroke-width="3" stroke-linecap="round" stroke-linejoin="round"/>
<path d="M79.7705 75.6716C79.2289 45.6068 59.457 23.9435 59.457 23.9435" stroke="#65ADC7" stroke-width="3" stroke-linecap="round" stroke-linejoin="round"/>
<path d="M5.49741 58.3703H17.7725C18.2639 58.3703 18.7497 58.4738 19.1984 58.6742C19.647 58.8745 20.0484 59.1671 20.3763 59.533C20.7043 59.8988 20.9515 60.3297 21.1018 60.7975C21.2521 61.2653 21.3021 61.7595 21.2486 62.2479L17.6689 94.8849C17.5726 95.7621 17.1482 96.5704 16.4808 97.1477C15.8135 97.7251 14.9525 98.0288 14.0706 97.9978L6.00851 97.7157C5.11531 97.6843 4.26801 97.3122 3.64064 96.6756C3.01327 96.0391 2.65345 95.1865 2.63509 94.2929L2.00066 61.9351C1.99161 61.4702 2.07537 61.0082 2.24704 60.5761C2.41871 60.1439 2.67484 59.7504 3.00045 59.4184C3.32606 59.0865 3.71461 58.8228 4.14335 58.6428C4.57209 58.4629 5.03243 58.3702 5.49741 58.3703V58.3703Z" stroke="#2E3192" stroke-width="3" stroke-linecap="round" stroke-linejoin="round"/>
<path d="M20.3916 65.2927C20.3916 65.2927 26.2889 59.1389 36.8019 61.4447C44.9517 63.2335 56.9545 64.7145 61.9382 65.2927C64.1957 65.5532 66.2391 66.8152 67.4004 68.7688C68.8025 71.1269 68.985 74.4914 62.9604 77.8579" stroke="#2E3192" stroke-width="3" stroke-linecap="round" stroke-linejoin="round"/>
<path d="M19.3662 86.8307C19.3662 86.8307 34.2925 96.7122 59.196 94.7724C63.9169 94.4004 68.5797 93.489 73.0932 92.0561C78.0088 90.5021 84.955 88.0335 89.3732 85.2925L93.6593 82.3226C94.3197 81.9369 94.8861 81.4093 95.3176 80.778C95.7491 80.1466 96.0349 79.4273 96.1544 78.672C96.274 77.9167 96.2242 77.1442 96.0087 76.4105C95.7932 75.6767 95.4174 75 94.9085 74.4293V74.4293C94.2513 73.6932 93.3968 73.161 92.4464 72.8957C91.4959 72.6304 90.4893 72.6432 89.5459 72.9325L76.8021 76.8289C76.8021 76.8289 62.4431 79.1367 47.5711 77.0854" stroke="#2E3192" stroke-width="3" stroke-linecap="round" stroke-linejoin="round"/>
</svg>
