<svg width="96" height="96" viewBox="0 0 96 96" fill="none" xmlns="http://www.w3.org/2000/svg">
<path opacity="0.1" d="M48.6953 73.9244C66.2565 73.9244 80.4926 59.6883 80.4926 42.1271C80.4926 24.5659 66.2565 10.3298 48.6953 10.3298C31.1341 10.3298 16.8979 24.5659 16.8979 42.1271C16.8979 59.6883 31.1341 73.9244 48.6953 73.9244Z" stroke="#E8B000" stroke-width="10" stroke-miterlimit="10"/>
<path d="M77.0039 4.7902C77.2057 4.2942 77.6573 4.09331 78.1666 4.30131C78.6759 4.50931 78.8581 4.96886 78.6564 5.46486L77.8413 7.46131L79.8377 8.27642C80.347 8.48353 80.5292 8.94398 80.3266 9.43909C80.1239 9.9342 79.6732 10.136 79.163 9.92886L77.1666 9.11375L76.3559 11.1111C76.1541 11.6071 75.7026 11.808 75.1933 11.6C74.6839 11.392 74.5017 10.9324 74.7044 10.4364L75.5186 8.43997L73.5222 7.62486C73.0128 7.41775 72.8306 6.95731 73.0333 6.4622C73.2359 5.96708 73.6866 5.76531 74.1968 5.97242L76.1933 6.78753L77.0039 4.7902Z" fill="#2E3192"/>
<path d="M85.914 90.9813C88.7496 90.9813 91.0482 88.6827 91.0482 85.8471C91.0482 83.0116 88.7496 80.7129 85.914 80.7129C83.0785 80.7129 80.7798 83.0116 80.7798 85.8471C80.7798 88.6827 83.0785 90.9813 85.914 90.9813Z" stroke="#2E3192" stroke-width="4" stroke-linecap="round" stroke-linejoin="round"/>
<path d="M18.851 42.3369C21.6866 42.3369 23.9852 40.0382 23.9852 37.2026C23.9852 34.3671 21.6866 32.0684 18.851 32.0684C16.0155 32.0684 13.7168 34.3671 13.7168 37.2026C13.7168 40.0382 16.0155 42.3369 18.851 42.3369Z" stroke="#2E3192" stroke-width="4" stroke-linecap="round" stroke-linejoin="round"/>
<path d="M10.2456 49.0569C10.2456 69.9076 27.1487 86.8116 48.0003 86.8116C68.8518 86.8116 85.7549 69.9076 85.7549 49.0569" stroke="#2E3192" stroke-width="3" stroke-linecap="round" stroke-linejoin="round"/>
<path d="M11.1522 82.2604C11.1522 81.7271 11.4935 81.3715 12.0411 81.3715C12.5886 81.3715 12.93 81.7271 12.93 82.2604V84.4169H15.0864C15.6366 84.4169 15.9753 84.7724 15.9753 85.3057C15.9753 85.8391 15.6331 86.1946 15.0864 86.1946H12.9362V88.3555C12.9362 88.8889 12.594 89.2444 12.0473 89.2444C11.5006 89.2444 11.1584 88.8889 11.1584 88.3555V86.2017H8.99485C8.44462 86.2017 8.10596 85.8462 8.10596 85.3129C8.10596 84.7795 8.44818 84.424 8.99485 84.424H11.1522V82.2604Z" fill="#2E3192"/>
<path d="M34.2208 47.0498C37.1457 47.0498 39.5168 44.6787 39.5168 41.7538C39.5168 38.8289 37.1457 36.4578 34.2208 36.4578C31.2959 36.4578 28.9248 38.8289 28.9248 41.7538C28.9248 44.6787 31.2959 47.0498 34.2208 47.0498Z" stroke="#B60062" stroke-width="3" stroke-linecap="round" stroke-linejoin="round"/>
<path d="M41.0349 53.9378C41.0349 52.1309 40.3172 50.3979 39.0397 49.1201C37.7621 47.8422 36.0294 47.1241 34.2224 47.1236V47.1236C32.4152 47.1236 30.682 47.8415 29.404 49.1194C28.1261 50.3973 27.4082 52.1306 27.4082 53.9378V62.1592H30.0562V71.4303C30.0562 71.6134 30.0923 71.7947 30.1624 71.9638C30.2325 72.133 30.3352 72.2867 30.4647 72.4161C30.5943 72.5456 30.748 72.6482 30.9172 72.7182C31.0864 72.7882 31.2678 72.8242 31.4509 72.824H37.1051C37.4748 72.824 37.8294 72.6772 38.091 72.4159C38.3525 72.1545 38.4995 71.8 38.4998 71.4303V62.1592H41.0366L41.0349 53.9378Z" stroke="#B60062" stroke-width="3" stroke-linecap="round" stroke-linejoin="round"/>
<path d="M48.0338 47.0498C50.9587 47.0498 53.3298 44.6787 53.3298 41.7538C53.3298 38.8289 50.9587 36.4578 48.0338 36.4578C45.1089 36.4578 42.7378 38.8289 42.7378 41.7538C42.7378 44.6787 45.1089 47.0498 48.0338 47.0498Z" stroke="#B60062" stroke-width="3" stroke-linecap="round" stroke-linejoin="round"/>
<path d="M53.1683 49.4569C52.5292 48.7233 51.7401 48.1355 50.8544 47.7329C49.9687 47.3304 49.0069 47.1226 48.034 47.1235V47.1235C46.2269 47.1238 44.494 47.8418 43.2162 49.1197C41.9385 50.3976 41.2207 52.1307 41.2207 53.9378V62.1591H43.8678V71.4302C43.8681 71.8 44.0151 72.1545 44.2766 72.4158C44.5381 72.6772 44.8927 72.824 45.2625 72.824H49.25" stroke="#B60062" stroke-width="3" stroke-linecap="round" stroke-linejoin="round"/>
<path d="M54.9654 30.2116C57.8903 30.2116 60.2614 27.8405 60.2614 24.9156C60.2614 21.9907 57.8903 19.6196 54.9654 19.6196C52.0405 19.6196 49.6694 21.9907 49.6694 24.9156C49.6694 27.8405 52.0405 30.2116 54.9654 30.2116Z" stroke="#B60062" stroke-width="3" stroke-linecap="round" stroke-linejoin="round"/>
<path d="M59.4668 31.9813C58.2241 30.886 56.6238 30.2828 54.9673 30.2853V30.2853C53.3165 30.2842 51.7219 30.8846 50.4819 31.9742" stroke="#B60062" stroke-width="3" stroke-linecap="round" stroke-linejoin="round"/>
<path d="M40.9742 30.2116C43.8991 30.2116 46.2702 27.8405 46.2702 24.9156C46.2702 21.9907 43.8991 19.6196 40.9742 19.6196C38.0493 19.6196 35.6782 21.9907 35.6782 24.9156C35.6782 27.8405 38.0493 30.2116 40.9742 30.2116Z" stroke="#B60062" stroke-width="3" stroke-linecap="round" stroke-linejoin="round"/>
<path d="M45.473 31.9813C44.2316 30.8867 42.633 30.2836 40.9779 30.2853V30.2853C39.3269 30.2842 37.7321 30.8846 36.4917 31.9742" stroke="#B60062" stroke-width="3" stroke-linecap="round" stroke-linejoin="round"/>
<path d="M71.016 55.3867H71.0151C70.2905 55.3867 69.7031 55.9741 69.7031 56.6987V72.7858C69.7031 73.5104 70.2905 74.0978 71.0151 74.0978H71.016C71.7406 74.0978 72.328 73.5104 72.328 72.7858V56.6987C72.328 55.9741 71.7406 55.3867 71.016 55.3867Z" fill="#B60062"/>
<path d="M73.0055 58.0835C73.0055 57.9731 72.9159 57.8835 72.8055 57.8835C72.695 57.8835 72.6055 57.9731 72.6055 58.0835V71.752C72.6055 71.8624 72.695 71.952 72.8055 71.952C72.9159 71.952 73.0055 71.8624 73.0055 71.752V58.0835Z" fill="#B60062"/>
<path d="M54.5895 74.0978H54.5903C55.3149 74.0978 55.9023 73.5104 55.9023 72.7858V56.6987C55.9023 55.9741 55.3149 55.3867 54.5903 55.3867H54.5895C53.8649 55.3867 53.2775 55.9741 53.2775 56.6987V72.7858C53.2775 73.5104 53.8649 74.0978 54.5895 74.0978Z" fill="#B60062"/>
<path d="M52.6 71.4009C52.6 71.5113 52.6895 71.6009 52.8 71.6009C52.9105 71.6009 53 71.5113 53 71.4009V57.7324C53 57.622 52.9105 57.5324 52.8 57.5324C52.6895 57.5324 52.6 57.622 52.6 57.7324V71.4009Z" fill="#B60062"/>
<path d="M57.7397 71.1351H67.9851" stroke="#B60062" stroke-width="3" stroke-linecap="round" stroke-linejoin="round"/>
<path d="M66.147 61.9058H70.7194" stroke="#B60062" stroke-width="3" stroke-linecap="round" stroke-linejoin="round"/>
<path d="M54.7178 61.9058H59.7124" stroke="#B60062" stroke-width="3" stroke-linecap="round" stroke-linejoin="round"/>
<path d="M62.8626 44.5546C65.1002 44.5546 66.9141 42.7407 66.9141 40.5031C66.9141 38.2655 65.1002 36.4515 62.8626 36.4515C60.625 36.4515 58.811 38.2655 58.811 40.5031C58.811 42.7407 60.625 44.5546 62.8626 44.5546Z" stroke="#B60062" stroke-width="3" stroke-linecap="round" stroke-linejoin="round"/>
<path d="M68.0765 52.5662C68.0765 51.8815 67.9416 51.2035 67.6796 50.571C67.4175 49.9384 67.0334 49.3637 66.5492 48.8795C66.065 48.3954 65.4902 48.0114 64.8576 47.7495C64.225 47.4876 63.547 47.3528 62.8623 47.3529C62.1776 47.3529 61.4996 47.4878 60.867 47.7498C60.2344 48.0119 59.6597 48.396 59.1756 48.8802C58.6915 49.3644 58.3075 49.9392 58.0455 50.5718C57.7836 51.2044 57.6488 51.8824 57.6489 52.5671V58.8569H59.6747V65.9556C59.6747 66.2385 59.7871 66.5098 59.9871 66.7098C60.1872 66.9099 60.4585 67.0222 60.7414 67.0222H65.0667C65.3496 67.0222 65.6209 66.9099 65.821 66.7098C66.021 66.5098 66.1334 66.2385 66.1334 65.9556V58.8569H68.0747L68.0765 52.5662Z" stroke="#B60062" stroke-width="3" stroke-linecap="round" stroke-linejoin="round"/>
</svg>
