<svg width="96" height="96" viewBox="0 0 96 96" fill="none" xmlns="http://www.w3.org/2000/svg">
<path opacity="0.1" d="M70.7306 26.3591L84 45.0071C88.7111 51.6231 86.7137 60.8542 79.6933 64.936C77.9028 65.977 76.4187 67.4721 75.3911 69.2702L68.1377 81.9689L66.3599 87.9751C65.0399 92.4444 59.3439 93.7529 56.2017 90.3147L47.911 81.2338C47.911 81.2338 40.9244 72.408 50.1173 62.112C58.0773 53.2 62.4524 50.9004 63.4853 28.5004C63.6595 24.704 68.5271 23.2631 70.7306 26.3591Z" fill="#E8B000"/>
<path opacity="0.1" d="M25.7396 28.4907L28.3911 32.1298C29.3093 33.3906 29.9689 34.8207 30.3319 36.3375C30.6949 37.8544 30.7542 39.4281 30.5063 40.968C30.2585 42.5079 29.7083 43.9835 28.8876 45.3098C28.0669 46.6362 26.9919 47.787 25.7245 48.696L22.2454 51.1902C21.418 51.7831 20.4811 52.2058 19.4891 52.4339C18.4971 52.6621 17.4697 52.691 16.4665 52.5191C15.4632 52.3472 14.5041 51.9779 13.6446 51.4326C12.7851 50.8872 12.0424 50.1767 11.4596 49.3422L6.41071 42.1102C5.27346 40.4801 4.76161 38.4948 4.96894 36.518C5.17626 34.5413 6.08888 32.7054 7.53959 31.3467L11.984 27.1902C12.9379 26.2979 14.0703 25.6182 15.3065 25.1963C16.5426 24.7743 17.8543 24.6197 19.1547 24.7426C20.4551 24.8656 21.7145 25.2633 22.8497 25.9094C23.9849 26.5555 24.9699 27.4354 25.7396 28.4907Z" fill="#E8B000"/>
<path d="M15.697 83.1885C15.8996 82.6924 16.3512 82.4916 16.8605 82.6996C17.3698 82.9076 17.5521 83.3671 17.3494 83.8622L16.5334 85.8596L18.5298 86.6738C19.0401 86.8818 19.2214 87.3422 19.0196 87.8374C18.8178 88.3325 18.3654 88.5342 17.8561 88.3262L15.8596 87.512L15.0454 89.5111C14.8427 90.0071 14.3912 90.208 13.8819 90C13.3725 89.792 13.1903 89.3325 13.393 88.8365L14.2081 86.84L12.2107 86.0249C11.7014 85.8169 11.5201 85.3573 11.7219 84.8622C11.9236 84.3671 12.3761 84.1645 12.8854 84.3725L14.8819 85.1876L15.697 83.1885Z" fill="#2E3192"/>
<path d="M89.9653 59.0364C91.6963 59.0364 93.0995 57.6332 93.0995 55.9022C93.0995 54.1712 91.6963 52.768 89.9653 52.768C88.2343 52.768 86.8311 54.1712 86.8311 55.9022C86.8311 57.6332 88.2343 59.0364 89.9653 59.0364Z" stroke="#2E3192" stroke-width="2" stroke-linecap="round" stroke-linejoin="round"/>
<path d="M42.2588 90.3218V84.3467C42.2799 82.4464 43.0496 80.6311 44.4008 79.2948C45.752 77.9585 47.5757 77.209 49.4761 77.209C51.3765 77.209 53.2002 77.9585 54.5515 79.2948C55.9027 80.6311 56.6724 82.4464 56.6935 84.3467V90.3573" stroke="#2E3192" stroke-width="3" stroke-linecap="round" stroke-linejoin="round"/>
<path d="M10.1245 57.1253V69.288" stroke="#B60062" stroke-width="3" stroke-miterlimit="10"/>
<path d="M32.3645 69.4222L32.321 48.4C32.321 48.3689 32.3272 48.3627 32.3343 48.3556C32.3506 48.3395 32.372 48.3298 32.3948 48.328C32.3992 48.328 32.4081 48.328 32.4294 48.3431L40.1165 53.7405L51.7121 42.0356C52.0609 41.6828 52.3369 41.2647 52.5242 40.8052C52.7114 40.3458 52.8064 39.8539 52.8036 39.3578C52.8008 38.8616 52.7003 38.3709 52.5078 37.9135C52.3153 37.4562 52.0347 37.0413 51.6819 36.6925C51.3291 36.3436 50.911 36.0677 50.4515 35.8804C49.9921 35.6931 49.5002 35.5982 49.0041 35.601C48.5079 35.6038 48.0172 35.7043 47.5598 35.8967C47.1025 36.0892 46.6876 36.3699 46.3388 36.7227L40.0641 42.9591C40.0599 42.9636 40.0548 42.9672 40.0491 42.9695C40.0434 42.9718 40.0373 42.9728 40.0312 42.9725C40.0245 42.9728 40.0178 42.9716 40.0117 42.969C40.0055 42.9664 40.0001 42.9624 39.9956 42.9573L35.1841 37.624C34.7165 37.0658 31.8774 34.2 22.873 34.2C22.5174 34.2 22.1432 34.2045 21.7716 34.2133C18.6232 34.2916 14.2161 35.0027 11.0854 37.9538C9.15564 39.7742 8.62675 41.5813 8.57341 41.7822L5.11475 54.2871L6.28719 54.7876L17.537 59.4818C18.2746 59.7895 19.103 59.7984 19.847 59.5066C20.5911 59.2149 21.1926 58.6453 21.5245 57.9182L21.5405 57.8827C21.8426 57.2214 21.9049 56.4756 21.7168 55.7733C21.5286 55.0711 21.1017 54.4563 20.5094 54.0347C18.7832 52.8125 15.6392 50.5769 15.6392 50.5769" stroke="#B60062" stroke-width="3" stroke-miterlimit="10"/>
<path d="M23.9369 34.2915C29.6846 34.2915 34.344 29.6321 34.344 23.8844C34.344 18.1367 29.6846 13.4773 23.9369 13.4773C18.1892 13.4773 13.5298 18.1367 13.5298 23.8844C13.5298 29.6321 18.1892 34.2915 23.9369 34.2915Z" stroke="#B60062" stroke-width="3" stroke-miterlimit="10"/>
<path d="M41.0044 32.7991V12.9191H86.0267V49.4835H53.7973" stroke="#2E3192" stroke-width="3" stroke-linecap="round" stroke-linejoin="round"/>
<path d="M90.5029 11.6578V5.84712C90.5029 5.16475 89.9498 4.61157 89.2674 4.61157L37.7616 4.61157C37.0792 4.61157 36.526 5.16475 36.526 5.84712V11.6578C36.526 12.3402 37.0792 12.8933 37.7616 12.8933L89.2674 12.8933C89.9498 12.8933 90.5029 12.3402 90.5029 11.6578Z" stroke="#2E3192" stroke-width="3" stroke-linecap="round" stroke-linejoin="round"/>
<path d="M47.3066 22.3538H79.8204" stroke="#2E3192" stroke-width="3" stroke-linecap="round" stroke-linejoin="round"/>
<path d="M47.3066 31.5049H79.8204" stroke="#2E3192" stroke-width="3" stroke-linecap="round" stroke-linejoin="round"/>
<path d="M60.7539 40.3084H79.8206" stroke="#2E3192" stroke-width="3" stroke-linecap="round" stroke-linejoin="round"/>
<path d="M51.5793 77.0325C54.4049 75.8621 55.7467 72.6226 54.5763 69.797C53.4059 66.9714 50.1665 65.6296 47.3409 66.8C44.5152 67.9704 43.1734 71.2098 44.3438 74.0354C45.5142 76.8611 48.7537 78.2029 51.5793 77.0325Z" stroke="#2E3192" stroke-width="3" stroke-linecap="round" stroke-linejoin="round"/>
<path d="M56.9775 90.3218V84.3467C56.9775 82.4326 57.7379 80.597 59.0913 79.2435C60.4448 77.8901 62.2804 77.1298 64.1944 77.1298C66.1085 77.1298 67.9441 77.8901 69.2975 79.2435C70.651 80.597 71.4113 82.4326 71.4113 84.3467V90.3573" stroke="#2E3192" stroke-width="3" stroke-linecap="round" stroke-linejoin="round"/>
<path d="M66.298 77.0329C69.1236 75.8625 70.4655 72.6231 69.295 69.7975C68.1246 66.9719 64.8852 65.6301 62.0596 66.8005C59.234 67.9709 57.8922 71.2103 59.0626 74.0359C60.233 76.8615 63.4724 78.2033 66.298 77.0329Z" stroke="#2E3192" stroke-width="3" stroke-linecap="round" stroke-linejoin="round"/>
<path d="M73.3726 90.3218V84.3467C73.3936 82.4464 74.1633 80.6311 75.5145 79.2948C76.8658 77.9585 78.6895 77.209 80.5899 77.209C82.4903 77.209 84.314 77.9585 85.6652 79.2948C87.0164 80.6311 87.7861 82.4464 87.8072 84.3467V90.3573" stroke="#2E3192" stroke-width="3" stroke-linecap="round" stroke-linejoin="round"/>
<path d="M73.9263 77.0409C73.9385 77.023 73.9532 77.0068 73.9698 76.9929L74.0178 76.9556C74.049 76.9316 74.0787 76.9058 74.1067 76.8782C74.1379 76.853 74.1675 76.826 74.1956 76.7973C74.2237 76.7693 74.2501 76.7396 74.2747 76.7085C74.3723 76.5967 74.4547 76.4727 74.52 76.3396C74.6444 76.0767 74.7295 75.797 74.7725 75.5093C74.8728 74.9292 74.8979 74.3386 74.8472 73.752L74.8276 73.536L74.8018 73.3129L74.7494 72.8356C74.7156 72.5165 74.6845 72.1991 74.6605 71.8809C74.6365 71.5627 74.6063 71.2453 74.5814 70.928C74.5567 70.573 74.5517 70.2169 74.5663 69.8613C74.5817 69.4942 74.6203 69.1285 74.6818 68.7662C74.712 68.5831 74.7512 68.4 74.7956 68.2178C74.8169 68.1289 74.8427 68.04 74.8667 67.944C74.8907 67.848 74.9245 67.7538 74.9556 67.6587C75.0877 67.2646 75.2624 66.8861 75.4765 66.5298C75.6997 66.1577 75.9691 65.8155 76.2783 65.5111C76.5897 65.2053 76.9378 64.9393 77.3147 64.7191C78.0399 64.3 78.8407 64.0281 79.6712 63.9191C80.1096 63.8632 80.5531 63.8611 80.992 63.9129C81.1032 63.9253 81.2134 63.9449 81.3227 63.9645L81.4863 63.9973C81.5458 64.0107 81.6089 64.0249 81.6703 64.0418C82.1692 64.1726 82.6376 64.4 83.0489 64.7111C83.112 64.7542 83.1715 64.8024 83.2267 64.8551C83.1903 64.8326 83.1516 64.8141 83.1112 64.8C83.0725 64.7854 83.0322 64.7756 82.9912 64.7707H82.9547C82.9547 64.7707 82.9423 64.7707 82.9858 64.7707C83.1085 64.7769 83.2267 64.7778 83.352 64.7929L83.5387 64.8151L83.7272 64.8498C83.8516 64.8711 83.9787 64.9102 84.104 64.944C84.2302 64.9836 84.3542 65.0296 84.4756 65.0818C84.719 65.1843 84.9498 65.3143 85.1636 65.4693C85.3701 65.6169 85.5616 65.7846 85.7352 65.9698C85.896 66.1432 86.0423 66.3296 86.1725 66.5271C86.4061 66.885 86.595 67.2701 86.7352 67.6738C86.9805 68.3972 87.1084 69.1553 87.1138 69.9191C87.126 70.6125 87.0769 71.3055 86.9672 71.9902C86.9183 72.32 86.8578 72.6427 86.7956 72.9609L86.7067 73.4178C86.6765 73.5618 86.6516 73.7049 86.6294 73.8462C86.5841 74.1259 86.5589 74.4084 86.5538 74.6916C86.5505 74.9734 86.5776 75.2547 86.6347 75.5307C86.698 75.8174 86.7984 76.0947 86.9334 76.3556C87.0006 76.4885 87.0842 76.6124 87.1823 76.7245C87.2333 76.7832 87.2886 76.8382 87.3476 76.8889C87.408 76.9485 87.4685 77.0062 87.5254 77.0667L87.2907 77.0062C87.2067 76.9869 87.1241 76.9616 87.0436 76.9307C86.8775 76.8638 86.7217 76.7741 86.5805 76.664C86.2967 76.4479 86.0486 76.1884 85.8454 75.8951C85.4276 75.2907 85.2027 74.5725 85.096 73.8685C85.0685 73.6907 85.0498 73.5173 85.0338 73.344C85.0249 73.2551 85.0196 73.1662 85.0134 73.0871L84.9956 72.8489C84.9716 72.5316 84.9476 72.2196 84.9209 71.9147C84.875 71.3305 84.7943 70.7496 84.6792 70.1751C84.5849 69.6697 84.4219 69.1795 84.1947 68.7182C84.0985 68.5309 83.982 68.3547 83.8472 68.1929C83.753 68.0799 83.6388 67.9852 83.5103 67.9138C83.4619 67.8891 83.4113 67.8692 83.3592 67.8542C83.3352 67.8445 83.3058 67.8436 83.28 67.8347C83.2543 67.8258 83.2258 67.824 83.1912 67.824H83.1449C83.1278 67.8249 83.1106 67.8249 83.0934 67.824C83.0614 67.824 83.0196 67.824 82.9832 67.824H82.8943C82.8552 67.824 82.8116 67.824 82.7707 67.824C82.6814 67.8196 82.5924 67.8107 82.504 67.7973C82.106 67.7384 81.7282 67.5841 81.4027 67.3476C81.2009 67.1938 81.2436 67.2231 81.2045 67.1956C81.1547 67.161 81.1017 67.1312 81.0463 67.1067C80.9909 67.081 80.9331 67.0607 80.8738 67.0462L80.8258 67.0347L80.7556 67.0213C80.7085 67.0142 80.6614 67.0062 80.6152 67.0009C80.4221 66.9777 80.2269 66.9777 80.0338 67.0009C79.8155 67.0237 79.5997 67.0669 79.3894 67.1298C78.9849 67.239 78.6061 67.4272 78.2747 67.6836C77.9472 67.9543 77.6822 68.2927 77.4978 68.6756C77.4729 68.7298 77.4472 68.7831 77.4205 68.8373C77.3938 68.8916 77.368 68.9565 77.344 69.0151C77.2934 69.136 77.2489 69.2605 77.2054 69.3858C77.1174 69.6422 77.0427 69.903 76.9814 70.1671C76.92 70.4338 76.8676 70.712 76.8276 71.0018C76.7832 71.3191 76.7387 71.6373 76.6916 71.9547C76.6445 72.272 76.5947 72.5902 76.5423 72.9076L76.4614 73.3831L76.416 73.6365C76.3992 73.7253 76.3814 73.8098 76.3609 73.896C76.2082 74.5836 75.9408 75.2404 75.5698 75.8391C75.3867 76.1496 75.1506 76.4255 74.872 76.6542C74.7314 76.7641 74.5761 76.8539 74.4107 76.9209C74.3707 76.9377 74.3297 76.9522 74.288 76.9645C74.2476 76.9781 74.2064 76.9891 74.1645 76.9973C74.1238 77.0073 74.0825 77.015 74.0409 77.0205L73.9787 77.0293C73.9608 77.0311 73.9432 77.035 73.9263 77.0409Z" fill="#2E3192"/>
</svg>
