<svg width="96" height="96" viewBox="0 0 96 96" fill="none" xmlns="http://www.w3.org/2000/svg">
<path opacity="0.1" d="M33.9806 11.4044H44.0632V41.9902C44.0632 44.9559 43.4791 47.8925 42.3442 50.6324C41.2093 53.3723 39.5458 55.8618 37.4488 57.9589C35.3518 60.0559 32.8622 61.7194 30.1223 62.8543C27.3824 63.9892 24.4458 64.5733 21.4801 64.5733H11.3975V33.9875C11.3975 27.9981 13.7767 22.254 18.0119 18.0189C22.2471 13.7837 27.9912 11.4044 33.9806 11.4044V11.4044Z" stroke="#E8B000" stroke-width="3" stroke-miterlimit="10"/>
<path d="M73.6987 8.83822C76.6303 5.29955 80.2019 3.70577 80.3556 3.64444L82.7876 2.57777C82.9936 2.48842 83.2196 2.45549 83.4425 2.48236C83.6654 2.50923 83.8771 2.59493 84.0559 2.73067C84.2347 2.8664 84.3741 3.04728 84.4599 3.25473C84.5457 3.46218 84.5748 3.68872 84.5441 3.9111L84.1654 6.53955C83.6321 10.24 83.601 10.4622 85.529 16.7422C86.9619 21.4124 86.1868 25.2018 85.2845 27.5591" stroke="#E8B000" stroke-width="3" stroke-linecap="round" stroke-linejoin="round"/>
<path d="M79.1813 29.2951C79.2857 28.939 79.3366 28.5693 79.3324 28.1982C79.3324 27.7955 79.3324 27.4169 79.3324 27.0382C79.3582 25.5458 79.3529 24.0578 78.9813 22.5938C78.4 20.2809 77.144 18.3813 75.3777 16.8C75.2524 16.6889 75.1173 16.5875 75.0044 16.4658C75.0044 16.4658 73.2444 15.0835 71.6782 14.5049C70.3386 14.0098 68.9315 13.6924 67.5368 13.384C66.8551 13.2338 66.1733 13.0667 65.4835 12.9724C64.8462 12.8835 64.3982 13.192 64.1502 13.7724C63.8915 14.368 63.9928 14.848 64.4746 15.2987C64.5413 15.3609 64.6124 15.4187 64.6791 15.4818C65.1308 15.8956 65.4468 16.4363 65.5857 17.0329C65.7288 17.6364 65.6995 18.2435 65.6204 18.848C65.4373 20.2489 65.2062 21.6453 65.0568 23.0506C64.9217 24.3226 64.9182 25.6035 65.1644 26.8684C65.2711 27.4178 65.4142 27.9591 65.5448 28.5235C65.5448 28.5235 67.3324 33.2275 71.3022 33.4195C71.2933 33.4222 77.6889 34.264 79.1813 29.2951Z" stroke="#E8B000" stroke-width="3" stroke-linecap="round" stroke-linejoin="round"/>
<path d="M83.9948 33.88H65.0873C64.209 33.88 63.4971 34.592 63.4971 35.4702V40.0133C63.4971 40.8916 64.209 41.6036 65.0873 41.6036H83.9948C84.8731 41.6036 85.5851 40.8916 85.5851 40.0133V35.4702C85.5851 34.592 84.8731 33.88 83.9948 33.88Z" stroke="#2E3192" stroke-width="3" stroke-linecap="round" stroke-linejoin="round"/>
<path d="M67.8047 41.5831L70.2429 56.928C70.2429 56.928 74.7762 52.1956 80.082 53.8605L81.3336 41.5831H67.8047Z" stroke="#2E3192" stroke-width="3" stroke-linecap="round" stroke-linejoin="round"/>
<path d="M53.0754 36.5529C53.0754 40.823 51.3791 44.9182 48.3597 47.9377C45.3403 50.9571 41.2451 52.6534 36.975 52.6534C32.7049 52.6534 28.6096 50.9571 25.5902 47.9377C22.5708 44.9182 20.8745 40.823 20.8745 36.5529" stroke="#2E3192" stroke-width="3" stroke-linecap="round" stroke-linejoin="round"/>
<path d="M9.67822 93.536V72.152C9.67822 61.36 18.4267 52.6116 29.2187 52.6116H43.5298C46.8384 52.6117 50.1001 53.3945 53.0484 54.8959C55.9968 56.3974 58.5482 58.5749 60.4942 61.2507L63.0898 64.8196L73.8667 55.3182C75.1001 54.2287 76.713 53.6686 78.3563 53.7593C79.9995 53.8499 81.541 54.584 82.6471 55.8027V55.8027C83.7321 56.9981 84.3133 58.5666 84.2692 60.1804C84.2252 61.7943 83.5593 63.3287 82.4107 64.4631L62.944 83.5476L51.152 75.0854V93.536" stroke="#2E3192" stroke-width="3" stroke-linecap="round" stroke-linejoin="round"/>
<path d="M22.9966 75.5013V93.536" stroke="#2E3192" stroke-width="3" stroke-linecap="round" stroke-linejoin="round"/>
<path d="M34.3717 63.2934L30.3486 52.7502H44.4989L40.4757 63.7102" stroke="#2E3192" stroke-width="3" stroke-linecap="round" stroke-linejoin="round"/>
<path d="M37.4135 71.7715C36.898 71.7724 36.3874 71.6707 35.9116 71.4723C35.4358 71.2739 35.0042 70.9828 34.642 70.616C34.2704 70.2443 33.9764 69.8024 33.7771 69.3161C33.5778 68.8297 33.4772 68.3087 33.4811 67.7831C33.4776 67.2653 33.5771 66.752 33.7736 66.2729C33.9701 65.7938 34.2598 65.3585 34.6259 64.9923C34.992 64.6261 35.4271 64.3362 35.9061 64.1394C36.3851 63.9427 36.8984 63.843 37.4162 63.8462H37.4588C38.4967 63.858 39.4886 64.2764 40.2214 65.0116C40.9542 65.7467 41.3694 66.7398 41.378 67.7778C41.37 68.8276 40.9514 69.8326 40.2117 70.5777C39.4768 71.3295 38.4736 71.7588 37.4224 71.7715H37.4135Z" stroke="#E8B000" stroke-width="3" stroke-linecap="round" stroke-linejoin="round"/>
<path d="M11.6016 54.2667C11.6778 54.2146 11.7573 54.1677 11.8398 54.1262C13.7865 53.3804 14.9838 51.8871 15.8398 50.0711C16.987 47.6097 17.6508 44.9509 17.7953 42.2391C17.998 38.8062 18.0567 35.3636 18.158 31.928C18.254 28.672 18.7162 25.4853 19.7864 22.3947C21.5109 17.4124 24.7998 14.0213 29.8664 12.4622C31.1056 12.0818 32.3927 11.8587 33.6567 11.5609C33.71 11.5441 33.7617 11.5227 33.8113 11.4969H36.1331C36.6282 11.5662 37.1242 11.624 37.6176 11.7067C39.3255 11.9749 40.9291 12.7 42.2584 13.8053C43.038 14.4551 43.87 14.7271 44.8922 14.7191C48.7251 14.6916 51.3989 16.6578 53.2104 19.8702C54.6727 22.4631 55.3304 25.3253 55.6638 28.2676C56.1082 32.192 55.8735 36.1111 55.6264 40.0338C55.454 42.7644 55.5429 45.4809 56.4344 48.1084C56.9758 49.7013 57.7678 51.1671 58.9375 52.3751C59.5251 52.9813 60.278 53.4293 60.9633 53.9396L61.6273 54.4293" stroke="#2E3192" stroke-width="3" stroke-linecap="round" stroke-linejoin="round"/>
<path d="M21.7388 29.7849C21.7388 29.7849 28.6161 28.9013 32.7192 21.4373C32.7192 21.4373 36.8214 25.8569 43.337 27.232C43.337 27.232 41.1654 24.5804 41.5272 23.4018C41.5272 23.4018 45.6303 28.0178 52.1459 28.8027" stroke="#2E3192" stroke-width="3" stroke-linecap="round" stroke-linejoin="round"/>
</svg>
