<svg width="95" height="95" viewBox="0 0 95 95" fill="none" xmlns="http://www.w3.org/2000/svg">
<path opacity="0.1" d="M36.8977 88.9333C54.276 88.9333 68.3639 74.8454 68.3639 57.4671C68.3639 40.0888 54.276 26.001 36.8977 26.001C19.5195 26.001 5.43164 40.0888 5.43164 57.4671C5.43164 74.8454 19.5195 88.9333 36.8977 88.9333Z" stroke="#E8B000" stroke-width="10" stroke-miterlimit="10"/>
<path opacity="0.1" d="M68.0507 15.0276L65.4259 18.628C64.5173 19.8757 63.8646 21.2908 63.5054 22.7919C63.1461 24.2929 63.0875 25.8503 63.3328 27.3741C63.5781 28.898 64.1225 30.3582 64.9346 31.6707C65.7468 32.9832 66.8106 34.1221 68.0648 35.0216L71.5077 37.4907C72.3265 38.0778 73.2537 38.4965 74.2356 38.7224C75.2174 38.9484 76.2344 38.9771 77.2274 38.807C78.2205 38.6369 79.1699 38.2713 80.0205 37.7314C80.8712 37.1915 81.6062 36.4881 82.1829 35.662L87.1792 28.5053C88.3037 26.8923 88.8097 24.9282 88.6043 22.9726C88.399 21.017 87.4962 19.2008 86.0611 17.8565L81.663 13.7425C80.7192 12.8595 79.5986 12.1869 78.3754 11.7693C77.1522 11.3517 75.8543 11.1985 74.5675 11.32C73.2807 11.4415 72.0344 11.8348 70.911 12.474C69.7875 13.1131 68.8126 13.9836 68.0507 15.0276Z" fill="#E8B000"/>
<path d="M72.8802 3.99353C73.0799 3.50358 73.5267 3.3039 74.0307 3.50974C74.5348 3.71557 74.7151 4.17034 74.5154 4.66117L73.7132 6.63682L75.6888 7.44344C76.1929 7.64927 76.3732 8.10404 76.1726 8.59487C75.9721 9.08571 75.5261 9.2845 75.0212 9.07867L73.0411 8.26853L72.2345 10.2442C72.0349 10.735 71.588 10.9338 71.084 10.7289C70.58 10.5239 70.3996 10.0674 70.6002 9.57742L71.4059 7.60177L69.4303 6.79515C68.9263 6.58932 68.7459 6.13455 68.9465 5.64372C69.147 5.15288 69.593 4.95409 70.0979 5.15992L72.0736 5.96654L72.8802 3.99353Z" fill="#2E3192"/>
<path d="M19.0503 55.392C20.7633 55.392 22.1519 54.0034 22.1519 52.2905C22.1519 50.5775 20.7633 49.1889 19.0503 49.1889C17.3374 49.1889 15.9487 50.5775 15.9487 52.2905C15.9487 54.0034 17.3374 55.392 19.0503 55.392Z" stroke="#2E3192" stroke-width="4" stroke-linecap="round" stroke-linejoin="round"/>
<path d="M81.9823 86.9505C83.1968 86.9505 84.1814 85.966 84.1814 84.7514C84.1814 83.5369 83.1968 82.5523 81.9823 82.5523C80.7678 82.5523 79.7832 83.5369 79.7832 84.7514C79.7832 85.966 80.7678 86.9505 81.9823 86.9505Z" fill="#2E3192"/>
<path d="M48.7641 5.27779C33.7884 4.83798 19.0502 12.4081 10.9892 26.271C-0.735342 46.4348 6.10554 72.2862 26.2702 84.0108C46.4348 95.7354 72.2862 88.8945 84.0108 68.7299C93.911 51.7038 90.5737 30.6226 77.1567 17.4149" stroke="#2E3192" stroke-width="3" stroke-linecap="round" stroke-linejoin="round"/>
<path d="M51.4879 12.8673C53.775 12.8673 55.6222 14.7752 55.6222 17.13C55.6222 19.4847 53.775 21.3926 51.4879 21.3926C49.2009 21.3926 47.3537 19.4838 47.3537 17.13C47.3537 14.7761 49.2009 12.8673 51.4879 12.8673ZM51.4879 10.3163C47.8023 10.3163 44.8027 13.3731 44.8027 17.13C44.8027 20.8869 47.8014 23.9436 51.4879 23.9436C55.1745 23.9436 58.1731 20.8869 58.1731 17.13C58.1731 13.3731 55.1745 10.3163 51.4879 10.3163Z" fill="#65ADC7"/>
<path d="M59.6606 9.75424L61.4111 9.94864C61.4111 9.94864 61.8008 14.0345 60.8279 18.7045C59.855 23.3744 54.8007 29.0164 54.8007 29.0164L54.411 62.4819L52.2709 62.8707L50.9092 43.2198L49.5475 43.4142L46.2348 62.2875L43.9003 62.4819L45.846 41.274L46.4292 27.6538L40.3976 38.9395L38.8415 42.0525L37.6743 38.5498L44.4553 25.1574C44.7566 24.5621 45.2171 24.0619 45.7856 23.7127C46.3541 23.3634 47.0084 23.1787 47.6757 23.1792H54.8007C59.081 23.1792 59.665 9.75424 59.665 9.75424H59.6606ZM59.665 7.20331C59.0074 7.20268 58.3749 7.45605 57.8996 7.91054C57.4243 8.36503 57.1429 8.98553 57.1141 9.64253C57.0126 11.4707 56.8071 13.2915 56.4984 15.0962C55.8457 18.8065 54.9828 20.2781 54.6186 20.6317H47.6757C46.5372 20.6317 45.421 20.9473 44.4511 21.5434C43.4812 22.1395 42.6956 22.9929 42.1815 24.0086L35.3987 37.3975C35.2464 37.6983 35.1552 38.0263 35.1304 38.3625C35.1057 38.6988 35.1478 39.0366 35.2544 39.3564L36.4217 42.8591C36.5811 43.3377 36.8789 43.7583 37.2774 44.0677C37.6759 44.3771 38.1571 44.5614 38.6603 44.5973C38.721 44.6017 38.7817 44.6043 38.8424 44.6043C39.3157 44.6044 39.7798 44.4728 40.1826 44.2243C40.5854 43.9757 40.9111 43.62 41.1233 43.1969L42.6618 40.1111L43.3989 38.731L43.2977 41.106L41.3599 62.2488C41.3275 62.602 41.3691 62.958 41.482 63.2942C41.595 63.6304 41.7768 63.9394 42.0158 64.2013C42.2549 64.4633 42.5459 64.6726 42.8704 64.8157C43.1949 64.9589 43.5456 65.0328 43.9003 65.0328C43.9707 65.0328 44.041 65.0328 44.1123 65.024L46.4442 64.8288C47.0062 64.782 47.5368 64.5503 47.9532 64.1699C48.3695 63.7895 48.6481 63.2819 48.7453 62.7264L49.427 58.8341L49.719 63.0466C49.7636 63.6912 50.0511 64.2948 50.5234 64.7356C50.9957 65.1764 51.6177 65.4216 52.2638 65.4216C52.4169 65.4218 52.5698 65.408 52.7203 65.3803L54.8605 64.9915C55.4432 64.8855 55.9708 64.5802 56.3529 64.1277C56.7351 63.6753 56.9479 63.104 56.9549 62.5118L57.3331 29.9655C57.8697 29.319 58.6825 28.2942 59.5392 27.0627C61.5756 24.1327 62.8484 21.4947 63.3216 19.2199C64.3614 14.2298 63.9647 9.88442 63.9471 9.70234C63.8914 9.11887 63.6366 8.57236 63.2253 8.15472C62.8141 7.73709 62.2716 7.4738 61.6891 7.40915L59.9386 7.21387C59.8448 7.20406 59.7505 7.19907 59.6562 7.19891L59.665 7.20331Z" fill="#65ADC7"/>
<path d="M41.2245 36.3419H30.3848C29.4798 36.3419 28.7461 37.0756 28.7461 37.9807V44.4398C28.7461 45.3448 29.4798 46.0785 30.3848 46.0785H41.2245C42.1296 46.0785 42.8633 45.3448 42.8633 44.4398V37.9807C42.8633 37.0756 42.1296 36.3419 41.2245 36.3419Z" fill="#65ADC7"/>
<path d="M43.5113 64.4276C43.5113 64.4276 45.6523 75.3227 49.543 76.1012C49.543 76.1012 54.9905 71.2368 54.9905 64.8164C54.9905 64.8164 58.4923 78.4366 48.7645 85.2458C48.7645 85.2458 38.8414 77.6581 43.5113 64.4276Z" fill="#E8B000"/>
<path d="M46.7751 63.0695C46.7751 63.0695 47.8852 67.6524 49.9022 67.9796C49.9022 67.9796 52.7267 65.9336 52.7267 63.2296C52.7267 63.2296 54.5423 68.9577 49.4993 71.8218C49.4993 71.8209 44.3543 68.6296 46.7751 63.0695Z" fill="#E8B000"/>
</svg>
