<svg width="99" height="100" viewBox="0 0 99 100" fill="none" xmlns="http://www.w3.org/2000/svg">
<path opacity="0.1" d="M21.0372 20.5611L5.73936 42.0555C0.309152 49.6813 2.61136 60.3215 10.7034 65.0263C12.7672 66.2262 14.4777 67.9495 15.6623 70.0221L24.0258 84.657L26.075 91.58C27.5965 96.7315 34.1619 98.2397 37.7837 94.2767L47.3409 83.8097C47.3409 83.8097 55.394 73.6378 44.7979 61.7702C35.6219 51.4989 30.579 48.8484 29.3884 23.0293C29.1876 18.6533 23.575 16.9925 21.0372 20.5611Z" fill="#65ADC7"/>
<path opacity="0.1" d="M68.8912 17.4105L65.8339 21.6051C64.7756 23.0584 64.0153 24.7067 63.5969 26.4551C63.1785 28.2035 63.1101 30.0175 63.3958 31.7924C63.6816 33.5673 64.3157 35.2682 65.2616 36.7969C66.2076 38.3257 67.4467 39.6522 68.9076 40.7L72.9157 43.5718C73.8694 44.2557 74.9494 44.7433 76.0931 45.0065C77.2367 45.2697 78.4212 45.3032 79.5779 45.105C80.7346 44.9069 81.8404 44.481 82.8312 43.8522C83.822 43.2234 84.6781 42.404 85.3499 41.4418L91.1694 33.1059C92.479 31.2268 93.068 28.939 92.8285 26.6611C92.5889 24.3833 91.537 22.268 89.8651 20.7025L84.7515 15.9085C83.6518 14.8792 82.346 14.0953 80.9205 13.6087C79.4951 13.1221 77.9825 12.9439 76.4829 13.0859C74.9834 13.2279 73.5311 13.6869 72.2224 14.4324C70.9136 15.178 69.7781 16.1931 68.8912 17.4105Z" fill="#65ADC7"/>
<path d="M85.0174 47.5225C85.251 46.9508 85.7715 46.7182 86.3586 46.958C86.9457 47.1977 87.1557 47.7274 86.9221 48.2991L85.9826 50.6003L88.2848 51.5398C88.8719 51.7796 89.0809 52.3093 88.8483 52.881C88.6157 53.4527 88.0942 53.6842 87.5071 53.4445L85.206 52.505L84.2664 54.8072C84.0328 55.3779 83.5124 55.6104 82.9253 55.3707C82.3382 55.1309 82.1292 54.6012 82.3618 54.0295L83.3064 51.7283L81.0052 50.7888C80.4171 50.5491 80.2081 50.0194 80.4407 49.4477C80.6733 48.8759 81.1948 48.6444 81.7819 48.8841L84.0789 49.8216L85.0174 47.5225Z" fill="#2E3192"/>
<path d="M9.73177 18.3603C11.727 18.3603 13.3444 16.7429 13.3444 14.7477C13.3444 12.7525 11.727 11.1351 9.73177 11.1351C7.73657 11.1351 6.11914 12.7525 6.11914 14.7477C6.11914 16.7429 7.73657 18.3603 9.73177 18.3603Z" stroke="#2E3192" stroke-width="3" stroke-linecap="round" stroke-linejoin="round"/>
<path d="M16.0204 58.0951C17.435 58.0951 18.5818 56.9483 18.5818 55.5337C18.5818 54.1191 17.435 52.9723 16.0204 52.9723C14.6058 52.9723 13.459 54.1191 13.459 55.5337C13.459 56.9483 14.6058 58.0951 16.0204 58.0951Z" fill="#2E3192"/>
<path d="M88.1195 68.9596H82.1094C81.1882 68.9596 80.4414 69.7064 80.4414 70.6276V76.6377C80.4414 77.5589 81.1882 78.3057 82.1094 78.3057H88.1195C89.0407 78.3057 89.7875 77.5589 89.7875 76.6377V70.6276C89.7875 69.7064 89.0407 68.9596 88.1195 68.9596Z" stroke="#2E3192" stroke-width="3" stroke-linecap="round" stroke-linejoin="round"/>
<path d="M94.9768 76.0157C95.4191 76.0157 95.8434 76.1915 96.1562 76.5043C96.469 76.8171 96.6447 77.2414 96.6447 77.6837V83.6939C96.6447 84.1362 96.469 84.5605 96.1562 84.8733C95.8434 85.1861 95.4191 85.3619 94.9768 85.3619H88.9666C88.525 85.3608 88.1018 85.1846 87.7898 84.8719C87.4779 84.5592 87.3027 84.1355 87.3027 83.6939" stroke="#2E3192" stroke-width="3" stroke-linecap="round" stroke-linejoin="round"/>
<path d="M80.4414 73.6327V97.9334" stroke="#2E3192" stroke-width="3" stroke-linecap="round" stroke-linejoin="round"/>
<path d="M10.7252 78.3057H16.7353C17.6565 78.3057 18.4033 77.5589 18.4033 76.6377V70.6276C18.4033 69.7064 17.6565 68.9596 16.7353 68.9596H10.7252C9.804 68.9596 9.05721 69.7064 9.05721 70.6276L9.05721 76.6377C9.05721 77.5589 9.804 78.3057 10.7252 78.3057Z" stroke="#2E3192" stroke-width="3" stroke-linecap="round" stroke-linejoin="round"/>
<path d="M3.87014 76.0157C3.42776 76.0157 3.0035 76.1915 2.69069 76.5043C2.37788 76.8171 2.20215 77.2414 2.20215 77.6837V83.6939C2.20215 84.1362 2.37788 84.5605 2.69069 84.8733C3.0035 85.1861 3.42776 85.3619 3.87014 85.3619H9.88026C10.3226 85.3619 10.7469 85.1861 11.0597 84.8733C11.3725 84.5605 11.5483 84.1362 11.5483 83.6939" stroke="#2E3192" stroke-width="3" stroke-linecap="round" stroke-linejoin="round"/>
<path d="M18.4033 73.6327V97.9334" stroke="#2E3192" stroke-width="3" stroke-linecap="round" stroke-linejoin="round"/>
<path d="M45.7221 79.3066H53.4791C54.24 79.3066 54.9697 79.6089 55.5077 80.1469C56.0457 80.6849 56.3479 81.4146 56.3479 82.1754V90.3935H42.8574V82.1713C42.8585 81.4119 43.1607 80.6839 43.6977 80.1469C44.2347 79.6099 44.9627 79.3077 45.7221 79.3066V79.3066Z" stroke="#E8B000" stroke-width="3" stroke-linecap="round" stroke-linejoin="round"/>
<path d="M47.5655 55.1403H51.7662C52.0868 55.14 52.4043 55.2029 52.7006 55.3255C52.9969 55.448 53.2661 55.6277 53.4929 55.8544C53.7196 56.0811 53.8995 56.3502 54.0222 56.6464C54.1448 56.9427 54.2079 57.2602 54.2077 57.5808V65.6892H45.126V57.5808C45.1258 57.2603 45.1888 56.943 45.3114 56.6469C45.4339 56.3508 45.6136 56.0818 45.8401 55.8551C46.0667 55.6285 46.3356 55.4487 46.6317 55.3261C46.9277 55.2034 47.245 55.1403 47.5655 55.1403V55.1403Z" stroke="#E8B000" stroke-width="3" stroke-linecap="round" stroke-linejoin="round"/>
<path d="M47.4337 31.6407H51.6344C52.2814 31.6407 52.9019 31.8977 53.3594 32.3552C53.8169 32.8127 54.0739 33.4332 54.0739 34.0802V42.1886H44.9932V34.0812C44.993 33.7607 45.0561 33.4433 45.1787 33.1471C45.3013 32.8509 45.481 32.5818 45.7077 32.3552C45.9343 32.1285 46.2034 31.9488 46.4996 31.8262C46.7957 31.7036 47.1132 31.6406 47.4337 31.6407Z" stroke="#E8B000" stroke-width="3" stroke-linecap="round" stroke-linejoin="round"/>
<path d="M49.5323 8.40869C50.2405 8.40869 50.9196 8.69 51.4203 9.19072C51.9211 9.69145 52.2024 10.3706 52.2024 11.0787V25.4995H46.8623V11.0797C46.8623 10.3716 47.1436 9.69247 47.6443 9.19175C48.1451 8.69102 48.8242 8.40972 49.5323 8.40972V8.40869Z" stroke="#E8B000" stroke-width="3" stroke-linecap="round" stroke-linejoin="round"/>
<path d="M38.7179 8.40869C39.426 8.40869 40.1051 8.69 40.6059 9.19072C41.1066 9.69145 41.3879 10.3706 41.3879 11.0787V25.4995H36.0479V11.0797C36.0477 10.729 36.1167 10.3817 36.2508 10.0577C36.3849 9.73359 36.5816 9.43913 36.8295 9.19108C37.0775 8.94304 37.3719 8.74628 37.6959 8.61203C38.0199 8.47779 38.3672 8.40869 38.7179 8.40869V8.40869Z" stroke="#E8B000" stroke-width="3" stroke-linecap="round" stroke-linejoin="round"/>
<path d="M60.214 8.40869C60.9221 8.40869 61.6012 8.69 62.102 9.19072C62.6027 9.69145 62.884 10.3706 62.884 11.0787V25.4995H57.5439V11.0797C57.5439 10.3716 57.8253 9.69247 58.326 9.19175C58.8267 8.69102 59.5058 8.40972 60.214 8.40972V8.40869Z" stroke="#E8B000" stroke-width="3" stroke-linecap="round" stroke-linejoin="round"/>
<path d="M28.7041 25.2321H69.9604" stroke="#E8B000" stroke-width="3" stroke-linecap="round" stroke-linejoin="round"/>
<path d="M28.7041 48.7316H69.9604" stroke="#E8B000" stroke-width="3" stroke-linecap="round" stroke-linejoin="round"/>
<path d="M28.7041 72.0969H69.9604" stroke="#E8B000" stroke-width="3" stroke-linecap="round" stroke-linejoin="round"/>
<path d="M30.8398 65.1544H37.6491" stroke="#E8B000" stroke-width="3" stroke-linecap="round" stroke-linejoin="round"/>
<path d="M62.083 65.1544H68.8923" stroke="#E8B000" stroke-width="3" stroke-linecap="round" stroke-linejoin="round"/>
<path d="M62.083 55.2745H68.8923" stroke="#E8B000" stroke-width="3" stroke-linecap="round" stroke-linejoin="round"/>
<path d="M31.1074 32.1756H37.3829" stroke="#E8B000" stroke-width="3" stroke-linecap="round" stroke-linejoin="round"/>
<path d="M31.1074 41.9223H37.3829" stroke="#E8B000" stroke-width="3" stroke-linecap="round" stroke-linejoin="round"/>
<path d="M62.4844 39.3855H68.7599" stroke="#E8B000" stroke-width="3" stroke-linecap="round" stroke-linejoin="round"/>
<path d="M62.4844 91.1569H68.7599" stroke="#E8B000" stroke-width="3" stroke-linecap="round" stroke-linejoin="round"/>
<path d="M31.1074 78.7401H37.3829" stroke="#E8B000" stroke-width="3" stroke-linecap="round" stroke-linejoin="round"/>
<path d="M69.1591 97.6834L67.6909 2H31.5073L30.0391 97.8166L69.1591 97.6834Z" stroke="#E8B000" stroke-width="3" stroke-linecap="round" stroke-linejoin="round"/>
<path d="M2 98H96.7981" stroke="#2E3192" stroke-width="3" stroke-linecap="round" stroke-linejoin="round"/>
</svg>
