<svg width="123" height="98" viewBox="0 0 123 98" fill="none" xmlns="http://www.w3.org/2000/svg">
<path opacity="0.1" d="M82.1521 93.2862C64.6709 99.2967 29.2443 106.04 15.9498 68.6735C15.8979 68.5258 15.8573 68.3744 15.8282 68.2206C15.255 65.177 10.211 34.0929 38.765 12.8803C41.0727 11.1607 44.2401 13.3767 43.4101 16.1303C37.9648 34.2087 30.9857 76.8942 81.8139 87.5406C84.775 88.1631 85.018 92.3015 82.1521 93.2862Z" fill="#E8B000"/>
<path d="M65.5589 84.2012C63.2478 85.6915 60.8973 87.1332 58.5075 88.5265C58.1717 88.729 57.8072 88.8798 57.4265 88.9736C57.2297 89.0193 57.0288 89.0451 56.8269 89.0504H56.7386C56.143 89.024 55.5641 88.8456 55.0569 88.5322C47.5697 84.1723 40.4054 79.2799 33.6196 73.8929C30.5874 71.4855 27.0852 68.6379 23.8948 65.4521C18.1045 59.6709 13.989 54.4985 10.9407 49.1735C8.47947 44.87 6.86078 40.7786 5.99297 36.6665C4.40065 29.1188 5.49429 22.1809 9.24296 16.0432C12.5869 10.5658 17.4648 6.5431 23.7412 4.08641C27.1799 2.7204 30.8447 2.01265 34.5447 2C35.3632 2 36.1944 2.03554 37.0163 2.10661C44.6237 2.76005 51.0021 6.07767 55.9671 11.9655C56.0818 12.1076 56.1964 12.2452 56.2984 12.377C56.4004 12.5089 56.5197 12.659 56.6217 12.7737C56.6688 12.8289 56.7227 12.8778 56.7822 12.9193C56.8424 12.8782 56.8967 12.8292 56.9438 12.7737C57.0459 12.659 57.1525 12.5226 57.266 12.377C57.3795 12.2314 57.478 12.1076 57.5984 11.9655C62.5611 6.07767 68.9418 2.76005 76.5469 2.10661C77.3677 2.03554 78.2 2 79.0185 2C82.7186 2.01265 86.3833 2.7204 89.822 4.08641C96.0984 6.5431 100.976 10.5658 104.32 16.0432C108.068 22.1809 109.161 29.1188 107.57 36.6631C106.704 40.7752 105.085 44.8666 102.624 49.1701C102.06 50.1529 101.46 51.1327 100.823 52.1094" stroke="#2E3192" stroke-width="3" stroke-linecap="round" stroke-linejoin="round"/>
<path d="M75.2272 92.8357V77.1739H59.5653C59.1004 77.1739 58.6546 76.9892 58.3259 76.6605C57.9972 76.3318 57.8125 75.8859 57.8125 75.4211V62.7983C57.8123 62.5681 57.8576 62.3401 57.9456 62.1273C58.0337 61.9146 58.1628 61.7213 58.3256 61.5585C58.4883 61.3957 58.6816 61.2666 58.8944 61.1786C59.1071 61.0905 59.3351 61.0453 59.5653 61.0455H75.2272V45.3825C75.2275 44.9178 75.4123 44.4722 75.741 44.1438C76.0696 43.8153 76.5153 43.6308 76.98 43.6308H89.6028C89.8329 43.6306 90.0608 43.6758 90.2735 43.7638C90.4861 43.8518 90.6793 43.9808 90.8421 44.1434C91.0049 44.3061 91.134 44.4993 91.2221 44.7119C91.3102 44.9245 91.3556 45.1523 91.3556 45.3825V61.0455H107.019C107.483 61.0455 107.929 61.2301 108.258 61.5588C108.587 61.8876 108.771 62.3334 108.771 62.7983V75.4211C108.771 75.8858 108.586 76.3315 108.258 76.6602C107.929 76.9888 107.483 77.1736 107.019 77.1739H91.3556V92.8357C91.3557 93.0659 91.3105 93.2939 91.2225 93.5067C91.1344 93.7194 91.0053 93.9127 90.8425 94.0755C90.6797 94.2383 90.4865 94.3674 90.2737 94.4554C90.061 94.5435 89.833 94.5887 89.6028 94.5885H76.98C76.5151 94.5885 76.0693 94.4039 75.7405 94.0752C75.4118 93.7464 75.2272 93.3006 75.2272 92.8357V92.8357Z" stroke="#B60062" stroke-width="3" stroke-miterlimit="10"/>
<path d="M18.3269 73.8161C18.3269 73.1283 18.7683 72.6697 19.4733 72.6697C20.1783 72.6697 20.6197 73.1283 20.6197 73.8161V76.5972H23.4019C24.1115 76.5972 24.5483 77.0558 24.5483 77.7436C24.5483 78.4314 24.107 78.89 23.4019 78.89H20.6277V81.6711C20.6277 82.3589 20.1875 82.8175 19.4813 82.8175C18.7751 82.8175 18.3349 82.3589 18.3349 81.6711V78.9026H15.5458C14.8362 78.9026 14.3994 78.4441 14.3994 77.7562C14.3994 77.0684 14.8408 76.6098 15.5458 76.6098H18.3269V73.8161Z" fill="#2E3192"/>
<path d="M118.319 36.9451C118.58 36.3054 119.162 36.0452 119.819 36.3134C120.476 36.5817 120.711 37.1744 120.45 37.8141L119.399 40.3888L121.974 41.4401C122.631 41.7083 122.865 42.301 122.605 42.9407C122.345 43.5803 121.761 43.8394 121.104 43.5712L118.53 42.5199L117.478 45.0959C117.217 45.7344 116.635 45.9946 115.978 45.7264C115.321 45.4581 115.086 44.8654 115.347 44.2258L116.398 41.651L113.823 40.5998C113.166 40.3315 112.932 39.7388 113.192 39.0991C113.452 38.4595 114.036 38.2004 114.693 38.4686L117.267 39.5199L118.319 36.9451Z" fill="#2E3192"/>
<path d="M6.04214 64.2954C8.27455 64.2954 10.0843 62.4857 10.0843 60.2533C10.0843 58.0209 8.27455 56.2112 6.04214 56.2112C3.80973 56.2112 2 58.0209 2 60.2533C2 62.4857 3.80973 64.2954 6.04214 64.2954Z" stroke="#2E3192" stroke-width="3" stroke-linecap="round" stroke-linejoin="round"/>
</svg>
