<svg width="120" height="100" viewBox="0 0 120 100" fill="none" xmlns="http://www.w3.org/2000/svg">
<path opacity="0.1" d="M100.858 97.4954H39.79L70.3238 36.4279L100.858 97.4954Z" stroke="#65ADC7" stroke-width="3" stroke-miterlimit="10"/>
<path d="M19.7094 73.0356C19.7094 72.3613 20.142 71.9118 20.8331 71.9118C21.5243 71.9118 21.9569 72.3613 21.9569 73.0356V75.7618H24.6832C25.3788 75.7618 25.8069 76.2113 25.8069 76.8856C25.8069 77.5598 25.3743 78.0093 24.6832 78.0093H21.9659V80.7356C21.9659 81.4099 21.5333 81.8594 20.8421 81.8594C20.151 81.8594 19.7184 81.4099 19.7184 80.7356V78.0183H16.9831C16.2875 78.0183 15.8594 77.5688 15.8594 76.8946C15.8594 76.2203 16.292 75.7708 16.9831 75.7708H19.7094V73.0356Z" fill="#2E3192"/>
<path d="M103.976 54.5868C106.164 54.5868 107.938 52.8128 107.938 50.6244C107.938 48.436 106.164 46.662 103.976 46.662C101.788 46.662 100.014 48.436 100.014 50.6244C100.014 52.8128 101.788 54.5868 103.976 54.5868Z" fill="#2E3192"/>
<path d="M42.8491 23.0022C40.1262 28.0906 36.9178 35.2895 37.255 40.4543C37.255 40.4543 57.7951 42.3737 66.4335 25.2891C66.4335 25.2891 72.9603 5.90082 79.4871 3.40494L66.3391 5.84912C60.6303 6.9102 55.2933 9.43045 50.8469 13.1648C47.5789 15.9048 44.8643 19.2438 42.8491 23.0022Z" fill="#E8B000"/>
<path d="M1.62207 14.6134C1.62207 14.6134 -8.36032 46.0956 21.2025 52.2381C21.2025 52.2381 23.8894 42.8322 15.2466 34.5782C15.2466 34.5782 24.0771 38.4169 24.0771 46.8631L25.2334 54.3553C25.2334 54.3553 31.9524 39.5744 20.0507 31.1282C8.14888 22.682 5.26868 22.2921 1.62207 14.6134Z" fill="#E8B000"/>
<path d="M28.3037 58.9627C28.3037 58.9627 78.982 45.9035 107.202 81.0334" stroke="#2E3192" stroke-width="3" stroke-linecap="round" stroke-linejoin="round"/>
<path d="M29.457 68.3641C29.457 68.3641 73.8007 68.7473 88.9659 93.8948" stroke="#2E3192" stroke-width="3" stroke-linecap="round" stroke-linejoin="round"/>
<path d="M36.3672 80.4569C36.3672 80.4569 53.0674 86.024 64.777 96.5818" stroke="#2E3192" stroke-width="3" stroke-linecap="round" stroke-linejoin="round"/>
<path d="M33.8692 5.52778C33.102 5.5282 32.3659 5.83103 31.8206 6.3706C31.7147 5.15922 31.1519 4.0335 30.2463 3.222C29.3407 2.41049 28.1602 1.97402 26.9445 2.0012C25.7288 2.02837 24.569 2.51715 23.7006 3.36831C22.8322 4.21947 22.3202 5.36921 22.2686 6.58411C21.9526 6.2063 21.5464 5.9143 21.0875 5.73514C20.6287 5.55597 20.1321 5.49542 19.6437 5.55909C19.1553 5.62276 18.6908 5.8086 18.2933 6.0994C17.8957 6.3902 17.578 6.77658 17.3694 7.22278C17.1607 7.66898 17.0681 8.16059 17.0999 8.65212C17.1317 9.14364 17.2869 9.61921 17.5513 10.0348C17.8156 10.4504 18.1806 10.7926 18.6123 11.0298C19.044 11.2669 19.5285 11.3914 20.0211 11.3916H33.8692C34.6361 11.3765 35.3665 11.0613 35.9036 10.5137C36.4406 9.966 36.7415 9.22954 36.7415 8.46248C36.7415 7.69543 36.4406 6.95897 35.9036 6.41129C35.3665 5.86362 34.6361 5.54842 33.8692 5.5334V5.52778Z" stroke="#2E3192" stroke-width="3" stroke-linecap="round" stroke-linejoin="round"/>
<path d="M72.0764 6.66953C46.8569 6.66953 26.4111 27.1141 26.4111 52.3325C26.4111 77.5509 46.8569 98 72.0764 98C97.2958 98 117.742 77.5542 117.742 52.3325C117.742 31.0372 103.165 13.1469 83.4455 8.09333" stroke="#E8B000" stroke-width="3" stroke-linecap="round" stroke-linejoin="round"/>
</svg>
