<svg width="96" height="96" viewBox="0 0 96 96" fill="none" xmlns="http://www.w3.org/2000/svg">
<path opacity="0.1" d="M23.256 23.3636L9.98396 42.0116C5.27286 48.6267 7.27019 57.8587 14.2897 61.9396C16.0805 62.9808 17.5649 64.4762 18.5928 66.2747L25.8488 78.9733L27.6266 84.9796C28.9475 89.448 34.6435 90.7573 37.7857 87.3182L46.0764 78.2373C46.0764 78.2373 53.063 69.4124 43.8702 59.1164C35.9111 50.2036 31.5333 47.904 30.5013 25.504C30.3262 21.7076 25.4595 20.2667 23.256 23.3636Z" fill="#65ADC7"/>
<path opacity="0.1" d="M64.7715 20.6302L62.1199 24.2667C61.2018 25.5275 60.5422 26.9575 60.1792 28.4744C59.8162 29.9913 59.7569 31.565 60.0047 33.1049C60.2526 34.6448 60.8028 36.1204 61.6234 37.4467C62.4441 38.773 63.5192 39.9239 64.7866 40.8329L68.2666 43.3298C69.094 43.923 70.031 44.3461 71.0232 44.5744C72.0154 44.8028 73.043 44.8318 74.0465 44.6599C75.05 44.488 76.0094 44.1186 76.869 43.573C77.7287 43.0274 78.4714 42.3166 79.0542 41.4818L84.103 34.2498C85.2406 32.6197 85.7528 30.6343 85.5456 28.6573C85.3385 26.6803 84.4259 24.8442 82.975 23.4853L78.5306 19.3289C77.5766 18.4361 76.4439 17.7561 75.2073 17.334C73.9708 16.9118 72.6587 16.7571 71.3579 16.8802C70.0571 17.0032 68.7973 17.4011 67.6618 18.0476C66.5264 18.6941 65.5412 19.5744 64.7715 20.6302Z" fill="#65ADC7"/>
<path d="M83.9202 77.9707C84.1228 77.4747 84.5744 77.2738 85.0837 77.4818C85.593 77.6898 85.7753 78.1493 85.5726 78.6444L84.7584 80.6418L86.7557 81.456C87.265 81.664 87.4473 82.1244 87.2446 82.6195C87.0419 83.1147 86.5904 83.3164 86.081 83.1084L84.0846 82.2942L83.2695 84.2907C83.0677 84.7867 82.6162 84.9875 82.1059 84.7795C81.5957 84.5715 81.4153 84.112 81.6171 83.616L82.4322 81.6195L80.4357 80.8044C79.9264 80.5964 79.7442 80.1369 79.9468 79.6409C80.1495 79.1449 80.6002 78.944 81.1095 79.152L83.1068 79.9671L83.9202 77.9707Z" fill="#2E3192"/>
<path d="M12.5849 85.6293C14.3159 85.6293 15.7191 84.2261 15.7191 82.4951C15.7191 80.7641 14.3159 79.3609 12.5849 79.3609C10.8539 79.3609 9.45068 80.7641 9.45068 82.4951C9.45068 84.2261 10.8539 85.6293 12.5849 85.6293Z" stroke="#2E3192" stroke-width="3" stroke-linecap="round" stroke-linejoin="round"/>
<path d="M18.0357 11.9716C19.263 11.9716 20.2579 10.9766 20.2579 9.74934C20.2579 8.52204 19.263 7.52711 18.0357 7.52711C16.8084 7.52711 15.8135 8.52204 15.8135 9.74934C15.8135 10.9766 16.8084 11.9716 18.0357 11.9716Z" fill="#2E3192"/>
<path d="M47.9999 93.3333C87.4079 72.1138 85.7546 57.7831 85.7546 57.7831V18.3751C57.9208 15.0676 47.911 2.66667 47.911 2.66667C47.911 2.66667 38.079 15.0676 10.2453 18.3751V57.7831C10.2453 57.7831 8.59193 72.1138 47.9999 93.3333Z" stroke="#2E3192" stroke-width="2" stroke-linecap="round" stroke-linejoin="round"/>
<path d="M37.5398 51.8507C37.5398 50.1413 37.498 48.4311 37.5495 46.7236C37.6322 43.9556 38.7318 41.6187 40.7042 39.6889C41.9322 38.4977 43.4394 37.6335 45.0878 37.1754C46.7362 36.7173 48.4732 36.6799 50.1397 37.0667C53.3575 37.8293 55.6882 39.7191 57.1726 42.648C57.8635 44.0293 58.2184 45.5543 58.2082 47.0987C58.2188 50.5067 58.2082 53.9147 58.2082 57.3209C58.2082 58.0027 57.8846 58.424 57.2304 58.5982C56.5931 58.768 55.8428 58.216 55.8268 57.5484C55.8117 56.9164 55.8268 56.2836 55.8268 55.6507C55.8268 52.8533 55.8553 50.056 55.8188 47.2587C55.7762 43.9333 54.2464 41.4809 51.2855 39.9698C49.9061 39.2625 48.3371 39.0134 46.8064 39.2587C43.8055 39.7093 41.7326 41.3644 40.4953 44.0987C40.081 45.0447 39.8749 46.0687 39.8909 47.1013C39.8909 50.4791 39.8909 53.8539 39.8909 57.2258C39.8909 57.9929 39.6144 58.3982 38.9806 58.5796C38.8237 58.6201 38.66 58.6274 38.5001 58.601C38.3401 58.5746 38.1874 58.5152 38.0518 58.4264C37.9162 58.3376 37.8006 58.2215 37.7124 58.0855C37.6242 57.9494 37.5654 57.7965 37.5398 57.6364C37.5209 57.4593 37.514 57.2811 37.5193 57.1031C37.5193 55.349 37.5193 53.595 37.5193 51.8409L37.5398 51.8507Z" fill="#E8B000"/>
<path d="M47.8745 18.0942C52.4399 18.0107 56.2434 21.872 56.2496 26.4204C56.2558 31.0133 52.511 34.8418 47.8585 34.8267C46.7565 34.8275 45.6652 34.6105 44.6472 34.1883C43.6293 33.766 42.7049 33.1468 41.927 32.3661C41.1492 31.5855 40.5333 30.6588 40.1147 29.6393C39.6961 28.6199 39.4831 27.5278 39.4879 26.4258C39.4932 21.7884 43.2888 18.0311 47.8745 18.0942ZM53.8576 26.4498C53.9234 23.2729 51.2487 20.4587 47.9021 20.4516C47.102 20.4298 46.3057 20.5682 45.5599 20.8587C44.8142 21.1492 44.134 21.586 43.5596 22.1433C42.9851 22.7006 42.5279 23.3671 42.2149 24.1037C41.9018 24.8403 41.7393 25.6321 41.7368 26.4324C41.7343 27.2328 41.8919 28.0256 42.2004 28.7641C42.5088 29.5026 42.9619 30.172 43.5328 30.7328C44.1038 31.2937 44.7812 31.7347 45.5252 32.0298C46.2691 32.325 47.0646 32.4684 47.8647 32.4515C51.207 32.4729 53.9047 29.7191 53.8576 26.4507V26.4498Z" fill="#E8B000"/>
<path d="M32.3885 23.9698C36.2925 23.8987 39.5441 27.2 39.5494 31.0898C39.5556 35.016 36.3494 38.2898 32.3752 38.2773C31.4329 38.2781 30.4998 38.0926 29.6294 37.7315C28.759 37.3704 27.9686 36.841 27.3035 36.1735C26.6384 35.506 26.1117 34.7136 25.7538 33.842C25.3959 32.9703 25.2137 32.0365 25.2178 31.0942C25.2223 27.128 28.4667 23.9165 32.3885 23.9698ZM37.505 31.1156C37.561 28.3982 35.2738 25.992 32.409 25.9867C31.7351 25.9846 31.0674 26.1152 30.444 26.3712C29.8206 26.6271 29.2537 27.0033 28.7757 27.4784C28.2977 27.9534 27.918 28.5179 27.6581 29.1397C27.3983 29.7615 27.2635 30.4283 27.2614 31.1022C27.2593 31.7761 27.3899 32.4438 27.6459 33.0672C27.9018 33.6906 28.2781 34.2575 28.7531 34.7355C29.7124 35.7008 31.016 36.2455 32.377 36.2498C35.2374 36.2667 37.5441 33.9093 37.505 31.1156Z" fill="#E8B000"/>
<path d="M34.3353 40.1938C32.9105 39.8632 31.4255 39.8952 30.0161 40.2866C28.6068 40.6781 27.3181 41.4166 26.2678 42.4347C24.5789 44.0844 23.6402 46.0836 23.57 48.4489C23.5265 49.9093 23.562 51.3724 23.562 52.8338H23.5505C23.5505 54.333 23.5505 55.8329 23.5505 57.3333C23.5461 57.485 23.5521 57.6367 23.5682 57.7875C23.5902 57.9244 23.6405 58.0552 23.7159 58.1715C23.7913 58.2878 23.8901 58.3871 24.006 58.4631C24.122 58.5391 24.2525 58.59 24.3893 58.6126C24.526 58.6353 24.666 58.6292 24.8002 58.5946C25.3425 58.4391 25.5789 58.0924 25.5789 57.4391C25.5789 54.5538 25.5789 51.6681 25.5789 48.7822C25.5652 47.8991 25.7413 47.0234 26.0953 46.2142C27.1505 43.8764 28.9229 42.4613 31.4891 42.0764C32.7975 41.8648 34.1392 42.0769 35.3185 42.6818C35.3567 42.7004 35.394 42.72 35.4313 42.7396C35.5553 42.8047 35.6913 42.8437 35.8309 42.8541C35.9705 42.8645 36.1108 42.8461 36.243 42.8C36.3752 42.7539 36.4965 42.6811 36.5994 42.5862C36.7023 42.4912 36.7846 42.3761 36.8411 42.248C36.9473 42.0055 36.9556 41.7313 36.8644 41.4828C36.7731 41.2344 36.5893 41.0308 36.3513 40.9147C35.7085 40.5995 35.0323 40.3577 34.3353 40.1938Z" fill="#E8B000"/>
<path d="M70.7823 31.0942C70.7864 32.0365 70.6042 32.9703 70.2463 33.842C69.8884 34.7136 69.3617 35.506 68.6966 36.1735C68.0315 36.841 67.2411 37.3704 66.3707 37.7315C65.5004 38.0926 64.5672 38.2781 63.6249 38.2773C59.6471 38.2898 56.4445 35.016 56.4507 31.0898C56.456 27.2 59.7076 23.8987 63.6116 23.9698C67.5334 23.9165 70.7778 27.128 70.7823 31.0942ZM63.6231 36.2498C64.9841 36.2455 66.2877 35.7008 67.247 34.7355C68.2064 33.7701 68.743 32.4632 68.7387 31.1022C68.7345 29.7413 68.1897 28.4377 67.2244 27.4784C66.259 26.519 64.9521 25.9824 63.5911 25.9867C60.7263 25.992 58.4356 28.3982 58.4951 31.1156C58.456 33.9093 60.7627 36.2667 63.6231 36.2498Z" fill="#E8B000"/>
<path d="M61.6647 40.1938C63.0895 39.8632 64.5745 39.8952 65.9839 40.2866C67.3932 40.6781 68.6819 41.4166 69.7322 42.4347C71.4211 44.0844 72.3598 46.0836 72.43 48.4489C72.4736 49.9093 72.438 51.3724 72.438 52.8338H72.4496C72.4496 54.333 72.4496 55.8329 72.4496 57.3333C72.4539 57.485 72.4479 57.6367 72.4318 57.7875C72.4098 57.9244 72.3595 58.0552 72.2841 58.1715C72.2088 58.2878 72.1099 58.3871 71.994 58.4631C71.878 58.5391 71.7475 58.59 71.6108 58.6126C71.474 58.6353 71.334 58.6292 71.1998 58.5946C70.6576 58.4391 70.4211 58.0924 70.4211 57.4391C70.4211 54.5538 70.4211 51.6681 70.4211 48.7822C70.4348 47.8991 70.2587 47.0234 69.9047 46.2142C68.8496 43.8764 67.0771 42.4613 64.5109 42.0764C63.2026 41.8648 61.8608 42.0769 60.6816 42.6818C60.6433 42.7004 60.606 42.72 60.5687 42.7396C60.4448 42.8047 60.3088 42.8437 60.1691 42.8541C60.0295 42.8645 59.8892 42.8461 59.757 42.8C59.6248 42.7539 59.5035 42.6811 59.4006 42.5862C59.2977 42.4912 59.2154 42.3761 59.1589 42.248C59.0527 42.0055 59.0444 41.7313 59.1357 41.4828C59.2269 41.2344 59.4108 41.0308 59.6487 40.9147C60.2915 40.5995 60.9678 40.3577 61.6647 40.1938Z" fill="#E8B000"/>
<path d="M47.9998 59.4693L51.5234 66.6089L59.4025 67.7538L53.7012 73.3111L55.047 81.1582L47.9998 77.4533L40.9527 81.1582L42.2985 73.3111L36.5972 67.7538L44.4763 66.6089L47.9998 59.4693Z" stroke="#2E3192" stroke-width="2" stroke-linecap="round" stroke-linejoin="round"/>
</svg>
