<svg width="236" height="22" viewBox="0 0 236 22" fill="none" xmlns="http://www.w3.org/2000/svg">
<circle cx="10.4829" cy="10.9637" r="9.5" fill="#5A6BB6"/>
<path d="M40.4907 16.9637H38.6235V11.8075H33.3579V16.9637H31.4829V5.54187H33.3579V10.2137H38.6235V5.54187H40.4907V16.9637ZM50.6629 12.62C50.6629 13.3387 50.5692 13.9768 50.3817 14.5341C50.1942 15.0913 49.9207 15.5627 49.5613 15.9481C49.202 16.3283 48.7697 16.62 48.2645 16.8231C47.7593 17.021 47.189 17.12 46.5535 17.12C45.9598 17.12 45.4155 17.021 44.9207 16.8231C44.4259 16.62 43.9962 16.3283 43.6317 15.9481C43.2723 15.5627 42.9936 15.0913 42.7957 14.5341C42.5978 13.9768 42.4988 13.3387 42.4988 12.62C42.4988 11.6669 42.6629 10.8596 42.991 10.1981C43.3244 9.53145 43.7983 9.02364 44.4129 8.67468C45.0275 8.32572 45.7593 8.15125 46.6082 8.15125C47.4051 8.15125 48.1082 8.32572 48.7176 8.67468C49.327 9.02364 49.8035 9.53145 50.1473 10.1981C50.491 10.8648 50.6629 11.6721 50.6629 12.62ZM44.3895 12.62C44.3895 13.2502 44.465 13.7893 44.616 14.2372C44.7723 14.6851 45.0119 15.0288 45.3348 15.2684C45.6577 15.5028 46.0744 15.62 46.5848 15.62C47.0952 15.62 47.5119 15.5028 47.8348 15.2684C48.1577 15.0288 48.3947 14.6851 48.5457 14.2372C48.6968 13.7893 48.7723 13.2502 48.7723 12.62C48.7723 11.9898 48.6968 11.4559 48.5457 11.0184C48.3947 10.5757 48.1577 10.2398 47.8348 10.0106C47.5119 9.77625 47.0926 9.65906 46.577 9.65906C45.8166 9.65906 45.2619 9.91427 44.9129 10.4247C44.564 10.9351 44.3895 11.6669 44.3895 12.62ZM62.2257 8.15125C63.1945 8.15125 63.9236 8.40125 64.4132 8.90125C64.908 9.40125 65.1554 10.2033 65.1554 11.3075V16.9637H63.3195V11.6356C63.3195 10.9794 63.1919 10.4846 62.9367 10.1512C62.6815 9.81791 62.2934 9.65125 61.7726 9.65125C61.0434 9.65125 60.5174 9.88562 60.1945 10.3544C59.8768 10.8179 59.7179 11.4924 59.7179 12.3778V16.9637H57.882V11.6356C57.882 11.1981 57.8247 10.8335 57.7101 10.5419C57.6007 10.245 57.4315 10.0236 57.2023 9.87781C56.9731 9.72677 56.6841 9.65125 56.3351 9.65125C55.8299 9.65125 55.4262 9.76583 55.1242 9.995C54.8273 10.2242 54.6137 10.5627 54.4835 11.0106C54.3533 11.4533 54.2882 11.9976 54.2882 12.6434V16.9637H52.4523V8.31531H53.882L54.1398 9.47937H54.2413C54.4184 9.17729 54.6372 8.92989 54.8976 8.73718C55.1632 8.53927 55.4575 8.39343 55.7804 8.29968C56.1033 8.20072 56.4393 8.15125 56.7882 8.15125C57.4341 8.15125 57.9783 8.26583 58.421 8.495C58.8637 8.71895 59.1945 9.0627 59.4132 9.52625H59.5538C59.8247 9.0575 60.2023 8.71114 60.6867 8.48718C61.171 8.26322 61.6841 8.15125 62.2257 8.15125ZM69.2338 4.8075V7.73718C69.2338 8.07572 69.2234 8.40906 69.2026 8.73718C69.187 9.0601 69.1713 9.3127 69.1557 9.495H69.2338C69.4682 9.12 69.7937 8.80489 70.2104 8.54968C70.6323 8.28927 71.1713 8.15906 71.8276 8.15906C72.8536 8.15906 73.6792 8.53666 74.3042 9.29187C74.9292 10.0419 75.2417 11.1538 75.2417 12.6278C75.2417 13.607 75.0984 14.4299 74.812 15.0966C74.5255 15.7632 74.1219 16.2684 73.601 16.6122C73.0854 16.9507 72.4786 17.12 71.7807 17.12C71.1245 17.12 70.5932 17.0002 70.187 16.7606C69.7859 16.5158 69.4708 16.232 69.2417 15.9091H69.1088L68.7729 16.9637H67.3979V4.8075H69.2338ZM71.3432 9.65125C70.8224 9.65125 70.4083 9.75541 70.101 9.96375C69.799 10.1721 69.5802 10.4846 69.4448 10.9012C69.3094 11.3127 69.2391 11.8361 69.2338 12.4716V12.6356C69.2338 13.5992 69.3849 14.3361 69.687 14.8466C69.9943 15.357 70.5516 15.6122 71.3588 15.6122C71.9995 15.6122 72.4917 15.3544 72.8354 14.8387C73.1792 14.3179 73.351 13.5731 73.351 12.6044C73.351 11.6252 73.1792 10.8882 72.8354 10.3934C72.4969 9.89864 71.9995 9.65125 71.3432 9.65125ZM81.4295 8.15125C81.5753 8.15125 81.7342 8.15906 81.906 8.17468C82.0779 8.19031 82.2263 8.21114 82.3513 8.23718L82.1795 9.95593C82.0701 9.92468 81.9347 9.90125 81.7732 9.88562C81.617 9.87 81.4763 9.86218 81.3513 9.86218C81.0232 9.86218 80.7107 9.91687 80.4138 10.0262C80.117 10.1304 79.854 10.2919 79.6248 10.5106C79.3956 10.7242 79.2159 10.9924 79.0857 11.3153C78.9555 11.6382 78.8904 12.0132 78.8904 12.4403V16.9637H77.0467V8.31531H78.4842L78.7342 9.83875H78.8201C78.992 9.53145 79.2055 9.2502 79.4607 8.995C79.7159 8.73979 80.0076 8.53666 80.3357 8.38562C80.6691 8.22937 81.0336 8.15125 81.4295 8.15125ZM87.0782 8.15125C87.8491 8.15125 88.5105 8.3101 89.0626 8.62781C89.6147 8.94552 90.0392 9.39604 90.336 9.97937C90.6329 10.5627 90.7813 11.2606 90.7813 12.0731V13.0575H85.0079C85.0287 13.896 85.2527 14.5419 85.6798 14.995C86.1121 15.4481 86.7162 15.6747 87.4923 15.6747C88.0444 15.6747 88.5392 15.6226 88.9767 15.5184C89.4194 15.4091 89.8751 15.2502 90.3438 15.0419V16.5341C89.9116 16.7372 89.4715 16.8856 89.0235 16.9794C88.5756 17.0731 88.0392 17.12 87.4142 17.12C86.5652 17.12 85.8178 16.9559 85.172 16.6278C84.5313 16.2945 84.0287 15.7997 83.6642 15.1434C83.3048 14.4872 83.1251 13.6721 83.1251 12.6981C83.1251 11.7294 83.2892 10.9065 83.6173 10.2294C83.9454 9.55229 84.4063 9.03666 85.0001 8.6825C85.5938 8.32833 86.2866 8.15125 87.0782 8.15125ZM87.0782 9.53406C86.5001 9.53406 86.0313 9.72156 85.672 10.0966C85.3178 10.4716 85.1095 11.021 85.047 11.745H88.9845C88.9793 11.3127 88.9063 10.9299 88.7657 10.5966C88.6303 10.2632 88.422 10.0028 88.1407 9.81531C87.8647 9.62781 87.5105 9.53406 87.0782 9.53406ZM98.3442 14.495C98.3442 15.0627 98.2061 15.5419 97.9301 15.9325C97.6541 16.3231 97.2504 16.62 96.7192 16.8231C96.1931 17.021 95.5473 17.12 94.7817 17.12C94.1775 17.12 93.6567 17.0757 93.2192 16.9872C92.7869 16.9038 92.378 16.7736 91.9926 16.5966V15.0106C92.4041 15.2033 92.865 15.37 93.3754 15.5106C93.891 15.6512 94.378 15.7216 94.8363 15.7216C95.4405 15.7216 95.8754 15.6278 96.141 15.4403C96.4067 15.2476 96.5395 14.9924 96.5395 14.6747C96.5395 14.4872 96.4848 14.3205 96.3754 14.1747C96.2712 14.0236 96.0733 13.87 95.7817 13.7137C95.4952 13.5523 95.0733 13.3596 94.516 13.1356C93.9692 12.9169 93.5082 12.6981 93.1332 12.4794C92.7582 12.2606 92.4744 11.9976 92.2817 11.6903C92.089 11.3778 91.9926 10.9794 91.9926 10.495C91.9926 9.72937 92.2947 9.14864 92.8988 8.75281C93.5082 8.35177 94.3129 8.15125 95.3129 8.15125C95.8442 8.15125 96.3442 8.20593 96.8129 8.31531C97.2869 8.41947 97.7504 8.57312 98.2035 8.77625L97.6254 10.1591C97.2348 9.98718 96.8416 9.84656 96.4457 9.73718C96.0551 9.6226 95.6567 9.56531 95.2504 9.56531C94.7765 9.56531 94.4145 9.63822 94.1645 9.78406C93.9197 9.92989 93.7973 10.1382 93.7973 10.4091C93.7973 10.6122 93.8572 10.7841 93.977 10.9247C94.0968 11.0653 94.3025 11.2059 94.5942 11.3466C94.891 11.4872 95.3025 11.6617 95.8285 11.87C96.3442 12.0679 96.7895 12.2762 97.1645 12.495C97.5447 12.7085 97.8363 12.9716 98.0395 13.2841C98.2426 13.5966 98.3442 14.0002 98.3442 14.495Z" fill="#ADADAD"/>
<circle cx="156.266" cy="10.9637" r="9.5" fill="#B60062"/>
<path d="M182.196 16.9637L178.907 7.42468H178.836C178.852 7.63822 178.87 7.92989 178.891 8.29968C178.912 8.66947 178.93 9.06531 178.946 9.48718C178.961 9.90906 178.969 10.3127 178.969 10.6981V16.9637H177.266V5.54187H179.899L183.063 14.6591H183.11L186.383 5.54187H189.008V16.9637H187.219V10.6044C187.219 10.2554 187.224 9.87781 187.235 9.47156C187.25 9.06531 187.266 8.67989 187.282 8.31531C187.303 7.95072 187.318 7.65906 187.329 7.44031H187.266L183.852 16.9637H182.196ZM199.048 8.31531V16.9637H197.602L197.352 15.7997H197.251C197.069 16.0966 196.837 16.344 196.555 16.5419C196.274 16.7346 195.962 16.8778 195.618 16.9716C195.274 17.0705 194.912 17.12 194.532 17.12C193.881 17.12 193.324 17.0106 192.86 16.7919C192.402 16.5679 192.05 16.2242 191.805 15.7606C191.561 15.2971 191.438 14.6981 191.438 13.9637V8.31531H193.282V13.62C193.282 14.2919 193.417 14.7945 193.688 15.1278C193.964 15.4611 194.391 15.6278 194.97 15.6278C195.527 15.6278 195.97 15.5132 196.298 15.2841C196.626 15.0549 196.858 14.7163 196.993 14.2684C197.134 13.8205 197.204 13.271 197.204 12.62V8.31531H199.048ZM200.493 20.8075C200.222 20.8075 199.965 20.7867 199.72 20.745C199.475 20.7085 199.269 20.6643 199.103 20.6122V19.1434C199.28 19.1955 199.452 19.2346 199.618 19.2606C199.785 19.2867 199.975 19.2997 200.189 19.2997C200.527 19.2997 200.806 19.2059 201.025 19.0184C201.249 18.8309 201.36 18.4742 201.36 17.9481V8.31531H203.196V18.1122C203.196 18.6382 203.103 19.1044 202.915 19.5106C202.733 19.9169 202.441 20.2346 202.04 20.4637C201.644 20.6929 201.129 20.8075 200.493 20.8075ZM201.251 6.01062C201.251 5.64083 201.35 5.38041 201.548 5.22937C201.751 5.07833 201.999 5.00281 202.29 5.00281C202.571 5.00281 202.814 5.07833 203.017 5.22937C203.225 5.38041 203.329 5.64083 203.329 6.01062C203.329 6.3752 203.225 6.63562 203.017 6.79187C202.814 6.94291 202.571 7.01843 202.29 7.01843C201.999 7.01843 201.751 6.94291 201.548 6.79187C201.35 6.63562 201.251 6.3752 201.251 6.01062ZM208.955 8.15125C209.725 8.15125 210.387 8.3101 210.939 8.62781C211.491 8.94552 211.915 9.39604 212.212 9.97937C212.509 10.5627 212.658 11.2606 212.658 12.0731V13.0575H206.884C206.905 13.896 207.129 14.5419 207.556 14.995C207.988 15.4481 208.593 15.6747 209.369 15.6747C209.921 15.6747 210.415 15.6226 210.853 15.5184C211.296 15.4091 211.751 15.2502 212.22 15.0419V16.5341C211.788 16.7372 211.348 16.8856 210.9 16.9794C210.452 17.0731 209.915 17.12 209.29 17.12C208.442 17.12 207.694 16.9559 207.048 16.6278C206.408 16.2945 205.905 15.7997 205.54 15.1434C205.181 14.4872 205.001 13.6721 205.001 12.6981C205.001 11.7294 205.165 10.9065 205.494 10.2294C205.822 9.55229 206.283 9.03666 206.876 8.6825C207.47 8.32833 208.163 8.15125 208.955 8.15125ZM208.955 9.53406C208.376 9.53406 207.908 9.72156 207.548 10.0966C207.194 10.4716 206.986 11.021 206.923 11.745H210.861C210.856 11.3127 210.783 10.9299 210.642 10.5966C210.507 10.2632 210.298 10.0028 210.017 9.81531C209.741 9.62781 209.387 9.53406 208.955 9.53406ZM218.791 8.15125C218.937 8.15125 219.095 8.15906 219.267 8.17468C219.439 8.19031 219.588 8.21114 219.713 8.23718L219.541 9.95593C219.431 9.92468 219.296 9.90125 219.135 9.88562C218.978 9.87 218.838 9.86218 218.713 9.86218C218.385 9.86218 218.072 9.91687 217.775 10.0262C217.478 10.1304 217.215 10.2919 216.986 10.5106C216.757 10.7242 216.577 10.9924 216.447 11.3153C216.317 11.6382 216.252 12.0132 216.252 12.4403V16.9637H214.408V8.31531H215.845L216.095 9.83875H216.181C216.353 9.53145 216.567 9.2502 216.822 8.995C217.077 8.73979 217.369 8.53666 217.697 8.38562C218.03 8.22937 218.395 8.15125 218.791 8.15125ZM224.44 8.15125C225.21 8.15125 225.872 8.3101 226.424 8.62781C226.976 8.94552 227.4 9.39604 227.697 9.97937C227.994 10.5627 228.143 11.2606 228.143 12.0731V13.0575H222.369C222.39 13.896 222.614 14.5419 223.041 14.995C223.473 15.4481 224.078 15.6747 224.854 15.6747C225.406 15.6747 225.9 15.6226 226.338 15.5184C226.781 15.4091 227.236 15.2502 227.705 15.0419V16.5341C227.273 16.7372 226.833 16.8856 226.385 16.9794C225.937 17.0731 225.4 17.12 224.775 17.12C223.927 17.12 223.179 16.9559 222.533 16.6278C221.893 16.2945 221.39 15.7997 221.025 15.1434C220.666 14.4872 220.486 13.6721 220.486 12.6981C220.486 11.7294 220.65 10.9065 220.979 10.2294C221.307 9.55229 221.768 9.03666 222.361 8.6825C222.955 8.32833 223.648 8.15125 224.44 8.15125ZM224.44 9.53406C223.861 9.53406 223.393 9.72156 223.033 10.0966C222.679 10.4716 222.471 11.021 222.408 11.745H226.346C226.341 11.3127 226.268 10.9299 226.127 10.5966C225.992 10.2632 225.783 10.0028 225.502 9.81531C225.226 9.62781 224.872 9.53406 224.44 9.53406ZM235.705 14.495C235.705 15.0627 235.567 15.5419 235.291 15.9325C235.015 16.3231 234.612 16.62 234.08 16.8231C233.554 17.021 232.909 17.12 232.143 17.12C231.539 17.12 231.018 17.0757 230.58 16.9872C230.148 16.9038 229.739 16.7736 229.354 16.5966V15.0106C229.765 15.2033 230.226 15.37 230.737 15.5106C231.252 15.6512 231.739 15.7216 232.198 15.7216C232.802 15.7216 233.237 15.6278 233.502 15.4403C233.768 15.2476 233.901 14.9924 233.901 14.6747C233.901 14.4872 233.846 14.3205 233.737 14.1747C233.633 14.0236 233.435 13.87 233.143 13.7137C232.857 13.5523 232.435 13.3596 231.877 13.1356C231.33 12.9169 230.87 12.6981 230.495 12.4794C230.12 12.2606 229.836 11.9976 229.643 11.6903C229.45 11.3778 229.354 10.9794 229.354 10.495C229.354 9.72937 229.656 9.14864 230.26 8.75281C230.87 8.35177 231.674 8.15125 232.674 8.15125C233.205 8.15125 233.705 8.20593 234.174 8.31531C234.648 8.41947 235.112 8.57312 235.565 8.77625L234.987 10.1591C234.596 9.98718 234.203 9.84656 233.807 9.73718C233.416 9.6226 233.018 9.56531 232.612 9.56531C232.138 9.56531 231.776 9.63822 231.526 9.78406C231.281 9.92989 231.159 10.1382 231.159 10.4091C231.159 10.6122 231.219 10.7841 231.338 10.9247C231.458 11.0653 231.664 11.2059 231.955 11.3466C232.252 11.4872 232.664 11.6617 233.19 11.87C233.705 12.0679 234.151 12.2762 234.526 12.495C234.906 12.7085 235.198 12.9716 235.401 13.2841C235.604 13.5966 235.705 14.0002 235.705 14.495Z" fill="#ADADAD"/>
</svg>
