<svg width="303" height="482" viewBox="0 0 303 482" fill="none" xmlns="http://www.w3.org/2000/svg">
<path d="M1.37402 5.00586H4.19727C5.52344 5.00586 6.48275 5.2041 7.0752 5.60059C7.66764 5.99707 7.96387 6.6237 7.96387 7.48047C7.96387 8.07292 7.79753 8.56283 7.46484 8.9502C7.13672 9.33301 6.65592 9.58138 6.02246 9.69531V9.76367C7.54004 10.0234 8.29883 10.821 8.29883 12.1562C8.29883 13.0495 7.99577 13.7467 7.38965 14.248C6.78809 14.7493 5.94499 15 4.86035 15H1.37402V5.00586ZM2.53613 9.28516H4.4502C5.27051 9.28516 5.86068 9.15755 6.2207 8.90234C6.58073 8.64258 6.76074 8.20736 6.76074 7.59668C6.76074 7.03613 6.56022 6.63281 6.15918 6.38672C5.75814 6.13607 5.12012 6.01074 4.24512 6.01074H2.53613V9.28516ZM2.53613 10.2695V14.0088H4.62109C5.42773 14.0088 6.03385 13.8538 6.43945 13.5439C6.84961 13.2295 7.05469 12.7396 7.05469 12.0742C7.05469 11.4544 6.84505 10.9987 6.42578 10.707C6.01107 10.4154 5.3776 10.2695 4.52539 10.2695H2.53613ZM16.748 11.2471C16.748 12.4684 16.4404 13.4232 15.8252 14.1113C15.21 14.7949 14.36 15.1367 13.2754 15.1367C12.6055 15.1367 12.0107 14.9795 11.4912 14.665C10.9717 14.3506 10.5706 13.8994 10.2881 13.3115C10.0055 12.7236 9.86426 12.0355 9.86426 11.2471C9.86426 10.0257 10.1696 9.07552 10.7803 8.39648C11.391 7.71289 12.2386 7.37109 13.3232 7.37109C14.3714 7.37109 15.2031 7.71973 15.8184 8.41699C16.4382 9.11426 16.748 10.0576 16.748 11.2471ZM11.04 11.2471C11.04 12.2041 11.2314 12.9333 11.6143 13.4346C11.9971 13.9359 12.5599 14.1865 13.3027 14.1865C14.0456 14.1865 14.6084 13.9382 14.9912 13.4414C15.3786 12.9401 15.5723 12.2087 15.5723 11.2471C15.5723 10.2946 15.3786 9.57227 14.9912 9.08008C14.6084 8.58333 14.041 8.33496 13.2891 8.33496C12.5462 8.33496 11.9857 8.57878 11.6074 9.06641C11.2292 9.55404 11.04 10.2809 11.04 11.2471ZM21.7383 15.1367C20.6536 15.1367 19.8128 14.804 19.2158 14.1387C18.6234 13.4688 18.3271 12.5231 18.3271 11.3018C18.3271 10.0485 18.6279 9.08008 19.2295 8.39648C19.8356 7.71289 20.6969 7.37109 21.8135 7.37109C22.1735 7.37109 22.5335 7.40983 22.8936 7.4873C23.2536 7.56478 23.5361 7.65592 23.7412 7.76074L23.3926 8.72461C23.1419 8.62435 22.8685 8.54232 22.5723 8.47852C22.276 8.41016 22.014 8.37598 21.7861 8.37598C20.264 8.37598 19.5029 9.34668 19.5029 11.2881C19.5029 12.2087 19.6875 12.915 20.0566 13.4072C20.4303 13.8994 20.9818 14.1455 21.7109 14.1455C22.3353 14.1455 22.9756 14.0111 23.6318 13.7422V14.7471C23.1305 15.0068 22.4993 15.1367 21.7383 15.1367ZM30.0234 15L29.7979 13.9336H29.7432C29.3695 14.403 28.9958 14.722 28.6221 14.8906C28.2529 15.0547 27.7904 15.1367 27.2344 15.1367C26.4915 15.1367 25.9082 14.9453 25.4844 14.5625C25.0651 14.1797 24.8555 13.6351 24.8555 12.9287C24.8555 11.4157 26.0654 10.6227 28.4854 10.5498L29.7568 10.5088V10.0439C29.7568 9.45605 29.6292 9.02311 29.374 8.74512C29.1234 8.46257 28.7201 8.32129 28.1641 8.32129C27.5397 8.32129 26.8333 8.5127 26.0449 8.89551L25.6963 8.02734C26.0654 7.82682 26.4688 7.6696 26.9062 7.55566C27.3483 7.44173 27.7904 7.38477 28.2324 7.38477C29.1257 7.38477 29.7865 7.58301 30.2148 7.97949C30.6478 8.37598 30.8643 9.01172 30.8643 9.88672V15H30.0234ZM27.46 14.2002C28.1663 14.2002 28.7201 14.0065 29.1211 13.6191C29.5267 13.2318 29.7295 12.6895 29.7295 11.9922V11.3154L28.5947 11.3633C27.6924 11.3952 27.0407 11.5365 26.6396 11.7871C26.2432 12.0332 26.0449 12.4183 26.0449 12.9424C26.0449 13.3525 26.168 13.6647 26.4141 13.8789C26.6647 14.0931 27.0133 14.2002 27.46 14.2002ZM38.042 12.9561C38.042 13.6533 37.7822 14.1911 37.2627 14.5693C36.7432 14.9476 36.014 15.1367 35.0752 15.1367C34.0817 15.1367 33.307 14.9795 32.751 14.665V13.6123C33.111 13.7946 33.4961 13.9382 33.9062 14.043C34.321 14.1478 34.7197 14.2002 35.1025 14.2002C35.695 14.2002 36.1507 14.1068 36.4697 13.9199C36.7887 13.7285 36.9482 13.4391 36.9482 13.0518C36.9482 12.7601 36.8206 12.5117 36.5654 12.3066C36.3148 12.097 35.8226 11.8509 35.0889 11.5684C34.3916 11.3086 33.8949 11.083 33.5986 10.8916C33.307 10.6956 33.0882 10.4746 32.9424 10.2285C32.8011 9.98242 32.7305 9.68848 32.7305 9.34668C32.7305 8.736 32.9788 8.25521 33.4756 7.9043C33.9723 7.54883 34.6536 7.37109 35.5195 7.37109C36.3262 7.37109 37.1146 7.53516 37.8848 7.86328L37.4814 8.78613C36.7295 8.47624 36.0482 8.32129 35.4375 8.32129C34.8997 8.32129 34.4941 8.4056 34.2207 8.57422C33.9473 8.74284 33.8105 8.97526 33.8105 9.27148C33.8105 9.47201 33.8607 9.6429 33.9609 9.78418C34.0658 9.92546 34.2321 10.0599 34.46 10.1875C34.6878 10.3151 35.1253 10.4997 35.7725 10.7412C36.6611 11.0648 37.2604 11.3906 37.5703 11.7188C37.8848 12.0469 38.042 12.4593 38.042 12.9561ZM48.6309 13.9951H48.5693C48.0452 14.7562 47.2614 15.1367 46.2178 15.1367C45.238 15.1367 44.4746 14.8018 43.9277 14.1318C43.3854 13.4619 43.1143 12.5094 43.1143 11.2744C43.1143 10.0394 43.3877 9.08008 43.9346 8.39648C44.4814 7.71289 45.2425 7.37109 46.2178 7.37109C47.234 7.37109 48.0133 7.74023 48.5557 8.47852H48.6445L48.5967 7.93848L48.5693 7.41211V4.36328H49.7041V15H48.7812L48.6309 13.9951ZM46.3613 14.1865C47.1361 14.1865 47.6966 13.9769 48.043 13.5576C48.3939 13.1338 48.5693 12.4525 48.5693 11.5137V11.2744C48.5693 10.2126 48.3916 9.45605 48.0361 9.00488C47.6852 8.54915 47.1224 8.32129 46.3477 8.32129C45.6823 8.32129 45.1719 8.58105 44.8164 9.10059C44.4655 9.61556 44.29 10.3447 44.29 11.2881C44.29 12.2451 44.4655 12.9674 44.8164 13.4551C45.1673 13.9427 45.6823 14.1865 46.3613 14.1865ZM55.2822 15.1367C54.1748 15.1367 53.2998 14.7995 52.6572 14.125C52.0192 13.4505 51.7002 12.514 51.7002 11.3154C51.7002 10.1077 51.9964 9.14844 52.5889 8.4375C53.1859 7.72656 53.9857 7.37109 54.9883 7.37109C55.9271 7.37109 56.6699 7.68099 57.2168 8.30078C57.7637 8.91602 58.0371 9.72949 58.0371 10.7412V11.459H52.876C52.8988 12.3385 53.1198 13.0062 53.5391 13.4619C53.9629 13.9176 54.5576 14.1455 55.3232 14.1455C56.1299 14.1455 56.9274 13.9769 57.7158 13.6396V14.6514C57.3148 14.8245 56.9342 14.9476 56.5742 15.0205C56.2188 15.098 55.7881 15.1367 55.2822 15.1367ZM54.9746 8.32129C54.373 8.32129 53.8923 8.51725 53.5322 8.90918C53.1768 9.30111 52.9671 9.84342 52.9033 10.5361H56.8203C56.8203 9.82064 56.6608 9.27376 56.3418 8.89551C56.0228 8.5127 55.5671 8.32129 54.9746 8.32129ZM61.1133 15H59.9785V4.36328H61.1133V15ZM69.5762 14.2002C69.7767 14.2002 69.9704 14.1865 70.1572 14.1592C70.3441 14.1273 70.4922 14.0954 70.6016 14.0635V14.9316C70.4785 14.9909 70.2962 15.0387 70.0547 15.0752C69.8177 15.1162 69.6035 15.1367 69.4121 15.1367C67.9629 15.1367 67.2383 14.3734 67.2383 12.8467V8.38965H66.165V7.84277L67.2383 7.37109L67.7168 5.77148H68.373V7.50781H70.5469V8.38965H68.373V12.7988C68.373 13.25 68.4801 13.5964 68.6943 13.8379C68.9085 14.0794 69.2025 14.2002 69.5762 14.2002ZM78.5723 11.2471C78.5723 12.4684 78.2646 13.4232 77.6494 14.1113C77.0342 14.7949 76.1842 15.1367 75.0996 15.1367C74.4297 15.1367 73.835 14.9795 73.3154 14.665C72.7959 14.3506 72.3949 13.8994 72.1123 13.3115C71.8298 12.7236 71.6885 12.0355 71.6885 11.2471C71.6885 10.0257 71.9938 9.07552 72.6045 8.39648C73.2152 7.71289 74.0628 7.37109 75.1475 7.37109C76.1956 7.37109 77.0273 7.71973 77.6426 8.41699C78.2624 9.11426 78.5723 10.0576 78.5723 11.2471ZM72.8643 11.2471C72.8643 12.2041 73.0557 12.9333 73.4385 13.4346C73.8213 13.9359 74.3841 14.1865 75.127 14.1865C75.8698 14.1865 76.4326 13.9382 76.8154 13.4414C77.2028 12.9401 77.3965 12.2087 77.3965 11.2471C77.3965 10.2946 77.2028 9.57227 76.8154 9.08008C76.4326 8.58333 75.8652 8.33496 75.1133 8.33496C74.3704 8.33496 73.8099 8.57878 73.4316 9.06641C73.0534 9.55404 72.8643 10.2809 72.8643 11.2471ZM83.9863 7.37109C84.319 7.37109 84.6175 7.39844 84.8818 7.45312L84.7246 8.50586C84.4147 8.4375 84.1413 8.40332 83.9043 8.40332C83.2982 8.40332 82.7786 8.64941 82.3457 9.1416C81.9173 9.63379 81.7031 10.2467 81.7031 10.9805V15H80.5684V7.50781H81.5049L81.6348 8.89551H81.6895C81.9674 8.40788 82.3024 8.0319 82.6943 7.76758C83.0863 7.50326 83.5169 7.37109 83.9863 7.37109ZM92.75 11.2471C92.75 12.4684 92.4424 13.4232 91.8271 14.1113C91.2119 14.7949 90.362 15.1367 89.2773 15.1367C88.6074 15.1367 88.0127 14.9795 87.4932 14.665C86.9736 14.3506 86.5726 13.8994 86.29 13.3115C86.0075 12.7236 85.8662 12.0355 85.8662 11.2471C85.8662 10.0257 86.1715 9.07552 86.7822 8.39648C87.3929 7.71289 88.2406 7.37109 89.3252 7.37109C90.3734 7.37109 91.2051 7.71973 91.8203 8.41699C92.4401 9.11426 92.75 10.0576 92.75 11.2471ZM87.042 11.2471C87.042 12.2041 87.2334 12.9333 87.6162 13.4346C87.999 13.9359 88.5618 14.1865 89.3047 14.1865C90.0475 14.1865 90.6104 13.9382 90.9932 13.4414C91.3805 12.9401 91.5742 12.2087 91.5742 11.2471C91.5742 10.2946 91.3805 9.57227 90.9932 9.08008C90.6104 8.58333 90.043 8.33496 89.291 8.33496C88.5482 8.33496 87.9876 8.57878 87.6094 9.06641C87.2311 9.55404 87.042 10.2809 87.042 11.2471Z" fill="#ADADAD"/>
<path d="M5.65332 42.9014C4.55501 42.9014 3.68685 43.2682 3.04883 44.002C2.41536 44.7311 2.09863 45.7314 2.09863 47.0029C2.09863 48.3109 2.40397 49.3226 3.01465 50.0381C3.62988 50.749 4.50488 51.1045 5.63965 51.1045C6.33691 51.1045 7.13216 50.9792 8.02539 50.7285V51.7471C7.33268 52.0068 6.47819 52.1367 5.46191 52.1367C3.98991 52.1367 2.85286 51.6901 2.05078 50.7969C1.25326 49.9036 0.854492 48.6344 0.854492 46.9893C0.854492 45.9593 1.0459 45.057 1.42871 44.2822C1.81608 43.5075 2.37207 42.9105 3.09668 42.4912C3.82585 42.0719 4.68262 41.8623 5.66699 41.8623C6.71517 41.8623 7.63118 42.0537 8.41504 42.4365L7.92285 43.4346C7.16634 43.0791 6.40983 42.9014 5.65332 42.9014ZM15.1621 52V47.1533C15.1621 46.5426 15.0231 46.0869 14.7451 45.7861C14.4671 45.4854 14.0319 45.335 13.4395 45.335C12.651 45.335 12.0745 45.5492 11.71 45.9775C11.3499 46.4059 11.1699 47.1077 11.1699 48.083V52H10.0352V41.3633H11.1699V44.583C11.1699 44.9704 11.1517 45.2917 11.1152 45.5469H11.1836C11.4069 45.1868 11.7236 44.9043 12.1338 44.6992C12.5485 44.4896 13.0202 44.3848 13.5488 44.3848C14.4648 44.3848 15.1507 44.6035 15.6064 45.041C16.0667 45.474 16.2969 46.1644 16.2969 47.1123V52H15.1621ZM19.7695 52H18.6348V44.5078H19.7695V52ZM18.5391 42.4775C18.5391 42.2178 18.6029 42.0286 18.7305 41.9102C18.8581 41.7871 19.0176 41.7256 19.209 41.7256C19.3913 41.7256 19.5485 41.7871 19.6807 41.9102C19.8128 42.0332 19.8789 42.2223 19.8789 42.4775C19.8789 42.7327 19.8128 42.9242 19.6807 43.0518C19.5485 43.1748 19.3913 43.2363 19.209 43.2363C19.0176 43.2363 18.8581 43.1748 18.7305 43.0518C18.6029 42.9242 18.5391 42.7327 18.5391 42.4775ZM25.5938 44.3711C25.9264 44.3711 26.2249 44.3984 26.4893 44.4531L26.332 45.5059C26.0221 45.4375 25.7487 45.4033 25.5117 45.4033C24.9056 45.4033 24.3861 45.6494 23.9531 46.1416C23.5247 46.6338 23.3105 47.2467 23.3105 47.9805V52H22.1758V44.5078H23.1123L23.2422 45.8955H23.2969C23.5749 45.4079 23.9098 45.0319 24.3018 44.7676C24.6937 44.5033 25.1243 44.3711 25.5938 44.3711ZM29.0254 52H27.8906V44.5078H29.0254V52ZM27.7949 42.4775C27.7949 42.2178 27.8587 42.0286 27.9863 41.9102C28.1139 41.7871 28.2734 41.7256 28.4648 41.7256C28.6471 41.7256 28.8044 41.7871 28.9365 41.9102C29.0687 42.0332 29.1348 42.2223 29.1348 42.4775C29.1348 42.7327 29.0687 42.9242 28.9365 43.0518C28.8044 43.1748 28.6471 43.2363 28.4648 43.2363C28.2734 43.2363 28.1139 43.1748 27.9863 43.0518C27.8587 42.9242 27.7949 42.7327 27.7949 42.4775ZM34.2617 51.1865C35.0182 51.1865 35.5697 50.9837 35.916 50.5781C36.2624 50.1725 36.4469 49.4889 36.4697 48.5273V48.2744C36.4697 47.2262 36.292 46.472 35.9365 46.0117C35.5811 45.5514 35.0182 45.3213 34.248 45.3213C33.5827 45.3213 33.0723 45.5811 32.7168 46.1006C32.3659 46.6156 32.1904 47.3447 32.1904 48.2881C32.1904 49.2314 32.3636 49.9515 32.71 50.4482C33.0609 50.9404 33.5781 51.1865 34.2617 51.1865ZM34.0908 52.1367C33.1247 52.1367 32.3704 51.7972 31.8281 51.1182C31.2858 50.4391 31.0146 49.4912 31.0146 48.2744C31.0146 47.0485 31.2881 46.0915 31.835 45.4033C32.3818 44.7152 33.1429 44.3711 34.1182 44.3711C35.1436 44.3711 35.932 44.7585 36.4834 45.5332H36.5449L36.709 44.5078H37.6045V55.3633H36.4697V52.1572C36.4697 51.7015 36.4948 51.3141 36.5449 50.9951H36.4561C35.932 51.7562 35.1436 52.1367 34.0908 52.1367ZM41.084 44.5078V49.3682C41.084 49.9788 41.223 50.4346 41.501 50.7354C41.779 51.0361 42.2142 51.1865 42.8066 51.1865C43.5905 51.1865 44.1624 50.9723 44.5225 50.5439C44.887 50.1156 45.0693 49.416 45.0693 48.4453V44.5078H46.2041V52H45.2676L45.1035 50.9951H45.042C44.8096 51.3643 44.486 51.6468 44.0713 51.8428C43.6611 52.0387 43.1917 52.1367 42.6631 52.1367C41.7516 52.1367 41.068 51.9202 40.6123 51.4873C40.1611 51.0544 39.9355 50.3617 39.9355 49.4092V44.5078H41.084ZM49.752 52H48.6172V44.5078H49.752V52ZM48.5693 43.3457C48.7881 43.0632 49.0228 42.7214 49.2734 42.3203C49.5286 41.9193 49.7292 41.5706 49.875 41.2744H51.2559V41.418C51.0553 41.7142 50.7568 42.0788 50.3604 42.5117C49.9639 42.9447 49.6198 43.2796 49.3281 43.5166H48.5693V43.3457Z" fill="#ADADAD"/>
<path d="M7.08203 79.0059H8.33301L4.73047 89H3.58203L0 79.0059H1.23047L3.52734 85.4727C3.79167 86.2155 4.0013 86.9378 4.15625 87.6396C4.32031 86.9014 4.53451 86.1654 4.79883 85.4316L7.08203 79.0059ZM12.708 89.1367C11.6006 89.1367 10.7256 88.7995 10.083 88.125C9.44499 87.4505 9.12598 86.514 9.12598 85.3154C9.12598 84.1077 9.4222 83.1484 10.0146 82.4375C10.6117 81.7266 11.4115 81.3711 12.4141 81.3711C13.3529 81.3711 14.0957 81.681 14.6426 82.3008C15.1895 82.916 15.4629 83.7295 15.4629 84.7412V85.459H10.3018C10.3245 86.3385 10.5456 87.0062 10.9648 87.4619C11.3887 87.9176 11.9834 88.1455 12.749 88.1455C13.5557 88.1455 14.3532 87.9769 15.1416 87.6396V88.6514C14.7406 88.8245 14.36 88.9476 14 89.0205C13.6445 89.098 13.2139 89.1367 12.708 89.1367ZM12.4004 82.3213C11.7988 82.3213 11.318 82.5173 10.958 82.9092C10.6025 83.3011 10.3929 83.8434 10.3291 84.5361H14.2461C14.2461 83.8206 14.0866 83.2738 13.7676 82.8955C13.4486 82.5127 12.9928 82.3213 12.4004 82.3213ZM20.8223 81.3711C21.1549 81.3711 21.4535 81.3984 21.7178 81.4531L21.5605 82.5059C21.2507 82.4375 20.9772 82.4033 20.7402 82.4033C20.1341 82.4033 19.6146 82.6494 19.1816 83.1416C18.7533 83.6338 18.5391 84.2467 18.5391 84.9805V89H17.4043V81.5078H18.3408L18.4707 82.8955H18.5254C18.8034 82.4079 19.1383 82.0319 19.5303 81.7676C19.9222 81.5033 20.3529 81.3711 20.8223 81.3711ZM27.7266 89L27.501 87.9336H27.4463C27.0726 88.403 26.6989 88.722 26.3252 88.8906C25.9561 89.0547 25.4935 89.1367 24.9375 89.1367C24.1947 89.1367 23.6113 88.9453 23.1875 88.5625C22.7682 88.1797 22.5586 87.6351 22.5586 86.9287C22.5586 85.4157 23.7686 84.6227 26.1885 84.5498L27.46 84.5088V84.0439C27.46 83.4561 27.3324 83.0231 27.0771 82.7451C26.8265 82.4626 26.4232 82.3213 25.8672 82.3213C25.2428 82.3213 24.5365 82.5127 23.748 82.8955L23.3994 82.0273C23.7686 81.8268 24.1719 81.6696 24.6094 81.5557C25.0514 81.4417 25.4935 81.3848 25.9355 81.3848C26.8288 81.3848 27.4896 81.583 27.918 81.9795C28.3509 82.376 28.5674 83.0117 28.5674 83.8867V89H27.7266ZM25.1631 88.2002C25.8695 88.2002 26.4232 88.0065 26.8242 87.6191C27.2298 87.2318 27.4326 86.6895 27.4326 85.9922V85.3154L26.2979 85.3633C25.3955 85.3952 24.7438 85.5365 24.3428 85.7871C23.9463 86.0332 23.748 86.4183 23.748 86.9424C23.748 87.3525 23.8711 87.6647 24.1172 87.8789C24.3678 88.0931 24.7165 88.2002 25.1631 88.2002ZM37.0439 81.5078V82.2256L35.6562 82.3896C35.7839 82.5492 35.8978 82.7588 35.998 83.0186C36.0983 83.2738 36.1484 83.5632 36.1484 83.8867C36.1484 84.6204 35.8978 85.2061 35.3965 85.6436C34.8952 86.0811 34.207 86.2998 33.332 86.2998C33.1087 86.2998 32.8991 86.2816 32.7031 86.2451C32.2201 86.5003 31.9785 86.8216 31.9785 87.209C31.9785 87.4141 32.0628 87.5667 32.2314 87.667C32.4001 87.7627 32.6895 87.8105 33.0996 87.8105H34.4258C35.237 87.8105 35.859 87.9814 36.292 88.3232C36.7295 88.665 36.9482 89.1618 36.9482 89.8135C36.9482 90.6429 36.6156 91.2741 35.9502 91.707C35.2848 92.1445 34.3141 92.3633 33.0381 92.3633C32.0583 92.3633 31.3018 92.181 30.7686 91.8164C30.2399 91.4518 29.9756 90.9368 29.9756 90.2715C29.9756 89.8158 30.1214 89.4215 30.4131 89.0889C30.7048 88.7562 31.1149 88.5306 31.6436 88.4121C31.4521 88.3255 31.2904 88.1911 31.1582 88.0088C31.0306 87.8265 30.9668 87.6146 30.9668 87.373C30.9668 87.0996 31.0397 86.8604 31.1855 86.6553C31.3314 86.4502 31.5615 86.252 31.876 86.0605C31.4886 85.901 31.1719 85.6299 30.9258 85.2471C30.6842 84.8643 30.5635 84.4268 30.5635 83.9346C30.5635 83.1143 30.8096 82.4831 31.3018 82.041C31.7939 81.5944 32.4912 81.3711 33.3936 81.3711C33.7855 81.3711 34.1387 81.4167 34.4531 81.5078H37.0439ZM31.0693 90.2578C31.0693 90.6634 31.2402 90.971 31.582 91.1807C31.9238 91.3903 32.4137 91.4951 33.0518 91.4951C34.0042 91.4951 34.7083 91.3516 35.1641 91.0645C35.6243 90.7819 35.8545 90.3968 35.8545 89.9092C35.8545 89.5036 35.7292 89.221 35.4785 89.0615C35.2279 88.9066 34.7562 88.8291 34.0635 88.8291H32.7031C32.1882 88.8291 31.7871 88.9521 31.5 89.1982C31.2129 89.4443 31.0693 89.7975 31.0693 90.2578ZM31.6846 83.9072C31.6846 84.4313 31.8327 84.8278 32.1289 85.0967C32.4251 85.3656 32.8376 85.5 33.3662 85.5C34.4736 85.5 35.0273 84.9622 35.0273 83.8867C35.0273 82.7611 34.4668 82.1982 33.3457 82.1982C32.8125 82.1982 32.4023 82.3418 32.1152 82.6289C31.8281 82.916 31.6846 83.3421 31.6846 83.9072ZM39.6484 81.5078V86.3682C39.6484 86.9788 39.7874 87.4346 40.0654 87.7354C40.3434 88.0361 40.7786 88.1865 41.3711 88.1865C42.1549 88.1865 42.7269 87.9723 43.0869 87.5439C43.4515 87.1156 43.6338 86.416 43.6338 85.4453V81.5078H44.7686V89H43.832L43.668 87.9951H43.6064C43.374 88.3643 43.0505 88.6468 42.6357 88.8428C42.2256 89.0387 41.7562 89.1367 41.2275 89.1367C40.3161 89.1367 39.6325 88.9202 39.1768 88.4873C38.7256 88.0544 38.5 87.3617 38.5 86.4092V81.5078H39.6484ZM51.7891 89L51.5635 87.9336H51.5088C51.1351 88.403 50.7614 88.722 50.3877 88.8906C50.0186 89.0547 49.556 89.1367 49 89.1367C48.2572 89.1367 47.6738 88.9453 47.25 88.5625C46.8307 88.1797 46.6211 87.6351 46.6211 86.9287C46.6211 85.4157 47.8311 84.6227 50.251 84.5498L51.5225 84.5088V84.0439C51.5225 83.4561 51.3949 83.0231 51.1396 82.7451C50.889 82.4626 50.4857 82.3213 49.9297 82.3213C49.3053 82.3213 48.599 82.5127 47.8105 82.8955L47.4619 82.0273C47.8311 81.8268 48.2344 81.6696 48.6719 81.5557C49.1139 81.4417 49.556 81.3848 49.998 81.3848C50.8913 81.3848 51.5521 81.583 51.9805 81.9795C52.4134 82.376 52.6299 83.0117 52.6299 83.8867V89H51.7891ZM49.2256 88.2002C49.932 88.2002 50.4857 88.0065 50.8867 87.6191C51.2923 87.2318 51.4951 86.6895 51.4951 85.9922V85.3154L50.3604 85.3633C49.458 85.3952 48.8063 85.5365 48.4053 85.7871C48.0088 86.0332 47.8105 86.4183 47.8105 86.9424C47.8105 87.3525 47.9336 87.6647 48.1797 87.8789C48.4303 88.0931 48.779 88.2002 49.2256 88.2002Z" fill="#ADADAD"/>
<path d="M1.37402 126V116.006H2.53613V124.947H6.94531V126H1.37402ZM14.9434 122.247C14.9434 123.468 14.6357 124.423 14.0205 125.111C13.4053 125.795 12.5553 126.137 11.4707 126.137C10.8008 126.137 10.2061 125.979 9.68652 125.665C9.16699 125.351 8.76595 124.899 8.4834 124.312C8.20085 123.724 8.05957 123.035 8.05957 122.247C8.05957 121.026 8.36491 120.076 8.97559 119.396C9.58626 118.713 10.4339 118.371 11.5186 118.371C12.5667 118.371 13.3984 118.72 14.0137 119.417C14.6335 120.114 14.9434 121.058 14.9434 122.247ZM9.23535 122.247C9.23535 123.204 9.42676 123.933 9.80957 124.435C10.1924 124.936 10.7552 125.187 11.498 125.187C12.2409 125.187 12.8037 124.938 13.1865 124.441C13.5739 123.94 13.7676 123.209 13.7676 122.247C13.7676 121.295 13.5739 120.572 13.1865 120.08C12.8037 119.583 12.2363 119.335 11.4844 119.335C10.7415 119.335 10.181 119.579 9.80273 120.066C9.42448 120.554 9.23535 121.281 9.23535 122.247ZM21.7725 123.956C21.7725 124.653 21.5127 125.191 20.9932 125.569C20.4736 125.948 19.7445 126.137 18.8057 126.137C17.8122 126.137 17.0374 125.979 16.4814 125.665V124.612C16.8415 124.795 17.2266 124.938 17.6367 125.043C18.0514 125.148 18.4502 125.2 18.833 125.2C19.4255 125.2 19.8812 125.107 20.2002 124.92C20.5192 124.729 20.6787 124.439 20.6787 124.052C20.6787 123.76 20.5511 123.512 20.2959 123.307C20.0452 123.097 19.5531 122.851 18.8193 122.568C18.1221 122.309 17.6253 122.083 17.3291 121.892C17.0374 121.696 16.8187 121.475 16.6729 121.229C16.5316 120.982 16.4609 120.688 16.4609 120.347C16.4609 119.736 16.7093 119.255 17.2061 118.904C17.7028 118.549 18.3841 118.371 19.25 118.371C20.0566 118.371 20.8451 118.535 21.6152 118.863L21.2119 119.786C20.46 119.476 19.7786 119.321 19.168 119.321C18.6302 119.321 18.2246 119.406 17.9512 119.574C17.6777 119.743 17.541 119.975 17.541 120.271C17.541 120.472 17.5911 120.643 17.6914 120.784C17.7962 120.925 17.9626 121.06 18.1904 121.188C18.4183 121.315 18.8558 121.5 19.5029 121.741C20.3916 122.065 20.9909 122.391 21.3008 122.719C21.6152 123.047 21.7725 123.459 21.7725 123.956ZM33.0723 123.341C33.0723 124.22 32.7533 124.906 32.1152 125.398C31.4772 125.891 30.6113 126.137 29.5176 126.137C28.3327 126.137 27.4212 125.984 26.7832 125.679V124.558C27.1934 124.731 27.64 124.868 28.123 124.968C28.6061 125.068 29.0846 125.118 29.5586 125.118C30.3333 125.118 30.9167 124.972 31.3086 124.681C31.7005 124.384 31.8965 123.974 31.8965 123.45C31.8965 123.104 31.8258 122.821 31.6846 122.603C31.5479 122.379 31.3154 122.174 30.9873 121.987C30.6637 121.8 30.1693 121.589 29.5039 121.352C28.5742 121.019 27.9089 120.625 27.5078 120.169C27.1113 119.713 26.9131 119.118 26.9131 118.385C26.9131 117.615 27.2025 117.002 27.7812 116.546C28.36 116.09 29.1257 115.862 30.0781 115.862C31.0716 115.862 31.9854 116.045 32.8193 116.409L32.457 117.421C31.6322 117.075 30.8301 116.901 30.0508 116.901C29.4355 116.901 28.9548 117.034 28.6084 117.298C28.262 117.562 28.0889 117.929 28.0889 118.398C28.0889 118.745 28.1527 119.03 28.2803 119.253C28.4079 119.472 28.6221 119.674 28.9229 119.861C29.2282 120.044 29.693 120.246 30.3174 120.47C31.3656 120.843 32.0856 121.244 32.4775 121.673C32.874 122.101 33.0723 122.657 33.0723 123.341ZM39.5527 126L39.3271 124.934H39.2725C38.8988 125.403 38.5251 125.722 38.1514 125.891C37.7822 126.055 37.3197 126.137 36.7637 126.137C36.0208 126.137 35.4375 125.945 35.0137 125.562C34.5944 125.18 34.3848 124.635 34.3848 123.929C34.3848 122.416 35.5947 121.623 38.0146 121.55L39.2861 121.509V121.044C39.2861 120.456 39.1585 120.023 38.9033 119.745C38.6527 119.463 38.2493 119.321 37.6934 119.321C37.069 119.321 36.3626 119.513 35.5742 119.896L35.2256 119.027C35.5947 118.827 35.998 118.67 36.4355 118.556C36.8776 118.442 37.3197 118.385 37.7617 118.385C38.6549 118.385 39.3158 118.583 39.7441 118.979C40.1771 119.376 40.3936 120.012 40.3936 120.887V126H39.5527ZM36.9893 125.2C37.6956 125.2 38.2493 125.007 38.6504 124.619C39.056 124.232 39.2588 123.689 39.2588 122.992V122.315L38.124 122.363C37.2217 122.395 36.57 122.536 36.1689 122.787C35.7725 123.033 35.5742 123.418 35.5742 123.942C35.5742 124.353 35.6973 124.665 35.9434 124.879C36.194 125.093 36.5426 125.2 36.9893 125.2ZM47.8652 126V121.153C47.8652 120.543 47.7262 120.087 47.4482 119.786C47.1702 119.485 46.735 119.335 46.1426 119.335C45.3587 119.335 44.7845 119.547 44.4199 119.971C44.0553 120.395 43.873 121.094 43.873 122.069V126H42.7383V118.508H43.6611L43.8457 119.533H43.9004C44.1328 119.164 44.4587 118.879 44.8779 118.679C45.2972 118.474 45.7643 118.371 46.2793 118.371C47.1816 118.371 47.8607 118.59 48.3164 119.027C48.7721 119.46 49 120.155 49 121.112V126H47.8652ZM53.7578 125.2C53.9583 125.2 54.152 125.187 54.3389 125.159C54.5257 125.127 54.6738 125.095 54.7832 125.063V125.932C54.6602 125.991 54.4779 126.039 54.2363 126.075C53.9993 126.116 53.7852 126.137 53.5938 126.137C52.1445 126.137 51.4199 125.373 51.4199 123.847V119.39H50.3467V118.843L51.4199 118.371L51.8984 116.771H52.5547V118.508H54.7285V119.39H52.5547V123.799C52.5547 124.25 52.6618 124.596 52.876 124.838C53.0902 125.079 53.3841 125.2 53.7578 125.2ZM62.7539 122.247C62.7539 123.468 62.4463 124.423 61.8311 125.111C61.2158 125.795 60.3659 126.137 59.2812 126.137C58.6113 126.137 58.0166 125.979 57.4971 125.665C56.9775 125.351 56.5765 124.899 56.2939 124.312C56.0114 123.724 55.8701 123.035 55.8701 122.247C55.8701 121.026 56.1755 120.076 56.7861 119.396C57.3968 118.713 58.2445 118.371 59.3291 118.371C60.3773 118.371 61.209 118.72 61.8242 119.417C62.444 120.114 62.7539 121.058 62.7539 122.247ZM57.0459 122.247C57.0459 123.204 57.2373 123.933 57.6201 124.435C58.0029 124.936 58.5658 125.187 59.3086 125.187C60.0514 125.187 60.6143 124.938 60.9971 124.441C61.3844 123.94 61.5781 123.209 61.5781 122.247C61.5781 121.295 61.3844 120.572 60.9971 120.08C60.6143 119.583 60.0469 119.335 59.2949 119.335C58.5521 119.335 57.9915 119.579 57.6133 120.066C57.235 120.554 57.0459 121.281 57.0459 122.247ZM69.583 123.956C69.583 124.653 69.3232 125.191 68.8037 125.569C68.2842 125.948 67.555 126.137 66.6162 126.137C65.6227 126.137 64.848 125.979 64.292 125.665V124.612C64.652 124.795 65.0371 124.938 65.4473 125.043C65.862 125.148 66.2607 125.2 66.6436 125.2C67.236 125.2 67.6917 125.107 68.0107 124.92C68.3298 124.729 68.4893 124.439 68.4893 124.052C68.4893 123.76 68.3617 123.512 68.1064 123.307C67.8558 123.097 67.3636 122.851 66.6299 122.568C65.9326 122.309 65.4359 122.083 65.1396 121.892C64.848 121.696 64.6292 121.475 64.4834 121.229C64.3421 120.982 64.2715 120.688 64.2715 120.347C64.2715 119.736 64.5199 119.255 65.0166 118.904C65.5133 118.549 66.1947 118.371 67.0605 118.371C67.8672 118.371 68.6556 118.535 69.4258 118.863L69.0225 119.786C68.2705 119.476 67.5892 119.321 66.9785 119.321C66.4408 119.321 66.0352 119.406 65.7617 119.574C65.4883 119.743 65.3516 119.975 65.3516 120.271C65.3516 120.472 65.4017 120.643 65.502 120.784C65.6068 120.925 65.7731 121.06 66.001 121.188C66.2288 121.315 66.6663 121.5 67.3135 121.741C68.2021 122.065 68.8014 122.391 69.1113 122.719C69.4258 123.047 69.583 123.459 69.583 123.956Z" fill="#ADADAD"/>
<path d="M5.65332 153.901C4.55501 153.901 3.68685 154.268 3.04883 155.002C2.41536 155.731 2.09863 156.731 2.09863 158.003C2.09863 159.311 2.40397 160.323 3.01465 161.038C3.62988 161.749 4.50488 162.104 5.63965 162.104C6.33691 162.104 7.13216 161.979 8.02539 161.729V162.747C7.33268 163.007 6.47819 163.137 5.46191 163.137C3.98991 163.137 2.85286 162.69 2.05078 161.797C1.25326 160.904 0.854492 159.634 0.854492 157.989C0.854492 156.959 1.0459 156.057 1.42871 155.282C1.81608 154.507 2.37207 153.91 3.09668 153.491C3.82585 153.072 4.68262 152.862 5.66699 152.862C6.71517 152.862 7.63118 153.054 8.41504 153.437L7.92285 154.435C7.16634 154.079 6.40983 153.901 5.65332 153.901ZM16.502 159.247C16.502 160.468 16.1943 161.423 15.5791 162.111C14.9639 162.795 14.1139 163.137 13.0293 163.137C12.3594 163.137 11.7646 162.979 11.2451 162.665C10.7256 162.351 10.3245 161.899 10.042 161.312C9.75944 160.724 9.61816 160.035 9.61816 159.247C9.61816 158.026 9.9235 157.076 10.5342 156.396C11.1449 155.713 11.9925 155.371 13.0771 155.371C14.1253 155.371 14.957 155.72 15.5723 156.417C16.1921 157.114 16.502 158.058 16.502 159.247ZM10.7939 159.247C10.7939 160.204 10.9854 160.933 11.3682 161.435C11.751 161.936 12.3138 162.187 13.0566 162.187C13.7995 162.187 14.3623 161.938 14.7451 161.441C15.1325 160.94 15.3262 160.209 15.3262 159.247C15.3262 158.295 15.1325 157.572 14.7451 157.08C14.3623 156.583 13.7949 156.335 13.043 156.335C12.3001 156.335 11.7396 156.579 11.3613 157.066C10.9831 157.554 10.7939 158.281 10.7939 159.247ZM21.4922 163.137C20.4076 163.137 19.5667 162.804 18.9697 162.139C18.3773 161.469 18.0811 160.523 18.0811 159.302C18.0811 158.049 18.3818 157.08 18.9834 156.396C19.5895 155.713 20.4508 155.371 21.5674 155.371C21.9274 155.371 22.2874 155.41 22.6475 155.487C23.0075 155.565 23.29 155.656 23.4951 155.761L23.1465 156.725C22.8958 156.624 22.6224 156.542 22.3262 156.479C22.0299 156.41 21.7679 156.376 21.54 156.376C20.0179 156.376 19.2568 157.347 19.2568 159.288C19.2568 160.209 19.4414 160.915 19.8105 161.407C20.1842 161.899 20.7357 162.146 21.4648 162.146C22.0892 162.146 22.7295 162.011 23.3857 161.742V162.747C22.8844 163.007 22.2533 163.137 21.4922 163.137ZM26.3047 163H25.1699V152.363H26.3047V163ZM31.876 163.137C30.7686 163.137 29.8936 162.799 29.251 162.125C28.613 161.451 28.2939 160.514 28.2939 159.315C28.2939 158.108 28.5902 157.148 29.1826 156.438C29.7796 155.727 30.5794 155.371 31.582 155.371C32.5208 155.371 33.2637 155.681 33.8105 156.301C34.3574 156.916 34.6309 157.729 34.6309 158.741V159.459H29.4697C29.4925 160.339 29.7135 161.006 30.1328 161.462C30.5566 161.918 31.1514 162.146 31.917 162.146C32.7236 162.146 33.5212 161.977 34.3096 161.64V162.651C33.9085 162.825 33.528 162.948 33.168 163.021C32.8125 163.098 32.3818 163.137 31.876 163.137ZM31.5684 156.321C30.9668 156.321 30.486 156.517 30.126 156.909C29.7705 157.301 29.5609 157.843 29.4971 158.536H33.4141C33.4141 157.821 33.2546 157.274 32.9355 156.896C32.6165 156.513 32.1608 156.321 31.5684 156.321ZM30.7275 154.346C30.9463 154.063 31.181 153.721 31.4316 153.32C31.6868 152.919 31.8874 152.571 32.0332 152.274H33.4141V152.418C33.2135 152.714 32.915 153.079 32.5186 153.512C32.1221 153.945 31.778 154.28 31.4863 154.517H30.7275V154.346Z" fill="#ADADAD"/>
<path d="M8.96191 200H7.7998V195.297H2.53613V200H1.37402V190.006H2.53613V194.258H7.7998V190.006H8.96191V200ZM14.7041 200.137C13.5967 200.137 12.7217 199.799 12.0791 199.125C11.4411 198.451 11.1221 197.514 11.1221 196.315C11.1221 195.108 11.4183 194.148 12.0107 193.438C12.6077 192.727 13.4076 192.371 14.4102 192.371C15.349 192.371 16.0918 192.681 16.6387 193.301C17.1855 193.916 17.459 194.729 17.459 195.741V196.459H12.2979C12.3206 197.339 12.5417 198.006 12.9609 198.462C13.3848 198.918 13.9795 199.146 14.7451 199.146C15.5518 199.146 16.3493 198.977 17.1377 198.64V199.651C16.7367 199.825 16.3561 199.948 15.9961 200.021C15.6406 200.098 15.21 200.137 14.7041 200.137ZM14.3965 193.321C13.7949 193.321 13.3141 193.517 12.9541 193.909C12.5986 194.301 12.389 194.843 12.3252 195.536H16.2422C16.2422 194.821 16.0827 194.274 15.7637 193.896C15.4447 193.513 14.9889 193.321 14.3965 193.321ZM22.8184 192.371C23.151 192.371 23.4495 192.398 23.7139 192.453L23.5566 193.506C23.2467 193.438 22.9733 193.403 22.7363 193.403C22.1302 193.403 21.6107 193.649 21.1777 194.142C20.7493 194.634 20.5352 195.247 20.5352 195.98V200H19.4004V192.508H20.3369L20.4668 193.896H20.5215C20.7995 193.408 21.1344 193.032 21.5264 192.768C21.9183 192.503 22.349 192.371 22.8184 192.371ZM28.5332 192.371C28.8659 192.371 29.1644 192.398 29.4287 192.453L29.2715 193.506C28.9616 193.438 28.6882 193.403 28.4512 193.403C27.8451 193.403 27.3255 193.649 26.8926 194.142C26.4642 194.634 26.25 195.247 26.25 195.98V200H25.1152V192.508H26.0518L26.1816 193.896H26.2363C26.5143 193.408 26.8493 193.032 27.2412 192.768C27.6331 192.503 28.0638 192.371 28.5332 192.371ZM33.9951 200.137C32.8877 200.137 32.0127 199.799 31.3701 199.125C30.7321 198.451 30.4131 197.514 30.4131 196.315C30.4131 195.108 30.7093 194.148 31.3018 193.438C31.8988 192.727 32.6986 192.371 33.7012 192.371C34.64 192.371 35.3828 192.681 35.9297 193.301C36.4766 193.916 36.75 194.729 36.75 195.741V196.459H31.5889C31.6117 197.339 31.8327 198.006 32.252 198.462C32.6758 198.918 33.2705 199.146 34.0361 199.146C34.8428 199.146 35.6403 198.977 36.4287 198.64V199.651C36.0277 199.825 35.6471 199.948 35.2871 200.021C34.9316 200.098 34.501 200.137 33.9951 200.137ZM33.6875 193.321C33.0859 193.321 32.6051 193.517 32.2451 193.909C31.8896 194.301 31.68 194.843 31.6162 195.536H35.5332C35.5332 194.821 35.3737 194.274 35.0547 193.896C34.7357 193.513 34.2799 193.321 33.6875 193.321ZM42.1094 192.371C42.4421 192.371 42.7406 192.398 43.0049 192.453L42.8477 193.506C42.5378 193.438 42.2643 193.403 42.0273 193.403C41.4212 193.403 40.9017 193.649 40.4688 194.142C40.0404 194.634 39.8262 195.247 39.8262 195.98V200H38.6914V192.508H39.6279L39.7578 193.896H39.8125C40.0905 193.408 40.4255 193.032 40.8174 192.768C41.2093 192.503 41.64 192.371 42.1094 192.371ZM49.0137 200L48.7881 198.934H48.7334C48.3597 199.403 47.986 199.722 47.6123 199.891C47.2432 200.055 46.7806 200.137 46.2246 200.137C45.4818 200.137 44.8984 199.945 44.4746 199.562C44.0553 199.18 43.8457 198.635 43.8457 197.929C43.8457 196.416 45.0557 195.623 47.4756 195.55L48.7471 195.509V195.044C48.7471 194.456 48.6195 194.023 48.3643 193.745C48.1136 193.463 47.7103 193.321 47.1543 193.321C46.5299 193.321 45.8236 193.513 45.0352 193.896L44.6865 193.027C45.0557 192.827 45.459 192.67 45.8965 192.556C46.3385 192.442 46.7806 192.385 47.2227 192.385C48.1159 192.385 48.7767 192.583 49.2051 192.979C49.638 193.376 49.8545 194.012 49.8545 194.887V200H49.0137ZM46.4502 199.2C47.1566 199.2 47.7103 199.007 48.1113 198.619C48.5169 198.232 48.7197 197.689 48.7197 196.992V196.315L47.585 196.363C46.6826 196.395 46.0309 196.536 45.6299 196.787C45.2334 197.033 45.0352 197.418 45.0352 197.942C45.0352 198.353 45.1582 198.665 45.4043 198.879C45.6549 199.093 46.0036 199.2 46.4502 199.2Z" fill="#ADADAD"/>
<path d="M7.71094 229.918C7.71094 230.93 7.36458 231.709 6.67188 232.256C5.98372 232.798 4.99707 233.069 3.71191 233.069H2.53613V237H1.37402V227.006H3.96484C6.46224 227.006 7.71094 227.977 7.71094 229.918ZM2.53613 232.071H3.58203C4.61198 232.071 5.3571 231.905 5.81738 231.572C6.27767 231.24 6.50781 230.706 6.50781 229.973C6.50781 229.312 6.29134 228.82 5.8584 228.496C5.42546 228.173 4.75098 228.011 3.83496 228.011H2.53613V232.071ZM14.2461 237L14.0205 235.934H13.9658C13.5921 236.403 13.2184 236.722 12.8447 236.891C12.4756 237.055 12.013 237.137 11.457 237.137C10.7142 237.137 10.1309 236.945 9.70703 236.562C9.28776 236.18 9.07812 235.635 9.07812 234.929C9.07812 233.416 10.2881 232.623 12.708 232.55L13.9795 232.509V232.044C13.9795 231.456 13.8519 231.023 13.5967 230.745C13.346 230.463 12.9427 230.321 12.3867 230.321C11.7624 230.321 11.056 230.513 10.2676 230.896L9.91895 230.027C10.2881 229.827 10.6914 229.67 11.1289 229.556C11.571 229.442 12.013 229.385 12.4551 229.385C13.3483 229.385 14.0091 229.583 14.4375 229.979C14.8704 230.376 15.0869 231.012 15.0869 231.887V237H14.2461ZM11.6826 236.2C12.389 236.2 12.9427 236.007 13.3438 235.619C13.7493 235.232 13.9521 234.689 13.9521 233.992V233.315L12.8174 233.363C11.915 233.395 11.2633 233.536 10.8623 233.787C10.4658 234.033 10.2676 234.418 10.2676 234.942C10.2676 235.353 10.3906 235.665 10.6367 235.879C10.8874 236.093 11.236 236.2 11.6826 236.2ZM22.5586 237V232.153C22.5586 231.543 22.4196 231.087 22.1416 230.786C21.8636 230.485 21.4284 230.335 20.8359 230.335C20.0521 230.335 19.4779 230.547 19.1133 230.971C18.7487 231.395 18.5664 232.094 18.5664 233.069V237H17.4316V229.508H18.3545L18.5391 230.533H18.5938C18.8262 230.164 19.152 229.879 19.5713 229.679C19.9906 229.474 20.4577 229.371 20.9727 229.371C21.875 229.371 22.554 229.59 23.0098 230.027C23.4655 230.46 23.6934 231.155 23.6934 232.112V237H22.5586ZM30.6387 237L30.4131 235.934H30.3584C29.9847 236.403 29.611 236.722 29.2373 236.891C28.8682 237.055 28.4056 237.137 27.8496 237.137C27.1068 237.137 26.5234 236.945 26.0996 236.562C25.6803 236.18 25.4707 235.635 25.4707 234.929C25.4707 233.416 26.6807 232.623 29.1006 232.55L30.3721 232.509V232.044C30.3721 231.456 30.2445 231.023 29.9893 230.745C29.7386 230.463 29.3353 230.321 28.7793 230.321C28.1549 230.321 27.4486 230.513 26.6602 230.896L26.3115 230.027C26.6807 229.827 27.084 229.67 27.5215 229.556C27.9635 229.442 28.4056 229.385 28.8477 229.385C29.7409 229.385 30.4017 229.583 30.8301 229.979C31.263 230.376 31.4795 231.012 31.4795 231.887V237H30.6387ZM28.0752 236.2C28.7816 236.2 29.3353 236.007 29.7363 235.619C30.1419 235.232 30.3447 234.689 30.3447 233.992V233.315L29.21 233.363C28.3076 233.395 27.6559 233.536 27.2549 233.787C26.8584 234.033 26.6602 234.418 26.6602 234.942C26.6602 235.353 26.7832 235.665 27.0293 235.879C27.2799 236.093 27.6286 236.2 28.0752 236.2ZM43.374 237V232.126C43.374 231.529 43.2464 231.082 42.9912 230.786C42.736 230.485 42.3395 230.335 41.8018 230.335C41.0954 230.335 40.5736 230.538 40.2363 230.943C39.8991 231.349 39.7305 231.973 39.7305 232.816V237H38.5957V232.126C38.5957 231.529 38.4681 231.082 38.2129 230.786C37.9577 230.485 37.5589 230.335 37.0166 230.335C36.3057 230.335 35.7839 230.549 35.4512 230.978C35.123 231.401 34.959 232.099 34.959 233.069V237H33.8242V229.508H34.7471L34.9316 230.533H34.9863C35.2005 230.169 35.5013 229.884 35.8887 229.679C36.2806 229.474 36.7181 229.371 37.2012 229.371C38.3724 229.371 39.138 229.795 39.498 230.643H39.5527C39.776 230.251 40.0996 229.941 40.5234 229.713C40.9473 229.485 41.4303 229.371 41.9727 229.371C42.8203 229.371 43.4538 229.59 43.873 230.027C44.2969 230.46 44.5088 231.155 44.5088 232.112V237H43.374ZM51.4609 237L51.2354 235.934H51.1807C50.807 236.403 50.4333 236.722 50.0596 236.891C49.6904 237.055 49.2279 237.137 48.6719 237.137C47.929 237.137 47.3457 236.945 46.9219 236.562C46.5026 236.18 46.293 235.635 46.293 234.929C46.293 233.416 47.5029 232.623 49.9229 232.55L51.1943 232.509V232.044C51.1943 231.456 51.0667 231.023 50.8115 230.745C50.5609 230.463 50.1576 230.321 49.6016 230.321C48.9772 230.321 48.2708 230.513 47.4824 230.896L47.1338 230.027C47.5029 229.827 47.9062 229.67 48.3438 229.556C48.7858 229.442 49.2279 229.385 49.6699 229.385C50.5632 229.385 51.224 229.583 51.6523 229.979C52.0853 230.376 52.3018 231.012 52.3018 231.887V237H51.4609ZM48.8975 236.2C49.6038 236.2 50.1576 236.007 50.5586 235.619C50.9642 235.232 51.167 234.689 51.167 233.992V233.315L50.0322 233.363C49.1299 233.395 48.4782 233.536 48.0771 233.787C47.6807 234.033 47.4824 234.418 47.4824 234.942C47.4824 235.353 47.6055 235.665 47.8516 235.879C48.1022 236.093 48.4508 236.2 48.8975 236.2ZM48.6309 228.346C48.8496 228.063 49.0843 227.721 49.335 227.32C49.5902 226.919 49.7907 226.571 49.9365 226.274H51.3174V226.418C51.1169 226.714 50.8184 227.079 50.4219 227.512C50.0254 227.945 49.6813 228.28 49.3896 228.517H48.6309V228.346ZM67.1289 231.989C67.1289 233.589 66.7233 234.847 65.9121 235.763C65.1055 236.679 63.9821 237.137 62.542 237.137C61.07 237.137 59.9329 236.688 59.1309 235.79C58.3333 234.888 57.9346 233.616 57.9346 231.976C57.9346 230.349 58.3356 229.089 59.1377 228.195C59.9398 227.298 61.0791 226.849 62.5557 226.849C63.9912 226.849 65.1123 227.304 65.9189 228.216C66.7256 229.127 67.1289 230.385 67.1289 231.989ZM59.165 231.989C59.165 233.343 59.4521 234.37 60.0264 235.072C60.6051 235.77 61.4437 236.118 62.542 236.118C63.6494 236.118 64.4857 235.77 65.0508 235.072C65.6159 234.375 65.8984 233.347 65.8984 231.989C65.8984 230.645 65.6159 229.626 65.0508 228.934C64.4902 228.236 63.6585 227.888 62.5557 227.888C61.4482 227.888 60.6051 228.239 60.0264 228.94C59.4521 229.638 59.165 230.654 59.165 231.989ZM72.3584 237.137C71.251 237.137 70.376 236.799 69.7334 236.125C69.0954 235.451 68.7764 234.514 68.7764 233.315C68.7764 232.108 69.0726 231.148 69.665 230.438C70.262 229.727 71.0618 229.371 72.0645 229.371C73.0033 229.371 73.7461 229.681 74.293 230.301C74.8398 230.916 75.1133 231.729 75.1133 232.741V233.459H69.9521C69.9749 234.339 70.196 235.006 70.6152 235.462C71.0391 235.918 71.6338 236.146 72.3994 236.146C73.2061 236.146 74.0036 235.977 74.792 235.64V236.651C74.391 236.825 74.0104 236.948 73.6504 237.021C73.2949 237.098 72.8643 237.137 72.3584 237.137ZM72.0508 230.321C71.4492 230.321 70.9684 230.517 70.6084 230.909C70.2529 231.301 70.0433 231.843 69.9795 232.536H73.8965C73.8965 231.821 73.737 231.274 73.418 230.896C73.099 230.513 72.6432 230.321 72.0508 230.321ZM81.8877 234.956C81.8877 235.653 81.6279 236.191 81.1084 236.569C80.5889 236.948 79.8597 237.137 78.9209 237.137C77.9274 237.137 77.1527 236.979 76.5967 236.665V235.612C76.9567 235.795 77.3418 235.938 77.752 236.043C78.1667 236.148 78.5654 236.2 78.9482 236.2C79.5407 236.2 79.9964 236.107 80.3154 235.92C80.6344 235.729 80.7939 235.439 80.7939 235.052C80.7939 234.76 80.6663 234.512 80.4111 234.307C80.1605 234.097 79.6683 233.851 78.9346 233.568C78.2373 233.309 77.7406 233.083 77.4443 232.892C77.1527 232.696 76.9339 232.475 76.7881 232.229C76.6468 231.982 76.5762 231.688 76.5762 231.347C76.5762 230.736 76.8245 230.255 77.3213 229.904C77.818 229.549 78.4993 229.371 79.3652 229.371C80.1719 229.371 80.9603 229.535 81.7305 229.863L81.3271 230.786C80.5752 230.476 79.8939 230.321 79.2832 230.321C78.7454 230.321 78.3398 230.406 78.0664 230.574C77.793 230.743 77.6562 230.975 77.6562 231.271C77.6562 231.472 77.7064 231.643 77.8066 231.784C77.9115 231.925 78.0778 232.06 78.3057 232.188C78.5335 232.315 78.971 232.5 79.6182 232.741C80.5068 233.065 81.1061 233.391 81.416 233.719C81.7305 234.047 81.8877 234.459 81.8877 234.956ZM86.1602 236.2C86.3607 236.2 86.5544 236.187 86.7412 236.159C86.9281 236.127 87.0762 236.095 87.1855 236.063V236.932C87.0625 236.991 86.8802 237.039 86.6387 237.075C86.4017 237.116 86.1875 237.137 85.9961 237.137C84.5469 237.137 83.8223 236.373 83.8223 234.847V230.39H82.749V229.843L83.8223 229.371L84.3008 227.771H84.957V229.508H87.1309V230.39H84.957V234.799C84.957 235.25 85.0641 235.596 85.2783 235.838C85.4925 236.079 85.7865 236.2 86.1602 236.2ZM91.8545 237.137C90.7471 237.137 89.8721 236.799 89.2295 236.125C88.5915 235.451 88.2725 234.514 88.2725 233.315C88.2725 232.108 88.5687 231.148 89.1611 230.438C89.7581 229.727 90.5579 229.371 91.5605 229.371C92.4993 229.371 93.2422 229.681 93.7891 230.301C94.3359 230.916 94.6094 231.729 94.6094 232.741V233.459H89.4482C89.471 234.339 89.6921 235.006 90.1113 235.462C90.5352 235.918 91.1299 236.146 91.8955 236.146C92.7021 236.146 93.4997 235.977 94.2881 235.64V236.651C93.887 236.825 93.5065 236.948 93.1465 237.021C92.791 237.098 92.3604 237.137 91.8545 237.137ZM91.5469 230.321C90.9453 230.321 90.4645 230.517 90.1045 230.909C89.749 231.301 89.5394 231.843 89.4756 232.536H93.3926C93.3926 231.821 93.2331 231.274 92.9141 230.896C92.5951 230.513 92.1393 230.321 91.5469 230.321Z" fill="#ADADAD"/>
<path d="M7.71094 266.918C7.71094 267.93 7.36458 268.709 6.67188 269.256C5.98372 269.798 4.99707 270.069 3.71191 270.069H2.53613V274H1.37402V264.006H3.96484C6.46224 264.006 7.71094 264.977 7.71094 266.918ZM2.53613 269.071H3.58203C4.61198 269.071 5.3571 268.905 5.81738 268.572C6.27767 268.24 6.50781 267.706 6.50781 266.973C6.50781 266.312 6.29134 265.82 5.8584 265.496C5.42546 265.173 4.75098 265.011 3.83496 265.011H2.53613V269.071ZM14.2461 274L14.0205 272.934H13.9658C13.5921 273.403 13.2184 273.722 12.8447 273.891C12.4756 274.055 12.013 274.137 11.457 274.137C10.7142 274.137 10.1309 273.945 9.70703 273.562C9.28776 273.18 9.07812 272.635 9.07812 271.929C9.07812 270.416 10.2881 269.623 12.708 269.55L13.9795 269.509V269.044C13.9795 268.456 13.8519 268.023 13.5967 267.745C13.346 267.463 12.9427 267.321 12.3867 267.321C11.7624 267.321 11.056 267.513 10.2676 267.896L9.91895 267.027C10.2881 266.827 10.6914 266.67 11.1289 266.556C11.571 266.442 12.013 266.385 12.4551 266.385C13.3483 266.385 14.0091 266.583 14.4375 266.979C14.8704 267.376 15.0869 268.012 15.0869 268.887V274H14.2461ZM11.6826 273.2C12.389 273.2 12.9427 273.007 13.3438 272.619C13.7493 272.232 13.9521 271.689 13.9521 270.992V270.315L12.8174 270.363C11.915 270.395 11.2633 270.536 10.8623 270.787C10.4658 271.033 10.2676 271.418 10.2676 271.942C10.2676 272.353 10.3906 272.665 10.6367 272.879C10.8874 273.093 11.236 273.2 11.6826 273.2ZM22.5586 274V269.153C22.5586 268.543 22.4196 268.087 22.1416 267.786C21.8636 267.485 21.4284 267.335 20.8359 267.335C20.0521 267.335 19.4779 267.547 19.1133 267.971C18.7487 268.395 18.5664 269.094 18.5664 270.069V274H17.4316V266.508H18.3545L18.5391 267.533H18.5938C18.8262 267.164 19.152 266.879 19.5713 266.679C19.9906 266.474 20.4577 266.371 20.9727 266.371C21.875 266.371 22.554 266.59 23.0098 267.027C23.4655 267.46 23.6934 268.155 23.6934 269.112V274H22.5586ZM30.6387 274L30.4131 272.934H30.3584C29.9847 273.403 29.611 273.722 29.2373 273.891C28.8682 274.055 28.4056 274.137 27.8496 274.137C27.1068 274.137 26.5234 273.945 26.0996 273.562C25.6803 273.18 25.4707 272.635 25.4707 271.929C25.4707 270.416 26.6807 269.623 29.1006 269.55L30.3721 269.509V269.044C30.3721 268.456 30.2445 268.023 29.9893 267.745C29.7386 267.463 29.3353 267.321 28.7793 267.321C28.1549 267.321 27.4486 267.513 26.6602 267.896L26.3115 267.027C26.6807 266.827 27.084 266.67 27.5215 266.556C27.9635 266.442 28.4056 266.385 28.8477 266.385C29.7409 266.385 30.4017 266.583 30.8301 266.979C31.263 267.376 31.4795 268.012 31.4795 268.887V274H30.6387ZM28.0752 273.2C28.7816 273.2 29.3353 273.007 29.7363 272.619C30.1419 272.232 30.3447 271.689 30.3447 270.992V270.315L29.21 270.363C28.3076 270.395 27.6559 270.536 27.2549 270.787C26.8584 271.033 26.6602 271.418 26.6602 271.942C26.6602 272.353 26.7832 272.665 27.0293 272.879C27.2799 273.093 27.6286 273.2 28.0752 273.2ZM43.374 274V269.126C43.374 268.529 43.2464 268.082 42.9912 267.786C42.736 267.485 42.3395 267.335 41.8018 267.335C41.0954 267.335 40.5736 267.538 40.2363 267.943C39.8991 268.349 39.7305 268.973 39.7305 269.816V274H38.5957V269.126C38.5957 268.529 38.4681 268.082 38.2129 267.786C37.9577 267.485 37.5589 267.335 37.0166 267.335C36.3057 267.335 35.7839 267.549 35.4512 267.978C35.123 268.401 34.959 269.099 34.959 270.069V274H33.8242V266.508H34.7471L34.9316 267.533H34.9863C35.2005 267.169 35.5013 266.884 35.8887 266.679C36.2806 266.474 36.7181 266.371 37.2012 266.371C38.3724 266.371 39.138 266.795 39.498 267.643H39.5527C39.776 267.251 40.0996 266.941 40.5234 266.713C40.9473 266.485 41.4303 266.371 41.9727 266.371C42.8203 266.371 43.4538 266.59 43.873 267.027C44.2969 267.46 44.5088 268.155 44.5088 269.112V274H43.374ZM51.4609 274L51.2354 272.934H51.1807C50.807 273.403 50.4333 273.722 50.0596 273.891C49.6904 274.055 49.2279 274.137 48.6719 274.137C47.929 274.137 47.3457 273.945 46.9219 273.562C46.5026 273.18 46.293 272.635 46.293 271.929C46.293 270.416 47.5029 269.623 49.9229 269.55L51.1943 269.509V269.044C51.1943 268.456 51.0667 268.023 50.8115 267.745C50.5609 267.463 50.1576 267.321 49.6016 267.321C48.9772 267.321 48.2708 267.513 47.4824 267.896L47.1338 267.027C47.5029 266.827 47.9062 266.67 48.3438 266.556C48.7858 266.442 49.2279 266.385 49.6699 266.385C50.5632 266.385 51.224 266.583 51.6523 266.979C52.0853 267.376 52.3018 268.012 52.3018 268.887V274H51.4609ZM48.8975 273.2C49.6038 273.2 50.1576 273.007 50.5586 272.619C50.9642 272.232 51.167 271.689 51.167 270.992V270.315L50.0322 270.363C49.1299 270.395 48.4782 270.536 48.0771 270.787C47.6807 271.033 47.4824 271.418 47.4824 271.942C47.4824 272.353 47.6055 272.665 47.8516 272.879C48.1022 273.093 48.4508 273.2 48.8975 273.2ZM48.6309 265.346C48.8496 265.063 49.0843 264.721 49.335 264.32C49.5902 263.919 49.7907 263.571 49.9365 263.274H51.3174V263.418C51.1169 263.714 50.8184 264.079 50.4219 264.512C50.0254 264.945 49.6813 265.28 49.3896 265.517H48.6309V265.346Z" fill="#ADADAD"/>
<path d="M5.65332 301.901C4.55501 301.901 3.68685 302.268 3.04883 303.002C2.41536 303.731 2.09863 304.731 2.09863 306.003C2.09863 307.311 2.40397 308.323 3.01465 309.038C3.62988 309.749 4.50488 310.104 5.63965 310.104C6.33691 310.104 7.13216 309.979 8.02539 309.729V310.747C7.33268 311.007 6.47819 311.137 5.46191 311.137C3.98991 311.137 2.85286 310.69 2.05078 309.797C1.25326 308.904 0.854492 307.634 0.854492 305.989C0.854492 304.959 1.0459 304.057 1.42871 303.282C1.81608 302.507 2.37207 301.91 3.09668 301.491C3.82585 301.072 4.68262 300.862 5.66699 300.862C6.71517 300.862 7.63118 301.054 8.41504 301.437L7.92285 302.435C7.16634 302.079 6.40983 301.901 5.65332 301.901ZM16.502 307.247C16.502 308.468 16.1943 309.423 15.5791 310.111C14.9639 310.795 14.1139 311.137 13.0293 311.137C12.3594 311.137 11.7646 310.979 11.2451 310.665C10.7256 310.351 10.3245 309.899 10.042 309.312C9.75944 308.724 9.61816 308.035 9.61816 307.247C9.61816 306.026 9.9235 305.076 10.5342 304.396C11.1449 303.713 11.9925 303.371 13.0771 303.371C14.1253 303.371 14.957 303.72 15.5723 304.417C16.1921 305.114 16.502 306.058 16.502 307.247ZM10.7939 307.247C10.7939 308.204 10.9854 308.933 11.3682 309.435C11.751 309.936 12.3138 310.187 13.0566 310.187C13.7995 310.187 14.3623 309.938 14.7451 309.441C15.1325 308.94 15.3262 308.209 15.3262 307.247C15.3262 306.295 15.1325 305.572 14.7451 305.08C14.3623 304.583 13.7949 304.335 13.043 304.335C12.3001 304.335 11.7396 304.579 11.3613 305.066C10.9831 305.554 10.7939 306.281 10.7939 307.247ZM19.6328 311H18.498V300.363H19.6328V311ZM28.5059 307.247C28.5059 308.468 28.1982 309.423 27.583 310.111C26.9678 310.795 26.1178 311.137 25.0332 311.137C24.3633 311.137 23.7686 310.979 23.249 310.665C22.7295 310.351 22.3285 309.899 22.0459 309.312C21.7633 308.724 21.6221 308.035 21.6221 307.247C21.6221 306.026 21.9274 305.076 22.5381 304.396C23.1488 303.713 23.9964 303.371 25.0811 303.371C26.1292 303.371 26.9609 303.72 27.5762 304.417C28.196 305.114 28.5059 306.058 28.5059 307.247ZM22.7979 307.247C22.7979 308.204 22.9893 308.933 23.3721 309.435C23.7549 309.936 24.3177 310.187 25.0605 310.187C25.8034 310.187 26.3662 309.938 26.749 309.441C27.1364 308.94 27.3301 308.209 27.3301 307.247C27.3301 306.295 27.1364 305.572 26.749 305.08C26.3662 304.583 25.7988 304.335 25.0469 304.335C24.304 304.335 23.7435 304.579 23.3652 305.066C22.987 305.554 22.7979 306.281 22.7979 307.247ZM24.1104 302.346C24.3291 302.063 24.5638 301.721 24.8145 301.32C25.0697 300.919 25.2702 300.571 25.416 300.274H26.7969V300.418C26.5964 300.714 26.2979 301.079 25.9014 301.512C25.5049 301.945 25.1608 302.28 24.8691 302.517H24.1104V302.346ZM35.6289 311V306.153C35.6289 305.543 35.4899 305.087 35.2119 304.786C34.9339 304.485 34.4987 304.335 33.9062 304.335C33.1224 304.335 32.5482 304.547 32.1836 304.971C31.819 305.395 31.6367 306.094 31.6367 307.069V311H30.502V303.508H31.4248L31.6094 304.533H31.6641C31.8965 304.164 32.2223 303.879 32.6416 303.679C33.0609 303.474 33.528 303.371 34.043 303.371C34.9453 303.371 35.6243 303.59 36.0801 304.027C36.5358 304.46 36.7637 305.155 36.7637 306.112V311H35.6289Z" fill="#ADADAD"/>
<path d="M9.35156 342.907C9.35156 344.557 8.90267 345.819 8.00488 346.694C7.11165 347.565 5.82422 348 4.14258 348H1.37402V338.006H4.43652C5.99056 338.006 7.19824 338.437 8.05957 339.298C8.9209 340.159 9.35156 341.362 9.35156 342.907ZM8.12109 342.948C8.12109 341.645 7.79297 340.663 7.13672 340.002C6.48503 339.341 5.51432 339.011 4.22461 339.011H2.53613V346.995H3.95117C5.33659 346.995 6.37793 346.656 7.0752 345.977C7.77246 345.293 8.12109 344.284 8.12109 342.948ZM16.0234 348L15.7979 346.934H15.7432C15.3695 347.403 14.9958 347.722 14.6221 347.891C14.2529 348.055 13.7904 348.137 13.2344 348.137C12.4915 348.137 11.9082 347.945 11.4844 347.562C11.0651 347.18 10.8555 346.635 10.8555 345.929C10.8555 344.416 12.0654 343.623 14.4854 343.55L15.7568 343.509V343.044C15.7568 342.456 15.6292 342.023 15.374 341.745C15.1234 341.463 14.7201 341.321 14.1641 341.321C13.5397 341.321 12.8333 341.513 12.0449 341.896L11.6963 341.027C12.0654 340.827 12.4688 340.67 12.9062 340.556C13.3483 340.442 13.7904 340.385 14.2324 340.385C15.1257 340.385 15.7865 340.583 16.2148 340.979C16.6478 341.376 16.8643 342.012 16.8643 342.887V348H16.0234ZM13.46 347.2C14.1663 347.2 14.7201 347.007 15.1211 346.619C15.5267 346.232 15.7295 345.689 15.7295 344.992V344.315L14.5947 344.363C13.6924 344.395 13.0407 344.536 12.6396 344.787C12.2432 345.033 12.0449 345.418 12.0449 345.942C12.0449 346.353 12.168 346.665 12.4141 346.879C12.6647 347.093 13.0133 347.2 13.46 347.2ZM22.627 340.371C22.9596 340.371 23.2581 340.398 23.5225 340.453L23.3652 341.506C23.0553 341.438 22.7819 341.403 22.5449 341.403C21.9388 341.403 21.4193 341.649 20.9863 342.142C20.5579 342.634 20.3438 343.247 20.3438 343.98V348H19.209V340.508H20.1455L20.2754 341.896H20.3301C20.6081 341.408 20.943 341.032 21.335 340.768C21.7269 340.503 22.1576 340.371 22.627 340.371ZM26.0586 348H24.9238V340.508H26.0586V348ZM24.8281 338.478C24.8281 338.218 24.8919 338.029 25.0195 337.91C25.1471 337.787 25.3066 337.726 25.498 337.726C25.6803 337.726 25.8376 337.787 25.9697 337.91C26.1019 338.033 26.168 338.222 26.168 338.478C26.168 338.733 26.1019 338.924 25.9697 339.052C25.8376 339.175 25.6803 339.236 25.498 339.236C25.3066 339.236 25.1471 339.175 25.0195 339.052C24.8919 338.924 24.8281 338.733 24.8281 338.478ZM31.6299 348.137C30.5225 348.137 29.6475 347.799 29.0049 347.125C28.3669 346.451 28.0479 345.514 28.0479 344.315C28.0479 343.108 28.3441 342.148 28.9365 341.438C29.5335 340.727 30.3333 340.371 31.3359 340.371C32.2747 340.371 33.0176 340.681 33.5645 341.301C34.1113 341.916 34.3848 342.729 34.3848 343.741V344.459H29.2236C29.2464 345.339 29.4674 346.006 29.8867 346.462C30.3105 346.918 30.9053 347.146 31.6709 347.146C32.4775 347.146 33.2751 346.977 34.0635 346.64V347.651C33.6624 347.825 33.2819 347.948 32.9219 348.021C32.5664 348.098 32.1357 348.137 31.6299 348.137ZM31.3223 341.321C30.7207 341.321 30.2399 341.517 29.8799 341.909C29.5244 342.301 29.3148 342.843 29.251 343.536H33.168C33.168 342.821 33.0085 342.274 32.6895 341.896C32.3704 341.513 31.9147 341.321 31.3223 341.321ZM30.4814 339.346C30.7002 339.063 30.9349 338.721 31.1855 338.32C31.4408 337.919 31.6413 337.571 31.7871 337.274H33.168V337.418C32.9674 337.714 32.6689 338.079 32.2725 338.512C31.876 338.945 31.5319 339.28 31.2402 339.517H30.4814V339.346ZM41.4531 348V343.153C41.4531 342.543 41.3141 342.087 41.0361 341.786C40.7581 341.485 40.3229 341.335 39.7305 341.335C38.9466 341.335 38.3724 341.547 38.0078 341.971C37.6432 342.395 37.4609 343.094 37.4609 344.069V348H36.3262V340.508H37.249L37.4336 341.533H37.4883C37.7207 341.164 38.0465 340.879 38.4658 340.679C38.8851 340.474 39.3522 340.371 39.8672 340.371C40.7695 340.371 41.4486 340.59 41.9043 341.027C42.36 341.46 42.5879 342.155 42.5879 343.112V348H41.4531Z" fill="#ADADAD"/>
<path d="M9.18066 385H7.85449L2.39258 376.612H2.33789C2.41081 377.597 2.44727 378.499 2.44727 379.319V385H1.37402V375.006H2.68652L8.13477 383.359H8.18945C8.18034 383.236 8.15983 382.842 8.12793 382.177C8.09603 381.507 8.08464 381.028 8.09375 380.741V375.006H9.18066V385ZM17.8896 377.508V378.226L16.502 378.39C16.6296 378.549 16.7435 378.759 16.8438 379.019C16.944 379.274 16.9941 379.563 16.9941 379.887C16.9941 380.62 16.7435 381.206 16.2422 381.644C15.7409 382.081 15.0527 382.3 14.1777 382.3C13.9544 382.3 13.7448 382.282 13.5488 382.245C13.0658 382.5 12.8242 382.822 12.8242 383.209C12.8242 383.414 12.9085 383.567 13.0771 383.667C13.2458 383.763 13.5352 383.811 13.9453 383.811H15.2715C16.0827 383.811 16.7048 383.981 17.1377 384.323C17.5752 384.665 17.7939 385.162 17.7939 385.813C17.7939 386.643 17.4613 387.274 16.7959 387.707C16.1305 388.145 15.1598 388.363 13.8838 388.363C12.904 388.363 12.1475 388.181 11.6143 387.816C11.0856 387.452 10.8213 386.937 10.8213 386.271C10.8213 385.816 10.9671 385.422 11.2588 385.089C11.5505 384.756 11.9606 384.531 12.4893 384.412C12.2979 384.326 12.1361 384.191 12.0039 384.009C11.8763 383.826 11.8125 383.615 11.8125 383.373C11.8125 383.1 11.8854 382.86 12.0312 382.655C12.1771 382.45 12.4072 382.252 12.7217 382.061C12.3343 381.901 12.0176 381.63 11.7715 381.247C11.5299 380.864 11.4092 380.427 11.4092 379.935C11.4092 379.114 11.6553 378.483 12.1475 378.041C12.6396 377.594 13.3369 377.371 14.2393 377.371C14.6312 377.371 14.9844 377.417 15.2988 377.508H17.8896ZM11.915 386.258C11.915 386.663 12.0859 386.971 12.4277 387.181C12.7695 387.39 13.2594 387.495 13.8975 387.495C14.8499 387.495 15.554 387.352 16.0098 387.064C16.4701 386.782 16.7002 386.397 16.7002 385.909C16.7002 385.504 16.5749 385.221 16.3242 385.062C16.0736 384.907 15.6019 384.829 14.9092 384.829H13.5488C13.0339 384.829 12.6328 384.952 12.3457 385.198C12.0586 385.444 11.915 385.798 11.915 386.258ZM12.5303 379.907C12.5303 380.431 12.6784 380.828 12.9746 381.097C13.2708 381.366 13.6833 381.5 14.2119 381.5C15.3193 381.5 15.873 380.962 15.873 379.887C15.873 378.761 15.3125 378.198 14.1914 378.198C13.6582 378.198 13.248 378.342 12.9609 378.629C12.6738 378.916 12.5303 379.342 12.5303 379.907ZM24.0352 385L23.8096 383.934H23.7549C23.3812 384.403 23.0075 384.722 22.6338 384.891C22.2646 385.055 21.8021 385.137 21.2461 385.137C20.5033 385.137 19.9199 384.945 19.4961 384.562C19.0768 384.18 18.8672 383.635 18.8672 382.929C18.8672 381.416 20.0771 380.623 22.4971 380.55L23.7686 380.509V380.044C23.7686 379.456 23.641 379.023 23.3857 378.745C23.1351 378.463 22.7318 378.321 22.1758 378.321C21.5514 378.321 20.8451 378.513 20.0566 378.896L19.708 378.027C20.0771 377.827 20.4805 377.67 20.918 377.556C21.36 377.442 21.8021 377.385 22.2441 377.385C23.1374 377.385 23.7982 377.583 24.2266 377.979C24.6595 378.376 24.876 379.012 24.876 379.887V385H24.0352ZM21.4717 384.2C22.1781 384.2 22.7318 384.007 23.1328 383.619C23.5384 383.232 23.7412 382.689 23.7412 381.992V381.315L22.6064 381.363C21.7041 381.395 21.0524 381.536 20.6514 381.787C20.2549 382.033 20.0566 382.418 20.0566 382.942C20.0566 383.353 20.1797 383.665 20.4258 383.879C20.6764 384.093 21.0251 384.2 21.4717 384.2ZM20.1318 375.478C20.1318 375.241 20.1911 375.07 20.3096 374.965C20.4326 374.86 20.5785 374.808 20.7471 374.808C20.9202 374.808 21.0684 374.86 21.1914 374.965C21.319 375.07 21.3828 375.241 21.3828 375.478C21.3828 375.705 21.319 375.876 21.1914 375.99C21.0684 376.1 20.9202 376.154 20.7471 376.154C20.5785 376.154 20.4326 376.1 20.3096 375.99C20.1911 375.876 20.1318 375.705 20.1318 375.478ZM22.7363 375.478C22.7363 375.241 22.7956 375.07 22.9141 374.965C23.0371 374.86 23.1829 374.808 23.3516 374.808C23.5202 374.808 23.666 374.86 23.7891 374.965C23.9167 375.07 23.9805 375.241 23.9805 375.478C23.9805 375.705 23.9167 375.876 23.7891 375.99C23.666 376.1 23.5202 376.154 23.3516 376.154C23.1829 376.154 23.0371 376.1 22.9141 375.99C22.7956 375.876 22.7363 375.705 22.7363 375.478ZM30.707 377.385C31.6914 377.385 32.4548 377.722 32.9971 378.396C33.5439 379.066 33.8174 380.017 33.8174 381.247C33.8174 382.478 33.5417 383.435 32.9902 384.118C32.4434 384.797 31.6823 385.137 30.707 385.137C30.2194 385.137 29.7728 385.048 29.3672 384.87C28.9661 384.688 28.6289 384.41 28.3555 384.036H28.2734L28.0342 385H27.2207V374.363H28.3555V376.947C28.3555 377.526 28.3372 378.046 28.3008 378.506H28.3555C28.8841 377.758 29.668 377.385 30.707 377.385ZM30.543 378.335C29.7682 378.335 29.21 378.558 28.8682 379.005C28.5264 379.447 28.3555 380.194 28.3555 381.247C28.3555 382.3 28.5309 383.054 28.8818 383.51C29.2327 383.961 29.7956 384.187 30.5703 384.187C31.2676 384.187 31.7871 383.934 32.1289 383.428C32.4707 382.917 32.6416 382.186 32.6416 381.233C32.6416 380.258 32.4707 379.531 32.1289 379.053C31.7871 378.574 31.2585 378.335 30.543 378.335ZM38.9717 385.137C37.8643 385.137 36.9893 384.799 36.3467 384.125C35.7087 383.451 35.3896 382.514 35.3896 381.315C35.3896 380.108 35.6859 379.148 36.2783 378.438C36.8753 377.727 37.6751 377.371 38.6777 377.371C39.6165 377.371 40.3594 377.681 40.9062 378.301C41.4531 378.916 41.7266 379.729 41.7266 380.741V381.459H36.5654C36.5882 382.339 36.8092 383.006 37.2285 383.462C37.6523 383.918 38.2471 384.146 39.0127 384.146C39.8193 384.146 40.6169 383.977 41.4053 383.64V384.651C41.0042 384.825 40.6237 384.948 40.2637 385.021C39.9082 385.098 39.4775 385.137 38.9717 385.137ZM38.6641 378.321C38.0625 378.321 37.5817 378.517 37.2217 378.909C36.8662 379.301 36.6566 379.843 36.5928 380.536H40.5098C40.5098 379.821 40.3503 379.274 40.0312 378.896C39.7122 378.513 39.2565 378.321 38.6641 378.321ZM43.0391 381.767V380.728H46.3955V381.767H43.0391ZM48.3506 375.006H51.1738C52.5 375.006 53.4593 375.204 54.0518 375.601C54.6442 375.997 54.9404 376.624 54.9404 377.48C54.9404 378.073 54.7741 378.563 54.4414 378.95C54.1133 379.333 53.6325 379.581 52.999 379.695V379.764C54.5166 380.023 55.2754 380.821 55.2754 382.156C55.2754 383.049 54.9723 383.747 54.3662 384.248C53.7646 384.749 52.9215 385 51.8369 385H48.3506V375.006ZM49.5127 379.285H51.4268C52.2471 379.285 52.8372 379.158 53.1973 378.902C53.5573 378.643 53.7373 378.207 53.7373 377.597C53.7373 377.036 53.5368 376.633 53.1357 376.387C52.7347 376.136 52.0967 376.011 51.2217 376.011H49.5127V379.285ZM49.5127 380.27V384.009H51.5977C52.4043 384.009 53.0104 383.854 53.416 383.544C53.8262 383.229 54.0312 382.74 54.0312 382.074C54.0312 381.454 53.8216 380.999 53.4023 380.707C52.9876 380.415 52.3542 380.27 51.502 380.27H49.5127ZM58.3242 377.508V382.368C58.3242 382.979 58.4632 383.435 58.7412 383.735C59.0192 384.036 59.4544 384.187 60.0469 384.187C60.8307 384.187 61.4027 383.972 61.7627 383.544C62.1273 383.116 62.3096 382.416 62.3096 381.445V377.508H63.4443V385H62.5078L62.3438 383.995H62.2822C62.0498 384.364 61.7262 384.647 61.3115 384.843C60.9014 385.039 60.432 385.137 59.9033 385.137C58.9919 385.137 58.3083 384.92 57.8525 384.487C57.4014 384.054 57.1758 383.362 57.1758 382.409V377.508H58.3242ZM71.9893 377.508V378.226L70.6016 378.39C70.7292 378.549 70.8431 378.759 70.9434 379.019C71.0436 379.274 71.0938 379.563 71.0938 379.887C71.0938 380.62 70.8431 381.206 70.3418 381.644C69.8405 382.081 69.1523 382.3 68.2773 382.3C68.054 382.3 67.8444 382.282 67.6484 382.245C67.1654 382.5 66.9238 382.822 66.9238 383.209C66.9238 383.414 67.0081 383.567 67.1768 383.667C67.3454 383.763 67.6348 383.811 68.0449 383.811H69.3711C70.1823 383.811 70.8044 383.981 71.2373 384.323C71.6748 384.665 71.8936 385.162 71.8936 385.813C71.8936 386.643 71.5609 387.274 70.8955 387.707C70.2301 388.145 69.2594 388.363 67.9834 388.363C67.0036 388.363 66.2471 388.181 65.7139 387.816C65.1852 387.452 64.9209 386.937 64.9209 386.271C64.9209 385.816 65.0667 385.422 65.3584 385.089C65.6501 384.756 66.0602 384.531 66.5889 384.412C66.3975 384.326 66.2357 384.191 66.1035 384.009C65.9759 383.826 65.9121 383.615 65.9121 383.373C65.9121 383.1 65.985 382.86 66.1309 382.655C66.2767 382.45 66.5068 382.252 66.8213 382.061C66.4339 381.901 66.1172 381.63 65.8711 381.247C65.6296 380.864 65.5088 380.427 65.5088 379.935C65.5088 379.114 65.7549 378.483 66.2471 378.041C66.7393 377.594 67.4365 377.371 68.3389 377.371C68.7308 377.371 69.084 377.417 69.3984 377.508H71.9893ZM66.0146 386.258C66.0146 386.663 66.1855 386.971 66.5273 387.181C66.8691 387.39 67.359 387.495 67.9971 387.495C68.9495 387.495 69.6536 387.352 70.1094 387.064C70.5697 386.782 70.7998 386.397 70.7998 385.909C70.7998 385.504 70.6745 385.221 70.4238 385.062C70.1732 384.907 69.7015 384.829 69.0088 384.829H67.6484C67.1335 384.829 66.7324 384.952 66.4453 385.198C66.1582 385.444 66.0146 385.798 66.0146 386.258ZM66.6299 379.907C66.6299 380.431 66.778 380.828 67.0742 381.097C67.3704 381.366 67.7829 381.5 68.3115 381.5C69.4189 381.5 69.9727 380.962 69.9727 379.887C69.9727 378.761 69.4121 378.198 68.291 378.198C67.7578 378.198 67.3477 378.342 67.0605 378.629C66.7734 378.916 66.6299 379.342 66.6299 379.907ZM74.6621 385H73.5273V374.363H74.6621V385ZM80.2334 385.137C79.126 385.137 78.251 384.799 77.6084 384.125C76.9704 383.451 76.6514 382.514 76.6514 381.315C76.6514 380.108 76.9476 379.148 77.54 378.438C78.137 377.727 78.9368 377.371 79.9395 377.371C80.8783 377.371 81.6211 377.681 82.168 378.301C82.7148 378.916 82.9883 379.729 82.9883 380.741V381.459H77.8271C77.8499 382.339 78.071 383.006 78.4902 383.462C78.9141 383.918 79.5088 384.146 80.2744 384.146C81.0811 384.146 81.8786 383.977 82.667 383.64V384.651C82.266 384.825 81.8854 384.948 81.5254 385.021C81.1699 385.098 80.7393 385.137 80.2334 385.137ZM79.9258 378.321C79.3242 378.321 78.8434 378.517 78.4834 378.909C78.1279 379.301 77.9183 379.843 77.8545 380.536H81.7715C81.7715 379.821 81.612 379.274 81.293 378.896C80.974 378.513 80.5182 378.321 79.9258 378.321ZM79.085 376.346C79.3037 376.063 79.5384 375.721 79.7891 375.32C80.0443 374.919 80.2448 374.571 80.3906 374.274H81.7715V374.418C81.571 374.714 81.2725 375.079 80.876 375.512C80.4795 375.945 80.1354 376.28 79.8438 376.517H79.085V376.346Z" fill="#ADADAD"/>
<path d="M5.76953 416.764H9.16699V421.624C8.63835 421.793 8.10059 421.92 7.55371 422.007C7.00684 422.093 6.37337 422.137 5.65332 422.137C4.1403 422.137 2.96224 421.688 2.11914 420.79C1.27604 419.888 0.854492 418.625 0.854492 417.003C0.854492 415.964 1.06185 415.055 1.47656 414.275C1.89583 413.492 2.4974 412.895 3.28125 412.484C4.0651 412.07 4.9834 411.862 6.03613 411.862C7.10254 411.862 8.09603 412.058 9.0166 412.45L8.56543 413.476C7.66309 413.093 6.79492 412.901 5.96094 412.901C4.74414 412.901 3.79395 413.264 3.11035 413.988C2.42676 414.713 2.08496 415.718 2.08496 417.003C2.08496 418.352 2.41309 419.375 3.06934 420.072C3.73014 420.77 4.69857 421.118 5.97461 421.118C6.66732 421.118 7.34408 421.038 8.00488 420.879V417.803H5.76953V416.764ZM12.4688 414.508V419.368C12.4688 419.979 12.6077 420.435 12.8857 420.735C13.1637 421.036 13.599 421.187 14.1914 421.187C14.9753 421.187 15.5472 420.972 15.9072 420.544C16.2718 420.116 16.4541 419.416 16.4541 418.445V414.508H17.5889V422H16.6523L16.4883 420.995H16.4268C16.1943 421.364 15.8708 421.647 15.4561 421.843C15.0459 422.039 14.5765 422.137 14.0479 422.137C13.1364 422.137 12.4528 421.92 11.9971 421.487C11.5459 421.054 11.3203 420.362 11.3203 419.409V414.508H12.4688ZM25.1289 422V417.153C25.1289 416.543 24.9899 416.087 24.7119 415.786C24.4339 415.485 23.9987 415.335 23.4062 415.335C22.6224 415.335 22.0482 415.547 21.6836 415.971C21.319 416.395 21.1367 417.094 21.1367 418.069V422H20.002V414.508H20.9248L21.1094 415.533H21.1641C21.3965 415.164 21.7223 414.879 22.1416 414.679C22.5609 414.474 23.028 414.371 23.543 414.371C24.4453 414.371 25.1243 414.59 25.5801 415.027C26.0358 415.46 26.2637 416.155 26.2637 417.112V422H25.1289ZM33.209 422L32.9834 420.934H32.9287C32.555 421.403 32.1813 421.722 31.8076 421.891C31.4385 422.055 30.9759 422.137 30.4199 422.137C29.6771 422.137 29.0938 421.945 28.6699 421.562C28.2507 421.18 28.041 420.635 28.041 419.929C28.041 418.416 29.251 417.623 31.6709 417.55L32.9424 417.509V417.044C32.9424 416.456 32.8148 416.023 32.5596 415.745C32.3089 415.463 31.9056 415.321 31.3496 415.321C30.7253 415.321 30.0189 415.513 29.2305 415.896L28.8818 415.027C29.251 414.827 29.6543 414.67 30.0918 414.556C30.5339 414.442 30.9759 414.385 31.418 414.385C32.3112 414.385 32.972 414.583 33.4004 414.979C33.8333 415.376 34.0498 416.012 34.0498 416.887V422H33.209ZM30.6455 421.2C31.3519 421.2 31.9056 421.007 32.3066 420.619C32.7122 420.232 32.915 419.689 32.915 418.992V418.315L31.7803 418.363C30.8779 418.395 30.2262 418.536 29.8252 418.787C29.4287 419.033 29.2305 419.418 29.2305 419.942C29.2305 420.353 29.3535 420.665 29.5996 420.879C29.8503 421.093 30.1989 421.2 30.6455 421.2ZM42.7451 417.003L45.4111 412.006H46.6689L43.333 418.124V422H42.1572V418.179L38.8281 412.006H40.0996L42.7451 417.003ZM52.4863 422L52.2607 420.934H52.2061C51.8324 421.403 51.4587 421.722 51.085 421.891C50.7158 422.055 50.2533 422.137 49.6973 422.137C48.9544 422.137 48.3711 421.945 47.9473 421.562C47.528 421.18 47.3184 420.635 47.3184 419.929C47.3184 418.416 48.5283 417.623 50.9482 417.55L52.2197 417.509V417.044C52.2197 416.456 52.0921 416.023 51.8369 415.745C51.5863 415.463 51.1829 415.321 50.627 415.321C50.0026 415.321 49.2962 415.513 48.5078 415.896L48.1592 415.027C48.5283 414.827 48.9316 414.67 49.3691 414.556C49.8112 414.442 50.2533 414.385 50.6953 414.385C51.5885 414.385 52.2493 414.583 52.6777 414.979C53.1107 415.376 53.3271 416.012 53.3271 416.887V422H52.4863ZM49.9229 421.2C50.6292 421.2 51.1829 421.007 51.584 420.619C51.9896 420.232 52.1924 419.689 52.1924 418.992V418.315L51.0576 418.363C50.1553 418.395 49.5036 418.536 49.1025 418.787C48.7061 419.033 48.5078 419.418 48.5078 419.942C48.5078 420.353 48.6309 420.665 48.877 420.879C49.1276 421.093 49.4762 421.2 49.9229 421.2ZM56.8066 422H55.6719V411.363H56.8066V422ZM63.8203 422L63.5947 420.934H63.54C63.1663 421.403 62.7926 421.722 62.4189 421.891C62.0498 422.055 61.5872 422.137 61.0312 422.137C60.2884 422.137 59.7051 421.945 59.2812 421.562C58.862 421.18 58.6523 420.635 58.6523 419.929C58.6523 418.416 59.8623 417.623 62.2822 417.55L63.5537 417.509V417.044C63.5537 416.456 63.4261 416.023 63.1709 415.745C62.9202 415.463 62.5169 415.321 61.9609 415.321C61.3366 415.321 60.6302 415.513 59.8418 415.896L59.4932 415.027C59.8623 414.827 60.2656 414.67 60.7031 414.556C61.1452 414.442 61.5872 414.385 62.0293 414.385C62.9225 414.385 63.5833 414.583 64.0117 414.979C64.4447 415.376 64.6611 416.012 64.6611 416.887V422H63.8203ZM61.2568 421.2C61.9632 421.2 62.5169 421.007 62.918 420.619C63.3236 420.232 63.5264 419.689 63.5264 418.992V418.315L62.3916 418.363C61.4893 418.395 60.8376 418.536 60.4365 418.787C60.04 419.033 59.8418 419.418 59.8418 419.942C59.8418 420.353 59.9648 420.665 60.2109 420.879C60.4616 421.093 60.8102 421.2 61.2568 421.2Z" fill="#ADADAD"/>
<path d="M6.94531 459H1.37402V449.006H6.94531V450.038H2.53613V453.258H6.67871V454.283H2.53613V457.961H6.94531V459ZM18.5459 459V454.126C18.5459 453.529 18.4183 453.082 18.1631 452.786C17.9079 452.485 17.5114 452.335 16.9736 452.335C16.2673 452.335 15.7454 452.538 15.4082 452.943C15.071 453.349 14.9023 453.973 14.9023 454.816V459H13.7676V454.126C13.7676 453.529 13.64 453.082 13.3848 452.786C13.1296 452.485 12.7308 452.335 12.1885 452.335C11.4775 452.335 10.9557 452.549 10.623 452.978C10.2949 453.401 10.1309 454.099 10.1309 455.069V459H8.99609V451.508H9.91895L10.1035 452.533H10.1582C10.3724 452.169 10.6732 451.884 11.0605 451.679C11.4525 451.474 11.89 451.371 12.373 451.371C13.5443 451.371 14.3099 451.795 14.6699 452.643H14.7246C14.9479 452.251 15.2715 451.941 15.6953 451.713C16.1191 451.485 16.6022 451.371 17.1445 451.371C17.9922 451.371 18.6257 451.59 19.0449 452.027C19.4688 452.46 19.6807 453.155 19.6807 454.112V459H18.5459ZM25.5117 451.385C26.4961 451.385 27.2594 451.722 27.8018 452.396C28.3486 453.066 28.6221 454.017 28.6221 455.247C28.6221 456.478 28.3464 457.435 27.7949 458.118C27.248 458.797 26.487 459.137 25.5117 459.137C25.0241 459.137 24.5775 459.048 24.1719 458.87C23.7708 458.688 23.4336 458.41 23.1602 458.036H23.0781L22.8389 459H22.0254V448.363H23.1602V450.947C23.1602 451.526 23.1419 452.046 23.1055 452.506H23.1602C23.6888 451.758 24.4727 451.385 25.5117 451.385ZM25.3477 452.335C24.5729 452.335 24.0146 452.558 23.6729 453.005C23.3311 453.447 23.1602 454.194 23.1602 455.247C23.1602 456.3 23.3356 457.054 23.6865 457.51C24.0374 457.961 24.6003 458.187 25.375 458.187C26.0723 458.187 26.5918 457.934 26.9336 457.428C27.2754 456.917 27.4463 456.186 27.4463 455.233C27.4463 454.258 27.2754 453.531 26.9336 453.053C26.5918 452.574 26.0632 452.335 25.3477 452.335ZM33.7764 459.137C32.6689 459.137 31.7939 458.799 31.1514 458.125C30.5133 457.451 30.1943 456.514 30.1943 455.315C30.1943 454.108 30.4906 453.148 31.083 452.438C31.68 451.727 32.4798 451.371 33.4824 451.371C34.4212 451.371 35.1641 451.681 35.7109 452.301C36.2578 452.916 36.5312 453.729 36.5312 454.741V455.459H31.3701C31.3929 456.339 31.6139 457.006 32.0332 457.462C32.457 457.918 33.0518 458.146 33.8174 458.146C34.624 458.146 35.4215 457.977 36.21 457.64V458.651C35.8089 458.825 35.4284 458.948 35.0684 459.021C34.7129 459.098 34.2822 459.137 33.7764 459.137ZM33.4688 452.321C32.8672 452.321 32.3864 452.517 32.0264 452.909C31.6709 453.301 31.4613 453.843 31.3975 454.536H35.3145C35.3145 453.821 35.1549 453.274 34.8359 452.896C34.5169 452.513 34.0612 452.321 33.4688 452.321ZM41.8906 451.371C42.2233 451.371 42.5218 451.398 42.7861 451.453L42.6289 452.506C42.319 452.438 42.0456 452.403 41.8086 452.403C41.2025 452.403 40.6829 452.649 40.25 453.142C39.8216 453.634 39.6074 454.247 39.6074 454.98V459H38.4727V451.508H39.4092L39.5391 452.896H39.5938C39.8717 452.408 40.2067 452.032 40.5986 451.768C40.9906 451.503 41.4212 451.371 41.8906 451.371ZM48.7949 459L48.5693 457.934H48.5146C48.141 458.403 47.7673 458.722 47.3936 458.891C47.0244 459.055 46.5618 459.137 46.0059 459.137C45.263 459.137 44.6797 458.945 44.2559 458.562C43.8366 458.18 43.627 457.635 43.627 456.929C43.627 455.416 44.8369 454.623 47.2568 454.55L48.5283 454.509V454.044C48.5283 453.456 48.4007 453.023 48.1455 452.745C47.8949 452.463 47.4915 452.321 46.9355 452.321C46.3112 452.321 45.6048 452.513 44.8164 452.896L44.4678 452.027C44.8369 451.827 45.2402 451.67 45.6777 451.556C46.1198 451.442 46.5618 451.385 47.0039 451.385C47.8971 451.385 48.5579 451.583 48.9863 451.979C49.4193 452.376 49.6357 453.012 49.6357 453.887V459H48.7949ZM46.2314 458.2C46.9378 458.2 47.4915 458.007 47.8926 457.619C48.2982 457.232 48.501 456.689 48.501 455.992V455.315L47.3662 455.363C46.4639 455.395 45.8122 455.536 45.4111 455.787C45.0146 456.033 44.8164 456.418 44.8164 456.942C44.8164 457.353 44.9395 457.665 45.1855 457.879C45.4362 458.093 45.7848 458.2 46.2314 458.2ZM0.574219 474.767V473.728H3.93066V474.767H0.574219ZM18.2451 478H17.0967L15.0801 471.308C14.9844 471.011 14.8773 470.638 14.7588 470.187C14.6403 469.735 14.5788 469.464 14.5742 469.373C14.474 469.975 14.3145 470.633 14.0957 471.349L12.1406 478H10.9922L8.33301 468.006H9.56348L11.1426 474.179C11.3613 475.045 11.5208 475.828 11.6211 476.53C11.7441 475.696 11.9264 474.881 12.168 474.083L13.959 468.006H15.1895L17.0693 474.138C17.2881 474.844 17.4727 475.642 17.623 476.53C17.7096 475.883 17.8737 475.095 18.1152 474.165L19.6875 468.006H20.918L18.2451 478ZM28.7793 474.247C28.7793 475.468 28.4717 476.423 27.8564 477.111C27.2412 477.795 26.3913 478.137 25.3066 478.137C24.6367 478.137 24.042 477.979 23.5225 477.665C23.0029 477.351 22.6019 476.899 22.3193 476.312C22.0368 475.724 21.8955 475.035 21.8955 474.247C21.8955 473.026 22.2008 472.076 22.8115 471.396C23.4222 470.713 24.2699 470.371 25.3545 470.371C26.4027 470.371 27.2344 470.72 27.8496 471.417C28.4694 472.114 28.7793 473.058 28.7793 474.247ZM23.0713 474.247C23.0713 475.204 23.2627 475.933 23.6455 476.435C24.0283 476.936 24.5911 477.187 25.334 477.187C26.0768 477.187 26.6396 476.938 27.0225 476.441C27.4098 475.94 27.6035 475.209 27.6035 474.247C27.6035 473.295 27.4098 472.572 27.0225 472.08C26.6396 471.583 26.0723 471.335 25.3203 471.335C24.5775 471.335 24.0169 471.579 23.6387 472.066C23.2604 472.554 23.0713 473.281 23.0713 474.247ZM31.8418 470.508V475.368C31.8418 475.979 31.9808 476.435 32.2588 476.735C32.5368 477.036 32.972 477.187 33.5645 477.187C34.3483 477.187 34.9202 476.972 35.2803 476.544C35.6449 476.116 35.8271 475.416 35.8271 474.445V470.508H36.9619V478H36.0254L35.8613 476.995H35.7998C35.5674 477.364 35.2438 477.647 34.8291 477.843C34.4189 478.039 33.9495 478.137 33.4209 478.137C32.5094 478.137 31.8258 477.92 31.3701 477.487C30.9189 477.054 30.6934 476.362 30.6934 475.409V470.508H31.8418ZM44.502 478V473.153C44.502 472.543 44.363 472.087 44.085 471.786C43.807 471.485 43.3717 471.335 42.7793 471.335C41.9954 471.335 41.4212 471.547 41.0566 471.971C40.6921 472.395 40.5098 473.094 40.5098 474.069V478H39.375V470.508H40.2979L40.4824 471.533H40.5371C40.7695 471.164 41.0954 470.879 41.5146 470.679C41.9339 470.474 42.401 470.371 42.916 470.371C43.8184 470.371 44.4974 470.59 44.9531 471.027C45.4089 471.46 45.6367 472.155 45.6367 473.112V478H44.502ZM52.582 478L52.3564 476.934H52.3018C51.9281 477.403 51.5544 477.722 51.1807 477.891C50.8115 478.055 50.349 478.137 49.793 478.137C49.0501 478.137 48.4668 477.945 48.043 477.562C47.6237 477.18 47.4141 476.635 47.4141 475.929C47.4141 474.416 48.624 473.623 51.0439 473.55L52.3154 473.509V473.044C52.3154 472.456 52.1878 472.023 51.9326 471.745C51.682 471.463 51.2786 471.321 50.7227 471.321C50.0983 471.321 49.3919 471.513 48.6035 471.896L48.2549 471.027C48.624 470.827 49.0273 470.67 49.4648 470.556C49.9069 470.442 50.349 470.385 50.791 470.385C51.6842 470.385 52.3451 470.583 52.7734 470.979C53.2064 471.376 53.4229 472.012 53.4229 472.887V478H52.582ZM50.0186 477.2C50.7249 477.2 51.2786 477.007 51.6797 476.619C52.0853 476.232 52.2881 475.689 52.2881 474.992V474.315L51.1533 474.363C50.251 474.395 49.5993 474.536 49.1982 474.787C48.8018 475.033 48.6035 475.418 48.6035 475.942C48.6035 476.353 48.7266 476.665 48.9727 476.879C49.2233 477.093 49.5719 477.2 50.0186 477.2ZM60.375 478L60.1494 476.934H60.0947C59.721 477.403 59.3473 477.722 58.9736 477.891C58.6045 478.055 58.1419 478.137 57.5859 478.137C56.8431 478.137 56.2598 477.945 55.8359 477.562C55.4167 477.18 55.207 476.635 55.207 475.929C55.207 474.416 56.417 473.623 58.8369 473.55L60.1084 473.509V473.044C60.1084 472.456 59.9808 472.023 59.7256 471.745C59.4749 471.463 59.0716 471.321 58.5156 471.321C57.8913 471.321 57.1849 471.513 56.3965 471.896L56.0479 471.027C56.417 470.827 56.8203 470.67 57.2578 470.556C57.6999 470.442 58.1419 470.385 58.584 470.385C59.4772 470.385 60.138 470.583 60.5664 470.979C60.9993 471.376 61.2158 472.012 61.2158 472.887V478H60.375ZM57.8115 477.2C58.5179 477.2 59.0716 477.007 59.4727 476.619C59.8783 476.232 60.0811 475.689 60.0811 474.992V474.315L58.9463 474.363C58.0439 474.395 57.3923 474.536 56.9912 474.787C56.5947 475.033 56.3965 475.418 56.3965 475.942C56.3965 476.353 56.5195 476.665 56.7656 476.879C57.0163 477.093 57.3649 477.2 57.8115 477.2ZM68.6875 478V473.153C68.6875 472.543 68.5485 472.087 68.2705 471.786C67.9925 471.485 67.5573 471.335 66.9648 471.335C66.181 471.335 65.6068 471.547 65.2422 471.971C64.8776 472.395 64.6953 473.094 64.6953 474.069V478H63.5605V470.508H64.4834L64.668 471.533H64.7227C64.9551 471.164 65.2809 470.879 65.7002 470.679C66.1195 470.474 66.5866 470.371 67.1016 470.371C68.0039 470.371 68.6829 470.59 69.1387 471.027C69.5944 471.46 69.8223 472.155 69.8223 473.112V478H68.6875Z" fill="#ADADAD"/>
<path d="M173 15C175.761 15 178 12.7614 178 10C178 7.23857 175.761 5 173 5L173 15ZM127 15L173 15L173 5L127 5L127 15Z" fill="#5A6BB6"/>
<path d="M147 15C149.761 15 152 12.7614 152 10C152 7.23857 149.761 5 147 5L147 15ZM127 15L147 15L147 5L127 5L127 15Z" fill="#B60062"/>
<path d="M247 52C249.761 52 252 49.7614 252 47C252 44.2386 249.761 42 247 42L247 52ZM127 52L247 52L247 42L127 42L127 52Z" fill="#5A6BB6"/>
<path d="M203 52C205.761 52 208 49.7614 208 47C208 44.2386 205.761 42 203 42L203 52ZM127 52L203 52L203 42L127 42L127 52Z" fill="#B60062"/>
<path d="M209 89C211.761 89 214 86.7614 214 84C214 81.2386 211.761 79 209 79L209 89ZM127 89L209 89L209 79L127 79L127 89Z" fill="#5A6BB6"/>
<path d="M187 89C189.761 89 192 86.7614 192 84C192 81.2386 189.761 79 187 79L187 89ZM127 89L187 89L187 79L127 79L127 89Z" fill="#B60062"/>
<path d="M220 126C222.761 126 225 123.761 225 121C225 118.239 222.761 116 220 116L220 126ZM127 126L220 126L220 116L127 116L127 126Z" fill="#5A6BB6"/>
<path d="M162 126C164.761 126 167 123.761 167 121C167 118.239 164.761 116 162 116L162 126ZM127 126L162 126L162 116L127 116L127 126Z" fill="#B60062"/>
<path d="M294 163C296.761 163 299 160.761 299 158C299 155.239 296.761 153 294 153L294 163ZM127 163L294 163L294 153L127 153L127 163Z" fill="#5A6BB6"/>
<path d="M209 163C211.761 163 214 160.761 214 158C214 155.239 211.761 153 209 153L209 163ZM127 163L209 163L209 153L127 153L127 163Z" fill="#B60062"/>
<path d="M297.5 200C300.261 200 302.5 197.761 302.5 195C302.5 192.239 300.261 190 297.5 190L297.5 200ZM127 200L297.5 200L297.5 190L127 190L127 200Z" fill="#5A6BB6"/>
<path d="M209 200C211.761 200 214 197.761 214 195C214 192.239 211.761 190 209 190L209 200ZM127 200L209 200L209 190L127 190L127 200Z" fill="#B60062"/>
<path d="M298 237C300.761 237 303 234.761 303 232C303 229.239 300.761 227 298 227L298 237ZM127 237L298 237L298 227L127 227L127 237Z" fill="#5A6BB6"/>
<path d="M187 237C189.761 237 192 234.761 192 232C192 229.239 189.761 227 187 227L187 237ZM127 237L187 237L187 227L127 227L127 237Z" fill="#B60062"/>
<path d="M282 274C284.761 274 287 271.762 287 269C287 266.239 284.761 264 282 264L282 274ZM127 274L282 274L282 264L127 264L127 274Z" fill="#5A6BB6"/>
<path d="M173 274C175.761 274 178 271.762 178 269C178 266.239 175.761 264 173 264L173 274ZM127 274L173 274L173 264L127 264L127 274Z" fill="#B60062"/>
<path d="M220 311C222.761 311 225 308.762 225 306C225 303.239 222.761 301 220 301L220 311ZM127 311L220 311L220 301L127 301L127 311Z" fill="#5A6BB6"/>
<path d="M162 311C164.761 311 167 308.762 167 306C167 303.239 164.761 301 162 301L162 311ZM127 311L162 311L162 301L127 301L127 311Z" fill="#B60062"/>
<path d="M209 348C211.761 348 214 345.762 214 343C214 340.239 211.761 338 209 338L209 348ZM127 348L209 348L209 338L127 338L127 348Z" fill="#5A6BB6"/>
<path d="M187 348C189.761 348 192 345.762 192 343C192 340.239 189.761 338 187 338L187 348ZM127 348L187 348L187 338L127 338L127 348Z" fill="#B60062"/>
<path d="M247 385C249.761 385 252 382.762 252 380C252 377.239 249.761 375 247 375L247 385ZM127 385H247L247 375H127L127 385Z" fill="#5A6BB6"/>
<path d="M282 422C284.761 422 287 419.762 287 417C287 414.239 284.761 412 282 412L282 422ZM127 422L282 422L282 412L127 412L127 422Z" fill="#5A6BB6"/>
<path d="M173 422C175.761 422 178 419.762 178 417C178 414.239 175.761 412 173 412L173 422ZM127 422L173 422L173 412L127 412L127 422Z" fill="#B60062"/>
<path d="M247 459C249.761 459 252 456.762 252 454C252 451.239 249.761 449 247 449L247 459ZM127 459L247 459L247 449L127 449L127 459Z" fill="#5A6BB6"/>
<path d="M147 459C149.761 459 152 456.762 152 454C152 451.239 149.761 449 147 449L147 459ZM127 459L147 459L147 449L127 449L127 459Z" fill="#B60062"/>
</svg>
