<svg width="110" height="182" viewBox="0 0 110 182" fill="none" xmlns="http://www.w3.org/2000/svg">
<circle cx="9.5" cy="11.5" r="9.5" fill="#5A6BB6"/>
<path d="M35.1172 17.5H33.2734V10.1484C33.2734 9.90365 33.276 9.65885 33.2812 9.41406C33.2865 9.16927 33.2917 8.92969 33.2969 8.69531C33.3073 8.46094 33.3203 8.23698 33.3359 8.02344C33.2266 8.14323 33.0911 8.27344 32.9297 8.41406C32.7734 8.55469 32.6068 8.70052 32.4297 8.85156L31.1172 9.89844L30.1953 8.73438L33.5859 6.07812H35.1172V17.5ZM42.4378 10.3594C43.1722 10.3594 43.818 10.4922 44.3753 10.7578C44.9378 11.0182 45.3753 11.4036 45.6878 11.9141C46.0003 12.4193 46.1566 13.0391 46.1566 13.7734C46.1566 14.5755 45.9873 15.2682 45.6488 15.8516C45.3102 16.4297 44.8128 16.875 44.1566 17.1875C43.5003 17.5 42.7008 17.6562 41.7581 17.6562C41.1592 17.6562 40.5993 17.6042 40.0784 17.5C39.5628 17.3958 39.1175 17.2396 38.7425 17.0312V15.375C39.1331 15.5938 39.6019 15.7734 40.1488 15.9141C40.6956 16.0495 41.2191 16.1172 41.7191 16.1172C42.2503 16.1172 42.706 16.0391 43.0863 15.8828C43.4665 15.7266 43.7581 15.487 43.9613 15.1641C44.1696 14.8411 44.2738 14.4323 44.2738 13.9375C44.2738 13.2812 44.0628 12.776 43.6409 12.4219C43.2243 12.0625 42.5706 11.8828 41.68 11.8828C41.3675 11.8828 41.0342 11.9115 40.68 11.9688C40.331 12.0208 40.0394 12.0781 39.805 12.1406L39.0003 11.6641L39.43 6.07812H45.3675V7.69531H41.0472L40.7972 10.5391C40.9847 10.4974 41.2086 10.4583 41.4691 10.4219C41.7295 10.3802 42.0524 10.3594 42.4378 10.3594ZM47.235 13.9844V12.4297H51.2663V13.9844H47.235ZM57.6259 17.5H55.7822V10.1484C55.7822 9.90365 55.7848 9.65885 55.79 9.41406C55.7952 9.16927 55.8004 8.92969 55.8056 8.69531C55.816 8.46094 55.8291 8.23698 55.8447 8.02344C55.7353 8.14323 55.5999 8.27344 55.4384 8.41406C55.2822 8.55469 55.1155 8.70052 54.9384 8.85156L53.6259 9.89844L52.7041 8.73438L56.0947 6.07812H57.6259V17.5ZM68.7825 10.9453C68.7825 11.6224 68.733 12.2865 68.6341 12.9375C68.5403 13.5885 68.3736 14.1979 68.1341 14.7656C67.8997 15.3333 67.5742 15.8359 67.1575 16.2734C66.746 16.7057 66.2252 17.0443 65.595 17.2891C64.9648 17.5339 64.2044 17.6562 63.3137 17.6562C63.0898 17.6562 62.8294 17.6432 62.5325 17.6172C62.2408 17.5964 62.0012 17.5651 61.8137 17.5234V15.9922C62.0117 16.0495 62.233 16.0964 62.4778 16.1328C62.7278 16.1641 62.9752 16.1797 63.22 16.1797C64.1835 16.1797 64.9335 16 65.47 15.6406C66.0117 15.2812 66.3945 14.7865 66.6184 14.1562C66.8476 13.526 66.9778 12.8099 67.0091 12.0078H66.9153C66.7643 12.2578 66.5742 12.487 66.345 12.6953C66.1158 12.8984 65.832 13.0625 65.4934 13.1875C65.1549 13.3073 64.7434 13.3672 64.2591 13.3672C63.6028 13.3672 63.0299 13.2292 62.5403 12.9531C62.0559 12.6771 61.6783 12.276 61.4075 11.75C61.1419 11.2188 61.0091 10.5807 61.0091 9.83594C61.0091 9.02865 61.1627 8.33333 61.47 7.75C61.7773 7.16667 62.2122 6.71875 62.7747 6.40625C63.3372 6.08854 63.9986 5.92969 64.7591 5.92969C65.332 5.92969 65.8606 6.03385 66.345 6.24219C66.8346 6.44531 67.2617 6.75781 67.6262 7.17969C67.9908 7.59635 68.2747 8.11979 68.4778 8.75C68.6809 9.375 68.7825 10.1068 68.7825 10.9453ZM64.7825 7.44531C64.2044 7.44531 63.733 7.64062 63.3684 8.03125C63.0039 8.41667 62.8216 9.01042 62.8216 9.8125C62.8216 10.4635 62.9778 10.9792 63.2903 11.3594C63.6028 11.7396 64.082 11.9297 64.7278 11.9297C65.1757 11.9297 65.5611 11.8385 65.8841 11.6562C66.2122 11.4688 66.4648 11.2318 66.6419 10.9453C66.8242 10.6589 66.9153 10.3672 66.9153 10.0703C66.9153 9.76302 66.871 9.45573 66.7825 9.14844C66.6992 8.84115 66.569 8.5599 66.3919 8.30469C66.2148 8.04948 65.9908 7.84375 65.72 7.6875C65.4544 7.52604 65.1419 7.44531 64.7825 7.44531ZM77.7206 8.6875C78.8144 8.6875 79.6399 8.92969 80.1972 9.41406C80.7597 9.89844 81.0409 10.6536 81.0409 11.6797V17.5H79.7363L79.3847 16.2734H79.3222C79.0774 16.5859 78.8248 16.8438 78.5644 17.0469C78.304 17.25 78.0019 17.401 77.6581 17.5C77.3196 17.6042 76.9055 17.6562 76.4159 17.6562C75.9003 17.6562 75.4394 17.5625 75.0331 17.375C74.6269 17.1823 74.3066 16.8906 74.0722 16.5C73.8378 16.1094 73.7206 15.6146 73.7206 15.0156C73.7206 14.125 74.0514 13.4557 74.7128 13.0078C75.3795 12.5599 76.3847 12.3125 77.7284 12.2656L79.2284 12.2109V11.7578C79.2284 11.1589 79.0878 10.7318 78.8066 10.4766C78.5305 10.2214 78.1399 10.0938 77.6347 10.0938C77.2024 10.0938 76.7831 10.1562 76.3769 10.2812C75.9706 10.4062 75.5748 10.5599 75.1894 10.7422L74.5956 9.44531C75.0175 9.22135 75.4967 9.03906 76.0331 8.89844C76.5748 8.75781 77.1373 8.6875 77.7206 8.6875ZM79.2206 13.3672L78.1034 13.4062C77.1868 13.4375 76.5435 13.5938 76.1738 13.875C75.804 14.1562 75.6191 14.5417 75.6191 15.0312C75.6191 15.4583 75.7467 15.7708 76.0019 15.9688C76.2571 16.1615 76.593 16.2578 77.0097 16.2578C77.6451 16.2578 78.1711 16.0781 78.5878 15.7188C79.0097 15.3542 79.2206 14.8203 79.2206 14.1172V13.3672ZM87.7991 8.6875C88.773 8.6875 89.5308 8.9401 90.0725 9.44531C90.6194 9.94531 90.8928 10.75 90.8928 11.8594V17.5H89.0569V12.2031C89.0569 11.5312 88.9189 11.0286 88.6428 10.6953C88.3668 10.3568 87.9397 10.1875 87.3616 10.1875C86.523 10.1875 85.9397 10.4453 85.6116 10.9609C85.2886 11.4766 85.1272 12.224 85.1272 13.2031V17.5H83.2912V8.85156H84.7209L84.9787 10.0234H85.0803C85.2678 9.72135 85.4996 9.47396 85.7756 9.28125C86.0569 9.08333 86.3694 8.9349 86.7131 8.83594C87.0621 8.73698 87.4241 8.6875 87.7991 8.6875ZM83.9787 7.79688C84.01 7.43229 84.0777 7.11458 84.1819 6.84375C84.286 6.56771 84.4215 6.33854 84.5881 6.15625C84.76 5.96875 84.9553 5.82812 85.1741 5.73438C85.398 5.64062 85.6402 5.59375 85.9006 5.59375C86.1298 5.59375 86.3485 5.63802 86.5569 5.72656C86.7704 5.8151 86.9761 5.91927 87.1741 6.03906C87.3772 6.15365 87.5725 6.25521 87.76 6.34375C87.9527 6.43229 88.1376 6.47656 88.3147 6.47656C88.5178 6.47656 88.6897 6.40365 88.8303 6.25781C88.9761 6.11198 89.0855 5.88542 89.1584 5.57812H90.1194C90.0569 6.29688 89.8511 6.84635 89.5022 7.22656C89.1532 7.60156 88.7183 7.78906 88.1975 7.78906C87.9787 7.78906 87.7626 7.74479 87.5491 7.65625C87.3407 7.5625 87.1376 7.45833 86.9397 7.34375C86.7418 7.22917 86.5465 7.1276 86.3537 7.03906C86.161 6.95052 85.9735 6.90625 85.7912 6.90625C85.5829 6.90625 85.4058 6.97917 85.26 7.125C85.1194 7.27083 85.0152 7.49479 84.9475 7.79688H83.9787ZM100.799 13.1562C100.799 13.875 100.706 14.513 100.518 15.0703C100.331 15.6276 100.057 16.099 99.6978 16.4844C99.3384 16.8646 98.9061 17.1562 98.4009 17.3594C97.8957 17.5573 97.3254 17.6562 96.69 17.6562C96.0962 17.6562 95.552 17.5573 95.0572 17.3594C94.5624 17.1562 94.1327 16.8646 93.7681 16.4844C93.4087 16.099 93.1301 15.6276 92.9322 15.0703C92.7343 14.513 92.6353 13.875 92.6353 13.1562C92.6353 12.2031 92.7994 11.3958 93.1275 10.7344C93.4608 10.0677 93.9348 9.5599 94.5494 9.21094C95.164 8.86198 95.8957 8.6875 96.7447 8.6875C97.5416 8.6875 98.2447 8.86198 98.8541 9.21094C99.4634 9.5599 99.94 10.0677 100.284 10.7344C100.627 11.401 100.799 12.2083 100.799 13.1562ZM94.5259 13.1562C94.5259 13.7865 94.6015 14.3255 94.7525 14.7734C94.9087 15.2214 95.1483 15.5651 95.4712 15.8047C95.7942 16.0391 96.2108 16.1562 96.7212 16.1562C97.2317 16.1562 97.6483 16.0391 97.9712 15.8047C98.2942 15.5651 98.5311 15.2214 98.6822 14.7734C98.8332 14.3255 98.9087 13.7865 98.9087 13.1562C98.9087 12.526 98.8332 11.9922 98.6822 11.5547C98.5311 11.112 98.2942 10.776 97.9712 10.5469C97.6483 10.3125 97.2291 10.1953 96.7134 10.1953C95.953 10.1953 95.3983 10.4505 95.0494 10.9609C94.7004 11.4714 94.5259 12.2031 94.5259 13.1562ZM108.401 15.0312C108.401 15.599 108.263 16.0781 107.987 16.4688C107.711 16.8594 107.308 17.1562 106.776 17.3594C106.25 17.5573 105.604 17.6562 104.839 17.6562C104.235 17.6562 103.714 17.612 103.276 17.5234C102.844 17.4401 102.435 17.3099 102.05 17.1328V15.5469C102.461 15.7396 102.922 15.9062 103.433 16.0469C103.948 16.1875 104.435 16.2578 104.893 16.2578C105.498 16.2578 105.933 16.1641 106.198 15.9766C106.464 15.7839 106.597 15.5286 106.597 15.2109C106.597 15.0234 106.542 14.8568 106.433 14.7109C106.328 14.5599 106.13 14.4062 105.839 14.25C105.552 14.0885 105.13 13.8958 104.573 13.6719C104.026 13.4531 103.565 13.2344 103.19 13.0156C102.815 12.7969 102.531 12.5339 102.339 12.2266C102.146 11.9141 102.05 11.5156 102.05 11.0312C102.05 10.2656 102.352 9.6849 102.956 9.28906C103.565 8.88802 104.37 8.6875 105.37 8.6875C105.901 8.6875 106.401 8.74219 106.87 8.85156C107.344 8.95573 107.808 9.10938 108.261 9.3125L107.683 10.6953C107.292 10.5234 106.899 10.3828 106.503 10.2734C106.112 10.1589 105.714 10.1016 105.308 10.1016C104.834 10.1016 104.472 10.1745 104.222 10.3203C103.977 10.4661 103.854 10.6745 103.854 10.9453C103.854 11.1484 103.914 11.3203 104.034 11.4609C104.154 11.6016 104.36 11.7422 104.651 11.8828C104.948 12.0234 105.36 12.1979 105.886 12.4062C106.401 12.6042 106.847 12.8125 107.222 13.0312C107.602 13.2448 107.893 13.5078 108.097 13.8203C108.3 14.1328 108.401 14.5365 108.401 15.0312Z" fill="#ADADAD"/>
<path d="M38.2021 31.5244C38.2021 32.3271 37.959 33.0098 37.4727 33.5723C36.9863 34.1348 36.3037 34.5215 35.4248 34.7324V34.7852C36.4619 34.9141 37.2471 35.2305 37.7803 35.7344C38.3135 36.2324 38.5801 36.9062 38.5801 37.7559C38.5801 38.9922 38.1318 39.9561 37.2354 40.6475C36.3389 41.333 35.0586 41.6758 33.3945 41.6758C32 41.6758 30.7637 41.4443 29.6855 40.9814V38.6699C30.1836 38.9219 30.7314 39.127 31.3291 39.2852C31.9268 39.4434 32.5186 39.5225 33.1045 39.5225C34.001 39.5225 34.6631 39.3701 35.0908 39.0654C35.5186 38.7607 35.7324 38.2715 35.7324 37.5977C35.7324 36.9941 35.4863 36.5664 34.9941 36.3145C34.502 36.0625 33.7168 35.9365 32.6387 35.9365H31.6631V33.8535H32.6562C33.6523 33.8535 34.3789 33.7246 34.8359 33.4668C35.2988 33.2031 35.5303 32.7549 35.5303 32.1221C35.5303 31.1494 34.9209 30.6631 33.7021 30.6631C33.2803 30.6631 32.8496 30.7334 32.4102 30.874C31.9766 31.0146 31.4932 31.2578 30.96 31.6035L29.7031 29.7314C30.875 28.8877 32.2725 28.4658 33.8955 28.4658C35.2256 28.4658 36.2744 28.7354 37.042 29.2744C37.8154 29.8135 38.2021 30.5635 38.2021 31.5244ZM48.9164 38.8369H47.3695V41.5H44.7152V38.8369H39.2308V36.9473L44.8646 28.6504H47.3695V36.7275H48.9164V38.8369ZM44.7152 36.7275V34.5479C44.7152 34.1846 44.7298 33.6572 44.7591 32.9658C44.7884 32.2744 44.8119 31.873 44.8295 31.7617H44.7591C44.5423 32.2422 44.2816 32.7109 43.9769 33.168L41.6214 36.7275H44.7152ZM54.2429 33.291C55.4851 33.291 56.4724 33.6396 57.2048 34.3369C57.9431 35.0342 58.3122 35.9893 58.3122 37.2021C58.3122 38.6377 57.8698 39.7422 56.9851 40.5156C56.1003 41.2891 54.8347 41.6758 53.1882 41.6758C51.7585 41.6758 50.6042 41.4443 49.7253 40.9814V38.6348C50.1882 38.8809 50.7273 39.083 51.3425 39.2412C51.9577 39.3936 52.5407 39.4697 53.0915 39.4697C54.7497 39.4697 55.5788 38.79 55.5788 37.4307C55.5788 36.1357 54.7204 35.4883 53.0036 35.4883C52.6931 35.4883 52.3503 35.5205 51.9753 35.585C51.6003 35.6436 51.2956 35.708 51.0613 35.7783L49.9802 35.1982L50.4636 28.6504H57.4333V30.9531H52.8454L52.6081 33.4756L52.9157 33.4141C53.2732 33.332 53.7155 33.291 54.2429 33.291Z" fill="black"/>
<circle cx="9.5" cy="78.5" r="9.5" fill="#B60062"/>
<path d="M37.4531 84.5H29.7188V83.1172L32.6797 80.1172C33.2526 79.5339 33.724 79.0312 34.0938 78.6094C34.4635 78.1823 34.737 77.7786 34.9141 77.3984C35.0964 77.0182 35.1875 76.6042 35.1875 76.1562C35.1875 75.6042 35.0286 75.1875 34.7109 74.9062C34.3932 74.6198 33.974 74.4766 33.4531 74.4766C32.9583 74.4766 32.5 74.5755 32.0781 74.7734C31.6615 74.9661 31.2292 75.2422 30.7812 75.6016L29.7734 74.3906C30.0911 74.1198 30.4297 73.8724 30.7891 73.6484C31.1536 73.4245 31.5599 73.2474 32.0078 73.1172C32.4557 72.9818 32.9661 72.9141 33.5391 72.9141C34.263 72.9141 34.888 73.0443 35.4141 73.3047C35.9401 73.5599 36.3438 73.9167 36.625 74.375C36.9115 74.8333 37.0547 75.3672 37.0547 75.9766C37.0547 76.5911 36.9323 77.1589 36.6875 77.6797C36.4427 78.2005 36.0938 78.7161 35.6406 79.2266C35.1875 79.7318 34.6484 80.2812 34.0234 80.875L32.0469 82.8047V82.8906H37.4531V84.5ZM46.2894 78.7812C46.2894 79.7031 46.2165 80.5286 46.0706 81.2578C45.93 81.9818 45.706 82.5964 45.3988 83.1016C45.0915 83.6068 44.6904 83.9922 44.1956 84.2578C43.7008 84.5234 43.1019 84.6562 42.3988 84.6562C41.5185 84.6562 40.792 84.4245 40.2191 83.9609C39.6461 83.4922 39.2217 82.8203 38.9456 81.9453C38.6696 81.0651 38.5316 80.0104 38.5316 78.7812C38.5316 77.5521 38.6566 76.5 38.9066 75.625C39.1618 74.7448 39.5732 74.0703 40.1409 73.6016C40.7086 73.1328 41.4613 72.8984 42.3988 72.8984C43.2842 72.8984 44.0133 73.1328 44.5863 73.6016C45.1644 74.0651 45.5915 74.737 45.8675 75.6172C46.1488 76.4922 46.2894 77.5469 46.2894 78.7812ZM40.3831 78.7812C40.3831 79.7448 40.4456 80.5495 40.5706 81.1953C40.7008 81.8411 40.9144 82.3255 41.2113 82.6484C41.5081 82.9661 41.904 83.125 42.3988 83.125C42.8935 83.125 43.2894 82.9661 43.5863 82.6484C43.8831 82.3307 44.0967 81.849 44.2269 81.2031C44.3623 80.5573 44.43 79.75 44.43 78.7812C44.43 77.8229 44.3649 77.0208 44.2347 76.375C44.1045 75.7292 43.8909 75.2448 43.5941 74.9219C43.2972 74.5938 42.8988 74.4297 42.3988 74.4297C41.8988 74.4297 41.5003 74.5938 41.2034 74.9219C40.9118 75.2448 40.7008 75.7292 40.5706 76.375C40.4456 77.0208 40.3831 77.8229 40.3831 78.7812ZM47.235 80.9844V79.4297H51.2663V80.9844H47.235ZM59.9619 84.5H52.2275V83.1172L55.1884 80.1172C55.7614 79.5339 56.2327 79.0312 56.6025 78.6094C56.9723 78.1823 57.2457 77.7786 57.4228 77.3984C57.6051 77.0182 57.6963 76.6042 57.6963 76.1562C57.6963 75.6042 57.5374 75.1875 57.2197 74.9062C56.902 74.6198 56.4827 74.4766 55.9619 74.4766C55.4671 74.4766 55.0088 74.5755 54.5869 74.7734C54.1702 74.9661 53.7379 75.2422 53.29 75.6016L52.2822 74.3906C52.5999 74.1198 52.9384 73.8724 53.2978 73.6484C53.6624 73.4245 54.0686 73.2474 54.5166 73.1172C54.9645 72.9818 55.4749 72.9141 56.0478 72.9141C56.7718 72.9141 57.3968 73.0443 57.9228 73.3047C58.4489 73.5599 58.8525 73.9167 59.1338 74.375C59.4202 74.8333 59.5634 75.3672 59.5634 75.9766C59.5634 76.5911 59.441 77.1589 59.1963 77.6797C58.9515 78.2005 58.6025 78.7161 58.1494 79.2266C57.6963 79.7318 57.1572 80.2812 56.5322 80.875L54.5556 82.8047V82.8906H59.9619V84.5ZM69.2122 81.9922H67.6653V84.5H65.8528V81.9922H60.6575V80.6016L65.8762 73.0469H67.6653V80.4688H69.2122V81.9922ZM65.8528 80.4688V77.6328C65.8528 77.3984 65.8554 77.1615 65.8606 76.9219C65.871 76.6771 65.8815 76.4427 65.8919 76.2188C65.9023 75.9948 65.9127 75.7891 65.9231 75.6016C65.9335 75.4089 65.9414 75.25 65.9466 75.125H65.8841C65.7851 75.3333 65.6757 75.5469 65.5559 75.7656C65.4361 75.9792 65.3085 76.1875 65.1731 76.3906L62.3606 80.4688H65.8528ZM77.7206 75.6875C78.8144 75.6875 79.6399 75.9297 80.1972 76.4141C80.7597 76.8984 81.0409 77.6536 81.0409 78.6797V84.5H79.7363L79.3847 83.2734H79.3222C79.0774 83.5859 78.8248 83.8438 78.5644 84.0469C78.304 84.25 78.0019 84.401 77.6581 84.5C77.3196 84.6042 76.9055 84.6562 76.4159 84.6562C75.9003 84.6562 75.4394 84.5625 75.0331 84.375C74.6269 84.1823 74.3066 83.8906 74.0722 83.5C73.8378 83.1094 73.7206 82.6146 73.7206 82.0156C73.7206 81.125 74.0514 80.4557 74.7128 80.0078C75.3795 79.5599 76.3847 79.3125 77.7284 79.2656L79.2284 79.2109V78.7578C79.2284 78.1589 79.0878 77.7318 78.8066 77.4766C78.5305 77.2214 78.1399 77.0938 77.6347 77.0938C77.2024 77.0938 76.7831 77.1562 76.3769 77.2812C75.9706 77.4062 75.5748 77.5599 75.1894 77.7422L74.5956 76.4453C75.0175 76.2214 75.4967 76.0391 76.0331 75.8984C76.5748 75.7578 77.1373 75.6875 77.7206 75.6875ZM79.2206 80.3672L78.1034 80.4062C77.1868 80.4375 76.5435 80.5938 76.1738 80.875C75.804 81.1562 75.6191 81.5417 75.6191 82.0312C75.6191 82.4583 75.7467 82.7708 76.0019 82.9688C76.2571 83.1615 76.593 83.2578 77.0097 83.2578C77.6451 83.2578 78.1711 83.0781 78.5878 82.7188C79.0097 82.3542 79.2206 81.8203 79.2206 81.1172V80.3672ZM87.7991 75.6875C88.773 75.6875 89.5308 75.9401 90.0725 76.4453C90.6194 76.9453 90.8928 77.75 90.8928 78.8594V84.5H89.0569V79.2031C89.0569 78.5312 88.9189 78.0286 88.6428 77.6953C88.3668 77.3568 87.9397 77.1875 87.3616 77.1875C86.523 77.1875 85.9397 77.4453 85.6116 77.9609C85.2886 78.4766 85.1272 79.224 85.1272 80.2031V84.5H83.2912V75.8516H84.7209L84.9787 77.0234H85.0803C85.2678 76.7214 85.4996 76.474 85.7756 76.2812C86.0569 76.0833 86.3694 75.9349 86.7131 75.8359C87.0621 75.737 87.4241 75.6875 87.7991 75.6875ZM83.9787 74.7969C84.01 74.4323 84.0777 74.1146 84.1819 73.8438C84.286 73.5677 84.4215 73.3385 84.5881 73.1562C84.76 72.9688 84.9553 72.8281 85.1741 72.7344C85.398 72.6406 85.6402 72.5938 85.9006 72.5938C86.1298 72.5938 86.3485 72.638 86.5569 72.7266C86.7704 72.8151 86.9761 72.9193 87.1741 73.0391C87.3772 73.1536 87.5725 73.2552 87.76 73.3438C87.9527 73.4323 88.1376 73.4766 88.3147 73.4766C88.5178 73.4766 88.6897 73.4036 88.8303 73.2578C88.9761 73.112 89.0855 72.8854 89.1584 72.5781H90.1194C90.0569 73.2969 89.8511 73.8464 89.5022 74.2266C89.1532 74.6016 88.7183 74.7891 88.1975 74.7891C87.9787 74.7891 87.7626 74.7448 87.5491 74.6562C87.3407 74.5625 87.1376 74.4583 86.9397 74.3438C86.7418 74.2292 86.5465 74.1276 86.3537 74.0391C86.161 73.9505 85.9735 73.9062 85.7912 73.9062C85.5829 73.9062 85.4058 73.9792 85.26 74.125C85.1194 74.2708 85.0152 74.4948 84.9475 74.7969H83.9787ZM100.799 80.1562C100.799 80.875 100.706 81.513 100.518 82.0703C100.331 82.6276 100.057 83.099 99.6978 83.4844C99.3384 83.8646 98.9061 84.1562 98.4009 84.3594C97.8957 84.5573 97.3254 84.6562 96.69 84.6562C96.0962 84.6562 95.552 84.5573 95.0572 84.3594C94.5624 84.1562 94.1327 83.8646 93.7681 83.4844C93.4087 83.099 93.1301 82.6276 92.9322 82.0703C92.7343 81.513 92.6353 80.875 92.6353 80.1562C92.6353 79.2031 92.7994 78.3958 93.1275 77.7344C93.4608 77.0677 93.9348 76.5599 94.5494 76.2109C95.164 75.862 95.8957 75.6875 96.7447 75.6875C97.5416 75.6875 98.2447 75.862 98.8541 76.2109C99.4634 76.5599 99.94 77.0677 100.284 77.7344C100.627 78.401 100.799 79.2083 100.799 80.1562ZM94.5259 80.1562C94.5259 80.7865 94.6015 81.3255 94.7525 81.7734C94.9087 82.2214 95.1483 82.5651 95.4712 82.8047C95.7942 83.0391 96.2108 83.1562 96.7212 83.1562C97.2317 83.1562 97.6483 83.0391 97.9712 82.8047C98.2942 82.5651 98.5311 82.2214 98.6822 81.7734C98.8332 81.3255 98.9087 80.7865 98.9087 80.1562C98.9087 79.526 98.8332 78.9922 98.6822 78.5547C98.5311 78.112 98.2942 77.776 97.9712 77.5469C97.6483 77.3125 97.2291 77.1953 96.7134 77.1953C95.953 77.1953 95.3983 77.4505 95.0494 77.9609C94.7004 78.4714 94.5259 79.2031 94.5259 80.1562ZM108.401 82.0312C108.401 82.599 108.263 83.0781 107.987 83.4688C107.711 83.8594 107.308 84.1562 106.776 84.3594C106.25 84.5573 105.604 84.6562 104.839 84.6562C104.235 84.6562 103.714 84.612 103.276 84.5234C102.844 84.4401 102.435 84.3099 102.05 84.1328V82.5469C102.461 82.7396 102.922 82.9062 103.433 83.0469C103.948 83.1875 104.435 83.2578 104.893 83.2578C105.498 83.2578 105.933 83.1641 106.198 82.9766C106.464 82.7839 106.597 82.5286 106.597 82.2109C106.597 82.0234 106.542 81.8568 106.433 81.7109C106.328 81.5599 106.13 81.4062 105.839 81.25C105.552 81.0885 105.13 80.8958 104.573 80.6719C104.026 80.4531 103.565 80.2344 103.19 80.0156C102.815 79.7969 102.531 79.5339 102.339 79.2266C102.146 78.9141 102.05 78.5156 102.05 78.0312C102.05 77.2656 102.352 76.6849 102.956 76.2891C103.565 75.888 104.37 75.6875 105.37 75.6875C105.901 75.6875 106.401 75.7422 106.87 75.8516C107.344 75.9557 107.808 76.1094 108.261 76.3125L107.683 77.6953C107.292 77.5234 106.899 77.3828 106.503 77.2734C106.112 77.1589 105.714 77.1016 105.308 77.1016C104.834 77.1016 104.472 77.1745 104.222 77.3203C103.977 77.4661 103.854 77.6745 103.854 77.9453C103.854 78.1484 103.914 78.3203 104.034 78.4609C104.154 78.6016 104.36 78.7422 104.651 78.8828C104.948 79.0234 105.36 79.1979 105.886 79.4062C106.401 79.6042 106.847 79.8125 107.222 80.0312C107.602 80.2448 107.893 80.5078 108.097 80.8203C108.3 81.1328 108.401 81.5365 108.401 82.0312Z" fill="#ADADAD"/>
<path d="M36.4355 108.5H33.7197V101.064L33.7461 99.8428L33.79 98.5068C33.3389 98.958 33.0254 99.2539 32.8496 99.3945L31.373 100.581L30.0635 98.9463L34.2031 95.6504H36.4355V108.5ZM48.9164 105.837H47.3695V108.5H44.7152V105.837H39.2308V103.947L44.8646 95.6504H47.3695V103.728H48.9164V105.837ZM44.7152 103.728V101.548C44.7152 101.185 44.7298 100.657 44.7591 99.9658C44.7884 99.2744 44.8119 98.873 44.8295 98.7617H44.7591C44.5423 99.2422 44.2816 99.7109 43.9769 100.168L41.6214 103.728H44.7152ZM54.2429 100.291C55.4851 100.291 56.4724 100.64 57.2048 101.337C57.9431 102.034 58.3122 102.989 58.3122 104.202C58.3122 105.638 57.8698 106.742 56.9851 107.516C56.1003 108.289 54.8347 108.676 53.1882 108.676C51.7585 108.676 50.6042 108.444 49.7253 107.981V105.635C50.1882 105.881 50.7273 106.083 51.3425 106.241C51.9577 106.394 52.5407 106.47 53.0915 106.47C54.7497 106.47 55.5788 105.79 55.5788 104.431C55.5788 103.136 54.7204 102.488 53.0036 102.488C52.6931 102.488 52.3503 102.521 51.9753 102.585C51.6003 102.644 51.2956 102.708 51.0613 102.778L49.9802 102.198L50.4636 95.6504H57.4333V97.9531H52.8454L52.6081 100.476L52.9157 100.414C53.2732 100.332 53.7155 100.291 54.2429 100.291Z" fill="black"/>
<circle cx="9.5" cy="145.5" r="9.5" fill="#65ADC7"/>
<path d="M37.4531 151.5H29.7188V150.117L32.6797 147.117C33.2526 146.534 33.724 146.031 34.0938 145.609C34.4635 145.182 34.737 144.779 34.9141 144.398C35.0964 144.018 35.1875 143.604 35.1875 143.156C35.1875 142.604 35.0286 142.188 34.7109 141.906C34.3932 141.62 33.974 141.477 33.4531 141.477C32.9583 141.477 32.5 141.576 32.0781 141.773C31.6615 141.966 31.2292 142.242 30.7812 142.602L29.7734 141.391C30.0911 141.12 30.4297 140.872 30.7891 140.648C31.1536 140.424 31.5599 140.247 32.0078 140.117C32.4557 139.982 32.9661 139.914 33.5391 139.914C34.263 139.914 34.888 140.044 35.4141 140.305C35.9401 140.56 36.3438 140.917 36.625 141.375C36.9115 141.833 37.0547 142.367 37.0547 142.977C37.0547 143.591 36.9323 144.159 36.6875 144.68C36.4427 145.201 36.0938 145.716 35.6406 146.227C35.1875 146.732 34.6484 147.281 34.0234 147.875L32.0469 149.805V149.891H37.4531V151.5ZM42.4378 144.359C43.1722 144.359 43.818 144.492 44.3753 144.758C44.9378 145.018 45.3753 145.404 45.6878 145.914C46.0003 146.419 46.1566 147.039 46.1566 147.773C46.1566 148.576 45.9873 149.268 45.6488 149.852C45.3102 150.43 44.8128 150.875 44.1566 151.188C43.5003 151.5 42.7008 151.656 41.7581 151.656C41.1592 151.656 40.5993 151.604 40.0784 151.5C39.5628 151.396 39.1175 151.24 38.7425 151.031V149.375C39.1331 149.594 39.6019 149.773 40.1488 149.914C40.6956 150.049 41.2191 150.117 41.7191 150.117C42.2503 150.117 42.706 150.039 43.0863 149.883C43.4665 149.727 43.7581 149.487 43.9613 149.164C44.1696 148.841 44.2738 148.432 44.2738 147.938C44.2738 147.281 44.0628 146.776 43.6409 146.422C43.2243 146.062 42.5706 145.883 41.68 145.883C41.3675 145.883 41.0342 145.911 40.68 145.969C40.331 146.021 40.0394 146.078 39.805 146.141L39.0003 145.664L39.43 140.078H45.3675V141.695H41.0472L40.7972 144.539C40.9847 144.497 41.2086 144.458 41.4691 144.422C41.7295 144.38 42.0524 144.359 42.4378 144.359ZM47.235 147.984V146.43H51.2663V147.984H47.235ZM59.9619 151.5H52.2275V150.117L55.1884 147.117C55.7614 146.534 56.2327 146.031 56.6025 145.609C56.9723 145.182 57.2457 144.779 57.4228 144.398C57.6051 144.018 57.6963 143.604 57.6963 143.156C57.6963 142.604 57.5374 142.188 57.2197 141.906C56.902 141.62 56.4827 141.477 55.9619 141.477C55.4671 141.477 55.0088 141.576 54.5869 141.773C54.1702 141.966 53.7379 142.242 53.29 142.602L52.2822 141.391C52.5999 141.12 52.9384 140.872 53.2978 140.648C53.6624 140.424 54.0686 140.247 54.5166 140.117C54.9645 139.982 55.4749 139.914 56.0478 139.914C56.7718 139.914 57.3968 140.044 57.9228 140.305C58.4489 140.56 58.8525 140.917 59.1338 141.375C59.4202 141.833 59.5634 142.367 59.5634 142.977C59.5634 143.591 59.441 144.159 59.1963 144.68C58.9515 145.201 58.6025 145.716 58.1494 146.227C57.6963 146.732 57.1572 147.281 56.5322 147.875L54.5556 149.805V149.891H59.9619V151.5ZM68.7825 144.945C68.7825 145.622 68.733 146.286 68.6341 146.938C68.5403 147.589 68.3736 148.198 68.1341 148.766C67.8997 149.333 67.5742 149.836 67.1575 150.273C66.746 150.706 66.2252 151.044 65.595 151.289C64.9648 151.534 64.2044 151.656 63.3137 151.656C63.0898 151.656 62.8294 151.643 62.5325 151.617C62.2408 151.596 62.0012 151.565 61.8137 151.523V149.992C62.0117 150.049 62.233 150.096 62.4778 150.133C62.7278 150.164 62.9752 150.18 63.22 150.18C64.1835 150.18 64.9335 150 65.47 149.641C66.0117 149.281 66.3945 148.786 66.6184 148.156C66.8476 147.526 66.9778 146.81 67.0091 146.008H66.9153C66.7643 146.258 66.5742 146.487 66.345 146.695C66.1158 146.898 65.832 147.062 65.4934 147.188C65.1549 147.307 64.7434 147.367 64.2591 147.367C63.6028 147.367 63.0299 147.229 62.5403 146.953C62.0559 146.677 61.6783 146.276 61.4075 145.75C61.1419 145.219 61.0091 144.581 61.0091 143.836C61.0091 143.029 61.1627 142.333 61.47 141.75C61.7773 141.167 62.2122 140.719 62.7747 140.406C63.3372 140.089 63.9986 139.93 64.7591 139.93C65.332 139.93 65.8606 140.034 66.345 140.242C66.8346 140.445 67.2617 140.758 67.6262 141.18C67.9908 141.596 68.2747 142.12 68.4778 142.75C68.6809 143.375 68.7825 144.107 68.7825 144.945ZM64.7825 141.445C64.2044 141.445 63.733 141.641 63.3684 142.031C63.0039 142.417 62.8216 143.01 62.8216 143.812C62.8216 144.464 62.9778 144.979 63.2903 145.359C63.6028 145.74 64.082 145.93 64.7278 145.93C65.1757 145.93 65.5611 145.839 65.8841 145.656C66.2122 145.469 66.4648 145.232 66.6419 144.945C66.8242 144.659 66.9153 144.367 66.9153 144.07C66.9153 143.763 66.871 143.456 66.7825 143.148C66.6992 142.841 66.569 142.56 66.3919 142.305C66.2148 142.049 65.9908 141.844 65.72 141.688C65.4544 141.526 65.1419 141.445 64.7825 141.445ZM77.7206 142.688C78.8144 142.688 79.6399 142.93 80.1972 143.414C80.7597 143.898 81.0409 144.654 81.0409 145.68V151.5H79.7363L79.3847 150.273H79.3222C79.0774 150.586 78.8248 150.844 78.5644 151.047C78.304 151.25 78.0019 151.401 77.6581 151.5C77.3196 151.604 76.9055 151.656 76.4159 151.656C75.9003 151.656 75.4394 151.562 75.0331 151.375C74.6269 151.182 74.3066 150.891 74.0722 150.5C73.8378 150.109 73.7206 149.615 73.7206 149.016C73.7206 148.125 74.0514 147.456 74.7128 147.008C75.3795 146.56 76.3847 146.312 77.7284 146.266L79.2284 146.211V145.758C79.2284 145.159 79.0878 144.732 78.8066 144.477C78.5305 144.221 78.1399 144.094 77.6347 144.094C77.2024 144.094 76.7831 144.156 76.3769 144.281C75.9706 144.406 75.5748 144.56 75.1894 144.742L74.5956 143.445C75.0175 143.221 75.4967 143.039 76.0331 142.898C76.5748 142.758 77.1373 142.688 77.7206 142.688ZM79.2206 147.367L78.1034 147.406C77.1868 147.438 76.5435 147.594 76.1738 147.875C75.804 148.156 75.6191 148.542 75.6191 149.031C75.6191 149.458 75.7467 149.771 76.0019 149.969C76.2571 150.161 76.593 150.258 77.0097 150.258C77.6451 150.258 78.1711 150.078 78.5878 149.719C79.0097 149.354 79.2206 148.82 79.2206 148.117V147.367ZM87.7991 142.688C88.773 142.688 89.5308 142.94 90.0725 143.445C90.6194 143.945 90.8928 144.75 90.8928 145.859V151.5H89.0569V146.203C89.0569 145.531 88.9189 145.029 88.6428 144.695C88.3668 144.357 87.9397 144.188 87.3616 144.188C86.523 144.188 85.9397 144.445 85.6116 144.961C85.2886 145.477 85.1272 146.224 85.1272 147.203V151.5H83.2912V142.852H84.7209L84.9787 144.023H85.0803C85.2678 143.721 85.4996 143.474 85.7756 143.281C86.0569 143.083 86.3694 142.935 86.7131 142.836C87.0621 142.737 87.4241 142.688 87.7991 142.688ZM83.9787 141.797C84.01 141.432 84.0777 141.115 84.1819 140.844C84.286 140.568 84.4215 140.339 84.5881 140.156C84.76 139.969 84.9553 139.828 85.1741 139.734C85.398 139.641 85.6402 139.594 85.9006 139.594C86.1298 139.594 86.3485 139.638 86.5569 139.727C86.7704 139.815 86.9761 139.919 87.1741 140.039C87.3772 140.154 87.5725 140.255 87.76 140.344C87.9527 140.432 88.1376 140.477 88.3147 140.477C88.5178 140.477 88.6897 140.404 88.8303 140.258C88.9761 140.112 89.0855 139.885 89.1584 139.578H90.1194C90.0569 140.297 89.8511 140.846 89.5022 141.227C89.1532 141.602 88.7183 141.789 88.1975 141.789C87.9787 141.789 87.7626 141.745 87.5491 141.656C87.3407 141.562 87.1376 141.458 86.9397 141.344C86.7418 141.229 86.5465 141.128 86.3537 141.039C86.161 140.951 85.9735 140.906 85.7912 140.906C85.5829 140.906 85.4058 140.979 85.26 141.125C85.1194 141.271 85.0152 141.495 84.9475 141.797H83.9787ZM100.799 147.156C100.799 147.875 100.706 148.513 100.518 149.07C100.331 149.628 100.057 150.099 99.6978 150.484C99.3384 150.865 98.9061 151.156 98.4009 151.359C97.8957 151.557 97.3254 151.656 96.69 151.656C96.0962 151.656 95.552 151.557 95.0572 151.359C94.5624 151.156 94.1327 150.865 93.7681 150.484C93.4087 150.099 93.1301 149.628 92.9322 149.07C92.7343 148.513 92.6353 147.875 92.6353 147.156C92.6353 146.203 92.7994 145.396 93.1275 144.734C93.4608 144.068 93.9348 143.56 94.5494 143.211C95.164 142.862 95.8957 142.688 96.7447 142.688C97.5416 142.688 98.2447 142.862 98.8541 143.211C99.4634 143.56 99.94 144.068 100.284 144.734C100.627 145.401 100.799 146.208 100.799 147.156ZM94.5259 147.156C94.5259 147.786 94.6015 148.326 94.7525 148.773C94.9087 149.221 95.1483 149.565 95.4712 149.805C95.7942 150.039 96.2108 150.156 96.7212 150.156C97.2317 150.156 97.6483 150.039 97.9712 149.805C98.2942 149.565 98.5311 149.221 98.6822 148.773C98.8332 148.326 98.9087 147.786 98.9087 147.156C98.9087 146.526 98.8332 145.992 98.6822 145.555C98.5311 145.112 98.2942 144.776 97.9712 144.547C97.6483 144.312 97.2291 144.195 96.7134 144.195C95.953 144.195 95.3983 144.451 95.0494 144.961C94.7004 145.471 94.5259 146.203 94.5259 147.156ZM108.401 149.031C108.401 149.599 108.263 150.078 107.987 150.469C107.711 150.859 107.308 151.156 106.776 151.359C106.25 151.557 105.604 151.656 104.839 151.656C104.235 151.656 103.714 151.612 103.276 151.523C102.844 151.44 102.435 151.31 102.05 151.133V149.547C102.461 149.74 102.922 149.906 103.433 150.047C103.948 150.188 104.435 150.258 104.893 150.258C105.498 150.258 105.933 150.164 106.198 149.977C106.464 149.784 106.597 149.529 106.597 149.211C106.597 149.023 106.542 148.857 106.433 148.711C106.328 148.56 106.13 148.406 105.839 148.25C105.552 148.089 105.13 147.896 104.573 147.672C104.026 147.453 103.565 147.234 103.19 147.016C102.815 146.797 102.531 146.534 102.339 146.227C102.146 145.914 102.05 145.516 102.05 145.031C102.05 144.266 102.352 143.685 102.956 143.289C103.565 142.888 104.37 142.688 105.37 142.688C105.901 142.688 106.401 142.742 106.87 142.852C107.344 142.956 107.808 143.109 108.261 143.312L107.683 144.695C107.292 144.523 106.899 144.383 106.503 144.273C106.112 144.159 105.714 144.102 105.308 144.102C104.834 144.102 104.472 144.174 104.222 144.32C103.977 144.466 103.854 144.674 103.854 144.945C103.854 145.148 103.914 145.32 104.034 145.461C104.154 145.602 104.36 145.742 104.651 145.883C104.948 146.023 105.36 146.198 105.886 146.406C106.401 146.604 106.847 146.812 107.222 147.031C107.602 147.245 107.893 147.508 108.097 147.82C108.3 148.133 108.401 148.536 108.401 149.031Z" fill="#ADADAD"/>
<path d="M38.7031 175.5H29.7207V173.61L32.9463 170.35C33.9014 169.371 34.5254 168.694 34.8184 168.319C35.1113 167.938 35.3223 167.587 35.4512 167.265C35.5801 166.942 35.6445 166.608 35.6445 166.263C35.6445 165.747 35.501 165.363 35.2139 165.111C34.9326 164.859 34.5547 164.733 34.0801 164.733C33.582 164.733 33.0986 164.848 32.6299 165.076C32.1611 165.305 31.6719 165.63 31.1621 166.052L29.6855 164.303C30.3184 163.764 30.8428 163.383 31.2588 163.16C31.6748 162.938 32.1289 162.768 32.6211 162.65C33.1133 162.527 33.6641 162.466 34.2734 162.466C35.0762 162.466 35.7852 162.612 36.4004 162.905C37.0156 163.198 37.4932 163.608 37.833 164.136C38.1729 164.663 38.3428 165.267 38.3428 165.946C38.3428 166.538 38.2373 167.095 38.0264 167.616C37.8213 168.132 37.499 168.662 37.0596 169.207C36.626 169.752 35.8584 170.528 34.7568 171.536L33.1045 173.092V173.215H38.7031V175.5ZM44.3197 167.291C45.5619 167.291 46.5492 167.64 47.2816 168.337C48.0199 169.034 48.389 169.989 48.389 171.202C48.389 172.638 47.9466 173.742 47.0619 174.516C46.1771 175.289 44.9115 175.676 43.265 175.676C41.8353 175.676 40.681 175.444 39.8021 174.981V172.635C40.265 172.881 40.8041 173.083 41.4193 173.241C42.0345 173.394 42.6175 173.47 43.1683 173.47C44.8265 173.47 45.6556 172.79 45.6556 171.431C45.6556 170.136 44.7972 169.488 43.0804 169.488C42.7699 169.488 42.4271 169.521 42.0521 169.585C41.6771 169.644 41.3724 169.708 41.138 169.778L40.057 169.198L40.5404 162.65H47.5101V164.953H42.9222L42.6849 167.476L42.9925 167.414C43.35 167.332 43.7923 167.291 44.3197 167.291ZM58.4792 169.075C58.4792 171.319 58.1101 172.98 57.3718 174.059C56.6394 175.137 55.5085 175.676 53.9792 175.676C52.4968 175.676 51.3777 175.119 50.6218 174.006C49.8718 172.893 49.4968 171.249 49.4968 169.075C49.4968 166.808 49.863 165.138 50.5954 164.065C51.3279 162.987 52.4558 162.448 53.9792 162.448C55.4616 162.448 56.5808 163.011 57.3366 164.136C58.0984 165.261 58.4792 166.907 58.4792 169.075ZM52.195 169.075C52.195 170.651 52.3298 171.782 52.5993 172.468C52.8747 173.147 53.3347 173.487 53.9792 173.487C54.612 173.487 55.0691 173.142 55.3503 172.45C55.6316 171.759 55.7722 170.634 55.7722 169.075C55.7722 167.499 55.6286 166.368 55.3415 165.683C55.0603 164.991 54.6062 164.646 53.9792 164.646C53.3405 164.646 52.8835 164.991 52.6081 165.683C52.3327 166.368 52.195 167.499 52.195 169.075Z" fill="black"/>
</svg>
