<svg width="268" height="201" viewBox="0 0 268 201" fill="none" xmlns="http://www.w3.org/2000/svg">
<circle cx="100.5" cy="100.5" r="92.5" stroke="#EDEDED" stroke-width="16"/>
<path d="M193 100.5C193 84.641 188.923 69.0484 181.159 55.2195C173.396 41.3906 162.208 29.79 148.669 21.5315C135.13 13.2731 119.695 8.63427 103.846 8.06056C87.9977 7.48685 72.2678 10.9975 58.1671 18.2554C44.0664 25.5133 32.0686 36.2747 23.3258 49.506C14.5829 62.7374 9.3888 77.9944 8.24213 93.8119C7.09546 109.629 10.0348 125.476 16.7778 139.83C23.5209 154.184 33.8412 166.563 46.7476 175.779" stroke="#B60062" stroke-width="16" stroke-linecap="round"/>
<path d="M101 71C105.875 71 110 67.0625 110 62C110 57.125 105.875 53 101 53C96.125 53 92 57.125 92 62C92 67.0625 95.9375 71 101 71ZM130.062 103.812L118.438 85.625C115.25 80.1875 109.438 77 103.25 77H98.5625C92.375 77 86.5625 80.1875 83.375 85.625L71.75 103.812C70.0625 106.625 71 110.375 73.8125 112.25C76.625 113.938 80.1875 113 82.0625 110.188L88.0625 100.438L79.8125 125H87.3125V143C87.3125 146.375 89.9375 149 93.3125 149C96.5 149 99.125 146.375 99.125 143V125H102.125V143C102.125 146.375 104.75 149 108.125 149C111.312 149 114.125 146.375 114.125 143V125H121.625L113.375 100.438L119.562 110.188C120.875 112.062 122.938 113 125 113C125.938 113 127.062 112.812 128 112.25C130.812 110.375 131.75 106.625 130.062 103.812Z" fill="#B60062"/>
<path d="M229.43 25L226.141 15.4609H226.07C226.086 15.6745 226.104 15.9661 226.125 16.3359C226.146 16.7057 226.164 17.1016 226.18 17.5234C226.195 17.9453 226.203 18.349 226.203 18.7344V25H224.5V13.5781H227.133L230.297 22.6953H230.344L233.617 13.5781H236.242V25H234.453V18.6406C234.453 18.2917 234.458 17.9141 234.469 17.5078C234.484 17.1016 234.5 16.7161 234.516 16.3516C234.536 15.987 234.552 15.6953 234.562 15.4766H234.5L231.086 25H229.43ZM246.282 16.3516V25H244.836L244.586 23.8359H244.485C244.302 24.1328 244.071 24.3802 243.789 24.5781C243.508 24.7708 243.196 24.9141 242.852 25.0078C242.508 25.1068 242.146 25.1562 241.766 25.1562C241.115 25.1562 240.558 25.0469 240.094 24.8281C239.636 24.6042 239.284 24.2604 239.039 23.7969C238.795 23.3333 238.672 22.7344 238.672 22V16.3516H240.516V21.6562C240.516 22.3281 240.651 22.8307 240.922 23.1641C241.198 23.4974 241.625 23.6641 242.203 23.6641C242.761 23.6641 243.203 23.5495 243.532 23.3203C243.86 23.0911 244.091 22.7526 244.227 22.3047C244.368 21.8568 244.438 21.3073 244.438 20.6562V16.3516H246.282ZM247.727 28.8438C247.456 28.8438 247.199 28.8229 246.954 28.7812C246.709 28.7448 246.503 28.7005 246.337 28.6484V27.1797C246.514 27.2318 246.686 27.2708 246.852 27.2969C247.019 27.3229 247.209 27.3359 247.423 27.3359C247.761 27.3359 248.04 27.2422 248.258 27.0547C248.482 26.8672 248.594 26.5104 248.594 25.9844V16.3516H250.43V26.1484C250.43 26.6745 250.337 27.1406 250.149 27.5469C249.967 27.9531 249.675 28.2708 249.274 28.5C248.878 28.7292 248.363 28.8438 247.727 28.8438ZM248.485 14.0469C248.485 13.6771 248.584 13.4167 248.782 13.2656C248.985 13.1146 249.232 13.0391 249.524 13.0391C249.805 13.0391 250.048 13.1146 250.251 13.2656C250.459 13.4167 250.563 13.6771 250.563 14.0469C250.563 14.4115 250.459 14.6719 250.251 14.8281C250.048 14.9792 249.805 15.0547 249.524 15.0547C249.232 15.0547 248.985 14.9792 248.782 14.8281C248.584 14.6719 248.485 14.4115 248.485 14.0469ZM256.188 16.1875C256.959 16.1875 257.621 16.3464 258.173 16.6641C258.725 16.9818 259.149 17.4323 259.446 18.0156C259.743 18.599 259.892 19.2969 259.892 20.1094V21.0938H254.118C254.139 21.9323 254.363 22.5781 254.79 23.0312C255.222 23.4844 255.826 23.7109 256.603 23.7109C257.155 23.7109 257.649 23.6589 258.087 23.5547C258.53 23.4453 258.985 23.2865 259.454 23.0781V24.5703C259.022 24.7734 258.582 24.9219 258.134 25.0156C257.686 25.1094 257.149 25.1562 256.524 25.1562C255.675 25.1562 254.928 24.9922 254.282 24.6641C253.642 24.3307 253.139 23.8359 252.774 23.1797C252.415 22.5234 252.235 21.7083 252.235 20.7344C252.235 19.7656 252.399 18.9427 252.728 18.2656C253.056 17.5885 253.517 17.0729 254.11 16.7188C254.704 16.3646 255.397 16.1875 256.188 16.1875ZM256.188 17.5703C255.61 17.5703 255.142 17.7578 254.782 18.1328C254.428 18.5078 254.22 19.0573 254.157 19.7812H258.095C258.089 19.349 258.017 18.9661 257.876 18.6328C257.741 18.2995 257.532 18.0391 257.251 17.8516C256.975 17.6641 256.621 17.5703 256.188 17.5703ZM266.025 16.1875C266.171 16.1875 266.329 16.1953 266.501 16.2109C266.673 16.2266 266.822 16.2474 266.947 16.2734L266.775 17.9922C266.665 17.9609 266.53 17.9375 266.368 17.9219C266.212 17.9062 266.072 17.8984 265.947 17.8984C265.618 17.8984 265.306 17.9531 265.009 18.0625C264.712 18.1667 264.449 18.3281 264.22 18.5469C263.991 18.7604 263.811 19.0286 263.681 19.3516C263.551 19.6745 263.486 20.0495 263.486 20.4766V25H261.642V16.3516H263.079L263.329 17.875H263.415C263.587 17.5677 263.801 17.2865 264.056 17.0312C264.311 16.776 264.603 16.5729 264.931 16.4219C265.264 16.2656 265.629 16.1875 266.025 16.1875Z" fill="#ADADAD"/>
<path d="M232.703 49H223.721V47.1104L226.946 43.8496C227.901 42.8711 228.525 42.1943 228.818 41.8193C229.111 41.4385 229.322 41.0869 229.451 40.7646C229.58 40.4424 229.645 40.1084 229.645 39.7627C229.645 39.2471 229.501 38.8633 229.214 38.6113C228.933 38.3594 228.555 38.2334 228.08 38.2334C227.582 38.2334 227.099 38.3477 226.63 38.5762C226.161 38.8047 225.672 39.1299 225.162 39.5518L223.686 37.8027C224.318 37.2637 224.843 36.8828 225.259 36.6602C225.675 36.4375 226.129 36.2676 226.621 36.1504C227.113 36.0273 227.664 35.9658 228.273 35.9658C229.076 35.9658 229.785 36.1123 230.4 36.4053C231.016 36.6982 231.493 37.1084 231.833 37.6357C232.173 38.1631 232.343 38.7666 232.343 39.4463C232.343 40.0381 232.237 40.5947 232.026 41.1162C231.821 41.6318 231.499 42.1621 231.06 42.707C230.626 43.252 229.858 44.0283 228.757 45.0361L227.104 46.5918V46.7148H232.703V49ZM242.574 41.6348C242.574 44.166 242.04 46.0557 240.974 47.3037C239.908 48.5518 238.293 49.1758 236.131 49.1758C235.369 49.1758 234.792 49.1348 234.4 49.0527V46.873C234.892 46.9961 235.408 47.0576 235.947 47.0576C236.855 47.0576 237.602 46.9258 238.188 46.6621C238.774 46.3926 239.222 45.9736 239.533 45.4053C239.843 44.8311 240.022 44.043 240.069 43.041H239.963C239.623 43.5918 239.231 43.9785 238.786 44.2012C238.34 44.4238 237.784 44.5352 237.116 44.5352C235.996 44.5352 235.115 44.1777 234.47 43.4629C233.826 42.7422 233.503 41.7432 233.503 40.4658C233.503 39.0889 233.893 38.002 234.672 37.2051C235.457 36.4023 236.524 36.001 237.871 36.001C238.821 36.001 239.65 36.2236 240.359 36.6689C241.074 37.1143 241.621 37.7617 242.002 38.6113C242.383 39.4551 242.574 40.4629 242.574 41.6348ZM237.924 38.1807C237.362 38.1807 236.922 38.374 236.606 38.7607C236.289 39.1475 236.131 39.7041 236.131 40.4307C236.131 41.0518 236.275 41.5439 236.562 41.9072C236.849 42.2705 237.286 42.4521 237.871 42.4521C238.422 42.4521 238.894 42.2734 239.286 41.916C239.679 41.5527 239.875 41.1367 239.875 40.668C239.875 39.9707 239.691 39.3818 239.322 38.9014C238.958 38.4209 238.493 38.1807 237.924 38.1807ZM252.479 42.5752C252.479 44.8193 252.11 46.4805 251.372 47.5586C250.639 48.6367 249.509 49.1758 247.979 49.1758C246.497 49.1758 245.378 48.6191 244.622 47.5059C243.872 46.3926 243.497 44.749 243.497 42.5752C243.497 40.3076 243.863 38.6377 244.595 37.5654C245.328 36.4873 246.456 35.9482 247.979 35.9482C249.462 35.9482 250.581 36.5107 251.337 37.6357C252.098 38.7607 252.479 40.4072 252.479 42.5752ZM246.195 42.5752C246.195 44.1514 246.33 45.2822 246.599 45.9678C246.875 46.6475 247.335 46.9873 247.979 46.9873C248.612 46.9873 249.069 46.6416 249.35 45.9502C249.632 45.2588 249.772 44.1338 249.772 42.5752C249.772 40.999 249.629 39.8682 249.342 39.1826C249.06 38.4912 248.606 38.1455 247.979 38.1455C247.341 38.1455 246.884 38.4912 246.608 39.1826C246.333 39.8682 246.195 40.999 246.195 42.5752Z" fill="black"/>
</svg>
