<svg xmlns="http://www.w3.org/2000/svg" viewBox="0 0 1080 1080"><defs><style>.cls-1,.cls-10,.cls-2,.cls-5,.cls-7{fill:none;}.cls-1,.cls-5,.cls-9{stroke:#2e3192;}.cls-1,.cls-2{stroke-linecap:round;stroke-linejoin:round;}.cls-1,.cls-10,.cls-2,.cls-5,.cls-7,.cls-8,.cls-9{stroke-width:20px;}.cls-1{stroke-dasharray:42.26;}.cls-2{stroke:#b60062;}.cls-3{fill:#e8b000;}.cls-4{fill:#2e3192;}.cls-10,.cls-5,.cls-7,.cls-8,.cls-9{stroke-miterlimit:10;}.cls-6{fill:#65adc7;}.cls-7,.cls-8{stroke:#65adc7;}.cls-8,.cls-9{fill:#fff;}.cls-10{stroke:#e8b000;}</style></defs><g id="Layer_2" data-name="Layer 2"><path class="cls-1" d="M781.46,917.8C905.86,838.13,988.31,698.69,988.31,540,988.31,292.4,787.6,91.69,540,91.69S91.69,292.4,91.69,540a446.24,446.24,0,0,0,75.8,249.52"/></g><g id="Layer_3" data-name="Layer 3"><line class="cls-2" x1="951.19" y1="191.45" x2="951.19" y2="250.5"/><line class="cls-2" x1="980.71" y1="220.97" x2="921.66" y2="220.97"/><path class="cls-3" d="M138,841.42a22.46,22.46,0,1,1-22.46,22.46A22.48,22.48,0,0,1,138,841.42m0-18a40.46,40.46,0,1,0,40.46,40.46A40.45,40.45,0,0,0,138,823.42Z"/><path class="cls-4" d="M1017.65,287.64a22.46,22.46,0,1,1-22.47,22.46,22.48,22.48,0,0,1,22.47-22.46m0-18a40.46,40.46,0,1,0,40.46,40.46,40.46,40.46,0,0,0-40.46-40.46Z"/><path class="cls-5" d="M582,692.31H704.34l49.41,65.75c14.39,19.14,44.86,9,44.86-15V692.31H812a52.43,52.43,0,0,0,52.43-52.43V393.67A52.43,52.43,0,0,0,812,341.24H582a52.43,52.43,0,0,0-52.43,52.43V639.88A52.43,52.43,0,0,0,582,692.31Z"/><path class="cls-6" d="M586,812.21c8.54,0,16.84,4.44,23.36,12.5,7.41,9.16,11.66,22.1,11.66,35.5s-4.25,26.35-11.66,35.51c-6.52,8.06-14.82,12.5-23.36,12.5s-16.84-4.44-23.36-12.5c-7.41-9.16-11.67-22.1-11.67-35.51s4.26-26.34,11.67-35.5c6.52-8.06,14.82-12.5,23.36-12.5m0-20c-30.39,0-55,30.44-55,68s24.64,68,55,68,55-30.45,55-68-24.63-68-55-68Z"/><path class="cls-7" d="M504.41,952.09a44,44,0,0,1,43.31-36.23H624.2A44,44,0,0,1,668,956"/><path class="cls-6" d="M292.49,812.21c8.55,0,16.84,4.44,23.36,12.5,7.42,9.16,11.67,22.1,11.67,35.5s-4.25,26.35-11.67,35.51c-6.52,8.06-14.81,12.5-23.36,12.5s-16.83-4.44-23.36-12.5c-7.41-9.16-11.66-22.1-11.66-35.51s4.25-26.34,11.66-35.5c6.53-8.06,14.82-12.5,23.36-12.5m0-20c-30.39,0-55,30.44-55,68s24.63,68,55,68,55-30.45,55-68-24.64-68-55-68Z"/><path class="cls-7" d="M211,952.09a44,44,0,0,1,43.31-36.23h76.47A44,44,0,0,1,374.56,956"/><path class="cls-6" d="M440.05,786.24c8.54,0,16.84,4.44,23.36,12.5,7.41,9.16,11.67,22.1,11.67,35.51s-4.26,26.34-11.67,35.51c-6.52,8.06-14.82,12.5-23.36,12.5s-16.84-4.44-23.36-12.5c-7.41-9.17-11.66-22.11-11.66-35.51s4.25-26.35,11.66-35.51c6.52-8.06,14.82-12.5,23.36-12.5m0-20c-30.39,0-55,30.45-55,68s24.63,68,55,68,55-30.45,55-68-24.64-68-55-68Z"/><path class="cls-8" d="M357.82,956.66V933.88a44,44,0,0,1,44-44h76.48a44,44,0,0,1,44,44v21.55"/><path class="cls-9" d="M654.07,625.42H442.35l-53.24,70.85c-15.51,20.63-48.36,9.67-48.36-16.14V625.42H334.5a64.64,64.64,0,0,1-64.64-64.64V311.68a64.64,64.64,0,0,1,64.64-64.63H654.07a64.64,64.64,0,0,1,64.64,64.63v249.1A64.64,64.64,0,0,1,654.07,625.42Z"/><path class="cls-10" d="M628.37,385.44A12.32,12.32,0,0,1,625,398.79l-23.49,21.38a103.66,103.66,0,0,1,0,27.56L625,469.11a12.32,12.32,0,0,1,3.42,13.35,138.22,138.22,0,0,1-8.52,18.61l-2.55,4.39a142,142,0,0,1-12,17A12.39,12.39,0,0,1,592,526.13l-30.22-9.65a118.92,118.92,0,0,1-23.88,13.83l-6.78,31c-1.09,4.89-4.88,8.36-9.88,9.66a141.44,141.44,0,0,1-23.54,1.9,138.66,138.66,0,0,1-22.58-1.9c-5-1.3-8.78-4.77-9.87-9.66l-6.78-31a106.78,106.78,0,0,1-23.88-13.83l-30.2,9.65a12.38,12.38,0,0,1-13.3-3.69,142,142,0,0,1-12-17l-2.54-4.39A134.79,134.79,0,0,1,368,482.46a12.33,12.33,0,0,1,3.44-13.35l23.47-21.38a105.94,105.94,0,0,1,0-27.56l-23.47-21.38A12.31,12.31,0,0,1,368,385.44a134.89,134.89,0,0,1,8.56-18.61l2.53-4.4a141.23,141.23,0,0,1,12-16.95,12.33,12.33,0,0,1,13.3-3.7l30.2,9.64a104.12,104.12,0,0,1,23.88-13.82l6.78-31a12.31,12.31,0,0,1,9.87-9.67,140.16,140.16,0,0,1,46.12,0,12.31,12.31,0,0,1,9.88,9.67l6.78,31a115.62,115.62,0,0,1,23.88,13.82L592,341.78a12.34,12.34,0,0,1,13.29,3.7,140,140,0,0,1,12,16.95l2.55,4.4A137.09,137.09,0,0,1,628.37,385.44ZM498.2,477.35a43.65,43.65,0,0,0,0-87.3c-24,0-43.4,19.92-43.4,43.41A43.49,43.49,0,0,0,498.2,477.35Z"/></g></svg>