<svg xmlns="http://www.w3.org/2000/svg" viewBox="0 0 1080 1080"><defs><style>.cls-1,.cls-2,.cls-3,.cls-6,.cls-7,.cls-8,.cls-9{fill:none;}.cls-1,.cls-2,.cls-6,.cls-7,.cls-9{stroke:#2e3192;}.cls-1,.cls-2,.cls-3,.cls-7,.cls-8,.cls-9{stroke-linecap:round;stroke-linejoin:round;}.cls-1,.cls-2,.cls-3{stroke-width:20px;}.cls-1{stroke-dasharray:42.18 42.18;}.cls-3{stroke:#b60062;}.cls-4{fill:#e8b000;}.cls-5{fill:#2e3192;}.cls-6{stroke-miterlimit:10;}.cls-6,.cls-9{stroke-width:18px;}.cls-7,.cls-8{stroke-width:17.9px;}.cls-8{stroke:#e8b000;}</style></defs><g id="Layer_3" data-name="Layer 3"><circle class="cls-1" cx="540" cy="540" r="456.52"/><line class="cls-2" x1="831.88" y1="42.49" x2="831.88" y2="127.79"/><line class="cls-2" x1="874.53" y1="85.14" x2="789.23" y2="85.14"/><line class="cls-3" x1="141.45" y1="143.74" x2="141.45" y2="202.8"/><line class="cls-3" x1="170.98" y1="173.27" x2="111.93" y2="173.27"/><line class="cls-3" x1="992.77" y1="788.15" x2="992.77" y2="838.83"/><line class="cls-3" x1="1018.11" y1="813.49" x2="967.43" y2="813.49"/><line class="cls-2" x1="197.46" y1="629.96" x2="197.46" y2="715.26"/><line class="cls-2" x1="240.11" y1="672.61" x2="154.81" y2="672.61"/><path class="cls-4" d="M942.33,171.58A22.47,22.47,0,1,1,919.87,194a22.49,22.49,0,0,1,22.46-22.46m0-18A40.47,40.47,0,1,0,982.8,194a40.47,40.47,0,0,0-40.47-40.46Z"/><path class="cls-4" d="M105.69,821.14a17.58,17.58,0,1,1-17.58,17.58,17.6,17.6,0,0,1,17.58-17.58m0-18a35.58,35.58,0,1,0,35.58,35.58,35.58,35.58,0,0,0-35.58-35.58Z"/><path class="cls-5" d="M622.85,225.69,778.46,381.3V814.8A39.55,39.55,0,0,1,739,854.31H341.05a39.55,39.55,0,0,1-39.51-39.51V265.2a39.55,39.55,0,0,1,39.51-39.51h281.8m7.46-18H341.05a57.51,57.51,0,0,0-57.51,57.51V814.8a57.51,57.51,0,0,0,57.51,57.51H739a57.51,57.51,0,0,0,57.51-57.51v-441L630.31,207.69Z"/><circle class="cls-6" cx="469.95" cy="418" r="80.46"/><circle class="cls-5" cx="469.95" cy="418" r="49.14"/><line class="cls-7" x1="382.04" y1="575.95" x2="696.87" y2="575.95"/><line class="cls-7" x1="382.04" y1="622.59" x2="615.25" y2="622.59"/><path class="cls-8" d="M513.22,714.9S535.57,747,541.4,765.43c0,0,19.43-71.9,52.47-69,0,0,11.66,46.64,45.67,39.84s58.3-27.21,58.3-27.21"/><path class="cls-9" d="M598.24,258.7v92.45a50.39,50.39,0,0,0,50.39,50.39H749.82"/></g></svg>