<svg xmlns="http://www.w3.org/2000/svg" viewBox="0 0 196.85 253.8"><defs><style>.cls-1,.cls-2{fill:#5a6bb6;}.cls-1{opacity:0.1;}</style></defs><g id="Layer_2" data-name="Layer 2"><g id="panamaOeste"><path class="cls-1" d="M25.21,235.18l-.8-21.58-2.52-15.18-.83-20.86L3.38,116.75l-.28-.84-.61-.55c-.05,0-6.49-6.77,8-27l.49-.67L11.74,76l.81,1L22,69.06l14,5.43h.54c.41,0,10.06-.1,28.82-8.63,5.44-2.47,8.62-6.08,9.47-10.73C76.3,47,69.91,38.58,66.66,34.9l12-33.83,6.73.61,23.49,5.48,7.55,16.77,1.45.3a136,136,0,0,0,25.87,2.21c4.2,0,8.44-.16,12.6-.48a20.21,20.21,0,0,0,11.12-3.85l.3.15,12.39,9.91.72.82,1-.1c.61.41,3.51,3.09,3.51,17.13,0,5.51,1.36,12.23,4,20l-.87,6.73,1.95,8.8,4.5,7.41H168.84l-7.16,6.85-16.25-2,1.9,4.94-18,13.67,2.84,36.22-8.17,10-11.91,10.34-6.12,7.15,3,6.12.57,0c.49,0,12.22,1,15.58,1a3.77,3.77,0,0,0,1.13-.1c.63-.21,9-3.71,15-6.25l-14.84,12.49-3.3,5.68-28.71,3.79-2.55,9.26c-.91.35-2.91,1.12-3.81,1.34-1.3.33-6.48,2.62-7.06,2.88l-.24.11L75,224.15l-5.59,8.68L43.81,250.92,41,252.53Z"/><path class="cls-2" d="M79.38,2.13l5.89.54L108.21,8l7.14,15.85.41.93,1,.21.95.2a137.4,137.4,0,0,0,26.08,2.23c4.23,0,8.5-.16,12.68-.48a21.75,21.75,0,0,0,11.08-3.63l12,9.57.31.36.68.78,1-.11h.08c.71.77,2.84,4.12,2.84,16.09,0,5.57,1.35,12.32,4,20.08l-.82,6.33-.05.35.08.34,1.88,8.47.07.32.17.28,3.49,5.75H168.44l-.58.55-6.53,6.25L147.22,97l-3.32-.41,1.2,3.12,1,2.67-17,12.9-.87.66.09,1.09,2.76,35.27-7.86,9.6-11.79,10.24-.11.1-.09.11-5.65,6.59-.87,1,.6,1.18,2.51,5,.5,1,1.12.09c.5,0,12.27,1,15.67,1a4.52,4.52,0,0,0,1.44-.15c.46-.16,4.52-1.85,9-3.73l-9.67,8.14-.27.23-.18.3-3,5.11-27.58,3.63-1.31.18-.35,1.27L91,211.34c-1.06.41-2.53.95-3.21,1.12-1.36.34-6.26,2.51-7.23,2.94l-.47.21-.32.42-5.64,7.52,0,.06,0,.06-5.43,8.46L43.3,250.05l-2.08,1.21-15-16.48-.78-21.15v-.13l0-.12-2.49-15.06-.83-20.67v-.25l-.07-.23L4.34,116.48v-.09l-.19-.55-.17-.5L3.57,115l-.36-.32c-.31-.36-5.4-6.89,8.08-25.77l.32-.44.33-.46,0-.57.62-9.21L14,77.09l8.26-6.89,13.24,5.15.35.14h.73c.41,0,10.27-.1,29.23-8.72,5.76-2.62,9.14-6.47,10-11.47,1.49-8.2-4.56-16.61-8-20.61L79.38,2.13M78,0,65.52,35.13c2.55,2.81,9.81,11.65,8.32,19.82-.78,4.31-3.77,7.67-8.89,10-18.57,8.44-28,8.54-28.41,8.54h-.36L21.85,67.91l-9.17,7.64L10.9,73.42l0,.78L10,87.29l-.32.45C-5.57,109.08,1.75,116,1.82,116.11l.41.37.19.55,17.64,60.7.84,20.79,2.51,15.18.81,21.89L40.83,253.8l3.56-2.07,25.72-18.19,5.65-8.79,5.64-7.52s5.65-2.51,6.9-2.83,4.4-1.57,4.4-1.57l2.51-9.09L123.75,200l3.45-6L147,177.39s-20.08,8.47-21,8.78a4.13,4.13,0,0,1-.81.05c-3.36,0-15.5-1-15.5-1l-2.51-5,5.64-6.59,11.92-10.35,8.47-10.35-2.82-36.08,18.2-13.8L147,99,162,100.84l7.21-6.9h27.61l-5.34-8.78-1.88-8.47.89-6.79c-2.4-6.88-4.07-13.83-4.07-19.88,0-17.12-4.29-18.15-4.34-18.15l-.78.07-.43-.49-12.55-10-1-.49c-2.7,2.33-6.41,3.68-11.06,4-4.45.35-8.66.48-12.53.48a134.42,134.42,0,0,1-25.66-2.19l-1-.2L109.63,6.3,85.59.69,78,0Z"/></g></g></svg>