<svg xmlns="http://www.w3.org/2000/svg" viewBox="0 0 248.42 308.16"><defs><style>.cls-1,.cls-2{fill:#5a6bb6;}.cls-1{opacity:0.1;}</style></defs><g id="Layer_2" data-name="Layer 2"><g id="cocle"><path class="cls-1" d="M96.14,300.63l-7.92,4.75L76.85,294l-16.06,5.35-21.15-3.91-6.56-5.11-4.83-7.58,14.22-41L36,231.56l-20-45.93L1.77,168.52l12.53-3.3,11.77-17.66,13.24-4.41,3.61-19.87c2-5.62,4.16-12.82,3.36-15.66,0-1.16,2-6.76,5-13.33l5.47-.6A46.2,46.2,0,0,0,64,94.2a65.07,65.07,0,0,0,22.32-4.07A13.83,13.83,0,0,0,95,81.74c3.15-8.67-2.08-20.13-4.07-24L95.6,41l56.48,19.64,23.66-22.78,20.85-13,5-22.35c1.17,2.12,2.7,6.12,3.69,13.39,1.14,8.34,3.81,13.72,7.95,16a9.3,9.3,0,0,0,3.51,1.1l-.55,8.25C201.39,62.34,206.68,72,209,74.66l17.27,59.21.83,20.62,2.51,15.17.87,23.47,16.41,18-44.89,26-19.15,6.18c-1.53-.14-10.72-.93-13.38-.93a24.34,24.34,0,0,1-2.83-.22,20.71,20.71,0,0,0-2.35-.2,3.72,3.72,0,0,0-2.32.62c-.61.46-3.37.9-5.62,1.05-4.17-.7-9-1.75-9.73-2.25a19.77,19.77,0,0,1-1.91-4.86l-.18-.63-8.37-1.19v9.5L107,271.81l-1.28,34.61Z"/><path class="cls-2" d="M202,5.57A49.78,49.78,0,0,1,204.34,16c1.18,8.67,4,14.3,8.46,16.75a10.18,10.18,0,0,0,2.93,1.07l-.47,7.06c-6.45,9.24-9.85,17.36-10.09,24.15-.2,5.35,1.6,8.55,2.89,10.14L225.24,134l.82,20.44v.12l0,.12,2.49,15,.86,23,0,.73.49.55,15.32,16.8-43.72,25.35-18.86,6.08c-2-.17-10.66-.91-13.26-.91a22.66,22.66,0,0,1-2.71-.22,22.15,22.15,0,0,0-2.47-.2,4.78,4.78,0,0,0-2.89.8,18.29,18.29,0,0,1-5,.86,66.79,66.79,0,0,1-9.1-2,24.78,24.78,0,0,1-1.63-4.37l-.35-1.24-1.29-.19-6.58-.94-2.29-.33v10.23l-28.55,27-.59.56,0,.82-1.2,32.5-7.57-4.6-1-.63-1,.62-6.74,4.05L78,293.74l-.87-.87-1.18.39-15.22,5.07-20.65-3.82-6.24-4.85-4.47-7,13.9-40.08.32-.91-.52-.82-6.19-9.73-20-45.73-.11-.26-.18-.21L3.54,169.08l10.64-2.8.74-.19.42-.63L26.71,148.4l12.35-4.11,1.12-.38.22-1.16,3.49-19.22c2.85-8,4-13.41,3.4-16,.13-1.2,1.78-6,4.63-12.32l4.77-.53A46.35,46.35,0,0,0,64,95.2a66,66,0,0,0,22.66-4.13,14.77,14.77,0,0,0,9.3-9c3.2-8.79-1.78-20.17-3.94-24.43l4.31-15.38,54.89,19.09,1.16.41.88-.85,23.15-22.29,20.41-12.76.71-.44.18-.81,4.3-19M201.17,0l-5.46,24.18L175.12,37.05,151.83,59.48,94.92,39.68,89.83,57.87c1.61,3.05,7.35,14.88,4.2,23.53a12.86,12.86,0,0,1-8.11,7.79,63.88,63.88,0,0,1-22,4,44.19,44.19,0,0,1-7.2-.52l-6.18.68c-2.76,6-5.45,13-5.28,14.44.9,2.69-2,11.42-3.34,15.22l-3.52,19.37-13,4.33L13.67,164.35,0,168l15.08,18.21L35.1,232l6.27,9.86-14.22,41L32.33,291l6.89,5.37,21.64,4,15.71-5.24,11.49,11.49,8.08-4.84,10.48,6.36,1.33-35.9,29.17-27.61v-8.78l6.59.94s1.25,4.39,2.2,5.33,10.35,2.51,10.35,2.51,5-.31,6.27-1.25a2.87,2.87,0,0,1,1.72-.42c1.42,0,3.3.42,5.18.42,2.83,0,13.49.94,13.49.94l19.45-6.27,46-26.7-17-18.64-.86-23.17-2.52-15.17-.82-20.68L209.86,74.17c-1.9-2.12-7.74-11.26,7.36-32.63l.63-9.55h0a8.35,8.35,0,0,1-4.06-1c-3.84-2.12-6.35-7.26-7.44-15.27C205,6.22,202.78,1.8,201.17,0Z"/></g></g></svg>