<svg xmlns="http://www.w3.org/2000/svg" viewBox="0 0 493.77 294.25"><defs><style>.cls-1,.cls-2{fill:#5a6bb6;}.cls-1{opacity:0.1;}</style></defs><g id="Layer_2" data-name="Layer 2"><g id="chiriqui"><path class="cls-1" d="M447.91,293.25l-8.41-14,8.15-1.88-22-36.94-4.24-7.07-7.59,3.8-.73,6.62,4,4.58-6.19,5.16C393.7,243,366.46,235.11,358.72,233c2.83-2.06,7.83-6.23,8.14-10.18a4.63,4.63,0,0,0-1.67-4,5.19,5.19,0,0,0-3.56-1.28c-5.93,0-14.49,8-17.12,10.58a22.87,22.87,0,0,0-3.9-3.74c-2.07-1.39-6.35-1.43-6.83-1.43h-.11l-.11,0a54.7,54.7,0,0,1-9.19,1.23c-2.93,0-5.1-1.78-7.61-3.84-.38-.32-.78-.64-1.18-1-2.43-1.95-6.05-2.49-8.69-2.88a15.6,15.6,0,0,1-2.28-.43,3.61,3.61,0,0,0-1.12-.15c-2.67,0-8.09,2-8.32,2.05l-1,.35,2.79,7-.42,3.36L291.19,226l-13.72,4.77c-.42-2.28-1.4-7-2.46-8.64s-1.74-14.27-1.1-18.75a15.76,15.76,0,0,1,1-4.52l.23-.23v-6.78l5.64-3.76v-7.52l-12.16,3.58-6.69,6-.69,3.46c-.21,1-.51,1.24-1.61,1.24a25.8,25.8,0,0,1-3.09-.33c-.92-.13-1.95-.27-3.12-.4l-2-3.52,3.64-8.74-1.78.3s-3.86.64-11.91,1.88l-8.48,1.21-9.4-4.34.68,11.69-7.43,4-8.33,1.19-3.86-1.72,4.87-3.78-.19-.65c-.06-.21-1.51-5.12-5.35-5.12-1.74,0-4.56-4.08-6-7l-.8-1.6-4.16,6.67-1.26,5L187.07,197l3,5.91a25.7,25.7,0,0,1-11.17,2.27c-6.72,0-14-2-21.55-5.88-17.89-9.19-40.77-10.19-49.78-10.19-1.78,0-2.79.05-2.79.05-1.91.24-44.77,6.06-51.75,34-6.26,25,6.93,47.74,9.69,52.12l-3.92,3.36-2.95,7.67L52,285.85l3.63-20-17-32.09a140.09,140.09,0,0,0-1.89-20C36,209.32,33.17,207,28.54,207a26.33,26.33,0,0,0-10,2.55,89.68,89.68,0,0,1-5.07-9.06c-.65-1.95-6.38-3.09-11.37-3.72l-1-6.49a53.51,53.51,0,0,0,23.42-13.86C35.5,165.43,55.84,161,56.05,161l.1,0,.09,0c.43-.19,10.59-5,16.89-37.75,6.11-31.74-24.25-59.64-26.54-61.68-.45-.82-2.86-5.53-1.34-9.81,1-2.73,3.39-4.81,7.17-6.18,4.25-1.55,6.83-3.91,7.66-7,1.12-4.22-1.35-8.54-2.69-10.47L99.77,9l5.75-7.48,11,10.4,8.57-4.62,33.67-.61L165,17.86l18.57,2.56,69.06,28.26,34.21,1.24c6.77,9.61,1.46,48.05,1.4,48.44-1.69,7.32-1.49,12.41.61,15a4.62,4.62,0,0,0,1.5,1.27c-2.77,2.87-8.88,11-12.76,29.42-.87,4.11-.4,7.3,1.37,9.49s5,3.38,9.38,3.38c10.28,0,24.61-6.07,28.14-7.64,2.34,3.56,12.81,19.82,14.43,29,2,11.16,18.23,15.66,18.92,15.85l.15,0L388.67,193c.86.72,4.11,3.78,8.21,12,5.2,10.41,26.84,13,27.76,13.1l.53.06,11.42-13.23,3.92,5.59,6.87.69.14,0c.45-.08,11.3-2.2,19-21.32,4.55-11.39,13.31-13.78,19.85-13.78a24.86,24.86,0,0,1,4.6.42l1.83,39L462.7,253.06l-3.15,22.72-7.84,17.47Z"/><path class="cls-2" d="M105.64,3l9.68,9.15,1.05,1,1.28-.68,7.73-4.17,32.82-.59,5.69,10.24.48.87,1,.14,17.95,2.48,68.78,28.13.33.14h.35l33.52,1.22c5,8.23,2.47,36.57,1,47.24-1.76,7.67-1.49,13,.79,15.89a7,7,0,0,0,.79.83c-3.13,3.6-8.66,12-12.24,29-.93,4.42-.4,7.9,1.58,10.33s5.43,3.75,10.15,3.75c9.82,0,23.2-5.41,27.77-7.39,3,4.6,12.31,19.43,13.82,27.95,2.08,11.78,18.93,16.45,19.64,16.64l.29.08h.3L388.3,194c1.08,1,4,4.09,7.69,11.42,5.44,10.88,27.6,13.53,28.54,13.64l1.05.12.69-.8,10.24-11.86,2.92,4.17.53.75.91.09,6.27.63.28,0,.27,0c.48-.08,11.85-2.3,19.7-21.93,4.35-10.87,12.7-13.15,18.93-13.15a23.82,23.82,0,0,1,3.64.27l1.78,37.83-29.65,37.05-.34.43-.08.55-3.09,22.3-7.51,16.75h-2.6l-7.41-12.35,5.48-1.26,2.67-.62-1.41-2.36L426.47,239.9l-3.76-6.28-1-1.59-1.65.83L413.82,236l-1,.49-.12,1.08-.63,5.64-.1.88.58.66,3.05,3.48-4.86,4c-16.25-9.77-40.3-17.05-49.84-19.72,2.93-2.37,6.64-6,6.93-9.66a5.63,5.63,0,0,0-2-4.79,6.12,6.12,0,0,0-4.22-1.53c-5.85,0-13.69,6.87-17.07,10.12a20.78,20.78,0,0,0-3.4-3.11c-2.27-1.52-6.54-1.6-7.38-1.6h-.22l-.21.05a53.78,53.78,0,0,1-9,1.21c-2.57,0-4.51-1.6-7-3.61l-1.19-1c-2.64-2.12-6.42-2.68-9.17-3.09a21.15,21.15,0,0,1-2.12-.38,4.33,4.33,0,0,0-1.42-.21c-2.81,0-8.08,1.89-8.67,2.11l-1.94.7.76,1.92L296,225.5l-.21,1.71L292,225.33l-.75-.37-.8.27-12.22,4.25c-.52-2.61-1.38-6.29-2.38-7.83-.82-1.69-1.6-13.62-1-18.09a18.83,18.83,0,0,1,.88-4.07l.4-.4v-6.66l4.75-3.17.89-.59v-9.39l-2.56.75-10.67,3.14-.43.12-.34.31-6.27,5.65-.5.44-.13.65-.62,3.14a2.74,2.74,0,0,1-.12.39,3,3,0,0,1-.51,0,24.25,24.25,0,0,1-2.95-.32c-.79-.11-1.67-.23-2.64-.34l-1.52-2.66,2.76-6.62,1.39-3.33-3.57.59s-3.85.64-11.87,1.88l-8.2,1.17-7.62-3.52-3-1.4.2,3.33.55,9.4-6.72,3.61-7.86,1.13-2.07-.92,3-2.34,1.06-.83-.37-1.3c-.62-2.17-2.65-5.85-6.31-5.85-.87,0-3.35-2.89-5.12-6.42L197.2,176l-1.89,3-3.14,5-.16.26-.08.31-1.18,4.7-4.22,6.63-.6,1,.5,1,2.24,4.47a25.89,25.89,0,0,1-9.81,1.76c-6.56,0-13.66-1.94-21.09-5.77-18.08-9.29-41.16-10.3-50.24-10.3-1.78,0-2.79,0-2.84.05h-.17a102.22,102.22,0,0,0-23.32,6.41C65.09,201.14,55,210.94,52,222.87c-4.09,16.36-.19,31.48,3.95,41.49L39.64,233.52a139.58,139.58,0,0,0-1.91-19.9c-.82-4.94-4.08-7.66-9.19-7.66A26.11,26.11,0,0,0,19,208.25a85.11,85.11,0,0,1-4.52-8.11c-.3-.89-1-2.9-11.45-4.3L2.25,191a55.27,55.27,0,0,0,23-13.88C36,166.36,56.05,162,56.25,162l.2,0,.19-.08c1.13-.49,11.18-5.76,17.48-38.47C76.78,109.49,72.94,94.22,63,79.2A100.47,100.47,0,0,0,47.38,60.84c-.54-1-2.5-5.16-1.18-8.84.87-2.43,3.08-4.31,6.56-5.57,4.58-1.67,7.37-4.26,8.29-7.7,1.05-3.95-.75-7.93-2.19-10.29L100,10l.46-.21.31-.39L105.64,3m-49,263a75.45,75.45,0,0,0,4.74,9.12l-3.07,2.63-.38.33-.18.47-2.59,6.71-2-.22,3.38-18.59.08-.45M105.4,0,99.13,8.16,55.84,27.61s10,11.92-3.77,16.94S45.8,62.11,45.8,62.11,78.43,90.35,72.15,123s-16.31,37-16.31,37-20.71,4.39-32,15.68A51.68,51.68,0,0,1,0,189.48l1.25,8.15s10.67,1.26,11.3,3.14,5.64,10,5.64,10S23.67,208,28.54,208c3.37,0,6.45,1.37,7.22,6A135.79,135.79,0,0,1,37.64,234l16.94,32-3.76,20.71,5.65.62,3.13-8.15,4.4-3.77S47.06,251,54,223.36s50.82-33.26,50.82-33.26,1,0,2.75,0c7.93,0,31.36.84,49.32,10.08,9,4.62,16.39,6,22,6,8.12,0,12.5-2.85,12.5-2.85L188.22,197l4.39-6.91,1.26-5,3.14-5s3.76,7.52,6.9,7.52,4.39,4.4,4.39,4.4l-5.65,4.39,5.65,2.51,8.78-1.26,8.16-4.39-.63-10.66,8.16,3.76,8.78-1.25c8.16-1.26,11.92-1.89,11.92-1.89l-3.13,7.53,2.51,4.39c3.13.32,5.33.79,6.82.79a2.22,2.22,0,0,0,2.59-2l.62-3.14,6.28-5.64L279.82,182v5.64l-5.64,3.77v6.9s-.63.63-1.26,5,0,17.57,1.26,19.45,2.51,9.41,2.51,9.41l14.43-5,6.27,3.14.63-5L295.51,219s5.45-2,8-2a2.57,2.57,0,0,1,.79.1c1.88.63,7.53.63,10.67,3.14s5.65,5,9.41,5a55.1,55.1,0,0,0,9.41-1.26s4.39,0,6.27,1.26a26.66,26.66,0,0,1,4.4,4.39s10.6-11.06,17.18-11.06a4.21,4.21,0,0,1,2.89,1c5.65,5-8.15,13.81-8.15,13.81s34.5,8.78,54.58,21.33l7.53-6.28-4.39-5,.63-5.64,6.27-3.14,3.76,6.27,21.34,35.77-8.16,1.88,9.41,15.68h5l8.16-18.19,3.13-22.59,30.12-37.64-1.88-40.16a24.09,24.09,0,0,0-5.57-.6c-6.16,0-15.87,2.13-20.78,14.41-7.53,18.82-18.2,20.7-18.2,20.7l-6.27-.63-4.39-6.27-11.93,13.8s-21.95-2.51-27-12.55S389,192,389,192l-38.9,1.25s-16.31-4.39-18.19-15.06-15.06-30.11-15.06-30.11-17,7.9-28.5,7.9c-6.81,0-11.64-2.78-9.77-11.67,5-23.84,13.8-30.11,13.8-30.11h-.1c-.83,0-6.53-.54-3-15.69,0,0,5.65-40.15-1.88-49.56l-34.5-1.26-69-28.23-18.19-2.51L159.36,5.65l-34.51.62-8.15,4.4L105.4,0Z"/><polygon class="cls-1" points="204.75 218.03 215.82 214.16 223.18 204.35 232.75 205.66 228.29 207.51 223.09 217.17 231.21 218.79 224.81 222.45 215.36 225.99 204.75 218.03"/><path class="cls-2" d="M223.62,205.42l5.34.73-.73.3-.65.28-.34.62-4.39,8.16-1.28,2.38,2.65.53,4.17.83-4,2.29-8.87,3.32-8.67-6.5,9-3.15.58-.2.36-.49,6.82-9.1m-.89-2.14-7.53,10-12.55,4.39,12.55,9.41,10-3.76,8.78-5-9.41-1.88L229,208.3l7.53-3.14-13.8-1.88Z"/><path class="cls-1" d="M251.33,230.51H251a67.47,67.47,0,0,1-10.29-1.09V225a65.92,65.92,0,0,0,8.57-.63,13.68,13.68,0,0,1,2.07-.16,17.56,17.56,0,0,1,4.86.72l4.56,3-5.46,6Z"/><path class="cls-2" d="M251.31,225.18a17.41,17.41,0,0,1,4.44.63l3.45,2.31-4,4.38L252.26,230l-.56-.48H251a64.57,64.57,0,0,1-9.29-.94V226a60.31,60.31,0,0,0,7.74-.62,11.44,11.44,0,0,1,1.9-.15m0-2a13.14,13.14,0,0,0-2.23.18,72.63,72.63,0,0,1-9.41.62v6.28A70.17,70.17,0,0,0,251,231.51l4.39,3.77,6.91-7.53L256.61,224a18.76,18.76,0,0,0-5.3-.8Z"/><polygon class="cls-1" points="227.06 262.26 234.41 258 233.25 263.03 227.06 262.26"/><path class="cls-2" d="M232.92,260l-.44,1.91-2.35-.29,2.79-1.62m3-4L224,262.88l10,1.26,1.89-8.16Z"/></g></g></svg>