<svg xmlns="http://www.w3.org/2000/svg" viewBox="0 0 230.69 243.47"><defs><style>.cls-1,.cls-2{fill:#5a6bb6;}.cls-1{opacity:0.1;}</style></defs><g id="Layer_2" data-name="Layer 2"><g id="losSantos"><path class="cls-1" d="M39.19,242.35c-.63-9-3.34-15.51-8.06-19.42a18,18,0,0,0-11.59-4l-1.15,0,1.35-11.49-.59-.89s-3.46-5.3-13.21-24.79c-7.67-15.34-4.51-26.71-3.05-30.45,12.78-3.85,27.06-32.52,31.56-42.21,3-.28,8.21-2,16.62-8.16a12.87,12.87,0,0,0,5.52-9.55c.79-9-7.2-19-10.12-22.31l.69-12.35L60.8,48,71.3,27l28.84-2.47,11.39-13.29,1.24-10c2.77.75,10.77,4,12,17.41,1.55,16.77,10.83,21.94,11.79,22.42,35,23.11,66.57,59.28,89,101.87,7.86,14.9,2.33,25.25,1,27.4l-17,.31-17,10.39-23.44,3.08c-3.77-1-8.11-2.47-8.87-3.16-.42-1.07-2.2-1.67-6.5-2.89a25,25,0,0,1-3.86-1.26,2.42,2.42,0,0,0-1.48-.39c-2.38,0-7.24,1.76-8.16,2.1l-8.46,1.35-1,6.21-15.26,8.72-5.13,13,4.18,2.78,2.49,6.22-9.78.29-4.56,7.5L93,231.2l-3.23,8.22-4.62-1.36L61.4,239.64Z"/><path class="cls-2" d="M113.61,2.55c3.13,1.22,9.14,5,10.18,16.17,1.56,17,10.94,22.48,12.27,23.19,21.95,14.52,42.18,33.68,60.13,57a310.88,310.88,0,0,1,28.52,44.5c7.15,13.56,2.86,23.18,1.28,25.94l-16.18.3h-.54l-.46.28L192.23,180l-23,3a47.53,47.53,0,0,1-8.15-2.81c-.75-1.35-2.87-2-7-3.18a32.92,32.92,0,0,1-3.58-1.13,3.35,3.35,0,0,0-2-.56c-2.47,0-7.27,1.71-8.41,2.13l-7.65,1.22-1.43.23-.23,1.43-.79,5-14.54,8.3-.61.35-.25.66-4.71,11.92-.59,1.5,1.34.89,3.25,2.17,1.84,4.61-7.8.23-1.09,0-.56.93L102,223.85l-9.36,6.34-.52.35-.22.58-2.78,7.08-3.58-1-.34-.1-.36,0-23.53,1.57h-.11l-21.11,2.58c-.79-8.73-3.59-15.14-8.35-19.07A18.88,18.88,0,0,0,19.54,218h0l1.17-10,.09-.72-.41-.61-.38-.59c0-.05-3.49-5.37-13.15-24.68-7.21-14.43-4.65-25.2-3.18-29.21,5.76-2,12.32-8.74,19.53-20.09a207.46,207.46,0,0,0,11.93-22c3.22-.45,8.47-2.37,16.54-8.28a13.82,13.82,0,0,0,5.92-10.27c.81-9.16-6.9-19.08-10.09-22.76l.64-11.43,13-8.4.46-.3.25-.49L71.94,27.9l27.87-2.39.82-.07.53-.62,10.93-12.75.39-.45.08-.6,1-8.47M111.92,0l-1.35,10.77L99.64,23.52,70.65,26,60,47.26l-13.84,9-.74,13.27c2.36,2.63,10.93,12.85,10.14,21.87a11.87,11.87,0,0,1-5.11,8.83c-9,6.62-14.15,7.93-16.68,8-3.51,7.6-18.73,39.09-31.65,42.34-1.34,3.17-5.33,15.26,2.9,31.73,9.81,19.62,13.23,24.84,13.27,24.89l.39.59-1.45,12.33a22,22,0,0,1,2.28-.12,16.94,16.94,0,0,1,11,3.75c4.71,3.9,7.3,10.53,7.77,19.77l23.21-2.84L85,239.06l5.33,1.57,3.45-8.78,9.72-6.59,4.4-7.21,10.66-.32-3.14-7.84-3.76-2.51,4.71-11.92,15.37-8.78.94-6,7.84-1.26s5.53-2.07,7.9-2.07a1.46,1.46,0,0,1,.88.19c1.26.94,9.73,2.51,10,3.76s9.73,3.77,9.73,3.77L192.91,182l16.94-10.35,17.25-.32s8.47-11.6-.62-28.86S188.83,74.37,137.07,40.18c0,0-9.72-4.71-11.29-21.65S112,0,112,0l0,0Z"/></g></g></svg>