<svg viewBox="0 0 622.52 332.4" xmlns="http://www.w3.org/2000/svg"><g fill="#5a6bb6"><path d="m50.68 319.43-.77-1.27c-.21-.35-5.21-8.68-8.8-12.28-.27-.27-.31-.66 1.45-3.87a31.06 31.06 0 0 0 3.52-8.48c.84-3.79.54-6.84-.91-9.06a6.69 6.69 0 0 0 -3-2.54l-11.93-9.37-.75-.12c-.1 0-10.31-1.83-21.89-12.64-3-2.77-5.1-7.28-6.34-13.4 1.81.2 3.54.41 4.52.53a5.18 5.18 0 0 0 .7 0c3 0 9.2-1.87 9.46-1.95l.29-.09.19-.24s6.9-8.47 18.51-22.58c7.08-8.62 20.47-17 31.22-23.67 6.67-4.15 12.43-7.74 15.14-10.45 6.51-6.51 53.67-23.27 56.29-24.2l47.57-5c.36 0 8.78-1 12.41-3.64 1.25-.91 2.47-1.91 3.54-2.79 1.34-1.1 3.18-2.6 3.73-2.67 1.24 0 3.8-.36 28.41-5.35 22.45-4.55 36.55-28.14 38.18-31 1.32-.75 7.39-4.32 9.74-7s7.12-14.07 7.91-16l5.9-4.24-1.17 19.37.74.24c.28.09 7 2.23 10.24 2.55a7.63 7.63 0 0 0 .82 0 13.36 13.36 0 0 0 6.07-1.74l.18-.11.12-.17c.18-.25 1.75-2.51 1.75-4.35v-8l4.84 6.29 5.6-.8 1.56-5.08-.2-.37c-1.71-3.19-4.27-8.62-4.27-10.51 0-.31 0-1.25 2.16-1.25a5.7 5.7 0 0 1 .77 0l1.61.24-.51-1.55a29.59 29.59 0 0 1 -1.19-4.82 37.1 37.1 0 0 1 5.27 1.15h.13 4.05l15.79 20.36-.5-8.56c-.12-1.92-.15-3-.17-3.85a33.63 33.63 0 0 0 -.47-5c-.58-4.11-.34-4.91.55-7.9l.05-.14a8.44 8.44 0 0 1 5-5.63c15.42-5.78 16.23-7.41 16.54-8a18.71 18.71 0 0 1 2.77-3.09 29.73 29.73 0 0 0 5.06-6c.65-1.2 1.5-1.29 2.72-1.29h.38c1 0 2.8 0 3.27-2.11.56-2.52.19-11.91.06-14.8 1.94-.45 6.85-1.59 9.58-2.34 3.46-.94 3.85-4.47 4-6.17a7.88 7.88 0 0 1 .11-.82 1.34 1.34 0 0 0 -.23-1.16c-.65-.87-2.24-1-5.45-1.17-.67 0-1.31 0-1.81-.09a19.48 19.48 0 0 1 1.7-2.09 14.75 14.75 0 0 0 .95-1.14 44 44 0 0 0 3.27-8.47c.07-.26.09-.32.6-.32a20.43 20.43 0 0 1 3.22.52 78.22 78.22 0 0 0 9.55 1.5c2.58.23 4.34.38 5.39.38a2.59 2.59 0 0 0 2.05-.6 1.91 1.91 0 0 0 .32-1.63 3.62 3.62 0 0 1 .43-2.44 8.25 8.25 0 0 1 4.37-4.12l6.72 3.08c.19 1 .62 3.27.86 4.26.15.57-.64 2.57-2.37 5.16-1.49 2.24 1.62 4.47 3.47 5.8a10.8 10.8 0 0 1 1.05.8 2.48 2.48 0 0 0 1.8.74 3.39 3.39 0 0 0 2.83-1.6 18.24 18.24 0 0 1 5 2l.19.11h.2c.31 0 7.46.69 10.77.69a8.22 8.22 0 0 0 1.41-.08c1.63-.27 2.24-2.41 2.9-4.69a9.86 9.86 0 0 1 1.11-2.91 3.81 3.81 0 0 1 1.24-.13 29 29 0 0 1 4.43.51c14.82 2.89 37.58 7.59 39.55 8.68s6.53 2.65 11.93 4.53c3.16 1.09 6.43 2.23 9.54 3.38a28.36 28.36 0 0 0 10 2.11c3.26 0 6.22-.74 10.31-1.77a36.18 36.18 0 0 0 11.57-4.65c1.82-.32 10.73-1.93 12.86-2.85s12.68-3.08 37-4.62c5-.32 8.77-.48 11.36-.48h.44a26.22 26.22 0 0 1 -7.22 4.8 25 25 0 0 1 -10.59 2.15c-2.69 0-8.68.53-10.33 1.77-.84.51-7.44 1.58-13.32 2.31l-.85.11-.68 23.52 1.72.67-1.57.7-13.39 3.57-.62.92c-1.65 2.48-5.51 8.6-5.51 11.66a6.7 6.7 0 0 1 -.86 2.65 22.15 22.15 0 0 0 -1.59 4.12l-.59 2.36a45.65 45.65 0 0 1 -6.24 4.1c-1 .48-2.42 1.17-4.05 2-4.19 2-9.38 4.46-11.33 5.76a35.82 35.82 0 0 1 -6 2.65l-1.21-9.06-4.74-14.33-1.3-.48c-1.28-.46-5.58-2-9-2.87a2.35 2.35 0 0 0 -1.91-.93v-.15l-1 .1-.4.06c-.71 0-1.75.14-3.07.27h-.16a75.07 75.07 0 0 0 -8.92 1.45 35.82 35.82 0 0 1 -8.36 1h-3.18l1.13-6.22-1.14-8-1.53-.58c-1.73-.72-10.33-4.29-12.74-5.1a45.39 45.39 0 0 0 -12.09-1.69 21.26 21.26 0 0 0 -6.5.85c-4.81 1.61-15.71 6.65-17.85 7.65l-1.22.56-9.6 32.35-.08 15.44-6.27 29-22.24 7.12 1.1 2.88c0 .1 4 10.78-.07 17.12-1.81 2.86-5.16 4.49-10 4.86-3.93.3-7.94.45-11.94.45a144.38 144.38 0 0 1 -23.44-1.81l-7.49-16.65-26.57-6.16-11.8-1.09-14.74 41.49 1.31 1.3c2.37 2.38 8.9 10.49 7.83 16.43-.49 2.68-2.5 4.79-6.14 6.45-15.11 6.87-23.84 7.92-25.91 8.07l-16.09-6.25-8.81 7.34v-.14l-4.36 1.83a3 3 0 0 1 -1 .17 3.36 3.36 0 0 1 -1.68-.45c-1.35-.78-3.79-3.32-4.93-11.65-2.65-19.43-9.29-20.94-11.26-20.94h-2.34l-6.1 27-19.13 12-21.69 20.82-59-20.51-7 25.09.61 1.06c2 3.45 6.57 13.81 4.24 20.18a8.07 8.07 0 0 1 -5.22 4.9 59.43 59.43 0 0 1 -20.35 3.69 37.73 37.73 0 0 1 -6.51-.47l-.45-.08-9.6 1.06-.7 1.48c-7.19 15.28-6.29 18-6 18.88s-1.23 6.49-3.32 12.34v.07l-3.13 17.09-4.8 1.6z" opacity=".1"/><path d="m422.69 2.15 5.87 2.69c.2 1.1.54 2.82.75 3.72a13.54 13.54 0 0 1 -2.21 4.44c-2 3 1.85 5.83 3.72 7.16.34.25.8.58.92.69a3.52 3.52 0 0 0 2.51 1 4.26 4.26 0 0 0 3.24-1.59 23.25 23.25 0 0 1 4.11 1.83l.36.2h.42c.31 0 7.51.7 10.85.7a10.52 10.52 0 0 0 1.59-.09c2.24-.37 3-2.93 3.69-5.4a17.59 17.59 0 0 1 .75-2.29h.63a26.23 26.23 0 0 1 4.25.5c17.58 3.42 37.31 7.59 39.26 8.57s6.41 2.62 12.09 4.59c3.15 1.1 6.41 2.23 9.51 3.37a29.22 29.22 0 0 0 10.39 2.18c3.39 0 6.55-.8 10.56-1.8a38 38 0 0 0 11.58-4.75c2.53-.45 10.73-2 12.87-2.88 1.7-.72 11.59-3 36.67-4.55 3.61-.22 6.62-.37 9-.43a23.61 23.61 0 0 1 -4.86 2.87 24.07 24.07 0 0 1 -10.21 2.12c-1.62 0-8.54.34-10.82 1.89-1.18.51-7.6 1.53-13 2.2l-1.7.21v1.72l-.63 22v1.37l-12.12 3.24-.73.19-.42.63-.4.6c-2.59 3.89-5.68 9.17-5.68 12.22a6.13 6.13 0 0 1 -.78 2.25 24 24 0 0 0 -1.61 4.33l-.5 2a43 43 0 0 1 -5.81 3.78c-1 .48-2.45 1.19-4 2a125.43 125.43 0 0 0 -11.45 5.83 30 30 0 0 1 -4.61 2.1l-1-7.72v-.19l-.06-.17-4.68-13.88-.3-.92-.91-.33-.88-.32c-1.25-.45-5.35-1.92-8.75-2.82a3.12 3.12 0 0 0 -1.59-.91l-.06-.45-2 .28-.3.05c-.82 0-1.86.15-3.16.28h-.1a76.72 76.72 0 0 0 -9 1.46 34.31 34.31 0 0 1 -8.14 1h-2l.88-4.88.06-.32v-.32l-1-7.25-.16-1.13-1.05-.44-1-.43c-1.71-.71-10.34-4.29-12.79-5.11a46.56 46.56 0 0 0 -12.4-1.74 21.91 21.91 0 0 0 -6.81.91c-5 1.66-16.66 7.07-18 7.69l-.78.37-.82.38-.25.86-9.45 31.78-.09.28v.28l-.08 15.19-6.12 28.33-20.84 6.63-2 .65.75 2 .72 1.88c0 .1 3.76 10.36 0 16.24-1.63 2.58-4.73 4.06-9.21 4.4-3.9.3-7.89.45-11.87.45a144.6 144.6 0 0 1 -22.74-1.71l-7.07-15.71-.4-.9-1-.22-26-6.08h-.13-.14l-11-1-1.54-.14-.52 1.47-14.3 40.2-.42 1.19.89.89.86.86c2.28 2.28 8.55 10 7.55 15.54-.27 1.49-1.14 3.71-5.56 5.72-14.49 6.58-23 7.76-25.35 8l-15.32-6-1.1-.43-.91.76-7.91 6.59-1.67.7-2.86 1.2a2.21 2.21 0 0 1 -.67.1 2.38 2.38 0 0 1 -1.18-.32c-1-.55-3.32-2.71-4.44-10.92-2.68-19.67-9.46-21.8-12.25-21.8h-3.14l-.35 1.56-5.77 25.83-18.69 11.68-.17.11-.15.15-21.17 20.32-57.38-20-2-.7-.57 2.05-6.63 23.66-.22.81.41.72.4.7c1.9 3.36 6.35 13.37 4.17 19.35a7.06 7.06 0 0 1 -4.63 4.3 58.37 58.37 0 0 1 -20 3.63 36.69 36.69 0 0 1 -6.32-.45l-.3-.06-.3-.06h-.3l-8.9 1-1.11.12-.47 1-.46 1c-6.94 14.75-6.48 18.16-6.11 19.41 0 1.15-1.2 6.19-3.24 11.89v.15.16l-1.28 7-.28-.46-.5-.84c-.21-.35-5.1-8.48-8.75-12.26a25.92 25.92 0 0 1 1.42-2.89 32.22 32.22 0 0 0 3.61-8.74c.91-4.07.56-7.37-1-9.82a7.75 7.75 0 0 0 -3.36-2.87l-11.78-9.13-.41-.32-.51-.08-.48-.08c-.1 0-10.07-1.82-21.37-12.38-2.61-2.43-4.54-6.3-5.76-11.52l3.14.38a6.86 6.86 0 0 0 .81 0c3.09 0 9.08-1.79 9.75-2l.58-.17.39-.48c.07-.08 7-8.62 18.5-22.57 7-8.49 20.29-16.79 31-23.46 6.72-4.19 12.53-7.81 15.32-10.59 5.37-5.37 41.88-19 55.81-23.92l47.46-5c.92-.1 9.1-1.08 12.87-3.82 1.28-.93 2.51-1.93 3.59-2.82a27.49 27.49 0 0 1 3.26-2.45c1.56 0 5.51-.72 28.45-5.37 22.33-4.52 36.51-27.45 38.71-31.24 1.79-1 7.41-4.39 9.76-7s6.85-13.29 8-16l4-2.85-1 16.5-.1 1.55 1.49.47c.29.1 7.14 2.27 10.44 2.6h.92a14.26 14.26 0 0 0 6.58-1.89l.36-.21.24-.34c.33-.45 1.94-2.82 1.94-4.93v-5.1l2.69 3.5.71.93 1.16-.17 4.39-.63 1.26-.18.37-1.21 1.21-4.08.24-.8-.39-.73c-2-3.71-4.16-8.6-4.16-10a.15.15 0 0 1 0-.07 2.56 2.56 0 0 1 1.15-.19 4.7 4.7 0 0 1 .62 0l3.23.49-1-3.1a30.75 30.75 0 0 1 -.9-3.39c1.2.24 2.72.62 3.78.92l.27.08h3.7l13.51 17.42 4 5.1-.38-6.44-.37-5.29c-.12-1.9-.15-3-.17-3.82a34 34 0 0 0 -.48-5.12c-.55-3.89-.35-4.58.52-7.47v-.15a7.47 7.47 0 0 1 4.44-5c15.79-5.93 16.63-7.61 17.08-8.51a20.11 20.11 0 0 1 2.59-2.83 30.27 30.27 0 0 0 5.22-6.2c.35-.65.65-.77 1.85-.77h.38c1 0 3.6 0 4.24-2.9.55-2.44.28-10.58.12-14.23 2.27-.52 6.36-1.48 8.81-2.15 4.12-1.12 4.58-5.26 4.77-7 0-.25.07-.58.09-.69a2.35 2.35 0 0 0 -.4-2c-.95-1.27-2.84-1.42-6.08-1.56l.46-.52a12.41 12.41 0 0 0 1-1.26 44.64 44.64 0 0 0 3.3-8.33c.61 0 1.58.25 2.76.49a79.35 79.35 0 0 0 9.66 1.51c2.68.25 4.39.39 5.48.39a3.48 3.48 0 0 0 2.8-.94 2.87 2.87 0 0 0 .56-2.42 2.65 2.65 0 0 1 .32-1.84 7.62 7.62 0 0 1 3.46-3.5m-371.39 318.53-1.4 7.68-2.15.71zm371.58-320.71s-3.13.63-5.33 4.71c-1.63 3 .88 4.14-1.92 4.14-1 0-2.61-.14-5.29-.38-7.09-.64-10.95-2-12.87-2-.89 0-1.37.29-1.56 1.08a44.88 44.88 0 0 1 -3.14 8.16c-.63.94-4.39 4.39-2.51 4.7s7.53 0 7.21 1.26 0 5.33-3.45 6.27-10.35 2.51-10.35 2.51.63 12.55 0 15.37c-.28 1.27-1.2 1.33-2.29 1.33h-.38c-1.25 0-2.66.08-3.6 1.81-1.89 3.45-6.91 7.21-7.85 9.1s-13.49 6.58-16 7.52a9.51 9.51 0 0 0 -5.65 6.28c-.94 3.14-1.26 4.08-.63 8.47s.31 3.45.63 8.78l.31 5.33-14.13-18.21h-4.4a34.42 34.42 0 0 0 -5.9-1.2c-.42 0-.68.07-.68.26a25.68 25.68 0 0 0 1.25 6 6.7 6.7 0 0 0 -.92-.06c-1.2 0-3.16.3-3.16 2.26 0 2.82 4.39 11 4.39 11l-1.25 4.08-4.39.63-6.25-8.2v11c0 1.57-1.56 3.77-1.56 3.77a12.4 12.4 0 0 1 -5.56 1.6q-.36 0-.72 0c-3.14-.32-10-2.51-10-2.51l1.26-20.71-7.85 5.65s-5.33 13.17-7.84 16-9.72 6.9-9.72 6.9-14.43 26-37.65 30.74-27 5.34-28.23 5.34-4.39 3.13-7.84 5.64-11.98 3.37-11.98 3.37l-47.69 5s-49.88 17.57-56.78 24.47-34.82 20.08-46.43 34.19-18.5 22.59-18.5 22.59-6.27 1.96-9.15 1.96a4.86 4.86 0 0 1 -.56 0c-1.22-.15-3.63-.45-5.89-.68 1.06 6.07 3.12 11.75 6.89 15.28 11.9 11.1 22.31 12.87 22.41 12.89l.49.07 11.84 9.3a5.59 5.59 0 0 1 2.7 2.22c1.3 2 1.55 4.77.77 8.29a30.68 30.68 0 0 1 -3.41 8.22c-1.89 3.45-2.1 4.25-1.29 5.06 3.48 3.48 8.45 11.73 8.66 12.08l.5.84-5.45 12.83 7.46-2.49 3.22-17.59c1.86-5.18 3.63-11.64 3.33-13-.89-2.65 2.74-11.32 5.95-18.13l.46-1 8.89-1 .29.05a37.89 37.89 0 0 0 6.71.49 60.36 60.36 0 0 0 20.69-3.73 9 9 0 0 0 5.82-5.49c3-8.11-4.24-20.9-4.31-21l-.4-.7 6.62-23.66 58.54 20.36 22.05-21.17 19.4-12.12 6-26.66h1.54c1.26 0 7.67 1 10.27 20.07 1.16 8.37 3.6 11.37 5.45 12.37a4.28 4.28 0 0 0 2.17.59 3.83 3.83 0 0 0 1.43-.25l2.88-1.21v.85l10.13-8.45 15.74 6.13c1.76-.11 10.67-1 26.49-8.18 4-1.8 6.15-4.15 6.7-7.19 1.16-6.39-5.46-14.66-8.1-17.3l-.86-.86 14.29-40.2 10.95 1 26 6.07 7.5 16.69a144.35 144.35 0 0 0 24.13 1.91c3.74 0 7.77-.13 12-.45 5.13-.4 8.75-2.19 10.74-5.32 4.32-6.81.19-17.9.15-18l-.72-1.9 21.79-7 6.41-29.67.09-15.36 9.45-31.78.79-.37c.51-.24 12.7-5.92 17.77-7.61a20.31 20.31 0 0 1 6.18-.8 44.37 44.37 0 0 1 11.81 1.66c2.55.85 12.27 4.9 12.68 5.07l1 .42 1 7.25-1.31 7.26h4.38a36.59 36.59 0 0 0 8.56-1.07 74.53 74.53 0 0 1 8.82-1.43c1.4-.14 2.45-.25 3.26-.29h.11.28.28c1.17 0 1.6.22 1.82.81 3.47.85 8.15 2.53 9.32 3l.87.32 4.56 13.66 1.37 10.22a45.44 45.44 0 0 0 7.37-3.22c1.89-1.26 7-3.72 11.2-5.69 1.64-.78 3.1-1.47 4.06-2a48.44 48.44 0 0 0 6.69-4.4l.67-2.71a21.9 21.9 0 0 1 1.49-4 7.47 7.47 0 0 0 1-3.08c0-2.87 4.09-9.23 5.35-11.11l.4-.6 13.1-3.5 3.84-1.71-3.34-1.2.63-22s12.55-1.57 13.8-2.51 6.59-1.49 9.74-1.49a26.2 26.2 0 0 0 11-2.2 26.82 26.82 0 0 0 7.53-5s7.47-1.8-1.16-1.8c-2.4 0-6 .14-11.42.48-24.78 1.57-35.14 3.76-37.33 4.7s-12.86 2.82-12.86 2.82-3.77 2.82-11.3 4.7c-4 1-6.93 1.74-10.07 1.74a27.33 27.33 0 0 1 -9.69-2c-8.47-3.14-18.51-6.27-21.33-7.84s-39.84-8.79-39.84-8.79a29 29 0 0 0 -4.64-.53 4.67 4.67 0 0 0 -1.64.22c-1.57.63-1.88 7.21-3.76 7.53a9.7 9.7 0 0 1 -1.26.06c-3.29 0-10.66-.69-10.66-.69s-3.92-2.18-5.59-2.18a.71.71 0 0 0 -.69.3 2.41 2.41 0 0 1 -2 1.39 1.5 1.5 0 0 1 -1.09-.45c-.94-.94-5.65-3.45-4.4-5.33s2.83-4.71 2.51-6-.94-4.71-.94-4.71z"/></g></svg>