<svg xmlns="http://www.w3.org/2000/svg" viewBox="0 0 413.06 597.16"><defs><style>.cls-1{opacity:0.1;}.cls-2{fill:#5a6bb6;}</style></defs><g id="Layer_2" data-name="Layer 2"><g id="darien"><g class="cls-1"><path class="cls-2" d="M172.46,596.18,144.67,565.3v-5.16l1.28-6.08-1.82-7.64-4.2.35-2.32-2.07L135,538.19l-6.43-1.79-3.12,1.14-19.94-21.78a78.22,78.22,0,0,1-6.4-6.91,22.92,22.92,0,0,0-1.7-3,69.41,69.41,0,0,1-3.65-6.48c-1-2.28-.51-4.79-.16-6.46a8.41,8.41,0,0,0,.25-1.6c0-1.65-2.42-2.63-3.81-3.05l-3-4.79L56.85,453.3c-1.33-1.21-2.53-2.71-2.55-3.19a18.59,18.59,0,0,1,1.24-2.22c1.09-1.79,2.32-3.83,2.54-5.35a12.93,12.93,0,0,0-2-8.85c-1.84-2.78-6.2-9.94-6.25-10L35,393.41l-.21-.14c-8.62-6-19.55-16.63-22.73-33.41a45.86,45.86,0,0,1-.09-17.61l.13-.52-.36-.4C8.49,337.85,8.33,333.09,9.1,329l.65.19c.05,0,5.42,1.59,11.64,3.15a13.49,13.49,0,0,0,3.14.45A5.34,5.34,0,0,0,29,330.46a8.17,8.17,0,0,1,1.9-1.71,2.3,2.3,0,0,1,1.16-.4c.71,0,1.28.73,2.06,1.86a11.24,11.24,0,0,0,1.2,1.53,6.32,6.32,0,0,0,4.16,1.86h.26l17.27-9.91.09-.08c.18-.17,4.6-4.34,14.59-19.64a12.29,12.29,0,0,0,1.7-10.43c-2.67-9.45-15.45-17.1-20.49-19.79a20.52,20.52,0,0,1,6-1.32c3.37,0,4.06-.28,4.89-2l.08-.15c.92-1.84-.13-4.56-1.32-6.34a.93.93,0,0,1,0-1,3.22,3.22,0,0,1,2.63-1.48c1.47,0,2.2,1.85,2.2,1.86l.22.57.6.07a97.24,97.24,0,0,1,10.23,1.86,8.28,8.28,0,0,0,2,.28c3.14,0,3.86-2.4,4.33-4a7.2,7.2,0,0,1,.42-1.2c.94-1.88,2.58-11.46,2.89-13.27,1.82-3,7.23-12.07,7.55-13.65.26-1.31,2.38-9.37,3-11.6l2.18-.55c1,4.82,2.48,11.93,3.08,12.82s2.21,4.12,3.07,5.86c.76,1.52,3.33,2.37,8.19,3.87,2.1.65,4.48,1.38,6.78,2.26,2.62,1,4,1.44,4.72,1.64.11,2.69.52,10.67,1.57,14.62a66.28,66.28,0,0,0,4.15,10.54l.12.23,9.65,6.66.4-.08a16.92,16.92,0,0,0,6.38-2.69c1.77-1.32,5.08-1.8,6.41-1.94.81,1.25,3,4.58,6,8.35,1.49,1.87,2.87,2.75,4.32,2.75a5.63,5.63,0,0,0,2.63-.83,3.86,3.86,0,0,1,1.67-.6c2.43,0,7-1.2,7-3.51,0-.46,0-1.87-6.39-4.91L166.48,273a32.76,32.76,0,0,1,21.71,14.63,4.58,4.58,0,0,0,1,1.31c.08.06,1,.91,3.7,7.69,1.13,2.82,4.11,2.87,7,2.91a25.6,25.6,0,0,1,3.5.22,6.71,6.71,0,0,1,4.8,3.33v7c0,3.11,4.75,6.91,9.08,7.27.53.05,1.17.07,1.89.07a94,94,0,0,0,9.61-.7l.37,0,.25-.29c7.78-8.75,7.78-9.68,7.78-10.07,0-1.44-1.72-1.54-6.32-1.81a37.93,37.93,0,0,1-6.63-.72,11.08,11.08,0,0,0-3-.56l-.4,0-6.45-8.91h-5.52l-7.8-5.7L180.22,264.5l-.41,0c-2-.12-5.24-.39-6.1-.6-1.47-.37-7.11-1.33-14.55-2.22a45.11,45.11,0,0,1-15.29-4.57,6.85,6.85,0,0,1-2.67-4c-.32-1.6-5.6-13.78-6.65-16.2L128,221.75a3.74,3.74,0,0,1,1.16-.21,2.59,2.59,0,0,1,.47.05l.35,0h0c2.05,0,3-3.41,3.32-4.88l.1-.46-.29-.37c-.95-1.21-3.53-4.52-4-5.27-.63-.94-7.44-8.85-8.49-10.06l-1.94-3.34c.58-2.2,1.41-4.68,1.83-5.1,1.3-1.3.75-4,0-7.22s-2-5.3-3.59-6.26a16.53,16.53,0,0,0-4-1.52L111.66,168,96.79,157.1l.39,10.9,2.34,15.05,10.64-.31c.54,4.32,2.75,22.23,3,23.92.19,1.11.38,3.52.5,5.23-2.4-1.44-5.28-3.31-5.94-4.14-1-1.22-5-8.9-6.48-11.75l-.29-.57-10.71.36-.24.62c-2.19,5.81-7.28,19.45-7.28,20.75-.1.62-1.91,3.22-3.62,5.36l-12.76,2.37a27.67,27.67,0,0,1-4-2.82c1.42-1,6.08-3.61,10.38-5.83,10.26-1.34,10.6-3,10.72-3.59.32-1.61.61-15.25.64-16.8v-.22l-.09-.2c-.22-.51-5.38-12.64-7-15.19-1.19-1.91-2.11-6.94-2.37-8.71l-.17-1.22-5,1.82-3,7a24.17,24.17,0,0,0-1.13,6l-.23-.32-.47,0c-.17,0-4.13-.32-5.41-.32a1.61,1.61,0,0,0-1.19.51c-.73.79-.63,2.16-.51,3.74,0,.51.07,1,.07,1.46,0,1.34-1.22,4.73-1.76,6.09l-4.81,6.33-.57-1.44L47.67,189.8l-1.82-3.18-.87.5a25.79,25.79,0,0,0-5.57,4.9l-.11.11-.07.15c-3.17,7.11-6.9,14.92-7.64,15.7a2.49,2.49,0,0,1-1.59.85c-.17,0-.68,0-1.22-1-1.05-1.83-1.4-3-2.73-7.2l-1.19-3.76a53.45,53.45,0,0,1-2.55-10.66,10.75,10.75,0,0,1,2.55-8.87l.52-.53-4-7.3-.41-.11c-1.44-.37-8.66-2.23-10-2.23-2.76,0-3.19,10.93-3.19,11a54.29,54.29,0,0,0,1.28,7.13l4.76,18.4.11.15c.35.48,8.51,11.66,10.08,13.54C26,219.81,26.08,221,26,221.16c-.48.48-1.08,1.85-2.55,5.36-1,2.44-2.72,6.48-3.41,7.27h-.23a10.82,10.82,0,0,1-2.86-.87c-.74-.28-1.64-.62-2.77-1a7.63,7.63,0,0,1-3.18-2c-1.61-8.46-2.95-17.71-4-27.5-2.6-24.9-4.37-33.33-4.93-35.57l1.77-9.46,5-34,0-13.53,0-.28c-1.3-11.34-2.52-17.9-3.61-19.54a39.4,39.4,0,0,1-2.1-7l19.18-5.33A74.66,74.66,0,0,1,34,81.29c0,.41.08.94.11,1.41.18,2.71.39,6,2.82,7.65,2,1.34,5.8,3.24,6,3.32l1,.5,1.1-.31c1.76-.5,6-2,7-5a12.63,12.63,0,0,0,.49-3c.1-1.15.2-2.33.69-2.81,1.95-2,4.39-4.4,5.18-8.4.47-2.33,2.79-4.47,3.42-4.55h0c2.62,0,26.19-1.81,27.2-1.89l1.35-.1L91.14,67c.13-.17,13.4-18.24,24.08-18.24h.39l2.93.14,1.35-29.8L125,10.67l7.59-7.59a2.82,2.82,0,0,0,.77.4,2.92,2.92,0,0,0,.93.15,3,3,0,0,0,2.34-1.17c1.1,0,5.49.92,17,11.67,5.93,5.54,11.45,10,16.32,13.85,11,8.81,19,15.17,23.72,27.71A2.94,2.94,0,0,0,195,57.23a271.86,271.86,0,0,1,23.39,14.55c19.92,14,22.14,20.84,22.14,23.21l-.25,1.35-17.42,1.2a2.91,2.91,0,0,0-1.72.72l-9.8,8.58-11,6.12a2.93,2.93,0,0,0-1.19,1.25c-.05.1-4.91,9.77-9,14.44a8.6,8.6,0,0,1-6.16,3.38,15.41,15.41,0,0,0-3.39.85,22.2,22.2,0,0,0-6.63,4.42,2.89,2.89,0,0,0-.84,1.79c-.06.57-1.27,13.91-1.27,15.95,0,2.41,1.64,4.23,3.23,6,.57.62,1.21,1.33,1.75,2l.41.56a44,44,0,0,0,6.78,7.45c-.86,3.27-2.13,8.59-2.13,11.57,0,1.92,0,3.58,1.92,4.37a2.93,2.93,0,0,0,1.15.24,3.44,3.44,0,0,0,2.39-1.13,1.46,1.46,0,0,1,1.23-.55c.56,0,.82,1.37.83,2.11a2.91,2.91,0,0,0,.67,1.84l8.42,10.22,2.77,8.87-1.16,8.12a2.86,2.86,0,0,0,0,.42v11.29c0,3.73,2.92,6.18,6,8.77a42.57,42.57,0,0,1,4.75,4.45c3.58,4.09,3.67,10.57,3.67,10.63a2.94,2.94,0,0,0,2,2.77,59.62,59.62,0,0,1,10.69,5.21l.5,5.45a3,3,0,0,0,2.81,2.66s6,.62,24.33,11.51c15.17,9,12.26,19.3,11,23.7a10,10,0,0,0-.53,2.65c0,3.51,3.2,5,5.54,6a14.78,14.78,0,0,1,2.53,1.34,6.29,6.29,0,0,0,3.89,1.42,10.82,10.82,0,0,0,2.34-.33,18,18,0,0,1,4-.5,34,34,0,0,0,2,11.76c1.43,4.5,3.39,9.11,7,9.11h.17c3.53-.13,4.91-4.44,5.34-6.28,0,0,.65-2.77,4.42-7.31a145.67,145.67,0,0,0,17.45,3.37,45,45,0,0,0,4.73.46c1.92,0,2.55-.79,2.94-2.08.34-1.1.25-2.66-2.07-3.82-.35-.18-.62-.32-.82-.44a26.08,26.08,0,0,1,3.48-4.53l.51-.18c3.2-1.12,11.7-4.09,13.22-4.6.7-.23,1.51-.6,2.54-1.06a45.65,45.65,0,0,1,9.09-3.25,127.92,127.92,0,0,1,14.61-1.82,2.87,2.87,0,0,0,1-.23L379.25,299l.78,1.33.09.09c10.31,10.31,16.29,51.1,16.34,51.51l0,.12,3.93,9.49,11.48,7.85-2.33.83-14.51-1.26-11.45,6c-1.25.33-11.58,3.13-12.5,3.43-1.3.44-2.33,2.64-4.05,6.5a3.65,3.65,0,0,1-3.48,1.93h-.22l-.83-.07-.22.79-3.71,13.3-11.17,14.28c-.09.11-2.87,4.44-4.08,5.95s-.77,2.37-.27,3.7a23.22,23.22,0,0,1,1,3.41,20.11,20.11,0,0,1,.49,3.23,24.36,24.36,0,0,0,1.09,5.29c.53,1.9,1.36,4.07,3.14,4.07a2.68,2.68,0,0,0,1.07-.25,55.3,55.3,0,0,0,4.53,4l-1.66,2.6-5.16,5.16L297,480.86l-9.73,15.38-10.88,6.35h-.3a4.63,4.63,0,0,1-3.09-1c-1.3-1.31-1.62-6.11-1.9-10.34-.23-3.38-.91-4.44-1.86-5.57a5.24,5.24,0,0,1-.75-1.09,60.21,60.21,0,0,0-3.74-5.32c-2.54-3.45-5.71-7.74-6.6-9.7a51.86,51.86,0,0,0-5.7-8.59c-.59-1.27-5.32-11.57-5.92-12.78s-7.9-5.69-13.88-9.2l-.43-.25-7.25,3-6.52,1-1.73,8-1,12v.07c0,.51.74,12.64,9.5,32,2.88,6.37,3.39,11.85,1.53,16.28a14.53,14.53,0,0,1-7.37,7.4l-18.13-1-25,79.78ZM137,480.68a89.63,89.63,0,0,1,10.56,9,2.92,2.92,0,0,0,4.14,0l8.78-8.79a2.93,2.93,0,0,0,.85-1.83l1.25-15.68a2,2,0,0,0,0-.35v-.16c-.14-4.12-.62-17.75-.62-20.43,0-2,1.49-8.72,2.43-12.47a3.07,3.07,0,0,0,.07-1l-.62-7.52a3,3,0,0,0-.85-1.83l-4.39-4.39-.26-.23-4.9-3.81-11.66-41.73a2.92,2.92,0,0,0-1.89-2l-5.65-1.88a2.83,2.83,0,0,0-2.53.33L119.42,374l-2-16.65a2.93,2.93,0,0,0-1.6-2.27l-6-3-.53-9a2.93,2.93,0,0,0-.61-1.62L89.2,316.38a2.91,2.91,0,0,0-2.31-1.14,2.88,2.88,0,0,0-1.79.62L65.65,330.91a2.93,2.93,0,0,0-.09,4.57l6.89,5.74,2.17,6.5.79,5.09a12.88,12.88,0,0,0-2.91.92L71,353.54c-4.57-.57-12.86-3.49-13.21-3.62a3,3,0,0,0-1-.17,2.9,2.9,0,0,0-2.72,1.84l-2,5a49.72,49.72,0,0,1-6.49,1.68,28.88,28.88,0,0,0-4.14,1,5.45,5.45,0,0,1-1.29.32,2.91,2.91,0,0,0-.82-.11c-1.7,0-2.55,1.27-3.17,2.2C34,365,33.2,369.1,33.79,374.33a54.08,54.08,0,0,1,0,8.63,25.44,25.44,0,0,0,.11,6.82c.61,2.44,4,5.05,10,7.76l6.38,15.65,3.09,12.35a2.85,2.85,0,0,0,.76,1.35,29.42,29.42,0,0,1,5,7.91,20.14,20.14,0,0,1,1,5.49c.51,5,1.29,12.67,9.86,14.39A37.27,37.27,0,0,1,84.43,461a3,3,0,0,0,1.81.64l14-.61c1,.35,3.83,1.32,6.24,2.28a41.61,41.61,0,0,1,6.3,3.44l3.38,2.41,1.69,10.71a2.88,2.88,0,0,0,1.34,2l5.13,3.21a2.32,2.32,0,0,0,1.61.59,14,14,0,0,0,3.88-1A19.7,19.7,0,0,0,137,480.68Z" transform="translate(-1.02 -1.46)"/></g><path class="cls-2" d="M137,3.51c1.33.27,5.77,1.88,15.91,11.35,6,5.58,11.5,10,16.38,13.9,10.9,8.71,18.78,15,23.41,27.29a3.91,3.91,0,0,0,1.8,2.06c.12.06,11.89,6.49,23.29,14.49C237.56,86.46,239.45,93,239.5,94.91l-.09.49-16.65,1.14a4,4,0,0,0-2.31,1l-9.72,8.5-10.93,6.07a4,4,0,0,0-1.61,1.68c-.05.1-4.84,9.65-8.85,14.23a7.57,7.57,0,0,1-5.57,3,16.37,16.37,0,0,0-3.6.91,23,23,0,0,0-7,4.64,3.92,3.92,0,0,0-1.13,2.41c-.13,1.43-1.27,14-1.27,16,0,2.79,1.85,4.84,3.49,6.66.58.64,1.18,1.3,1.68,2l.42.56a44.32,44.32,0,0,0,6.46,7.18c-.86,3.34-2,8.32-2,11.24,0,1.89,0,4.25,2.54,5.3a4.06,4.06,0,0,0,1.53.31,4.37,4.37,0,0,0,3.1-1.42l.19-.19a4.27,4.27,0,0,1,.17,1,3.94,3.94,0,0,0,.89,2.5l8.3,10.07,2.64,8.46-1.13,7.9a5.09,5.09,0,0,0,0,.56v11.29c0,4.19,3.09,6.79,6.39,9.56a41,41,0,0,1,4.62,4.32c3.32,3.79,3.42,9.92,3.42,10a3.93,3.93,0,0,0,2.68,3.7,60.1,60.1,0,0,1,10.06,4.87l.45,4.94a4,4,0,0,0,3.7,3.57c.27,0,6.3.9,23.93,11.37,14.51,8.62,11.85,18,10.57,22.57a10.68,10.68,0,0,0-.57,2.92c0,4.15,3.84,5.89,6.13,6.93a14.65,14.65,0,0,1,2.34,1.23,7.36,7.36,0,0,0,4.5,1.62,11.26,11.26,0,0,0,2.54-.36,19.13,19.13,0,0,1,2.74-.43,36.8,36.8,0,0,0,2,11c1.55,4.85,3.7,9.81,8,9.81h.2c3-.11,5.27-2.68,6.29-7.07,0,0,.59-2.39,3.81-6.39a144.16,144.16,0,0,0,17,3.23,43.83,43.83,0,0,0,4.85.47c2.14,0,3.31-.83,3.9-2.79.29-.95.62-3.32-2.44-4.93a29.39,29.39,0,0,1,2.63-3.29c3-1,11.93-4.17,13.49-4.69.73-.24,1.56-.62,2.64-1.1a44.78,44.78,0,0,1,8.89-3.18,126.86,126.86,0,0,1,14.46-1.8,3.75,3.75,0,0,0,1.29-.31l9.32-4,.27.45.13.22.18.19c10.08,10.07,16,50.53,16.06,50.94l0,.25.1.23,3.76,9.1.23.55.49.34,9.62,6.56-.28.11-14-1.22-.59-.05-.52.27L383.23,374c-1.9.51-11.52,3.12-12.45,3.42-1.69.57-2.76,2.81-4.64,7.05a2.73,2.73,0,0,1-2.57,1.33h-.13l-1.66-.15-.45,1.6-3.65,13.11L346.63,414.5l-.06.07-.05.08s-2.78,4.32-4,5.79c-1.48,1.86-.95,3.3-.43,4.68a23.83,23.83,0,0,1,1.46,6.37,23.88,23.88,0,0,0,1.12,5.48c.4,1.44,1.33,4.8,4.09,4.8a3.32,3.32,0,0,0,.81-.1c.9.88,2.26,2,3.48,3L352,446.47l-5,5-50.27,28.41-.44.25-.26.42-9.47,15-10.45,6.09h0a3.56,3.56,0,0,1-2.38-.69c-1-1-1.38-6.25-1.61-9.7-.25-3.67-1.06-4.91-2.09-6.15a4,4,0,0,1-.63-.88,57,57,0,0,0-3.83-5.48c-2.38-3.23-5.64-7.65-6.49-9.51a52.07,52.07,0,0,0-5.75-8.71c-.77-1.67-5.3-11.51-5.89-12.69-.27-.54-.89-1.79-14.27-9.62l-.85-.5-.92.38-6.68,2.73-5.73.91-1.35.21-.29,1.34-1.57,7.21,0,.13v.14l-.94,11.92v.26c0,.51.75,12.84,9.59,32.4,2.75,6.09,3.26,11.28,1.54,15.43a13.6,13.6,0,0,1-6.66,6.83l-17.11-.92-1.55-.08-.46,1.48-24.5,78.09-2.59-.81-27.35-30.4v-4.67l1.21-5.75.09-.44-.1-.44L145.3,547l-.4-1.67-1.71.14-2.91.25-1.83-1.63-2.34-5.84-.36-.91-1-.27-5.64-1.57-.62-.17-.6.22-2.2.8-19.49-21.29,0,0,0,0c-2.58-2.59-5.62-5.8-6.17-6.61a26.39,26.39,0,0,0-1.74-3.06,67.78,67.78,0,0,1-3.6-6.37c-.9-2-.43-4.21-.09-5.84a9.23,9.23,0,0,0,.27-1.81c0-2.1-2.34-3.29-4.16-3.89L88,483.06l-.12-.19-.17-.16L57.56,452.59l0,0,0,0a13.11,13.11,0,0,1-2.09-2.37c.22-.45.66-1.17,1-1.74,1.13-1.88,2.42-4,2.67-5.73a13.41,13.41,0,0,0,.12-1.83c.52,5.06,1.6,13,10.61,14.81a36.86,36.86,0,0,1,14,6.12,3.91,3.91,0,0,0,2.42.86h.19l13.7-.6c1.14.4,3.75,1.31,6,2.21a42.51,42.51,0,0,1,6.12,3.33l3,2.16L116.89,480a3.91,3.91,0,0,0,1.8,2.72l5,3.12.08.05a3.32,3.32,0,0,0,2.2.78,14.63,14.63,0,0,0,4.21-1,21.4,21.4,0,0,0,6.89-3.7,90.19,90.19,0,0,1,9.79,8.4,3.92,3.92,0,0,0,5.55,0l8.79-8.79a3.94,3.94,0,0,0,1.13-2.46l1.26-15.7a3.19,3.19,0,0,0,0-.43v-.26c-.14-4.1-.62-17.69-.62-20.31,0-1.83,1.4-8.25,2.39-12.21a3.79,3.79,0,0,0,.11-1.29l-.63-7.53a3.89,3.89,0,0,0-1.13-2.45l-4.4-4.4c-.11-.11-.23-.21-.36-.32l-4.63-3.6-11.57-41.41a3.91,3.91,0,0,0-2.54-2.67l-5.63-1.87a3.59,3.59,0,0,0-1.26-.22,3.91,3.91,0,0,0-2.15.65l-10.94,7.2-1.83-15.06a3.91,3.91,0,0,0-2.14-3l-5.5-2.75-.49-8.4a3.92,3.92,0,0,0-.82-2.18L90,315.77a3.9,3.9,0,0,0-3.1-1.53,4,4,0,0,0-2.41.83L65,330.12a4,4,0,0,0-1.52,3,3.91,3.91,0,0,0,1.41,3.08l6.68,5.56L73.65,348l.63,4.09a13.22,13.22,0,0,0-2,.65l-1.11-.13-.16,0c-3.51-.44-9.8-2.45-13-3.56a3.73,3.73,0,0,0-1.33-.24,3.91,3.91,0,0,0-3.64,2.47l-1.83,4.56a47.34,47.34,0,0,1-5.92,1.51,30.37,30.37,0,0,0-4.28,1.07,5.74,5.74,0,0,1-.89.25,4.37,4.37,0,0,0-4.9,2.56c-2.3,3.45-3.13,7.8-2.52,13.27a52.25,52.25,0,0,1,0,8.48c-.17,3-.31,5.33.14,7.1a4.89,4.89,0,0,0,.28.87c-11-8.27-17.74-18.7-20.12-31a45.55,45.55,0,0,1-.14-17.36l.26-1.05-.73-.78c-2.68-2.91-3-6.82-2.55-10.41,1.4.41,6,1.73,11.26,3a14.39,14.39,0,0,0,3.38.48,6.3,6.3,0,0,0,5.27-2.65,6.6,6.6,0,0,1,1.65-1.51,1.31,1.31,0,0,1,.65-.26c.24,0,.94,1,1.24,1.43a12.63,12.63,0,0,0,1.31,1.67,7.31,7.31,0,0,0,4.87,2.15h.53l.46-.26,16.94-9.73.2-.11.17-.16c.19-.17,4.69-4.42,14.74-19.82a13.21,13.21,0,0,0,1.83-11.25c-2.45-8.69-13-15.83-18.93-19.26a14.41,14.41,0,0,1,3.51-.58c3.52,0,4.71-.33,5.79-2.53l.08-.15c1.1-2.2,0-5.21-1.37-7.31a2.24,2.24,0,0,1,1.77-1c.74,0,1.27,1.21,1.27,1.21h0l.42,1.14,1.21.14a94.05,94.05,0,0,1,10.11,1.84,9.26,9.26,0,0,0,2.27.31c3.89,0,4.8-3.06,5.29-4.7a7,7,0,0,1,.36-1.05c1-1.91,2.42-10.27,2.94-13.36,2.78-4.6,7.26-12.18,7.58-13.8.22-1.1,1.89-7.5,2.81-11l.59-.14c2.24,11,2.8,11.82,3,12.15.56.83,2.22,4.15,3,5.74,1,2,3.92,2.89,8.79,4.39,2.08.64,4.44,1.37,6.71,2.23,2,.75,3.25,1.2,4.12,1.47.14,3.34.57,10.37,1.56,14.12a67.87,67.87,0,0,0,4.23,10.73l.23.46.42.29,9.1,6.28.68.47.81-.15a18.26,18.26,0,0,0,6.8-2.88,13,13,0,0,1,5.31-1.68c1,1.54,3.05,4.56,5.73,7.92,1.71,2.13,3.33,3.12,5.11,3.12a6.52,6.52,0,0,0,3.09-1,3.72,3.72,0,0,1,1.21-.48c2.77,0,8-1.32,8-4.51,0-.81,0-2.47-6.81-5.75l-1.2-1.14a31.53,31.53,0,0,1,17.39,13.25,5.61,5.61,0,0,0,1.21,1.5c.18.22,1.11,1.5,3.43,7.31,1.38,3.44,5,3.5,7.91,3.54a24.89,24.89,0,0,1,3.37.21,5.72,5.72,0,0,1,3.95,2.61V310c0,3.94,5.59,7.9,10,8.27.57.05,1.23.07,2,.07,4,0,9.5-.68,9.73-.7l.75-.1.5-.56c8-9,8-9.94,8-10.74,0-2.38-2.43-2.52-7.26-2.81a39.43,39.43,0,0,1-6.4-.67,12.47,12.47,0,0,0-3.15-.61l-5.84-8.06-.6-.83h-5.7l-7.45-5.44-20.56-23.67-.55-.64-.83,0c-2-.12-5.17-.38-5.92-.57-1.53-.38-7.1-1.33-14.67-2.24a44.26,44.26,0,0,1-14.9-4.44,5.92,5.92,0,0,1-2.2-3.38c-.33-1.65-5.22-13-6.71-16.4l-6-13.87a2.47,2.47,0,0,0,.54.05c2.69,0,3.86-3.55,4.31-5.67l.2-.92-.58-.74c-1.37-1.74-3.56-4.56-4-5.2-.63-1-6.51-7.79-8.5-10.1l-1.69-2.89a22.65,22.65,0,0,1,1.51-4.3c1.62-1.67,1-4.67.17-8.13s-2.18-5.75-4-6.87a15.58,15.58,0,0,0-3.61-1.45l-1.08-8.08-.11-.85-.69-.5-12.86-9.41-3.33-2.44.15,4.12.31,8.79v.23l2.2,14.12.27,1.74,1.77,0,8.84-.26c.68,5.49,2.66,21.45,2.93,23.06.11.67.23,1.91.33,3.19a23.85,23.85,0,0,1-4-2.89c-.78-1-4.2-7.36-6.38-11.58l-.57-1.13-1.27,0-9.41.32-1.34,0-.47,1.25c-1.87,5-3.26,8.73-4.3,11.61.16-4.16.29-9.58.33-11.8v-.43L85,195c-.55-1.3-5.44-12.76-7-15.33-1-1.57-1.89-5.94-2.23-8.32L75.34,169l-2.31.84-3.45,1.26-.82.29-.34.8-2.82,6.59a21.05,21.05,0,0,0-1.07,5.05c-1-.08-4.09-.31-5.25-.31a2.6,2.6,0,0,0-1.92.83c-1,1.11-.91,2.76-.78,4.5,0,.5.07,1,.07,1.38a24.78,24.78,0,0,1-1.64,5.6l-3.62,4.77-2.72-10.86-.06-.26-.14-.24L47.21,187l-1-1.74-1.73,1a26.72,26.72,0,0,0-5.82,5.09l-.22.24-.13.29c-3,6.77-6.63,14.36-7.46,15.44a1.68,1.68,0,0,1-.85.52s-.15-.07-.36-.45c-1-1.73-1.34-2.85-2.65-7l-.63-2-.56-1.74A52.7,52.7,0,0,1,23.3,186.1a9.79,9.79,0,0,1,2.26-8L26.62,177l-.72-1.31-3.45-6.28L22,168.7l-.83-.22c-3.26-.84-8.92-2.26-10.23-2.26-2.31,0-3,2.88-3.54,6.1a47,47,0,0,0-.65,5.94,52.78,52.78,0,0,0,1.31,7.4l4.71,18.2.09.37.23.3c.35.48,8.53,11.68,10.12,13.59a9.1,9.1,0,0,1,1.7,2.69,33.93,33.93,0,0,0-2.46,5.32c-.87,2.08-2.26,5.38-3,6.63a19.55,19.55,0,0,1-2.22-.77c-.75-.28-1.65-.62-2.79-1a6.84,6.84,0,0,1-2.59-1.52C10.29,221.09,9,212,8,202.32c-2.48-23.82-4.19-32.58-4.9-35.5l1.73-9.24v-.08l5-33.88,0-.14v-.15l0-13.46v-.45c-2-17.25-3.28-19.19-3.76-19.9a38.52,38.52,0,0,1-1.74-5.73l18-5A82.1,82.1,0,0,1,33.07,82c0,.28,0,.58.06.86.19,2.88.43,6.47,3.27,8.37,2.07,1.38,5.9,3.3,6.07,3.38l.67.34.69.34.75-.21.72-.21c1.92-.55,6.51-2.2,7.67-5.67A13.84,13.84,0,0,0,53.51,86a6.72,6.72,0,0,1,.39-2.19c2.06-2,4.61-4.6,5.47-8.9A6.78,6.78,0,0,1,62,71.13c3.34-.07,24.63-1.7,27.09-1.89l.9-.07.92-.07.54-.76.52-.72c3.6-5,14.8-17.83,23.27-17.83h.33l1.93.09,2,.1.09-2,1.3-28.55,4.89-8.15,7-7,.27.11a4.09,4.09,0,0,0,1.25.2A4,4,0,0,0,137,3.51M82.23,215.12a12.36,12.36,0,0,0-.47,1.82,29.17,29.17,0,0,1-3.18,4.66l-12,2.24c-.92-.57-1.82-1.18-2.49-1.68,2-1.22,5.68-3.23,9-4.95,4.84-.64,7.59-1.38,9.17-2.09M36.73,394.74a38.26,38.26,0,0,0,6.34,3.55l6.2,15.21,3.06,12.27.09.3c-.87-1.41-1.55-2.53-1.73-2.83l-14-28.5M53.37,427.6a28.64,28.64,0,0,1,4.83,7.61,9.5,9.5,0,0,1,.61,2.4,13.81,13.81,0,0,0-1.94-4.48c-.86-1.28-2.25-3.5-3.5-5.53M136.57,1.46a1.74,1.74,0,0,0-.58.08,1.94,1.94,0,0,1-1.73,1.09,1.81,1.81,0,0,1-.61-.1,2,2,0,0,1-1.06-.89l-8.41,8.41-5.28,8.79L117.58,47.9l-1.93-.1h-.43c-11.31,0-24.75,18.47-24.89,18.66l-.52.73-.89.07c-1,.07-24.57,1.88-27.13,1.88-1.19,0-3.85,2.7-4.39,5.36-.73,3.7-2.95,5.92-4.91,7.88-.74.74-.86,2-1,3.43a11.72,11.72,0,0,1-.45,2.72c-.88,2.64-5.06,4-6.32,4.38l-.72.21-.67-.34c-.16-.08-3.89-2-5.85-3.26s-2.21-4.26-2.38-6.83c-.05-.72-.1-1.52-.19-2-1.41-.94-7.4-2.72-12.63-3.94L2,82.38c.84,3.61,1.9,7.39,2.46,8.23,1.31,2,2.72,12.78,3.44,19l0,.22,0,13.46-5,33.88L1,166.88c.52,2,2.29,10,5,35.65,1.2,11.48,2.68,20.76,4,27.85a8.46,8.46,0,0,0,3.77,2.46c3.66,1.31,4.93,2,6,2a2.2,2.2,0,0,0,.62-.08c1.26-.31,5.34-11.92,6.28-12.86s-.32-3.13-1.89-5-10-13.49-10-13.49L10,185.16a57,57,0,0,1-1.25-6.9c0-1.57.94-10,2.19-10s9.73,2.2,9.73,2.2l3.45,6.27a11.78,11.78,0,0,0-2.83,9.72c.94,6,1.26,6.59,3.14,12.55s2.2,7.22,3.45,9.41A2.43,2.43,0,0,0,30,209.83a3.46,3.46,0,0,0,2.3-1.14c1.26-1.26,7.85-16,7.85-16A25.21,25.21,0,0,1,45.48,188l1.25,2.2,2.83,11.29,1.25,3.14,6-7.84s1.88-4.71,1.88-6.59-.62-4.71.63-4.71,5.33.32,5.33.32L66.18,188s.32-6.27,1.26-8.47l2.82-6.58,3.45-1.26s.94,6.59,2.51,9.1,6.9,15.06,6.9,15.06-.31,15-.62,16.62-10,2.83-10,2.83-11,5.64-11.3,6.58,5,4.08,5,4.08l13.49-2.51s4.08-5,4.08-6.27S91,196.77,91,196.77l9.41-.32s5.33,10.36,6.58,11.92,7.85,5.34,7.85,5.34-.32-5.34-.63-7.22S111,181.71,111,181.71l-10.66.31-2.2-14.11-.31-8.79,12.86,9.41,1.25,9.41a18.73,18.73,0,0,1,4.4,1.57c1.56.94,2.51,3.14,3.13,5.65s1.26,5.33.32,6.27-2.2,6-2.2,6l2.2,3.77s7.84,9.1,8.47,10,4.07,5.33,4.07,5.33-.87,4.09-2.35,4.09h-.16a3,3,0,0,0-.66-.07,5.35,5.35,0,0,0-2.47.7l6.9,16s6.27,14.43,6.59,16a7.93,7.93,0,0,0,3.13,4.71,46.33,46.33,0,0,0,15.69,4.7c7.84.95,13.17,1.89,14.43,2.2s6.27.63,6.27.63l20.71,23.84,8.15,6h5.34l6.58,9.1s.11-.21.78-.21a10.07,10.07,0,0,1,2.68.52c3.13.94,12.23.63,12.23,1.57s-7.53,9.41-7.53,9.41a94.94,94.94,0,0,1-9.48.69c-.66,0-1.27,0-1.81-.06-3.77-.32-8.16-3.77-8.16-6.28V302.8a7.74,7.74,0,0,0-5.64-4.08c-4.08-.63-8.47.63-9.73-2.51s-3.14-7.53-4.08-8.16-6.9-14.11-26.35-16.62L170,277.7s6,2.83,6,4.08-3.45,2.51-6,2.51c-1.55,0-2.73,1.43-4.3,1.43-1,0-2.1-.56-3.54-2.37a98.29,98.29,0,0,1-6.28-8.78s-5,.31-7.53,2.19a16.27,16.27,0,0,1-6,2.51L133.32,273a65.75,65.75,0,0,1-4.08-10.36c-1.17-4.37-1.52-13.87-1.57-15.2h0c-.34,0-1.54-.3-5.3-1.74-6.59-2.51-13.49-3.76-14.43-5.64s-2.51-5-3.14-6-3.14-13.49-3.14-13.49l-3.76.94S95,232.22,94.73,233.78s-7.53,13.49-7.53,13.49-1.88,11.3-2.82,13.18c-.81,1.62-.69,4.64-3.86,4.64a7.63,7.63,0,0,1-1.79-.25A95.93,95.93,0,0,0,68.38,263s-.94-2.51-3.14-2.51-4.7,2.19-3.45,4.08,1.88,4.07,1.26,5.33-.63,1.57-4.08,1.57-8.47,2.19-8.47,2.19,30.43,14.43,20.39,29.81-14.43,19.45-14.43,19.45L39.52,332.6A5.31,5.31,0,0,1,36.07,331c-1.25-1.25-2.1-3.68-4-3.68a3.31,3.31,0,0,0-1.68.54c-2.54,1.53-2.61,3.88-5.89,3.88a12.49,12.49,0,0,1-2.89-.42C15.36,329.78,10,328.21,10,328.21l1.25-8.47S3.44,333.86,11,342c0,0-7.53,30.74,23.22,52.08L48.93,424.2s4.39,7.22,6.27,10a11.94,11.94,0,0,1,1.89,8.16c-.32,2.19-3.46,6.27-3.77,7.53S56.14,454,56.14,454l30.12,30.12,3.14,5s3.45.94,3.45,2.19-1.57,5,0,8.47,5,8.47,5.33,9.42,6.59,7.21,6.59,7.21l20.39,22.27,3.45-1.25,5.65,1.57,2.51,6.27,2.82,2.51,3.76-.31,1.57,6.59-1.25,6v5.64l28.23,31.37,5,1.57,25.1-80,17.56.94s15.38-5.65,6.59-25.1-9.41-31.68-9.41-31.68l.94-11.92,1.57-7.22,6-.94,6.9-2.82s12.86,7.53,13.49,8.78,6,12.86,6,12.86,4.08,5,5.65,8.47,9.41,13.18,10.35,15.06,2.2,1.57,2.51,6.27.63,9.42,2.2,11a5.5,5.5,0,0,0,3.79,1.28c.37,0,.6,0,.6,0L288,497l9.73-15.37,50.5-28.55,5.34-5.33,2.19-3.45s-4.7-3.77-5.33-4.71a.37.37,0,0,0-.31-.17c-.32,0-.77.37-1.29.37s-1.41-.6-2.17-3.33c-1.56-5.65-.62-4.08-1.56-8.47s-2.2-4.71-.95-6.28,4.08-6,4.08-6l11.3-14.43,3.76-13.49h.31a4.68,4.68,0,0,0,4.4-2.52c1.25-2.82,2.51-5.64,3.45-6S384,375.89,384,375.89l11.3-6,14.43,1.26,4.39-1.57-12.86-8.79-3.77-9.09s-6-41.41-16.62-52.08l-1.16-2-10.95,4.69a1.71,1.71,0,0,1-.63.15,131.17,131.17,0,0,0-14.76,1.84,47.32,47.32,0,0,0-9.29,3.32c-1,.45-1.8.81-2.44,1-1.68.56-11.77,4.09-14,4.86a24.86,24.86,0,0,0-4.2,5.72,7,7,0,0,0,1.65,1c.56.28,2.05,1,1.57,2.64-.31,1-.63,1.37-2,1.37a45.07,45.07,0,0,1-4.61-.45,143.65,143.65,0,0,1-17.93-3.51c-4.38,5.12-5,8.18-5,8.21-.31,1.34-1.49,5.4-4.41,5.51h-.13c-2.39,0-4.22-2.53-6.09-8.41-2.16-6.8-2-10.53-1.84-12.46h-.72a19.08,19.08,0,0,0-4.53.53,9.43,9.43,0,0,1-2.11.31,5.31,5.31,0,0,1-3.3-1.22,15,15,0,0,0-2.72-1.45c-2.2-1-5-2.24-5-5.11a9.62,9.62,0,0,1,.49-2.38c1.31-4.61,4.36-15.43-11.47-24.83-18.89-11.21-24.73-11.64-24.79-11.65a2,2,0,0,1-1.86-1.75l-.55-5.95a62.06,62.06,0,0,0-11.32-5.57,1.93,1.93,0,0,1-1.32-1.82c0-.07-.07-6.89-3.91-11.29a43.25,43.25,0,0,0-4.87-4.55c-3-2.55-5.65-4.75-5.65-8V217.16a2.45,2.45,0,0,1,0-.27l1.2-8.36-2.9-9.26-8.54-10.38a1.87,1.87,0,0,1-.44-1.22c0-.12-.06-3.09-1.84-3.09a2.44,2.44,0,0,0-1.94.84,2.41,2.41,0,0,1-1.68.84,2,2,0,0,1-.77-.16c-1.3-.54-1.3-1.64-1.3-3.45,0-3.17,1.56-9.32,2.26-11.9A43.72,43.72,0,0,1,178,163l-.42-.57c-.56-.74-1.19-1.44-1.8-2.11-1.54-1.7-3-3.3-3-5.32s1.13-14.43,1.26-15.86a1.93,1.93,0,0,1,.56-1.18,20.92,20.92,0,0,1,6.29-4.19,14.42,14.42,0,0,1,3.19-.79,9.52,9.52,0,0,0,6.74-3.71c4.18-4.78,9.09-14.56,9.14-14.65a1.92,1.92,0,0,1,.79-.83l11.11-6.17L221.77,99a1.88,1.88,0,0,1,1.13-.47l18.2-1.26.4-2.19c.07-3.06-2.78-10.26-22.57-24.13-11.57-8.12-23.36-14.54-23.48-14.61a1.89,1.89,0,0,1-.88-1c-4.83-12.79-12.88-19.23-24-28.14-4.86-3.88-10.36-8.28-16.27-13.8C142.78,2.66,138.09,1.46,136.57,1.46ZM72.69,354.75a12.68,12.68,0,0,1,3.85-1.14l-.94-6.12-2.29-6.86-7.11-5.92a1.93,1.93,0,0,1,.06-3l19.45-15.05a1.91,1.91,0,0,1,2.7.34l19.45,25.1a1.87,1.87,0,0,1,.4,1.06l.56,9.56,6.54,3.26a2,2,0,0,1,1,1.5l2.21,18.25,13.64-9a1.88,1.88,0,0,1,1.05-.32,1.83,1.83,0,0,1,.61.11l5.65,1.88a1.91,1.91,0,0,1,1.25,1.31l11.75,42,5.14,4a.93.93,0,0,1,.18.16l4.39,4.39a2,2,0,0,1,.56,1.2l.63,7.53a2.24,2.24,0,0,1-.05.63C162.73,432.42,161,440,161,442.4c0,3.06.63,20.46.63,20.63v.23l-1.26,15.68a2,2,0,0,1-.56,1.21L151,488.93a1.91,1.91,0,0,1-2.72,0,87.41,87.41,0,0,0-11.39-9.52,18.22,18.22,0,0,1-7.35,4.34,13.93,13.93,0,0,1-3.57.94,1.25,1.25,0,0,1-1-.41.77.77,0,0,1-.18-.1l-5-3.13a1.89,1.89,0,0,1-.88-1.34l-1.76-11.12-3.74-2.67a44.41,44.41,0,0,0-6.49-3.54c-2.52-1-5.48-2-6.46-2.36l-14.08.61h-.1a1.93,1.93,0,0,1-1.18-.42A38.34,38.34,0,0,0,70.2,453.7c-7.85-1.57-8.55-8.47-9.07-13.51a20.56,20.56,0,0,0-1.1-5.8,30.2,30.2,0,0,0-5.25-8.2,2,2,0,0,1-.5-.89l-3.11-12.42-6.55-16.09c-3.65-1.62-9.09-4.46-9.79-7.25a24.92,24.92,0,0,1-.08-6.51,55.14,55.14,0,0,0,0-8.81c-.55-5,.16-8.9,2.19-11.94.58-.87,1.18-1.76,2.34-1.76a2.89,2.89,0,0,1,.68.09l.14,0a6,6,0,0,0,1.6-.37,28,28,0,0,1,4-1,50.79,50.79,0,0,0,7.06-1.85L55,352a1.93,1.93,0,0,1,1.79-1.21,1.82,1.82,0,0,1,.65.12c.09,0,8.64,3.07,13.39,3.66l1.88.22Z" transform="translate(-1.02 -1.46)"/></g></g></svg>