<svg width="462" height="408" viewBox="0 0 462 408" fill="none" xmlns="http://www.w3.org/2000/svg">
<g clip-path="url(#clip0_545_1287)">
<path d="M335.135 73.6856V220.464H127.027V72.8942L335.135 73.6856Z" stroke="black" stroke-width="2" stroke-miterlimit="10"/>
<path d="M331.161 90.7449H127.819" stroke="black" stroke-miterlimit="10"/>
<path d="M165.35 85.984C163.048 85.984 161.181 84.1195 161.181 81.8196C161.181 79.5197 163.048 77.6553 165.35 77.6553C167.653 77.6553 169.52 79.5197 169.52 81.8196C169.52 84.1195 167.653 85.984 165.35 85.984Z" stroke="black" stroke-width="1.5" stroke-miterlimit="10"/>
<path d="M151.947 85.984C149.645 85.984 147.778 84.1195 147.778 81.8196C147.778 79.5197 149.645 77.6553 151.947 77.6553C154.25 77.6553 156.116 79.5197 156.116 81.8196C156.116 84.1195 154.25 85.984 151.947 85.984Z" stroke="black" stroke-width="1.5" stroke-miterlimit="10"/>
<path d="M138.742 85.984C136.439 85.984 134.573 84.1195 134.573 81.8196C134.573 79.5197 136.439 77.6553 138.742 77.6553C141.044 77.6553 142.911 79.5197 142.911 81.8196C142.911 84.1195 141.044 85.984 138.742 85.984Z" stroke="black" stroke-width="1.5" stroke-miterlimit="10"/>
<path d="M250.043 184.86V158.677H203.278" stroke="black" stroke-width="2" stroke-miterlimit="10"/>
<path d="M249.745 200.927H147.876V167.009C147.876 167.009 156.515 186.945 166.045 183.374C166.045 183.374 175.877 171.174 180.939 175.639C186.001 180.105 194.653 192.598 196.725 189.919C198.798 187.24 204.174 178.613 208.343 181.292C212.512 183.971 219.064 193.773 222.057 190.513C225.05 187.253 228.908 182.483 233.077 183.374C237.246 184.266 248.852 188.72 249.745 200.927Z" fill="white"/>
<path d="M196.131 200.632H147.876V165.524" stroke="black" stroke-width="2" stroke-miterlimit="10"/>
<path d="M249.745 128.629L239.383 136.078C238.117 136.988 236.568 137.419 235.013 137.294C233.458 137.168 231.998 136.495 230.895 135.393L224.3 128.806C223.346 127.854 222.078 127.282 220.732 127.194C219.387 127.107 218.056 127.511 216.986 128.331L213.234 131.21C212.11 132.075 210.719 132.522 209.301 132.475C207.882 132.427 206.524 131.889 205.46 130.952L192.895 119.877C191.806 118.914 190.407 118.373 188.952 118.354C187.497 118.335 186.085 118.839 184.971 119.774L180.512 123.503C179.286 124.528 177.742 125.097 176.143 125.112C174.544 125.127 172.989 124.587 171.744 123.585L148.461 104.827" stroke="#00C15B" stroke-width="2" stroke-miterlimit="10"/>
<path d="M249.745 140.827L239.886 133.073C238.711 132.15 237.257 131.653 235.762 131.663C234.267 131.673 232.82 132.189 231.657 133.128L228.204 135.92C226.804 137.052 225.055 137.665 223.253 137.654C221.452 137.643 219.71 137.009 218.324 135.859L211.01 129.771C209.994 128.93 208.728 128.449 207.41 128.404C206.092 128.358 204.796 128.751 203.726 129.521L197.225 134.197C195.953 135.115 194.384 135.526 192.824 135.349C191.265 135.173 189.827 134.422 188.793 133.244L187.817 132.133C187.352 131.601 186.784 131.168 186.148 130.86C185.511 130.552 184.819 130.375 184.113 130.339C183.407 130.304 182.7 130.411 182.036 130.653C181.372 130.896 180.764 131.27 180.247 131.752L179.717 132.248C179.1 132.825 178.374 133.273 177.582 133.567C176.79 133.861 175.948 133.994 175.103 133.96C174.259 133.926 173.43 133.724 172.665 133.367C171.899 133.01 171.212 132.505 170.644 131.88L167.392 128.312C166.216 127.019 164.597 126.215 162.855 126.058C161.113 125.901 159.376 126.404 157.987 127.466L149.079 134.282" stroke="#FFA0FF" stroke-width="2" stroke-miterlimit="10"/>
<path d="M220.753 129.223C219.511 129.223 218.504 128.217 218.504 126.976C218.504 125.735 219.511 124.729 220.753 124.729C221.995 124.729 223.002 125.735 223.002 126.976C223.002 128.217 221.995 129.223 220.753 129.223Z" fill="#00C15B"/>
<path d="M189.643 119.965C188.401 119.965 187.394 118.96 187.394 117.719C187.394 116.478 188.401 115.472 189.643 115.472C190.885 115.472 191.892 116.478 191.892 117.719C191.892 118.96 190.885 119.965 189.643 119.965Z" fill="#00C15B"/>
<path d="M148.473 104.827V147.67H187.79" stroke="black" stroke-width="2" stroke-miterlimit="10"/>
<path d="M210.427 106.017H249.15V148.267" stroke="black" stroke-width="2" stroke-miterlimit="10"/>
<path d="M64.0788 337.215C65.1357 337.215 66.169 337.527 67.048 338.113C67.927 338.699 68.6123 339.533 69.017 340.508C69.4217 341.483 69.5278 342.556 69.3218 343.592C69.1157 344.627 68.6068 345.578 67.8595 346.325C67.1122 347.071 66.1599 347.58 65.1233 347.785C64.0867 347.991 63.0123 347.885 62.036 347.481C61.0596 347.077 60.2253 346.392 59.6385 345.514C59.0517 344.636 58.7388 343.604 58.7394 342.548C58.741 341.134 59.3041 339.779 60.305 338.779C61.306 337.779 62.6632 337.217 64.0788 337.215ZM64.0788 336.302C62.8412 336.302 61.6314 336.668 60.6024 337.355C59.5734 338.042 58.7715 339.018 58.298 340.161C57.8246 341.303 57.7008 342.559 57.9425 343.772C58.1842 344.984 58.7804 346.098 59.6557 346.972C60.531 347.846 61.6461 348.441 62.86 348.681C64.0739 348.922 65.332 348.798 66.4752 348.324C67.6184 347.851 68.5954 347.049 69.2825 346.021C69.9697 344.993 70.3361 343.785 70.3355 342.548C70.3355 341.728 70.1736 340.915 69.8592 340.157C69.5447 339.399 69.0838 338.71 68.5028 338.13C67.9217 337.55 67.232 337.09 66.4729 336.777C65.7138 336.463 64.9003 336.301 64.0788 336.302Z" fill="black"/>
<path d="M140.631 365.431C144.702 365.431 148.682 366.637 152.066 368.896C155.451 371.155 158.089 374.366 159.646 378.123C161.203 381.88 161.611 386.014 160.816 390.002C160.021 393.99 158.06 397.653 155.181 400.527C152.302 403.402 148.634 405.359 144.641 406.151C140.648 406.943 136.51 406.535 132.749 404.978C128.989 403.42 125.775 400.784 123.515 397.402C121.255 394.02 120.049 390.045 120.051 385.979C120.057 380.529 122.228 375.304 126.086 371.45C129.944 367.596 135.175 365.428 140.631 365.422V365.431ZM140.631 364.509C136.38 364.51 132.225 365.77 128.691 368.13C125.157 370.49 122.403 373.844 120.777 377.767C119.151 381.69 118.726 386.007 119.557 390.171C120.387 394.336 122.434 398.161 125.441 401.163C128.447 404.165 132.277 406.209 136.446 407.037C140.616 407.865 144.937 407.439 148.865 405.814C152.792 404.189 156.148 401.437 158.51 397.906C160.872 394.376 162.132 390.225 162.132 385.979C162.126 380.287 159.859 374.83 155.83 370.805C151.801 366.78 146.339 364.516 140.641 364.509H140.631Z" fill="black"/>
<path d="M140.631 380.652C141.688 380.652 142.722 380.965 143.6 381.552C144.479 382.138 145.164 382.972 145.568 383.948C145.972 384.924 146.077 385.997 145.87 387.032C145.664 388.068 145.154 389.019 144.406 389.765C143.658 390.51 142.705 391.018 141.668 391.223C140.631 391.428 139.557 391.321 138.581 390.915C137.605 390.51 136.771 389.825 136.185 388.946C135.599 388.067 135.287 387.035 135.289 385.979C135.291 384.564 135.854 383.208 136.855 382.207C137.857 381.207 139.215 380.644 140.631 380.642V380.652ZM140.631 379.729C139.394 379.73 138.185 380.098 137.157 380.785C136.129 381.473 135.328 382.449 134.855 383.591C134.383 384.733 134.26 385.99 134.502 387.202C134.744 388.414 135.34 389.527 136.215 390.4C137.091 391.273 138.206 391.868 139.419 392.109C140.633 392.349 141.89 392.225 143.033 391.752C144.176 391.279 145.153 390.478 145.84 389.45C146.527 388.423 146.894 387.215 146.894 385.979C146.894 384.322 146.235 382.733 145.063 381.561C143.89 380.389 142.299 379.73 140.641 379.729H140.631Z" fill="black"/>
<path d="M203.183 364.831C207.314 364.831 211.352 366.055 214.787 368.347C218.221 370.64 220.898 373.898 222.479 377.71C224.06 381.522 224.473 385.717 223.667 389.764C222.861 393.81 220.871 397.528 217.95 400.445C215.029 403.362 211.307 405.349 207.256 406.154C203.204 406.958 199.005 406.545 195.189 404.965C191.373 403.386 188.111 400.712 185.816 397.28C183.522 393.849 182.298 389.816 182.298 385.69C182.305 380.159 184.507 374.857 188.423 370.947C192.338 367.036 197.646 364.837 203.183 364.831ZM203.183 364.223C198.932 364.222 194.776 365.481 191.24 367.84C187.705 370.199 184.95 373.552 183.322 377.475C181.695 381.398 181.269 385.716 182.098 389.881C182.928 394.046 184.975 397.872 187.981 400.874C190.987 403.877 194.818 405.922 198.988 406.751C203.157 407.579 207.48 407.153 211.407 405.528C215.335 403.903 218.692 401.15 221.054 397.619C223.415 394.088 224.676 389.936 224.675 385.69C224.668 379.998 222.402 374.542 218.373 370.517C214.344 366.493 208.881 364.229 203.183 364.223Z" fill="#65ADC7"/>
<path d="M203.183 380.052C204.3 380.052 205.392 380.383 206.321 381.003C207.25 381.623 207.974 382.504 208.401 383.535C208.828 384.566 208.94 385.7 208.722 386.794C208.504 387.889 207.966 388.894 207.175 389.682C206.385 390.471 205.379 391.008 204.283 391.226C203.188 391.443 202.052 391.331 201.02 390.903C199.988 390.476 199.107 389.752 198.486 388.824C197.866 387.896 197.536 386.805 197.536 385.69C197.538 384.194 198.133 382.761 199.192 381.704C200.251 380.647 201.686 380.053 203.183 380.052ZM203.183 379.443C201.946 379.443 200.736 379.809 199.706 380.495C198.677 381.182 197.874 382.158 197.4 383.3C196.926 384.442 196.802 385.699 197.044 386.911C197.285 388.124 197.881 389.238 198.756 390.112C199.631 390.986 200.746 391.581 201.96 391.822C203.174 392.063 204.433 391.939 205.576 391.466C206.719 390.993 207.697 390.191 208.384 389.163C209.071 388.135 209.438 386.926 209.437 385.69C209.436 384.033 208.777 382.445 207.604 381.274C206.432 380.102 204.842 379.444 203.183 379.443Z" fill="#65ADC7"/>
<path d="M140.631 278.759C176.008 278.759 204.799 307.511 204.799 342.847C204.799 378.183 176.017 406.932 140.641 406.932C105.264 406.932 76.4795 378.183 76.4795 342.847C76.4795 307.511 105.261 278.759 140.641 278.759H140.631ZM140.641 278.15C104.926 278.15 75.8699 307.173 75.8699 342.847C75.8699 378.521 104.926 407.54 140.641 407.54C176.355 407.54 205.408 378.521 205.408 342.847C205.408 307.173 176.343 278.15 140.631 278.15H140.641Z" fill="#65ADC7"/>
<path d="M140.631 337.206C141.748 337.206 142.84 337.537 143.769 338.157C144.697 338.776 145.421 339.657 145.849 340.688C146.276 341.719 146.388 342.853 146.17 343.947C145.952 345.041 145.414 346.046 144.625 346.835C143.835 347.624 142.829 348.161 141.733 348.379C140.638 348.597 139.502 348.485 138.47 348.058C137.438 347.631 136.556 346.908 135.936 345.981C135.315 345.053 134.984 343.962 134.984 342.847C134.986 341.351 135.581 339.917 136.64 338.86C137.699 337.802 139.134 337.208 140.631 337.206ZM140.631 336.597C139.394 336.598 138.185 336.966 137.157 337.653C136.129 338.341 135.328 339.317 134.855 340.459C134.383 341.601 134.26 342.858 134.502 344.07C134.744 345.282 135.34 346.395 136.215 347.268C137.091 348.141 138.206 348.736 139.419 348.977C140.633 349.217 141.89 349.093 143.033 348.62C144.176 348.147 145.153 347.346 145.84 346.318C146.527 345.291 146.894 344.083 146.894 342.847C146.894 341.19 146.235 339.601 145.063 338.429C143.89 337.257 142.299 336.598 140.641 336.597H140.631Z" fill="#65ADC7"/>
<path d="M50.9741 215.505H64.6761V342.548H140.631V385.096" stroke="black" stroke-width="2" stroke-miterlimit="10"/>
<path d="M61.6986 211.934H35.4862V220.266H61.6986V211.934Z" fill="#65ADC7"/>
<path d="M64.0788 251.508L202.287 249.127V385.69" stroke="black" stroke-width="2" stroke-miterlimit="10"/>
<path d="M64.3774 295.541H128.715" stroke="black" stroke-width="2" stroke-miterlimit="10"/>
<path d="M176.011 338.947L183.292 362.22L199.31 357.063L192.69 332.466L176.011 338.947Z" fill="#FFA2FF"/>
<path d="M176.011 338.947L179.851 351.242L194.808 340.929L192.69 332.466L176.011 338.947Z" fill="black"/>
<path d="M181.704 357.328L183.292 362.219L199.31 357.063L195.47 343.574L181.704 357.328Z" fill="black"/>
<path d="M86.2531 199.307V213.191H98.6995V201.953L86.2531 199.307Z" fill="#FFA0FF"/>
<path d="M86.3872 196.531L86.247 203.009C86.247 203.009 89.9559 210.15 98.6934 208.564V200.367L86.3872 196.531Z" fill="black"/>
<path d="M110.363 179.42C111.197 178.485 111.666 177.281 111.686 176.029C111.705 174.776 111.272 173.559 110.467 172.598C109.662 171.638 108.537 170.999 107.3 170.799C106.062 170.598 104.793 170.849 103.725 171.505C103.702 170.293 103.258 169.126 102.468 168.205C101.678 167.284 100.591 166.667 99.3947 166.459C98.1984 166.251 96.967 166.466 95.912 167.066C94.8569 167.666 94.0441 168.615 93.613 169.749C93.1276 168.655 92.2804 167.76 91.2134 167.215C90.1464 166.67 88.9243 166.508 87.7519 166.756C86.5796 167.004 85.5281 167.647 84.7736 168.577C84.0192 169.507 83.6076 170.668 83.6078 171.865C83.6078 172.011 83.6078 172.169 83.6291 172.297C82.5038 171.9 81.2765 171.901 80.1514 172.298C79.0262 172.695 78.0712 173.465 77.445 174.48C76.8189 175.494 76.5594 176.692 76.7097 177.875C76.8601 179.057 77.4112 180.153 78.2714 180.979C77.022 181.252 75.9161 181.972 75.1631 183.005C74.4101 184.038 74.0622 185.31 74.1854 186.582C74.3086 187.853 74.8942 189.035 75.8314 189.905C76.7687 190.774 77.9924 191.27 79.271 191.298C78.8542 192.198 78.7021 193.197 78.8325 194.179C78.9629 195.162 79.3705 196.087 80.0076 196.847C80.6448 197.607 81.4851 198.17 82.4307 198.471C83.3762 198.771 84.3878 198.797 85.3474 198.545C86.307 198.292 87.175 197.773 87.85 197.046C88.525 196.32 88.9791 195.417 89.1594 194.442C89.3397 193.467 89.2387 192.462 88.8681 191.542C88.4976 190.623 87.8728 189.828 87.0668 189.25C87.8198 189.13 88.5375 188.846 89.1693 188.42C89.801 187.993 90.3317 187.434 90.7239 186.781C91.7127 187.309 92.8454 187.505 93.9546 187.341C95.0638 187.177 96.0906 186.66 96.8831 185.868C97.4804 187.025 98.4875 187.919 99.7082 188.376C99.2142 189.109 98.9142 189.955 98.8362 190.835C98.7583 191.715 98.905 192.6 99.2625 193.408C99.6201 194.216 100.177 194.921 100.881 195.456C101.585 195.99 102.413 196.338 103.288 196.467C104.163 196.595 105.057 196.5 105.885 196.19C106.713 195.88 107.449 195.365 108.024 194.694C108.599 194.022 108.995 193.216 109.173 192.351C109.352 191.486 109.308 190.589 109.046 189.746C109.189 189.746 109.333 189.767 109.479 189.767C110.792 189.773 112.059 189.284 113.028 188.398C113.997 187.512 114.596 186.295 114.706 184.988C114.816 183.681 114.43 182.38 113.623 181.345C112.816 180.31 111.649 179.616 110.353 179.402L110.363 179.42Z" fill="black"/>
<path d="M100.997 188.842C100.076 188.842 99.1823 188.524 98.4685 187.941C97.7548 187.359 97.2647 186.547 97.0812 185.645C96.7894 186.21 96.3664 186.697 95.8476 187.066C95.3288 187.434 94.7292 187.673 94.099 187.762C93.4689 187.852 92.8264 187.789 92.2254 187.58C91.6245 187.37 91.0824 187.02 90.6447 186.558C90.2773 187.518 89.5535 188.299 88.6241 188.738C87.6948 189.178 86.6315 189.242 85.6557 188.918C84.8227 190.616 84.3931 192.484 84.4001 194.376C84.4001 200.531 88.7704 205.52 94.1525 205.52C99.5345 205.52 103.905 200.531 103.905 194.376C103.914 192.344 103.419 190.343 102.463 188.549C101.998 188.739 101.5 188.838 100.997 188.842Z" fill="#FFA0FF"/>
<path d="M92.0801 200.367L99.6259 198.513C99.6259 198.513 96.8435 204.068 92.0801 200.367Z" fill="white"/>
<path d="M168.465 180.132H189.052C189.736 180.133 190.393 180.406 190.877 180.89C191.361 181.374 191.633 182.03 191.633 182.714C191.632 183.397 191.36 184.053 190.876 184.536C190.392 185.02 189.736 185.291 189.052 185.292H177.864C177.864 185.292 179.586 185.554 179.321 187.143C179.055 188.732 178.129 188.729 178.129 188.729C178.129 188.729 180.378 189.39 179.586 191.11C178.793 192.829 178.26 192.696 178.26 192.696C178.26 192.696 180.113 193.755 179.321 195.207C178.528 196.659 178.129 198.513 174.819 198.647C171.51 198.781 166.082 198.647 166.082 198.647L149.863 224.15C148.545 226.222 146.725 227.927 144.572 229.109C142.418 230.291 140.001 230.911 137.544 230.911H129.94V214.647H137.221L156.342 186.863C158.243 184.092 160.422 181.522 162.845 179.192C165.18 176.948 167.923 173.986 167.923 172.464V170.48C167.923 169.814 168.189 169.175 168.66 168.705C169.131 168.234 169.77 167.969 170.437 167.968C171.104 167.968 171.744 168.233 172.216 168.704C172.688 169.174 172.953 169.813 172.954 170.48V173.95C172.954 174.606 172.817 175.256 172.551 175.856C172.286 176.457 171.898 176.996 171.412 177.438L168.465 180.132Z" fill="#FFA0FF" stroke="black" stroke-linecap="round" stroke-linejoin="round"/>
<path d="M110.149 263.91L166.07 266.302C170.002 266.471 173.776 267.894 176.838 270.364C179.9 272.833 182.088 276.218 183.081 280.022L197.71 336.11L173.104 342.448L158.603 287.706L105.98 287.097L110.149 263.91Z" fill="#65ADC7"/>
<path d="M173.326 196.635H170.611C170.084 196.634 169.579 196.424 169.207 196.052C168.836 195.68 168.627 195.176 168.627 194.65V194.65C168.627 194.124 168.836 193.62 169.208 193.249C169.58 192.877 170.084 192.668 170.611 192.668H177.032" stroke="black" stroke-linecap="round" stroke-linejoin="round"/>
<path d="M177.864 185.283H165.57C164.491 185.283 163.616 186.059 163.616 187.018C163.616 187.977 164.491 188.753 165.57 188.753H176.846" stroke="black" stroke-linecap="round" stroke-linejoin="round"/>
<path d="M129.94 214.647H133.978C134.508 215.476 134.822 216.425 134.891 217.406C134.961 218.388 134.783 219.371 134.375 220.266C132.985 223.441 134.984 226.019 134.984 226.019C134.984 226.019 136.968 230.78 134.375 230.978C131.781 231.176 127.624 230.978 127.624 230.978L129.94 214.647Z" fill="black"/>
<path d="M154.696 346.086L147.546 354.153L150.658 366.847L168.2 363.541L164.095 349.526L154.696 346.086Z" fill="#FFA2FF"/>
<path d="M149.402 361.69L152.447 372.268L170.449 369.358L165.948 356.798L149.402 361.69Z" fill="black"/>
<path d="M144.901 344.631L147.546 354.153L165.421 353.888L161.715 340.533L144.901 344.631Z" fill="black"/>
<path d="M235.451 337.757L241.144 343.44C241.144 343.44 223.934 359.191 219.037 362.235C214.139 365.279 201.032 372.944 201.032 372.944L182.895 370.962L185.675 366.192L223.273 343.446L235.451 337.757Z" fill="white" stroke="black" stroke-width="2" stroke-miterlimit="10"/>
<path d="M186.717 366.56C184.785 366.56 183.462 366.046 182.792 365.038C181.792 363.516 182.487 361.294 182.713 360.661C183.679 360.588 187.994 360.192 191.746 358.67C195.878 356.993 195.814 345.541 195.781 343.778C200.837 341.681 204.698 341.236 207.057 341.236C209.605 341.236 210.973 341.742 210.988 341.745L211.028 341.76H211.07C211.07 341.76 211.458 341.787 212.116 341.787C216.573 341.741 220.968 340.729 224.995 338.819C226.93 337.891 228.67 337.419 230.176 337.419C232.486 337.419 233.565 338.524 233.894 338.941C233.095 340.037 228.198 346.381 215.959 354.691C203.525 363.13 202.775 363.3 193.586 365.379C192.727 365.571 191.797 365.784 190.777 366.019C189.448 366.348 188.086 366.53 186.717 366.56Z" fill="#65ADC7"/>
<path d="M230.17 337.726C232.071 337.726 233.08 338.515 233.498 338.944C232.385 340.397 231.174 341.771 229.871 343.057C227.308 345.62 222.779 349.687 215.77 354.442C203.397 362.844 202.665 363.017 193.522 365.084L190.709 365.723C189.406 366.048 188.07 366.227 186.726 366.256C184.898 366.256 183.679 365.787 183.069 364.871C182.222 363.595 182.703 361.711 182.956 360.947C184.233 360.844 188.259 360.417 191.883 358.947C193.861 358.146 195.165 355.273 195.765 350.408C196.011 348.271 196.119 346.121 196.088 343.97C201.004 341.961 204.753 341.535 207.06 341.535C209.541 341.535 210.869 342.019 210.882 342.025L210.964 342.055H211.049C211.049 342.055 211.448 342.086 212.119 342.086C216.62 342.043 221.058 341.024 225.126 339.099C227.016 338.186 228.713 337.73 230.17 337.73V337.726ZM230.17 337.121C228.817 337.121 227.073 337.489 224.861 338.551C220.876 340.445 216.525 341.447 212.113 341.486C211.458 341.486 211.092 341.459 211.092 341.459C211.092 341.459 209.702 340.926 207.054 340.926C204.405 340.926 200.501 341.456 195.473 343.571C195.473 343.571 195.872 356.661 191.636 358.381C187.4 360.101 182.493 360.366 182.493 360.366C182.493 360.366 179.735 366.862 186.714 366.862C188.104 366.834 189.486 366.65 190.834 366.314C202.882 363.538 202.485 364.198 216.129 354.944C229.774 345.69 234.266 338.941 234.266 338.941C234.266 338.941 233.193 337.115 230.176 337.115L230.17 337.121Z" fill="black"/>
<path d="M203.942 341.589L201.824 346.746" stroke="black" stroke-width="2" stroke-linecap="round" stroke-linejoin="round"/>
<path d="M209.108 341.325L207.121 346.086" stroke="black" stroke-width="2" stroke-linecap="round" stroke-linejoin="round"/>
<path d="M213.74 341.854L212.283 345.294" stroke="black" stroke-width="2" stroke-linecap="round" stroke-linejoin="round"/>
<path d="M178.129 188.75H167.057C166.091 188.75 165.308 189.624 165.308 190.705C165.308 191.785 166.091 192.662 167.057 192.662L178.26 192.695" stroke="black" stroke-linecap="round" stroke-linejoin="round"/>
<path d="M153.053 226.921L183.465 223.773C184.056 223.712 184.652 223.792 185.206 224.005C185.76 224.218 186.256 224.559 186.653 224.999C187.05 225.44 187.338 225.968 187.493 226.54C187.647 227.112 187.665 227.713 187.543 228.293L179.808 265.56C179.645 266.345 179.236 267.057 178.64 267.594C178.043 268.13 177.291 268.463 176.492 268.543L146.751 271.52C146.167 271.579 145.577 271.5 145.029 271.291C144.48 271.082 143.988 270.748 143.591 270.316C143.195 269.883 142.905 269.364 142.744 268.8C142.584 268.236 142.558 267.642 142.667 267.066L149.738 229.949C149.891 229.156 150.297 228.433 150.894 227.887C151.491 227.342 152.248 227.003 153.053 226.921Z" fill="black"/>
<path d="M127.923 295.401H91.501C86.4139 295.403 81.5263 293.424 77.8752 289.886C74.2241 286.347 72.0968 281.527 71.9446 276.448L71.6185 265.343L111.039 266.649C111.383 267.823 112.098 268.853 113.078 269.586C114.058 270.319 115.249 270.714 116.473 270.713H116.711L132.11 270.077C132.375 270.077 132.638 270.062 132.9 270.062C137.079 270.065 141.14 271.447 144.452 273.994C147.764 276.541 150.141 280.109 151.213 284.144L166.505 341.784L142.597 348.488L127.923 295.401Z" fill="#65ADC7"/>
<path d="M71.9233 265.657L110.814 266.954C111.21 268.14 111.97 269.171 112.985 269.902C114.001 270.632 115.221 271.025 116.473 271.024H116.723L132.122 270.388C132.382 270.388 132.644 270.372 132.9 270.372C137.012 270.376 141.008 271.737 144.267 274.243C147.526 276.748 149.864 280.259 150.92 284.229L166.134 341.577L142.81 348.11L128.279 295.544L128.154 295.097H91.501C86.4934 295.097 81.6824 293.15 78.0884 289.666C74.4943 286.183 72.3999 281.439 72.2494 276.439L71.9233 265.657ZM71.2955 265.027L71.6399 276.457C71.7952 281.615 73.9559 286.51 77.6637 290.103C81.3715 293.697 86.3348 295.706 91.501 295.705H127.694L142.384 348.862L166.877 341.988L151.508 284.059C150.42 279.958 148.005 276.332 144.64 273.744C141.274 271.156 137.147 269.753 132.9 269.751C132.634 269.751 132.366 269.751 132.098 269.767L116.696 270.403H116.473C115.278 270.402 114.117 270.002 113.175 269.267C112.233 268.532 111.564 267.503 111.274 266.345L71.2955 265.021V265.027Z" fill="black"/>
<path d="M108.363 263.301C108.363 263.301 111.935 271.633 97.837 271.824C97.837 271.824 82.9434 268.85 77.5827 271.429C72.2219 274.007 71.6399 276.445 71.6399 276.445L71.2955 265.015L108.363 263.301Z" fill="black"/>
<path d="M131.656 212.662V233.557L117.357 233.821C117.357 233.821 117.887 267.672 117.491 267.672L69.3024 267.541L69.7016 243.739L69.8144 216.893C69.8184 215.735 70.2826 214.626 71.105 213.81C71.9273 212.994 73.0405 212.537 74.1999 212.54L131.656 212.662Z" fill="white"/>
<path d="M74.0749 241.225L76.3514 258.491C76.697 261.115 78.0624 263.497 80.1525 265.124C82.2426 266.75 84.8894 267.489 87.5209 267.182L138.812 261.191L144.767 261.06L152.712 256.829L158.667 255.916L162.967 253.395C163.195 253.262 163.392 253.082 163.546 252.869C163.7 252.655 163.808 252.412 163.864 252.154C163.919 251.897 163.92 251.631 163.867 251.373C163.814 251.115 163.708 250.87 163.555 250.655L162.507 249.176L163.357 248.771C163.609 248.651 163.834 248.483 164.02 248.275C164.205 248.067 164.348 247.825 164.438 247.561C164.529 247.298 164.566 247.019 164.548 246.742C164.53 246.464 164.457 246.192 164.333 245.943L163.699 244.68L164.668 244.141C165.053 243.927 165.344 243.576 165.484 243.158C165.623 242.74 165.6 242.285 165.421 241.882L164.979 240.896C164.806 240.513 164.502 240.204 164.122 240.025C163.741 239.845 163.309 239.808 162.903 239.919L162.361 239.082C162.039 238.587 161.543 238.23 160.972 238.081C160.4 237.933 159.793 238.003 159.271 238.278L153.373 241.374L149.412 241.639C149.412 241.639 149.277 238.595 147.278 239.258C145.279 239.922 133.509 247.322 133.509 247.322L97.4865 250.558C96.543 250.643 95.6043 250.351 94.8755 249.746C94.1468 249.142 93.6874 248.273 93.5978 247.331L92.8725 239.639L74.0749 241.225Z" fill="#FFA0FF" stroke="black" stroke-linecap="round" stroke-linejoin="round"/>
<path d="M147.019 256.829H152.712" stroke="black" stroke-linecap="round" stroke-linejoin="round"/>
<path d="M147.019 253.258L157.478 252.598L162.507 249.158" stroke="black" stroke-linecap="round" stroke-linejoin="round"/>
<path d="M146.754 249.687L155.757 248.762L163.699 244.665" stroke="black" stroke-linecap="round" stroke-linejoin="round"/>
<path d="M146.224 245.456L154.696 244.926L162.903 239.904" stroke="black" stroke-linecap="round" stroke-linejoin="round"/>
<path d="M145.828 241.624H149.402" stroke="black" stroke-linecap="round" stroke-linejoin="round"/>
<path d="M83.1994 248.631C86.5091 244.4 88.8923 245.587 88.8923 245.587L93.4637 246.056L92.8542 239.636L74.0566 241.222L75.428 251.63C77.5888 251.733 81.0478 251.395 83.1994 248.631Z" fill="black"/>
<path d="M87.0485 212.531L79.0516 213.14C75.9742 213.369 73.1062 214.783 71.0521 217.084C68.998 219.384 67.9183 222.391 68.0406 225.472L68.7782 244.123L94.7254 241.873L93.933 231.956" fill="white"/>
<path d="M87.0485 212.531L79.0516 213.14C75.9742 213.369 73.1062 214.783 71.0521 217.084C68.998 219.384 67.9183 222.391 68.0406 225.472L68.7782 244.123L94.7254 241.873L93.933 231.956" stroke="black" stroke-width="2" stroke-linecap="round" stroke-linejoin="round"/>
<path d="M167.996 239.109C167.996 239.109 166.167 238.251 165.96 240.327C165.753 242.403 165.21 242.841 165.21 242.841C165.044 243.307 164.985 243.803 165.037 244.295C165.09 244.786 165.253 245.259 165.515 245.678C166.429 247.07 166.694 247.551 167.767 246.896C168.127 246.838 168.496 246.875 168.837 247.003C169.318 247.216 169.961 247.377 170.766 245.292C170.766 245.292 169.318 244.543 169.91 243.526C170.501 242.51 170.766 242.348 170.766 242.348C170.226 241.882 169.882 241.23 169.803 240.522C169.751 239.484 169.55 238.573 167.996 239.109Z" fill="white"/>
<path d="M169.068 237.076C168.995 236.933 167.191 238.199 167.996 239.109C167.996 239.109 169.751 238.467 169.068 237.076Z" fill="white"/>
<path d="M145.959 376.633V384.831C145.959 384.831 187.662 387.212 208.181 375.443L206.048 368.302L204.655 369.029L145.959 376.633Z" fill="white" stroke="black" stroke-width="2" stroke-miterlimit="10"/>
<path d="M147.738 376.846C147.383 374.653 147.2 372.435 147.19 370.213C147.19 367.434 149.405 367.133 150.356 367.133H150.573C152.426 368.092 154.205 368.579 155.869 368.579C160.712 368.579 162.946 364.573 163.04 364.402L168.112 356.612C168.48 356.579 168.877 356.563 169.288 356.563C172.692 356.563 176.386 357.681 176.748 357.781C187.836 364.022 191.191 364.965 196.951 364.965C197.393 364.965 197.865 364.965 198.325 364.944H198.764C201.102 364.944 202.748 365.486 203.64 366.551C204.17 367.19 204.432 368.007 204.375 368.834C196.838 373.647 172.704 376.417 172.46 376.445L147.738 376.846Z" fill="#65ADC7"/>
<path d="M169.288 356.88C172.573 356.88 176.136 357.936 176.63 358.098C186.55 363.681 190.429 365.306 196.951 365.306C197.384 365.306 197.847 365.306 198.335 365.285H198.764C201.004 365.285 202.568 365.787 203.412 366.776C203.864 367.313 204.105 367.996 204.088 368.697C196.588 373.327 173.408 376.046 172.464 376.155L147.997 376.542C147.675 374.45 147.51 372.336 147.504 370.219C147.504 369.096 147.866 368.329 148.61 367.881C149.147 367.584 149.752 367.433 150.365 367.443H150.503C152.153 368.347 153.997 368.843 155.878 368.892C160.755 368.892 163.092 364.956 163.305 364.579L168.294 356.91C168.599 356.889 168.95 356.877 169.297 356.877L169.288 356.88ZM169.297 356.268C168.845 356.266 168.394 356.288 167.944 356.332L162.772 364.268C162.772 364.268 160.587 368.286 155.869 368.286C154.385 368.286 152.654 367.891 150.658 366.846C150.658 366.846 150.545 366.846 150.353 366.846C149.457 366.846 146.882 367.117 146.882 370.232C146.892 372.558 147.096 374.879 147.491 377.172L172.512 376.776C172.512 376.776 197.134 374 204.68 369.041C204.68 369.041 205.442 364.67 198.773 364.67H198.325C197.856 364.67 197.411 364.691 196.96 364.691C190.7 364.691 187.083 363.276 176.879 357.531C176.879 357.531 172.957 356.277 169.297 356.277V356.268Z" fill="black"/>
<path d="M170.187 360.369L176.87 357.525" stroke="black" stroke-width="1.75" stroke-linecap="round" stroke-linejoin="round"/>
<path d="M174.819 362.22L181.305 360.235" stroke="black" stroke-width="1.75" stroke-linecap="round" stroke-linejoin="round"/>
<path d="M179.055 364.731L185.014 362.484" stroke="black" stroke-width="1.75" stroke-linecap="round" stroke-linejoin="round"/>
<path d="M129.41 342.42C129.41 378.116 100.443 407.05 64.7066 407.05C28.9705 407.05 0 378.116 0 342.42C0 306.725 28.9705 277.788 64.7066 277.788C100.443 277.788 129.41 306.725 129.41 342.42ZM122.705 342.42C122.705 310.475 96.6881 284.485 64.7066 284.485C32.7251 284.485 6.70471 310.485 6.70471 342.42C6.70471 374.356 32.7251 400.353 64.7066 400.353C96.6881 400.353 122.705 374.365 122.705 342.42Z" fill="black"/>
<path d="M197.423 228.598H283.207V269.657H217.48V239.904L197.423 228.598Z" fill="#65ADC7"/>
<path d="M239.846 246.254V262.388H235.174V246.254H239.846ZM240.76 245.34H234.26V263.301H240.76V245.34Z" fill="white"/>
<path d="M249.543 234.263H249.598C249.798 234.267 249.995 234.312 250.177 234.396C250.358 234.48 250.52 234.6 250.653 234.75C250.786 234.899 250.888 235.073 250.951 235.263C251.015 235.452 251.038 235.653 251.021 235.852L250.305 244.321L250.211 245.435L251.323 245.304L258.028 244.516H264.733C265.145 244.534 265.535 244.71 265.821 245.008C266.106 245.306 266.266 245.703 266.266 246.115C266.266 246.528 266.106 246.924 265.821 247.222C265.535 247.521 265.145 247.697 264.733 247.715H264.071V249.541H266.36C266.732 249.541 267.088 249.689 267.351 249.952C267.614 250.214 267.762 250.57 267.762 250.942C267.762 251.313 267.614 251.669 267.351 251.932C267.088 252.194 266.732 252.342 266.36 252.342H265.72L265.763 254.168H265.872C266.656 254.193 267.594 254.531 267.664 255.977C267.676 256.087 267.663 256.199 267.627 256.304C267.592 256.409 267.534 256.505 267.457 256.585C267.043 257.021 265.979 257.28 264.617 257.28C264.312 257.28 264.071 257.28 263.904 257.255C263.736 257.231 263.559 257.228 263.532 257.225L263.41 259.051C263.41 259.051 263.526 259.066 263.715 259.082C264.324 259.161 264.83 259.386 265.04 259.69C265.123 259.817 265.176 259.961 265.195 260.111C265.215 260.262 265.2 260.414 265.153 260.558C264.848 262.016 263.888 262.171 263.483 262.171H263.392L243.381 262.388V245.614L247.319 240.032L247.444 239.855L247.477 239.642L248.087 235.517C248.14 235.169 248.315 234.852 248.582 234.622C248.848 234.392 249.188 234.265 249.54 234.263H249.543ZM249.54 233.35C248.969 233.35 248.417 233.555 247.985 233.928C247.552 234.301 247.268 234.816 247.185 235.38L246.575 239.505L242.467 245.34V263.301L263.416 263.069H263.498C263.895 263.069 265.632 262.942 266.064 260.719C266.464 258.704 264.58 258.263 263.821 258.168C263.629 258.168 263.517 258.141 263.517 258.141C263.517 258.141 263.635 258.141 263.821 258.168C264.007 258.196 264.294 258.196 264.62 258.196C266.144 258.196 268.673 257.891 268.582 255.928C268.469 253.493 266.418 253.264 265.894 253.249H266.36C266.974 253.249 267.563 253.005 267.998 252.571C268.432 252.138 268.676 251.549 268.676 250.936C268.676 250.632 268.616 250.331 268.5 250.05C268.383 249.77 268.213 249.514 267.998 249.3C267.783 249.085 267.527 248.914 267.246 248.798C266.965 248.682 266.664 248.622 266.36 248.622H264.705C265.357 248.599 265.975 248.325 266.428 247.856C266.882 247.387 267.135 246.761 267.135 246.109C267.135 245.457 266.882 244.831 266.428 244.362C265.975 243.894 265.357 243.619 264.705 243.596H257.958L251.204 244.391L251.92 235.922C251.948 235.599 251.908 235.275 251.806 234.968C251.703 234.661 251.538 234.378 251.323 234.137C251.107 233.896 250.844 233.701 250.55 233.564C250.256 233.428 249.937 233.353 249.613 233.344L249.54 233.35Z" fill="white"/>
</g>
<g clip-path="url(#clip1_545_1287)">
<path d="M383.76 220.411C383.76 220.411 378.093 156.256 364.539 142.9H309.912C309.912 142.9 300.199 160.294 298.178 220.411H336.417L340.059 203.412L344.095 220.806L383.76 220.411Z" fill="#EDEDED"/>
<path d="M331.964 179.735H336.215L340.059 203.412L336.416 220.411H326.906C326.906 220.411 337.224 181.151 331.964 179.735Z" fill="black"/>
<path d="M340.059 203.412L344.105 220.818" stroke="black" stroke-width="2" stroke-miterlimit="10"/>
<path d="M383.76 220.411C383.76 220.411 378.093 156.256 364.539 142.9" stroke="black" stroke-width="2" stroke-miterlimit="10"/>
<path d="M289.881 107.684L279.563 120.03L269.853 84.208C269.853 84.208 273.561 80.2261 269.648 74.5606C265.736 68.8952 264.388 67.5441 262.907 63.3633L262.333 61.7451C262.081 61.0326 261.58 60.4349 260.923 60.0617C260.266 59.6886 259.496 59.565 258.756 59.7137C258.325 59.7996 257.917 59.9747 257.559 60.2279C257.2 60.481 256.898 60.8065 256.673 61.1835C256.448 61.5604 256.304 61.9803 256.251 62.4162C256.198 62.8521 256.236 63.2943 256.365 63.7143L259.265 73.2126C259.265 73.2126 250.363 73.4828 248.742 70.7837C247.934 69.4326 247.664 67.6124 247.596 66.1246C247.568 65.4187 247.268 64.7508 246.76 64.2606C246.251 63.7704 245.573 63.4956 244.867 63.4938H244.823C244.13 63.4931 243.463 63.7564 242.957 64.23C242.451 64.7037 242.145 65.3522 242.1 66.0439L242.001 67.541L240.268 61.8942C240.159 61.5376 239.98 61.2061 239.743 60.9186C239.506 60.631 239.214 60.393 238.885 60.2182C238.556 60.0434 238.195 59.9352 237.824 59.8998C237.453 59.8644 237.078 59.9025 236.722 60.0119C236.032 60.2236 235.449 60.6902 235.091 61.3168C234.732 61.9434 234.626 62.683 234.794 63.3851L235.648 67.0036L232.543 64.4753C232.199 64.1987 231.802 63.9957 231.377 63.8789C230.951 63.7621 230.506 63.734 230.07 63.7963C229.633 63.8587 229.214 64.0101 228.838 64.2412C228.462 64.4724 228.138 64.7783 227.885 65.14C227.429 65.7978 227.235 66.602 227.341 67.3953C227.447 68.1885 227.844 68.9139 228.456 69.4294L256.166 92.7745L259.929 137.253C260.265 141.218 262.064 144.915 264.977 147.624C267.89 150.334 271.707 151.861 275.684 151.907C278.257 151.938 280.802 151.379 283.124 150.272C285.447 149.166 287.485 147.542 289.083 145.525L294.74 138.381L300.407 129.476L300.137 108.292L289.881 107.684Z" fill="#965B4E" stroke="black" stroke-width="1.5" stroke-linecap="round" stroke-linejoin="round"/>
<path d="M282.866 133.523L279.563 120.03" stroke="black" stroke-width="1.5" stroke-linecap="round" stroke-linejoin="round"/>
<path d="M260.883 76.9896L259.265 73.2126" stroke="black" stroke-width="1.5" stroke-linecap="round" stroke-linejoin="round"/>
<path d="M256.163 83.4657L251.341 79.2321C250.866 78.8191 250.448 78.3449 250.099 77.822C249.381 76.7473 248.969 75.4976 248.906 74.2066L248.732 70.7899" stroke="black" stroke-width="1.5" stroke-linecap="round" stroke-linejoin="round"/>
<path d="M242.001 67.5442L242.643 74.2035C242.753 75.3337 243.052 76.4373 243.528 77.468L245.37 81.4406" stroke="black" stroke-width="1.5" stroke-linecap="round" stroke-linejoin="round"/>
<path d="M239.572 76.0454L237.952 73.4798L235.66 67.0037" stroke="black" stroke-width="1.5" stroke-linecap="round" stroke-linejoin="round"/>
<path d="M292.21 110.417L289.881 107.684L285.127 113.352L296.861 133.489L300.404 129.476L292.21 110.417Z" fill="black"/>
<path d="M347.741 85.2206L355.941 85.1585C361.988 85.1134 367.983 86.2849 373.568 88.6033C379.153 90.9217 384.216 94.3398 388.454 98.6542L397.732 108.09L377.5 128.124L374.059 125.292V142.291H304.853L300.544 127.317L282.199 103.233L294.24 93.1814C300.699 87.7862 308.866 84.8662 317.28 84.9441L347.741 85.2206Z" fill="#5A6BB6"/>
<path d="M351.253 84.2764L344.375 115.442L332.874 100.297L318.882 112.88L322.928 84.6802L351.253 84.2764Z" fill="white"/>
<path d="M321.847 77.9339C321.847 77.9339 327.412 75.5049 330.231 66.5005L335.088 73.8867L334.28 85.4225C334.28 85.4225 321.348 87.5471 321.847 77.9339Z" fill="black"/>
<path d="M337.072 76.5175C332.63 76.5175 329.03 72.9158 329.03 68.4729C329.03 64.0299 332.63 60.4282 337.072 60.4282C341.513 60.4282 345.114 64.0299 345.114 68.4729C345.114 72.9158 341.513 76.5175 337.072 76.5175Z" fill="black"/>
<path d="M340.261 69.4326C340.261 69.4326 336.224 69.5351 332.371 63.059C332.371 63.059 326.3 68.8269 332.874 74.3929V100.297L341.568 84.8137L340.261 69.4326Z" fill="#975A4E"/>
<path d="M340.767 64.3729C340.767 64.3729 346.936 62.6553 347.443 76.9213C347.949 91.1874 340.767 89.6561 338.748 88.3578C338.748 88.3578 337.028 87.3452 335.612 84.8138C335.612 84.8138 339.86 81.6767 340.27 69.4327L340.767 64.3729Z" fill="black"/>
<path d="M337.426 70.7496C337.426 70.7496 333.786 71.7622 332.066 70.7496C332.066 70.7496 334.594 74.6943 337.426 70.7496Z" fill="white"/>
<path d="M357.658 108.696L374.047 125.292L374.249 137.03L362.111 113.858" fill="black"/>
<path d="M357.658 108.696L374.047 125.292L374.249 137.03L362.111 113.858" stroke="black" stroke-miterlimit="10"/>
<path d="M307.822 100.465L300.537 127.317" stroke="black" stroke-miterlimit="10"/>
<path d="M338.72 162.325L324.76 118.927L287.673 119.424L301.137 162.524L338.72 162.325Z" fill="#41DC82"/>
<path d="M324.533 119.241L288.092 119.729L301.363 162.21L338.295 162.015L324.533 119.241ZM324.984 118.62L339.146 162.633L300.907 162.835L287.245 119.12L324.977 118.614L324.984 118.62Z" fill="black"/>
<path d="M319.497 122.555L316.969 114.874L292.206 114.778L294.268 122.652L319.497 122.555Z" fill="white"/>
<path d="M292.61 115.088L294.507 122.341L319.068 122.245L316.746 115.185L292.61 115.088ZM291.803 114.467L317.196 114.57L319.925 122.866L294.029 122.968L291.803 114.467Z" fill="black"/>
<path d="M391.246 106.267L409.696 123.326C412.653 126.058 414.464 129.81 414.766 133.825C415.068 137.841 413.838 141.821 411.323 144.965L411.112 145.229C409.515 147.224 407.501 148.846 405.211 149.98C402.921 151.114 400.411 151.734 397.857 151.796L337.426 153.221L325.794 148.873H320.534L315.535 146.873C315.224 146.747 314.945 146.553 314.718 146.306C314.492 146.058 314.323 145.763 314.226 145.442C314.128 145.121 314.103 144.782 314.154 144.45C314.204 144.118 314.328 143.802 314.516 143.524L315.283 142.394L314.579 142.055C314.027 141.789 313.595 141.325 313.371 140.755C313.146 140.185 313.145 139.551 313.368 138.98L313.967 137.427L313.346 137.194C313.074 137.093 312.826 136.938 312.615 136.739C312.405 136.539 312.238 136.299 312.123 136.033C312.008 135.766 311.949 135.48 311.948 135.19C311.948 134.9 312.006 134.613 312.119 134.346C312.229 134.086 312.39 133.851 312.591 133.653C312.792 133.455 313.03 133.299 313.292 133.194C313.554 133.089 313.834 133.036 314.116 133.039C314.398 133.042 314.676 133.101 314.936 133.212L315.082 133.277C315.082 133.277 313.364 132.656 314.771 130.647C316.178 128.637 319.221 130.746 319.221 130.746C319.221 130.746 323.673 132.771 323.974 132.771C324.276 132.771 329.135 132.871 329.135 132.871L328.427 130.24C328.427 130.24 338.342 133.076 344.005 136.616L383.558 130.454L377.587 124.785L391.246 106.267Z" fill="#965B4E" stroke="black" stroke-width="1.5" stroke-linecap="round" stroke-linejoin="round"/>
<path d="M331.56 132.849L329.132 132.88" stroke="black" stroke-width="1.5" stroke-linecap="round" stroke-linejoin="round"/>
<path d="M331.83 136.759L323.13 136.694L314.923 133.222" stroke="black" stroke-width="1.5" stroke-linecap="round" stroke-linejoin="round"/>
<path d="M331.83 140.875L322.658 140.806L313.958 137.436" stroke="black" stroke-width="1.5" stroke-linecap="round" stroke-linejoin="round"/>
<path d="M331.899 144.652H321.646L315.274 142.394" stroke="black" stroke-width="1.5" stroke-linecap="round" stroke-linejoin="round"/>
<path d="M331.896 148.767L325.794 148.87" stroke="black" stroke-width="1.5" stroke-linecap="round" stroke-linejoin="round"/>
<path d="M377.587 124.786L389.693 106.808L395.627 110.047L396.841 112.206L383.558 130.454L377.587 124.786Z" fill="black"/>
<path d="M397.785 128.395L383.558 130.454" stroke="black" stroke-width="2" stroke-linecap="round" stroke-linejoin="round"/>
<path d="M355.947 85.1586C361.993 85.1143 367.987 86.2862 373.571 88.6046C379.155 90.923 384.217 94.3406 388.454 98.6543L397.732 108.091L377.5 128.125L374.059 125.292" fill="#5A6BB6"/>
<path d="M229.416 20.6329V20.6342C229.413 23.9212 230.237 27.156 231.811 30.0412C233.385 32.9264 235.659 35.3694 238.424 37.1456L238.523 37.2093L238.604 37.2943C239.991 38.7382 241.544 41.0355 241.545 44.0735L256.238 44.2261C256.259 43.8345 256.303 43.3537 256.39 42.8181C256.615 41.4219 257.138 39.5835 258.364 37.9942L258.489 37.8333L258.666 37.7336C261.677 36.0391 264.188 33.5794 265.944 30.6032C267.701 27.627 268.641 24.2397 268.669 20.7835C268.698 17.3274 267.814 13.9251 266.106 10.9203C264.399 7.9155 261.929 5.41481 258.946 3.67091C255.963 1.92701 252.573 1.00168 249.118 0.988426C245.663 0.975167 242.266 1.87444 239.27 3.5954C236.274 5.31635 233.785 7.79801 232.054 10.7896C230.324 13.7812 229.414 17.1767 229.416 20.6329Z" fill="#FFD400" stroke="black" stroke-width="2"/>
<path d="M244.121 45.0626L240.842 20.2142C240.842 20.2142 241.839 20.9162 244.985 19.8663C246.022 19.5216 246.711 22.9724 249.301 20.0403C249.301 20.0403 249.99 22.6307 253.443 20.0403C253.443 20.0403 254.825 22.112 257.414 20.559L253.272 45.075L244.121 45.0626Z" stroke="black" stroke-linecap="round" stroke-linejoin="round"/>
<path d="M259.141 44.0282H238.774V49.3861C238.774 52.0881 239.847 54.6794 241.757 56.59C243.667 58.5006 246.258 59.574 248.959 59.574C251.66 59.574 254.251 58.5006 256.161 56.59C258.071 54.6794 259.144 52.0881 259.144 49.3861V44.0282H259.141Z" fill="white" stroke="black" stroke-width="2" stroke-linecap="round" stroke-linejoin="round"/>
</g>
<path d="M328 373C326.875 373 325.875 372.625 325.125 371.875C323.5 370.375 323.5 367.75 325.125 366.25L346.25 345L325.125 323.875C323.5 322.375 323.5 319.75 325.125 318.25C326.625 316.625 329.25 316.625 330.75 318.25L354.75 342.25C356.375 343.75 356.375 346.375 354.75 347.875L330.75 371.875C330 372.625 329 373 328 373Z" fill="white" fill-opacity="0.5"/>
<path d="M369.5 376.5C368.234 376.5 367.109 376.078 366.266 375.234C364.438 373.547 364.438 370.594 366.266 368.906L390.031 345L366.266 321.234C364.438 319.547 364.438 316.594 366.266 314.906C367.953 313.078 370.906 313.078 372.594 314.906L399.594 341.906C401.422 343.594 401.422 346.547 399.594 348.234L372.594 375.234C371.75 376.078 370.625 376.5 369.5 376.5Z" fill="white" fill-opacity="0.5"/>
<path d="M419 387C417.312 387 415.812 386.438 414.688 385.312C412.25 383.062 412.25 379.125 414.688 376.875L446.375 345L414.688 313.312C412.25 311.062 412.25 307.125 414.688 304.875C416.938 302.438 420.875 302.438 423.125 304.875L459.125 340.875C461.562 343.125 461.562 347.062 459.125 349.312L423.125 385.312C422 386.438 420.5 387 419 387Z" fill="white" fill-opacity="0.5"/>
<defs>
<clipPath id="clip0_545_1287">
<rect width="335.592" height="335.106" fill="white" transform="translate(0 72.8942)"/>
</clipPath>
<clipPath id="clip1_545_1287">
<rect width="188.121" height="220.887" fill="white" transform="matrix(-1 0 0 1 415.121 0)"/>
</clipPath>
</defs>
</svg>
